<svg xmlns="http://www.w3.org/2000/svg" viewBox="0 0 242.12 171.62"><defs><style>.cls-1{fill:#1f1e1d;}.cls-2{fill:#292b2a;}.cls-3{fill:#a1988f;}.cls-4{fill:#453c38;}.cls-5{fill:#453c39;}.cls-6{fill:#605852;}.cls-7{fill:#534d4a;}.cls-8{fill:#473d3a;}.cls-9{fill:#504945;}.cls-10{fill:#12e2ec;}.cls-11{fill:#645b55;}.cls-12{fill:#645c55;}.cls-13{fill:#1a1815;}.cls-14{fill:#262422;}</style></defs><g id="Capa_2" data-name="Capa 2"><g id="Capa_1-2" data-name="Capa 1"><path class="cls-1" d="M223.73,28.17c1.6,2.93,3.43,5.77,4.75,8.82A151.05,151.05,0,0,0,240,58.16a13.27,13.27,0,0,1,2.09,8c-.25,7.53-2.15,14.36-6.77,20.49a83.08,83.08,0,0,0-8.25,13.72,7.65,7.65,0,0,1-2,2.57,22.48,22.48,0,0,0-7.41,10.82,12.81,12.81,0,0,1-2.6,4.1c-3.06,3.59-6.17,7.13-9.12,10.81-2,2.5-4.49,4.08-7.66,4-8.56-.26-15.51,2.86-21.55,8.92-5.83,5.86-13.16,8.1-21.42,7a19.77,19.77,0,0,0-2.18-.1c-10.42-.35-10.42-.35-17.6,7.38a20.81,20.81,0,0,0-2.17,2.44c-3.75,5.59-9.47,8.44-15.19,11.46-5.51,2.91-11.17,1.68-16.78,1.29-5.23-.36-10.41-1.39-15.64-1.92a41,41,0,0,1-14.37-4.68,3.39,3.39,0,0,0-3.56-.13c-7.57,4.59-15.35,3.77-23.28,1.14a36.39,36.39,0,0,0-7.41-1.65,8.61,8.61,0,0,1-6.58-4.23c-1.89-2.88-3.64-5.87-5.77-8.56-5.86-7.44-12-14.67-17.48-22.37S-2.71,112.93,1.89,103c.91-2,1.17-4.19,2.34-6.05,1.88,1.25-.4,2.35-.12,3.55l-.21.7-.07,1.52c-4.07,5.85-2,19.54,3.54,23.48.54.39,1.19.48,1.19-.25,0-3.43,1.87-7-.49-10.27-2-2.75-1.88-5.7-1.15-8.76L7,105.54l0-.69a49.67,49.67,0,0,0-.35-8.62h.89c.19.92.39,1.84.59,2.76.21,4,1,8-.39,12a2.21,2.21,0,0,0,.54,2A12.75,12.75,0,0,1,10,125.09c-1.05,3.08-.08,5.35,2.5,7.11a78.3,78.3,0,0,0,6.19,9.13,4.75,4.75,0,0,0,3.75,1.76A34.79,34.79,0,0,1,38.83,148c2,1.23,4.1,1.08,6.26.41.62-.19,1.62-.91,1.88,0,.31,1.11-1,.94-1.67,1.22C42,150.94,39,149.53,36,148.43c-3.87-3.19-8.6-3.19-13.33-3.7,2,4.42,4.8,7.41,10,7,2.69,1.13,5.64,1,9.23,1.67-5.28,2-9.42-.5-14.34-1.09,2.68,3.19,3.78,6.86,7.17,8.77.53.91,1.45.95,2.34,1.15,6,1.34,11.92,2.81,18,3.89,3.25.58,5.48-.1,7-3a85.36,85.36,0,0,1,11.44-11c1.52-1.17,3.26-2,.78-3.92-.42-.33-.26-1,0-1.53.61,0,.55,1.1,1.33.91,0-.32.11-.66,0-.84Q71.3,140.78,67,134.89a2.22,2.22,0,0,0-2.39-.88,83.71,83.71,0,0,0-11.82,2.63l-.2,0,.22.18,7.59.16c-.18.3-.31.82-.53.86-4,.68-7.83-.36-12.27-.56a4.62,4.62,0,0,1,2.42-1.4c4.27-1.07,8.59-1.94,12.88-2.91,3.25-.75,5,.5,6.58,2.74,2.16,3,4.18,6.08,6.47,9,3,3.82,3.08,4.13-.52,7.41-.94.85-2,1.59-2.85,2.49-2.9,2.93-6.34,5.35-8.49,9l-.82.47.22.32.72-.65c4.12-.42,6.9-3,9.32-6A53.14,53.14,0,0,1,85.4,146.69c3-2,5.92-4.05,9.93-3.79a30.42,30.42,0,0,0,7.48-.9c4.77-.91,9.28-.95,13.88,1.29,5.51,2.68,11.42,4.55,17,7.12,2.77,1.28,4.53,1,6.48-1.35,1.18-1.41.94-2-.28-3a26.05,26.05,0,0,1-4.42-3.55c-1.87-2.16-4.92-3.15-6-6.07h0l.55,0c3.48,2.85,7,5.65,10.42,8.58a6.83,6.83,0,0,0,6.74,1.48c-4.36-5.63-10.34-8.3-16.52-10.65-1.14-1.65-3.14-2.09-4.61-3.27-.52-.42-1.15-.91-.77-1.54.54-.89,1.07,0,1.53.28a77.15,77.15,0,0,0,7.75,4.47c5,2.53,10,5.06,13.76,9.44a3.7,3.7,0,0,0,3.06,1.54c4-.36,7.87.95,11.85.07,4.85-1.06,9.33-2.4,10.27-8.26a8.43,8.43,0,0,1,.51-1.54c2.45-6.23,5.67-11.88,11.27-15.89,1.61-1.16,3.71-2,3.74-4.55,2.93,1.2,3.51,3,2.27,5.65s-2.07,5.2-3,7.84c-.2.57-1,1.32,0,1.91s5.06-1.12,5.48-2.15c1.46-3.55,1.64-7.39,2.47-11.07.49-2.17,1.47-3.17,3.45-3.52a25,25,0,0,0,8.87-3.89c2.06-1.31,4.08-3.2,6.33-3.56,3.64-.57,5.59-3,8.06-5.09a10.46,10.46,0,0,0,3.91-6c.73-4,1.39-7.95.84-12.06-.57-4.26-1.43-8.73,3.11-11.71a2.63,2.63,0,0,0,1-2.41c0-6.23.76-12.45.54-18.7a16,16,0,0,0-1-4.43c-1.56-5-4.51-9.25-6.38-14q-1-2.24-2.05-4.47ZM101.18,148.47v1.07c-2.44.68-5.35.43-6.44,3.6-1.43,4.13-3.7,7.57-8,9.3a4,4,0,0,0-.85.64,24.11,24.11,0,0,0-5.32,3.15,18.13,18.13,0,0,0,2.29.67c6.23.92,12.45,2.21,18.73,2.59,5.41.33,10.83.9,16.28-1.45,7-3,12-8.23,16.86-13.72.41-.46,1-.92.16-1.53-1.84-1.06-3.95-1-5.95-1.32-6.87-1.17-13.66-3-20.7-3.07l-.08-1.17c2.45-.86,4.81.13,7.2.4a41.22,41.22,0,0,1,4.8.85,8.39,8.39,0,0,0,5,.2c-4.39-2.46-8.81-3.73-13-5.51a9.11,9.11,0,0,0-5-.49c-4.92.7-9.87,1.2-14.8,1.78-.73-.16-.38.43-.49.7a5.29,5.29,0,0,0-2.8.88c-7.11,3.63-12,9.7-17.11,15.54-.4.46-.7,1,0,1.32a48.44,48.44,0,0,0,5.93,2.67c1.34.44,2.16-1,3.23-1.6,1.82-1,3.57-2.14,5.45-3,2.62-1.23,4.79-2.7,5.64-5.75a30.63,30.63,0,0,1,2.46-5.1,1.14,1.14,0,0,0,1.07-.63l3-.5.71-.3ZM236.66,81c2-1.7,2.63-4,3-6.46.85-6.32,2.39-12.77-2.55-18.27-.86-1-1-3.14-2.45-2.82S234,55.8,233.52,57c0,4.16-.2,8.33-.07,12.48a6,6,0,0,1-2.18,5.23c-1.13.94-2.33,1.89-2.28,3.76.13,4.57.73,9.15.09,13.73,0,.06.24.15.48.29Zm-40.89,50.23c3.85.06,7.18-.85,9.42-4.28.83-1.27,2-2.33,2.89-3.56,2.87-3.91,6.95-6.91,8.79-11.57.43-1.08,2-2.34.78-3.33-1-.82-2.34.5-3.33,1.18-4.62,3.19-9.33,6.18-15,7.26a1.94,1.94,0,0,0-1.76,1.8A33.71,33.71,0,0,1,195,130C194.73,130.73,194.6,131.46,195.77,131.23Zm-5.45-10.44c0-.52,0-1-.43-1a4.73,4.73,0,0,0-1.7.69,27.19,27.19,0,0,0-12,15.45c-.42,1.37-2.45,2.9-1,4,1.2.95,2.35-1.22,3.4-2.05,3.61-2.85,7.9-5.11,9.17-10.19A64.42,64.42,0,0,1,190.32,120.79Z"/><path class="cls-2" d="M7.52,96.22H6.63c-.21-.2-.12-1-.74-.26-.39.5-.47,1.75-1.65,1Q8.62,84.67,13,72.4a4,4,0,0,1,.7-1.46c6.7-6.92,13-14.73,23.38-15.83,5-.53,7.68-3,10.3-6.7C54.16,39,62.72,31.34,71.87,24.33c1.65-1.27,3.72-1.4,5.71-1.5,6.42-.32,12.85-.55,19.28-.84,8.13-.38,15.7-2.36,22.12-7.71a14.94,14.94,0,0,1,3.28-1.88C129.63,8.94,137.08,5.65,144.37,2,149-.28,153.77-.4,158.67.58a116.58,116.58,0,0,1,19.65,6.15c.84.33,1.91.62,2.35,1.28,3.12,4.58,8.1,4.17,12.66,4.87,5.36.82,10.78,1.37,16.11,2.39,4.62.88,8.88,2.69,11.24,7.22.27.51,1.24,1.1.18,1.81-.88-.22-1.23-1-1.69-1.64-3.95-5.48-11.65-7.84-17.42-5.34-.4-.57.82-1,.06-1.71-4.71,4.58-9.39,9.16-14.12,13.7-1,.93-.36,1.61.11,2.34,1.61,2.48,3.25,4.94,4.88,7.41-3-.53-3.45-3.46-5-5.31-2.86-3.42-2.55-4.25.95-7.12,2.71-2.22,5.41-4.5,7.27-7.56,1.89-.61,3-2.06,4.2-3.76-4.93-.71-9.61-1.17-14.19-2.11-2.48-.51-4.24-.19-5.6,1.92-5,3.89-10,7.71-14.89,11.68-2.31,1.88-4.67,2.88-7.71,2.37a180.18,180.18,0,0,0-18.53-2.1,16.28,16.28,0,0,1-9.13-3c-2.45-1.84-5.08-3.45-7.64-5.16-.84-.65-1.73-1.26-2.53-2a1.69,1.69,0,0,0-2.58,0c-4.83,4.1-10.85,5.09-16.78,6-2.76.42-3.93,1.64-4.34,4.11-1.44,1.07-2,2.77-2.89,4.18-1.22,1.84-1.82,4.18-4.09,5.18.39-3.28,3.05-5.52,4.2-8.56-1.22-.13-1.37.73-1.75,1.28a27.42,27.42,0,0,1-11.83,9.52c-8.17,3.62-16.41,5.88-25.42,4.49-2.17-.34-2.59,1.87-3.54,3.17-.34.46.17.79.67.85a59.56,59.56,0,0,0,15.38.26c4.63-.65,8.49-3.35,12.72-5.1,2.89-1.2,5.3-3.44,8.54-3.86a7.32,7.32,0,0,1-2.57,2.34,97.67,97.67,0,0,1-9.64,5,30.94,30.94,0,0,1-17.54,3.3c-4.11-.46-9.34-2.42-12.24,3.14-.26.5-1.21.63-1,1.45s1.2.83,1.83.91c7.62,1,15,3.13,22.53,4.6.49.09,1.26-.15,1.32.57s-.74,1-1.35.92a95.48,95.48,0,0,0-10.28.62c-7,.5-13.82-1.13-20.69-2.14-1.2-.34-2.43-.6-3.59-1-2.68-1-4.82-.25-6.84,1.65a35.32,35.32,0,0,1-5.47,4.39A23.16,23.16,0,0,0,12.17,78.65c-.92,3.48-.86,3.88,3,4.46,4.85,3.45,10.55,4.46,16.21,5.54a2.64,2.64,0,0,0,2.23-.79c3.51-3,7.08-5.9,10.57-8.91,6.45-5.54,12.92-11.06,20.88-14.43.84-.36,1.6-1.29,2.69-.59,0,1-.76,1.23-1.39,1.47-8.92,3.42-13.79,11.46-20.14,17.78-1.33,1.32-4,2.72-3.36,4.46s3.23,2.41,4.75,3.81A9.63,9.63,0,0,0,56.39,94c2.39-.44,4.76-1.08,7.17-1.35,2.13-.23,4.23-1.18,6.43-.49,5,1.57,10,3.1,15,4.75a6.41,6.41,0,0,0,3.7.21c6-1.47,12.11-2.87,18.17-4.3.74-.17,1.49-.72,2.23,0,0,.83-.75.75-1.19.93-5.69,2.32-11.41,4.55-17.07,6.94a8.74,8.74,0,0,1-6.79.11c-8.84-3.2-17.75-5.4-27.22-2.48-2.28.71-4.89,1.52-7.37.16,1.59-.29,3.2-.55,4.78-.9,8.9-2,17.75-2.93,26.48.89a45.56,45.56,0,0,0,5.44,1.65c.58.17,1.11.62,1.8.34,3-1.2,6.14-2,8.94-3.61l1.39-.22c-.68-.51-1.12-.43-1.49.1a4.63,4.63,0,0,0-1.59.08c-6,2.51-11.82,1.49-17.55-1-.82-.36-1.79-.42-2.57-.82-4.2-2.16-8.46-1.47-12.88-.74-12.45,2-8.34,3-18.77-4.24-.22-.16-.44-.32-.67-.47-1.8-1.17-1.83-2.49-.4-4,2.81-3,5.61-5.9,8.37-8.9.51-.55,1.43-1,1.23-2.39-.93.76-1.63,1.3-2.31,1.87-4.93,4.12-9.89,8.2-14.76,12.39a5.36,5.36,0,0,1-5.21,1.3c-5.46-1.36-11-2.39-15.85-5.56-.68-.45-1.42-.8-2.13-1.19-.33-.19-.65-.31-.93.09a.73.73,0,0,0,0,1c.35.49,1.25.43,1.25,1.26-.82.19-1.94-.69-2.37.87C8.73,89.49,6.92,92.6,7.52,96.22Zm88.2-72.39-.21.28.25-.23.23-.27Zm-4.25,2.92c1.47-.57,2-1.82,2.77-3.51-5.57.32-10.77.63-16,.91-2.28.12-4.51.31-6.43,1.75-6.25,4.69-11.67,10.27-17.31,15.85a7.83,7.83,0,0,0,4.08-.12c7.67,1.58,14.15-2.21,21-4.47C85.17,35.34,88.31,31.12,91.47,26.75Zm85.9-14.83c-.2-.4,0-.68.28-.94,2.21-2.18,2.23-2.29-.77-3.38C170.49,5.29,164.09,3,157.39,1.8c-3.48-.61-7.06-.89-10.43.68q-11.82,5.48-23.6,11c-.1,0-.1.27-.15.44a6.78,6.78,0,0,0,4.07,1.32,9.41,9.41,0,0,0,6.61,3.59c8.66,1,17.35,1.56,26,2.25a3.67,3.67,0,0,0,2.1-.25c4.68-2.83,9.54-5.39,13.68-9,.56,0,1.13-.34,1.67.07a72.35,72.35,0,0,1-15.63,10.4,3.66,3.66,0,0,1-2.12.28c-4.86-.46-9.71-1.13-14.57-1.31-7.9-.29-15.4-1.7-22.06-6.21-1.1-.75-2.1-.7-3.12.56,4.12,2.76,8.07,5.44,12.07,8,1.27.83,2.47,1.88,4.12,1.91.12.24.25.27.41,0l1.79.23.18.36.23-.34,5,.3a1.78,1.78,0,0,0,2.06.21c4.35.45,8.71.82,13,1.39a5,5,0,0,0,4-.93c6.11-4.76,12.24-9.48,18.34-14.25.41-.32,1.33-.54.63-1.41-.55-.71-1.1-1.08-2-.46C179,11.19,178.39,12,177.37,11.92ZM62.43,59.54c-5.56-2.95-20.64-4.47-26.12-2.33C45,58.8,53.53,61.5,62.43,59.54Z"/><path class="cls-3" d="M201.75,17.32c5.77-2.5,13.47-.14,17.42,5.34.46.65.81,1.42,1.69,1.64a.48.48,0,0,1,.12.27c-.12,1.8,1.15,3,2,4.34s1.37,3,2.05,4.47l-1.34.07c-2.77-3.52-5.52-7.06-8.33-10.54a4.43,4.43,0,0,0-2.9-1.29c-3.79-.68-7.56-1.45-11.33-2.18.17-.74,1.28-1.16.7-2.14Z"/><path class="cls-3" d="M4.24,96.92c1.18.8,1.26-.45,1.65-1,.62-.79.53.06.74.26A49.67,49.67,0,0,1,7,104.85c-1.93.61-1.34-2.54-3.15-2.12,0-.51,0-1,.07-1.52l.21-.7c-.28-1.2,2-2.3.12-3.55Z"/><path class="cls-2" d="M223,28.91c-.82-1.37-2.09-2.54-2-4.34,2.15.26,1.92,2.34,2.75,3.6Z"/><path class="cls-4" d="M223.66,33.45l1.34-.07c1.87,4.8,4.82,9.1,6.38,14a16,16,0,0,1,1,4.43c.22,6.25-.56,12.47-.54,18.7a2.63,2.63,0,0,1-1,2.41c-4.54,3-3.68,7.45-3.11,11.71.55,4.11-.11,8.1-.84,12.06a10.46,10.46,0,0,1-3.91,6c-2.47,2.1-4.42,4.52-8.06,5.09-2.25.36-4.27,2.25-6.33,3.56a25,25,0,0,1-8.87,3.89c-2,.35-3,1.35-3.45,3.52-.83,3.68-1,7.52-2.47,11.07-.42,1-4.57,2.71-5.48,2.15s-.2-1.34,0-1.91c.93-2.64,1.83-5.3,3-7.84s.66-4.45-2.27-5.65c0,2.52-2.13,3.39-3.74,4.55-5.6,4-8.82,9.66-11.27,15.89a8.43,8.43,0,0,0-.51,1.54c-.94,5.86-5.42,7.2-10.27,8.26-4,.88-7.89-.43-11.85-.07a3.7,3.7,0,0,1-3.06-1.54c-3.75-4.38-8.76-6.91-13.76-9.44a77.15,77.15,0,0,1-7.75-4.47c-.46-.31-1-1.17-1.53-.28-.38.63.25,1.12.77,1.54,1.47,1.18,3.47,1.62,4.61,3.27l-.64.59-.55,0c0-.07,0-.14-.09-.18s-.09,0-.14,0l.23.22c1.07,2.92,4.12,3.91,6,6.07a26.05,26.05,0,0,0,4.42,3.55c1.22.92,1.46,1.55.28,3-1.95,2.34-3.71,2.63-6.48,1.35-5.57-2.57-11.48-4.44-17-7.12-4.6-2.24-9.11-2.2-13.88-1.29a30.42,30.42,0,0,1-7.48.9c-4-.26-7,1.81-9.93,3.79a53.14,53.14,0,0,0-11.85,11.05c-2.42,3-5.2,5.59-9.32,6l-.12-.14c2.15-3.64,5.59-6.06,8.49-9,.88-.9,1.91-1.64,2.85-2.49,3.6-3.28,3.54-3.59.52-7.41-2.29-2.89-4.31-6-6.47-9-1.63-2.24-3.33-3.49-6.58-2.74-4.29,1-8.61,1.84-12.88,2.91a4.62,4.62,0,0,0-2.42,1.4c4.44.2,8.28,1.24,12.27.56.22,0,.35-.56.53-.86l1,0c.4,1.71,1.78.83,2.75,1l2.4,2.12c.6.52,1,.26,1.15-.39l.91.9c-.26.18-.65.52-.38.71s.42-.27.52-.54c.8.67,1.79,1.17,2,2.33,0,1.82.91,2.85,2.8,2.9l-.09.07a.53.53,0,0,0,.58.57l.12-.11c-.23.52-.39,1.2,0,1.53,2.48,1.91.74,2.75-.78,3.92a85.36,85.36,0,0,0-11.44,11,73.1,73.1,0,0,1-19.26-1.85c-2.56-.53-5.35-1.86-8.08-.23-3.39-1.91-4.49-5.58-7.17-8.77,4.92.59,9.06,3.12,14.34,1.09-3.59-.69-6.54-.54-9.23-1.67-.19-2.42,1.84-2.57,3.34-3.27,3,1.1,6,2.51,9.35,1.18.71-.28,2-.11,1.67-1.22-.26-.9-1.26-.18-1.88,0-2.16.67-4.28.82-6.26-.41a34.79,34.79,0,0,0-16.41-4.9,4.75,4.75,0,0,1-3.75-1.76,78.3,78.3,0,0,1-6.19-9.13q.55-3.85,1.12-7.71l1,0,.6.54c1.13,2.8,3.66,4.34,5.69,6.32a4.09,4.09,0,0,0,5,.77,14.75,14.75,0,0,1,5.07-1.7c3,1.13,6.2.82,9.28,1.05,7.23.53,14.47,0,21.69-.52,6.59-.45,10.51-3,11.64-9.86a22.84,22.84,0,0,1,2.36-1.32c9.39-3.77,19-7,28.47-10.5a10.56,10.56,0,0,1,9.57.58,49,49,0,0,0,6.2,2.7c3.8,1.53,4.36,2.37,4.45,6.46,0,2.07-.31,4.19.29,6.21l.67,0V113.77c2.21.17,4.33.49,6.54-.58,7.46-3.6,15-7,22.53-10.45,1,0,1.53.88,2.18,1.48,3.52,3.25,3.93,3.31,8.25,1.15,1.22-.61,2.39-1.31,3.65-1.8a6,6,0,0,0,3.8-4.84,68.12,68.12,0,0,1,2.72-10.15,34.77,34.77,0,0,1,10.31-1.07c.28,1.51,1,.81,1.66.32,2.7-1.92,5.48-3.73,8.06-5.79,1.39-1.11,3.37-1.74,3.86-3.8h0c1.08-.07,2.32.07,2.2-1.63,3.33-2.29,6.57-4.74,10-6.83,4.69-2.85,6.47-7,7-12.29.33-3.4-.54-7.07,1.46-10.26.91.86,1.37,2,2.46,2.81,2.28,1.59,2.82,3.83,3.16,6.68.89,7.56-1.43,13.35-7.54,17.8-.87.62-2,1.34-1.72,2.82l-.06-.14-.6.61.07,0c-.81-.09-1.2.28-1.15,1.1l.05,0c-1.36,0-1.6,1.09-1.66,2.07-.24,3.86-.4,7.73-.59,11.6l-.45.45a2.19,2.19,0,0,0-2,.57c-3,3.36-7,5.36-10.61,7.95a3.87,3.87,0,0,0-2.09,3.18c6.53-4.49,13.32-7.41,19.84-10.87a2.94,2.94,0,0,0,1.81-2.55c0-2.71.27-5.49-.18-8.13-.68-4-.38-7.16,2.87-10.24,2.37-2.25,5.33-4.47,5.09-8.79-.27-5-.59-10.12.36-15.16.11-.57.39-1.4-.64-2-.45,1.32-.86,2.52-1.29,3.76-2.61-1.88-4.18-4-4.15-7.31,0-2.36-1-4.73-1.5-7.1C220.21,34.6,222.49,34.87,223.66,33.45Zm-54.66,83-.06,0c-2-.4-3.44.93-5,1.71-3.72,1.85-7.3,3.65-10.78-.51-.63-.75-1.91-.94-2.86-1.44-.5-.26-1-.63-1.44-.08s.06,1.06.34,1.47a42,42,0,0,0,5.54,6.31,4.44,4.44,0,0,0,4.62,1.32c2.36-.58,4.7-1.24,7.06-1.79a2.48,2.48,0,0,0,1.83-1.4,41.4,41.4,0,0,0,3.54-8.49C170.23,114.33,169.06,114.86,169,116.49Zm15.69-23.61a2.16,2.16,0,0,0-.62,2.58c.89,4.32,1.63,8.68,2.75,12.94a7,7,0,0,1-2.06,7.33c-2.78,2.83-5.43,5.8-8.12,8.72-.36.4-1.13.76-.3,1.73a156,156,0,0,0,12.12-12.69,2.35,2.35,0,0,0,.27-2.1C187.44,105.34,186.1,99.29,184.69,92.88Z"/><path class="cls-5" d="M108.27,148.4c7,.07,13.83,1.9,20.7,3.07,2,.34,4.11.26,5.95,1.32-4,1.91-8.06,3.7-12,5.77A21.22,21.22,0,0,1,112.54,161a103,103,0,0,0-21.22,1.95c-1.65.33-3.58,1.68-5.4.14a4,4,0,0,1,.85-.64c4.27-1.73,6.54-5.17,8-9.3,1.09-3.17,4-2.92,6.44-3.6Z"/><path class="cls-6" d="M13.6,124.49q-.57,3.86-1.12,7.71c-2.58-1.76-3.55-4-2.5-7.11A12.75,12.75,0,0,0,8.26,113a2.21,2.21,0,0,1-.54-2c1.4-4,.6-8,.39-12l5.56-11.53C17,88.83,19.91,91,23,92.81c2.73,1.57,2.79,1.88.73,4.37-2.81,3.41-5.72,6.7-6.56,11.29C16.2,113.86,13.77,118.92,13.6,124.49Z"/><path class="cls-7" d="M85.92,163.08c1.82,1.54,3.75.19,5.4-.14A103,103,0,0,1,112.54,161,21.22,21.22,0,0,0,123,158.56c3.91-2.07,8-3.86,12-5.77.85.61.25,1.07-.16,1.53C129.89,159.81,125,165,117.9,168c-5.45,2.35-10.87,1.78-16.28,1.45-6.28-.38-12.5-1.67-18.73-2.59a18.13,18.13,0,0,1-2.29-.67A24.11,24.11,0,0,1,85.92,163.08Z"/><path class="cls-8" d="M94.68,150.1a30.63,30.63,0,0,0-2.46,5.1c-.85,3.05-3,4.52-5.64,5.75-1.88.88-3.63,2-5.45,3-1.07.57-1.89,2-3.23,1.6A48.44,48.44,0,0,1,72,162.9c-.67-.33-.37-.86,0-1.32,5.1-5.84,10-11.91,17.11-15.54a5.29,5.29,0,0,1,2.8-.88C92.17,147.18,94.28,148.16,94.68,150.1Z"/><path class="cls-9" d="M195.77,131.23c-1.17.23-1-.5-.75-1.25a33.71,33.71,0,0,0,2.57-11.25,1.94,1.94,0,0,1,1.76-1.8c5.64-1.08,10.35-4.07,15-7.26,1-.68,2.32-2,3.33-1.18,1.21,1-.35,2.25-.78,3.33-1.84,4.66-5.92,7.66-8.79,11.57-.9,1.23-2.06,2.29-2.89,3.56C203,130.38,199.62,131.29,195.77,131.23Z"/><path class="cls-5" d="M236.66,81l-7.1,11.5c-.24-.14-.49-.23-.48-.29.64-4.58,0-9.16-.09-13.73-.05-1.87,1.15-2.82,2.28-3.76a6,6,0,0,0,2.18-5.23c-.13-4.15,0-8.32.07-12.48,2,1.19,2.17,3.36,2.57,5.32A53.26,53.26,0,0,1,236.66,81Z"/><path class="cls-10" d="M92.4,144.46c4.93-.58,9.88-1.08,14.8-1.78a9.11,9.11,0,0,1,5,.49c4.18,1.78,8.6,3.05,13,5.51a8.39,8.39,0,0,1-5-.2,41.22,41.22,0,0,0-4.8-.85c-2.39-.27-4.75-1.26-7.2-.4a27.81,27.81,0,0,0-7,1.24l-1.67.2-.71.3-3,.5C95,147.59,93.05,146.44,92.4,144.46Z"/><path class="cls-9" d="M190.32,120.79a64.42,64.42,0,0,0-2.57,7c-1.27,5.08-5.56,7.34-9.17,10.19-1.05.83-2.2,3-3.4,2.05-1.42-1.11.61-2.64,1-4a27.19,27.19,0,0,1,12-15.45,4.73,4.73,0,0,1,1.7-.69C190.31,119.77,190.36,120.27,190.32,120.79Z"/><path class="cls-7" d="M3.83,102.73c1.81-.42,1.22,2.73,3.15,2.12,0,.23,0,.46,0,.69-.56.43-.51.9-.08,1.39-.73,3.06-.84,6,1.15,8.76,2.36,3.27.52,6.84.49,10.27,0,.73-.65.64-1.19.25C1.83,122.27-.24,108.58,3.83,102.73Z"/><path class="cls-9" d="M236.66,81a53.26,53.26,0,0,0-.57-18.67c-.4-2-.52-4.13-2.57-5.32.44-1.21-.22-3.26,1.1-3.56s1.59,1.85,2.45,2.82c4.94,5.5,3.4,11.95,2.55,18.27C239.29,77,238.62,79.3,236.66,81Z"/><path class="cls-9" d="M34.67,161.05c2.73-1.63,5.52-.3,8.08.23A73.1,73.1,0,0,0,62,163.13c-1.56,2.86-3.79,3.54-7,3-6-1.08-12-2.55-18-3.89C36.12,162,35.2,162,34.67,161.05Z"/><path class="cls-10" d="M70.79,143.2c-.23-1.16-1.22-1.66-2-2.33l-.14-.17-.91-.9c-1-1.08-1.8-2.53-3.54-2.68L61.42,137l-1,0-7.59-.16,0-.22A83.71,83.71,0,0,1,64.63,134a2.22,2.22,0,0,1,2.39.88q4.26,5.9,8.49,11.81c.13.18,0,.52,0,.84-.78.19-.72-.88-1.33-.91l-.12.12c0-.43-.13-.65-.58-.58l.09-.07A6.06,6.06,0,0,0,70.79,143.2Z"/><path class="cls-9" d="M36,148.43c-1.5.7-3.53.85-3.34,3.27-5.19.44-8-2.55-10-7C27.35,145.24,32.08,145.24,36,148.43Z"/><path class="cls-8" d="M130,136.45l.64-.59c6.18,2.35,12.16,5,16.52,10.65a6.83,6.83,0,0,1-6.74-1.48C137,142.1,133.5,139.3,130,136.45Z"/><path class="cls-3" d="M13.67,87.45,8.11,99c-.2-.92-.4-1.84-.59-2.76-.6-3.62,1.21-6.73,2.12-10,.43-1.56,1.55-.68,2.37-.87l0,0c-.14.85.5,1,1.08,1.11Z"/><path class="cls-2" d="M101.18,148.47a27.81,27.81,0,0,1,7-1.24c0,.39.06.78.08,1.17l-7.09,1.14Z"/><path class="cls-2" d="M92.4,144.46c.65,2,2.55,3.13,3.35,5a1.14,1.14,0,0,1-1.07.63c-.4-1.94-2.51-2.92-2.77-4.94C92,144.89,91.67,144.3,92.4,144.46Z"/><path class="cls-4" d="M64.23,163.75l-.72.65-.22-.32.82-.47Z"/><path class="cls-3" d="M6.92,106.93c-.43-.49-.48-1,.08-1.39C7,106,6.94,106.47,6.92,106.93Z"/><path class="cls-7" d="M4.11,100.51l-.21.7Z"/><path class="cls-4" d="M52.81,136.64l0,.22-.22-.18Z"/><path class="cls-2" d="M98.8,149l.71-.3Z"/><path class="cls-11" d="M73.53,121.11c-1.13,6.89-5,9.41-11.64,9.86-7.22.49-14.46,1.05-21.69.52-3.08-.23-6.28.08-9.28-1.05-1.45-1-2.94-.6-4.33.07-2.06,1-3.7.5-5.5-.79-2.05-1.46-3.41-3.77-5.88-4.67l-.6-.54c.22-4.06,1.87-7.7,3.34-11.39.7-.35,1.22-.82,1-1.71h0a1.81,1.81,0,0,0,1.63-.79c4.86-5.12,10.26-9.72,14.71-15.23,1.53-1.89,2.81-2.14,5-.72S45,97.89,48,97.86l1.46.58c2.48,1.36,5.09.55,7.37-.16,9.47-2.92,18.38-.72,27.22,2.48a8.74,8.74,0,0,0,6.79-.11c5.66-2.39,11.38-4.62,17.07-6.94.44-.18,1.16-.1,1.19-.93-.74-.72-1.49-.17-2.23,0-6.06,1.43-12.12,2.83-18.17,4.3a6.41,6.41,0,0,1-3.7-.21c-5-1.65-10-3.18-15-4.75-2.2-.69-4.3.26-6.43.49-2.41.27-4.78.91-7.17,1.35a9.63,9.63,0,0,1-8.74-2.51c-1.52-1.4-4.19-2.19-4.75-3.81s2-3.14,3.36-4.46C52.61,76.86,57.48,68.82,66.4,65.4c.63-.24,1.42-.48,1.39-1.47-1.09-.7-1.85.23-2.69.59-8,3.37-14.43,8.89-20.88,14.43-3.49,3-7.06,5.93-10.57,8.91a2.64,2.64,0,0,1-2.23.79c-5.66-1.08-11.36-2.09-16.21-5.54,1.16-3.89,2.48-7.86,5.52-10.58a112.88,112.88,0,0,1,17.86-13.3c6.87,1,13.67,2.64,20.69,2.14a95.48,95.48,0,0,1,10.28-.62c.61,0,1.43-.06,1.35-.92s-.83-.48-1.32-.57c-7.53-1.47-14.91-3.62-22.53-4.6-.63-.08-1.56,0-1.83-.91s.7-1,1-1.45c2.9-5.56,8.13-3.6,12.24-3.14A30.94,30.94,0,0,0,76,45.86a97.67,97.67,0,0,0,9.64-5,7.32,7.32,0,0,0,2.57-2.34,1.85,1.85,0,0,0,1-2.05c2.27-1,2.87-3.34,4.09-5.18.94-1.41,1.45-3.11,2.89-4.18,9.31-.92,18-4,26.23-8.17,2.56,1.71,5.19,3.32,7.64,5.16a16.28,16.28,0,0,0,9.13,3,180.18,180.18,0,0,1,18.53,2.1c3,.51,5.4-.49,7.71-2.37,4.9-4,9.92-7.79,14.89-11.68,1.89.56,3.77,1.14,5.66,1.66,3.27.92,6.75.95,9.93,2.29-1.86,3.06-4.56,5.34-7.27,7.56-3.5,2.87-3.81,3.7-.95,7.12,1.54,1.85,2,4.78,5,5.31h-.07a1.08,1.08,0,0,0,.41,1.2c2.93,2,6.4,2.29,9.63,3.43A11.46,11.46,0,0,0,197,38.37c-3.2-1.39-3.58-4.54-4.92-7.1a1.6,1.6,0,0,1,.47-1.74q4.29-5,8.56-10.09c3.77.73,7.54,1.5,11.33,2.18a4.43,4.43,0,0,1,2.9,1.29c2.81,3.48,5.56,7,8.33,10.54-1.17,1.42-3.45,1.15-4.42,2.88-1,1-.48,2.18-.38,3.28.25,2.55.6,5.09.91,7.63-2,3.19-1.13,6.86-1.46,10.26-.53,5.32-2.31,9.44-7,12.29-3.45,2.09-6.69,4.54-10,6.83a2.62,2.62,0,0,0-2.2,1.63h0c-4.81,2.67-9,6.19-13.58,9.27a34.77,34.77,0,0,0-10.31,1.07c-.28-4.67-3-8.41-4.86-12.45-.88-1.91-1.23-4.26-3.66-5.47q2.1,7.31,4.21,14.63a14.45,14.45,0,0,1-2.13,5.76c-1.13,2.09-1.79,4.35-4.21,5.71-3.73,2.1-7.25,3.32-11.17.67-.26-.18-.7-.1-1-.15a2.39,2.39,0,0,0-2.06-.44c-4.66.65-9.39.16-14,.69-2.49.29-5.11-.21-7.53.92a42.14,42.14,0,0,0,12.17.79c4.92-.38,10.21-1.76,13.73,3.5-7.52,3.47-15.07,6.85-22.53,10.45-2.21,1.07-4.33.75-6.54.58-4.55-2.66-9.5-4.43-14.3-6.55a6,6,0,0,0-4.72-.17c-6.47,2.33-13,4.44-19.42,7-4.71,1.85-9.55,3.43-14,5.83-.45.24-1.23.43-1,1.07S73,121.15,73.53,121.11ZM177.87,35.83A2.82,2.82,0,0,0,179,38l2.18,2.74a16,16,0,0,0,1,2.18c2.8,4.32,4.47,9.12,6.09,14-.82,2-3.33,2.73-3.89,5l0,0c-.47.13-1.27-.12-1.23.63s.82.45,1.3.53a37.1,37.1,0,0,0,9-3.67c1.6-.82,2.14-1.74,1.13-3.66a39.26,39.26,0,0,1-3.08-8.08,16.65,16.65,0,0,0-6.83-9.37c-2.74-2-5-4.53-3.44-8.42v0c.75,0,1-.52,1.2-1.11.16-.32.32-.64.47-1,.41-.73,1.45-1.28.64-2.33a1.32,1.32,0,0,0-.13-.48l.26,0h.27a2.27,2.27,0,0,0,1.47-1.49c.28-.93,1.8-1.92.71-2.72-.8-.59-2,.46-2.69,1.3-2.1,2.68-4.48,5.12-6.26,8.07-1.38,2.26-1.05,4,.78,5.69Zm-54.26,3.81.46,1.09c-1.43.06-2.86,0-4.31.19-6.58.9-10.54,5.38-14.27,10.21-2,2.58-4.13,5.08-3.71,8.68.08.66-.91,1.38-.12,1.9s.93-.57,1.41-.86l.83-.57h0c1.66-.15,2.43-1.55,3.29-2.61,1.89-2.34,4.1-4.35,6.11-6.55A2.93,2.93,0,0,1,116.38,50L135,55a2.09,2.09,0,0,0,0,.5c-1,1.6-.48,3.37-.57,5.06-.12,2.42.17,4.8-1.63,6.92-3.14,3.7-6.06,7.58-9.06,11.39-.54.7-1.61,1.66-1,2.28.95,1.05,1.71-.34,2.4-.89,3.67-2.92,7.41-5.78,10.9-8.93,2-1.83,4.86-3.32,5.39-6.22a77.57,77.57,0,0,0,1.17-14.29c0-1.84-.74-2.84-2.62-3.12-2.94-.44-5.85-1-8.78-1.53-1.08-2.7-3.69-3.56-5.91-4.89,0-1.95-.91-3.67-1.5-5.46-1.12-3.39-3.38-4.5-6.88-3.41-4.39,1.37-8.81,2.67-13.16,4.18-8.3,2.86-6.79,1.29-6.77,10.23a2.29,2.29,0,0,0,1.35,2.49c-.12-2.48-.23-4.7-.34-6.93,2.15-1.07,4-2.56,6.44-3.21a96.11,96.11,0,0,0,9.25-2.88c3.37-1.31,6.21-1.36,8.38,2A7.26,7.26,0,0,0,123.61,39.64Zm51,7.65c1.79,1,2,2.9,2.73,4.47.64,1.28,1,2.73,3.21,3.87-.91-2-1.59-3.21-2-4.53-1.28-3.68-3.65-5.77-7.7-6a30.48,30.48,0,0,1-5.29-1,3.68,3.68,0,0,0-4.2,1.62c-4.38,6-4.53,9.95-.25,17.16,0-3.69-1.9-6.69-1.7-10a13.28,13.28,0,0,1,9.52-4.47C170.79,48.35,172.8,48.4,174.57,47.29ZM77.22,62.77c1.83.45,3.36,1.66,5.3,1.94,3.1.45,3.85,1.5,4,4.71s-.91,6.24-1.07,9.39c-.48,1.83-1.27,3.61-.94,5.61.88-.14,1-.77,1.21-1.21,1.85-3.3,3.77-6.57,5.44-10,1.85-3.77.08-7.36-.95-10.94-.22-.75-1.09-.92-1.8-1.06a60.71,60.71,0,0,0-7.14-1.37c-3.33-.27-5.89,1.48-8,4Z"/><path class="cls-12" d="M175.71,11.84c-4.14,3.65-9,6.21-13.68,9a3.67,3.67,0,0,1-2.1.25c-8.69-.69-17.38-1.28-26-2.25a9.38,9.38,0,0,1-6.61-3.6c5.55-3.48,11.87-5.16,17.88-7.58,3.91-1.57,7.91-3,12.36-1.84C163.73,7.45,170,8.93,175.71,11.84Z"/><path class="cls-10" d="M49.43,98.44,48,97.86c-2.9-1.65-5.83-3.25-8.69-5-1.44-.87-2.44-.59-3.56.56-4.78,4.94-9.64,9.79-14.41,14.74-.92.94-2,1.82-2.33,3.23h0l-1.06.17a15.27,15.27,0,0,1,3-8.82c1.62-2.17,3.26-4.33,5-6.38,1.3-1.51.89-2.49-.57-3.48A116.92,116.92,0,0,0,13.1,85.6c-.34-.27-.63-.7-1.14-.3l0,0c0-.83-.9-.77-1.25-1.26a.73.73,0,0,1,0-1c.28-.4.6-.28.93-.09.71.39,1.45.74,2.13,1.19,4.82,3.17,10.39,4.2,15.85,5.56a5.36,5.36,0,0,0,5.21-1.3c4.87-4.19,9.83-8.27,14.76-12.39.68-.57,1.38-1.11,2.31-1.87.2,1.4-.72,1.84-1.23,2.39-2.76,3-5.56,6-8.37,8.9-1.43,1.51-1.4,2.83.4,4,.23.15.45.31.67.47,10.43,7.28,6.32,6.28,18.77,4.24,4.42-.73,8.68-1.42,12.88.74.78.4,1.75.46,2.57.82,5.73,2.51,11.52,3.53,17.55,1a4.63,4.63,0,0,1,1.59-.08l.1.12c-2.8,1.65-6,2.41-8.94,3.61-.69.28-1.22-.17-1.8-.34a45.56,45.56,0,0,1-5.44-1.65c-8.73-3.82-17.58-2.85-26.48-.89C52.63,97.89,51,98.15,49.43,98.44Z"/><path class="cls-10" d="M177.37,11.92c1,.09,1.62-.73,2.34-1.2.94-.62,1.49-.25,2,.46.7.87-.22,1.09-.63,1.41-6.1,4.77-12.23,9.49-18.34,14.25a5,5,0,0,1-4,.93c-4.33-.57-8.69-.94-13-1.39l-2.06-.21-5-.3a.33.33,0,0,0-.41,0l-1.78-.23a.35.35,0,0,0-.42,0c-1.65,0-2.85-1.08-4.12-1.91-4-2.6-7.95-5.28-12.07-8,1-1.26,2-1.31,3.12-.56,6.66,4.51,14.16,5.92,22.06,6.21,4.86.18,9.71.85,14.57,1.31a3.66,3.66,0,0,0,2.12-.28,72.35,72.35,0,0,0,15.63-10.4Z"/><path class="cls-12" d="M91.47,26.75c-3.16,4.37-6.3,8.59-11.84,10.41-6.87,2.26-13.35,6.05-21,4.47C67.59,32.32,77.66,25.4,91.47,26.75Z"/><path class="cls-3" d="M175.71,11.84c-5.76-2.91-12-4.39-18.19-6-4.45-1.15-8.45.27-12.36,1.84-6,2.42-12.33,4.1-17.88,7.58A6.71,6.71,0,0,1,123.21,14c.05-.17.05-.4.15-.44Q135.15,8,147,2.48c3.37-1.57,6.95-1.29,10.43-.68,6.7,1.17,13.1,3.49,19.49,5.8,3,1.09,3,1.2.77,3.38-.26.26-.48.54-.28.94h0C176.84,11.5,176.27,11.86,175.71,11.84Z"/><path class="cls-3" d="M38.59,59.23a112.88,112.88,0,0,0-17.86,13.3c-3,2.72-4.36,6.69-5.52,10.58-3.9-.58-4-1-3-4.46A23.16,23.16,0,0,1,22.69,64.23a35.32,35.32,0,0,0,5.47-4.39c2-1.9,4.16-2.66,6.84-1.65C36.16,58.63,37.39,58.89,38.59,59.23Z"/><path class="cls-9" d="M89.21,36.48a1.85,1.85,0,0,1-1,2.05c-3.24.42-5.65,2.66-8.54,3.86-4.23,1.75-8.09,4.45-12.72,5.1a59.56,59.56,0,0,1-15.38-.26c-.5-.06-1-.39-.67-.85,1-1.3,1.37-3.51,3.54-3.17,9,1.39,17.25-.87,25.42-4.49A27.42,27.42,0,0,0,91.66,29.2c.38-.55.53-1.41,1.75-1.28C92.26,31,89.6,33.2,89.21,36.48Z"/><path class="cls-3" d="M91.47,26.75C77.66,25.4,67.59,32.32,58.61,41.63a7.83,7.83,0,0,1-4.08.12c5.64-5.58,11.06-11.16,17.31-15.85,1.92-1.44,4.15-1.63,6.43-1.75,5.2-.28,10.4-.59,16-.91C93.52,24.93,92.94,26.18,91.47,26.75Z"/><path class="cls-3" d="M122.42,19c-8.28,4.2-16.92,7.25-26.23,8.17.41-2.47,1.58-3.69,4.34-4.11,5.93-.9,12-1.89,16.78-6a1.69,1.69,0,0,1,2.58,0C120.69,17.69,121.58,18.3,122.42,19Z"/><path class="cls-3" d="M62.43,59.54c-8.9,2-17.46-.74-26.12-2.33C41.79,55.07,56.87,56.59,62.43,59.54Z"/><path class="cls-3" d="M195.91,19.07c-3.18-1.34-6.66-1.37-9.93-2.29-1.89-.52-3.77-1.1-5.66-1.66,1.36-2.11,3.12-2.43,5.6-1.92,4.58.94,9.26,1.4,14.19,2.11C198.91,17,197.8,18.46,195.91,19.07Z"/><path class="cls-10" d="M192.68,39.06c-1.63-2.47-3.27-4.93-4.88-7.41-.47-.73-1.09-1.41-.11-2.34,4.73-4.54,9.41-9.12,14.12-13.7.76.71-.46,1.14-.06,1.71l.05,0c-4.25,3.51-7.27,8.12-10.92,12.18-.73.81-.44,1.63.05,2.48,1.75,3.07,2.82,6.68,6.62,8.09.32.12.5.5.31,1.09-1.88-.34-3.5-1.38-5.25-2.09Z"/><path class="cls-5" d="M143.64,26.17l2.06.21A1.78,1.78,0,0,1,143.64,26.17Z"/><path class="cls-10" d="M96.77,96.69c.37-.53.81-.61,1.49-.1l-1.39.22Z"/><path class="cls-5" d="M138.27,25.85a.33.33,0,0,1,.41,0l-.23.34Z"/><path class="cls-5" d="M136.07,25.58a.35.35,0,0,1,.42,0C136.32,25.85,136.19,25.82,136.07,25.58Z"/><path class="cls-9" d="M95.76,23.88l-.25.23.21-.28Z"/><path class="cls-9" d="M95.72,23.83l.27-.22-.23.27Z"/><path class="cls-2" d="M192.61,39.05c1.75.71,3.37,1.75,5.25,2.09.19-.59,0-1-.31-1.09-3.8-1.41-4.87-5-6.62-8.09-.49-.85-.78-1.67-.05-2.48,3.65-4.06,6.67-8.67,10.92-12.18.58,1-.53,1.4-.7,2.14q-4.28,5.05-8.56,10.09a1.6,1.6,0,0,0-.47,1.74c1.34,2.56,1.72,5.71,4.92,7.1a11.46,11.46,0,0,1,5.66,5.31c-3.23-1.14-6.7-1.47-9.63-3.43A1.08,1.08,0,0,1,192.61,39.05Z"/><path class="cls-1" d="M219.77,47.24c-.31-2.54-.66-5.08-.91-7.63-.1-1.1-.61-2.29.38-3.28.54,2.37,1.52,4.74,1.5,7.1,0,3.35,1.54,5.43,4.15,7.31.43-1.24.84-2.44,1.29-3.76,1,.55.75,1.38.64,2-.95,5-.63,10.14-.36,15.16.24,4.32-2.72,6.54-5.09,8.79-3.25,3.08-3.55,6.26-2.87,10.24.45,2.64.17,5.42.18,8.13a2.94,2.94,0,0,1-1.81,2.55c-6.52,3.46-13.31,6.38-19.84,10.87a3.87,3.87,0,0,1,2.09-3.18c3.58-2.59,7.6-4.59,10.61-7.95a2.19,2.19,0,0,1,2-.57L210.3,94.7c2.76-.36,4.55-1.83,6.56-2.76.62-.28.6-1,.59-1.69q-.16-5.94-.31-11.88c0-.68,0-1.31-1-1-.33-1.48.85-2.2,1.72-2.82,6.11-4.45,8.43-10.24,7.54-17.8-.34-2.85-.88-5.09-3.16-6.68C221.14,49.29,220.68,48.1,219.77,47.24Z"/><path class="cls-1" d="M170.9,85.29q-2.1-7.32-4.21-14.63c2.43,1.21,2.78,3.56,3.66,5.47,1.86,4,4.58,7.78,4.86,12.45a68.12,68.12,0,0,0-2.72,10.15,6,6,0,0,1-3.8,4.84c-1.26.49-2.43,1.19-3.65,1.8-4.32,2.16-4.73,2.1-8.25-1.15-.65-.6-1.14-1.44-2.18-1.48-3.52-5.26-8.81-3.88-13.73-3.5a42.14,42.14,0,0,1-12.17-.79c2.42-1.13,5-.63,7.53-.92,4.65-.53,9.38,0,14-.69a2.39,2.39,0,0,1,2.06.44c0,.33,0,.67,0,1,0,1.63,1.6,1.91,2.53,2.66,6.73,5.43,6.75,5.39,14.06,1a3.86,3.86,0,0,0,1.88-2.49c.89-3.51,1.77-7,2.87-10.47,1-3-1.56-4.55-2.58-6.74.1.85.2,1.71.31,2.56Z"/><path class="cls-13" d="M73.53,121.11c-.51,0-1.24.37-1.46-.21s.55-.83,1-1.07c4.48-2.4,9.32-4,14-5.83,6.4-2.51,13-4.62,19.42-7a6,6,0,0,1,4.72.17c4.8,2.12,9.75,3.89,14.3,6.55v11.45l-.67,0c-.6-2-.24-4.14-.29-6.21-.09-4.09-.65-4.93-4.45-6.46a49,49,0,0,1-6.2-2.7,10.56,10.56,0,0,0-9.57-.58c-9.49,3.49-19.08,6.73-28.47,10.5A22.84,22.84,0,0,0,73.53,121.11Z"/><path class="cls-1" d="M169,116.49c.06-1.63,1.23-2.16,2.77-2.92a41.4,41.4,0,0,1-3.54,8.49,2.48,2.48,0,0,1-1.83,1.4c-2.36.55-4.7,1.21-7.06,1.79a4.44,4.44,0,0,1-4.62-1.32,42,42,0,0,1-5.54-6.31c-.28-.41-.72-1-.34-1.47s.94-.18,1.44.08c.95.5,2.23.69,2.86,1.44,3.48,4.16,7.06,2.36,10.78.51,1.58-.78,3-2.11,5-1.71a40.76,40.76,0,0,1-9.36,4.85,4.2,4.2,0,0,1-4.7-.87c-1.39-1.16-1.43-1.11-2.57-1.08,2.51,4.88,6.47,5.36,11.44,3.56C167.08,121.72,168.57,120.38,169,116.49Z"/><path class="cls-14" d="M13.1,85.6a116.92,116.92,0,0,1,12.29,7.3c1.46,1,1.87,2,.57,3.48-1.76,2.05-3.4,4.21-5,6.38a15.27,15.27,0,0,0-3,8.81c0,.52,0,1,0,1.55-1.47,3.69-3.12,7.33-3.34,11.39l-1,0c.17-5.57,2.6-10.63,3.6-16,.84-4.59,3.75-7.88,6.56-11.29,2.06-2.49,2-2.8-.73-4.37-3.12-1.79-6-4-9.36-5.36l-.63-1Z"/><path class="cls-10" d="M216.13,77.35c1-.29,1,.34,1,1q.13,5.94.31,11.88c0,.65,0,1.41-.59,1.69-2,.93-3.8,2.4-6.56,2.76L211.74,93l.45-.45c1.06-.54,1-1.52,1.1-2.52.34-3.72.76-7.44,1.15-11.15l-.05,0a1.56,1.56,0,0,0,1.15-1.1l-.07,0c.39,0,.63-.18.6-.61Z"/><path class="cls-13" d="M184.69,92.88c1.41,6.41,2.75,12.46,4,18.51a2.35,2.35,0,0,1-.27,2.1,156,156,0,0,1-12.12,12.69c-.83-1-.06-1.33.3-1.73,2.69-2.92,5.34-5.89,8.12-8.72a7,7,0,0,0,2.06-7.33c-1.12-4.26-1.86-8.62-2.75-12.94A2.16,2.16,0,0,1,184.69,92.88Z"/><path class="cls-10" d="M169,116.49c-.43,3.89-1.92,5.23-5.25,6.44-5,1.8-8.93,1.32-11.44-3.56,1.14,0,1.18-.08,2.57,1.08a4.2,4.2,0,0,0,4.7.87,40.76,40.76,0,0,0,9.36-4.85Z"/><path class="cls-13" d="M15.21,125.05c2.47.9,3.83,3.21,5.88,4.67,1.8,1.29,3.44,1.78,5.5.79,1.39-.67,2.88-1,4.33-.07a14.75,14.75,0,0,0-5.07,1.7,4.09,4.09,0,0,1-5-.77C18.87,129.39,16.34,127.85,15.21,125.05Z"/><path class="cls-13" d="M185.52,87.51c4.53-3.08,8.77-6.6,13.58-9.27-.49,2.06-2.47,2.69-3.86,3.8-2.58,2.06-5.36,3.87-8.06,5.79C186.51,88.32,185.8,89,185.52,87.51Z"/><path class="cls-1" d="M214.44,78.85c-.39,3.71-.81,7.43-1.15,11.15-.09,1,0,2-1.1,2.52.19-3.87.35-7.74.59-11.6C212.84,79.94,213.08,78.89,214.44,78.85Z"/><path class="cls-14" d="M64.18,137.12c1.74.15,2.5,1.6,3.54,2.68-.2.65-.55.91-1.15.39l-2.4-2.12C64.17,137.75,64.17,137.44,64.18,137.12Z"/><path class="cls-1" d="M70.79,143.2a6.06,6.06,0,0,1,2.8,2.9C71.7,146.05,70.84,145,70.79,143.2Z"/><path class="cls-1" d="M64.18,137.12c0,.32,0,.63,0,.95-1-.2-2.35.68-2.75-1Z"/><path class="cls-13" d="M199.09,78.25a2.62,2.62,0,0,1,2.2-1.63C201.41,78.32,200.17,78.18,199.09,78.25Z"/><path class="cls-1" d="M215.54,77.79a1.56,1.56,0,0,1-1.15,1.1C214.34,78.07,214.73,77.7,215.54,77.79Z"/><path class="cls-14" d="M68.63,140.7l.14.17c-.1.27-.16.79-.52.54S68.37,140.88,68.63,140.7Z"/><path class="cls-1" d="M216.07,77.21c0,.43-.21.59-.6.61Z"/><path class="cls-1" d="M129.47,136.48l-.23-.22s.12,0,.14,0,.06.11.09.18Z"/><path class="cls-1" d="M73.5,146.17c.45-.07.61.15.58.58A.55.55,0,0,1,73.5,146.17Z"/><path class="cls-2" d="M13.1,85.6l-.06.81c-.58-.16-1.22-.26-1.08-1.11C12.47,84.9,12.76,85.33,13.1,85.6Z"/><path class="cls-1" d="M131.11,46.15c2.93.51,5.84,1.09,8.78,1.53,1.88.28,2.62,1.28,2.62,3.12a77.57,77.57,0,0,1-1.17,14.29c-.53,2.9-3.36,4.39-5.39,6.22-3.49,3.15-7.23,6-10.9,8.93-.69.55-1.45,1.94-2.4.89-.56-.62.51-1.58,1-2.28,3-3.81,5.92-7.69,9.06-11.39,1.8-2.12,1.51-4.5,1.63-6.92.09-1.69-.39-3.46.57-5.06,1,1.84.22,3.85.51,5.75.59,3.82-1.15,6.74-3.58,9.41-1.19,1.31-2.75,2.36-3,4.32l-.22.28L129,75c2.8-1.23,4.4-3.89,6.82-5.6,3.2-2.26,5.54-5.11,4.66-9.48-.1-.49.29-1.05.29-1.58,0-2.81.88-5.67-.43-8.42-.22-1.63-1.69-1.24-2.57-1.34-7.27-.83-14.54-1.51-21.81-2.25a2.42,2.42,0,0,0-2.23.74c-3.55,4.19-7.13,8.36-9.82,13.19h0l-.83.57c-.48.29-.68,1.34-1.41.86s.2-1.24.12-1.9c3.32-2.48,5.12-6.21,7.51-9.42,2.74-3.65,5.49-6.24,10.54-5.24A45.84,45.84,0,0,0,131.11,46.15Zm-3.4,29.92c0-.06-.07-.15-.12-.16s-.11,0-.17.09l.2.26Z"/><path class="cls-3" d="M103.86,60.29c2.69-4.83,6.27-9,9.82-13.19a2.42,2.42,0,0,1,2.23-.74c7.27.74,14.54,1.42,21.81,2.25.88.1,2.35-.29,2.57,1.34L135,55,116.38,50a2.93,2.93,0,0,0-3.12,1.09c-2,2.2-4.22,4.21-6.11,6.55C106.29,58.74,105.52,60.14,103.86,60.29Z"/><path class="cls-8" d="M181.16,40.74,179,38c-.08-.88.37-2-1.11-2.17l0,0c.12-1.53-1.11-3,.05-4.6,1.34-1.86,2.4-3.93,4.34-5.29,0,.67-.11,1.37.57,1.83l-.48,1c-.78,0-1.21.3-1.2,1.11v0c-1.4.72-1.79,1.71-1.4,3.33a10.79,10.79,0,0,0,5,7.06c1.7,1.05,3.4,2.21,4.15,4.13,1.55,3.94,2.91,8,4.43,11.9.41,1.06.25,1.68-.78,2.16-2.69,1.23-5.22,2.83-8.18,3.42.56-2.23,3.07-2.93,3.89-5,1.38-.47.72-1.39.46-2.19q-1.31-3.94-2.65-7.87A10.39,10.39,0,0,0,181.16,40.74Z"/><path class="cls-5" d="M131.11,46.15a45.84,45.84,0,0,1-11.28-1c-5-1-7.8,1.59-10.54,5.24-2.39,3.21-4.19,6.94-7.51,9.42-.42-3.6,1.72-6.1,3.71-8.68,3.73-4.83,7.69-9.31,14.27-10.21,1.45-.2,2.88-.13,4.31-.19l1.13.53C127.42,42.59,130,43.45,131.11,46.15Z"/><path class="cls-8" d="M135,55l5.33-5c1.31,2.75.43,5.61.43,8.42,0,.53-.39,1.09-.29,1.58.88,4.37-1.46,7.22-4.66,9.48-2.42,1.71-4,4.37-6.82,5.6l-.07-.07c.26-2,1.82-3,3-4.32,2.43-2.67,4.17-5.59,3.58-9.41-.29-1.9.53-3.91-.51-5.75A2.09,2.09,0,0,1,135,55Z"/><path class="cls-14" d="M77.22,62.77l-4,1.11c2.16-2.53,4.72-4.28,8-4a60.71,60.71,0,0,1,7.14,1.37c.71.14,1.58.31,1.8,1.06,1,3.58,2.8,7.17.95,10.94-1.67,3.4-3.59,6.67-5.44,10-.24.44-.33,1.07-1.21,1.21-.33-2,.46-3.78.94-5.61.4.08,1,.73,1-.29,2-2.52,4.25-5.19,4.15-8.49-.22-7-.89-7.47-7.71-8.63a7.1,7.1,0,0,1-1.33-.22,3.6,3.6,0,0,0-4.33,1.27Z"/><path class="cls-1" d="M184.37,61.84c3-.59,5.49-2.19,8.18-3.42,1-.48,1.19-1.1.78-2.16-1.52-3.95-2.88-8-4.43-11.9-.75-1.92-2.45-3.08-4.15-4.13a10.79,10.79,0,0,1-5-7.06c-.39-1.62,0-2.61,1.4-3.33-1.52,3.89.7,6.41,3.44,8.42a16.65,16.65,0,0,1,6.83,9.37,39.26,39.26,0,0,0,3.08,8.08c1,1.92.47,2.84-1.13,3.66a37.1,37.1,0,0,1-9,3.67c0-.38-.05-.77-.07-1.16Z"/><path class="cls-2" d="M159.32,52.88c-.2,3.33,1.72,6.33,1.7,10-4.28-7.21-4.13-11.2.25-17.16a3.68,3.68,0,0,1,4.2-1.62,30.48,30.48,0,0,0,5.29,1c4.05.19,6.42,2.28,7.7,6,.46,1.32,1.14,2.56,2,4.53-2.2-1.14-2.57-2.59-3.21-3.87-.77-1.57-.94-3.52-2.73-4.47a48.68,48.68,0,0,1-5.25-1.19c-4.25-1.47-7.44-.69-9.25,3.78C159.67,50.86,158.15,51.51,159.32,52.88Z"/><path class="cls-2" d="M125.2,41.26l-1.13-.53c-.15-.36-.3-.73-.46-1.09-.11-.53-.19-1.07-.34-1.59-1.16-4.2-2.83-6.08-7.93-4.16S105.11,37.43,100,39.12c-1.65.54-2.38,1.52-2.07,3.24.11,2.23.22,4.45.34,6.93a2.29,2.29,0,0,1-1.35-2.49c0-8.94-1.53-7.37,6.77-10.23,4.35-1.51,8.77-2.81,13.16-4.18,3.5-1.09,5.76,0,6.88,3.41C124.29,37.59,125.17,39.31,125.2,41.26Z"/><path class="cls-3" d="M97.9,42.36c-.31-1.72.42-2.7,2.07-3.24,5.14-1.69,10.31-3.32,15.37-5.23s6.77,0,7.93,4.16c.15.52.23,1.06.34,1.59A7.26,7.26,0,0,1,122,38.3c-2.17-3.39-5-3.34-8.38-2a96.11,96.11,0,0,1-9.25,2.88C102,39.8,100.05,41.29,97.9,42.36Z"/><path class="cls-2" d="M19,111.42c.3-1.41,1.41-2.29,2.33-3.23,4.77-5,9.63-9.8,14.41-14.74,1.12-1.15,2.12-1.43,3.56-.56,2.86,1.72,5.79,3.32,8.69,5-3,0-5.37-1.69-7.66-3.18s-3.46-1.17-5,.72c-4.45,5.51-9.85,10.11-14.71,15.23A1.81,1.81,0,0,1,19,111.42Z"/><path class="cls-3" d="M159.32,52.88c-1.17-1.37.35-2,.75-3,1.81-4.47,5-5.25,9.25-3.78a48.68,48.68,0,0,0,5.25,1.19c-1.77,1.11-3.78,1.06-5.73,1.12A13.28,13.28,0,0,0,159.32,52.88Z"/><path class="cls-2" d="M152.32,98.28c0-.33,0-.67,0-1,.35,0,.79,0,1,.15,3.92,2.65,7.44,1.43,11.17-.67,2.42-1.36,3.08-3.62,4.21-5.71a14.45,14.45,0,0,0,2.13-5.76l.49-.53a2.35,2.35,0,0,1,.21,2.77c-1,2.23-2,4.44-3,6.66a6,6,0,0,1-2.22,3c-4.31,2.55-8.67,4.56-13.52,1.21A1.72,1.72,0,0,0,152.32,98.28Z"/><path class="cls-13" d="M182.28,26c-1.94,1.36-3,3.43-4.34,5.29-1.16,1.6.07,3.07-.05,4.6-1.83-1.69-2.16-3.43-.78-5.69,1.78-2.95,4.16-5.39,6.26-8.07.65-.84,1.89-1.89,2.69-1.3,1.09.8-.43,1.79-.71,2.72A2.27,2.27,0,0,1,183.88,25c-.17-.41-.34-.47-.53,0a1.32,1.32,0,0,1,.13.48C183,25.48,182.56,25.5,182.28,26Z"/><path class="cls-3" d="M181.16,40.74a10.39,10.39,0,0,1,4.91,6.08q1.35,3.93,2.65,7.87c.26.8.92,1.72-.46,2.19-1.62-4.84-3.29-9.64-6.09-14A16,16,0,0,1,181.16,40.74Z"/><path class="cls-2" d="M77.22,62.77l0-.32c1.88-.14,3.53.72,5.24,1.22,5,1.48,5.75,2.75,5.19,8-.25,2.32-1.48,4.45-1.21,6.85-.09,1-.65.37-1,.29.16-3.15,1.2-6.2,1.07-9.39s-.87-4.26-4-4.71C80.58,64.43,79.05,63.22,77.22,62.77Z"/><path class="cls-1" d="M182.28,26c.28-.46.74-.48,1.2-.5.81,1.05-.23,1.6-.64,2.33C182.17,27.33,182.25,26.63,182.28,26Z"/><path class="cls-13" d="M177.87,35.83c1.48.15,1,1.29,1.11,2.17A2.82,2.82,0,0,1,177.87,35.83Z"/><path class="cls-8" d="M184.33,61.88c0,.39,0,.78.07,1.16-.48-.08-1.26.16-1.3-.53S183.86,62,184.33,61.88Z"/><path class="cls-2" d="M18,113.12c0-.51,0-1,0-1.55l1.06-.16C19.17,112.3,18.65,112.77,18,113.12Z"/><path class="cls-1" d="M181.17,29.86c0-.81.42-1.15,1.2-1.11C182.17,29.34,181.92,29.88,181.17,29.86Z"/><path class="cls-3" d="M103.07,60.85l.83-.57Z"/><path class="cls-1" d="M183.35,25c.19-.45.36-.39.53,0h-.27Z"/><path class="cls-10" d="M152.32,98.28a1.72,1.72,0,0,1,.52.12c4.85,3.35,9.21,1.34,13.52-1.21a6,6,0,0,0,2.22-3c1-2.22,2-4.43,3-6.66a2.35,2.35,0,0,0-.21-2.77c-.11-.85-.21-1.71-.31-2.56,1,2.19,3.55,3.71,2.58,6.74-1.1,3.44-2,7-2.87,10.47a3.86,3.86,0,0,1-1.88,2.49c-7.31,4.43-7.33,4.47-14.06-1C153.92,100.19,152.36,99.91,152.32,98.28Z"/><path class="cls-8" d="M127.71,76.07l-.09.19-.2-.26c.06,0,.13-.11.17-.09S127.67,76,127.71,76.07Z"/><path class="cls-8" d="M129,75l-.29.21.22-.28Z"/><path class="cls-10" d="M86.47,78.52c-.27-2.4,1-4.53,1.21-6.85.56-5.25-.2-6.52-5.19-8-1.71-.5-3.36-1.36-5.24-1.22a3.6,3.6,0,0,1,4.33-1.27,7.1,7.1,0,0,0,1.33.22c6.82,1.16,7.49,1.67,7.71,8.63C90.72,73.33,88.5,76,86.47,78.52Z"/></g></g></svg>