<svg xmlns="http://www.w3.org/2000/svg" viewBox="0 0 115.77 120.04"><defs><style>.cls-1{fill:#0b0b0b;}.cls-2{fill:#525967;}.cls-3{fill:#585f6f;}.cls-4{fill:#2a292a;}.cls-5{fill:#e47327;}.cls-6{fill:#393e4b;}.cls-7{fill:#535865;}.cls-8{fill:#2f2e2f;}.cls-9{fill:#1d1c1e;}.cls-10{fill:#ac5016;}.cls-11{fill:#858b97;}.cls-12{fill:#a5a3a3;}.cls-13{fill:#656871;}.cls-14{fill:#f2a263;}.cls-15{fill:#8b919e;}</style></defs><g id="Capa_2" data-name="Capa 2"><g id="Capa_1-2" data-name="Capa 1"><path class="cls-1" d="M115.76,52.44q0,21.66,0,43.32a3.78,3.78,0,0,1-1.11,2.72,14.33,14.33,0,0,1-5.62,3.41,37.07,37.07,0,0,1-9.48,2.16,59.77,59.77,0,0,1-9.46.14,36.39,36.39,0,0,1-9.94-2c-.83-.29-.82-.29-.82.6,0,2.63-.1,5.26.06,7.88.15,2.3-1,3.72-2.72,4.87a25.91,25.91,0,0,1-9.19,3.5,47.64,47.64,0,0,1-16.11.52,30.83,30.83,0,0,1-11-3.27,9.77,9.77,0,0,1-3.24-2.58,3.81,3.81,0,0,1-.82-2.4c0-2.46,0-4.92,0-7.37,0-.58-.1-.71-.68-.51a38.65,38.65,0,0,1-12,2.07,48,48,0,0,1-10.23-.65c-3.94-.77-7.82-1.77-11.15-4.2A5.14,5.14,0,0,1,0,96.25Q.08,64,0,31.67c0-7,0-14,0-21A4.16,4.16,0,0,1,1.37,7.56,14.81,14.81,0,0,1,7.25,4.34a51.6,51.6,0,0,1,7.89-1.72c1.62-.26,3.2-.82,4.86-1a20.19,20.19,0,0,1,7.92.85,18.08,18.08,0,0,0,2.41.4c3.7.67,7.35,1.49,10.5,3.71a5.26,5.26,0,0,1,2.54,4.78c-.11,2.67,0,5.35,0,8,0,.55.07.71.69.5a36.44,36.44,0,0,1,7.18-1.54c.87-.1,1.7-.51,2.57-.65a19.26,19.26,0,0,1,5.67-.33,16.28,16.28,0,0,1,4,.69,19.86,19.86,0,0,0,3.67.64,36.12,36.12,0,0,1,4.61,1.15c.63.21.68.05.68-.49,0-3.37,0-6.75,0-10.12A4.28,4.28,0,0,1,73.83,6a13.53,13.53,0,0,1,5-2.89,38.6,38.6,0,0,1,8.49-1.95C88.44,1,89.47.45,90.6.28a21.25,21.25,0,0,1,10,.72,25.29,25.29,0,0,0,3.41.59,26.1,26.1,0,0,1,8.86,3.11,6.54,6.54,0,0,1,2.68,2.94,3.61,3.61,0,0,1,.22,1.55V52.44ZM11.22,76.66c0-.1,0-.11-.1,0-.59,0-1.12-.37-1.72-.33a.73.73,0,0,0-.23-.16,31.08,31.08,0,0,1-4.72-2A4.16,4.16,0,0,0,3,73.45c-.41-.63-1.13-.88-1.69-1.4a3.43,3.43,0,0,0-.08.88q0,6.54,0,13.07A2.59,2.59,0,0,0,3,88.35c0,.16.16.23.28.3A19.19,19.19,0,0,0,9.38,91.4l.22.06a.35.35,0,0,0,.33.12,6.86,6.86,0,0,0,2,.47.29.29,0,0,0,.31.09l.39.1.2,0,.41,0a.47.47,0,0,0,.46.1,1.3,1.3,0,0,0,.91.09,13.32,13.32,0,0,0,3.54.54,42.48,42.48,0,0,0,15.38-1.51,15.8,15.8,0,0,0,2.17-.73c.58-.16.71-.5.71-1.06,0-3.89,0-7.79,0-11.68,0-.74,0-1.49,0-2.23,0-.3,0-.57-.43-.43-.77.26-1.53.54-2.29.82l-.27.06a6.67,6.67,0,0,0-1.89.53l-.28,0a1.29,1.29,0,0,0-1,.26l-.57.07a.32.32,0,0,0-.45.06l-.42,0a4.94,4.94,0,0,0-1.75.24l-.85.06a12.66,12.66,0,0,0-3.19.25H20.65a4.12,4.12,0,0,0-2-.14l-.28,0a1.59,1.59,0,0,0-1.17-.09l-.71,0a1.54,1.54,0,0,0-1.17-.11l-.28,0c-.15-.23-.36-.21-.58-.14l-.3,0a.29.29,0,0,0-.43-.07l-.57-.05a.81.81,0,0,0-.9-.24l-.39-.06h-.29l-.13-.07c0-.08-.08-.11-.15-.07ZM25.74,44.43c-.4,0-.8-.15-1.17.11l-1.87,0a7.31,7.31,0,0,0-1.62,0l-1.72,0c-.47-.28-1-.11-1.46-.12l-.71,0c-.17-.2-.39-.14-.6-.1l-.56,0c-.26-.26-.58-.12-.87-.14s-.47-.21-.72-.06l-.52,0a18.85,18.85,0,0,0-3.41-.74l-.27,0a.78.78,0,0,0-.7-.18H9.22l-.29,0A23.28,23.28,0,0,0,6.24,42C5.18,41.45,4.09,41,3,40.48c-.33-.28-.64-.57-1-.83s-.36-.43-.6-.33-.17.46-.17.71c0,9.73,0,19.45-.05,29.18A3,3,0,0,0,3,72c.06.34.41.37.64.51A18.5,18.5,0,0,0,9.22,75l.27.13a6.18,6.18,0,0,0,1.57.47.25.25,0,0,0,.36.17l.94.12a.26.26,0,0,0,.36.18l.27.08c.17.19.39.11.59.09l1,.05,1.74.25c.16.21.38.15.59.12l.42,0c.17.2.39.14.6.1l2.15,0a7.59,7.59,0,0,0,3,0l2.15-.06c.21,0,.43.11.6-.09l.85,0c.22.07.4,0,.5-.19h.53a.26.26,0,0,0,.43,0l.57,0c.24,0,.51.1.63-.22l.25,0c.11.12.2.12.29,0l.42,0a.24.24,0,0,0,.31-.09l.42,0c.19,0,.28-.06.34-.23a10.17,10.17,0,0,0,2-.35.29.29,0,0,0,.35-.22l.38-.06a11.75,11.75,0,0,1,1.39-.54c.69-.18.81-.6.81-1.26,0-7.4,0-14.81,0-22.21V42.73c0-.24-.09-.35-.36-.26-.65.22-1.31.41-2,.62-.37.06-.78,0-1,.37l-1.11.1a.27.27,0,0,0-.35.22l-.4,0-.43,0-.56,0c-.33,0-.7,0-.93.32h-.53a4.69,4.69,0,0,0-2.17.2l-.29,0ZM87.2,76.13l-2.57-.43-.33,0c-.45-.16-.89-.31-1.36-.43a16.66,16.66,0,0,1-3.08-1c-.48-.23-.54-.07-.54.34V88.84c0,.24,0,.49.29.59a10.56,10.56,0,0,0,2.26.7l0,0h0l.21.13a20.18,20.18,0,0,0,4.91,1.1,17.16,17.16,0,0,0,3.27.45,47.62,47.62,0,0,0,11.06-.43,24.12,24.12,0,0,0,5.09-1.25,9.2,9.2,0,0,0,1.76-.62,18.09,18.09,0,0,0,5.11-2.77,2.58,2.58,0,0,0,1.21-2.58,5,5,0,0,1,0-.87c0-3.9,0-7.8,0-11.69,0-.23.13-.55-.12-.66s-.39.21-.58.34c-.7.5-1.37,1-2.12,1.47a30.34,30.34,0,0,1-5.56,2.31l-1.43.34a1,1,0,0,0-.74.23l-.42.06a.91.91,0,0,0-.88.26l-.56.07a.2.2,0,0,0-.31,0l-.56.06a.33.33,0,0,0-.45.1l-.71.05a.38.38,0,0,0-.45.08l-.85.06a12.09,12.09,0,0,0-3.06.24h-3a.91.91,0,0,0-.89,0l-1.42-.09a.2.2,0,0,0-.31,0L89,76.36a1.13,1.13,0,0,0-.88-.1l-.57-.05A.21.21,0,0,0,87.2,76.13ZM14.59,26h.06l.07,0a4.22,4.22,0,0,0,1.46.18,1,1,0,0,0,.87.09l.72,0a2,2,0,0,0,1.3.12,49.81,49.81,0,0,0,6.23,0,.59.59,0,0,0,.71-.05,59.11,59.11,0,0,0,6.5-.92.26.26,0,0,0,.35-.19l.8-.11c1.38-.57,3-.47,4.1-1.81s2.46-1.7,3.77-2.43a.85.85,0,0,0,.55-.82c0-1.83,0-3.66,0-5.49,0-.16.07-.37-.11-.47s-.29.11-.41.2a15.48,15.48,0,0,1-4.33,2.41c-1.08.38-2.17.71-3.26,1.06l-3.76.79a.33.33,0,0,0-.43.11l-.3,0a1.13,1.13,0,0,0-.86.1l-2,.21c-.25-.06-.51-.13-.73.09l-1.58.11a1.75,1.75,0,0,0-1.31,0H19.79a1,1,0,0,0-.32-.12l-4.74-.35a.09.09,0,0,0-.12,0,1,1,0,0,0-.6-.12.22.22,0,0,0-.32-.08l-.55-.07a.23.23,0,0,0-.32-.07l-1.07-.13c-.11-.24-.3-.23-.51-.18l-1.53-.26c-.49-.4-1.12-.3-1.68-.48a29.45,29.45,0,0,1-5-2.21l-1.22-1c-.13-.09-.22-.3-.41-.23s-.12.3-.12.46c0,1.68.07,3.37,0,5.06A3,3,0,0,0,3,22.32a12.91,12.91,0,0,0,1.19.79,16.92,16.92,0,0,0,5,1.76.44.44,0,0,0,.44.17,3.75,3.75,0,0,0,1.39.35c.08.14.17.26.35.12l.38,0a.26.26,0,0,0,.37.12l2.28.32ZM55.4,27.73l.42,0c.42.26.89.11,1.33.12a20.21,20.21,0,0,0,6.6-.85c1-.33,1.35-.72,1.34-1.79V24c0-1.63,0-1.63-1.45-1-.3,0-.61.06-.79.37l-.66.08a.22.22,0,0,0-.29.1l-1.44.23c-.16-.07-.32-.1-.44.06l-.87.05a13.06,13.06,0,0,0-2.5,0l-.54-.08a3.91,3.91,0,0,0-1.62-.26l-.41,0a.73.73,0,0,0-.75-.25,6.71,6.71,0,0,1-2-.84c-.47-.27-.53-.1-.54.3,0,.87,0,1.73-.06,2.59a1.38,1.38,0,0,0,1,1.53,8.4,8.4,0,0,0,2.89.66C54.82,27.83,55.11,27.78,55.4,27.73ZM19,8.15c-.06-.2-.19-.21-.36-.14s-.53.09-.69,0a18.39,18.39,0,0,1-2.83-1.14c-.6-.44-.61-.09-.62.38,0,.89,0,1.78,0,2.66a1,1,0,0,0,.55,1,7.1,7.1,0,0,0,2.71.89.26.26,0,0,0,.38.12l.56.06c.12.18.29.13.45.07a4.23,4.23,0,0,0,1.28.07,27.06,27.06,0,0,0,3.82,0,11.17,11.17,0,0,0,4-1,1.2,1.2,0,0,0,.83-1.27c-.05-.81,0-1.63,0-2.45s-.1-.79-.73-.44a9.69,9.69,0,0,1-3,1,34.4,34.4,0,0,1-5,.3l-.71,0a.27.27,0,0,0-.44,0H19Zm72.87,2.27a.51.51,0,0,0,.6.08h.26a17.47,17.47,0,0,0,7.66-.88,1.37,1.37,0,0,0,1.08-1.56,16.83,16.83,0,0,1,0-2c0-1,0-1-.91-.59A14,14,0,0,1,94.2,6.64c-.7,0-1.39,0-2.08-.09l-.56-.08a.25.25,0,0,0-.33,0l-2.51-.58a.38.38,0,0,0-.48-.24l-.83-.3c0-.18-.1-.34-.31-.32s-.18.2-.18.34c0,1.11,0,2.21,0,3.32a.46.46,0,0,0,.26.41,1.28,1.28,0,0,0,.61.47,11.41,11.41,0,0,0,2.48.74.2.2,0,0,0,.32,0,.77.77,0,0,0,.54,0A1.41,1.41,0,0,0,91.84,10.42ZM12.56,93.28a.22.22,0,0,0-.31,0l-.42-.07c-.06-.14-.16-.16-.3-.12l-1.22-.25a.28.28,0,0,0-.37-.18l-.56,0-.87-.28c-1.14-.48-2.31-.83-3.42-1.4A6.93,6.93,0,0,0,3.2,90a13.71,13.71,0,0,0-1.41-1.22c-.1-.1-.23-.28-.42-.16s-.08.26-.08.39c0,2.65,0,5.29,0,7.93a3.14,3.14,0,0,0,1.86,2.77c0,.16.17.22.29.29a20.17,20.17,0,0,0,5.94,2.59l.72.27a.22.22,0,0,0,.32.1l.78.15c.09.14.18.25.35.09l.37.06a1.57,1.57,0,0,0,1.24.3,4.6,4.6,0,0,0,1.43.17c.25.26.57.11.86.17.13.17.29.14.46.09a12.84,12.84,0,0,0,2.15.21.42.42,0,0,0,.58,0,46.25,46.25,0,0,0,6.34,0c.26,0,.52.14.74-.1l1.42-.07a.21.21,0,0,0,.32-.07l.27,0c.22,0,.43.1.6-.12l.3-.11a1.79,1.79,0,0,0,1-.13,23,23,0,0,0,4.62-1c.39-.11.79-.2,1.17-.33a1.12,1.12,0,0,0,.87-1.24c-.06-2.52,0-5,0-7.56v-1.3c0-.31-.07-.45-.42-.3-.53.23-1.08.41-1.61.61-.47,0-.84.29-1.29.39-2.07.44-4.13.9-6.23,1.17-2.84.24-5.69.15-8.54.14A3.51,3.51,0,0,0,16.76,94a4.54,4.54,0,0,0-1.16-.13l-1-.17L14,93.61a1.48,1.48,0,0,0-.87-.17.21.21,0,0,0-.31-.1ZM38,55c-.1-.2-.21-.26-.34,0a4.26,4.26,0,0,0-.06.5V68.57a5.51,5.51,0,0,0,.06.57c0,.29-.06.57-.07.86,0,4.83,0,9.66,0,14.49a2.59,2.59,0,0,0,1.67,2.32,7.1,7.1,0,0,0,2.36,1.58,11.78,11.78,0,0,0,3.64,1.32c.06.08.1.2.17.22a21.55,21.55,0,0,0,5.08,1.17c.07.05.15.14.23.14,1.8.17,3.6.32,5.41.48a1.36,1.36,0,0,0,1,.07l4.59-.14a.24.24,0,0,0,.31-.07l.85-.06c.17,0,.33.06.45-.1,1.44-.24,2.89-.44,4.32-.74a7,7,0,0,0,2.51-.82,1.36,1.36,0,0,0,.29,0,19.28,19.28,0,0,0,6.78-3.49,2.36,2.36,0,0,0,.89-1.92c-.07-3.53,0-7.06,0-10.59V55.77c0-.21.12-.49-.13-.59s-.38.16-.55.26a25.4,25.4,0,0,1-3.86,2c-1.22.49-2.46.85-3.71,1.23a32.46,32.46,0,0,1-4.47.9c-.22,0-.41,0-.5.22l-2.53.09A.24.24,0,0,0,62,60l-1.29.05c-.21,0-.42-.1-.59.09H56c-.18-.19-.39-.13-.6-.08l-4.74-.36-.31-.09c-.23,0-.47-.06-.7-.11l-4.15-.9c-.79-.39-1.67-.5-2.49-.81a.3.3,0,0,0-.33-.24l-2.12-1a.29.29,0,0,0-.35-.18c-.15-.26-.51-.13-.68-.37s-.23-.26-.43-.25Zm41.4-13.6c0,3.49,0,7,0,10.46a2.1,2.1,0,0,0,.09.42c0,.55-.09,1.1-.09,1.65,0,6,0,12,0,18.08a1.26,1.26,0,0,0,1,1.45c.48.15,1,.27,1.46.41a4.29,4.29,0,0,0,1.44.48.44.44,0,0,0,.51.17l1.38.23c.09.25.29.24.5.2l1.44.1c1.16.5,2.42.25,3.62.5.17.19.38.14.59.09a36.31,36.31,0,0,0,7.22-.21.27.27,0,0,0,.44,0,9,9,0,0,0,1.86-.19c.22.06.41,0,.5-.21a20,20,0,0,0,5.18-1.17,19.56,19.56,0,0,0,7-3.54,2.21,2.21,0,0,0,1-2c-.08-1.54,0-3.08,0-4.62.07-8.29-.16-16.58.12-24.87,0-.2.1-.46-.15-.58s-.36.1-.5.22A15,15,0,0,1,111.35,40a33.92,33.92,0,0,1-5,1.87,35.53,35.53,0,0,1-5.21,1c-.29,0-.61-.07-.87.16l-2.74.19a3.62,3.62,0,0,0-1.73.12H93a22.9,22.9,0,0,0-3.61-.26l-1,0a.21.21,0,0,0-.29-.07L87.5,43a1.59,1.59,0,0,0-1.32-.26l-.27,0A23.82,23.82,0,0,0,83,42c-.47-.13-.92-.43-1.45-.29a12.33,12.33,0,0,1-1.87-.51C79.46,41,79.4,41.13,79.4,41.36ZM39.31,30.84c-.39-.32-.77-.64-1.17-.95-.12-.1-.24-.3-.41-.24s-.14.33-.14.51c0,1.69,0,3.38,0,5.06a2.74,2.74,0,0,0,1.89,2.66c.12.33.43.38.71.48a1.44,1.44,0,0,0,.71.47,27.69,27.69,0,0,0,4.51,1.66,7.37,7.37,0,0,0,1.67.39c.1.14.21.21.38.13l1.28.22a.22.22,0,0,0,.31.09l1.51.24a.65.65,0,0,0,.51.06l.85,0a16.89,16.89,0,0,0,2.56.21c.16.27.38.26.62.12,1.88.15,3.75.08,5.63,0,.21,0,.42.1.6-.08l.87-.11a.42.42,0,0,0,.57,0l1.13-.09a.38.38,0,0,0,.47-.06l.56,0c.21,0,.39,0,.5-.18l.24,0a.17.17,0,0,0,.29,0l.71-.06a.29.29,0,0,0,.35-.17,14.2,14.2,0,0,0,3.16-.65c.69-.2,1.39-.36,2-.62a19,19,0,0,0,4-1.86c1.27-.88,2.2-1.9,1.88-3.61a8.05,8.05,0,0,1,0-1.3c0-1,0-1.92,0-2.89,0-.43-.13-.53-.49-.25s-.55.4-.83.58A22.67,22.67,0,0,1,70,33.37a40.09,40.09,0,0,1-4.19.91c-.21,0-.43-.09-.59.14a11.22,11.22,0,0,0-2.16.15c-.34,0-.7-.12-1,.12l-.57,0c-.5.06-1.06-.26-1.49.24a1.21,1.21,0,0,0-.77-.13H55.82a.87.87,0,0,0-.87,0l-1.3-.12c-.12-.15-.28-.13-.45-.1l-2.3-.17c-.12-.17-.28-.15-.45-.12-.52-.08-1-.14-1.56-.24-1.16-.21-2.33-.44-3.5-.67A34.1,34.1,0,0,1,39.31,30.84Zm46.9,10.91.87,0,2.91.28a54.79,54.79,0,0,0,6.53.13,15,15,0,0,0,3-.27,19.93,19.93,0,0,0,4.67-.72,8.38,8.38,0,0,0,2.28-.57h.29a20,20,0,0,0,6.17-2.89c.63-.47,1.48-.89,1.48-1.82,0-4.72,0-9.43,0-14.15,0-.15.08-.36-.12-.45s-.32.06-.45.16a17.28,17.28,0,0,1-1.7,1.2,39.79,39.79,0,0,1-5.68,2.17,3.49,3.49,0,0,0-.85.12,53.4,53.4,0,0,1-9.75,1.15,28.9,28.9,0,0,0-4.16,0L90.83,26a.48.48,0,0,0-.72,0h-.43c-.18-.49-.58-.19-.88-.26s-.52-.11-.72.14a3.13,3.13,0,0,1-1-.15l-.69-.09c-.08-.15-.16-.27-.32-.09l-.27,0c-.08-.27-.28-.25-.49-.2l-1.24-.1a.25.25,0,0,0-.35-.19l-1.86-.22L79.26,24c-.15-.39-.47-.38-.82-.38,0,.38.29.52.52.68a4.85,4.85,0,0,1,.46,1.85c0,4.31,0,8.63,0,12.94,0,.43,0,.71.56.9s1.28.4,1.89.66A3.22,3.22,0,0,0,83,41a.27.27,0,0,0,.34.2l2.26.34C85.7,41.89,86,41.8,86.21,41.75ZM48.84,58.2c.09.26.29.24.49.2a2.2,2.2,0,0,0,1.13.16.28.28,0,0,0,.29.14c1.08.07,2.16.08,3.22.21a27.33,27.33,0,0,0,4.23.18,42.48,42.48,0,0,0,5.73-.35,37.49,37.49,0,0,0,6.21-1.32,32.77,32.77,0,0,0,3.25-1.12,13.71,13.71,0,0,0,3.55-1.93,2.45,2.45,0,0,0,1-2.28c-.08-2.35-.08-4.72,0-7.07a40.19,40.19,0,0,0,0-6c0-.52-.18-.61-.58-.32a17.73,17.73,0,0,1-7.11,3.11.82.82,0,0,0-.72.28,4,4,0,0,0-.84.11A25.07,25.07,0,0,1,63.2,43c-.34.08-.79-.24-1,.27a10.6,10.6,0,0,0-3.08,0,73.09,73.09,0,0,1-8.62-.44h-.16a4.76,4.76,0,0,0-1.3-.26.23.23,0,0,0-.33-.12l-.54,0c-.07-.15-.19-.16-.33-.12l-.8-.09a.25.25,0,0,0-.36-.2l-1.13-.08-.12,0c0-.18-.18-.2-.33-.22A11.51,11.51,0,0,1,42,40.72c-.86-.44-1.73-.84-2.59-1.26-.19-.46-.72-.52-1-.87-.15-.18-.32-.52-.63-.35s-.11.44-.11.67c0,4.3,0,8.6,0,12.9a2.93,2.93,0,0,0,1.32,2.59c.17.39.63.25.91.5a9.19,9.19,0,0,0,2.81,1.51,25.15,25.15,0,0,1,2.79,1,8.88,8.88,0,0,0,2.45.6.25.25,0,0,0,.34.22ZM85.88,17l-.26,0c-.11-.22-.28-.18-.46-.12l-.27,0c-.15-.23-.37-.18-.59-.13l-.41,0c-.17-.15-.32-.36-.58-.18l-.66-.09a.91.91,0,0,0-.93-.29L81.06,16c-.07-.15-.16-.27-.35-.17-.28-.08-.56-.14-.83-.23a26.24,26.24,0,0,1-4.22-1.91l-2-1.57v5.74a3.13,3.13,0,0,0,2,2.91,4.6,4.6,0,0,0,.53.37,24.89,24.89,0,0,0,5.71,2.26c.79.19,1.57.44,2.37.56a12.46,12.46,0,0,0,3,.43,53.91,53.91,0,0,0,10.7.4.23.23,0,0,0,.31-.07l1.43-.07a.24.24,0,0,0,.31-.07l.85-.07c.17,0,.33.07.45-.09l.85-.05a.24.24,0,0,0,.31-.1l.27,0a.25.25,0,0,0,.31-.11,34.46,34.46,0,0,0,3.47-.72,20.69,20.69,0,0,0,6.45-2.74c.66-.45,1.47-.92,1.5-1.83.07-2,0-3.94.14-5.91,0-.18.07-.41-.17-.5s-.3.11-.43.22a13.48,13.48,0,0,1-3.11,1.93,30.34,30.34,0,0,1-4.53,1.57,11.34,11.34,0,0,1-2.3.48.28.28,0,0,0-.35.21l-4,.4c-.17-.06-.33-.09-.46.08l-.71.05a.23.23,0,0,0-.3.08,58.73,58.73,0,0,1-8,0c-.17-.19-.38-.13-.59-.1l-.85-.05a.24.24,0,0,0-.31-.07l-1.29-.05-.37-.11C86.55,16.84,86.21,16.93,85.88,17ZM46.47,107.41c-.06-.17-.17-.26-.35-.21l-.69-.12-2.55-.93c-1.24-.45-2.33-1.19-3.51-1.75-.42-.63-1.15-.87-1.65-1.43a1.22,1.22,0,0,0-.13.83c0,2.42,0,4.85,0,7.27A3.23,3.23,0,0,0,39.16,114c.29.45.81.58,1.23.84a16.48,16.48,0,0,0,5,2.08,18.85,18.85,0,0,0,4,1c.08.15.17.25.35.12l.87.07c.48.3,1,.12,1.53.2a41.06,41.06,0,0,0,8.58.35c.21,0,.43.1.6-.1a50.25,50.25,0,0,0,5-.62.25.25,0,0,0,.31-.1,26,26,0,0,0,3.48-.86,22,22,0,0,0,5.91-2.62,3.58,3.58,0,0,0,2-2.89c.06-2.62,0-5.25,0-7.87,0-.16.07-.37-.13-.45s-.25.11-.35.2a20,20,0,0,1-4,2.41c-1.11.58-2.36.8-3.49,1.33-1.26.2-2.45.73-3.74.83a.21.21,0,0,0-.31.08l-2.46.41c-.1-.12-.2-.12-.29,0l-.85.06c-.21-.06-.42-.11-.6.08l-1.58.13a.27.27,0,0,0-.44,0,53.61,53.61,0,0,1-6.08-.14c-.16-.2-.38-.13-.58-.11l-2-.07c-.06-.17-.16-.26-.35-.22l-.41,0A2.79,2.79,0,0,1,49.2,108c-.05-.19-.16-.27-.36-.18Zm36.2-5.8c.09.15.2.24.37.16l1.36.29a.39.39,0,0,0,.52.16l.42,0a.2.2,0,0,0,.32.06l.4.07c.17.23.38.16.6.12h.39a44.31,44.31,0,0,0,10.29.47c.32,0,.69.17.92-.22l1.1,0c.11.12.21.11.3,0a22.7,22.7,0,0,0,4-.61,10.46,10.46,0,0,0,2.8-.81,10.71,10.71,0,0,0,2.72-.89,11.47,11.47,0,0,0,4.58-2.9,2.21,2.21,0,0,0,.65-1.47c0-2.7,0-5.39,0-8.09,0-.17.1-.42-.13-.51s-.29.13-.41.23a17.11,17.11,0,0,1-2.28,1.48,26.79,26.79,0,0,1-5.14,2.13,17.68,17.68,0,0,1-3,.76.27.27,0,0,0-.35.2l-1.24.09a.23.23,0,0,0-.3.1c-1.11,0-2.2.35-3.32.34-.2,0-.42-.1-.59.09l-2,.13A.39.39,0,0,0,95,93H93a.27.27,0,0,0-.44,0l-2.3-.14a.25.25,0,0,0-.31-.08l-2.82-.23a1.52,1.52,0,0,0-.8-.23,18.86,18.86,0,0,1-2.7-.49c0-.18-.15-.27-.35-.19a6.7,6.7,0,0,1-1.25-.3c-.7-.23-1.41-.43-2.11-.68-.37-.14-.54-.1-.54.33,0,3.06,0,6.12,0,9.17a.46.46,0,0,0,.32.51,7.87,7.87,0,0,0,2.12.64C82,101.57,82.37,101.56,82.67,101.61Zm-36.75,4.53a.77.77,0,0,0,.81.23l.42.08a9.41,9.41,0,0,0,3.63.77l.85.08a.4.4,0,0,0,.58.06h.22a.47.47,0,0,0,.66.14,40.52,40.52,0,0,0,4.67.19.45.45,0,0,0,.74,0l2.38,0c.1.11.2.1.3,0l1.28-.07a2.1,2.1,0,0,0,1.32-.23,6.48,6.48,0,0,0,1.58-.17c.25,0,.5.07.66-.21l.21,0c.11.12.21.09.3,0l1.14-.2a.29.29,0,0,0,.38-.15l.77-.15a.28.28,0,0,0,.39-.15l.62-.13a.26.26,0,0,0,.36-.16l0,0a18.17,18.17,0,0,0,7.22-3.75,1.51,1.51,0,0,0,.69-1.13c0-4.5,0-9,0-13.5,0-.13,0-.3-.1-.39s-.26.07-.36.16a20.59,20.59,0,0,1-5.91,3.22,6.19,6.19,0,0,0-1.6.6l-.41,0a.54.54,0,0,0-.6.22l-.42.07a.71.71,0,0,0-.82.3l-.35,0a.17.17,0,0,0-.29,0L67,91.9a2.1,2.1,0,0,0-1.18.24l-.42,0a4.19,4.19,0,0,0-1.75.25l-1,.1a5.62,5.62,0,0,0-2,.21l-1.45.07a7.93,7.93,0,0,0-2.48,0L55,92.73a1.21,1.21,0,0,0-1-.11l-.42,0a.75.75,0,0,0-.74-.08l-.7-.06a4.74,4.74,0,0,0-1.62-.26c-.41-.16-.84,0-1.27-.13a25.13,25.13,0,0,0-3.52-.87c-.28-.32-.71-.28-1.06-.4a34,34,0,0,1-5.26-2.45,5.35,5.35,0,0,0-1.12-.89c-.15-.13-.27-.44-.5-.32s-.12.43-.12.66c0,4.08,0,8.16-.05,12.25A2.78,2.78,0,0,0,39,102.72a17.25,17.25,0,0,0,4.87,2.71c0,.08,0,.11.08,0l.29.09.13.06c.16.16.36.13.55.15s.18.26.37.18Zm-32.47-79a.26.26,0,0,0-.35-.17,23.49,23.49,0,0,1-3.43-.62c-.12-.16-.3-.13-.46-.14a10.57,10.57,0,0,1-2.47-.64c-1.29-.44-2.46-1.13-3.69-1.69-.22-.47-.77-.54-1.08-.91-.13-.15-.34-.43-.6-.29s-.09.4-.09.61c0,4.42,0,8.85,0,13.27A2.6,2.6,0,0,0,3,39a16.28,16.28,0,0,0,6.34,2.79A16.24,16.24,0,0,0,14.59,43c1.09.16,2.17.28,3.28.34a19.24,19.24,0,0,1,2.14.15,13.12,13.12,0,0,0,3.37.05c1.95-.17,3.91-.29,5.86-.5a42.6,42.6,0,0,0,5-1.05,8.1,8.1,0,0,1,1.39-.6c.58-.13.65-.44.65-1,0-4.28,0-8.57,0-12.85,0-.41,0-.82,0-1.23s-.17-.47-.51-.38l-1.52.4c-1,.15-2,.43-3,.62a71.28,71.28,0,0,1-9.23.82c-1.32.06-2.63-.23-4-.15a.32.32,0,0,0-.3-.13c-1,.07-2-.13-3-.15C14.33,27.1,13.87,27.23,13.45,27.1ZM94.28,14.74a36.93,36.93,0,0,1-10.15-1.18,12.41,12.41,0,0,1-4.49-2c-2-1.54-2-3.56,0-5A14.65,14.65,0,0,1,85,4.26a1.08,1.08,0,0,0,.94-1.09c.06-.44,0-.6-.54-.5a32.31,32.31,0,0,0-6.13,1.59,12.28,12.28,0,0,0-4.83,2.91,2.73,2.73,0,0,0,0,3.84,10.79,10.79,0,0,0,4.53,2.84,39.47,39.47,0,0,0,11.62,2.32,50.63,50.63,0,0,0,8.35-.08,40.71,40.71,0,0,0,10.59-2.34A9.75,9.75,0,0,0,113.76,11a2.77,2.77,0,0,0,.12-3.75,7,7,0,0,0-2.43-1.89,26.5,26.5,0,0,0-8.06-2.59c-.3-.06-.69-.29-.83.21a.87.87,0,0,0,.59,1.21c1.93.57,3.89,1,5.52,2.36,1.89,1.54,1.9,3.49,0,5a15.24,15.24,0,0,1-6,2.39A33.38,33.38,0,0,1,94.28,14.74Zm-72.5,1.57a29.28,29.28,0,0,1-6.91-.47c-2.64-.48-5.28-1-7.54-2.63C5.56,12,4.89,10,6.9,8.31a10.8,10.8,0,0,1,4.16-2.08c.63-.17,1.26-.32,1.88-.5s.5-.84.47-1.28-.47-.19-.74-.15A29.42,29.42,0,0,0,6.61,5.9,12.6,12.6,0,0,0,2.24,8.5a2.88,2.88,0,0,0-.07,4.34,10.5,10.5,0,0,0,3.7,2.33,31.35,31.35,0,0,0,7.2,2,58.18,58.18,0,0,0,7.89.75A50.35,50.35,0,0,0,31.28,17a28.75,28.75,0,0,0,8-2.67,6.13,6.13,0,0,0,2.55-2.39A3.1,3.1,0,0,0,40.67,8.1C37.76,5.84,34.32,5,30.81,4.31c-.64-.12-.81.16-.74.75s.32.63.74.74a15.16,15.16,0,0,1,5.63,2.45A2.77,2.77,0,0,1,37,12.37a5.4,5.4,0,0,1-1.07,1c-2.44,1.7-5.29,2.2-8.12,2.68A28,28,0,0,1,21.78,16.31ZM58.45,32a37.23,37.23,0,0,1-10.88-1.28A11.81,11.81,0,0,1,43,28.41a2.5,2.5,0,0,1-.38-3.76,8.73,8.73,0,0,1,4.19-2.53c.79-.23,1.58-.43,2.36-.66a1,1,0,0,0,.52-1.29c-.16-.44-.53-.2-.8-.17s-.76.15-1.13.23A22.06,22.06,0,0,0,39,23.88a2.9,2.9,0,0,0-.34,4.71,12.67,12.67,0,0,0,5.3,2.91,45.83,45.83,0,0,0,11.61,2,46.89,46.89,0,0,0,13-1.14,19.82,19.82,0,0,0,7.88-3.2c2.26-1.71,2.23-3.88.23-5.43a16.67,16.67,0,0,0-4.5-2.35A37.45,37.45,0,0,0,66.67,20c-.19,0-.54-.2-.52.23,0,.62,0,1.27.89,1.38a8.16,8.16,0,0,1,1,.26,10,10,0,0,1,4.91,2.56,2.61,2.61,0,0,1-.26,4,14,14,0,0,1-6,2.68A32.92,32.92,0,0,1,58.45,32Zm36.27-18.1a37.15,37.15,0,0,0,8.59-1.06,13,13,0,0,0,4.76-2,2,2,0,0,0,.18-3.38,5.33,5.33,0,0,0-.86-.64,18.76,18.76,0,0,0-4.26-1.67c-.45-.14-.47.19-.46.5,0,1,0,2,0,3a1.56,1.56,0,0,1-.76,1.45,9.25,9.25,0,0,1-3.35,1.28,21.89,21.89,0,0,1-6.61.32,12.17,12.17,0,0,1-5.24-1.42,1.91,1.91,0,0,1-1.11-2.06c.11-.86.07-1.73.11-2.59,0-.46-.11-.63-.59-.47-.68.22-1.4.36-2.07.61a8.87,8.87,0,0,0-3.48,2,1.68,1.68,0,0,0-.06,2.46,4.73,4.73,0,0,0,.86.75,13.49,13.49,0,0,0,4.49,1.86A40.68,40.68,0,0,0,94.72,13.86Zm-73,1.55a34.27,34.27,0,0,0,9.08-1,15.62,15.62,0,0,0,4.66-1.88c1.7-1.13,1.73-2.56.1-3.77l-.3-.2a16.53,16.53,0,0,0-4.58-1.84c-.47-.14-.48.17-.47.48a26.37,26.37,0,0,0,.13,2.67A2.06,2.06,0,0,1,29,12.16a8.92,8.92,0,0,1-1.07.44,21.17,21.17,0,0,1-10.86.34,7.88,7.88,0,0,1-2.73-1.06,2,2,0,0,1-1.08-2c.09-.91,0-1.83.07-2.75,0-.35-.07-.57-.5-.46A19,19,0,0,0,8.15,8.5c-2,1.2-2.07,2.81-.11,4.09a14.07,14.07,0,0,0,4.51,1.82A39.37,39.37,0,0,0,21.73,15.41ZM58.3,31.1a33.58,33.58,0,0,0,9.46-1.29,14,14,0,0,0,3.74-1.64c1.61-1.08,1.7-2.4.21-3.62a13.56,13.56,0,0,0-5-2.12c-.45-.13-.47.19-.45.51,0,.93,0,1.88.11,2.81a1.84,1.84,0,0,1-.95,1.81,6.89,6.89,0,0,1-1.38.63,20.15,20.15,0,0,1-8,.83,13.67,13.67,0,0,1-4.83-1.11c-1.4-.64-1.8-1.22-1.73-2.5,0-.4.06-.81.07-1.22.05-1.92,0-2-1.8-1.37a10.6,10.6,0,0,0-3.91,1.89C42.6,25.81,42.64,27,44,28a11,11,0,0,0,3.82,1.79A36.41,36.41,0,0,0,58.3,31.1ZM21.82,2.55a14,14,0,0,0-5.74.92c-.65.24-1.43.55-1.42,1.35s.79,1,1.42,1.26a16.59,16.59,0,0,0,11.31,0c.66-.24,1.43-.54,1.43-1.34S28,3.7,27.39,3.44A13.43,13.43,0,0,0,21.82,2.55Zm72.4,3a14.55,14.55,0,0,0,3.16-.32A8.16,8.16,0,0,0,100.7,4c.73-.52.73-1.07,0-1.64a5.75,5.75,0,0,0-2.5-1A18.58,18.58,0,0,0,92.71,1a10.84,10.84,0,0,0-4.65,1.13c-1.22.69-1.18,1.47.06,2.15l.2.08A15.5,15.5,0,0,0,94.22,5.5ZM57.72,22.74a14.58,14.58,0,0,0,6.38-1.28c1-.51,1-1.3.1-1.93a4.2,4.2,0,0,0-.52-.26,12.14,12.14,0,0,0-3.61-.92,16.13,16.13,0,0,0-7.73.84c-.64.23-1.37.54-1.37,1.3s.81,1.08,1.45,1.31A15.18,15.18,0,0,0,57.72,22.74Z"/><path class="cls-2" d="M70.17,89.86a7,7,0,0,1-2.51.82c-1.43.3-2.88.5-4.32.74-.21-.24-.35-.18-.45.1l-.85.06c-.16-.23-.24-.11-.31.07l-4.59.14a.7.7,0,0,0-1-.07c-1.81-.16-3.61-.31-5.41-.48-.08,0-.16-.09-.23-.14-.12-1.93.18-3.86,0-5.81-.12-1.66.08-3.34.08-5s-.1-3.49-.11-5.23c0-4.34,0-8.68.12-13,0-.77,0-1.54,0-2.31l4.74.35c.15.34.36.31.6.09h4.19c.23.22.44.26.59-.09L62,60c.17.23.25.09.31-.09l2.53-.09c.22.05.43.09.5-.22a32.46,32.46,0,0,0,4.47-.9c.35.25.29.62.29,1V88.92C70.14,89.24,70.16,89.55,70.17,89.86Z"/><path class="cls-2" d="M98.5,75.39a36.31,36.31,0,0,1-7.22.21c-.15-.34-.36-.3-.59-.09-1.2-.25-2.46,0-3.62-.5V57.27c0-1.49,0-3,0-4.48.29,0,.61-.11.84.11a1.71,1.71,0,0,0,2.2.09c.16-.09.36-.27.53-.16a2.74,2.74,0,0,0,1.78.31c.31,0,.64,0,1,0s1.09-.07,1.3.19c.43.51.61.23.9,0a.53.53,0,0,1,.3-.18,12.84,12.84,0,0,1,1.64-.17c.5,0,1-.78,1.5,0a.76.76,0,0,0,.19-.07,9.29,9.29,0,0,1,3.22-.91c.09,0,.23-.07.24-.12.1-.54.61-.53.94-.76a6.52,6.52,0,0,1,1.07-.57,3.87,3.87,0,0,0,1.73-1.13V69c0,1.59,0,3.18,0,4.77A20,20,0,0,1,101.3,75c-.22-.06-.43-.09-.5.21a9,9,0,0,1-1.86.19C98.78,75.16,98.63,75.17,98.5,75.39Z"/><path class="cls-3" d="M31.82,43.56l1.11-.1c.1.83.71.82,1.33.79V61c-.33,0-.47.25-.59.55a1.25,1.25,0,0,1-.72.82,6.66,6.66,0,0,0-1.59.77c-.43.31-.71,1.13-1.51.57-.23-.16-.33.11-.36.3-.07.5-.33.6-.81.49a.87.87,0,0,0-1.09.41,1.2,1.2,0,0,1-1.11.57,1.41,1.41,0,0,0-1.25.58c-.35.42-.68.33-.93-.06s-.54-.42-.92-.55a7.33,7.33,0,0,1-2.55-1.08c-.45-.38-.87-1-1.35-1.12-1.41-.34-1.9-1.53-2.49-2.51-.89-1.47-.87-1.61-2.38-1.32l0-2.9q0-4.2.05-8.4c.21,0,.41.07.44.28a.81.81,0,0,0,.77.73c.8,0,1.15.84,2,.9a5.49,5.49,0,0,0,2,0c.86-.25,1.53-1,2.53-.89.1,0,.23-.14.35-.21,1-.62,1.7-1.65,2.66-2.35.34-.25.7-.49,1-.77.15-.12.4-.26.25-.52s-.32-.38-.6-.25-.43.12-.47-.21h.14c.28,0,.46,0,.44-.38l.29,0a3,3,0,0,0,2.17-.2h.53l.63,0c.34.8.67.91,1.81.63.31-.07.79,0,.84-.36s-.35-.52-.64-.69Z"/><path class="cls-4" d="M34.26,41.94a42.6,42.6,0,0,1-5,1.05c-1.95.21-3.91.33-5.86.5A13.12,13.12,0,0,1,20,43.44a19.24,19.24,0,0,0-2.14-.15c-1.11-.06-2.19-.18-3.28-.34,0-5.2,0-10.41.13-15.62,1,0,2,.22,3,.15,0,.18.08.36.3.13,1.32-.08,2.63.21,4,.15a71.28,71.28,0,0,0,9.23-.82c1-.19,2-.47,3-.62Z"/><path class="cls-5" d="M31.24,76.87l.28,0a2.57,2.57,0,0,0,1.89-.53l.27-.06c.45.12.6.37.6.86,0,4.14,0,8.28,0,12.42,0,.73.07,1.54-.72,2a42.48,42.48,0,0,1-15.38,1.51,13.32,13.32,0,0,1-3.54-.54v-15c.13,0,.29,0,.4-.09l.28,0c.36.38.77.23,1.17.11l.71,0a1,1,0,0,0,1.17.09l.28,0a2.61,2.61,0,0,0,2,.14H23a5.21,5.21,0,0,0,3.19-.25l.85-.06a1.8,1.8,0,0,0,1.75-.24l.42,0c.18.18.33.14.45-.06l.57-.07A.72.72,0,0,0,31.24,76.87Z"/><path class="cls-5" d="M98.81,76.43l.85-.06c.19.21.34.17.45-.08l.71-.05c.2.2.35.16.45-.1l.56-.06c.14.2.23.11.31,0l.56-.07c.38.22.64,0,.88-.26l.42-.06c.33.19.56.06.74-.23l1.43-.34c.34.22.29.57.29.9q0,7.09,0,14.17a24.12,24.12,0,0,1-5.09,1.25,47.62,47.62,0,0,1-11.06.43,17.16,17.16,0,0,1-3.27-.45c0-5,.27-10,.16-15l0,0c.11,0,.23,0,.27-.14l.57.05c.25.44.56.27.88.1l1.14.11c.08.17.17.24.31,0l1.42.09a.63.63,0,0,0,.89,0h3a1.63,1.63,0,0,0,1.31.09C97.64,76.63,98.3,76.89,98.81,76.43Z"/><path class="cls-5" d="M67,91.9l.27-.05c.13.17.22.12.29,0l.35,0a.76.76,0,0,0,.82-.3l.42-.07c.3.23.45,0,.6-.22l.41,0c.22.4,0,.79,0,1.19q0,6.4,0,12.82c0,.26,0,.52.06.78l0,0c-.18-.09-.3,0-.36.16l-.62.13a.25.25,0,0,0-.39.15l-.77.15c-.19-.1-.32-.06-.38.15l-1.14.2c-.12-.15-.22-.13-.3,0L66,107c-.26,0-.54-.18-.66.21a6.48,6.48,0,0,1-1.58.17,1.07,1.07,0,0,0-1.32.23l-1.28.07c-.11-.16-.21-.15-.3,0l-2.38,0a.91.91,0,0,0-.74,0,40.52,40.52,0,0,1-4.67-.19c-.17-.28-.42-.19-.66-.14h-.22c-.17-.24-.37-.22-.58-.06l-.85-.08-.17-.18q0-7.31,0-14.6c.48,0,1,.34,1.46,0l.7.06c.21.32.47.27.74.08l.42,0c.31.38.66.3,1,.11l1.72.07a3.42,3.42,0,0,0,2.48,0l1.45-.07a2.24,2.24,0,0,0,2-.21l1-.1a1.78,1.78,0,0,0,1.75-.25l.42,0A.94.94,0,0,0,67,91.9Z"/><path class="cls-6" d="M106.48,73.8c0-1.59,0-3.18,0-4.77V46a.51.51,0,0,0,0-.73c0-.29,0-.57,0-.86a8,8,0,0,0-.15-2.49,33.92,33.92,0,0,0,5-1.87,15,15,0,0,0,2.55-1.61c.14-.12.29-.32.5-.22s.16.38.15.58c-.28,8.29,0,16.58-.12,24.87,0,1.54-.06,3.08,0,4.62a2.21,2.21,0,0,1-1,2A19.56,19.56,0,0,1,106.48,73.8Z"/><path class="cls-2" d="M14.61,59.45c1.51-.29,1.49-.15,2.38,1.32.59,1,1.08,2.17,2.49,2.51.48.12.9.74,1.35,1.12a7.33,7.33,0,0,0,2.55,1.08c.38.13.69.19.92.55s.58.48.93.06a1.41,1.41,0,0,1,1.25-.58,1.2,1.2,0,0,0,1.11-.57.87.87,0,0,1,1.09-.41c.48.11.74,0,.81-.49,0-.19.13-.46.36-.3.8.56,1.08-.26,1.51-.57A6.66,6.66,0,0,1,33,62.4a1.25,1.25,0,0,0,.72-.82c.12-.3.26-.51.59-.55.07,4.68-.06,9.35-.15,14l-.38.06c-.2-.06-.31,0-.35.22a10.17,10.17,0,0,1-2,.35.24.24,0,0,0-.34.23l-.42,0c-.17-.22-.25-.09-.31.09l-.42,0c-.11-.15-.21-.13-.29,0l-.25,0c-.24,0-.52-.15-.63.22l-.57,0c-.16-.19-.31-.18-.43,0h-.53c-.21-.06-.41-.09-.5.19l-.85,0c-.23-.21-.44-.23-.6.09l-2.15.06a6.51,6.51,0,0,0-3,0l-2.15,0c-.15-.33-.36-.31-.6-.1l-.42,0c-.13-.35-.34-.32-.59-.12l-1.74-.25c0-3.28,0-6.55,0-9.83a12.74,12.74,0,0,0,.1-1.5A50.15,50.15,0,0,1,14.61,59.45Z"/><path class="cls-6" d="M70.17,89.86c0-.31,0-.62,0-.94V59.69c0-.36.06-.73-.29-1,1.25-.38,2.49-.74,3.71-1.23a25.4,25.4,0,0,0,3.86-2c.17-.1.33-.36.55-.26s.13.38.13.59V73.83c0,3.53,0,7.06,0,10.59a2.36,2.36,0,0,1-.89,1.92,19.28,19.28,0,0,1-6.78,3.49A1.36,1.36,0,0,1,70.17,89.86Z"/><path class="cls-4" d="M99.51,41.94a15,15,0,0,1-3,.27A54.79,54.79,0,0,1,90,42.08l-2.91-.28c0-2.17,0-4.34,0-6.52l0-.86a1.21,1.21,0,0,1,.76.18c.18.1.39.16.52,0a1.3,1.3,0,0,1,1-.51.89.89,0,0,0,.54-.33,6,6,0,0,0,1.39-2.47c.21-1.35,1.07-2.69.23-4.1a.27.27,0,0,1,.06-.27c.26-.23.07-.49,0-.73a28.9,28.9,0,0,1,4.16,0A53.4,53.4,0,0,0,105.61,25a3.49,3.49,0,0,1,.85-.12v9.41c-.48.12-.14-.94-.67-.52a3.62,3.62,0,0,0-.61,1,.64.64,0,0,0,0,.07,1.51,1.51,0,0,1-1.59,1.09c-.33,0-.43.19-.61.45-.49.68-.63,1.58-1.22,2.14-1,1-1.14,2.46-2.21,3.35C99.51,41.83,99.52,41.9,99.51,41.94Z"/><path class="cls-7" d="M53.79,108.62a53.61,53.61,0,0,0,6.08.14c.15.2.3.2.44,0l1.58-.13c.24.22.44.24.6-.08l.85-.06c.11.16.21.14.29,0l2.46-.41c.16.21.24.09.31-.08,1.29-.1,2.48-.63,3.74-.83,0,3.3,0,6.59,0,9.89a26,26,0,0,1-3.48.86c-.18-.22-.25-.08-.31.1a50.25,50.25,0,0,1-5,.62c-.24-.2-.45-.24-.6.1a41.06,41.06,0,0,1-8.58-.35c-.51-.08-1,.1-1.53-.2,0-3.33-.09-6.65-.13-10l.41,0a.24.24,0,0,0,.35.22l2,.07C53.34,108.88,53.55,108.83,53.79,108.62Z"/><path class="cls-7" d="M93,93h2a.34.34,0,0,0,.58,0l2-.13c.24.22.44.25.59-.09,1.12,0,2.21-.29,3.32-.34.18.22.25.08.3-.1l1.24-.09c.19.06.31,0,.35-.2a17.68,17.68,0,0,0,3-.76c0,3.34,0,6.68,0,10a10.46,10.46,0,0,1-2.8.81,22.7,22.7,0,0,1-4,.61c-.11-.17-.21-.15-.3,0l-1.1,0c-.32,0-.72-.27-.92.22a44.31,44.31,0,0,1-10.29-.47c0-.57,0-1.15.07-1.72a26,26,0,0,0,0-4.67,32.91,32.91,0,0,1,0-3.58l2.82.23c.06.19.14.31.31.08l2.3.14C92.71,93.19,92.85,93.19,93,93Z"/><path class="cls-8" d="M63.2,43a25.07,25.07,0,0,0,5.52-.77,4,4,0,0,1,.84-.11v.15l.15.14c0,.38,0,.4-.5.33-.25,0-.43,0-.48.28s.11.27.27.25c.6-.06.7.28.73.79s.07.85.08,1.28a29.23,29.23,0,0,1-.24,4.39c-.06.47-.75,1.26-1.19,1.15a1.1,1.1,0,0,0-1.12.44c-.53.53-.93,1.17-1.86,1.07-.46-.06-.76.48-1.22.56-1.36.25-2.67.72-4.05.84a.85.85,0,0,1-.42,0,5.44,5.44,0,0,0-2.2-.15A18.8,18.8,0,0,1,54,53.38c-1.24-.21-2.08.56-3.08,1-.24.1-.15.43-.15.66,0,1.23,0,2.46,0,3.69a.28.28,0,0,1-.29-.14v-7.8a7.24,7.24,0,0,0,0-3V44a1.29,1.29,0,0,0,0-1.18,73.09,73.09,0,0,0,8.62.44,10.6,10.6,0,0,1,3.08,0C62.52,43.15,63,43.48,63.2,43Z"/><path class="cls-3" d="M106.31,41.91a8,8,0,0,1,.15,2.49c0,.29,0,.57,0,.86a.48.48,0,0,0,0,.73v3.33a3.87,3.87,0,0,1-1.73,1.13,6.52,6.52,0,0,0-1.07.57c-.33.23-.84.22-.94.76,0,0-.15.12-.24.12a9.29,9.29,0,0,0-3.22.91.76.76,0,0,1-.19.07c-.53-.73-1,.09-1.5,0a12.84,12.84,0,0,0-1.64.17.53.53,0,0,0-.3.18c-.29.27-.47.55-.9,0-.21-.26-.86-.23-1.3-.19s-.66,0-1,0a2.74,2.74,0,0,1-1.78-.31c-.17-.11-.37.07-.53.16A1.71,1.71,0,0,1,88,52.9c-.23-.22-.55-.09-.84-.11,0-.14,0-.29,0-.43.41-.13.25-.48.25-.73q0-4.27,0-8.53L87.5,43l.58.06c0,.18.13.27.29.07l1,0c0,.17,0,.32-.22.39s-.56.22-.4.54.44.16.7.08a6.63,6.63,0,0,1,3.07-.62A.47.47,0,0,0,93,43.4h2.77c.59.14,1.18.36,1.73-.12l2.74-.19c.34.2.66.34.87-.16A35.53,35.53,0,0,0,106.31,41.91Z"/><path class="cls-7" d="M94.28,14.74a33.38,33.38,0,0,0,8.36-.79,15.24,15.24,0,0,0,6-2.39c1.95-1.5,1.94-3.45,0-5-1.63-1.33-3.59-1.79-5.52-2.36A.87.87,0,0,1,102.56,3c.14-.5.53-.27.83-.21a26.5,26.5,0,0,1,8.06,2.59,7,7,0,0,1,2.43,1.89,2.77,2.77,0,0,1-.12,3.75,9.75,9.75,0,0,1-4.26,2.73,40.71,40.71,0,0,1-10.59,2.34,50.63,50.63,0,0,1-8.35.08,39.47,39.47,0,0,1-11.62-2.32A10.79,10.79,0,0,1,74.41,11a2.73,2.73,0,0,1,0-3.84,12.28,12.28,0,0,1,4.83-2.91,32.31,32.31,0,0,1,6.13-1.59c.5-.1.6.06.54.5A1.08,1.08,0,0,1,85,4.26a14.65,14.65,0,0,0-5.37,2.22c-2,1.49-2,3.51,0,5a12.41,12.41,0,0,0,4.49,2A36.93,36.93,0,0,0,94.28,14.74Z"/><path class="cls-7" d="M21.78,16.31a28,28,0,0,0,6-.31c2.83-.48,5.68-1,8.12-2.68a5.4,5.4,0,0,0,1.07-1,2.77,2.77,0,0,0-.56-4.12A15.16,15.16,0,0,0,30.81,5.8c-.42-.11-.68-.27-.74-.74s.1-.87.74-.75c3.51.67,7,1.53,9.86,3.79a3.1,3.1,0,0,1,1.19,3.81,6.13,6.13,0,0,1-2.55,2.39,28.75,28.75,0,0,1-8,2.67A50.35,50.35,0,0,1,21,17.89a58.18,58.18,0,0,1-7.89-.75,31.35,31.35,0,0,1-7.2-2,10.5,10.5,0,0,1-3.7-2.33A2.88,2.88,0,0,1,2.24,8.5,12.6,12.6,0,0,1,6.61,5.9a29.42,29.42,0,0,1,6.06-1.6c.27,0,.71-.35.74.15s.25,1.08-.47,1.28-1.25.33-1.88.5A10.8,10.8,0,0,0,6.9,8.31c-2,1.68-1.34,3.64.43,4.9,2.26,1.6,4.9,2.15,7.54,2.63A29.28,29.28,0,0,0,21.78,16.31Z"/><path class="cls-7" d="M58.45,32a32.92,32.92,0,0,0,8.25-.89,14,14,0,0,0,6-2.68,2.61,2.61,0,0,0,.26-4A10,10,0,0,0,68,21.85a8.16,8.16,0,0,0-1-.26c-.86-.11-.87-.76-.89-1.38,0-.43.33-.27.52-.23a37.45,37.45,0,0,1,5.51,1.42,16.67,16.67,0,0,1,4.5,2.35c2,1.55,2,3.72-.23,5.43a19.82,19.82,0,0,1-7.88,3.2,46.89,46.89,0,0,1-13,1.14,45.83,45.83,0,0,1-11.61-2,12.67,12.67,0,0,1-5.3-2.91A2.9,2.9,0,0,1,39,23.88a22.06,22.06,0,0,1,8.84-3.65c.37-.08.75-.18,1.13-.23s.64-.27.8.17a1,1,0,0,1-.52,1.29c-.78.23-1.57.43-2.36.66a8.73,8.73,0,0,0-4.19,2.53A2.5,2.5,0,0,0,43,28.41a11.81,11.81,0,0,0,4.53,2.27A37.23,37.23,0,0,0,58.45,32Z"/><path class="cls-2" d="M87.21,17.21l1.29.05c.07.18.15.29.31.07l.85.05c.15.35.36.32.59.1a58.73,58.73,0,0,0,8,0c.17.23.25.11.3-.08l.71-.05c.2.23.35.17.46-.08l4-.4a.24.24,0,0,0,.35-.21,11.34,11.34,0,0,0,2.3-.48,1.69,1.69,0,0,1,.15.91v6.35a34.46,34.46,0,0,1-3.47.72c-.2-.22-.26-.07-.31.11l-.27,0c-.19-.22-.25-.07-.31.1l-.85.05c-.2-.23-.35-.17-.45.09l-.85.07c-.16-.23-.24-.11-.31.07l-1.43.07c-.16-.23-.24-.1-.31.07a53.91,53.91,0,0,1-10.7-.4c0-.7,0-1.4,0-2.09A24.24,24.24,0,0,1,87.21,17.21Z"/><path class="cls-9" d="M106.46,34.27V24.86a39.79,39.79,0,0,0,5.68-2.17,17.28,17.28,0,0,0,1.7-1.2c.13-.1.28-.23.45-.16s.12.3.12.45c0,4.72,0,9.43,0,14.15,0,.93-.85,1.35-1.48,1.82a20,20,0,0,1-6.17,2.89.28.28,0,0,0-.29-.3Z"/><path class="cls-10" d="M106.47,90.14q0-7.08,0-14.17c0-.33.05-.68-.29-.9a30.34,30.34,0,0,0,5.56-2.31c.75-.43,1.42-1,2.12-1.47.19-.13.32-.47.58-.34s.12.43.12.66c0,3.89,0,7.79,0,11.69a5,5,0,0,0,0,.87,2.58,2.58,0,0,1-1.21,2.58,18.09,18.09,0,0,1-5.11,2.77A9.2,9.2,0,0,1,106.47,90.14Z"/><path class="cls-11" d="M50.63,59.71c0,.77,0,1.54,0,2.31-.11,4.35-.16,8.69-.12,13,0,1.74.11,3.49.11,5.23s-.2,3.35-.08,5c.14,1.95-.16,3.88,0,5.81a21.55,21.55,0,0,1-5.08-1.17c-.07,0-.11-.14-.17-.22s.05-.47.05-.71V71.44c0-.38,0-.77,0-1.15.68.19,1.24.15,1.46-.7A2,2,0,0,1,48,68.26a1.88,1.88,0,0,0,1-1.35c.12-.44.35-.88.48-1.34.07-.23.11-.4.36-.17s.16.43.41.3.09-.39.11-.59,0-.63,0-.94c0-.16.08-.37-.13-.44s-.12.32-.38.24c-.11-.26-.17-.71,0-.78.75-.28.46-.86.48-1.33,0-.74,0-1.49,0-2.24Z"/><path class="cls-9" d="M70.28,41.8a17.73,17.73,0,0,0,7.11-3.11c.4-.29.53-.2.58.32a40.19,40.19,0,0,1,0,6c-.07,2.35-.07,4.72,0,7.07a2.45,2.45,0,0,1-1,2.28,13.71,13.71,0,0,1-3.55,1.93,32.77,32.77,0,0,1-3.25,1.12c0-2.11,0-4.22.11-6.33C70.39,48,70.28,44.9,70.28,41.8Z"/><path class="cls-10" d="M70.21,105.93c0-.26-.06-.52-.06-.78q0-6.41,0-12.82c0-.4.23-.79,0-1.19a6.19,6.19,0,0,1,1.6-.6,20.59,20.59,0,0,0,5.91-3.22c.1-.09.19-.25.36-.16s.1.26.1.39c0,4.5,0,9,0,13.5a1.51,1.51,0,0,1-.69,1.13A18.17,18.17,0,0,1,70.21,105.93Z"/><path class="cls-4" d="M70.28,41.8c0,3.1.11,6.2,0,9.29-.09,2.11-.06,4.22-.11,6.33a37.49,37.49,0,0,1-6.21,1.32,42.48,42.48,0,0,1-5.73.35A27.33,27.33,0,0,1,54,58.91c-1.06-.13-2.14-.14-3.22-.21,0-1.23,0-2.46,0-3.69,0-.23-.09-.56.15-.66,1-.41,1.84-1.18,3.08-1a18.8,18.8,0,0,0,3.52.19,5.44,5.44,0,0,1,2.2.15.85.85,0,0,0,.42,0c1.38-.12,2.69-.59,4.05-.84.46-.08.76-.62,1.22-.56.93.1,1.33-.54,1.86-1.07a1.1,1.1,0,0,1,1.12-.44c.44.11,1.13-.68,1.19-1.15a29.23,29.23,0,0,0,.24-4.39c0-.43,0-.85-.08-1.28s-.13-.85-.73-.79c-.16,0-.3-.07-.27-.25s.23-.31.48-.28c.48.07.49,0,.5-.33l-.15-.14v-.15A.82.82,0,0,1,70.28,41.8Z"/><path class="cls-2" d="M45.31,70.29c0,.38,0,.77,0,1.15V89c0,.24,0,.48-.05.71a11.78,11.78,0,0,1-3.64-1.32,7.1,7.1,0,0,1-2.36-1.58l0-.75c.43-.11.27-.46.27-.71q0-6.18,0-12.36c0-.23.08-.48-.14-.67V69.14c.67-.3,1.44-.25,2.1-.61a1.8,1.8,0,0,1,1.1-.17c.84.15,1.69.61,2.45-.21.05-.05.19,0,.28,0Z"/><path class="cls-12" d="M94.72,13.86a40.68,40.68,0,0,1-9.81-1A13.49,13.49,0,0,1,80.42,11a4.73,4.73,0,0,1-.86-.75,1.68,1.68,0,0,1,.06-2.46,8.87,8.87,0,0,1,3.48-2c.67-.25,1.39-.39,2.07-.61.48-.16.61,0,.59.47,0,.86,0,1.73-.11,2.59a1.91,1.91,0,0,0,1.11,2.06A12.17,12.17,0,0,0,92,11.71a21.89,21.89,0,0,0,6.61-.32A9.25,9.25,0,0,0,102,10.11a1.56,1.56,0,0,0,.76-1.45c0-1,0-2,0-3,0-.31,0-.64.46-.5a18.76,18.76,0,0,1,4.26,1.67,5.33,5.33,0,0,1,.86.64,2,2,0,0,1-.18,3.38,13,13,0,0,1-4.76,2A37.15,37.15,0,0,1,94.72,13.86Z"/><path class="cls-12" d="M21.73,15.41a39.37,39.37,0,0,1-9.18-1A14.07,14.07,0,0,1,8,12.59c-2-1.28-1.91-2.89.11-4.09a19,19,0,0,1,4.67-1.85c.43-.11.5.11.5.46,0,.92,0,1.84-.07,2.75a2,2,0,0,0,1.08,2,7.88,7.88,0,0,0,2.73,1.06,21.17,21.17,0,0,0,10.86-.34A8.92,8.92,0,0,0,29,12.16a2.06,2.06,0,0,0,1.36-2.28,26.37,26.37,0,0,1-.13-2.67c0-.31,0-.62.47-.48a16.53,16.53,0,0,1,4.58,1.84l.3.2c1.63,1.21,1.6,2.64-.1,3.77a15.62,15.62,0,0,1-4.66,1.88A34.27,34.27,0,0,1,21.73,15.41Z"/><path class="cls-12" d="M58.3,31.1a36.41,36.41,0,0,1-10.52-1.3A11,11,0,0,1,44,28c-1.32-1-1.36-2.2-.09-3.3a10.6,10.6,0,0,1,3.91-1.89c1.83-.58,1.85-.55,1.8,1.37,0,.41,0,.82-.07,1.22-.07,1.28.33,1.86,1.73,2.5A13.67,13.67,0,0,0,56.07,29a20.15,20.15,0,0,0,8-.83,6.89,6.89,0,0,0,1.38-.63,1.84,1.84,0,0,0,.95-1.81c-.08-.93-.08-1.88-.11-2.81,0-.32,0-.64.45-.51a13.56,13.56,0,0,1,5,2.12c1.49,1.22,1.4,2.54-.21,3.62a14,14,0,0,1-3.74,1.64A33.58,33.58,0,0,1,58.3,31.1Z"/><path class="cls-4" d="M9.35,41.81A16.4,16.4,0,0,1,3,39V33.11c0-3.09,0-6.18,0-9.27,1.23.56,2.4,1.25,3.69,1.69a10.57,10.57,0,0,0,2.47.64c.16,0,.34,0,.46.14a.7.7,0,0,0-.42.87,4.24,4.24,0,0,1,.11.7Q9.36,34.86,9.35,41.81Z"/><path class="cls-5" d="M3,73.45a4.16,4.16,0,0,1,1.41.67,31.08,31.08,0,0,0,4.72,2,.73.73,0,0,1,.23.16c0,.24,0,.47,0,.71q0,7.22,0,14.41a19.19,19.19,0,0,1-6.12-2.75c-.12-.07-.26-.14-.28-.3C3,87.24,3,86.14,3,85Q3,79.24,3,73.45Z"/><path class="cls-11" d="M87.07,57.27V75l-1.44-.09c-.07-.31-.27-.31-.5-.21l-1.38-.23c-.08-.33-.28-.29-.51-.17a4.29,4.29,0,0,1-1.44-.48c0-.34.06-.67.06-1q0-8,0-16c.33,0,.76,0,.77-.35,0-.89.8-.85,1.4-1.28-.41.81.25.69.54.9s.49-.09.68-.27.39-.52.77-.42.22.48.36.69C86.63,56.49,86.33,57.2,87.07,57.27Z"/><path class="cls-13" d="M61.47,34.72l.57,0c.36.19.73.38,1-.12a11.22,11.22,0,0,1,2.16-.15c.26.2.48.26.59-.14A40.09,40.09,0,0,0,70,33.37a1.14,1.14,0,0,1,.3.91c.09,2.08-.28,4.16-.13,6.24a14.2,14.2,0,0,1-3.16.65c-.2-.12-.31,0-.35.17L66,41.4c-.12-.21-.22-.18-.29,0l-.24,0c-.23-.11-.42-.12-.5.18l-.56,0c-.2-.25-.34-.17-.47.06l-1.13.09c-.2-.22-.4-.24-.57,0l-.87.11c-.24-.23-.44-.24-.6.08-1.88,0-3.75.1-5.63,0-.16-.28-.39-.19-.62-.12a16.89,16.89,0,0,1-2.56-.21c0-.37.21-.46.49-.6.6-.28,1.34-.29,1.78-.88a9.09,9.09,0,0,1,2.7-2.08c1-.66,2.25-1,3.31-1.68.54-.34,1-.67.69-1.41C61.1,35,61.42,35.1,61.47,34.72Z"/><path class="cls-11" d="M14.61,59.45a50.15,50.15,0,0,0,.09,5.48,12.74,12.74,0,0,1-.1,1.5c0,3.28,0,6.55,0,9.83l-1-.05c-.15-.38-.35-.34-.59-.09L12.72,76c-.05-.2-.17-.27-.36-.18l-.94-.12c-.06-.19-.17-.26-.36-.17a6.18,6.18,0,0,1-1.57-.47c0-.24.12-.53-.24-.64q0-7,0-14.09c0-.65,0-1.3,0-1.94.46,0,.37.33.39.61a4.73,4.73,0,0,0,.14,1.63,4.24,4.24,0,0,1,.54-1.11c.34-.47.63-1.06,1.42-.86.34.08.43-.24.49-.5A2.15,2.15,0,0,1,13,56.87c.48-.34.9-.89,1.56-.32Z"/><path class="cls-8" d="M45.39,57.43a25.15,25.15,0,0,0-2.79-1,9.19,9.19,0,0,1-2.81-1.51c-.28-.25-.74-.11-.91-.5.55,0,.44-.4.44-.72V46.39c0-2.31,0-4.62,0-6.93.86.42,1.73.82,2.59,1.26a11.51,11.51,0,0,0,3.13.93c.15,0,.29,0,.33.22a1.28,1.28,0,0,0-.15.9C45.27,47.66,45.22,52.54,45.39,57.43Z"/><path class="cls-5" d="M44.92,105.77c-.19,0-.39,0-.55-.15,0-.11,0-.16-.13-.06l-.29-.09a.1.1,0,0,0-.08,0A17.25,17.25,0,0,1,39,102.72c.47-.11.31-.49.31-.77q0-6.81,0-13.62a34,34,0,0,0,5.26,2.45c.35.12.78.08,1.06.4-.42.1-.39.43-.39.75,0,1.79.06,3.59.11,5.39a76.34,76.34,0,0,1-.11,8.42Z"/><path class="cls-13" d="M16.18,26.17A4.22,4.22,0,0,1,14.72,26c0-.3,0-.61,0-.92a7.85,7.85,0,0,0-.13-2.37v-2l0-1.92a.11.11,0,0,1,.12,0,2.08,2.08,0,0,1,.15,1c0,.9.17,1,1,.85,1.38-.23,2.48-1.26,3.89-1.37H23a1.22,1.22,0,0,0,1.31,0l1.58-.11c.27.19.53.27.73-.09l2-.21c.2.25.48.11.72.15.31.31-.3.5-.1.83a1,1,0,0,1-.17,1.14c-.9,1.2-1.8,2.41-2.76,3.56-.41.5-1,.87-.44,1.62,0,0,0,.05,0,.07-.2.05-.47-.07-.57.22a51.8,51.8,0,0,1-6.23.05c-.39-.46-.85-.27-1.3-.13l-.72,0C16.79,25.87,16.49,26,16.18,26.17Z"/><path class="cls-2" d="M9.28,58.43c0,.64,0,1.29,0,1.94q0,7,0,14.09l0,.51a18.5,18.5,0,0,1-5.57-2.49c-.23-.14-.58-.17-.64-.51,0-3.79-.08-7.58.14-11.37.69.37,1.16.11,1.71-.4a2.24,2.24,0,0,1,1.52-.4,2.26,2.26,0,0,0,2.39-1.55c.08-.28.17-.43.47-.4Z"/><path class="cls-7" d="M9.35,41.81q0-7,0-13.93a4.24,4.24,0,0,0-.11-.7.7.7,0,0,1,.42-.87,23.49,23.49,0,0,0,3.43.62c.07.17.16.27.35.17.42.13.88,0,1.27.23-.12,5.21-.15,10.42-.13,15.62A16.24,16.24,0,0,1,9.35,41.81Z"/><path class="cls-14" d="M87.21,76.38c.11,5-.21,10-.16,15a20.18,20.18,0,0,1-4.91-1.1.18.18,0,0,0-.21-.13h0l0,0c-.08-2.62,0-5.25-.12-7.87-.13-2.11,0-4.24,0-6.36,0-.58.11-.77.74-.61s1.17.56,1.85.37l.33,0c.05.36.33.32.6.37A11,11,0,0,1,87.21,76.38Z"/><path class="cls-2" d="M15.6,93.86a4.54,4.54,0,0,1,1.16.13c-.06.29-.2.75.25.69s1.16.4,1.19-.54c2.85,0,5.7.1,8.54-.14a1.65,1.65,0,0,0,.94,1.39c1.08.27,1.2,1.18,1.68,1.87.35.5.29,1.23.89,1.56a1.28,1.28,0,0,1,.48,2.12c-.64.78-.59,1.83-1.08,2.66a1.79,1.79,0,0,1-1,.13.54.54,0,0,0-.66-.3,13.74,13.74,0,0,0-1.42.1c-.68.18-1.89-.74-1.61-1.18a.74.74,0,0,0-.17-1.06c-.38-.32-.17-1-.56-1.1-.6-.24-.91-1-1.68-.92-.24,0-.4-.25-.5-.47a1.18,1.18,0,0,0-1-.67,8.28,8.28,0,0,1-2.48-1.08A5.2,5.2,0,0,0,16,96.31c-.36,0-.85.22-1-.23a1.13,1.13,0,0,1,.2-1.27A1.25,1.25,0,0,0,15.6,93.86Z"/><path class="cls-6" d="M106.48,101.29c0-3.34,0-6.68,0-10a26.79,26.79,0,0,0,5.14-2.13,17.11,17.11,0,0,0,2.28-1.48c.12-.1.22-.31.41-.23s.13.34.13.51c0,2.7,0,5.39,0,8.09a2.21,2.21,0,0,1-.65,1.47,11.47,11.47,0,0,1-4.58,2.9A10.71,10.71,0,0,1,106.48,101.29Z"/><path class="cls-14" d="M9.38,91.4q0-7.2,0-14.41c0-.24,0-.47,0-.71.6,0,1.13.33,1.72.32l0,.06h.06l0,0c0,.09.07.11.15.07l.13.07c.09.19.19.11.29,0l.39.06c.26.24.53.43.9.24l.57.05c.1.29.26.22.43.07l.3,0c0,.12.07.19.18.23v15a1.3,1.3,0,0,1-.91-.09c-.12-.21-.29-.15-.46-.1l-.41,0a.12.12,0,0,0-.2,0l-.39-.1c-.07-.16-.18-.14-.31-.09a6.86,6.86,0,0,1-2-.47c-.06-.17-.19-.16-.33-.12Z"/><path class="cls-6" d="M70.15,117c0-3.3,0-6.59,0-9.89,1.13-.53,2.38-.75,3.49-1.33a20,20,0,0,0,4-2.41c.1-.09.19-.26.35-.2s.13.29.13.45c0,2.62,0,5.25,0,7.87a3.58,3.58,0,0,1-2,2.89A22,22,0,0,1,70.15,117Z"/><path class="cls-14" d="M45.26,105.74a76.34,76.34,0,0,0,.11-8.42c0-1.8-.09-3.6-.11-5.39,0-.32,0-.65.39-.75a25.13,25.13,0,0,1,3.52.87c.43.11.86,0,1.27.13a.28.28,0,0,0,.16.26q0,7.29,0,14.6c-.65-.14-1.31-.24-2-.36-.49-.08-1-.39-1.49-.23l-.42-.08a.64.64,0,0,0-.81-.23l-.63-.19Z"/><path class="cls-3" d="M9.24,57.85c-.3,0-.39.12-.47.4A2.26,2.26,0,0,1,6.38,59.8a2.24,2.24,0,0,0-1.52.4c-.55.51-1,.77-1.71.4,0-.74-.14-1.49-.13-2.23,0-1.87.12-3.75.12-5.63s0-3.5-.09-5.26c-.13-2.32,0-4.66,0-7,1.07.49,2.16,1,3.22,1.48a23.28,23.28,0,0,1,2.69,1.09c.09.33.05.5-.33.69A4.53,4.53,0,0,0,6.79,45c-.7,1-1.3,2.11-1.95,3.16a.58.58,0,0,0,0,.48,23.16,23.16,0,0,1,.06,2.89,2,2,0,0,0,.31,1c.29.52.74.55,1.26.65a5.77,5.77,0,0,0,2.08-.09c.48-.08.55,0,.55.38a.39.39,0,0,0,.16.38l0,3.46v.3Z"/><path class="cls-15" d="M9.24,57.85c0-.09,0-.19,0-.28s.34,0,.31-.19-.19-.1-.31-.11l0-3.46a14.1,14.1,0,0,0,.13-2.9c.23-.22.14-.5.14-.75V43.23c.24,0,.48.34.72,0l.27,0c.16.57.67.36,1,.44a4.5,4.5,0,0,0,2.38.3l.52,0c.26.42.1.9.19,1.34v2.75q0,4.2-.05,8.4c-.66-.57-1.08,0-1.56.32a2.15,2.15,0,0,0-.76,1.33c-.06.26-.15.58-.49.5-.79-.2-1.08.39-1.42.86a4.24,4.24,0,0,0-.54,1.11A4.73,4.73,0,0,1,9.67,59c0-.28.07-.62-.39-.61C9.27,58.23,9.25,58,9.24,57.85Z"/><path class="cls-15" d="M87.07,57.27c-.74-.07-.44-.78-.68-1.16-.14-.21,0-.6-.36-.69s-.56.21-.77.42-.3.53-.68.27-1-.09-.54-.9c-.6.43-1.37.39-1.4,1.28,0,.33-.44.37-.77.35l0-6.51V42a6.32,6.32,0,0,1,1.66.31,5.36,5.36,0,0,0,2.41.34l.27,0c.2.4.59.15.88.26l0,9.4c0,.14,0,.29,0,.43C87.1,54.29,87.09,55.78,87.07,57.27Z"/><path class="cls-3" d="M15.6,93.86a1.25,1.25,0,0,1-.45,1,1.13,1.13,0,0,0-.2,1.27c.18.45.67.24,1,.23a5.2,5.2,0,0,1,2.62.74,8.28,8.28,0,0,0,2.48,1.08,1.18,1.18,0,0,1,1,.67c.1.22.26.49.5.47.77-.07,1.08.68,1.68.92.39.15.18.78.56,1.1a.74.74,0,0,1,.17,1.06c-.28.44.93,1.36,1.61,1.18a13.74,13.74,0,0,1,1.42-.1.54.54,0,0,1,.66.3l-.3.11c-.25-.19-.46-.22-.6.12l-.27,0c0-.08,0-.21-.12-.17s-.13.16-.2.24l-1.42.07c-.27-.19-.53-.24-.74.1a46.25,46.25,0,0,1-6.34,0,.33.33,0,0,0-.58,0,12.84,12.84,0,0,1-2.15-.21c-.11-.25-.25-.31-.46-.09-.29-.06-.61.09-.86-.17v-1.8q0-4.1,0-8.2Z"/><path class="cls-6" d="M34.11,75.05c.09-4.67.22-9.34.15-14V44.25c0-.4.13-.85-.29-1.16.66-.21,1.32-.4,2-.62.27-.09.35,0,.36.26V51c0,7.4,0,14.81,0,22.21,0,.66-.12,1.08-.81,1.26A11.75,11.75,0,0,0,34.11,75.05Z"/><path class="cls-7" d="M39.37,104.4c1.18.56,2.27,1.3,3.51,1.75l2.55.93,0,4.45-.06,5.39a16.48,16.48,0,0,1-5-2.08c-.42-.26-.94-.39-1.23-.84.28-.06.29-.24.27-.49C39.22,110.47,39.32,107.44,39.37,104.4Z"/><path class="cls-6" d="M106.46,23.43V17.08a1.69,1.69,0,0,0-.15-.91,30.34,30.34,0,0,0,4.53-1.57A13.48,13.48,0,0,0,114,12.67c.13-.11.24-.28.43-.22s.18.32.17.5c-.15,2-.07,3.94-.14,5.91,0,.91-.84,1.38-1.5,1.83A20.69,20.69,0,0,1,106.46,23.43Z"/><path class="cls-13" d="M87.11,34.42c0,.29,0,.57,0,.86-.34.16-.52-.38-.92-.16a19.34,19.34,0,0,0-2.71,2,1.92,1.92,0,0,1-1.55.59c0-.32,0-.63,0-.94,0-4,0-8,0-12l1.86.22c.05.17.15.27.35.19l1.24.1c.09.25.26.29.49.2l.27,0c.07.16.18.16.32.09l.69.09,0,.88c0,.14,0,.28,0,.42a5.34,5.34,0,0,0,0,2.75c0,1.4,0,2.8,0,4.2Z"/><path class="cls-7" d="M81.84,50.33l0,6.51q0,8,0,16c0,.34,0,.67-.06,1-.49-.14-1-.26-1.46-.41a1.26,1.26,0,0,1-1-1.45c.05-6,0-12,0-18.08,0-.55.06-1.1.09-1.65.32,0,.36-.26.36-.52s0-.82,0-1.23a.8.8,0,0,1,.61-.79.76.76,0,0,1,.94.3C81.52,50.16,81.62,50.32,81.84,50.33Z"/><path class="cls-11" d="M3,40.48c0,2.34-.1,4.68,0,7,.09,1.76.08,3.51.09,5.26S3,56.5,3,58.37c0,.74.08,1.49.13,2.23C2.93,64.39,3.05,68.18,3,72a3,3,0,0,1-1.78-2.76c.07-9.73,0-19.45.05-29.18,0-.25-.13-.59.17-.71s.41.19.6.33S2.69,40.2,3,40.48Z"/><path class="cls-6" d="M70.17,40.52c-.15-2.08.22-4.16.13-6.24a1.14,1.14,0,0,0-.3-.91,22.67,22.67,0,0,0,6.79-2.8c.28-.18.56-.37.83-.58s.49-.18.49.25c0,1,0,1.93,0,2.89a8.05,8.05,0,0,0,0,1.3c.32,1.71-.61,2.73-1.88,3.61a19,19,0,0,1-4,1.86C71.56,40.16,70.86,40.32,70.17,40.52Z"/><path class="cls-6" d="M34,17.76c1.09-.35,2.18-.68,3.26-1.06a15.48,15.48,0,0,0,4.33-2.41c.12-.09.22-.3.41-.2s.11.31.11.47c0,1.83,0,3.66,0,5.49a.85.85,0,0,1-.55.82c-1.31.73-2.81,1.22-3.77,2.43s-2.72,1.24-4.1,1.81c.08-.28.46-.3.48-.71.14-2,.11-3.92.13-5.88A.89.89,0,0,0,34,17.76Z"/><path class="cls-11" d="M87.13,92.53a32.91,32.91,0,0,0,0,3.58,26,26,0,0,1,0,4.67c-.07.57-.05,1.15-.07,1.72h-.39c-.15-.3-.36-.29-.6-.12l-.4-.07c-.09-.14-.18-.24-.32-.06l-.42,0c-.1-.28-.3-.26-.52-.16L83,101.77c-.06-.19-.18-.24-.37-.16s-.63,0-.85-.32c0-3,0-6,0-8.92A2.1,2.1,0,0,1,82,91.32a6.7,6.7,0,0,0,1.25.3c.06.18.17.25.35.19a18.86,18.86,0,0,0,2.7.49A1.52,1.52,0,0,1,87.13,92.53Z"/><path class="cls-11" d="M45.34,116.92l.06-5.39,0-4.45.69.12c0,.21.14.29.35.21l2.37.42a.26.26,0,0,0,.36.18,2.79,2.79,0,0,0,1.28.17c0,3.33.09,6.65.13,10l-.87-.07c-.07-.17-.19-.2-.35-.12A18.85,18.85,0,0,1,45.34,116.92Z"/><path class="cls-13" d="M50.49,44v3.75a6.26,6.26,0,0,0,0,3v1.16a8,8,0,0,0-4.05,1.67c-.21.17-.43.4-.7.3s-.16-.47-.16-.72c0-3.75,0-7.51,0-11.27l1.13.08c.07.16.16.27.36.2l.8.09c.07.15.14.31.33.12l.54,0c.07.15.13.31.33.12a4.76,4.76,0,0,1,1.3.26C50.39,43.19,50.16,43.62,50.49,44Z"/><path class="cls-12" d="M21.82,2.55a13.43,13.43,0,0,1,5.57.89c.64.26,1.42.56,1.43,1.34s-.77,1.1-1.43,1.34a16.59,16.59,0,0,1-11.31,0c-.63-.22-1.41-.49-1.42-1.26s.77-1.11,1.42-1.35A14,14,0,0,1,21.82,2.55Z"/><path class="cls-2" d="M14.63,48.15v-2.3a3.42,3.42,0,0,0,1.11-1.46.29.29,0,0,0,.29-.13l.56,0c.15.32.36.31.6.1l.71,0c.45.49,1,.29,1.46.13l1.72,0a1.23,1.23,0,0,0,1.62,0l1.87,0c.28.29.72,0,1,.29,0,.33.23.31.47.21s.47,0,.6.25-.1.4-.25.52c-.33.28-.69.52-1,.77-1,.7-1.63,1.73-2.66,2.35-.12.07-.25.23-.35.21-1-.13-1.67.64-2.53.89a5.49,5.49,0,0,1-2,0c-.82-.06-1.17-.88-2-.9a.81.81,0,0,1-.77-.73C15,48.22,14.84,48.14,14.63,48.15Z"/><path class="cls-12" d="M94.22,5.5a15.5,15.5,0,0,1-5.9-1.15l-.2-.08c-1.24-.68-1.28-1.46-.06-2.15A10.84,10.84,0,0,1,92.71,1a18.58,18.58,0,0,1,5.52.37,5.75,5.75,0,0,1,2.5,1c.7.57.7,1.12,0,1.64a8.16,8.16,0,0,1-3.32,1.14A14.55,14.55,0,0,1,94.22,5.5Z"/><path class="cls-7" d="M29.65,103.6c.49-.83.44-1.88,1.08-2.66a1.28,1.28,0,0,0-.48-2.12c-.6-.33-.54-1.06-.89-1.56-.48-.69-.6-1.6-1.68-1.87A1.65,1.65,0,0,1,26.74,94c2.1-.27,4.16-.73,6.23-1.17.45-.1.82-.41,1.29-.39,0,3.37,0,6.75,0,10.12A23,23,0,0,1,29.65,103.6Z"/><path class="cls-12" d="M57.72,22.74a15.18,15.18,0,0,1-5.3-.94c-.64-.23-1.44-.5-1.45-1.31s.73-1.07,1.37-1.3a16.13,16.13,0,0,1,7.73-.84,12.14,12.14,0,0,1,3.61.92,4.2,4.2,0,0,1,.52.26c.94.63.92,1.42-.1,1.93A14.58,14.58,0,0,1,57.72,22.74Z"/><path class="cls-3" d="M34,17.76a.89.89,0,0,1,.3.76c0,2,0,3.92-.13,5.88,0,.41-.4.43-.48.71l-.8.1c-.19-.07-.3,0-.35.2a59.11,59.11,0,0,1-6.5.92l-.14-.17s0-.05,0-.07c-.61-.75,0-1.12.44-1.62,1-1.15,1.86-2.36,2.76-3.56a1,1,0,0,0,.17-1.14c-.2-.33.41-.52.1-.83l.14-.25.3,0c.2.2.35.17.43-.11Z"/><path class="cls-2" d="M3,15.16a29.45,29.45,0,0,0,5,2.21c.56.18,1.19.08,1.68.48-.41.13-.34.47-.34.77,0,1.84,0,3.68,0,5.52,0,.25.1.53-.15.73a16.92,16.92,0,0,1-5-1.76A12.91,12.91,0,0,1,3,22.32a2.34,2.34,0,0,0,.14-1C3.13,19.28,3.18,17.22,3,15.16Z"/><path class="cls-2" d="M81.06,16l.66.06.14.25v7.09a24.89,24.89,0,0,1-5.71-2.26,4.6,4.6,0,0,1-.53-.37q0-3.54,0-7.08a26.24,26.24,0,0,0,4.22,1.91c.27.09.55.15.83.23C80.76,16,80.9,16,81.06,16Z"/><path class="cls-15" d="M45.31,70.29c0-.72,0-1.45-.05-2.17s0-1.44,0-2.16c.19-.2.12-.45.12-.68,0-.93,0-1.87,0-2.8a1.91,1.91,0,0,0-.12-1.88c0-.67-.21-1.36.19-2l4.15.9c.23.05.47.07.7.11,0,.75,0,1.5,0,2.24,0,.47.27,1-.48,1.33-.19.07-.13.52,0,.78.26.08.19-.3.38-.24s.12.28.13.44c0,.31,0,.63,0,.94s.11.48-.11.59-.28-.19-.41-.3-.29-.06-.36.17c-.13.46-.36.9-.48,1.34a1.88,1.88,0,0,1-1,1.35,2,2,0,0,0-1.18,1.33C46.55,70.44,46,70.48,45.31,70.29Zm4.55-5.58c0-.11-.09-.18-.18-.14a.32.32,0,0,0-.16.2c0,.13.09.15.19.14S49.85,64.81,49.86,64.71Z"/><path class="cls-3" d="M60.88,35c.33.74-.15,1.07-.69,1.41-1.06.66-2.27,1-3.31,1.68a9.09,9.09,0,0,0-2.7,2.08c-.44.59-1.18.6-1.78.88-.28.14-.53.23-.49.6l-.85,0c-.06-.35-.34,0-.48-.15a54.15,54.15,0,0,0-.1-6.24c0-.22-.09-.48.13-.67.11,0,.23,0,.29-.16l2.3.18c.09.3.24.35.45.1l1.3.12a.58.58,0,0,0,.87,0h3.39A1.21,1.21,0,0,1,60,35Z"/><path class="cls-15" d="M14.63,93.69q0,4.11,0,8.2v1.8a4.6,4.6,0,0,1-1.43-.17,1.36,1.36,0,0,0-1.24-.3l-.37-.06a.23.23,0,0,0-.35-.09l-.78-.15c-.07-.15-.15-.27-.32-.1l-.72-.27,0-.14a1.24,1.24,0,0,0,0-1.59V97.2c.53-.21.27-.67.25-1,0-.55.18-.79.69-.85.73-.1,1.45-.24,2.18-.33,1-.12,1.49-.56,1.5-1.42Z"/><path class="cls-3" d="M9.41,102.41l0,.14A20.17,20.17,0,0,1,3.44,100c-.12-.07-.25-.13-.29-.29,0-1.11,0-2.22,0-3.34.45.3.66-.22,1-.29s1.08-.09,1.33-.47c.59-.9,1.77-.88,2.45-1.75.41-.53.81-.84.59-1.53l.87.28c0,1.55,0,3.09,0,4.63,0,1.21,0,2.41,0,3.62Z"/><path class="cls-5" d="M84.3,75.66c-.68.19-1.25-.21-1.85-.37s-.75,0-.74.61c0,2.12-.09,4.25,0,6.36.16,2.62,0,5.25.12,7.87a10.56,10.56,0,0,1-2.26-.7c-.31-.1-.29-.35-.29-.59V74.61c0-.41.06-.57.54-.34a16.66,16.66,0,0,0,3.08,1C83.41,75.35,83.85,75.5,84.3,75.66Z"/><path class="cls-8" d="M81.85,24.83c0,4,0,8,0,12,0,.31,0,.62,0,.94l0,2.9c-.61-.26-1.26-.45-1.89-.66s-.56-.47-.56-.9c0-4.31,0-8.63,0-12.94A4.85,4.85,0,0,0,79,24.29a.29.29,0,0,1,.3-.3Z"/><path class="cls-15" d="M81.86,23.42V16.33c.26-.06.51.2.79,0l.66.09c.15.18.3.39.58.18l.41,0c.14.29.35.28.59.13l.27,0c.1.23.25.29.46.12l.26,0c.28.33.62.21,1,.11l.37.11a24.24,24.24,0,0,0,0,5.11c.06.69,0,1.39,0,2.09a12.46,12.46,0,0,1-3-.43C83.43,23.86,82.65,23.61,81.86,23.42Z"/><path class="cls-15" d="M50.61,34.56c-.22.19-.16.45-.13.67a54.15,54.15,0,0,1,.1,6.24.16.16,0,0,0,0,.09L49,41.32c-.06-.19-.13-.31-.31-.09L47.45,41c-.08-.19-.2-.24-.38-.13a7.37,7.37,0,0,1-1.67-.39l0-6.66,0-.45c1.17.23,2.34.46,3.5.67.52.1,1,.16,1.56.24Z"/><path class="cls-13" d="M9.38,50.91a14.1,14.1,0,0,1-.13,2.9.39.39,0,0,1-.16-.38c0-.42-.07-.46-.55-.38a5.77,5.77,0,0,1-2.08.09c-.52-.1-1-.13-1.26-.65a2,2,0,0,1-.31-1,23.16,23.16,0,0,0-.06-2.89.58.58,0,0,1,0-.48c.65-1,1.25-2.14,2-3.16A4.53,4.53,0,0,1,8.6,43.74c.38-.19.42-.36.33-.69l.29,0q0,3.56,0,7.09C9.24,50.41,9.15,50.69,9.38,50.91Z"/><path class="cls-13" d="M20.36,8.26a34.4,34.4,0,0,0,5-.3,9.69,9.69,0,0,0,3-1c.63-.35.72-.3.73.44s0,1.64,0,2.45a1.2,1.2,0,0,1-.83,1.27,11.17,11.17,0,0,1-4,1,27.06,27.06,0,0,1-3.82,0Z"/><path class="cls-13" d="M92.12,6.56c.69,0,1.38.08,2.08.08a14,14,0,0,0,6.31-1.17c.92-.44.91-.46.91.59a16.83,16.83,0,0,0,0,2,1.37,1.37,0,0,1-1.08,1.56,17.47,17.47,0,0,1-7.66.88c0-.88,0-1.77,0-2.65C92.74,7.31,92.77,6.79,92.12,6.56Z"/><path class="cls-10" d="M33.53,91.55c.79-.49.71-1.3.72-2,0-4.14,0-8.28,0-12.42,0-.49-.15-.74-.6-.86.76-.28,1.52-.56,2.29-.82.4-.14.43.13.43.43,0,.74,0,1.49,0,2.23,0,3.89,0,7.79,0,11.68,0,.56-.13.9-.71,1.06A15.8,15.8,0,0,1,33.53,91.55Z"/><path class="cls-8" d="M87.11,34.42c0-.14,0-.29,0-.43.34-.08.26-.35.26-.58,0-.79,0-1.58,0-2.38,0-.41.16-.86-.14-1.24A11.49,11.49,0,0,0,87.08,27c0-.14,0-.28,0-.42.46-.07.87-.2,1-.73.2-.25.47-.11.72-.14.17.5.58.19.88.26h.43a.48.48,0,0,0,.72,0l.87.14c0,.24.21.5,0,.73a.27.27,0,0,0-.06.27c.84,1.41,0,2.75-.23,4.1A6,6,0,0,1,90,33.74a.89.89,0,0,1-.54.33,1.3,1.3,0,0,0-1,.51c-.13.18-.34.12-.52,0A1.21,1.21,0,0,0,87.11,34.42Z"/><path class="cls-13" d="M60.46,23.8l1.44-.23c.18.21.24.07.29-.1l.66-.08c.31,0,.64,0,.79-.37,1.45-.64,1.45-.64,1.45,1v1.23c0,1.07-.3,1.46-1.34,1.79a20.21,20.21,0,0,1-6.6.85c-.44,0-.91.14-1.33-.12.72-.08.73-.57.74-1.15a6.64,6.64,0,0,1,.14-2.47h1.78c.23,0,.54.12.67-.23l.87-.05C60.2,24.06,60.34,24,60.46,23.8Z"/><path class="cls-13" d="M45.47,58.61c-.4.63-.14,1.32-.19,2s0,1.06,0,1.59c-.12,0-.3,0-.34.07-.84,1.41-2.26.9-3.46,1a1.24,1.24,0,0,1-1.3-.72c-.06-.13-.1-.37-.33-.29a.42.42,0,0,0-.27.46c0,.22.11.44-.23.48,0-.51,0-1,0-1.51a7.51,7.51,0,0,0-.12-2.27,14.15,14.15,0,0,0,.11-2.16c0-.38,0-.76,0-1.15l.18-.06c.17.24.53.11.68.37s.16.27.35.18l2.12,1c0,.2.12.3.33.24C43.8,58.11,44.68,58.22,45.47,58.61Z"/><path class="cls-11" d="M39.2,59.43a7.51,7.51,0,0,1,.12,2.27c0,.5,0,1,0,1.51v9.11c-.3.27-.09.59-.09.88q0,6.43-.05,12.86l0,.75a2.59,2.59,0,0,1-1.67-2.32c.07-4.83,0-9.66,0-14.49,0-.29,0-.57.07-.86.46,0,.49-.38.51-.73a3.07,3.07,0,0,1,.53-1.82,1.46,1.46,0,0,0,.34-1c0-1.8,0-3.59,0-5.39C39,59.92,39,59.64,39.2,59.43Z"/><path class="cls-9" d="M34.26,41.94V26.32l1.52-.4c.34-.09.51,0,.51.38s0,.82,0,1.23c0,4.28,0,8.57,0,12.85,0,.52-.07.83-.65,1A8.1,8.1,0,0,0,34.26,41.94Z"/><path class="cls-7" d="M45.53,41.9c0,3.76,0,7.52,0,11.27,0,.25-.15.59.16.72s.49-.13.7-.3a8,8,0,0,1,4.05-1.67v6.64a2.2,2.2,0,0,1-1.13-.16c-.07-.28-.26-.28-.49-.2l-.66,0c0-.17-.15-.27-.34-.22a8.88,8.88,0,0,1-2.45-.6c-.17-4.89-.12-9.77-.13-14.66a1.28,1.28,0,0,1,.15-.9Z"/><path class="cls-8" d="M106.46,34.27v6.38a8.38,8.38,0,0,1-2.28.57,19.93,19.93,0,0,1-4.67.72s0-.11,0-.14c1.07-.89,1.21-2.39,2.21-3.35.59-.56.73-1.46,1.22-2.14.18-.26.28-.44.61-.45a1.51,1.51,0,0,0,1.59-1.09.64.64,0,0,1,0-.07,3.62,3.62,0,0,1,.61-1C106.32,33.33,106,34.39,106.46,34.27Z"/><path class="cls-7" d="M3.05,23.84C3,26.93,3,30,3,33.11V39a2.63,2.63,0,0,1-1.76-2.51c.06-4.42,0-8.85,0-13.27,0-.21-.11-.49.09-.61s.47.14.6.29C2.28,23.3,2.83,23.37,3.05,23.84Z"/><path class="cls-7" d="M39.36,39.46c0,2.31,0,4.62,0,6.93v7.29c0,.32.11.73-.44.72a2.93,2.93,0,0,1-1.32-2.59c.07-4.3,0-8.6,0-12.9,0-.23-.13-.54.11-.67s.48.17.63.35C38.64,38.94,39.17,39,39.36,39.46Z"/><path class="cls-14" d="M3,73.45Q3,79.24,3,85c0,1.11,0,2.21,0,3.32A2.59,2.59,0,0,1,1.26,86q0-6.54,0-13.07a3.43,3.43,0,0,1,.08-.88C1.91,72.57,2.63,72.82,3,73.45Z"/><path class="cls-7" d="M81.85,40.64l0-2.9a1.92,1.92,0,0,0,1.55-.59,19.34,19.34,0,0,1,2.71-2c.4-.22.58.32.92.16,0,2.18,0,4.35,0,6.52l-.87,0c-.1-.35-.38-.23-.62-.22l-2.26-.34c0-.18-.14-.28-.34-.2A3.22,3.22,0,0,1,81.85,40.64Z"/><path class="cls-14" d="M39.33,88.33q0,6.81,0,13.62c0,.28.16.66-.31.77A2.78,2.78,0,0,1,37.54,100c.1-4.09,0-8.17.05-12.25,0-.23-.13-.54.12-.66s.35.19.5.32A5.35,5.35,0,0,1,39.33,88.33Z"/><path class="cls-7" d="M82,91.32a2.1,2.1,0,0,0-.17,1.05c0,3,0,5.95,0,8.92a7.87,7.87,0,0,1-2.12-.64.46.46,0,0,1-.32-.51c0-3,0-6.11,0-9.17,0-.43.17-.47.54-.33C80.62,90.89,81.33,91.09,82,91.32Z"/><path class="cls-7" d="M45.39,33.38c0,.15,0,.3,0,.45s-.28.1-.36.2a13.62,13.62,0,0,1-3.84,3,1.55,1.55,0,0,0-1,1.3c-.28-.1-.59-.15-.71-.48a2.93,2.93,0,0,1-.15-1.06c0-2,0-4,0-6A34.1,34.1,0,0,0,45.39,33.38Z"/><path class="cls-7" d="M8.51,92.29c.22.69-.18,1-.59,1.53-.68.87-1.86.85-2.45,1.75-.25.38-.86.37-1.33.47s-.55.59-1,.29a59.08,59.08,0,0,0-.12-6c0-.16,0-.34.18-.42a6.93,6.93,0,0,1,1.89.93C6.2,91.46,7.37,91.81,8.51,92.29Z"/><path class="cls-3" d="M81.84,50.33c-.22,0-.32-.17-.44-.33a.76.76,0,0,0-.94-.3.8.8,0,0,0-.61.79c0,.41,0,.82,0,1.23s0,.48-.36.52a2.1,2.1,0,0,1-.09-.42c0-3.49,0-7,0-10.46a.29.29,0,0,0,.3-.17,12.33,12.33,0,0,0,1.87.51c0,.18.18.22.27.33Z"/><path class="cls-6" d="M34.27,102.56c0-3.37,0-6.75,0-10.12.53-.2,1.08-.38,1.61-.61.35-.15.43,0,.42.3v1.3c0,2.52,0,5,0,7.56a1.12,1.12,0,0,1-.87,1.24C35.06,102.36,34.66,102.45,34.27,102.56Z"/><path class="cls-15" d="M14.58,20.67v2c-.22.18-.14.44-.15.66,0,.84,0,1.67,0,2.5a.29.29,0,0,0,0,.13l-2.28-.32c-.07-.19-.2-.24-.37-.12l-.38,0c-.06-.18-.19-.2-.35-.12A3.75,3.75,0,0,1,9.66,25c0-.82,0-1.64,0-2.46,0-.31,0-.48.46-.55,1.43-.17,2.94-.22,4.1-1.3C14.3,20.66,14.46,20.69,14.58,20.67Z"/><path class="cls-3" d="M40.18,38.36a1.55,1.55,0,0,1,1-1.3A13.62,13.62,0,0,0,45,34c.08-.1.24-.13.36-.2l0,6.66a27.69,27.69,0,0,1-4.51-1.66A1.44,1.44,0,0,1,40.18,38.36Z"/><path class="cls-15" d="M39.2,59.43c-.25.21-.16.49-.16.74,0,1.8,0,3.59,0,5.39a1.46,1.46,0,0,1-.34,1,3.07,3.07,0,0,0-.53,1.82c0,.35-.05.69-.51.73a5.51,5.51,0,0,1-.06-.57V55.43a4.26,4.26,0,0,1,.06-.5L38,55l1.07.85.12.29c0,.4-.46.84.12,1.17A14.15,14.15,0,0,1,39.2,59.43Z"/><path class="cls-11" d="M3.2,90C3,90,3,90.22,3,90.38a59.08,59.08,0,0,1,.12,6c0,1.12,0,2.23,0,3.34A3.14,3.14,0,0,1,1.29,96.9c0-2.64,0-5.28,0-7.93,0-.13-.06-.31.08-.39s.32.06.42.16A13.71,13.71,0,0,1,3.2,90Z"/><path class="cls-11" d="M14.58,20.67c-.12,0-.28,0-.35.06-1.16,1.08-2.67,1.13-4.1,1.3-.5.07-.46.24-.46.55,0,.82,0,1.64,0,2.46a.44.44,0,0,1-.44-.17c.25-.2.15-.48.15-.73,0-1.84,0-3.68,0-5.52,0-.3-.07-.64.34-.77l1.53.26c.09.29.29.26.51.18l1.07.13c.07.18.16.28.32.07l.55.07c.07.19.16.29.32.08a1,1,0,0,1,.6.12Z"/><path class="cls-12" d="M17.7,11.81A7.1,7.1,0,0,1,15,10.92a1,1,0,0,1-.55-1c0-.88,0-1.77,0-2.66,0-.47,0-.82.62-.38A18.39,18.39,0,0,0,17.92,8c.16.08.45-.09.69,0,.06.19.18.25.36.14v0c0,.26,0,.53,0,.79a12.45,12.45,0,0,1-.14,2.86l-.14.15-.56-.06C18,11.74,17.88,11.69,17.7,11.81Z"/><path class="cls-12" d="M54.6,27.56a8.4,8.4,0,0,1-2.89-.66,1.38,1.38,0,0,1-1-1.53c.08-.86,0-1.72.06-2.59,0-.4.07-.57.54-.3a6.71,6.71,0,0,0,2,.84.55.55,0,0,0,.75.25l.41,0c.1.46.6.1.78.39-.23.14-.17.38-.17.59A15.31,15.31,0,0,1,55,27.46Z"/><path class="cls-11" d="M39.37,104.4c0,3-.15,6.07.06,9.11,0,.25,0,.43-.27.49a3.23,3.23,0,0,1-1.59-2.93c0-2.42,0-4.85,0-7.27a1.22,1.22,0,0,1,.13-.83C38.22,103.53,39,103.77,39.37,104.4Z"/><path class="cls-12" d="M88.72,5.84l2.51.58,0,.21c-.06,1.23-.11,2.45-.17,3.68a.77.77,0,0,1-.54,0c-.09-.13-.18-.24-.32,0a11.41,11.41,0,0,1-2.48-.74,1.28,1.28,0,0,1-.61-.47c0-1,0-2,0-3.05,0-.25-.09-.54.21-.7l.83.3C88.34,5.82,88.48,5.94,88.72,5.84Z"/><path class="cls-11" d="M75.66,13.71q0,3.54,0,7.08a3.13,3.13,0,0,1-2-2.91V12.14Z"/><path class="cls-11" d="M3,15.16c.16,2.06.11,4.12.12,6.18a2.34,2.34,0,0,1-.14,1,3,3,0,0,1-1.76-2.87c.1-1.69,0-3.38,0-5.06,0-.16-.08-.38.12-.46s.28.14.41.23Z"/><path class="cls-11" d="M39.31,30.84c0,2,0,4,0,6a2.93,2.93,0,0,0,.15,1.06,2.74,2.74,0,0,1-1.89-2.66c0-1.68,0-3.37,0-5.06,0-.18-.1-.42.14-.51s.29.14.41.24C38.54,30.2,38.92,30.52,39.31,30.84Z"/><path class="cls-11" d="M9.39,97.2c0-1.54,0-3.08,0-4.63l.56,0c.05.2.17.27.37.18l1.22.25c0,.19.11.32.3.12l.42.07c.07.18.16.27.31,0l.27.06c.05.19.12.31.31.1a1.48,1.48,0,0,1,.87.17c0,.86-.49,1.3-1.5,1.42-.73.09-1.45.23-2.18.33-.51.06-.71.3-.69.85C9.66,96.53,9.92,97,9.39,97.2Z"/><path class="cls-11" d="M91.11,10.31c.06-1.23.11-2.45.17-3.68a.26.26,0,0,0,.28-.16l.56.08c.65.24.62.76.6,1.31,0,.88,0,1.77,0,2.65h-.26c-.16-.34-.37-.31-.6-.08A1.41,1.41,0,0,1,91.11,10.31Z"/><path class="cls-11" d="M18.78,11.84A12.45,12.45,0,0,0,18.92,9c0-.26,0-.53,0-.79h.25c.13.22.28.25.44,0l.71,0c0,1.29,0,2.58,0,3.87a4.23,4.23,0,0,1-1.28-.07C19.05,11.9,18.92,11.86,18.78,11.84Z"/><path class="cls-11" d="M55,27.46a15.31,15.31,0,0,0,.15-2.87c0-.21-.06-.45.17-.59s.58.1.84-.13l.54.08c0,.06,0,.13.05.19a6.64,6.64,0,0,0-.14,2.47c0,.58,0,1.07-.74,1.15l-.42,0C55.36,27.45,55.13,27.49,55,27.46Z"/><path class="cls-7" d="M19.79,19.23c-1.41.11-2.51,1.14-3.89,1.37-.85.15-1,0-1-.85a2.08,2.08,0,0,0-.15-1l4.74.35A1,1,0,0,1,19.79,19.23Z"/><path class="cls-2" d="M31.79,43.82c.29.17.69.41.64.69s-.53.29-.84.36c-1.14.28-1.47.17-1.81-.63l.3-.36.56,0c0,.14.08.27.27.23s.15-.15.16-.27l.4,0Z"/><path class="cls-11" d="M9.38,50.91c-.23-.22-.14-.5-.14-.75q0-3.54,0-7.09h.32l0,.16v6.93C9.52,50.41,9.61,50.69,9.38,50.91Z"/><path class="cls-7" d="M93,43.4a.47.47,0,0,1-.46.13,6.63,6.63,0,0,0-3.07.62c-.26.08-.55.21-.7-.08s.16-.45.4-.54.22-.22.22-.39A22.9,22.9,0,0,1,93,43.4Z"/><path class="cls-2" d="M34,43.09c.42.31.27.76.29,1.16-.62,0-1.23,0-1.33-.79C33.19,43.1,33.6,43.15,34,43.09Z"/><path class="cls-7" d="M81.84,42c-.09-.11-.28-.15-.27-.33.53-.14,1,.16,1.45.29a23.82,23.82,0,0,1,2.89.69,5.36,5.36,0,0,1-2.41-.34A6.32,6.32,0,0,0,81.84,42Z"/><path class="cls-11" d="M87.41,5.3c-.3.16-.21.45-.21.7,0,1,0,2,0,3.05a.46.46,0,0,1-.26-.41c0-1.11,0-2.21,0-3.32,0-.14,0-.32.18-.34S87.38,5.12,87.41,5.3Z"/><path class="cls-7" d="M13.92,44a4.5,4.5,0,0,1-2.38-.3c-.36-.08-.87.13-1-.44A18.85,18.85,0,0,1,13.92,44Z"/><path class="cls-10" d="M47.15,106.45c.53-.16,1,.15,1.49.23.66.12,1.32.22,2,.36l.17.18A9.41,9.41,0,0,1,47.15,106.45Z"/><path class="cls-10" d="M26.18,77.61a5.21,5.21,0,0,1-3.19.25A12.66,12.66,0,0,1,26.18,77.61Z"/><path class="cls-7" d="M18.2,94.14c0,.94-.79.48-1.19.54s-.31-.4-.25-.69A3.51,3.51,0,0,1,18.2,94.14Z"/><path class="cls-11" d="M14.43,25.86c0-.83,0-1.66,0-2.5,0-.22-.07-.48.15-.66a7.85,7.85,0,0,1,.13,2.37c0,.31,0,.62,0,.92l-.07,0h-.06Z"/><path class="cls-6" d="M20.08,76.81a6.51,6.51,0,0,1,3,0A7.59,7.59,0,0,1,20.08,76.81Z"/><path class="cls-10" d="M98.81,76.43c-.51.46-1.17.2-1.75.33a1.63,1.63,0,0,1-1.31-.09A12.09,12.09,0,0,1,98.81,76.43Z"/><path class="cls-5" d="M87.21,76.38a11,11,0,0,0-2-.31c-.27,0-.55,0-.6-.37l2.57.43,0,.22Z"/><path class="cls-7" d="M56.7,24.14c0-.06,0-.13-.05-.19a13.06,13.06,0,0,1,2.5,0c-.13.35-.44.22-.67.23Z"/><path class="cls-10" d="M59.15,92.81a3.42,3.42,0,0,1-2.48,0A7.93,7.93,0,0,1,59.15,92.81Z"/><path class="cls-6" d="M88.08,25.89c-.11.53-.52.66-1,.73l0-.88A3.13,3.13,0,0,0,88.08,25.89Z"/><path class="cls-6" d="M28.62,44.21a3,3,0,0,1-2.17.2A4.69,4.69,0,0,1,28.62,44.21Z"/><path class="cls-10" d="M20.65,77.86a2.61,2.61,0,0,1-2-.14A4.12,4.12,0,0,1,20.65,77.86Z"/><path class="cls-10" d="M62.64,92.53a2.24,2.24,0,0,1-2,.21A5.62,5.62,0,0,1,62.64,92.53Z"/><path class="cls-7" d="M97.49,43.28c-.55.48-1.14.26-1.73.12A3.62,3.62,0,0,1,97.49,43.28Z"/><path class="cls-10" d="M28.78,77.31a1.8,1.8,0,0,1-1.75.24A4.94,4.94,0,0,1,28.78,77.31Z"/><path class="cls-7" d="M14.63,45.4c-.09-.44.07-.92-.19-1.34.25-.15.47.11.72.06a.66.66,0,0,0,0,.14c-.36.05-.25.34-.28.56S15,45.32,14.63,45.4Z"/><path class="cls-10" d="M65.38,92.18a1.78,1.78,0,0,1-1.75.25A4.19,4.19,0,0,1,65.38,92.18Z"/><path class="cls-10" d="M33.41,76.3a2.57,2.57,0,0,1-1.89.53A6.67,6.67,0,0,1,33.41,76.3Z"/><path class="cls-6" d="M22.7,44.58a1.23,1.23,0,0,1-1.62,0A7.31,7.31,0,0,1,22.7,44.58Z"/><path class="cls-10" d="M50.6,92.44a.28.28,0,0,1-.16-.26,4.74,4.74,0,0,1,1.62.26C51.57,92.78,51.08,92.41,50.6,92.44Z"/><path class="cls-7" d="M56.11,23.87c-.26.23-.57.06-.84.13-.18-.29-.68.07-.78-.39A3.91,3.91,0,0,1,56.11,23.87Z"/><path class="cls-6" d="M60.88,35,60,35c.43-.5,1-.18,1.49-.24C61.42,35.1,61.1,35,60.88,35Z"/><path class="cls-6" d="M19.36,44.55c-.5.16-1,.36-1.46-.13C18.39,44.44,18.89,44.27,19.36,44.55Z"/><path class="cls-6" d="M25.58,44.83c-.29-.26-.73,0-1-.29.37-.26.77-.11,1.17-.11,0,.13,0,.26,0,.4h-.14Z"/><path class="cls-7" d="M17.77,26.3c.45-.14.91-.33,1.3.13A2.08,2.08,0,0,1,17.77,26.3Z"/><path class="cls-7" d="M24.29,19.2a1.22,1.22,0,0,1-1.31,0A1.75,1.75,0,0,1,24.29,19.2Z"/><path class="cls-10" d="M62.46,107.56a1.07,1.07,0,0,1,1.32-.23A2.1,2.1,0,0,1,62.46,107.56Z"/><path class="cls-7" d="M87.06,43c-.29-.11-.68.14-.88-.26A1.59,1.59,0,0,1,87.5,43l-.14.14Z"/><path class="cls-9" d="M79.26,24a.29.29,0,0,0-.3.3c-.23-.16-.48-.3-.52-.68C78.79,23.61,79.11,23.6,79.26,24Z"/><path class="cls-10" d="M18.34,77.7a1,1,0,0,1-1.17-.09A1.59,1.59,0,0,1,18.34,77.7Z"/><path class="cls-10" d="M16.46,77.56c-.4.12-.81.27-1.17-.11A1.54,1.54,0,0,1,16.46,77.56Z"/><path class="cls-7" d="M11.92,103.22a1.36,1.36,0,0,1,1.24.3A1.57,1.57,0,0,1,11.92,103.22Z"/><path class="cls-10" d="M31.24,76.87a.72.72,0,0,1-1,.26A1.29,1.29,0,0,1,31.24,76.87Z"/><path class="cls-10" d="M67,91.9a.94.94,0,0,1-1.18.24A2.1,2.1,0,0,1,67,91.9Z"/><path class="cls-7" d="M50.49,44c-.33-.35-.1-.78-.17-1.17h.16A1.29,1.29,0,0,1,50.49,44Z"/><path class="cls-6" d="M63.06,34.57c-.29.5-.66.31-1,.12C62.36,34.45,62.72,34.57,63.06,34.57Z"/><path class="cls-6" d="M56.11,91.72a.7.7,0,0,1,1,.07A1.36,1.36,0,0,1,56.11,91.72Z"/><path class="cls-9" d="M63.2,43c-.23.52-.68.19-1,.27C62.41,42.72,62.86,43,63.2,43Z"/><path class="cls-10" d="M55,92.73c-.37.19-.72.27-1-.11A1.21,1.21,0,0,1,55,92.73Z"/><path class="cls-6" d="M55.82,34.82a.58.58,0,0,1-.87,0A.87.87,0,0,1,55.82,34.82Z"/><path class="cls-10" d="M89,76.36c-.32.17-.63.34-.88-.1A1.13,1.13,0,0,1,89,76.36Z"/><path class="cls-10" d="M92.71,76.66a.63.63,0,0,1-.89,0A.91.91,0,0,1,92.71,76.66Z"/><path class="cls-6" d="M30.08,43.88l-.3.36-.63,0C29.38,43.86,29.75,43.91,30.08,43.88Z"/><path class="cls-7" d="M101.1,42.93c-.21.5-.53.36-.87.16C100.49,42.86,100.81,43,101.1,42.93Z"/><path class="cls-7" d="M82.65,16.37c-.28.16-.53-.1-.79,0l-.14-.25A.91.91,0,0,1,82.65,16.37Z"/><path class="cls-9" d="M89.68,26c-.3-.07-.71.24-.88-.26C89.1,25.82,89.5,25.52,89.68,26Z"/><path class="cls-6" d="M97.34,103c.2-.49.6-.2.92-.22C98,103.14,97.66,103,97.34,103Z"/><path class="cls-6" d="M15.15,44.26a.66.66,0,0,1,0-.14c.29,0,.61-.12.87.14a.29.29,0,0,1-.29.13C15.54,44.37,15.31,44.46,15.15,44.26Z"/><path class="cls-7" d="M16.18,26.17c.31-.18.61-.3.87.09A1,1,0,0,1,16.18,26.17Z"/><path class="cls-10" d="M103.58,75.7c-.24.27-.5.48-.88.26A.91.91,0,0,1,103.58,75.7Z"/><path class="cls-7" d="M86.84,17.1c-.34.1-.68.22-1-.11C86.21,16.93,86.55,16.84,86.84,17.1Z"/><path class="cls-10" d="M13.13,77.13c-.37.19-.64,0-.9-.24A.81.81,0,0,1,13.13,77.13Z"/><path class="cls-7" d="M29.48,18.69l-.14.25c-.24,0-.52.1-.72-.15A1.13,1.13,0,0,1,29.48,18.69Z"/><path class="cls-10" d="M45.92,106.14a.64.64,0,0,1,.81.23A.77.77,0,0,1,45.92,106.14Z"/><path class="cls-6" d="M25.87,26.16l.14.17a.59.59,0,0,1-.71.05C25.4,26.09,25.67,26.21,25.87,26.16Z"/><path class="cls-13" d="M55,27.46c.18,0,.41,0,.45.27-.29.05-.58.1-.8-.17Z"/><path class="cls-10" d="M53.5,92.58c-.27.19-.53.24-.74-.08A.75.75,0,0,1,53.5,92.58Z"/><path class="cls-9" d="M90.83,26a.48.48,0,0,1-.72,0A.48.48,0,0,1,90.83,26Z"/><path class="cls-7" d="M26.6,19c-.2.36-.46.28-.73.09C26.09,18.87,26.35,18.94,26.6,19Z"/><path class="cls-10" d="M68.71,91.48a.76.76,0,0,1-.82.3A.71.71,0,0,1,68.71,91.48Z"/><path class="cls-6" d="M25,104.23c.21-.34.47-.29.74-.1C25.5,104.37,25.24,104.28,25,104.23Z"/><path class="cls-7" d="M54.08,23.57a.55.55,0,0,1-.75-.25A.73.73,0,0,1,54.08,23.57Z"/><path class="cls-2" d="M25.72,44.83c0-.14,0-.27,0-.4l.42,0C26.18,44.78,26,44.86,25.72,44.83Z"/><path class="cls-7" d="M63.64,23c-.15.36-.48.34-.79.37C63,23.08,63.34,23.06,63.64,23Z"/><path class="cls-10" d="M104.74,75.41c-.18.29-.41.42-.74.23A1,1,0,0,1,104.74,75.41Z"/><path class="cls-6" d="M17.19,44.4c-.24.21-.45.22-.6-.1C16.8,44.26,17,44.2,17.19,44.4Z"/><path class="cls-6" d="M60.72,42c.16-.32.36-.31.6-.08C61.14,42.14,60.93,42.08,60.72,42Z"/><path class="cls-6" d="M56,60.15c-.24.22-.45.25-.6-.09C55.58,60,55.79,60,56,60.15Z"/><path class="cls-6" d="M98.22,92.76c-.15.34-.35.31-.59.09C97.8,92.66,98,92.72,98.22,92.76Z"/><path class="cls-6" d="M95.61,93A.34.34,0,0,1,95,93,.39.39,0,0,1,95.61,93Z"/><path class="cls-6" d="M60.75,60.06c-.15.35-.36.31-.59.09C60.33,60,60.54,60,60.75,60.06Z"/><path class="cls-6" d="M90.69,75.51c.23-.21.44-.25.59.09C91.07,75.65,90.86,75.7,90.69,75.51Z"/><path class="cls-2" d="M13,76.12c.24-.25.44-.29.59.09C13.38,76.23,13.16,76.31,13,76.12Z"/><path class="cls-6" d="M28.75,76.34c.11-.37.39-.24.63-.22C29.26,76.44,29,76.36,28.75,76.34Z"/><path class="cls-6" d="M60.72,118.71c.15-.34.36-.3.6-.1C61.15,118.81,60.93,118.75,60.72,118.71Z"/><path class="cls-7" d="M86.06,102.38c.24-.17.45-.18.6.12C86.44,102.54,86.23,102.61,86.06,102.38Z"/><path class="cls-6" d="M16.32,76.51c.25-.2.46-.23.59.12C16.7,76.66,16.48,76.72,16.32,76.51Z"/><path class="cls-6" d="M17.33,76.66c.24-.21.45-.23.6.1C17.72,76.8,17.5,76.86,17.33,76.66Z"/><path class="cls-6" d="M25.27,76.75c.16-.32.37-.3.6-.09C25.7,76.86,25.48,76.8,25.27,76.75Z"/><path class="cls-10" d="M14.61,77.52c-.11,0-.19-.11-.18-.23.22-.07.43-.09.58.14C14.9,77.57,14.74,77.51,14.61,77.52Z"/><path class="cls-10" d="M69.73,91.19c-.15.21-.3.45-.6.22A.54.54,0,0,1,69.73,91.19Z"/><path class="cls-13" d="M91.84,10.42c.23-.23.44-.26.6.08A.51.51,0,0,1,91.84,10.42Z"/><path class="cls-6" d="M27.73,104c.14-.34.35-.31.6-.12C28.16,104.06,28,104,27.73,104Z"/><path class="cls-6" d="M18.06,104.16a.33.33,0,0,1,.58,0A.42.42,0,0,1,18.06,104.16Z"/><path class="cls-7" d="M83.89,16.64c-.28.21-.43,0-.58-.18C83.57,16.28,83.72,16.49,83.89,16.64Z"/><path class="cls-7" d="M84.89,16.81c-.24.15-.45.16-.59-.13C84.52,16.63,84.74,16.58,84.89,16.81Z"/><path class="cls-6" d="M90.25,17.48c-.23.22-.44.25-.59-.1C89.87,17.35,90.08,17.29,90.25,17.48Z"/><path class="cls-6" d="M65.81,34.28c-.11.4-.33.34-.59.14C65.38,34.19,65.6,34.27,65.81,34.28Z"/><path class="cls-10" d="M65.36,107.16c.12-.39.4-.26.66-.21C65.86,107.23,65.61,107.2,65.36,107.16Z"/><path class="cls-6" d="M85.59,41.53c.24,0,.52-.13.62.22C86,41.8,85.7,41.89,85.59,41.53Z"/><path class="cls-10" d="M51.63,107.3c.21-.16.41-.18.58.06A.4.4,0,0,1,51.63,107.3Z"/><path class="cls-6" d="M62.19,41.85c.17-.27.37-.25.57,0A.42.42,0,0,1,62.19,41.85Z"/><path class="cls-6" d="M54.47,41.87c.23-.07.46-.16.62.12C54.85,42.13,54.63,42.14,54.47,41.87Z"/><path class="cls-10" d="M52.43,107.37c.24-.05.49-.14.66.14A.47.47,0,0,1,52.43,107.37Z"/><path class="cls-10" d="M57.76,107.7a.91.91,0,0,1,.74,0A.45.45,0,0,1,57.76,107.7Z"/><path class="cls-6" d="M53.79,108.62c-.24.21-.45.26-.58-.11C53.41,108.49,53.63,108.42,53.79,108.62Z"/><path class="cls-6" d="M62.49,108.54c-.16.32-.36.3-.6.08C62.07,108.43,62.28,108.48,62.49,108.54Z"/><path class="cls-7" d="M9.52,43.23l0-.16a.78.78,0,0,1,.7.18C10,43.57,9.76,43.19,9.52,43.23Z"/><path class="cls-13" d="M9.22,75l0-.51c.36.11.25.4.24.64Z"/><path class="cls-6" d="M100.8,24.53c.1-.26.25-.32.45-.09C101.13,24.6,101,24.58,100.8,24.53Z"/><path class="cls-6" d="M65.38,59.61c-.07.31-.28.27-.5.22C65,59.58,65.16,59.56,65.38,59.61Z"/><path class="cls-10" d="M101.27,76.14c-.1.26-.25.3-.45.1A.33.33,0,0,1,101.27,76.14Z"/><path class="cls-6" d="M27.75,76.41c.12-.22.27-.23.43,0A.26.26,0,0,1,27.75,76.41Z"/><path class="cls-13" d="M18.78,11.84c.14,0,.27.06.31.22-.16.06-.33.11-.45-.07Z"/><path class="cls-8" d="M48.84,58.2c.23-.08.42-.08.49.2C49.13,58.44,48.93,58.46,48.84,58.2Z"/><path class="cls-10" d="M100.11,76.29c-.11.25-.26.29-.45.08A.38.38,0,0,1,100.11,76.29Z"/><path class="cls-6" d="M98.5,75.39c.13-.22.28-.23.44,0A.27.27,0,0,1,98.5,75.39Z"/><path class="cls-6" d="M26.72,76.61c.09-.28.29-.25.5-.19C27.12,76.66,26.94,76.68,26.72,76.61Z"/><path class="cls-7" d="M84.4,102.06c.22-.1.42-.12.52.16A.39.39,0,0,1,84.4,102.06Z"/><path class="cls-6" d="M63.89,41.73c.13-.23.27-.31.47-.06A.38.38,0,0,1,63.89,41.73Z"/><path class="cls-6" d="M15.45,103.86c.21-.22.35-.16.46.09C15.74,104,15.58,104,15.45,103.86Z"/><path class="cls-13" d="M19.65,8.22c-.16.22-.31.19-.44,0A.27.27,0,0,1,19.65,8.22Z"/><path class="cls-6" d="M60.31,108.75c-.14.21-.29.21-.44,0A.27.27,0,0,1,60.31,108.75Z"/><path class="cls-8" d="M85.79,25.54c-.23.09-.4.05-.49-.2C85.51,25.29,85.71,25.27,85.79,25.54Z"/><path class="cls-6" d="M100.8,75.18c.07-.3.28-.27.5-.21C101.21,75.22,101,75.24,100.8,75.18Z"/><path class="cls-6" d="M62.89,91.52c.1-.28.24-.34.45-.1C63.22,91.58,63.06,91.56,62.89,91.52Z"/><path class="cls-7" d="M85.13,74.71c.23-.1.43-.1.5.21C85.42,75,85.22,75,85.13,74.71Z"/><path class="cls-6" d="M93,93c-.15.2-.29.2-.44,0A.27.27,0,0,1,93,93Z"/><path class="cls-7" d="M60.46,23.8c-.12.24-.26.26-.44.06C60.14,23.7,60.3,23.73,60.46,23.8Z"/><path class="cls-10" d="M14.13,77.25c-.17.15-.33.22-.43-.07A.29.29,0,0,1,14.13,77.25Z"/><path class="cls-10" d="M29.65,77.2c-.12.2-.27.24-.45.06A.32.32,0,0,1,29.65,77.2Z"/><path class="cls-7" d="M30.21,18.55c-.08.28-.23.31-.43.11A.33.33,0,0,1,30.21,18.55Z"/><path class="cls-7" d="M83.24,74.31c.23-.12.43-.16.51.17A.44.44,0,0,1,83.24,74.31Z"/><path class="cls-2" d="M11.75,18.29c-.22.08-.42.11-.51-.18C11.45,18.06,11.64,18.05,11.75,18.29Z"/><path class="cls-6" d="M53.65,34.68c-.21.25-.36.2-.45-.1C53.37,34.55,53.53,34.53,53.65,34.68Z"/><path class="cls-6" d="M99.68,17.26c-.11.25-.26.31-.46.08C99.35,17.17,99.51,17.2,99.68,17.26Z"/><path class="cls-6" d="M64.92,41.63c.08-.3.27-.29.5-.18C65.31,41.67,65.13,41.68,64.92,41.63Z"/><path class="cls-7" d="M85.62,17c-.21.17-.36.11-.46-.12C85.34,16.78,85.51,16.74,85.62,17Z"/><path class="cls-6" d="M31.07,43.8c0,.12,0,.24-.16.27s-.24-.09-.27-.23Z"/><path class="cls-6" d="M27.14,104.06c.07-.08.12-.2.2-.24s.11.09.12.17A.21.21,0,0,1,27.14,104.06Z"/><path class="cls-6" d="M50.61,34.56l-.16-.27c.17,0,.33,0,.45.12C50.84,34.54,50.72,34.55,50.61,34.56Z"/><path class="cls-6" d="M39.19,56.1l-.12-.29c.2,0,.37,0,.43.25l-.18.06Z"/><path class="cls-13" d="M88.72,5.84c-.24.1-.38,0-.48-.24A.38.38,0,0,1,88.72,5.84Z"/><path class="cls-6" d="M97.9,24.81c.07-.17.15-.3.31-.07A.23.23,0,0,1,97.9,24.81Z"/><path class="cls-10" d="M90.4,76.52c-.14.19-.23.12-.31,0A.2.2,0,0,1,90.4,76.52Z"/><path class="cls-6" d="M99.64,24.67c.07-.18.15-.3.31-.07A.24.24,0,0,1,99.64,24.67Z"/><path class="cls-8" d="M48.15,42.39c-.19.19-.26,0-.33-.12C48,42.23,48.08,42.24,48.15,42.39Z"/><path class="cls-6" d="M40.53,56.61c-.19.09-.31,0-.35-.18A.29.29,0,0,1,40.53,56.61Z"/><path class="cls-6" d="M102.1,24.39c.06-.17.12-.32.31-.1A.24.24,0,0,1,102.1,24.39Z"/><path class="cls-6" d="M102.68,24.26c0-.18.11-.33.31-.11A.25.25,0,0,1,102.68,24.26Z"/><path class="cls-7" d="M62.19,23.47c0,.17-.11.31-.29.1A.22.22,0,0,1,62.19,23.47Z"/><path class="cls-2" d="M13.14,18.49c-.16.21-.25.11-.32-.07A.23.23,0,0,1,13.14,18.49Z"/><path class="cls-6" d="M98.51,17.39c-.05.19-.13.31-.3.08A.23.23,0,0,1,98.51,17.39Z"/><path class="cls-6" d="M88.81,17.33c-.16.22-.24.11-.31-.07A.24.24,0,0,1,88.81,17.33Z"/><path class="cls-6" d="M104,16.65a.24.24,0,0,1-.35.21A.28.28,0,0,1,104,16.65Z"/><path class="cls-7" d="M81.06,16c-.16,0-.3,0-.35-.17C80.9,15.75,81,15.87,81.06,16Z"/><path class="cls-13" d="M17.7,11.81c.18-.12.31-.07.38.12A.26.26,0,0,1,17.7,11.81Z"/><path class="cls-13" d="M90.25,10.26c.14-.2.23-.09.32,0A.2.2,0,0,1,90.25,10.26Z"/><path class="cls-6" d="M43,57.8c-.21.06-.3,0-.33-.24A.3.3,0,0,1,43,57.8Z"/><path class="cls-13" d="M19,8.15c-.18.11-.3,0-.36-.14C18.78,7.94,18.91,8,19,8.15Z"/><path class="cls-13" d="M91.56,6.47a.26.26,0,0,1-.28.16,1.6,1.6,0,0,0,0-.21A.25.25,0,0,1,91.56,6.47Z"/><path class="cls-6" d="M61.73,91.65c.07-.18.15-.3.31-.07A.24.24,0,0,1,61.73,91.65Z"/><path class="cls-8" d="M47,42.18c-.2.07-.29,0-.36-.2A.25.25,0,0,1,47,42.18Z"/><path class="cls-8" d="M47.84,58c.19-.05.29,0,.34.22A.25.25,0,0,1,47.84,58Z"/><path class="cls-7" d="M83.63,91.81c-.18.06-.29,0-.35-.19C83.48,91.54,83.58,91.63,83.63,91.81Z"/><path class="cls-10" d="M67.54,91.81c-.07.16-.16.21-.29,0A.17.17,0,0,1,67.54,91.81Z"/><path class="cls-6" d="M103.43,92c0,.2-.16.26-.35.2A.27.27,0,0,1,103.43,92Z"/><path class="cls-6" d="M50.55,41.56a.16.16,0,0,1,0-.09c.14.12.42-.2.48.15A.65.65,0,0,1,50.55,41.56Z"/><path class="cls-6" d="M101.84,92.32c0,.18-.12.32-.3.1A.23.23,0,0,1,101.84,92.32Z"/><path class="cls-6" d="M62.35,59.92c-.06.18-.14.32-.31.09A.24.24,0,0,1,62.35,59.92Z"/><path class="cls-8" d="M49,42.54c-.2.19-.26,0-.33-.12A.23.23,0,0,1,49,42.54Z"/><path class="cls-6" d="M65.66,41.43c.07-.21.17-.24.29,0A.17.17,0,0,1,65.66,41.43Z"/><path class="cls-7" d="M79.7,41.19a.29.29,0,0,1-.3.17C79.4,41.13,79.46,41,79.7,41.19Z"/><path class="cls-6" d="M90.26,92.84c-.17.23-.25.11-.31-.08A.25.25,0,0,1,90.26,92.84Z"/><path class="cls-6" d="M66.66,41.34c0-.2.15-.29.35-.17A.29.29,0,0,1,66.66,41.34Z"/><path class="cls-3" d="M48.73,41.23c.18-.22.25-.1.31.09A.22.22,0,0,1,48.73,41.23Z"/><path class="cls-3" d="M11.83,93.16c-.19.2-.26.07-.3-.12C11.67,93,11.77,93,11.83,93.16Z"/><path class="cls-3" d="M12.56,93.28c-.15.22-.24.13-.31,0A.22.22,0,0,1,12.56,93.28Z"/><path class="cls-3" d="M13.14,93.44c-.19.21-.26.09-.31-.1A.21.21,0,0,1,13.14,93.44Z"/><path class="cls-8" d="M83,41c.2-.08.29,0,.34.2A.27.27,0,0,1,83,41Z"/><path class="cls-6" d="M31.79,43.82l-.32,0a.27.27,0,0,1,.35-.22Z"/><path class="cls-3" d="M47.07,40.88c.18-.11.3-.06.38.13C47.28,41.09,47.17,41,47.07,40.88Z"/><path class="cls-4" d="M106.46,40.65v-.31a.28.28,0,0,1,.29.3Z"/><path class="cls-7" d="M82.67,101.61c.19-.08.31,0,.37.16C82.87,101.85,82.76,101.76,82.67,101.61Z"/><path class="cls-6" d="M99.36,102.73c.09-.17.19-.19.3,0C99.57,102.84,99.47,102.85,99.36,102.73Z"/><path class="cls-7" d="M10.1,102.82c.17-.17.25,0,.32.1A.22.22,0,0,1,10.1,102.82Z"/><path class="cls-9" d="M18.06,27.61c-.22.23-.26.05-.3-.13A.32.32,0,0,1,18.06,27.61Z"/><path class="cls-7" d="M11.2,103.07a.23.23,0,0,1,.35.09C11.38,103.32,11.29,103.21,11.2,103.07Z"/><path class="cls-4" d="M13.45,27.1c-.19.1-.28,0-.35-.17A.26.26,0,0,1,13.45,27.1Z"/><path class="cls-6" d="M33.38,75.33c0-.2.15-.28.35-.22A.29.29,0,0,1,33.38,75.33Z"/><path class="cls-2" d="M14,18.64c-.16.21-.25.11-.32-.08A.22.22,0,0,1,14,18.64Z"/><path class="cls-10" d="M87.23,76.35l0-.22a.21.21,0,0,1,.3.08C87.46,76.34,87.34,76.35,87.23,76.35Z"/><path class="cls-10" d="M45.26,105.74l0,.21c-.19.08-.29,0-.37-.18Z"/><path class="cls-10" d="M69.83,106.11c.06-.19.18-.25.36-.16A.26.26,0,0,1,69.83,106.11Z"/><path class="cls-7" d="M88.37,43.09c-.16.2-.24.11-.29-.07A.21.21,0,0,1,88.37,43.09Z"/><path class="cls-10" d="M68.82,106.39a.25.25,0,0,1,.39-.15A.28.28,0,0,1,68.82,106.39Z"/><path class="cls-8" d="M86.38,25.65c-.14.07-.25.07-.32-.09C86.22,25.38,86.3,25.5,86.38,25.65Z"/><path class="cls-10" d="M67.67,106.69c.06-.21.19-.25.38-.15A.29.29,0,0,1,67.67,106.69Z"/><path class="cls-10" d="M66.23,106.93c.08-.17.18-.19.3,0C66.44,107,66.34,107.05,66.23,106.93Z"/><path class="cls-2" d="M11.06,75.57c.19-.09.3,0,.36.17A.25.25,0,0,1,11.06,75.57Z"/><path class="cls-6" d="M31.07,75.91a.24.24,0,0,1,.34-.23C31.35,75.85,31.26,76,31.07,75.91Z"/><path class="cls-7" d="M46.47,107.41c-.21.08-.32,0-.35-.21C46.3,107.15,46.41,107.24,46.47,107.41Z"/><path class="cls-2" d="M11.78,25.55c.17-.12.3-.07.37.12A.26.26,0,0,1,11.78,25.55Z"/><path class="cls-3" d="M10.31,92.79c-.2.09-.32,0-.37-.18A.28.28,0,0,1,10.31,92.79Z"/><path class="cls-2" d="M11.05,25.39c.16-.08.29-.06.35.12C11.22,25.65,11.13,25.53,11.05,25.39Z"/><path class="cls-2" d="M12.36,75.86c.19-.09.31,0,.36.18A.26.26,0,0,1,12.36,75.86Z"/><path class="cls-10" d="M60.88,107.64c.09-.16.19-.17.3,0C61.08,107.74,61,107.75,60.88,107.64Z"/><path class="cls-6" d="M30.34,76c.06-.18.14-.31.31-.09A.24.24,0,0,1,30.34,76Z"/><path class="cls-7" d="M49.2,108a.26.26,0,0,1-.36-.18C49,107.74,49.15,107.82,49.2,108Z"/><path class="cls-6" d="M66.4,108c-.07.17-.15.29-.31.08A.21.21,0,0,1,66.4,108Z"/><path class="cls-6" d="M51.24,108.44a.24.24,0,0,1-.35-.22C51.08,108.18,51.18,108.27,51.24,108.44Z"/><path class="cls-6" d="M63.63,108.46c-.08.16-.18.18-.29,0C63.43,108.34,63.53,108.34,63.63,108.46Z"/><path class="cls-6" d="M32.51,25.41c.05-.19.16-.27.35-.2C32.8,25.38,32.69,25.47,32.51,25.41Z"/><path class="cls-6" d="M29.63,76.1c.08-.16.18-.18.29,0C29.83,76.22,29.74,76.22,29.63,76.1Z"/><path class="cls-8" d="M84.06,25.24c-.2.08-.3,0-.35-.19A.25.25,0,0,1,84.06,25.24Z"/><path class="cls-6" d="M66.36,118c.06-.18.13-.32.31-.1A.25.25,0,0,1,66.36,118Z"/><path class="cls-7" d="M49.39,118c.16-.08.28,0,.35.12C49.56,118.22,49.47,118.12,49.39,118Z"/><path class="cls-10" d="M102.14,76c-.08.16-.17.25-.31,0A.2.2,0,0,1,102.14,76Z"/><path class="cls-7" d="M85.34,102.25c.14-.18.23-.08.32.06A.2.2,0,0,1,85.34,102.25Z"/><path class="cls-5" d="M13.24,92.33c.17,0,.34-.11.46.1A.47.47,0,0,1,13.24,92.33Z"/><path class="cls-5" d="M9.6,91.46c.14,0,.27,0,.33.12A.35.35,0,0,1,9.6,91.46Z"/><path class="cls-10" d="M11.84,76.83c-.1.1-.2.18-.29,0Z"/><path class="cls-5" d="M11.93,92.05c.13,0,.24-.07.31.09A.29.29,0,0,1,11.93,92.05Z"/><path class="cls-11" d="M38,55l-.34,0C37.79,54.7,37.9,54.76,38,55Z"/><path class="cls-5" d="M81.93,90.14a.18.18,0,0,1,.21.13Z"/><path class="cls-10" d="M11.42,76.75c-.08,0-.13,0-.15-.07S11.39,76.67,11.42,76.75Z"/><path class="cls-10" d="M11.22,76.66h-.06l0-.06C11.19,76.55,11.23,76.56,11.22,76.66Z"/><path class="cls-5" d="M12.63,92.24a.12.12,0,0,1,.2,0Z"/><path class="cls-13" d="M14.43,25.86l.16.14h-.16A.29.29,0,0,1,14.43,25.86Z"/><path class="cls-10" d="M43.87,105.43a.1.1,0,0,1,.08,0C43.88,105.54,43.86,105.51,43.87,105.43Z"/><path class="cls-10" d="M44.24,105.56c.09-.1.13,0,.13.06Z"/><path class="cls-2" d="M106.46,46a.48.48,0,0,1,0-.73A.51.51,0,0,1,106.46,46Z"/><path class="cls-7" d="M50.46,50.76a6.26,6.26,0,0,1,0-3A7.24,7.24,0,0,1,50.46,50.76Z"/><path class="cls-9" d="M69.56,42.23l.15.14Z"/><path class="cls-13" d="M87.06,43l.3.14q0,4.26,0,8.53c0,.25.16.6-.25.73Q87.07,47.65,87.06,43Z"/><path class="cls-3" d="M39.33,63.64v-.43c.34,0,.25-.26.23-.48a.42.42,0,0,1,.27-.46c.23-.08.27.16.33.29a1.24,1.24,0,0,0,1.3.72c1.2-.12,2.62.39,3.46-1,0-.06.22,0,.34-.07v.29a4.64,4.64,0,0,0-.13,2c0,.48-.18,1,.14,1.45,0,.72,0,1.44,0,2.16-.09,0-.23,0-.28,0-.76.82-1.61.36-2.45.21a1.8,1.8,0,0,0-1.1.17c-.66.36-1.43.31-2.1.61V63.93c.11,0,.25,0,.21-.18S39.41,63.67,39.33,63.64Z"/><path class="cls-13" d="M39.19,86.06q0-6.42.05-12.86c0-.29-.21-.61.09-.88.22.19.14.44.14.67q0,6.18,0,12.36C39.46,85.6,39.62,86,39.19,86.06Z"/><path class="cls-11" d="M9.28,57.27c.12,0,.29,0,.31.11s-.18.16-.31.19Z"/><path class="cls-3" d="M15.15,44.26c.16.2.39.11.59.13a3.42,3.42,0,0,1-1.11,1.46V45.4c.35-.08.21-.37.24-.58S14.79,44.31,15.15,44.26Z"/><path class="cls-6" d="M87.21,29.79c.3.38.12.83.14,1.24,0,.8,0,1.59,0,2.38,0,.23.08.5-.26.58,0-1.4,0-2.8,0-4.2Z"/><path class="cls-7" d="M87.21,29.79h-.14a5.34,5.34,0,0,1,0-2.75A11.49,11.49,0,0,1,87.21,29.79Z"/><path class="cls-13" d="M45.27,66c-.32-.46-.15-1-.14-1.45a4.64,4.64,0,0,1,.13-2h.14c0,.93,0,1.87,0,2.8C45.39,65.51,45.46,65.76,45.27,66Z"/><path class="cls-11" d="M45.4,62.48h-.14v-.29c0-.53,0-1.06,0-1.59A1.91,1.91,0,0,1,45.4,62.48Z"/><path class="cls-11" d="M49.86,64.71c0,.1,0,.19-.15.2s-.21,0-.19-.14a.32.32,0,0,1,.16-.2C49.77,64.53,49.85,64.6,49.86,64.71Z"/><path class="cls-11" d="M9.41,102.41l0-1.59A1.24,1.24,0,0,1,9.41,102.41Z"/><path class="cls-11" d="M39.19,56.1l.13,0c0,.39,0,.77,0,1.15C38.73,56.94,39.16,56.5,39.19,56.1Z"/><path class="cls-13" d="M39.33,63.64c.08,0,.2.06.21.11s-.1.16-.21.18Z"/></g></g></svg>