<svg xmlns="http://www.w3.org/2000/svg" viewBox="0 0 104.49 163.59"><defs><style>.cls-1{fill:#080809;}.cls-2{fill:#203237;}.cls-3{fill:#30def1;}.cls-4{fill:#29a7c1;}.cls-5{fill:#64d7e9;}.cls-6{fill:#28ddf3;}.cls-7{fill:#c3cad1;}.cls-8{fill:#96a7b4;}.cls-9{fill:#dfe4e7;}.cls-10{fill:#35e0f2;}.cls-11{fill:#647685;}.cls-12{fill:#29b7d1;}.cls-13{fill:#296772;}.cls-14{fill:#98f6fb;}.cls-15{fill:#a7f9fb;}</style></defs><g id="Capa_2" data-name="Capa 2"><g id="Capa_1-2" data-name="Capa 1"><path class="cls-1" d="M96.57,134.61a7.77,7.77,0,0,1,.68,1.79c0,.09-.15.19-.13.25a29.91,29.91,0,0,0,2,4.91,1.81,1.81,0,0,1,.28.94,1.72,1.72,0,0,0,.14,1.35v.29c-.32.16-.24.4-.13.65v0a.34.34,0,0,0-.2.49,1.82,1.82,0,0,1-.81,1A6.78,6.78,0,0,0,96.27,148l-.34.21c-.31-.12-.48,0-.5.33l-.34.2c-.36-.09-.62,0-.69.39l-.52.29c-.34-.11-.5,0-.49.37l0,.31c-.15.17-.18.32.09.39l0,.4a.35.35,0,0,0,0,.53,11.21,11.21,0,0,1-.72,4.55,1.39,1.39,0,0,1-.64.82,3.2,3.2,0,0,0-1.64,1,7.18,7.18,0,0,1-1.79.79,1.34,1.34,0,0,0-1.24.49c-2.65,1.1-5.3,2.21-8,3.06a2.31,2.31,0,0,0-1.85.65,5.81,5.81,0,0,1-1.68.55c-.27-.19-.5-.08-.72.1a6.79,6.79,0,0,1-4.58-2.16A2.66,2.66,0,0,0,69.41,160l-.23-.32c-.33-.75-.7-.81-1.59-.27l-.4.08a1.27,1.27,0,0,0-1.38.22l-.4,0c-.17-.15-.31-.2-.4.07l-.41,0a.34.34,0,0,0-.51,0,2.57,2.57,0,0,1-1.2-.07c-.22-.38-.54-.36-.9-.22a.71.71,0,0,1-.53-.24A6,6,0,0,0,60.23,158,13.61,13.61,0,0,1,59,155.08c.12-.35-.1-.62-.22-.91-.59-1.51-1.17-3-1.8-4.5a2.72,2.72,0,0,1,.16-2.9l.31-.25c.29.13.34,0,.34-.27l0-.06,0-.05c.37-.44,0-.8-.16-1.16L13.45,33c-.13-.34-.25-.68-.41-1s-.49-.62-.88-.16a1.74,1.74,0,0,1-1.23.09,1,1,0,0,0-.71-.55L10,31c.15-.25,0-.33-.21-.34a44,44,0,0,1-2.43-6.16A4.46,4.46,0,0,0,6.42,22l-.17-.56a2.24,2.24,0,0,0,.09-1.57,2.79,2.79,0,0,1,.85-1.4c.25,0,.4-.12.38-.4l.36-.33c.24,0,.4-.08.42-.34a1.66,1.66,0,0,1,.7-.53.37.37,0,0,0,.43-.3l.39-.25a1.76,1.76,0,0,0,1.29-.87l.33-.23c.32.1.35-.07.3-.32l0-.28a2.9,2.9,0,0,0-.05-1.75v-.33A1.32,1.32,0,0,0,11.85,11a.07.07,0,0,1,0-.1c.36-.14.3-.4.19-.67h0a.34.34,0,0,0,.2-.51,2.56,2.56,0,0,1,.59-1.1.33.33,0,0,0,.27-.48A1.94,1.94,0,0,1,14.58,7a18.13,18.13,0,0,0,3.71-1.36c.53-.19,1.17-.23,1.51-.79L22.54,3.8a10,10,0,0,0,3.82-1.48A28.46,28.46,0,0,1,29.84,1a3,3,0,0,0,1.74,0A8.31,8.31,0,0,1,34.46,3c0,.25.16.39.43.34l.57.48c0,.26.1.43.4.4l.54.65c.13.24.26.36.44,0l.39-.08a7.6,7.6,0,0,0,3.11-.31c2.53-.49,4.79,0,5.73,2.9.47,1.42,1.08,2.79,1.65,4.18.12.29.09.76.62.73l.92,2.35c-.46.4.08.76.05,1.15s-.13.74-.49.88-.43-.33-.59-.57v-.39A1,1,0,0,0,48,15H48a2.88,2.88,0,0,0-1-2.57L44.63,6.66A1.83,1.83,0,0,0,42.7,5c-.93,0-1.87,0-2.8.07-.29,0-.6,0-.74.32l-.56.18c-.35-.33-.58-.16-.78.18a2.63,2.63,0,0,1-1.13.29c-.27-.21-.46-.14-.58.17a2.22,2.22,0,0,1-.94.24c-.28-.24-.47-.16-.59.17l-1.66.55c-.5-.32-.83,0-1.14.33-2,.73-4,1.44-6,2.19a19.29,19.29,0,0,0-3.3,1.44,2.54,2.54,0,0,0-1.47.53.3.3,0,0,0-.39.19,64.49,64.49,0,0,0-6.16,3,.55.55,0,0,0-.54.31l-.48.3a26.89,26.89,0,0,0-5.28,4,1.92,1.92,0,0,0-.51,2.24c1,2.62,1.76,5.32,2.91,7.88.57,1.26.63,1.28,2,.76a1.86,1.86,0,0,0,1.79-.9l.33-.17c.48,0,.93,0,1.06-.58l.33-.16c.48.05.89,0,1.07-.57l.85-.41c.65,0,1.28-.11,1.62-.78l1.58-.7c.65,0,1.27-.09,1.6-.78l4.3-1.82c.27.18.37.07.39-.21a64.23,64.23,0,0,1,7.83-3c.46.39.74.16,1-.29l2.55-1L39,19c.51.37.83,0,1.15-.31l2-.76a2,2,0,0,0,1.15-.36l.74-.16c.16.36.42.17.66.13a.67.67,0,0,1,.89.61l-.53.18c-.63-.35-1.1.17-1.62.35-1.18.41-1.2.5-.73,1.69L60.94,66.43c.13.32.14.73.57.85l.93,2.34c-.23.34,0,.63.12.92q3.94,10,7.9,20c.12.28.12.66.53.74l3.15,8a1.63,1.63,0,0,0,.65,1.65l.21.54a2.81,2.81,0,0,0,.88,2.21c.07.14.16.28.22.43l7.4,18.69q2.43,6.12,4.88,12.23a.84.84,0,0,0,1.16-.43,4.8,4.8,0,0,1,1.4-.64c.21.24.55,0,.77.18,0,.6-.83.57-.89,1.14l-1.23.59c-.3-.16-.49-.08-.55.26a6.57,6.57,0,0,1-1.57.78c-.35-.13-.61-.06-.72.33a5.71,5.71,0,0,1-1.75.86.48.48,0,0,0-.72.31c-.73.34-1.45.71-2.19,1l-8.22,3.47a47.57,47.57,0,0,0-4.63,1.57.5.5,0,0,0-.59.2l-2.93.93c-.27-.26-.47-.2-.61.13l-1.1.31a.48.48,0,0,0-.79.23c-1.5.44-3,.85-4.49,1.34-1.21.41-1.26.53-.77,1.76.69,1.72,1.45,3.42,2.18,5.12a24.21,24.21,0,0,0,1.32,2.94,1.9,1.9,0,0,0,1.83,1.06,34,34,0,0,0,6.74-.9,34.12,34.12,0,0,0,4-1,.58.58,0,0,0,.75-.24l2-.65a1.3,1.3,0,0,0,1.15-.38c.32-.09.69-.09.88-.44a8.46,8.46,0,0,0,1.23-.29,96.48,96.48,0,0,0,12.94-6,17.18,17.18,0,0,0,5.26-4.14c.36-.19.24-.44.1-.7l0-.56c.16-.18.2-.32-.08-.41l-2.38-6.21c.34-.31,0-.6,0-.88-.28-.76-.59-1.5-.88-2.26-.09-.22-.15-.49.07-.61s.31.21.47.33C96,133.52,95.84,134.39,96.57,134.61ZM51.15,111.29a3,3,0,0,0,.94,2.38l7.1,18c-.2.3,0,.57.09.83q1.56,4,3.15,8c.1.26.14.59.5.65l.61,1.67L63,143l-3.25-8c.24-.46.13-.78-.38-.93-.12-.27-.26-.53-.36-.8Q40.11,86,21.54,38.63q-1.7-4.32-3.41-8.63c-.16-.4-.25-.87-.86-.59a14.41,14.41,0,0,0-2.8,1.34c-.85.18-.55.71-.36,1.2L21.43,50.4c.09.2.22.39.32.59.4,1,.79,2.09,1.18,3.14a7.22,7.22,0,0,0,.23.83q5.68,14.45,11.38,28.88c.12.3.29.58.43.87l2.65,6.67c.1.34.18.69.31,1Q43.69,107,49.48,121.68c.12.3.28.58.43.87,1.5,3.85,3,7.71,4.51,11.55.7,1.79,1.44,3.56,2.16,5.34a1.11,1.11,0,0,0,.3.73l.14.35a2.07,2.07,0,0,0,.44,1.11l.21.53a12.84,12.84,0,0,0,1.7,3.93c.47.52.74.23,1-.23.68-.22,1.36-.45,2-.65,1.32-.39,1.33-.38.84-1.66l.53-.21c.35.35,0,1.41,1.05,1.07l6-1.93c.26.15.44.08.56-.2l.7-.38a28.71,28.71,0,0,0,3.68-1.4,43.63,43.63,0,0,0,5-2,.52.52,0,0,0,.71-.32l.69-.31a.17.17,0,0,0,.24-.12l.3-.16a3.09,3.09,0,0,0,1.81-.8,11.37,11.37,0,0,0,2.18-1c.8-.19.57-.67.36-1.19q-3.27-8.19-6.52-16.41l-5.69-14.37q-4.59-11.61-9.19-23.21Q62.77,73.31,59.9,66c-.84-2.13-1.69-4.25-2.54-6.38Q53.15,48.91,48.91,38.2q-3.52-9-7.06-18.06c-.11-.29-.24-.54-.63-.41s-.95-.33-1.11.39l-3.64,1.34a1.23,1.23,0,0,0-.76.29l-2.53,1-.93.27a.83.83,0,0,0-1.3.51l-9.23,3.71a1,1,0,0,0-1.26.6l-1.24.54c-.13-.08-.18,0-.17.1l0,0c-.63.13-.46.54-.26.88a27,27,0,0,1,1.5,3.8Q29,55.36,37.77,77.5c2.8,7.09,5.63,14.17,8.44,21.25-.23.3,0,.56.07.82,1,2.61,2,5.21,3.09,7.82.1.26.15.58.51.64ZM27.33,8,33.7,5.9c1.25-.43,1.28-.52.4-1.48a2.14,2.14,0,0,0-.39-.28c-1.42-1.44-2.9-2.63-5-1.33a.69.69,0,0,0-.75.28c-2.62,1-5.24,2-7.78,3.14a42.66,42.66,0,0,0-5.43,2.33,1.12,1.12,0,0,0-.63.92,9.67,9.67,0,0,0-1,4c-.13.88.22.8.75.5a32.53,32.53,0,0,1,4.52-2.2.65.65,0,0,0,.91-.38l2.1-1,1.3-.51ZM85.91,153.18a20.67,20.67,0,0,0-3,1.24c-2.85,1.09-5.71,2.16-8.58,3.18-1.13.41-2.3.67-3.45,1-.41.12-.85.32-.38.78,1.17,1.16,2.33,2.36,4.1,2.6a1.3,1.3,0,0,0,.95.06,58.31,58.31,0,0,0,5.72-1.94c2.68-.88,5.24-2.11,7.91-3a3.81,3.81,0,0,0,2.8-3.85c0-.57,0-1.14,0-1.71.07-1.13,0-1.15-.91-.72Z"/><path class="cls-1" d="M49.07,21.07,54,33.51l7.57,19.15c.11.27.19.55.28.83-.12.46.18.81.33,1.19Q77,92.24,91.82,129.79a6.37,6.37,0,0,1,.31,2.46,3.74,3.74,0,0,1-.76-1.44q-21.12-53.5-42.2-107a24.48,24.48,0,0,1-1.5-4.18c-.09-.47,0-1-.42-1.37-.24-.23-.37-.58,0-.73s.35.28.45.49A14.47,14.47,0,0,0,49.07,21.07Z"/><path class="cls-2" d="M49.07,21.07A14.47,14.47,0,0,1,47.68,18c-.1-.21-.11-.64-.45-.49s-.22.5,0,.73c.4.38.33.9.42,1.37a24.48,24.48,0,0,0,1.5,4.18q21,53.54,42.2,107a3.74,3.74,0,0,0,.76,1.44,6.37,6.37,0,0,0-.31-2.46Q77,92.25,62.17,54.68c-.15-.38-.45-.73-.33-1.19.17.35.36.69.5,1l30.42,77.07c.15.37.14.89.87.82,1.94-.21,2.37.15,2.94,2.18-.73-.22-.58-1.09-1.1-1.47-.16-.12-.17-.5-.47-.33s-.16.39-.07.61c.29.76.6,1.5.88,2.26.1.28.39.57,0,.88-.33-.8-.69-1.6-1-2.42-.21-.57-.49-.64-1-.36-1,.53-2,1-3,1.5.06-.57.86-.54.89-1.14-.22-.18-.56.06-.77-.18,1-.45,1-1.16.55-2-.26-.44-.43-.93-.65-1.39-.07-.22-.13-.44-.21-.65Q70.32,78.44,50,27a4.35,4.35,0,0,0-.81-1.64c.22-.31,0-.56-.12-.81-.7-1.88-1.46-3.74-2.11-5.64-.26-.73-.6-1-1.33-.73a.67.67,0,0,0-.89-.61c-.24,0-.5.23-.66-.13a25.54,25.54,0,0,1,3.42-1c.11.14.09.47.35.37s0-.33,0-.5l.37-.18c.16.24.09.75.59.57s.46-.49.49-.88-.51-.75-.05-1.15c.7,1.47.59,1.94-.77,2.62-.59.29-.62.6-.39,1.14C48.46,19.31,48.75,20.2,49.07,21.07Z"/><path class="cls-2" d="M12.16,31.81c.39-.46.67-.25.88.16s.28.66.41,1L57.64,145c.14.36.53.72.16,1.16Q47.14,119.1,36.45,92,24.8,62.46,13.15,32.9C13,32.44,13,31.72,12.16,31.81Z"/><path class="cls-2" d="M57.13,146.77a2.72,2.72,0,0,0-.16,2.9c.63,1.49,1.21,3,1.8,4.5.12.29.34.56.22.91A38.65,38.65,0,0,1,56.48,149C56.24,148.16,56.13,147.27,57.13,146.77Z"/><path class="cls-2" d="M99.12,141.56a29.91,29.91,0,0,1-2-4.91c0-.06.09-.16.13-.25A42.94,42.94,0,0,1,99.12,141.56Z"/><path class="cls-2" d="M96.27,148a6.78,6.78,0,0,1,2.11-1.73A5.82,5.82,0,0,1,96.27,148Z"/><path class="cls-2" d="M77.56,162.87a2.31,2.31,0,0,1,1.85-.65A5.31,5.31,0,0,1,77.56,162.87Z"/><path class="cls-2" d="M90.48,157.88a3.2,3.2,0,0,1,1.64-1A2.85,2.85,0,0,1,90.48,157.88Z"/><path class="cls-2" d="M67.59,159.42c.89-.54,1.26-.48,1.59.27C68.74,159,68.12,159.52,67.59,159.42Z"/><path class="cls-2" d="M60.23,158a6,6,0,0,1,1.23,1.38A2.19,2.19,0,0,1,60.23,158Z"/><path class="cls-2" d="M69.41,160a2.66,2.66,0,0,1,1.17,1.35A3.19,3.19,0,0,1,69.41,160Z"/><path class="cls-2" d="M87.45,159.16a1.34,1.34,0,0,1,1.24-.49A2.54,2.54,0,0,1,87.45,159.16Z"/><path class="cls-2" d="M65.81,159.72a1.27,1.27,0,0,1,1.38-.22A3.11,3.11,0,0,1,65.81,159.72Z"/><path class="cls-2" d="M99.54,143.85a1.72,1.72,0,0,1-.14-1.35A1.72,1.72,0,0,1,99.54,143.85Z"/><path class="cls-2" d="M62,159.58c.36-.14.68-.16.9.22A1,1,0,0,1,62,159.58Z"/><path class="cls-2" d="M94.4,149.17c.07-.4.33-.48.69-.39A.87.87,0,0,1,94.4,149.17Z"/><path class="cls-2" d="M10.22,31.35a1,1,0,0,1,.71.55C10.51,32,10.34,31.69,10.22,31.35Z"/><path class="cls-2" d="M95.43,148.58c0-.34.19-.45.5-.33A.58.58,0,0,1,95.43,148.58Z"/><path class="cls-2" d="M93.39,149.83c0-.36.15-.48.49-.37Z"/><path class="cls-2" d="M75.16,163.52c.22-.18.45-.29.72-.1A.64.64,0,0,1,75.16,163.52Z"/><path class="cls-2" d="M99.4,144.79c-.11-.25-.19-.49.13-.65A.6.6,0,0,1,99.4,144.79Z"/><path class="cls-2" d="M99.19,145.31a.34.34,0,0,1,.2-.49A.39.39,0,0,1,99.19,145.31Z"/><path class="cls-2" d="M64.09,159.87a.34.34,0,0,1,.51,0A.41.41,0,0,1,64.09,159.87Z"/><path class="cls-2" d="M65,159.83c.09-.27.23-.22.4-.07A.37.37,0,0,1,65,159.83Z"/><path class="cls-2" d="M9.78,30.69c.24,0,.36.09.21.34A.31.31,0,0,1,9.78,30.69Z"/><path class="cls-2" d="M93.45,150.53c-.27-.07-.24-.22-.09-.39A.32.32,0,0,1,93.45,150.53Z"/><path class="cls-2" d="M93.48,151.46a.35.35,0,0,1,0-.53A.41.41,0,0,1,93.48,151.46Z"/><path class="cls-2" d="M57.78,146.25c0,.24-.05.4-.34.27Z"/><path class="cls-3" d="M36.47,21.46l3.64-1.34.42,0c-.54.94-1.72,1.24-2.26,2.19-.08.14-.22-.18-.34-.22a2.07,2.07,0,0,0-1.45.13c-.48.2-.39.61-.19,1h0c-.18.1-.57.15-.36.43a1.11,1.11,0,0,0,1.52.35c-.58.81.19,1.38.23,2.06s1.8,2.26,2.36,2.31a2.6,2.6,0,0,1,2.33,1.74c1.08,2.72,2.15,5.45,3.23,8.17.09.22.11.63.45.52s.78-.36.64-.74c-.3-.85.24-1,.82-1.19l1.56,3.55c.07.25.11.51.2.75q3.69,9.38,7.4,18.75c.11.27.27.51.4.77q.82,2.28,1.64,4.56c-.48.12-1.05.1-1,.85,0,.24-.16.56-.48.51S57.05,66.2,57,66s-.11-.57-.46-.67c-.24.31.15.58.1.66-.35.5-.51-.36-.8.16-.54,1-.32,2.27-1.3,3,.39.81,0,1.78.45,2.53a2.32,2.32,0,0,1,.33,1.49,5.88,5.88,0,0,0,.35,2.17c.1.3.33.59.09.92-.46.06-.78-.24-1.16-.41A35.45,35.45,0,0,0,51,74.14a.42.42,0,0,0-.09-.14.39.39,0,0,0-.49-.27.38.38,0,0,0-.09-.13.39.39,0,0,0-.49-.27.41.41,0,0,0-.1-.13.39.39,0,0,0-.48-.28.35.35,0,0,0-.08-.13.44.44,0,0,0-.5-.3l-.17-.28a.42.42,0,0,0-.48-.3l-1.61-1.82c-.07-.29-.22-.49-.55-.48l-.43-.81c0-.27-.22-.32-.44-.32l-.12-.29c.1-.27,0-.46-.25-.54l-.95-2.37A39.87,39.87,0,0,0,43,60.92l-.07-.34a.54.54,0,0,0,.17-.52,8.89,8.89,0,0,1,1.4-4.71,16.39,16.39,0,0,0,1.94-5.48c.25-2.19-.86-5.57-2.87-6.54s-3.8-1.7-5.72-2.48c-2.46-1-4.81-2.05-5.59-4.92l-.13-.52a1.43,1.43,0,0,0,.31-1.24,4,4,0,0,0,.67-1.53.88.88,0,0,0,.5-.82h0a1.33,1.33,0,0,0,.67-1.08.28.28,0,0,0,.15-.08.37.37,0,0,0,.29-.32c.46-.24.67-.81,1.22-.93.25-.06.4-.19.33-.47l.45-.26c.27-.06.39-.21.3-.49a.38.38,0,0,1,.13-.09.51.51,0,0,0,.32-.82l-.52-1.38c.18-.36,0-.37-.29-.32-.2-.52-.69-.49-1.11-.58-.08-.14-.17-.39-.24-.39-1.3.08-1.38-1.24-2.1-1.82l2.53-1C36.13,22.11,36.39,22,36.47,21.46ZM46,60.63a4.65,4.65,0,0,0,1.47,2.07,2.35,2.35,0,0,0,3.7-.8A4,4,0,0,0,49.27,57a2.43,2.43,0,0,0-3.47,2A3,3,0,0,0,46,60.63Z"/><path class="cls-4" d="M56.88,140.17a1.11,1.11,0,0,1-.3-.73c.52-.17.4-.51.24-.86a4.74,4.74,0,0,1-.2-3.13,5.5,5.5,0,0,0,.3-2.33,47,47,0,0,0-2.49-7.43c-.55-1.13-1.08-2.47-2.84-2.27-.41,0-.88-.35-1.09-.85-.1-.23-.17-.5-.49-.54l-.31-.85a.69.69,0,0,0-.39-1l-8.3-21c.11-.14.08-.22-.1-.25L38,91.52c.4-.2.64-.29,1,.2a11.76,11.76,0,0,0,2.44,2.59c.21.14.52.4.59,0s.34-1-.07-1.49a1.48,1.48,0,0,1-.3-1.29,2.71,2.71,0,0,0-.28-1.6c-1.28-3.25-2.63-6.46-3.8-9.75-.37-1-1-1.28-1.91-1.64a1.58,1.58,0,0,0-1.29,0c-.92.38-1.2-.06-1.39-.83-.08-.33-.17-.75-.7-.61L27.08,63.86a.59.59,0,0,0,0-.56c-.7-1.76-1.39-3.53-2.09-5.3a.61.61,0,0,0-.39-.39l-.19-.48a.68.68,0,0,0-.39-1l-.12-.3a1.4,1.4,0,0,0-.6-1.53c-.1-.12-.2-.25-.39-.2-.39-1.05-.78-2.09-1.18-3.14.47-.17.28-.48.19-.8a1.06,1.06,0,0,1,1-1.44c1.08.16.78-.55.7-1-.24-1.33-.46-2.67-.75-4-.72-3.28-2.33-6.26-3.47-9.41-.11-.31-.24-.37-.55-.11-1,.86-1.78.73-2.57-.37a7.59,7.59,0,0,0-1-1.22c-.86-.8-.9-1.06,0-2-.32,0-.59.28-.87.07a14.41,14.41,0,0,1,2.8-1.34c.61-.28.7.19.86.59q1.71,4.3,3.41,8.63Q40.14,86,59,133.32c.1.27.24.53.36.8a1.3,1.3,0,0,0,.38.93c1.09,2.65,2.17,5.31,3.25,8l.22.54c.49,1.28.48,1.27-.84,1.66-.68.2-1.36.43-2,.65a1.89,1.89,0,0,0-1,.23,12.84,12.84,0,0,1-1.7-3.93c.36-.35.28-.52-.21-.53a2.07,2.07,0,0,1-.44-1.11c.09-.06.22-.12.16-.26S57,140.15,56.88,140.17Z"/><path class="cls-5" d="M45.64,18.16c.73-.27,1.07,0,1.33.73.65,1.9,1.41,3.76,2.11,5.64.09.25.34.5.12.81s0,.69.11,1c.77,2.31,1.61,4.6,2.29,6.93,1.12,3.9,2.37,7.76,3.8,11.55,2.05,5.41,4.16,10.81,6.46,16.14,1.94,4.5,3.81,9.05,5.32,13.74.87,2.72,1.92,5.4,3,8,5.31,13.37,10.2,26.92,16.16,40,.65,1.42,1.22,2.87,1.92,4.26.58,1.15,1.29,2.23,1.93,3.34.19.32.42.23.67.14.22.46.39,1,.65,1.39.5.87.5,1.58-.55,2a4.8,4.8,0,0,0-1.4.64,3.6,3.6,0,0,0-1.16.43q-2.44-6.1-4.88-12.23l-7.4-18.69c-.06-.15-.15-.29-.22-.43a6,6,0,0,0-.88-2.21l-.21-.54a3.4,3.4,0,0,0-.65-1.65L71,91.3a5,5,0,0,0-.19-.74q-4-10.14-8-20.27c-.1-.24-.14-.51-.38-.67l-.93-2.34a1.23,1.23,0,0,0-.18-.75Q52.27,43.61,43.22,20.7c-.5-1.25-.5-1.24.76-1.81.38-.17.76-.36,1.13-.55Z"/><path class="cls-6" d="M75.7,140.5A28.71,28.71,0,0,1,72,141.9c-1-.61-2-.07-2.91,0-1.56.09-3.19.4-4.25-1.14a24.08,24.08,0,0,1-1.92-3.58c-.52-1.13-.41-2.35-.89-3.47-.9-2.12-1.69-4.3-2.57-6.43A4.08,4.08,0,0,1,59,125.4c.19-1.58-.82-2.53-1.68-3.53-.35-.41-.65-1.33-1.57-.8-.17-.57-.64-1-.67-1.64.45-.08.23-.67.64-.8.17.08.09.3.17.39.45.48.4-.56.78-.27s-.42.65,0,1A11.61,11.61,0,0,1,59,122.67a1.8,1.8,0,0,0,.81.92,4.84,4.84,0,0,0,2.85.4l.15,0a.35.35,0,0,0,.55.17l1.16,0c1.88.06,3.76.08,5.64.17A4.05,4.05,0,0,1,74,127.16a5.55,5.55,0,0,1-.07,4.18c-.26.1-.51.22-.36.59L72.43,134c-.26.1-.5.22-.37.57L70.88,137c-.23.14-.41.28,0,.44.74,2,.92,2.15,2.57,1.73.09.2.17.5.46.4C74.88,139.16,75.31,139.77,75.7,140.5Z"/><path class="cls-7" d="M38.83,19l-2.55,1-.82.1c-.26-.59-.65-.25-1-.12l-4.9,1.92c-.29.11-.64.34-.78-.18-.78-3-2.28-5.65-3.06-8.61-.18-.65,0-.85.54-1.07a78.31,78.31,0,0,1,8.28-2.81c2-.54,4.09-.92,6.15-1.36a1.63,1.63,0,0,1,1.82.78A24.93,24.93,0,0,1,45,14c.59,1.46.18,2.29-1.27,2.92s-2.89.78-4.23,1.46C39.25,18.48,38.78,18.44,38.83,19Z"/><path class="cls-8" d="M27.11,23.4l-4.3,1.82a5.75,5.75,0,0,0-1.67.6,8.62,8.62,0,0,0-2.59.63c-.86.19-1.42,0-1.7-.8-1.12-3.41-3.15-6.51-3.36-10.22l.48-.3c.35.19.53.09.54-.31a64.49,64.49,0,0,1,6.16-3c.25.2.34.06.39-.19a2.54,2.54,0,0,1,1.47-.53A42.44,42.44,0,0,0,24.9,17.7,19.35,19.35,0,0,0,27.42,23Z"/><path class="cls-8" d="M69.24,144.48a47.57,47.57,0,0,1,4.63-1.57c1.65,4,3,8.1,5,11.93-.19.35-.56.35-.88.44a.83.83,0,0,0-1.15.38l-2,.65c-.34-.22-.59-.12-.75.24a34.12,34.12,0,0,1-4,1c-.48-.51-1.29-.63-1.59-1.37-.92-2.31-1.87-4.63-2.79-6.95-.42-1.07-1.14-2.12-.46-3.35l.53-.32,2.93-.93C69,144.9,69.15,144.87,69.24,144.48Z"/><path class="cls-9" d="M78.83,154.84c-2-3.83-3.31-8-5-11.93l8.22-3.47c.74-.32,1.46-.69,2.19-1a.92.92,0,0,0,.72-.31,5.71,5.71,0,0,0,1.75-.86.94.94,0,0,0,.72-.33,6.57,6.57,0,0,0,1.57-.78.63.63,0,0,0,.55-.26l1.23-.59c1-.5,2-1,3-1.5.52-.28.8-.21,1,.36.3.82.66,1.62,1,2.42q1.19,3.1,2.38,6.21a.35.35,0,0,0,.08.41l0,.56c-.17.22-.1.47-.1.7A17.18,17.18,0,0,1,93,148.58a96.48,96.48,0,0,1-12.94,6A8.46,8.46,0,0,1,78.83,154.84ZM78.4,147a26.77,26.77,0,0,0,1.68,3.69c.57,1.18.82,1.27,2,.8a62.3,62.3,0,0,0,7.15-3.27,44.1,44.1,0,0,0,4.74-3,3,3,0,0,0,1.46-3.34A37.18,37.18,0,0,0,94,137.91a2.68,2.68,0,0,0-3.24-1.2c-3,1.67-6.19,3.09-9.33,4.55a19.65,19.65,0,0,0-3.64,1.82.91.91,0,0,0-.37,1.3C77.73,145.11,78,145.89,78.4,147Z"/><path class="cls-9" d="M27.42,23A19.35,19.35,0,0,1,24.9,17.7a42.44,42.44,0,0,1-2.37-6.56,19.29,19.29,0,0,1,3.3-1.44c2-.75,4-1.46,6-2.19a2.26,2.26,0,0,0,1.14-.33l1.66-.55a.59.59,0,0,0,.59-.17,2.22,2.22,0,0,0,.94-.24.61.61,0,0,0,.58-.17,2.63,2.63,0,0,0,1.13-.29,1,1,0,0,0,.78-.18l.56-.18c.29.14.58,0,.86,0,1.61.13,3.45-.49,4.61,1.28L47,12.42A13,13,0,0,0,48,15H48a.57.57,0,0,0,.26.76v.39l-.37.18-.35.13a25.54,25.54,0,0,0-3.42,1l-.74.16c-.51-.28-.85,0-1.15.36l-2,.76A1.58,1.58,0,0,0,39,19l-.21,0c0-.53.42-.49.71-.64,1.34-.68,2.86-.85,4.23-1.46S45.63,15.41,45,14a24.93,24.93,0,0,0-2.51-5.36,1.63,1.63,0,0,0-1.82-.78c-2.06.44-4.12.82-6.15,1.36A78.31,78.31,0,0,0,26.28,12c-.55.22-.72.42-.54,1.07.78,3,2.28,5.65,3.06,8.61.14.52.49.29.78.18l4.9-1.92c.33-.13.72-.47,1,.12l-.13.19a64.23,64.23,0,0,0-7.83,3A.12.12,0,0,0,27.42,23Z"/><path class="cls-10" d="M33.18,22.78c.72.58.8,1.9,2.1,1.82.07,0,.16.25.24.39a10,10,0,0,0-7.8,6.49A10.48,10.48,0,0,0,28,40.54c-.74,0-1.41,0-1.56-1,0-.18-.14-.83-.68-.74s-.54.13-.41-.36c.07-.26.35-.48.15-.78-1.46.33-.86-1.33-1.62-1.69-.22.26.14.7-.31.83-.33-.11-.34-.44-.48-.68s-.25-.43-.51-.28,0,.34,0,.52.52.66,0,1l-2.35-6a1.31,1.31,0,0,0,.54-1.83,1.68,1.68,0,0,1-.08-1.7c.32-.23.79-.23,1-.63L31,23.56a3.25,3.25,0,0,0,1.3-.51ZM23.76,35.36c-.05-.14-.15-.19-.22-.12a.78.78,0,0,0-.23.41c0,.2.15.15.26.09A.35.35,0,0,0,23.76,35.36Z"/><path class="cls-3" d="M75.7,140.5c-.39-.73-.82-1.34-1.81-1-.29.1-.37-.2-.46-.4A8,8,0,0,0,78,135.3c1.54-2.59,2.67-5.13,2.08-8.25a29.43,29.43,0,0,0-1.48-5.33,7.49,7.49,0,0,0,1.88-1.58,8.26,8.26,0,0,1,1.07,2.52.89.89,0,0,0,.5,1.27l1.47,3.42c-.12.39.13.69.25,1,1,2.48,2,5,2.94,7.44a11.37,11.37,0,0,1-2.18,1,4.83,4.83,0,0,0-1.81.8l-.3.16a.17.17,0,0,0-.24.12l-.69.31a1.13,1.13,0,0,0-.71.32A43.63,43.63,0,0,1,75.7,140.5Z"/><path class="cls-11" d="M13.49,15.43c.21,3.71,2.24,6.81,3.36,10.22.28.83.84,1,1.7.8a8.62,8.62,0,0,1,2.59-.63l.07.18-1.58.7a2.94,2.94,0,0,0-1.62.78l-.85.41a1.4,1.4,0,0,0-1.07.57l-.33.16c-.4.11-.84.16-1.06.58l-.33.17a6,6,0,0,0-1.79.9c-1.34.52-1.4.5-2-.76C9.46,27,8.69,24.25,7.7,21.63a1.92,1.92,0,0,1,.51-2.24A26.89,26.89,0,0,1,13.49,15.43Z"/><path class="cls-11" d="M65.19,145.93c-.68,1.23,0,2.28.46,3.35.92,2.32,1.87,4.64,2.79,6.95.3.74,1.11.86,1.59,1.37a34,34,0,0,1-6.74.9,1.9,1.9,0,0,1-1.83-1.06,24.21,24.21,0,0,1-1.32-2.94c-.73-1.7-1.49-3.4-2.18-5.12-.49-1.23-.44-1.35.77-1.76,1.48-.49,3-.9,4.49-1.34a.72.72,0,0,0,.79-.23l1.1-.31Z"/><path class="cls-12" d="M14.47,30.75c.28.21.55-.08.87-.07-.87.9-.83,1.16,0,2a7.59,7.59,0,0,1,1,1.22c.79,1.1,1.53,1.23,2.57.37.31-.26.44-.2.55.11,1.14,3.15,2.75,6.13,3.47,9.41.29,1.31.51,2.65.75,4,.08.47.38,1.18-.7,1a1.06,1.06,0,0,0-1,1.44c.09.32.28.63-.19.8-.1-.2-.23-.39-.32-.59L14.11,32C13.92,31.46,13.62,30.93,14.47,30.75Z"/><path class="cls-12" d="M32.29,77.1c.53-.14.62.28.7.61.19.77.47,1.21,1.39.83a1.58,1.58,0,0,1,1.29,0c.86.36,1.54.6,1.91,1.64,1.17,3.29,2.52,6.5,3.8,9.75a2.71,2.71,0,0,1,.28,1.6,1.48,1.48,0,0,0,.3,1.29c.41.46.16,1,.07,1.49s-.38.18-.59,0A11.76,11.76,0,0,1,39,91.72c-.4-.49-.64-.4-1-.2a.33.33,0,0,0-.34-.14L35,84.71c.34-.36,0-.68-.09-1C34,81.51,33.16,79.31,32.29,77.1Z"/><path class="cls-13" d="M20.25,31.43q1.17,3,2.35,6c.12.37.24.74.38,1.1C30.15,56.32,37,74.27,44.28,92c.68,1.65,1.33,3.32,2,5l1.09,3c-.37.17-.51,0-.64-.35s-.16-.69-.51-.89c-2.81-7.08-5.64-14.16-8.44-21.25Q29,55.36,20.32,33.22a27,27,0,0,0-1.5-3.8c-.2-.34-.37-.75.26-.88A16.5,16.5,0,0,0,20.25,31.43Z"/><path class="cls-8" d="M92.06,151.52c0,.57,0,1.14,0,1.71a3.81,3.81,0,0,1-2.8,3.85c-2.67.92-5.23,2.15-7.91,3-.35-1.1-1.24-2.06-.92-3.35a19.83,19.83,0,0,1,2.82-1.37c.34.21.61,0,.91-.14,1.57-.49,3-1.4,4.51-2A17.55,17.55,0,0,0,92.06,151.52Z"/><path class="cls-2" d="M81.52,122.66a8.26,8.26,0,0,0-1.07-2.52c-1.32-3.35-2.63-6.7-4-10-.74-1.87-1.49-3.73-2.24-5.6-.09-.27-.16-.56-.27-.83Q71.1,96.34,68.2,89c-.87-2.17-1.79-4.32-2.68-6.48l-.29-.94a8.91,8.91,0,0,0-1.36-3.45l-2.16-5.47A9.75,9.75,0,0,0,60.28,69l-1.57-3.8q-.81-2.28-1.64-4.56c.52,0,.46.48.59.77A19,19,0,0,0,59.9,66q2.88,7.32,5.74,14.63a43.79,43.79,0,0,0,1.9,5.59,95.72,95.72,0,0,0,3.69,9.13c1.17,2.46,2,5.07,3.07,7.6.12.32.14.73.53.89q2.85,7.18,5.69,14.37c-.18.27,0,.5.07.74.7,2.53,1.74,4.94,2.68,7.39.12.32.36.63.22,1L82,123.93A2.56,2.56,0,0,0,81.52,122.66Z"/><path class="cls-12" d="M50,122c.32,0,.39.31.49.54.21.5.68.9,1.09.85,1.76-.2,2.29,1.14,2.84,2.27a47,47,0,0,1,2.49,7.43,5.5,5.5,0,0,1-.3,2.33,4.74,4.74,0,0,0,.2,3.13c.16.35.28.69-.24.86-.72-1.78-1.46-3.55-2.16-5.34-1.51-3.84-3-7.7-4.51-11.55A.4.4,0,0,0,50,122Z"/><path class="cls-12" d="M55.76,121.07c.92-.53,1.22.39,1.57.8.86,1,1.87,1.95,1.68,3.53a4.08,4.08,0,0,0,.47,1.87c.88,2.13,1.67,4.31,2.57,6.43.48,1.12.37,2.34.89,3.47a24.08,24.08,0,0,0,1.92,3.58c1.06,1.54,2.69,1.23,4.25,1.14,1-.06,2-.6,2.91,0l-.7.38-.56.2-6,1.93c-.53-1.27-.63-2.69-1.46-3.85-.24-.63-.48-1.27-.71-1.91-.89-2.45-1.82-4.87-2.91-7.23-1-3.11-2.49-6.06-3.61-9.15A3.13,3.13,0,0,1,55.76,121.07Z"/><path class="cls-13" d="M83.22,155.39a19.83,19.83,0,0,0-2.82,1.37,12.75,12.75,0,0,0-3,1.17c-1.62.88-3,1.91-2.71,4.06-1.77-.24-2.93-1.44-4.1-2.6-.47-.46,0-.66.38-.78,1.15-.34,2.32-.6,3.45-1,2.87-1,5.73-2.09,8.58-3.18a20.67,20.67,0,0,1,3-1.24,1.38,1.38,0,0,1-.12.34C85.18,154.48,84,154.72,83.22,155.39Z"/><path class="cls-2" d="M45.11,18.34c-.37.19-.75.38-1.13.55-1.26.57-1.26.56-.76,1.81q9.06,22.91,18.11,45.83a1.23,1.23,0,0,1,.18.75c-.43-.12-.44-.53-.57-.85L42.76,20.38c-.47-1.19-.45-1.28.73-1.69C44,18.51,44.48,18,45.11,18.34Z"/><path class="cls-11" d="M74.65,162c-.29-2.15,1.09-3.18,2.71-4.06a12.75,12.75,0,0,1,3-1.17c-.32,1.29.57,2.25.92,3.35a58.31,58.31,0,0,1-5.72,1.94A1.3,1.3,0,0,1,74.65,162Z"/><path class="cls-13" d="M59.9,66a19,19,0,0,1-2.24-4.57c-.13-.29-.07-.77-.59-.77-.13-.26-.29-.5-.4-.77q-3.7-9.37-7.4-18.75c-.09-.24-.13-.5-.2-.75l.45-.15c.15.36.32.71.46,1.07Q53.42,50,56.86,58.7c.13.32.16.71.5.92C58.21,61.75,59.06,63.87,59.9,66Z"/><path class="cls-13" d="M50,122a.4.4,0,0,1-.1.52c-.15-.29-.31-.57-.43-.87Q43.69,107,37.93,92.4c-.13-.33-.21-.68-.31-1a.33.33,0,0,1,.34.14q1.49,3.7,2.95,7.39l.1.25q4.16,10.52,8.3,21l.39,1Z"/><path class="cls-13" d="M32.29,77.1c.87,2.21,1.74,4.41,2.59,6.63.12.3.43.62.09,1-.14-.29-.31-.57-.43-.87Q28.84,69.41,23.16,55a7.22,7.22,0,0,1-.23-.83c.19-.05.29.08.39.2l.6,1.53.12.3.39,1c.06.16.12.32.19.48l2.46,6.25Z"/><path class="cls-13" d="M55.76,121.07a3.13,3.13,0,0,0,.34,1.2c1.12,3.09,2.57,6,3.61,9.15l-.52.25-7.1-18c.12-.19.07-.48.36-.56.37.23.4.65.54,1a45.77,45.77,0,0,0,2.1,5.31C55.12,120.05,55.59,120.5,55.76,121.07Z"/><path class="cls-13" d="M83.49,127.35c.14-.38-.1-.69-.22-1-.94-2.45-2-4.86-2.68-7.39-.07-.24-.25-.47-.07-.74q3.26,8.21,6.52,16.41c.21.52.44,1-.36,1.19-1-2.48-2-5-2.94-7.44C83.62,128,83.37,127.74,83.49,127.35Z"/><path class="cls-11" d="M83.22,155.39c.82-.67,2-.91,2.57-1.87a1.38,1.38,0,0,0,.12-.34l5.24-2.38c1-.43,1-.41.91.72a17.55,17.55,0,0,1-3.42,1.76c-1.54.57-2.94,1.48-4.51,2C83.83,155.34,83.56,155.6,83.22,155.39Z"/><path class="cls-2" d="M59.19,131.67l.52-.25c1.09,2.36,2,4.78,2.91,7.23.23.64.47,1.28.71,1.91-.19.16-.09.51-.4.58s-.4-.39-.5-.65q-1.59-4-3.15-8C59.17,132.24,59,132,59.19,131.67Z"/><path class="cls-2" d="M62.44,69.62c.24.16.28.43.38.67q4,10.14,8,20.27a5,5,0,0,1,.19.74c-.41-.08-.41-.46-.53-.74q-4-10-7.9-20C62.45,70.25,62.21,70,62.44,69.62Z"/><path class="cls-2" d="M46.21,98.75c.35.2.37.58.51.89s.27.52.64.35q1.52,3.92,3,7.85l-.5.19c-.36-.06-.41-.38-.51-.64-1-2.61-2.06-5.21-3.09-7.82C46.18,99.31,46,99.05,46.21,98.75Z"/><path class="cls-13" d="M74.83,103.84c-.39-.16-.41-.57-.53-.89-1-2.53-1.9-5.14-3.07-7.6a95.72,95.72,0,0,1-3.69-9.13,43.79,43.79,0,0,1-1.9-5.59Q70.24,92.23,74.83,103.84Z"/><path class="cls-13" d="M41.22,19.73c.39-.13.52.12.63.41q3.54,9,7.06,18.06l-.14,0q-1.22-3-2.44-6.08c-1.5-3.71-2.81-7.5-4.58-11.1-.13-.27-.11-.7-.6-.62L41,20.07C41.12,20,41.23,19.92,41.22,19.73Z"/><path class="cls-4" d="M48.77,38.25l.14,0q4.23,10.71,8.45,21.42c-.34-.21-.37-.6-.5-.92Q53.41,50,50,41.31c-.14-.36-.31-.71-.46-1.07Z"/><path class="cls-12" d="M20.25,31.43a16.5,16.5,0,0,1-1.17-2.89l0,0,.17-.1,1.24-.54.25,0a1.68,1.68,0,0,0,.08,1.7A1.31,1.31,0,0,1,20.25,31.43Z"/><path class="cls-13" d="M62.93,141.14c.31-.07.21-.42.4-.58.83,1.16.93,2.58,1.46,3.85-1.06.34-.7-.72-1.05-1.07l-.2-.53Z"/><path class="cls-13" d="M49.88,108l.5-.19a13.74,13.74,0,0,1,1.36,3.24l-.59.21Z"/><path class="cls-2" d="M51.15,111.29l.59-.21.71,2c-.29.08-.24.37-.36.56A3,3,0,0,1,51.15,111.29Z"/><path class="cls-2" d="M75,101.47a6,6,0,0,1,.88,2.21A2.81,2.81,0,0,1,75,101.47Z"/><path class="cls-2" d="M12.58,30.27a6,6,0,0,1,1.79-.9A1.86,1.86,0,0,1,12.58,30.27Z"/><path class="cls-2" d="M21.21,26l-.07-.18a5.75,5.75,0,0,1,1.67-.6C22.48,25.91,21.86,26,21.21,26Z"/><path class="cls-2" d="M74.14,99.28a3.4,3.4,0,0,1,.65,1.65A1.63,1.63,0,0,1,74.14,99.28Z"/><path class="cls-2" d="M18,27.48a2.94,2.94,0,0,1,1.62-.78C19.29,27.37,18.66,27.44,18,27.48Z"/><path class="cls-2" d="M20.71,27.9l-.25,0a1,1,0,0,1,1.26-.6C21.5,27.67,21,27.67,20.71,27.9Z"/><path class="cls-2" d="M32.25,23.05a3.25,3.25,0,0,1-1.3.51A.83.83,0,0,1,32.25,23.05Z"/><path class="cls-2" d="M16.09,28.46a1.4,1.4,0,0,1,1.07-.57C17,28.42,16.57,28.51,16.09,28.46Z"/><path class="cls-2" d="M88.38,135a3.6,3.6,0,0,1,1.16-.43A.84.84,0,0,1,88.38,135Z"/><path class="cls-11" d="M76.8,155.66a.83.83,0,0,1,1.15-.38A1.3,1.3,0,0,1,76.8,155.66Z"/><path class="cls-2" d="M14.7,29.2c.22-.42.66-.47,1.06-.58C15.63,29.23,15.18,29.24,14.7,29.2Z"/><path class="cls-2" d="M59.37,146.09a1.89,1.89,0,0,1,1-.23C60.11,146.32,59.84,146.61,59.37,146.09Z"/><path class="cls-2" d="M59.74,135.05a1.3,1.3,0,0,1-.38-.93C59.87,134.27,60,134.59,59.74,135.05Z"/><path class="cls-13" d="M82.69,137.62a4.83,4.83,0,0,1,1.81-.8A3.09,3.09,0,0,1,82.69,137.62Z"/><path class="cls-2" d="M63.54,142.81l.2.53-.53.21L63,143Z"/><path class="cls-2" d="M87.47,136.91a.94.94,0,0,1-.72.33C86.86,136.85,87.12,136.78,87.47,136.91Z"/><path class="cls-2" d="M85,138.1a.92.92,0,0,1-.72.31A.48.48,0,0,1,85,138.1Z"/><path class="cls-2" d="M64,146.06a.74.74,0,0,1-.79.22C63.4,145.92,63.66,145.82,64,146.06Z"/><path class="cls-11" d="M74,156.55c.16-.36.41-.46.75-.24A.58.58,0,0,1,74,156.55Z"/><path class="cls-12" d="M57.46,141.63c.49,0,.57.18.21.53Z"/><path class="cls-2" d="M89.59,135.87a.63.63,0,0,1-.55.26C89.1,135.79,89.29,135.71,89.59,135.87Z"/><path class="cls-11" d="M69.24,144.48c-.09.39-.29.42-.59.2A.5.5,0,0,1,69.24,144.48Z"/><path class="cls-2" d="M65.19,145.93l-.08-.19c.14-.33.34-.39.61-.13Z"/><path class="cls-2" d="M98.26,144.44c0-.23-.07-.48.1-.7C98.5,144,98.62,144.25,98.26,144.44Z"/><path class="cls-13" d="M80.75,138.53a1.13,1.13,0,0,1,.71-.32A.52.52,0,0,1,80.75,138.53Z"/><path class="cls-2" d="M27.42,23a.12.12,0,0,1,.08.15c0,.28-.12.39-.39.21Z"/><path class="cls-2" d="M98.32,143.18a.35.35,0,0,1-.08-.41C98.52,142.86,98.48,143,98.32,143.18Z"/><path class="cls-12" d="M56.88,140.17c.11,0,.25,0,.3.09s-.07.2-.16.26Z"/><path class="cls-2" d="M70.76,142.48l.56-.2C71.2,142.56,71,142.63,70.76,142.48Z"/><path class="cls-13" d="M82.15,137.9a.17.17,0,0,1,.24-.12A.17.17,0,0,1,82.15,137.9Z"/><path class="cls-2" d="M19.22,28.41l-.17.1C19,28.37,19.09,28.33,19.22,28.41Z"/><path class="cls-14" d="M90.84,130.54c-.25.09-.48.18-.67-.14-.64-1.11-1.35-2.19-1.93-3.34-.7-1.39-1.27-2.84-1.92-4.26-6-13.11-10.85-26.66-16.16-40-1.06-2.65-2.11-5.33-3-8C65.67,70,63.8,65.48,61.86,61c-2.3-5.33-4.41-10.73-6.46-16.14-1.43-3.79-2.68-7.65-3.8-11.55-.68-2.33-1.52-4.62-2.29-6.93-.11-.33-.32-.65-.11-1A4.35,4.35,0,0,1,50,27Q70.34,78.43,90.63,129.89C90.71,130.1,90.77,130.32,90.84,130.54Z"/><path class="cls-14" d="M78.57,121.72a29.43,29.43,0,0,1,1.48,5.33c.59,3.12-.54,5.66-2.08,8.25a8,8,0,0,1-4.54,3.82c-1.65.42-1.83.3-2.57-1.73a.41.41,0,0,0,0-.44l1.18-2.36a.52.52,0,0,0,.37-.57l1.11-2.09a.59.59,0,0,0,.36-.59,5.55,5.55,0,0,0,.07-4.18,4.05,4.05,0,0,0-3.81-2.82c-1.88-.09-3.76-.11-5.64-.17l-1.16,0a.43.43,0,0,0-.55-.17l-.15,0c-.27-.42-.75-.48-1.15-.68-1.93-.94-2.95-3.76-2-5.47a1,1,0,0,1,0,.93,1.28,1.28,0,0,0-.09.94c.09.25.08.68.46.62s.33-.41.31-.72-.34-.57,0-.66c.64-.15.36-.34.11-.59s-.49-.52-.73-.77a2.7,2.7,0,0,1,.71-2,.86.86,0,0,1,0,.57c-.12.44.54,1.12.9.88.95-.63,2.07-1,2.57-2.24s-.2-2-.27-3a.59.59,0,0,0-.75-.56c0-.22.08-.44.11-.66.3-2.22-.06-4.48-2.94-4.89a9.18,9.18,0,0,1-1-.23c-3.2-.8-5-2.65-5.12-6.07a20.6,20.6,0,0,1,.82-5.75A7.91,7.91,0,0,0,53,85.89a35.39,35.39,0,0,0-5-4.41,22.12,22.12,0,0,1-4.32-3.58.63.63,0,0,1,.63.14,19.79,19.79,0,0,0,2,1.64c.25.17,1,1.35,1-.2,0-.16.3-.33.48-.46a4.69,4.69,0,0,1,2-1c.23,0,.51,0,.42-.37-.22-.8.52-1.44.36-2.23,0-.19,0-.48.21-.5.93-.12.21-.53.16-.81a35.45,35.45,0,0,1,3.61,1.77c.38.17.7.47,1.16.41l.69.53a.39.39,0,0,0,.52.24,22,22,0,0,0,3.31,2l.57.78c1.89,2.73,2.81,5.64,1.94,9a45.28,45.28,0,0,1-3.16,7.73,5.49,5.49,0,0,0,1.71,6.53c1.75,1.2,3.78,1.93,5.45,3.27l.39.66a.31.31,0,0,0,.29.3l.18.35c0,.22.1.43.35.5l.87,2.18a.29.29,0,0,0,0,.41,12.46,12.46,0,0,1,.34,3.22.33.33,0,0,0,0,.42,1.28,1.28,0,0,0,.54.88,6.75,6.75,0,0,0,2.13.83.66.66,0,0,0,.8.29A8.46,8.46,0,0,1,76.88,119a.35.35,0,0,0,.3.3l.8,1.36a.33.33,0,0,0,.27.32Z"/><path class="cls-14" d="M32.23,35.93c.78,2.87,3.13,3.93,5.59,4.92,1.92.78,3.85,1.58,5.72,2.48s3.12,4.35,2.87,6.54a16.39,16.39,0,0,1-1.94,5.48,8.89,8.89,0,0,0-1.4,4.71.54.54,0,0,1-.17.52c-.46-.13-1.09.16-1.33-.53,0,0-.23.06-.36.09,0-.22.09-.45.13-.68a.29.29,0,0,0,0-.16.42.42,0,0,0,.21-.53,1.19,1.19,0,0,0,.05-1,4.64,4.64,0,0,0-.94-3.91l-.55-1.25a.32.32,0,0,0-.28-.31L39.6,52c-.05-.26-.23-.32-.46-.32A15.64,15.64,0,0,0,36.07,48c-2-2.06-4.51-3.62-6.56-5.66a4.31,4.31,0,0,1-1.19-1.52c.52-.07.72-.52,1-1.06.06.3.07.42.1.54s0,.33.29.27a2.81,2.81,0,0,1,1.51-1.86.26.26,0,0,0,.14-.21C31.14,37.48,32.35,36.92,32.23,35.93Z"/><path class="cls-15" d="M41.21,60.14c.13,0,.35-.1.36-.09.24.69.87.4,1.33.53,0,.11,0,.23.07.34-.15.09-.28.2-.23.38a29.15,29.15,0,0,1,.4,3.08c0,.34.1.73.49.9l.95,2.37c-.16.29-.07.47.25.54l.12.29c0,.25.18.38.44.32.15.27.29.54.43.81s.13.59.55.48L48,71.91c.06.26.21.38.48.3l.17.28c.07.27.22.38.5.3a.35.35,0,0,1,.08.13.35.35,0,0,0,.48.28.41.41,0,0,1,.1.13.35.35,0,0,0,.49.27.38.38,0,0,1,.09.13.35.35,0,0,0,.49.27.42.42,0,0,1,.09.14c0,.28.77.69-.16.81-.2,0-.24.31-.21.5.16.79-.58,1.43-.36,2.23.09.33-.19.33-.42.37a4.69,4.69,0,0,0-2,1c-.18.13-.47.3-.48.46-.07,1.55-.8.37-1,.2a19.79,19.79,0,0,1-2-1.64.63.63,0,0,0-.63-.14l-.17-.29c-.21-.34-.33-.81-.88-.76l-.17-.29c-.53-.68-1.07-1.36-1.59-2-.16-.22-.17-.59-.58-.52L40,73.44a4.54,4.54,0,0,0-.62-1.9l-.18-.49c.14-.18.13-.32-.12-.38l-.15-.57a12.39,12.39,0,0,0,.29-3.89h0a.36.36,0,0,0,.19-.52l-.14-.53c.57-.66.41-1.62.94-2.29a.35.35,0,0,0,.18-.53A9.71,9.71,0,0,1,41.21,60.14Z"/><path class="cls-6" d="M56.41,76.85l-.69-.53c.24-.33,0-.62-.09-.92a5.88,5.88,0,0,1-.35-2.17A2.32,2.32,0,0,0,55,71.74c-.49-.75-.06-1.72-.45-2.53,1-.78.76-2.08,1.3-3,.29-.52.45.34.8-.16,0-.08-.34-.35-.1-.66.35.1.34.43.46.67s-.09.53.23.57.48-.27.48-.51c0-.75.56-.73,1-.85.52,1.26,1,2.53,1.57,3.8a11.28,11.28,0,0,0,1.43,3.63l2.16,5.47a9.88,9.88,0,0,0,1.36,3.45l.29.94c-.44.09-1,.64-1.31.07-.63-1-1.65-1.63-2.2-2.68a1.32,1.32,0,0,0-1.77-.76,22,22,0,0,1-3.31-2A.36.36,0,0,0,56.41,76.85Z"/><path class="cls-15" d="M32.23,35.93c.12,1-1.09,1.55-.85,2.59a.26.26,0,0,1-.14.21,2.81,2.81,0,0,0-1.51,1.86c-.24.06-.25-.12-.29-.27s0-.24-.1-.54c-.3.54-.5,1-1,1.06l-.31-.3a10.48,10.48,0,0,1-.29-9.06A10,10,0,0,1,35.52,25c.42.09.91.06,1.11.58a.36.36,0,0,0,.29.32l.52,1.38a.89.89,0,0,0-.32.82.38.38,0,0,0-.13.09.44.44,0,0,0-.3.49l-.45.26c-.25.05-.32.24-.33.47-.55.12-.76.69-1.22.93-.39-.16-.35.08-.29.32a.28.28,0,0,1-.15.08.84.84,0,0,0-.67,1.08h0c-.39.14-.65.35-.5.82a4,4,0,0,1-.67,1.53c-.52.31-.46.76-.31,1.24ZM29.7,39.38c0-.06,0-.14,0-.17s-.11,0-.17,0,0,.14,0,.17S29.64,39.38,29.7,39.38Z"/><path class="cls-6" d="M40.53,20.1a.31.31,0,0,1,.43,0l.19.38L45.8,32.38l1.71,4.46c-.58.19-1.12.34-.82,1.19.14.38-.33.64-.64.74s-.36-.3-.45-.52c-1.08-2.72-2.15-5.45-3.23-8.17A2.6,2.6,0,0,0,40,28.34c-.56-.05-2.32-1.64-2.36-2.31s-.81-1.25-.23-2.06a1.11,1.11,0,0,1-1.52-.35c-.21-.28.18-.33.36-.43.08.16.13.48.34.38a.84.84,0,0,0,.42-1c-.45,0-.42.53-.76.58-.2-.38-.29-.79.19-1a2.07,2.07,0,0,1,1.45-.13c.12,0,.26.36.34.22C38.81,21.34,40,21,40.53,20.1ZM43.4,31.28c.22-.35.32-.6,0-.82-.06,0-.23,0-.26,0C43,30.77,43.14,31,43.4,31.28Zm1.26,3c-.15.08-.11.21-.06.32s.11.26.26.2.12-.21.07-.32S44.83,34.26,44.66,34.3Z"/><path class="cls-15" d="M46,60.63A3,3,0,0,1,45.8,59a2.43,2.43,0,0,1,3.47-2,4,4,0,0,1,1.92,4.94,2.35,2.35,0,0,1-3.7.8A4.65,4.65,0,0,1,46,60.63Z"/><path class="cls-2" d="M47.51,36.84,45.8,32.38,41.15,20.45c.49-.08.47.35.6.62,1.77,3.6,3.08,7.39,4.58,11.1q1.23,3,2.44,6.08l.75,2-.45.15Z"/><path class="cls-14" d="M43.63,65.28c-.39-.17-.44-.56-.49-.9a29.15,29.15,0,0,0-.4-3.08c-.05-.18.08-.29.23-.38A39.87,39.87,0,0,1,43.63,65.28Z"/><path class="cls-14" d="M33.58,31.81a.84.84,0,0,1,.67-1.08A1.33,1.33,0,0,1,33.58,31.81Z"/><path class="cls-14" d="M32.1,35.41c-.15-.48-.21-.93.31-1.24A1.43,1.43,0,0,1,32.1,35.41Z"/><path class="cls-14" d="M33.08,32.64c-.15-.47.11-.68.5-.82A.88.88,0,0,1,33.08,32.64Z"/><path class="cls-10" d="M37.12,28.09a.89.89,0,0,1,.32-.82A.51.51,0,0,1,37.12,28.09Z"/><path class="cls-14" d="M44.83,68.19c-.32-.07-.41-.25-.25-.54C44.86,67.73,44.93,67.92,44.83,68.19Z"/><path class="cls-14" d="M46.37,70.09c-.42.11-.48-.19-.55-.48C46.15,69.6,46.3,69.8,46.37,70.09Z"/><path class="cls-14" d="M48.46,72.21c-.27.08-.42,0-.48-.3A.42.42,0,0,1,48.46,72.21Z"/><path class="cls-14" d="M50.86,74a.35.35,0,0,1-.49-.27A.39.39,0,0,1,50.86,74Z"/><path class="cls-14" d="M50.28,73.6a.35.35,0,0,1-.49-.27A.39.39,0,0,1,50.28,73.6Z"/><path class="cls-10" d="M36.92,25.89a.36.36,0,0,1-.29-.32C36.9,25.52,37.1,25.53,36.92,25.89Z"/><path class="cls-10" d="M36.69,28.67a.44.44,0,0,1,.3-.49C37.08,28.46,37,28.61,36.69,28.67Z"/><path class="cls-14" d="M49.69,73.2a.35.35,0,0,1-.48-.28A.39.39,0,0,1,49.69,73.2Z"/><path class="cls-10" d="M35.91,29.4c0-.23.08-.42.33-.47C36.31,29.21,36.16,29.34,35.91,29.4Z"/><path class="cls-14" d="M49.13,72.79c-.28.08-.43,0-.5-.3A.44.44,0,0,1,49.13,72.79Z"/><path class="cls-14" d="M34.4,30.65c-.06-.24-.1-.48.29-.32A.37.37,0,0,1,34.4,30.65Z"/><path class="cls-14" d="M45.39,68.8c-.26.06-.39-.07-.44-.32C45.17,68.48,45.36,68.53,45.39,68.8Z"/><path class="cls-12" d="M27.08,63.86l-2.46-6.25A.61.61,0,0,1,25,58c.7,1.77,1.39,3.54,2.09,5.3A.59.59,0,0,1,27.08,63.86Z"/><path class="cls-12" d="M23.92,55.86l-.6-1.53A1.4,1.4,0,0,1,23.92,55.86Z"/><path class="cls-12" d="M49.7,121.18l-.39-1A.69.69,0,0,1,49.7,121.18Z"/><path class="cls-12" d="M24.43,57.13l-.39-1A.68.68,0,0,1,24.43,57.13Z"/><path class="cls-12" d="M41,99.16l-.1-.25C41.09,98.94,41.12,99,41,99.16Z"/><path class="cls-10" d="M40,73.44l.24.55.42,1.07c-.53.74.28.94.59,1.35l-.16-.72c.58.08.67.9,1.32.87l.17.29a1,1,0,0,0,.88.76l.17.29a22.12,22.12,0,0,0,4.32,3.58,35.39,35.39,0,0,1,5,4.41,7.91,7.91,0,0,1,1.68,7.81,20.6,20.6,0,0,0-.82,5.75c.1,3.42,1.92,5.27,5.12,6.07a9.18,9.18,0,0,0,1,.23c2.88.41,3.24,2.67,2.94,4.89,0,.22-.07.44-.11.66l-.3.18a.38.38,0,0,0-.29.47.27.27,0,0,0-.12.09.41.41,0,0,0-.28.49c-.85.87-1,2.07-1.46,3.11a2.7,2.7,0,0,0-.71,2,2.72,2.72,0,0,0-.11.25c-1,1.71,0,4.53,2,5.47.4.2.88.26,1.15.68a4.84,4.84,0,0,1-2.85-.4,1.8,1.8,0,0,1-.81-.92,11.61,11.61,0,0,0-2.31-2.91c-.43-.36.43-.69,0-1s-.33.75-.78.27c-.08-.09,0-.31-.17-.39-.41.13-.19.72-.64.8a46.64,46.64,0,0,1-2.1-5.32c-.14-.35-.17-.77-.54-1l-.71-2a13.74,13.74,0,0,0-1.36-3.24q-1.5-3.93-3-7.85c-.36-1-.73-2-1.09-3,.56-.15.44-.49.3-.91-1.07-3.15-2.2-6.28-3.35-9.41S41,80.16,39.64,77c.47-.18,1-.41.6-1a17.78,17.78,0,0,1-.9-2,8.88,8.88,0,0,1-.68-2.21.51.51,0,0,1,.34-.62l.18-.06.18.49C39,72.34,39.46,72.9,40,73.44Z"/><path class="cls-3" d="M72.43,134a.52.52,0,0,1-.37.57C71.93,134.24,72.17,134.12,72.43,134Z"/><path class="cls-3" d="M73.9,131.34a.59.59,0,0,1-.36.59C73.39,131.56,73.64,131.44,73.9,131.34Z"/><path class="cls-10" d="M62.81,124a.43.43,0,0,1,.55.17A.35.35,0,0,1,62.81,124Z"/><path class="cls-3" d="M70.88,137a.41.41,0,0,1,0,.44C70.47,137.23,70.65,137.09,70.88,137Z"/><path class="cls-7" d="M78.4,147c-.41-1.06-.67-1.84-1-2.57a.91.91,0,0,1,.37-1.3,19.65,19.65,0,0,1,3.64-1.82c3.14-1.46,6.29-2.88,9.33-4.55a2.68,2.68,0,0,1,3.24,1.2,37.18,37.18,0,0,1,1.52,3.91A3,3,0,0,1,94,145.16a44.1,44.1,0,0,1-4.74,3,62.3,62.3,0,0,1-7.15,3.27c-1.23.47-1.48.38-2-.8A26.77,26.77,0,0,1,78.4,147Z"/><path class="cls-3" d="M39,71.11a.51.51,0,0,0-.34.62,8.88,8.88,0,0,0,.68,2.21,17.78,17.78,0,0,0,.9,2c.44.6-.13.83-.6,1-.57-1.51-1.1-3-1.65-4.57-1.76-4.92-3.91-9.7-5.56-14.68a46.37,46.37,0,0,0-2.35-5.55c-1.09-2.25-1.88-4.62-2.9-6.91q-1.86-4.17-3.6-8.41c.45-.13.09-.57.31-.83.76.36.16,2,1.62,1.69.2.3-.08.52-.15.78-.13.49-.14.46.41.36s.65.56.68.74c.15,1,.82,1,1.56,1l.31.3a4.31,4.31,0,0,0,1.19,1.52c2,2,4.52,3.6,6.56,5.66a15.64,15.64,0,0,1,3.07,3.61c0,.25.18.39.46.32l.19.34c-.17.35,0,.36.28.31.19.42.37.84.55,1.25-.4,1-.54,2.07.38,2.87a2.09,2.09,0,0,1,.56,1,1.19,1.19,0,0,1-.05,1,.35.35,0,0,0-.21.53.29.29,0,0,1,0,.16c-.51-.05-.48.93-1.15.59s-.72.25-.63.64a14.18,14.18,0,0,0,.64,1.71v.46c-.53.67-.37,1.63-.94,2.29-.26.18-.79.29-.18.69l.13.36h0a5.06,5.06,0,0,0-.29,3.89l.15.57Z"/><path class="cls-12" d="M23.58,36.83q1.74,4.23,3.6,8.41c1,2.29,1.81,4.66,2.9,6.91a46.37,46.37,0,0,1,2.35,5.55c1.65,5,3.8,9.76,5.56,14.68.55,1.52,1.08,3.06,1.65,4.57C41,80.16,42,83.46,43.22,86.71S45.5,93,46.57,96.12c.14.42.26.76-.3.91-.66-1.67-1.31-3.34-2-5C37,74.27,30.15,56.32,23,38.5c-.14-.36-.26-.73-.38-1.1.5-.35,0-.68,0-1s-.21-.39,0-.52.4.08.51.28S23.25,36.72,23.58,36.83Z"/><path class="cls-3" d="M23.76,35.36a.35.35,0,0,1-.19.38c-.11.06-.28.11-.26-.09a.78.78,0,0,1,.23-.41C23.61,35.17,23.71,35.22,23.76,35.36Z"/><path class="cls-6" d="M76.88,119a8.46,8.46,0,0,0-4.19-2.55.53.53,0,0,0-.8-.29,6.75,6.75,0,0,1-2.13-.83,1.28,1.28,0,0,1-.54-.88c.22-.14.35-.29,0-.42a12.46,12.46,0,0,0-.34-3.22c.2-.15.32-.3,0-.41L68,108.25c.18-.38.06-.54-.35-.5l-.18-.35c.17-.35,0-.35-.29-.3l-.39-.66c.27-.14.63-.32.8,0,.38.65,1.19.57,1.58,1s1.16-.45,1.38.4c.66-.45,1.08.39,1.72.32,0-.66-.56-1.2-.5-2,.75.61.58,1.64,1.41,2.22-.16-1.12-.85-1.94-.9-3,.6.4.47,1.11,1,1.47a1.89,1.89,0,0,0,.23-1.16c-.13-.64.17-1,.77-1.1.75,1.87,1.5,3.73,2.24,5.6,1.33,3.34,2.64,6.69,4,10a7.49,7.49,0,0,1-1.88,1.58l-.32-.71c.18-.34,0-.36-.27-.32l-.8-1.36C77.34,119,77.13,119,76.88,119Z"/><path class="cls-6" d="M81.52,122.66a2.56,2.56,0,0,1,.5,1.27A.89.89,0,0,1,81.52,122.66Z"/><path class="cls-10" d="M74.25,104.5c-.6.13-.9.46-.77,1.1a1.89,1.89,0,0,1-.23,1.16c-.54-.36-.41-1.07-1-1.47.05,1.11.74,1.93.9,3-.83-.58-.66-1.61-1.41-2.22-.06.8.52,1.34.5,2-.64.07-1.06-.77-1.72-.32-.22-.85-.92.1-1.38-.4s-1.2-.34-1.58-1c-.17-.29-.53-.11-.8,0-1.67-1.34-3.7-2.07-5.45-3.27a5.49,5.49,0,0,1-1.71-6.53,45.28,45.28,0,0,0,3.16-7.73c.87-3.35,0-6.26-1.94-9l-.57-.78A1.32,1.32,0,0,1,62,79.9c.55,1,1.57,1.69,2.2,2.68.35.57.87,0,1.31-.07.89,2.16,1.81,4.31,2.68,6.48q2.91,7.33,5.78,14.68C74.09,103.94,74.16,104.23,74.25,104.5Z"/><path class="cls-13" d="M61.71,72.65A11.28,11.28,0,0,1,60.28,69,9.75,9.75,0,0,1,61.71,72.65Z"/><path class="cls-13" d="M65.23,81.57a9.88,9.88,0,0,1-1.36-3.45A8.91,8.91,0,0,1,65.23,81.57Z"/><path class="cls-15" d="M62.11,112a.27.27,0,0,1,.12-.09.34.34,0,0,0,.29-.47l.3-.18a.59.59,0,0,1,.75.56c.07,1,.71,1.92.27,3s-1.62,1.61-2.57,2.24c-.36.24-1-.44-.9-.88a.86.86,0,0,0,0-.57c.47-1,.61-2.24,1.46-3.11A.34.34,0,0,0,62.11,112Z"/><path class="cls-15" d="M59.55,117.84a2.72,2.72,0,0,1,.11-.25c.24.25.48.52.73.77s.53.44-.11.59c-.37.09-.05.43,0,.66s0,.67-.31.72-.37-.37-.46-.62a1.28,1.28,0,0,1,.09-.94A1,1,0,0,0,59.55,117.84Z"/><path class="cls-10" d="M71.89,116.19a.53.53,0,0,1,.8.29A.66.66,0,0,1,71.89,116.19Z"/><path class="cls-10" d="M67.61,107.75c.41,0,.53.12.35.5C67.71,108.18,67.65,108,67.61,107.75Z"/><path class="cls-10" d="M56.41,76.85a.36.36,0,0,1,.52.24A.39.39,0,0,1,56.41,76.85Z"/><path class="cls-10" d="M67.14,107.1c.25,0,.46,0,.29.3A.31.31,0,0,1,67.14,107.1Z"/><path class="cls-10" d="M68.83,110.43c.35.11.23.26,0,.41A.29.29,0,0,1,68.83,110.43Z"/><path class="cls-10" d="M69.2,114.06c.37.13.24.28,0,.42A.33.33,0,0,1,69.2,114.06Z"/><path class="cls-3" d="M76.88,119c.25,0,.46-.07.3.3A.35.35,0,0,1,76.88,119Z"/><path class="cls-3" d="M78,120.69c.27,0,.45,0,.27.32A.33.33,0,0,1,78,120.69Z"/><path class="cls-10" d="M41.56,57.76a2.09,2.09,0,0,0-.56-1c-.92-.8-.78-1.84-.38-2.87A4.64,4.64,0,0,1,41.56,57.76Z"/><path class="cls-10" d="M40.2,62.4a14.18,14.18,0,0,1-.64-1.71c-.09-.39-.19-1,.63-.64s.64-.64,1.15-.59c0,.23-.09.46-.13.68a9.61,9.61,0,0,0-.84,2.2A.49.49,0,0,1,40.2,62.4Z"/><path class="cls-10" d="M39.6,52c-.28.07-.41-.07-.46-.32C39.37,51.63,39.55,51.69,39.6,52Z"/><path class="cls-10" d="M40.07,52.6c-.26,0-.45,0-.28-.31A.32.32,0,0,1,40.07,52.6Z"/><path class="cls-10" d="M41.3,59.3a.35.35,0,0,1,.21-.53A.42.42,0,0,1,41.3,59.3Z"/><path class="cls-14" d="M38.91,70.1a5.06,5.06,0,0,1,.29-3.89A12.39,12.39,0,0,1,38.91,70.1Z"/><path class="cls-14" d="M40.64,75.06,40.22,74c.41-.07.42.3.58.52.52.69,1.06,1.37,1.59,2-.65,0-.74-.79-1.32-.87C41,75.46,40.92,75.18,40.64,75.06Z"/><path class="cls-14" d="M40,73.44c-.52-.54-.94-1.1-.62-1.9A4.54,4.54,0,0,1,40,73.44Z"/><path class="cls-14" d="M43.44,77.61a1,1,0,0,1-.88-.76C43.11,76.8,43.23,77.27,43.44,77.61Z"/><path class="cls-10" d="M39.07,65.84c-.61-.4-.08-.51.18-.69,0,.18.09.35.14.53A3.18,3.18,0,0,0,39.07,65.84Z"/><path class="cls-14" d="M40.2,62.4a.49.49,0,0,0,.17-.06.34.34,0,0,1-.18.52C40.19,62.71,40.2,62.55,40.2,62.4Z"/><path class="cls-14" d="M39.07,65.84a3.18,3.18,0,0,1,.32-.16.36.36,0,0,1-.19.52Z"/><path class="cls-14" d="M39,71.11l.06-.44c.25.06.26.2.12.38Z"/><path class="cls-14" d="M29.7,39.38c-.06,0-.14,0-.17,0s0-.12,0-.17.15,0,.17,0S29.7,39.32,29.7,39.38Z"/><path class="cls-3" d="M36.29,23.19c.34-.05.31-.57.76-.58a.84.84,0,0,1-.42,1c-.21.1-.26-.22-.34-.38Z"/><path class="cls-3" d="M43.4,31.28c-.26-.29-.45-.51-.26-.81,0,0,.2,0,.26,0C43.72,30.68,43.62,30.93,43.4,31.28Z"/><path class="cls-3" d="M44.66,34.3c.17,0,.23.08.27.2s.09.26-.07.32-.21-.08-.26-.2S44.51,34.38,44.66,34.3Z"/><path class="cls-3" d="M40.64,75.06c.28.12.32.4.43.63s.11.48.16.72C40.92,76,40.11,75.8,40.64,75.06Z"/><path class="cls-14" d="M62.52,111.48a.34.34,0,0,1-.29.47A.38.38,0,0,1,62.52,111.48Z"/><path class="cls-14" d="M62.11,112a.34.34,0,0,1-.28.49A.41.41,0,0,1,62.11,112Z"/><path class="cls-1" d="M.09,136.64a.73.73,0,0,1,0-.58,1.3,1.3,0,0,0,.14-1.12l.18-.57a34.31,34.31,0,0,0,2.51-4.81c0-.07-.09-.22-.13-.33a20.52,20.52,0,0,1,1.79-3.45c.45,0,.49-.34.61-.63a.11.11,0,0,1,.14-.09,5.48,5.48,0,0,0,.57,0c.38,0,.86,0,1,.41s-.5.31-.63.61l-.35.07a.41.41,0,0,0-.45.28L3,131.29a.38.38,0,0,0,.06.52L1.51,135c-.31.05-.27.21-.1.39l-.08.39c-.34.13-.23.28,0,.44a3.09,3.09,0,0,0,.52,1.19c-.07.32.08.44.37.44l.32.36a3.42,3.42,0,0,0,2.1,1.91l.32.23c0,.36.12.48.47.38l.31.23c0,.45.27.54.64.48l.49.33c.28.54.63,1,1.32.91l1.33.8c-.09.28,0,.43.29.3l.43.09L12,145c0,.45.16.54.54.3l2.88,1.61a.34.34,0,0,0,.14.42c.92.48,1.85.94,2.78,1.4a.32.32,0,0,0,.41-.15l.62.09a10,10,0,0,0,1.89,1A.63.63,0,0,0,22,150a62.44,62.44,0,0,0,6.5,2.53c.26.23.52.47.9.24l1.83.5a.37.37,0,0,0,.52.06l3.06.53A1.77,1.77,0,0,0,36.7,153c1.58-2.53,2.89-5.2,4.29-7.83.25-.36.6-.69.29-1.19a2.71,2.71,0,0,0-1.68-.59l0-.08-.45-.35c-.47-.26-.85-.81-1.51-.44l-.32-.26c-.47-.26-.85-.83-1.51-.45l-1.2-.63c-.24-.32-.51-.58-1-.34a4.59,4.59,0,0,1-1.42-.61,2.43,2.43,0,0,0-2-.9l-.89-.4a5.53,5.53,0,0,0-1.92-1.08,6.38,6.38,0,0,0-2.46-1l-2.1-1a.41.41,0,0,0-.38-.2L19,133.75a.16.16,0,0,0-.13-.07l-1.7-1a.65.65,0,0,0-.86-.47,17.09,17.09,0,0,1-2.52-1.47c0-.25-.11-.36-.36-.21a6.86,6.86,0,0,1-1.66-1,.88.88,0,0,0-1-.6l-.49-.3c.1-.4-.25-.46-.48-.62s-.43-.26-.21-.52.36-.08.52,0,.28.27.44.38c1.53,1.06,1.75,1,2.59-.64Q40.18,73.93,67.24,20.63a12.71,12.71,0,0,1,1.41-2.55.57.57,0,0,0-.07-.86l-2-1c-.15-.43-1.08-.59-.43-1.29l.53.23c.15.4.38.55.76.25l1.25.53c.08.37.27.45.57.22l1.43.59c.08.35.27.42.57.23l3.37,1.51a1.52,1.52,0,0,0,1.62.73l3.59,1.55.8.54c.22.83,1.1.62,1.63,1a6.88,6.88,0,0,0,3.07,1.45A17.63,17.63,0,0,1,88,25.17c.19.7.77.77,1.34.84L91,27a.91.91,0,0,0,1,.63l.32.19c.18.74.76.8,1.37.84l.31.2c.11.64,1,1,.62,1.82l-2-1.17a1,1,0,0,0-1.23-.65L91,28.61l-.31-.16-1.18-.72c0-.28-.08-.39-.35-.22L76.49,21c0-.16-.06-.18-.18-.09l-6.54-3.11c-.1-.32-.23-.16-.41-.05-.6.39-.5,1.1-.78,1.63-1.51,2.88-3,5.79-4.43,8.7q-8,15.7-15.94,31.42c-.18.36-.68.71-.24,1.21a10.23,10.23,0,0,1-1,2.1.65.65,0,0,0-.45.88l-2,4c-.4.08-.45.45-.58.73Q40.17,75.69,36.51,83c-.16.3-.46.58-.28,1l-1,1.91a.47.47,0,0,0-.35.71c-.14.29-.26.59-.41.88Q29,98.32,23.43,109.2q-4.8,9.43-9.58,18.9c-.19.38-.57.78,0,1.19.9,1.07,2.22,1.4,3.41,2l1.73.94a.93.93,0,0,0,1,.58L28.36,137c.12.35.34.49.71.32v-.09l.86.54c.26.43.56.74,1.11.45l1,.48c0,.11,0,.28,0,.32s.26,0,.34-.15h.19l.86.49c.15.39.39.56.78.28v-.08l.31.23c0,.12.11.13.2.05.5-.13.5-.63.71-1,.12-.19.25-.38.35-.58l10.09-20c.4-.13.45-.53.62-.83,1.34-2.35,2.28-4.89,3.51-7.3,1.94-3.8,3.86-7.61,5.79-11.42L68,74.86,79.52,52.17q5.36-10.47,10.69-21c.31-.6.65-1.2,1-1.8l.34.16-.33.9c-.13.22-.27.44-.39.67l-7.5,15c-.13.26-.21.54-.32.81a7.23,7.23,0,0,0-1.12,2.3,45,45,0,0,0-3,5.94c-.14.22-.29.43-.41.66q-4.34,8.56-8.66,17.13c-.12.23-.19.48-.29.72q-2,3.5-3.64,7.14c-.19.33-.41.66-.58,1q-9.88,19.44-19.76,38.91a8.81,8.81,0,0,0-.38.89c-2.08,3.84-4,7.74-6,11.66-1.31,2-2.25,4.22-3.36,6.35-.21.41,0,.58.36.72l2.24.95c0,.12.09.14.2.08l.35.13c0,.3.21.28.41.13l.43-.12c.23,0,.36-.11.21-.36l.19-.35c.22,0,.28-.14.17-.34.75-1.6,1.7-3.1,2.34-4.75l2.29-4.3c.14,0,.17-.07.09-.19l.44-.86a.54.54,0,0,0,.36-.71l.35-.69a.35.35,0,0,0,.26-.53l.44-.87a1.23,1.23,0,0,0,.61-1.23l1.31-2.62c.27,0,.35-.26.45-.47l3.09-6.08c.1-.2.22-.4.08-.64a40.47,40.47,0,0,1,2.18-4.31.43.43,0,0,0,.38-.26l3.1-6.1a.62.62,0,0,0,.09-.64c.64-1.5,1.59-2.86,2.11-4.42.13-.23.27-.45.39-.68q4.56-8.92,9.12-17.85c.81-1.59,1.57-3.21,2.36-4.82a8.06,8.06,0,0,0,.47-.72l8.56-16.85a6.24,6.24,0,0,0,.27-.72c.13-.23.27-.45.39-.68L93.1,36.58c.78-1.54,1.53-3.09,2.29-4.63l.28-.5c.59-.21,1.39.6,1.82-.37l.31.17c0,.2,0,.36.2.43s.28-.06.37-.19c1-.66,1.2-1.88,1.83-2.81.38-.09.48-.33.38-.69.52-1.54,1.37-2.94,2-4.43.37-.89,1-1.85.19-2.81a26.36,26.36,0,0,0-5.44-4.94,43.53,43.53,0,0,0-5.23-3.31,12.92,12.92,0,0,0-3.22-1.71c-.33-.2-.65-.43-1-.6l-7.2-3.5A1.45,1.45,0,0,0,79.25,6a3.66,3.66,0,0,1-1.45-.58c0-.3-.18-.28-.38-.14A5,5,0,0,1,76,4.75,2.38,2.38,0,0,0,73.91,4l-.56-.2a3.86,3.86,0,0,0-3.49-.45.08.08,0,0,1-.12,0c-.2-.18-.38-.2-.56,0a3,3,0,0,0-1.59,1.24c-.5,0-.52.42-.67.71-1.14,2.2-2.26,4.41-3.38,6.61A3.16,3.16,0,0,0,63,13.72c0,.2,0,.42-.28.45s-.33-.15-.43-.33a1.44,1.44,0,0,1,.13-1.39c1.09-2.12,2.16-4.24,3.23-6.37.66-1.29,1.17-2.69,2.63-3.37.15-.07.24-.29.35-.44l0,.07V2.27a13.77,13.77,0,0,0,2.87.1l.38.12a.9.9,0,0,0,.85.55,8.06,8.06,0,0,1,2.54.54c.73.23,1.09,0,1.32-.63a7.51,7.51,0,0,1,1.74-1.38A1.1,1.1,0,0,0,79.4.9,3.41,3.41,0,0,1,82,0c.21.19.42.38.72.15l.38.14a13.87,13.87,0,0,0,4,1.95c2.53,1.21,5,2.44,7.5,3.8a7.93,7.93,0,0,0,3.09,1.66.78.78,0,0,1,.49.32c0,.27.13.38.38.4a8,8,0,0,1,1.18,6.25,1.65,1.65,0,0,0,.7,1.83,17.83,17.83,0,0,1,3.27,3.05,3.48,3.48,0,0,1,.48,3.67A14.69,14.69,0,0,1,103,25.72a6.6,6.6,0,0,0-1.33,2.33,18,18,0,0,0-1.75,3.75.74.74,0,0,1-.36.47,1,1,0,0,0-.75.52.36.36,0,0,1-.44,0c-.07-.32-.22-.27-.4-.09a2.46,2.46,0,0,1-1.07-.47c0-.15-.1-.22-.23-.18a.17.17,0,0,0-.09.28Q90.81,43.66,85.06,55c-.42.17-.47.6-.64.94q-11,21.6-21.94,43.21Q51.89,120,41.31,140.89c-.19.37-.62.74-.22,1.23l.47.36c.1.53.57.69.94,1,.44.46.14.93,0,1.39a18,18,0,0,0-2.29,4.52,25.6,25.6,0,0,1-1.66,3.1c-.63.23-.73.78-.81,1.35l-.25.31c-.29,0-.4.13-.4.4a3.17,3.17,0,0,1-2.77.7,13.15,13.15,0,0,0-3.51-.68l-.39-.11c-.06-.29-.21-.23-.38-.1l-.39-.11c-.78-.6-.95.08-1.2.57l-.27.3a1.12,1.12,0,0,0-.82.82l-.37.33a.81.81,0,0,0-.79.55,4.61,4.61,0,0,1-2.48.86l-.2.05-.48.06a1.61,1.61,0,0,0-1.06-.06l-.93-.36a1.59,1.59,0,0,0-1.41-.63,13.73,13.73,0,0,1-2.86-1.32c0-.21-.13-.27-.32-.16l-6-3a.78.78,0,0,0-.83-.43,5.08,5.08,0,0,1-1.54-.86c-.8-.86-2-1.33-2.52-2.43h0a.55.55,0,0,0-.16-.77,2,2,0,0,1-.07-1c.16-.18.2-.37,0-.54a2.15,2.15,0,0,1,0-1.07.32.32,0,0,0,0-.47l0-.53a1.22,1.22,0,0,0,.17-1.14l.08-.47c.07-.38-.11-.5-.46-.42l-.48-.34c0-.4-.28-.52-.65-.46L3.76,141a4.09,4.09,0,0,0-1.7-1.41l-.29-.29a.81.81,0,0,0-.65-.72,2.89,2.89,0,0,1-.8-1.18A.57.57,0,0,0,.09,136.64ZM97.4,9.24a56.46,56.46,0,0,0-5.65-3.11c-3-1.72-6.14-3.08-9.18-4.67a1.27,1.27,0,0,0-1-.12,8,8,0,0,0-3.15,2c-.36.16-.73.36-.74.8,0,.24.32.29.52.38l6.39,2.8a2.07,2.07,0,0,0,.24.17,112.17,112.17,0,0,1,13.07,7.2c.49.33.61,0,.6-.36C98.36,12.58,98.4,10.8,97.4,9.24ZM21.92,156.15a1.14,1.14,0,0,0,1,.23c1.73-.11,3-1.14,4.3-2.1.2-.15.51-.27.48-.57s-.41-.39-.66-.48c-1.75-.62-3.42-1.41-5.1-2.17q-4-1.83-7.94-3.91c-2-1.25-4.18-2.18-6.14-3.5-.25-.17-.54-.5-.85-.29s-.24.63-.15,1a4.86,4.86,0,0,0,0,2.08c0,1,0,2,.92,2.69a12,12,0,0,0,2.71,1.47,55.3,55.3,0,0,0,6.08,3.12A48.1,48.1,0,0,0,21.92,156.15Z"/><path class="cls-2" d="M68.58,17.22a.57.57,0,0,1,.07.86,12.71,12.71,0,0,0-1.41,2.55Q40.17,73.94,13.12,127.24c-.84,1.65-1.06,1.7-2.59.64-.16-.11-.28-.27-.44-.38s-.36-.23-.52,0,0,.4.21.52.58.22.48.62a46.24,46.24,0,0,1-4-2.47c.13-.3.73-.24.63-.61s-.6-.39-1-.41a5.48,5.48,0,0,1-.57,0c.4-.41.87-.24,1.28-.1.68.24,1,.05,1.36-.6q7.83-15.54,15.72-31Q43.2,54.88,62.78,16.46c.43-.84.69-1.46-.38-2A1.15,1.15,0,0,1,62,12.83a91.58,91.58,0,0,1,4.63-9,2.72,2.72,0,0,1,2-1.52c-.11.15-.2.37-.35.44-1.46.68-2,2.08-2.63,3.37-1.07,2.13-2.14,4.25-3.23,6.37a1.44,1.44,0,0,0-.13,1.39c.1.18.21.35.43.33s.3-.25.28-.45A3.16,3.16,0,0,1,63.54,12c1.12-2.2,2.24-4.41,3.38-6.61.15-.29.17-.75.67-.71l-3.33,6.61C63,13.72,63,13.72,65.7,14.6l.5.35c-.65.7.28.86.43,1.29a2.43,2.43,0,0,1-.63-.17c-.93-.63-1.63-.54-2,.58-.68-.57-1-.18-1.28.45q-27,53.15-54,106.29c-.51,1-.5,1,.57,1-.69,1.8-.69,1.8,1,2.75a7.71,7.71,0,0,1,.93.53c.74.54,1.12.34,1.52-.47,3-5.94,6-11.86,9-17.79Z"/><path class="cls-2" d="M41.09,142.12c-.4-.49,0-.86.22-1.23Q51.89,120,62.48,99.15q11-21.62,21.94-43.21c.17-.34.22-.77.64-.94-.13.33-.25.67-.41,1Q63.19,98.34,41.7,140.69A4.75,4.75,0,0,0,41.09,142.12Z"/><path class="cls-2" d="M99.91,31.8a18,18,0,0,1,1.75-3.75A6.6,6.6,0,0,1,103,25.72,43.35,43.35,0,0,1,99.91,31.8Z"/><path class="cls-2" d="M2.77,129.23c0,.11.16.26.13.33a34.31,34.31,0,0,1-2.51,4.81A36.26,36.26,0,0,1,2.77,129.23Z"/><path class="cls-2" d="M40.24,149.35a18,18,0,0,1,2.29-4.52A18.49,18.49,0,0,1,40.24,149.35Z"/><path class="cls-2" d="M76.58,3c-.23.66-.59.86-1.32.63A8.06,8.06,0,0,0,72.72,3a.9.9,0,0,1-.85-.55A16.4,16.4,0,0,1,75,3.27,1.32,1.32,0,0,0,76.58,3Z"/><path class="cls-2" d="M87.09,2.28a13.87,13.87,0,0,1-4-1.95A27.59,27.59,0,0,1,87.09,2.28Z"/><path class="cls-2" d="M97.68,7.74a7.93,7.93,0,0,1-3.09-1.66A16.41,16.41,0,0,1,97.68,7.74Z"/><path class="cls-2" d="M5.64,148.47c.56,1.1,1.72,1.57,2.52,2.43C7.07,150.35,5.93,149.86,5.64,148.47Z"/><path class="cls-2" d="M30.84,154.53a13.15,13.15,0,0,1,3.51.68A9.18,9.18,0,0,1,30.84,154.53Z"/><path class="cls-2" d="M71.49,2.37a13.77,13.77,0,0,1-2.87-.1A4.35,4.35,0,0,1,71.49,2.37Z"/><path class="cls-2" d="M2.06,139.58A4.09,4.09,0,0,1,3.76,141,4.93,4.93,0,0,1,2.06,139.58Z"/><path class="cls-2" d="M37.77,153.8c.08-.57.18-1.12.81-1.35A2.58,2.58,0,0,1,37.77,153.8Z"/><path class="cls-2" d="M19.67,156.7a1.59,1.59,0,0,1,1.41.63A3.34,3.34,0,0,1,19.67,156.7Z"/><path class="cls-2" d="M28.48,154.78c.25-.49.42-1.17,1.2-.57C29.11,154,28.87,154.57,28.48,154.78Z"/><path class="cls-2" d="M42.5,143.44c-.37-.27-.84-.43-.94-1C42,142.7,42.4,142.91,42.5,143.44Z"/><path class="cls-2" d="M79.4.9a1.1,1.1,0,0,1-1.08.67A2.23,2.23,0,0,1,79.4.9Z"/><path class="cls-2" d="M9.7,151.76a.78.78,0,0,1,.83.43A1.19,1.19,0,0,1,9.7,151.76Z"/><path class="cls-2" d="M27.39,155.9a1.12,1.12,0,0,1,.82-.82A1.76,1.76,0,0,1,27.39,155.9Z"/><path class="cls-2" d="M22,157.69a1.61,1.61,0,0,1,1.06.06A.94.94,0,0,1,22,157.69Z"/><path class="cls-2" d="M.21,134.94a1.3,1.3,0,0,1-.14,1.12A1.3,1.3,0,0,1,.21,134.94Z"/><path class="cls-2" d="M5.58,142.93a1.22,1.22,0,0,1-.17,1.14A1.32,1.32,0,0,1,5.58,142.93Z"/><path class="cls-2" d="M1.12,138.57a.81.81,0,0,1,.65.72A1.14,1.14,0,0,1,1.12,138.57Z"/><path class="cls-2" d="M4.07,141.24c.37-.06.61.06.65.46A1,1,0,0,1,4.07,141.24Z"/><path class="cls-2" d="M5.17,125.15c-.12.29-.16.66-.61.63A.79.79,0,0,1,5.17,125.15Z"/><path class="cls-2" d="M26.23,156.78a.81.81,0,0,1,.79-.55A1.21,1.21,0,0,1,26.23,156.78Z"/><path class="cls-2" d="M98.8,32.79a1,1,0,0,1,.75-.52C99.43,32.63,99.23,32.88,98.8,32.79Z"/><path class="cls-2" d="M.09,136.64a.57.57,0,0,1,.23.75A.7.7,0,0,1,.09,136.64Z"/><path class="cls-2" d="M5.48,147.71a.55.55,0,0,1,.16.77A.83.83,0,0,1,5.48,147.71Z"/><path class="cls-2" d="M82.69.19c-.3.23-.51,0-.72-.15A.73.73,0,0,1,82.69.19Z"/><path class="cls-2" d="M5.2,142c.35-.08.53,0,.46.42Z"/><path class="cls-2" d="M98.55,8.46c-.25,0-.4-.13-.38-.4A.47.47,0,0,1,98.55,8.46Z"/><path class="cls-2" d="M37.12,154.51c0-.27.11-.43.4-.4C37.48,154.33,37.31,154.43,37.12,154.51Z"/><path class="cls-2" d="M98,32.67c.18-.18.33-.23.4.09A.33.33,0,0,1,98,32.67Z"/><path class="cls-2" d="M96.57,32.3a.17.17,0,0,1,.09-.28c.13,0,.22,0,.23.18Z"/><path class="cls-2" d="M30.07,154.32c.17-.13.32-.19.38.1A.3.3,0,0,1,30.07,154.32Z"/><path class="cls-2" d="M5.39,144.6a.32.32,0,0,1,0,.47A.33.33,0,0,1,5.39,144.6Z"/><path class="cls-2" d="M5.4,146.14c.21.17.17.36,0,.54A.52.52,0,0,1,5.4,146.14Z"/><path class="cls-2" d="M16.49,155.22c.19-.11.3-.05.32.16A.23.23,0,0,1,16.49,155.22Z"/><path class="cls-2" d="M23.55,157.69l.2-.05C23.7,157.74,23.63,157.77,23.55,157.69Z"/><path class="cls-5" d="M68.58,17.22,21.79,109.45c-3,5.93-6,11.85-9,17.79-.4.81-.78,1-1.52.47a7.71,7.71,0,0,0-.93-.53c-1.73-1-1.73-1-1-2.75l1-1.69a3.78,3.78,0,0,0,1.9-1.74,106.89,106.89,0,0,0,6.69-11.28c3.33-6.26,6.59-12.57,9.55-19,2.71-5.89,6-11.5,8.62-17.42,1.48-3.29,3.26-6.44,4.71-9.75,1.26-2.87,3-5.47,4.39-8.27,3.11-6.38,6.67-12.52,9.32-19.12,1.33-3.31,3-6.5,4.46-9.74.37-.81,1-1.52.89-2.52,0-.25.23-.49.49-.68.83-.6,1-1.62,1.46-2.47.15-.31-.26-.39-.45-.53.54-1.19,1.09-2.37,1.64-3.55s1.11-1.21,2-.58a2.43,2.43,0,0,0,.63.17Z"/><path class="cls-7" d="M66.2,15l-.5-.35A1.6,1.6,0,0,0,66,13.15,1.52,1.52,0,0,1,66.17,12,29.53,29.53,0,0,1,69,7a2.39,2.39,0,0,1,2.5-1,34.35,34.35,0,0,1,5.11,1.47,82.74,82.74,0,0,1,8.86,4c.59.29.64.58.35,1.14-1.15,2.22-2.27,4.46-3.4,6.7A2.07,2.07,0,0,0,82,20.53c.07.71-.31.7-.86.48-.39-.16-.75-.77-1.28-.22L76.3,19.24a3.08,3.08,0,0,0-1.62-.73L71.31,17a.57.57,0,0,0-.57-.23l-1.43-.59a.58.58,0,0,0-.57-.22l-1.25-.53a1,1,0,0,0-.76-.25Z"/><path class="cls-3" d="M76.49,21l12.7,6.49a.29.29,0,0,0,.35.22l1.18.72L86,37.69c-.68-.65-1.15-.46-1.49.36-.14.36-.35.69-.52,1-.45-.29-.08-.71-.17-1.07s-.14-.46-.41-.45-.31.22-.35.41,0,.39,0,.58c-.1.69-1.34,1.78-1.93,1.7l.37-.91a.51.51,0,0,0,.32-.71l.22-.77c.34-.13.16-.31,0-.49l.25-.68a4.07,4.07,0,0,0-.12-3.12h0a.58.58,0,0,0-.23-.79h0a.4.4,0,0,0-.17-.53l-.1-.25c.08-.23,0-.4-.19-.5a.49.49,0,0,0-.13-.12.55.55,0,0,0-.3-.75,9.75,9.75,0,0,0-2.43-2.57.29.29,0,0,0-.28-.31L78,27.52a29.18,29.18,0,0,0-5.12-3.71c-.15-.42-.29-.21-.44,0l-.52.16c-.73.05-.86.42-.56,1l-.12.37c-1-.68-1,.9-1.84.74-.11,0-.26.17-.38.28s0,.15,0,.17c.51.47-.09.82-.18,1.19-.12.57-.85.67-1.26.66s.3-.39,0-.67a1,1,0,0,0-.32,0c-.66.24-1.33.56-1.07-.68a.41.41,0,0,0-.36-.55c-.44.87-.88,1.76-1.35,2.64-.16.29-.16.74-.66.74a4.41,4.41,0,0,1,.23-.64l5.76-11.46,6.54,3.11Z"/><path class="cls-3" d="M28.36,137,20,132.76a2.3,2.3,0,0,0-1-.58l-1.73-1a18.52,18.52,0,0,0-3.41-1.94c-.54-.41-.16-.81,0-1.19q4.78-9.45,9.58-18.9Q29,98.31,34.49,87.44c.15-.29.27-.59.41-.88l.07,0,.08,0c.17.4-.12.69-.27,1l-2.56,5.06c-.21.41-.43.63.36.77s.9-.49,1.43-.63a12.84,12.84,0,0,1-.73,1.69c-.09.19-.09.39.17.45s.28-.12.32-.28a18.64,18.64,0,0,1,1.51-3.27c.08-.16.12-.48.49-.3,0,.66-.72,1.12-.63,1.89.45-.21.39-.66.59-.92s.49-1.2,1.31-.7c-.09.25-.33.46-.19.77L35.61,94.6c-.38.18-.58.41-.18.77,0,.63-.36,1.2-.25,1.84l.07.27h0a2.17,2.17,0,0,1-.23.83c-.35.46-.87,1.2-1.38.81s-1.65-.82-1.64-2c0-.66-.67-.87-1.18-1s-.61.49-.78.82q-3.48,6.81-6.93,13.64c-1.12,2.21-2.2,4.43-3.37,6.61-1.35,2.5-2.41,5.12-3.65,7.66-.09.19-.31.38-.13.62a.34.34,0,0,0,.45,0c.82-.55.46.35.62.58.33-.16.49-.61.88-.39a9.39,9.39,0,0,0,2.17.52,6.55,6.55,0,0,0,3.37.57,5.42,5.42,0,0,0,2.17,2.75,2.48,2.48,0,0,1,.75,3.16c-.12.28-.38.57,0,.86,0,.28-.05.6.3.75a2.42,2.42,0,0,0,2.68.73c.4,0,.81.11,1.06-.33.23.09.41.06.46-.22a2,2,0,0,0,.37-2.23c.11-.34-.11-.49-.35-.64.05-.46-.45-.59-.58-.94l.15-.51c.5-.14,1-.31,1.5-.4,1.19-.23,2.49-.88,3.21.83.15.36.35,0,.53-.11a.74.74,0,0,1,.25-.05c.15.28-.33.53,0,.85.29-.4.69-.69.13-1.21-.29-.27-.08-.59.25-.77.22.56,1,.4,1.19.8s-.38.27-.57.43a.28.28,0,0,0,0,.42c.35.48.11.92-.06,1.37-.07.21-.37.42-.06.68.32-.15.33-.46.45-.72.18-.42.44-.75,1-.42-.12.33-.22.68-.37,1-.91,1.85-1.84,3.69-2.76,5.54-.5.21-.5.77-.78,1.14v.08l-.69-.42c-.21-.42-.47-.66-1-.35h-.19l-.37-.17-1-.48-1-.59c-.19-.42-.48-.61-.94-.4v.09A1,1,0,0,0,28.36,137Z"/><path class="cls-8" d="M88.87,10.79a12.92,12.92,0,0,1,3.22,1.71,43.53,43.53,0,0,1,5.23,3.31c-.32.58,0,1.2-.19,1.81a43.05,43.05,0,0,1-2.19,4.66,27.45,27.45,0,0,1-1.45,3.28c-.77,1.27-1.27,1.42-2.61.82-.48-.22-.88-.7-1.5-.53A5.7,5.7,0,0,0,88,25.17a17.63,17.63,0,0,0-2.56-1.4c-.58-.67-1.5-.81-2.18-1.32.12-.23.23-.46.36-.69A54.4,54.4,0,0,0,88.87,10.79Z"/><path class="cls-8" d="M29.33,138.91l.89.4a4.17,4.17,0,0,0,2,.9,4.59,4.59,0,0,0,1.42.61l.38.28a4.88,4.88,0,0,1-.78,3.25c-1.52,2.7-2.62,5.63-4.6,8.07a.28.28,0,0,0-.14.1A62.44,62.44,0,0,1,22,150a.46.46,0,0,0-.72-.33,10,10,0,0,1-1.89-1,33.09,33.09,0,0,0,1.91-3,88,88,0,0,0,4.13-8.45c.32.14.63.29,1,.42A13.87,13.87,0,0,0,29.33,138.91Z"/><path class="cls-9" d="M25.41,137.21a88,88,0,0,1-4.13,8.45,33.09,33.09,0,0,1-1.91,3l-.62-.09a20.73,20.73,0,0,0-3.33-1.67l-2.88-1.61A.63.63,0,0,0,12,145l-1.78-1.15c0-.27-.08-.37-.35-.25l-.37-.14-1.33-.8a3.64,3.64,0,0,0-1.32-.91l-.49-.33a.93.93,0,0,0-.64-.48l-.31-.23a.55.55,0,0,0-.47-.38l-.32-.23-2.1-1.91-.32-.36a.73.73,0,0,0-.37-.44,3.09,3.09,0,0,1-.52-1.19l0-.44.08-.39a.32.32,0,0,0,.1-.39l1.54-3.17C4.11,130,5,128.08,5.88,126.2l.35-.07a46.24,46.24,0,0,0,4,2.47l.49.3a2,2,0,0,0,1,.6,6.86,6.86,0,0,0,1.66,1,.35.35,0,0,0,.36.21,17.09,17.09,0,0,0,2.52,1.47,1.32,1.32,0,0,0,.86.47l1.7,1,0,.18.11-.11,3.45,1.83c0,.11,0,.27,0,.32s.27,0,.35-.12l2.1,1Zm-20-5.5a14.17,14.17,0,0,0-1,2.58,2.39,2.39,0,0,0,.13,2.17A9,9,0,0,0,6.75,139c1.31,1,2.59,1.94,4,2.79A31.45,31.45,0,0,0,17,145c.32.11.46-.09.69-.19,1.12-.5,1.44-1.67,2-2.56a26.59,26.59,0,0,0,2.18-3.68,1.22,1.22,0,0,0-.39-1.62A26.19,26.19,0,0,0,18,134.83c-2.59-1.59-5.29-3-7.75-4.8a2.84,2.84,0,0,0-2.78-.76C6.33,129.66,6,130.61,5.36,131.71Z"/><path class="cls-12" d="M72.25,77.44c-.79,1.61-1.55,3.23-2.36,4.82q-4.55,8.94-9.12,17.85c-.12.23-.26.45-.39.68-.78.25-.6,1.31-1.41,1.71.1-.64.27-1.25-.67-.61-.5.34-1,.54-1.34,1.15s-1,.14-1.38,0-.09-.5,0-.71c.68-1.23,1-2.59,1.7-3.83,1.23-2.28,2.36-4.61,3.53-6.92,1.65-3.26,3.31-6.51,4.94-9.77.16-.31.58-.63.14-1q1.68-3.64,3.64-7.14c.43.18.5-.49.8-.39.66.22,1-.07,1.21-.61a.44.44,0,0,1,.56-.27c.39.13.17.39.12.64a1.24,1.24,0,0,0,1.06,1.59c-.06.5-.42.87-.57,1.33S72,76.81,72.25,77.44Z"/><path class="cls-12" d="M78.91,55.15a45,45,0,0,1,3-5.94A2.88,2.88,0,0,0,83,46.91c.11-.27.19-.55.32-.81l7.5-15c.12-.23.26-.45.39-.67.17.09.37.16.41.37.26,1.14,1.07,1.31,2.1,1.39.63.06,1.08-.48,1.68-.28-.76,1.54-1.51,3.09-2.29,4.63L81.94,58.47c-.12.23-.26.45-.39.68-.55-.51-.08-1,0-1.49s.21-.77,0-1.11-.63-.14-1,0-.66.12-.59-.21C80.21,55.35,79.48,55.35,78.91,55.15Z"/><path class="cls-9" d="M88.87,10.79a54.4,54.4,0,0,1-5.3,11c-.13.23-.24.46-.36.69a18.25,18.25,0,0,0-2.52-1.12l-.8-.54c.53-.55.89.06,1.28.22.55.22.93.23.86-.48a2.07,2.07,0,0,1,.35-1.18c1.13-2.24,2.25-4.48,3.4-6.7.29-.56.24-.85-.35-1.14a82.74,82.74,0,0,0-8.86-4,34.35,34.35,0,0,0-5.11-1.47A2.39,2.39,0,0,0,69,7a29.53,29.53,0,0,0-2.79,5A1.52,1.52,0,0,0,66,13.15a1.6,1.6,0,0,1-.32,1.45c-2.67-.88-2.67-.88-1.44-3.33l3.33-6.61a3,3,0,0,1,1.59-1.24.54.54,0,0,0,.56,0,.08.08,0,0,0,.12,0l3.49.45.56.2A2.66,2.66,0,0,0,76,4.75a5,5,0,0,0,1.45.56.3.3,0,0,0,.38.14A3.66,3.66,0,0,0,79.25,6a2.66,2.66,0,0,0,1.43.66l7.2,3.5C88.22,10.36,88.54,10.59,88.87,10.79Z"/><path class="cls-4" d="M65.91,80.8c.44.4,0,.72-.14,1-1.63,3.26-3.29,6.51-4.94,9.77-1.17,2.31-2.3,4.64-3.53,6.92-.67,1.24-1,2.6-1.7,3.83-.11.21-.47.58,0,.71s1,.69,1.38,0,.84-.81,1.34-1.15c.94-.64.77,0,.67.61.81-.4.63-1.46,1.41-1.71-.52,1.56-1.47,2.92-2.11,4.42a54.22,54.22,0,0,0-3.57,7,40.47,40.47,0,0,0-2.18,4.31c-.39.31-.45.82-.75,1.18-.46-.17-.52.23-.71.47-.65.82-1.16,2-2.35,2a2.07,2.07,0,0,0-1.93,1,1.27,1.27,0,0,1-1.59.49,8.81,8.81,0,0,1,.38-.89q9.87-19.47,19.76-38.91C65.5,81.46,65.72,81.13,65.91,80.8Z"/><path class="cls-11" d="M28.62,152.42c2-2.44,3.08-5.37,4.6-8.07A4.88,4.88,0,0,0,34,141.1c.19,0,.36.18.57.06l1.2.63c.49.18.87.73,1.51.45l.32.26c.49.18.88.73,1.51.44l.45.35c-.1.08-.1.11,0,.08a2.71,2.71,0,0,1,1.68.59c-.09.4-.59.7-.29,1.19-1.4,2.63-2.71,5.3-4.29,7.83a1.77,1.77,0,0,1-1.91.87l-3.06-.53c-.15-.24-.33-.19-.52-.06l-1.83-.5Z"/><path class="cls-4" d="M78.91,55.15c.57.2,1.3.2,1.08,1.19-.07.33.33.31.59.21s.66-.38,1,0,.13.72,0,1.11-.58,1,0,1.49a6.24,6.24,0,0,1-.27.72L72.72,76.72a8.06,8.06,0,0,1-.47.72c-.26-.63.32-1,.48-1.49s.51-.83.57-1.33A1.24,1.24,0,0,1,72.24,73c.05-.25.27-.51-.12-.64a.44.44,0,0,0-.56.27c-.25.54-.55.83-1.21.61-.3-.1-.37.57-.8.39.1-.24.17-.49.29-.72q4.32-8.56,8.66-17.13C78.62,55.58,78.77,55.37,78.91,55.15Z"/><path class="cls-11" d="M89.38,25.85c.62-.17,1,.31,1.5.53,1.34.6,1.84.45,2.61-.82a27.45,27.45,0,0,0,1.45-3.28,43.05,43.05,0,0,0,2.19-4.66c.2-.61-.13-1.23.19-1.81a26.36,26.36,0,0,1,5.44,4.94c.82,1,.18,1.92-.19,2.81-.62,1.49-1.47,2.89-2,4.43l-.17-.08a12.46,12.46,0,0,1-1.55-1,4,4,0,0,0-3.51-.49A1.52,1.52,0,0,0,94,28.1c0,.22-.06.39-.32.36l-1.38-.66L92,27.61A1.23,1.23,0,0,0,91,27l-1.67-1A.83.83,0,0,1,89.38,25.85Z"/><path class="cls-12" d="M45.19,121.61a1.27,1.27,0,0,0,1.59-.49,2.07,2.07,0,0,1,1.93-1c1.19.07,1.7-1.14,2.35-2,.19-.24.25-.64.7-.47-.26.55-.54,1.1-.8,1.66a36.77,36.77,0,0,0-2.06,4.35l-1.31,2.62a3.23,3.23,0,0,0-.61,1.23l-.44.87a.73.73,0,0,0-.26.53l-.35.69a1.21,1.21,0,0,0-.36.71l-.44.86-.09.19-2.29,4.3c-.25-.11-.5-.26-.45-.56.2-1.19-.93-1.69-1.33-2.56-.22-.48-.42,0-.63.14s-.47,1-1.13.54C41.14,129.35,43.11,125.45,45.19,121.61Z"/><path class="cls-2" d="M86,37.69l4.73-9.24.31.16a22.68,22.68,0,0,1-1.91,4.16L79.85,51.1c-.16.33-.49.63-.33,1.07L68,74.86a2.08,2.08,0,0,0-.36.29,29.9,29.9,0,0,0-2.79,5.12c-3,5.86-6.08,11.64-8.75,17.64-.11.26-.35.49-.21.81-1.93,3.81-3.85,7.62-5.79,11.42-1.23,2.41-2.17,5-3.51,7.3-.17.3-.22.7-.62.83s-.42.44-.57.7-.28.59-.7.44l3.21-6.74a15.33,15.33,0,0,0,1.49-3l.24-.46a28.79,28.79,0,0,0,2.26-4.38l.35-.68a2.35,2.35,0,0,0,.66-1.25c1.93-3.4,3.55-7,5.3-10.44a4.77,4.77,0,0,0,1-1.91l.18-.34,5-9.77c.17-.28.34-.55.49-.84L75.28,59q4-7.89,8-15.77C84.18,41.36,85.08,39.52,86,37.69Z"/><path class="cls-8" d="M78.38,3.34a8,8,0,0,1,3.15-2,1.27,1.27,0,0,1,1,.12c3,1.59,6.2,3,9.18,4.67-.34,1.32-1.4,1.87-2.53,2.35L87.91,8c-.07-.44-.48-.51-.78-.63-2.32-.92-4.51-2.1-6.74-3.2C79.74,3.86,78.94,3.89,78.38,3.34Z"/><path class="cls-8" d="M16.55,153.7a55.3,55.3,0,0,1-6.08-3.12c.48-1-.26-1.67-.82-2.2a21.65,21.65,0,0,0-2.81-2,4.86,4.86,0,0,1,0-2.08,4.8,4.8,0,0,0,.88.76c2.11,1.09,4.24,2.14,6.37,3.2l3.36,1.84a2.47,2.47,0,0,1-.05,1.94C17.13,152.62,16.84,153.16,16.55,153.7Z"/><path class="cls-4" d="M39.21,133.27c.66.43.8-.29,1.13-.54s.41-.62.63-.14c.4.87,1.53,1.37,1.33,2.56,0,.3.2.45.45.56-.64,1.65-1.59,3.15-2.34,4.75-.19,0-.25.16-.17.34l-.19.35a.3.3,0,0,0-.21.36l-.43.12a.31.31,0,0,0-.41-.13l-.35-.13-.2-.08-2.24-.95c-.32-.14-.57-.31-.36-.72C37,137.49,37.9,135.28,39.21,133.27Z"/><path class="cls-13" d="M17.46,150.14l-3.36-1.83c.14-.41-.07-.77-.11-1.16q3.9,2.08,7.94,3.91c1.68.76,3.35,1.55,5.1,2.17.25.09.62.12.66.48s-.28.42-.48.57c-1.3,1-2.57,2-4.3,2.1a1.14,1.14,0,0,1-1-.23c.88-.07,1.17-.58.91-1.36a4.44,4.44,0,0,0-1.15-1.95C20.44,151.65,18.82,151.11,17.46,150.14Z"/><path class="cls-13" d="M87.91,8l1.31.47c.22.41.66.5,1,.65,1.12.47,2.28.86,3.41,1.33,1.53.65,2.86.66,3.73-1.22,1,1.56,1,3.34,1.06,5.09,0,.32-.11.69-.6.36a112.17,112.17,0,0,0-13.07-7.2,2.07,2.07,0,0,1-.24-.17c.3-.63.74-.39,1.2-.21C86.48,7.39,87.08,8,87.91,8Z"/><path class="cls-8" d="M93.69,28.46c.26,0,.34-.14.32-.36a1.52,1.52,0,0,1,1.34-1.64,4,4,0,0,1,3.51.49,12.46,12.46,0,0,0,1.55,1c-.07.26-.31.47-.21.77-.63.93-.79,2.15-1.83,2.81l-.57-.24-.31-.17A33,33,0,0,0,94,28.84l-.31-.2A.22.22,0,0,0,93.69,28.46Z"/><path class="cls-11" d="M17.46,150.14c1.36,1,3,1.51,4.22,2.7a4.44,4.44,0,0,1,1.15,1.95c.26.78,0,1.29-.91,1.36a48.1,48.1,0,0,1-5.37-2.45c.29-.54.58-1.08.86-1.62A2.47,2.47,0,0,0,17.46,150.14Z"/><path class="cls-11" d="M97.4,9.24c-.87,1.88-2.2,1.87-3.73,1.22-1.13-.47-2.29-.86-3.41-1.33-.38-.15-.82-.24-1-.65,1.13-.48,2.19-1,2.53-2.35A56.46,56.46,0,0,1,97.4,9.24Z"/><path class="cls-2" d="M69.77,17.82,64,29.28a4.41,4.41,0,0,0-.23.64,2.35,2.35,0,0,0-.63,1.22l-.09.18a1.32,1.32,0,0,0-.45.87.37.37,0,0,0-.17.35c-.17.27-.36.53-.51.82Q55.74,45.53,49.54,57.69c-.19.38-.34.77-.5,1.16a1.43,1.43,0,0,0-.42.89l-.24.51-.41.48c-.44-.5.06-.85.24-1.21Q56.16,43.8,64.15,28.1c1.47-2.91,2.92-5.82,4.43-8.7.28-.53.18-1.24.78-1.63C69.54,17.66,69.67,17.5,69.77,17.82Z"/><path class="cls-13" d="M44.69,119.41c.42.15.54-.16.7-.44s.2-.61.57-.7l-10.09,20c-.1.2-.23.39-.35.58l-.44-.44c.92-1.85,1.85-3.69,2.76-5.54.15-.31.25-.66.37-1,.46-.82.95-1.63,1.38-2.47C41.3,126.08,43,122.74,44.69,119.41Z"/><path class="cls-11" d="M14,147.15c0,.39.25.75.11,1.16-2.13-1.07-4.26-2.12-6.37-3.21a4.8,4.8,0,0,1-.88-.76c-.09-.35-.17-.76.15-1s.6.12.85.29C9.81,145,12,145.9,14,147.15Z"/><path class="cls-13" d="M55.88,98.72c-.14-.32.1-.55.21-.81,2.67-6,5.79-11.78,8.75-17.64a29.9,29.9,0,0,1,2.79-5.12,2.08,2.08,0,0,1,.36-.29Z"/><path class="cls-11" d="M87.91,8c-.83,0-1.43-.62-2.16-.9-.46-.18-.9-.42-1.2.21l-6.39-2.8c-.2-.09-.52-.14-.52-.38,0-.44.38-.64.74-.8.56.55,1.36.52,2,.84,2.23,1.1,4.42,2.28,6.74,3.2C87.43,7.5,87.84,7.57,87.91,8Z"/><path class="cls-4" d="M95.39,32c-.6-.2-1,.34-1.68.28-1-.08-1.84-.25-2.1-1.39,0-.21-.24-.28-.41-.37l.33-.9c.32-.5.71-.07,1.07-.08l2,1.17c.23.43.72.51,1.06.79Z"/><path class="cls-2" d="M36.23,83.94c-.18-.4.12-.68.28-1q3.66-7.27,7.37-14.52c.13-.28.18-.65.58-.73l.09,0,.07.06c-1.23,2.39-2.47,4.78-3.69,7.18l-4.55,9A.23.23,0,0,1,36.23,83.94Z"/><path class="cls-7" d="M6.84,146.42a21.65,21.65,0,0,1,2.81,2c.56.53,1.3,1.2.82,2.2a12,12,0,0,1-2.71-1.47C6.8,148.46,6.81,147.43,6.84,146.42Z"/><path class="cls-13" d="M79.52,52.17c-.16-.44.17-.74.33-1.07l9.27-18.33A22.68,22.68,0,0,0,91,28.61l.34.22-.18.58c-.33.6-.67,1.2-1,1.8Q84.87,41.7,79.52,52.17Z"/><path class="cls-2" d="M95.67,31.45c-.34-.28-.83-.36-1.06-.79.4-.81-.51-1.18-.62-1.82a33,33,0,0,1,3.5,2.24C97.06,32.05,96.26,31.24,95.67,31.45Z"/><path class="cls-2" d="M48.9,123.71A36.77,36.77,0,0,1,51,119.36c.26-.56.54-1.11.8-1.66.31-.36.37-.87.76-1.18.14.24,0,.44-.08.64l-3.09,6.08C49.25,123.45,49.17,123.67,48.9,123.71Z"/><path class="cls-2" d="M54.7,112.21a54.22,54.22,0,0,1,3.57-7,.62.62,0,0,1-.09.64l-3.1,6.1A.43.43,0,0,1,54.7,112.21Z"/><path class="cls-2" d="M5.88,126.2c-.92,1.88-1.77,3.8-2.83,5.61a.38.38,0,0,1-.06-.52l2.44-4.81A.41.41,0,0,1,5.88,126.2Z"/><path class="cls-2" d="M80.69,21.33a18.25,18.25,0,0,1,2.52,1.12c.68.51,1.6.65,2.18,1.32a6.88,6.88,0,0,1-3.07-1.45C81.79,22,80.91,22.16,80.69,21.33Z"/><path class="cls-2" d="M25.41,137.21l-.46-.42a6.38,6.38,0,0,1,2.46,1,5.53,5.53,0,0,1,1.92,1.08,13.87,13.87,0,0,1-3-1.28C26,137.5,25.73,137.35,25.41,137.21Z"/><path class="cls-3" d="M44.62,67.8l-.07-.06-.09,0,2-4,.07,0,.09,0A10.34,10.34,0,0,1,44.62,67.8Z"/><path class="cls-2" d="M73.35,3.84l-3.49-.45A3.86,3.86,0,0,1,73.35,3.84Z"/><path class="cls-2" d="M15.42,146.91a20.73,20.73,0,0,1,3.33,1.67.32.32,0,0,1-.41.15c-.93-.46-1.86-.92-2.78-1.4A.34.34,0,0,1,15.42,146.91Z"/><path class="cls-2" d="M13.82,129.29a18.52,18.52,0,0,1,3.41,1.94C16,130.69,14.72,130.36,13.82,129.29Z"/><path class="cls-3" d="M48,60.73l.41-.48.22.14c-.54.82-.67,1.89-1.51,2.53a.24.24,0,0,0-.15-.09A10.23,10.23,0,0,0,48,60.73Z"/><path class="cls-4" d="M83,46.91a2.88,2.88,0,0,1-1.12,2.3A7.23,7.23,0,0,1,83,46.91Z"/><path class="cls-4" d="M35.08,138.41l.44.44c-.21.35-.21.85-.71,1l-.2-.05-.31-.23C34.58,139.18,34.58,138.62,35.08,138.41Z"/><path class="cls-2" d="M2.52,138.19l2.1,1.91A3.42,3.42,0,0,1,2.52,138.19Z"/><path class="cls-2" d="M76,4.75A2.66,2.66,0,0,1,73.91,4,2.38,2.38,0,0,1,76,4.75Z"/><path class="cls-3" d="M36.23,83.94a.23.23,0,0,0,.15.07,2.45,2.45,0,0,1-1,1.93.24.24,0,0,0-.15-.09Z"/><path class="cls-2" d="M32.2,140.21a4.17,4.17,0,0,1-2-.9A2.43,2.43,0,0,1,32.2,140.21Z"/><path class="cls-2" d="M91.19,29.41l.18-.58a1.06,1.06,0,0,1,1.23.66c-.36,0-.75-.42-1.07.08Z"/><path class="cls-2" d="M74.68,18.51a3.08,3.08,0,0,1,1.62.73A1.52,1.52,0,0,1,74.68,18.51Z"/><path class="cls-2" d="M37.28,142.24c-.64.28-1-.27-1.51-.45C36.43,141.41,36.81,142,37.28,142.24Z"/><path class="cls-2" d="M80.68,6.69A2.66,2.66,0,0,1,79.25,6,1.45,1.45,0,0,1,80.68,6.69Z"/><path class="cls-2" d="M89.38,25.85a.83.83,0,0,0-.09.16c-.57-.07-1.15-.14-1.34-.84A5.7,5.7,0,0,1,89.38,25.85Z"/><path class="cls-2" d="M39.11,142.94c-.63.29-1-.26-1.51-.44C38.26,142.13,38.64,142.68,39.11,142.94Z"/><path class="cls-2" d="M93.69,28.46a.22.22,0,0,1,0,.18c-.61,0-1.19-.1-1.37-.84Z"/><path class="cls-2" d="M6.85,141.75a3.64,3.64,0,0,1,1.32.91C7.48,142.73,7.13,142.29,6.85,141.75Z"/><path class="cls-2" d="M91,27a1.23,1.23,0,0,1,1,.63A.91.91,0,0,1,91,27Z"/><path class="cls-2" d="M30,137.61l1,.59c-.55.29-.85,0-1.11-.45A.64.64,0,0,1,30,137.61Z"/><path class="cls-2" d="M11.79,129.5a2,2,0,0,1-1-.6A.88.88,0,0,1,11.79,129.5Z"/><path class="cls-13" d="M41,145.15c-.3-.49.2-.79.29-1.19C41.59,144.46,41.24,144.79,41,145.15Z"/><path class="cls-4" d="M32.65,138.86c.48-.31.74-.07,1,.35l-.09.14Z"/><path class="cls-2" d="M34.57,141.16c-.21.12-.38,0-.57-.06l-.38-.28C34.06,140.58,34.33,140.84,34.57,141.16Z"/><path class="cls-2" d="M17.19,132.65a1.32,1.32,0,0,1-.86-.47A.65.65,0,0,1,17.19,132.65Z"/><path class="cls-2" d="M46.94,62.83a.24.24,0,0,1,.15.09l-.44.86-.09,0-.07,0A.65.65,0,0,1,46.94,62.83Z"/><path class="cls-4" d="M30,137.61a.64.64,0,0,0-.08.14l-.86-.54C29.54,137,29.83,137.19,30,137.61Z"/><path class="cls-2" d="M100.2,28.68c-.1-.3.14-.51.21-.77l.17.08C100.68,28.35,100.58,28.59,100.2,28.68Z"/><path class="cls-2" d="M5.72,140.94a.93.93,0,0,1,.64.48C6,141.48,5.73,141.39,5.72,140.94Z"/><path class="cls-2" d="M33.51,139.35l.09-.14.69.42C33.9,139.91,33.66,139.74,33.51,139.35Z"/><path class="cls-11" d="M21.26,149.66A.46.46,0,0,1,22,150,.63.63,0,0,1,21.26,149.66Z"/><path class="cls-2" d="M66.73,15.18a1,1,0,0,1,.76.25C67.11,15.73,66.88,15.58,66.73,15.18Z"/><path class="cls-2" d="M35.25,85.85a.24.24,0,0,1,.15.09l-.35.68-.08,0-.07,0A.47.47,0,0,1,35.25,85.85Z"/><path class="cls-2" d="M47,127.56a3.23,3.23,0,0,1,.61-1.23A1.23,1.23,0,0,1,47,127.56Z"/><path class="cls-2" d="M19,132.18a2.3,2.3,0,0,1,1,.58A.93.93,0,0,1,19,132.18Z"/><path class="cls-2" d="M12,145a.63.63,0,0,1,.54.3C12.16,145.54,12,145.45,12,145Z"/><path class="cls-2" d="M97.8,31.25l.57.24c-.09.13-.19.24-.37.19S97.75,31.45,97.8,31.25Z"/><path class="cls-2" d="M70.74,16.77a.57.57,0,0,1,.57.23C71,17.19,70.82,17.12,70.74,16.77Z"/><path class="cls-2" d="M4.94,140.33a.55.55,0,0,1,.47.38C5.06,140.81,4.9,140.69,4.94,140.33Z"/><path class="cls-2" d="M28.62,152.42l.76.34c-.38.23-.64,0-.9-.24A.28.28,0,0,1,28.62,152.42Z"/><path class="cls-2" d="M68.74,16a.58.58,0,0,1,.57.22C69,16.41,68.82,16.33,68.74,16Z"/><path class="cls-2" d="M32.09,138.68l.37.17c-.08.13-.18.28-.34.15S32.1,138.79,32.09,138.68Z"/><path class="cls-2" d="M28.36,137a1,1,0,0,1,.71.32C28.7,137.47,28.48,137.33,28.36,137Z"/><path class="cls-2" d="M13.81,130.71a.35.35,0,0,1-.36-.21C13.7,130.35,13.8,130.46,13.81,130.71Z"/><path class="cls-8" d="M22.85,135.78c-.08.14-.2.25-.35.12s0-.21,0-.32A.41.41,0,0,1,22.85,135.78Z"/><path class="cls-2" d="M1.51,135a.32.32,0,0,1-.1.39C1.24,135.19,1.2,135,1.51,135Z"/><path class="cls-2" d="M1.33,135.76l0,.44C1.1,136,1,135.89,1.33,135.76Z"/><path class="cls-2" d="M77.8,5.45a.3.3,0,0,1-.38-.14C77.62,5.17,77.77,5.15,77.8,5.45Z"/><path class="cls-2" d="M31.21,153.26c.19-.13.37-.18.52.06A.37.37,0,0,1,31.21,153.26Z"/><path class="cls-2" d="M69.74,3.4a.54.54,0,0,1-.56,0C69.36,3.2,69.54,3.22,69.74,3.4Z"/><path class="cls-2" d="M45.57,130.36a1.21,1.21,0,0,1,.36-.71A.54.54,0,0,1,45.57,130.36Z"/><path class="cls-2" d="M89.54,27.73a.29.29,0,0,1-.35-.22C89.46,27.34,89.55,27.45,89.54,27.73Z"/><path class="cls-8" d="M9.87,143.6c.27-.12.37,0,.35.25l-.43-.09A.8.8,0,0,1,9.87,143.6Z"/><path class="cls-2" d="M9.87,143.6a.8.8,0,0,0-.08.16c-.33.13-.38,0-.29-.3Z"/><path class="cls-2" d="M40.24,140.8c-.08-.18,0-.29.17-.34C40.52,140.66,40.46,140.77,40.24,140.8Z"/><path class="cls-2" d="M39.84,141.51a.3.3,0,0,1,.21-.36C40.2,141.4,40.07,141.49,39.84,141.51Z"/><path class="cls-2" d="M39,141.5a.31.31,0,0,1,.41.13C39.21,141.78,39.05,141.8,39,141.5Z"/><path class="cls-2" d="M1.83,137.39a.73.73,0,0,1,.37.44C1.91,137.83,1.76,137.71,1.83,137.39Z"/><path class="cls-2" d="M46.28,129a.73.73,0,0,1,.26-.53A.35.35,0,0,1,46.28,129Z"/><path class="cls-2" d="M39.6,143.37c-.14,0-.14,0,0-.08Z"/><path class="cls-2" d="M19,133.75l-.11.11,0-.18A.16.16,0,0,1,19,133.75Z"/><path class="cls-2" d="M34.61,139.78l.2.05C34.72,139.91,34.65,139.9,34.61,139.78Z"/><path class="cls-2" d="M38.45,141.29l.2.08C38.54,141.43,38.47,141.41,38.45,141.29Z"/><path class="cls-2" d="M76.49,21l-.18-.09C76.43,20.84,76.49,20.86,76.49,21Z"/><path class="cls-2" d="M45,131.41l.09-.19C45.21,131.34,45.18,131.4,45,131.41Z"/><path class="cls-1" d="M64,16.65c-.55,1.18-1.1,2.36-1.64,3.55-.18.31-.37.61-.53.93C58.86,26.89,56,32.67,53,38.43c-1.69,3.33-3.42,6.64-5.13,10-.68.1-.85.45-.54,1-.11.27-.22.55-.35.81l-34,67q-1.38,2.74-2.74,5.51l-1,1.69c-1.07,0-1.08,0-.57-1q27-53.15,54-106.29C63,16.47,63.28,16.08,64,16.65Z"/><path class="cls-14" d="M47.88,48.39c1.71-3.32,3.44-6.63,5.13-10,2.94-5.76,5.85-11.54,8.78-17.3.16-.32.35-.62.53-.93.19.14.6.22.45.53-.44.85-.63,1.87-1.46,2.47-.26.19-.52.43-.49.68.13,1-.52,1.71-.89,2.52-1.48,3.24-3.13,6.43-4.46,9.74-2.65,6.6-6.21,12.74-9.32,19.12-1.37,2.8-3.13,5.4-4.39,8.27-1.45,3.31-3.23,6.46-4.71,9.75-2.66,5.92-5.91,11.53-8.62,17.42-3,6.45-6.22,12.76-9.55,19A106.89,106.89,0,0,1,12.19,121a3.78,3.78,0,0,1-1.9,1.74Q11.66,120,13,117.23l34-67c.13-.26.24-.54.35-.81A1.84,1.84,0,0,0,47.88,48.39Z"/><path class="cls-10" d="M62.61,32.19a1.32,1.32,0,0,1,.45-.87l.19-.05-.1-.13a2.35,2.35,0,0,1,.63-1.22c.5,0,.5-.45.66-.74.47-.88.91-1.77,1.35-2.64a.41.41,0,0,1,.36.55c-.26,1.24.41.92,1.07.68a1,1,0,0,1,.32,0c.33.28-.48.66,0,.67s1.14-.09,1.26-.66c.09-.37.69-.72.18-1.19,0,0,0-.14,0-.17s.27-.3.38-.28c.79.16.86-1.42,1.84-.74a10.11,10.11,0,0,0,2.14,3.5.38.38,0,0,0,.13.09,2.44,2.44,0,0,0,1,1.57l.39.45c-.06.23,0,.41.23.5l.37.47a1.69,1.69,0,0,0,.81,1.51l.42,1.29a1,1,0,0,0-.09.66,5,5,0,0,1-.47,3.12c-1.09,2.74-3.53,3.57-6,4.18-1.79.44-3.64.57-5.45.89s-3.62.7-4.9,2.22a4.62,4.62,0,0,0-1.05,4.79c.58,1.52.86,2.92-.07,4.36l-.76,1.29c-.22,0-.42,0-.47.28l-1.18,1.38c-.28,0-.36.22-.41.44l-.21.35c-.28,0-.35.22-.4.45a9.05,9.05,0,0,0-1.14,2.26l-.3.5c-.48-.2-1-.67-1.41,0-.11.17-.33.17-.32,0,0-.58-.27-.41-.6-.37a1.49,1.49,0,0,1-1.27-1c.59.23.82-.09,1-.56a7.72,7.72,0,0,0-1,.56c-.11-.14-.46.06-.58-.31.37-.41,1.18-.25,1.39-1-.37-.08-.94.42-1,0-.07-1.09-.66-.32-1-.38.16-.39.31-.78.5-1.16q6.18-12.16,12.39-24.33c.15-.29.34-.55.51-.82.09,0,.2,0,.25,0S62.71,32.27,62.61,32.19Z"/><path class="cls-6" d="M81.08,40.25c.59.08,1.83-1,1.93-1.7,0-.19,0-.39,0-.58s.12-.4.35-.41.34.22.41.45-.28.78.17,1.07a55.84,55.84,0,0,0-3.92,6.66c-4,7.29-7.61,14.78-11.37,22.19-.12.23-.25.46-.35.7-1.27,3.23-2.74,6.37-4.19,9.52-.64-.06-.45-.73-.74-1l.3-.71c.39-.1.26-.26,0-.43a12.77,12.77,0,0,0,.06-6.72,1.63,1.63,0,0,0-.78-2,.41.41,0,0,1-.13-.1.34.34,0,0,0-.24-.52l-.44-.29c.11-.63-.4-.79-.78-1A2.53,2.53,0,0,1,64.57,64a1.55,1.55,0,0,0,1.94-.88c2.24-.6,3.07-1.83,2.57-3.76.25-.23.54-.09.83-.1a1,1,0,0,0,1-1.18c-.31-.72,0-.83.5-1,.3-.12.38-.43.51-.68a23.94,23.94,0,0,0,1.41-2.88c.12-.34,1.39-.93,0-1.35-.1,0,0-.29.16-.4a.45.45,0,0,0,.2-.58,1.37,1.37,0,0,1,.46-1.48,1.8,1.8,0,0,0,.54-1.11,1.61,1.61,0,0,1,.6-1.22c.33-.36.59-.77.88-1.15.4-.78,1.22-1.19,1.68-1.92a4.66,4.66,0,0,0,2.11-2c.13-.24.2-.51.49-.63.74.07.82-.26.48-.82l-.15-.09Z"/><path class="cls-12" d="M64.15,78.15c1.45-3.15,2.92-6.29,4.19-9.52.1-.24.23-.47.35-.7,3.76-7.41,7.38-14.9,11.37-22.19A55.84,55.84,0,0,1,84,39.08c.17-.34.38-.67.52-1,.34-.82.81-1,1.49-.36-.91,1.83-1.81,3.67-2.73,5.5q-4,7.89-8,15.77L64.82,79.59c-.15.29-.32.56-.49.84l-1.15-.36C63.5,79.43,63.82,78.79,64.15,78.15Z"/><path class="cls-15" d="M81.08,40.25l-.32.48c-.59.6-1,.55-1.47-.22-.26-.42-.56-.83-.8-1.28a1.17,1.17,0,0,1,.05-1.37c.9-.88.12-1.54-.19-2.24a1.32,1.32,0,0,0-1.62-.87l-.42-1.29A2,2,0,0,0,75.5,32l-.37-.47a.35.35,0,0,0-.23-.5l-.39-.45c0-.75-.53-1.13-1-1.57a.38.38,0,0,1-.13-.09A2.78,2.78,0,0,1,76,28.5c1.49.46,1.73.39,2-1l.33.22c0,.23-.07.43.28.31A9.75,9.75,0,0,1,81,30.62a.53.53,0,0,0,.3.75.49.49,0,0,1,.13.12.36.36,0,0,0,.19.5,2.6,2.6,0,0,1,.1.25.34.34,0,0,0,.17.53h0a.54.54,0,0,0,.23.79h0a9.61,9.61,0,0,0,.12,3.12c-.08.23-.16.46-.25.68a.38.38,0,0,0,0,.49c-.08.26-.15.51-.22.77a.48.48,0,0,0-.32.71Z"/><path class="cls-14" d="M78,27.52c-.24,1.37-.48,1.44-2,1a2.78,2.78,0,0,0-2.65.37,10.11,10.11,0,0,1-2.14-3.5l.12-.37.56-1,.52-.16a.41.41,0,0,0,.44,0A29.18,29.18,0,0,1,78,27.52Z"/><path class="cls-14" d="M82.28,36.69a9.61,9.61,0,0,1-.12-3.12A4.07,4.07,0,0,1,82.28,36.69Z"/><path class="cls-10" d="M71.92,24l-.56,1C71.06,24.39,71.19,24,71.92,24Z"/><path class="cls-14" d="M81.45,39.34a.48.48,0,0,1,.32-.71A.51.51,0,0,1,81.45,39.34Z"/><path class="cls-14" d="M82.16,33.56a.54.54,0,0,1-.23-.79A.58.58,0,0,1,82.16,33.56Z"/><path class="cls-14" d="M81.34,31.37a.53.53,0,0,1-.3-.75A.55.55,0,0,1,81.34,31.37Z"/><path class="cls-10" d="M72.88,23.81a.41.41,0,0,1-.44,0C72.59,23.6,72.73,23.39,72.88,23.81Z"/><path class="cls-14" d="M78.61,28.05c-.35.12-.33-.08-.28-.31A.29.29,0,0,1,78.61,28.05Z"/><path class="cls-14" d="M81.66,32a.36.36,0,0,1-.19-.5C81.71,31.59,81.74,31.76,81.66,32Z"/><path class="cls-14" d="M81.93,32.77a.34.34,0,0,1-.17-.53A.4.4,0,0,1,81.93,32.77Z"/><path class="cls-14" d="M82,37.86a.38.38,0,0,1,0-.49C82.15,37.55,82.33,37.73,82,37.86Z"/><path class="cls-14" d="M35.18,97.21c-.11-.64.28-1.21.25-1.84.11-.24.32-.47.18-.77l1.24-2.46,1.94-2.08.45-.4a1.06,1.06,0,0,0,1.14-.54.47.47,0,0,0,.09-.12.42.42,0,0,0,.52-.19l.61,0c-.08.25-.06.44.27.47s.37.14.38.45a1.51,1.51,0,0,0,1.15,1.59c.5.15,1.16.3,1.27,1a6.77,6.77,0,0,0,.79,1.95,1,1,0,0,1-.13,1.23c-.25.31-1,.83-.13,1.35a7.9,7.9,0,0,0-.74,4.54c.21,2,.45,4,.67,6a14.41,14.41,0,0,1-2.39,6.81,5.71,5.71,0,0,1-1.82,2,25.94,25.94,0,0,1-6,2.81c-1.45.36-2.89.77-4.29,1.25a5.14,5.14,0,0,0-3.47,5,3.35,3.35,0,0,0,1.39,2.89c.52.35.7,1,1.25,1.32a.38.38,0,0,0,.24.51l.44.3-.15.51-.63-.54c-.33.75-1,.9-1.65,1.07-.43.11-.93.19-1,.76a5.08,5.08,0,0,1-.67,1.59c-.36-.29-.1-.58,0-.86a2.48,2.48,0,0,0-.75-3.16,5.42,5.42,0,0,1-2.17-2.75c0-.24-.08-.48-.13-.72a.54.54,0,0,0-.19-.79l.11-.35c.16-.21.07-.38-.12-.51l.12-.36c.14-.39.32-.77,0-1.16a23.47,23.47,0,0,1,1.19-2.78c.49,0,.69-.36.93-.69l.39-.25a.53.53,0,0,0,.6-.34l5-1.19a.38.38,0,0,0,.53-.16,2.9,2.9,0,0,0,1.66-.67.38.38,0,0,0,.52-.21l.45-.37A.4.4,0,0,0,35,116l.89-.8c.23,0,.42,0,.5-.26a6.17,6.17,0,0,0,1.17-1.38,2.59,2.59,0,0,0,1-1.91,4.84,4.84,0,0,0,.57-2.56c.19-.2.1-.37-.07-.52-.17-.5.19-1.09-.29-1.53.3-.72-.2-1.25-.47-1.81-.7-1.48-1.06-3.13-2.09-4.46.15-.44-.15-.72-.36-1a4.62,4.62,0,0,0-.61-2.27h0Z"/><path class="cls-6" d="M39.24,89.66l-.45.4c-1.07-.22-1.15.89-1.75,1.31-.82-.5-1,.3-1.31.7s-.14.71-.59.92c-.09-.77.59-1.23.63-1.89-.37-.18-.41.14-.49.3a18.64,18.64,0,0,0-1.51,3.27c0,.16-.12.33-.32.28s-.26-.26-.17-.45A12.84,12.84,0,0,0,34,92.81c-.53.14-.68.75-1.43.63s-.57-.36-.36-.77l2.56-5.06c.15-.3.44-.59.27-1l.35-.68a2.45,2.45,0,0,0,1-1.93l4.55-9c1.22-2.4,2.46-4.79,3.69-7.18a10.34,10.34,0,0,0,2-4l.44-.86c.84-.64,1-1.71,1.51-2.53.3-.21.48-.42,0-.65a1.43,1.43,0,0,1,.42-.89c.34.06.93-.71,1,.38,0,.46.59,0,1,0-.21.72-1,.56-1.39,1,.12.37.47.17.65.33,0,.37.74,1,1.2,1s.64-.21.6.37c0,.22.21.22.32,0,.45-.72.93-.25,1.41,0l-.51,2.29a.35.35,0,0,0,.11.58c-.21.68.18,1.39-.14,2.06a.35.35,0,0,0,.1.56l0,.88c-.26-.09-.47-.07-.51.24s.22.5.49.63a1.16,1.16,0,0,0,.26.79h0a.35.35,0,0,0,.15.52l.09.29c-.2.36-.25.69.16.94l0,.43a.35.35,0,0,0,.14.53c-.12.39.14.75.12,1.13a2.39,2.39,0,0,0-.11,1.06c-.29.63-.8,1.12-1.08,1.86,0-.6-.25-.81-.78-.66a.75.75,0,0,1-.57,0c-.92-.59-1.61-.58-2,.6-.08.23-.48.49-.58.16-.34-1.15-1.18-.27-1.24-.14C47.5,77.68,46,78,46,79.35c-.05.79-1,.35-1.41.65-.18.13-.24,0-.31-.17-.26-.71-.78-.5-1-.09a33,33,0,0,0-1.61,3.13c-.26.56.1.93.74.82a.46.46,0,0,1,.51.18c.13.2,0,.39-.18.49-.39.22-.6.64-.94,1-.1-.78-.13-.83-.31-.76s-.45.22-.36.5c.46,1.41-.68,2.57-.59,3.92a.47.47,0,0,1-.09.12C39.81,88.91,39.52,89.27,39.24,89.66Z"/><path class="cls-6" d="M30.44,130.18l-.44-.3a.35.35,0,0,0-.24-.51c-.55-.31-.73-1-1.25-1.32,0-1.2-.07-2.34-1.39-2.89a5.14,5.14,0,0,1,3.47-5c1.4-.48,2.84-.89,4.29-1.25a25.94,25.94,0,0,0,6-2.81c0,.5.21.7.73.6.92-.2,1.57-1.15,2.64-.93,0,0,.1-.07.13-.12.82-1.48,2.22-2.54,3-4.06.08-.17.12-.48.44-.35.22.48-.81,1,.06,1.42l-3.21,6.74c-1.7,3.33-3.39,6.67-5.1,10-.43.84-.92,1.65-1.38,2.47-.52-.33-.78,0-1,.42-.12.26-.13.57-.45.72-.31-.26,0-.47.06-.68.17-.45.41-.89.06-1.37a.28.28,0,0,1,0-.42c.19-.16.77,0,.57-.43s-1-.24-1.19-.8c-.33.18-.54.5-.25.77.56.52.16.81-.13,1.21-.37-.32.11-.57,0-.85a.74.74,0,0,0-.25.05c-.18.07-.38.47-.53.11-.72-1.71-2-1.06-3.21-.83C31.43,129.87,30.94,130,30.44,130.18ZM37,128.69c0-.09-.05-.21-.1-.23a.27.27,0,0,0-.22.07c-.07.1-.09.25.08.28S36.86,128.74,37,128.69Zm.51.57s-.08-.13-.12-.13-.09.07-.13.1.07.12.11.13S37.42,129.29,37.47,129.26Z"/><path class="cls-6" d="M37.6,113.58A6.45,6.45,0,0,1,36.43,115c-.26-.1-.41,0-.5.25L35,116a.33.33,0,0,0-.51.23l-.45.37a.36.36,0,0,0-.52.21,2.9,2.9,0,0,1-1.66.67.35.35,0,0,0-.53.16l-5,1.19c-.35-.15-.48.09-.6.34l-.39.25c-.53-.06-.7.36-.93.69a23.47,23.47,0,0,0-1.19,2.78c-.13.39-.37.77,0,1.16l-.12.36a.34.34,0,0,0,.12.51c0,.12-.08.24-.11.35a.54.54,0,0,0,.19.79c.05.24.09.48.13.72a6.55,6.55,0,0,1-3.37-.57,9.39,9.39,0,0,1-2.17-.52c-.39-.22-.55.23-.88.39-.16-.23.2-1.13-.62-.58a.34.34,0,0,1-.45,0c-.18-.24,0-.43.13-.62,1.24-2.54,2.3-5.16,3.65-7.66,1.17-2.18,2.25-4.4,3.37-6.61l1.91.06c1,0,1.76.62,2.68.75.21,0,.44.29.59,0s-.08-.35-.24-.48-.53-.16-.36-.46.45-.12.7,0c1.24.47,2.56.67,3.83,1a1.36,1.36,0,0,0,1.81-.91c.07-.14.07-.52.3-.21s.34.06.56,0c1.19-.17,1.39-1.18,1.86-2,.28-.49.29-1.42,1.33-.89.23.12.52-.19.7-.44.48.44.12,1,.29,1.53a.34.34,0,0,0,.07.52,4.84,4.84,0,0,1-.57,2.56A2.65,2.65,0,0,0,37.6,113.58ZM19,125.51l-.14.11s.07.13.11.13.09-.07.14-.1A1.34,1.34,0,0,1,19,125.51Zm-1.31-.44-.14.11s.07.12.11.12.09-.06.14-.1Z"/><path class="cls-10" d="M38.78,107.06c-.18.25-.47.56-.7.44-1-.53-1,.4-1.33.89-.47.81-.67,1.82-1.86,2-.22,0-.3.33-.56,0s-.23.07-.3.21a1.36,1.36,0,0,1-1.81.91c-1.27-.36-2.59-.56-3.83-1-.25-.09-.54-.25-.7,0s.19.34.36.46.33.29.24.48-.38,0-.59,0c-.92-.13-1.69-.75-2.68-.75l-1.91-.06Q26.58,103.79,30,97c.17-.33.2-1,.78-.82s1.18.33,1.18,1c0,1.16,1,1.48,1.64,2s1-.35,1.38-.81a2.17,2.17,0,0,0,.23-.83,4.62,4.62,0,0,1,.61,2.27.91.91,0,0,0-.16-.11c-.23-.11-.17-.66-.56-.48a1,1,0,0,0-.61.7c-.08.4.31.42.52.58a1.34,1.34,0,0,1,.41.37c.29.57.52.26.76,0,1,1.33,1.39,3,2.09,4.46C38.58,105.81,39.08,106.34,38.78,107.06Z"/><path class="cls-15" d="M26.35,133.57A5.08,5.08,0,0,0,27,132c.06-.57.56-.65,1-.76.66-.17,1.32-.32,1.65-1.07l.63.54c.13.35.63.48.58.94a.53.53,0,0,0,.35.64,2,2,0,0,1-.36,2.23.36.36,0,0,0-.47.22c-.25.44-.66.35-1.06.33l-2.68-.73C26.3,134.17,26.38,133.85,26.35,133.57Z"/><path class="cls-10" d="M37,91.37c.6-.42.68-1.53,1.75-1.31l-1.94,2.08C36.71,91.83,37,91.62,37,91.37Z"/><path class="cls-14" d="M26.65,134.32l2.68.73A2.42,2.42,0,0,1,26.65,134.32Z"/><path class="cls-10" d="M35.61,94.6c.14.3-.07.53-.18.77C35,95,35.23,94.78,35.61,94.6Z"/><path class="cls-14" d="M31.22,132.27a.53.53,0,0,1-.35-.64C31.11,131.78,31.33,131.93,31.22,132.27Z"/><path class="cls-14" d="M30.39,134.72a.36.36,0,0,1,.47-.22C30.8,134.78,30.62,134.81,30.39,134.72Z"/><path class="cls-10" d="M35.18,97.21l.07.27Z"/><path class="cls-7" d="M5.36,131.71c.62-1.1,1-2.05,2.12-2.44a2.84,2.84,0,0,1,2.78.76c2.46,1.81,5.16,3.21,7.75,4.8A26.19,26.19,0,0,1,21.47,137a1.22,1.22,0,0,1,.39,1.62,26.59,26.59,0,0,1-2.18,3.68c-.57.89-.89,2.06-2,2.56-.23.1-.37.3-.69.19a31.45,31.45,0,0,1-6.27-3.28c-1.37-.85-2.65-1.84-4-2.79a9,9,0,0,1-2.27-2.49,2.39,2.39,0,0,1-.13-2.17A14.17,14.17,0,0,1,5.36,131.71Z"/><path class="cls-3" d="M47.9,112.67c-.87-.44.16-.94-.06-1.42-.32-.13-.36.18-.44.35-.76,1.52-2.16,2.58-3,4.06,0,0-.1.13-.13.12-1.07-.22-1.72.73-2.64.93-.52.1-.74-.1-.73-.6a5.71,5.71,0,0,0,1.82-2,14.41,14.41,0,0,0,2.39-6.81c.85-.06,1.12-.7,1.33-1.36s.69-.92,1.29-.44.85.28,1.15-.23c0,0,.11,0,.17,0,.25.17-.19.5.22.7.72-1.11,1.39-2.27,2.18-3.34,1.29-1.72,2-3.77,3.22-5.51a.59.59,0,0,0,0-.56c-.49-.59-.06-1,.18-1.5s.33-1.2,1.19-1c.07,0,.27-.19.32-.32.45-1.47,1.53-2.63,2.07-4l.88.45-.18.34a2.51,2.51,0,0,0-1,1.91c-1.75,3.49-3.37,7-5.3,10.44-.76.13-.95.56-.66,1.25l-.35.68c-.4-.11-.49.2-.63.46l-.84,1.65c-.53.15-1.67,1.95-1.49,2.41.06.15.3.22.46.32A15.33,15.33,0,0,1,47.9,112.67Z"/><path class="cls-6" d="M59.36,90.2l-.88-.45a34,34,0,0,1,2.31-5.37,11.24,11.24,0,0,0,1.68-3.31,1.49,1.49,0,0,1,.71-1l1.15.36Z"/><path class="cls-12" d="M50.42,106.93l.84-1.65c.14-.26.23-.57.63-.46a28.79,28.79,0,0,1-2.26,4.38C49.38,108.26,50.2,107.7,50.42,106.93Z"/><path class="cls-6" d="M50.42,106.93c-.22.77-1,1.33-.79,2.27l-.24.46c-.16-.1-.4-.17-.46-.32C48.75,108.88,49.89,107.08,50.42,106.93Z"/><path class="cls-6" d="M58.2,92.45a2.51,2.51,0,0,1,1-1.91A4.77,4.77,0,0,1,58.2,92.45Z"/><path class="cls-12" d="M52.24,104.14c-.29-.69-.1-1.12.66-1.25A2.35,2.35,0,0,1,52.24,104.14Z"/><path class="cls-10" d="M48.62,59.74c.46.23.28.44,0,.65l-.22-.14Z"/><path class="cls-3" d="M62.61,32.19c.1.08.19.19.08.3s-.16,0-.25,0A.37.37,0,0,1,62.61,32.19Z"/><path class="cls-3" d="M63.15,31.14l.1.13-.19.05Z"/><path class="cls-2" d="M47.88,48.39a1.84,1.84,0,0,1-.54,1C47,48.84,47.2,48.49,47.88,48.39Z"/><path class="cls-14" d="M76.73,34.75a1.32,1.32,0,0,1,1.62.87c.31.7,1.09,1.36.19,2.24a1.17,1.17,0,0,0-.05,1.37c.24.45.54.86.8,1.28.48.77.88.82,1.47.22l.15.09-.48.82c-.29.12-.36.39-.49.63a4,4,0,0,0-2.11,2c-.46.73-1.28,1.14-1.68,1.92a.62.62,0,0,0-.74.25c-1.5,1.84-2.9,3.77-4.43,5.6a5.19,5.19,0,0,1-4.14,1.76c-.17-1-2.06-2.16-3.23-1.95-.14-.25.36-.32.14-.62-.19.09-.39.26-.58.24a2,2,0,0,0-2,1.25A6,6,0,0,1,58.66,55c.93-1.44.65-2.84.07-4.36a4.62,4.62,0,0,1,1.05-4.79c1.28-1.52,3.08-1.9,4.9-2.22s3.66-.45,5.45-.89c2.51-.61,5-1.44,6-4.18a5,5,0,0,0,.47-3.12A1,1,0,0,1,76.73,34.75Z"/><path class="cls-14" d="M53.28,64.21l.51-2.29.3-.51a2.64,2.64,0,0,1,1.29,2.25,7.93,7.93,0,0,1,.17,2.43,1.06,1.06,0,0,0,.05.35c.68-.18,1.12.66,1.95.31a7.54,7.54,0,0,1,4-.68l.06,0,0,0c0,.18-.31.41,0,.54s.26-.19.36-.33l.2,0,.44.29a.42.42,0,0,0,.24.52.41.41,0,0,0,.13.1,4.56,4.56,0,0,0,.78,2A12.77,12.77,0,0,1,63.76,76a.35.35,0,0,0,0,.43l-.3.71c-.41.68-.45,1.53-1,2.15-.55-.55-1.7,0-1.89-1.09-.41.25-.36.76-.85,1,0-.44-.15-1-.55-.2a.61.61,0,0,1-.79.35.94.94,0,0,0-1.3.58c-.07.14-.34.18-.51.25a2.85,2.85,0,0,0-1.45,1.07,1.08,1.08,0,0,1-1.26.51c.19-.57.37-1.13.55-1.7a.35.35,0,0,0,0-.42,14.23,14.23,0,0,0,.07-4.37,1.41,1.41,0,0,0-.19-1.42c0-.38-.24-.74-.12-1.13a.37.37,0,0,0-.14-.53l0-.43a.86.86,0,0,0-.16-.94l-.09-.29a.33.33,0,0,0-.15-.52h0c.19-.36.24-.7-.16-1h0c.13-.25.22-.5-.08-.71h0l0-.88a.42.42,0,0,0-.1-.56c.32-.67-.07-1.38.14-2.06A.46.46,0,0,0,53.28,64.21Z"/><path class="cls-15" d="M61.59,66.07a7.54,7.54,0,0,0-4,.68c-.83.35-1.27-.49-1.95-.31a1.06,1.06,0,0,1-.05-.35,7.93,7.93,0,0,0-.17-2.43,2.64,2.64,0,0,0-1.29-2.25,9.16,9.16,0,0,1,1.14-2.25c.37.06.51-.09.4-.45l.21-.35c.37.08.51-.06.41-.44l1.18-1.38c.26.08.4,0,.47-.28L58.66,55a6,6,0,0,0,2.55-2.22,2,2,0,0,1,2-1.25c.19,0,.39-.15.58-.24.22.3-.28.37-.14.62,1.17-.21,3.06.94,3.23,2a6,6,0,0,1-2.11.7,3.37,3.37,0,0,0-2.26,1.25c-.22,0-.42,0-.31.28l-.31.51a.4.4,0,0,0-.47.24c-.44.87-.9,1.72-1.3,2.6-.14.33-.32.73,0,1.09l-.24.71a.34.34,0,0,0,.1.54,8.1,8.1,0,0,0,1.14,3.44c-.07.23-.13.46.26.35A.44.44,0,0,1,61.59,66.07Z"/><path class="cls-14" d="M73.51,29c.47.44,1,.82,1,1.57A2.44,2.44,0,0,1,73.51,29Z"/><path class="cls-14" d="M75.5,32a2,2,0,0,1,.81,1.51A1.69,1.69,0,0,1,75.5,32Z"/><path class="cls-6" d="M50.11,60.52,51.17,60C51,60.46,50.78,60.78,50.11,60.52Z"/><path class="cls-14" d="M56.25,57.92c.1.38,0,.52-.41.44C55.89,58.14,56,57.94,56.25,57.92Z"/><path class="cls-14" d="M55.63,58.71c.11.36,0,.51-.4.45C55.28,58.93,55.35,58.72,55.63,58.71Z"/><path class="cls-14" d="M57.9,56.26c-.07.24-.21.36-.47.28C57.48,56.28,57.68,56.25,57.9,56.26Z"/><path class="cls-14" d="M74.9,31a.35.35,0,0,1,.23.5C74.88,31.39,74.84,31.21,74.9,31Z"/><path class="cls-10" d="M62.44,79.26c.52-.62.56-1.47,1-2.15.29.31.1,1,.74,1-.33.64-.65,1.28-1,1.92a1.49,1.49,0,0,0-.71,1,11.24,11.24,0,0,1-1.68,3.31,34,34,0,0,0-2.31,5.37c-.54,1.42-1.62,2.58-2.07,4,0,.13-.25.34-.32.32-.86-.24-.93.49-1.19,1s-.67.91-.18,1.5a.59.59,0,0,1,0,.56c-1.23,1.74-1.93,3.79-3.22,5.51-.79,1.07-1.46,2.23-2.18,3.34-.41-.2,0-.53-.22-.7-.06,0-.16,0-.17,0-.3.51-.62.67-1.15.23s-1-.31-1.29.44-.48,1.3-1.33,1.36c-.22-2-.46-4-.67-6a7.9,7.9,0,0,1,.74-4.54l.2-.34a3.6,3.6,0,0,0,1-1.22,19.63,19.63,0,0,1,2-1.58.89.89,0,0,0,.88-.49A9.25,9.25,0,0,0,51.21,92a.42.42,0,0,0,.52-.22.47.47,0,0,0,.09-.12.42.42,0,0,0,.52-.24l.45-.37a.38.38,0,0,0,.5-.24l.2-.26a.44.44,0,0,0,.52-.25l.18-.27a.42.42,0,0,0,.51-.26,14.12,14.12,0,0,0,2.75-2.71c.22,0,.41,0,.45-.27l.33-.49c.27,0,.34-.24.4-.46l.31-.5c.3-.05.38-.23.3-.51l.49-.62c.49-.23.56-.73.75-1.16A36.18,36.18,0,0,0,62.44,79.26Z"/><path class="cls-10" d="M62.47,55.79a3.37,3.37,0,0,1,2.26-1.25,6,6,0,0,0,2.11-.7A5.23,5.23,0,0,0,71,52.07c1.53-1.83,2.93-3.76,4.43-5.6a.62.62,0,0,1,.74-.25c-.29.38-.55.79-.88,1.15a1.61,1.61,0,0,0-.6,1.22,1.8,1.8,0,0,1-.54,1.11,1.37,1.37,0,0,0-.46,1.48.45.45,0,0,1-.2.58c-.13.11-.26.37-.16.4,1.39.42.12,1,0,1.35a23.94,23.94,0,0,1-1.41,2.88c-.13.25-.21.56-.51.68-.5.19-.81.3-.5,1a1,1,0,0,1-1,1.18c-.29,0-.58-.13-.83.1-.23-.1-.29-.34-.42-.52a2.71,2.71,0,0,0-3.19-1,2.88,2.88,0,0,0-1.9,3A2.51,2.51,0,0,0,65.85,63l.66.13a1.55,1.55,0,0,1-1.94.88,2.53,2.53,0,0,0-3.12,1.35h0l-.35-.17a8.1,8.1,0,0,1-1.14-3.44.38.38,0,0,0-.1-.54l.24-.71c.41-1.39,1.27-2.58,1.78-3.93.11-.17.21-.34.31-.51C62.35,56.08,62.44,56,62.47,55.79Z"/><path class="cls-14" d="M66.51,63.13,65.85,63a2.51,2.51,0,0,1-2.28-2.17,2.88,2.88,0,0,1,1.9-3,2.71,2.71,0,0,1,3.19,1c.13.18.19.42.42.52C69.58,61.3,68.75,62.53,66.51,63.13Z"/><path class="cls-10" d="M77.83,44.3a4,4,0,0,1,2.11-2A4.66,4.66,0,0,1,77.83,44.3Z"/><path class="cls-10" d="M63.82,69.25a4.56,4.56,0,0,1-.78-2A1.63,1.63,0,0,1,63.82,69.25Z"/><path class="cls-10" d="M61.59,66.07a.44.44,0,0,0-.26-.52l.09-.18h0c.38.24.89.4.78,1l-.2,0-.34-.21,0,0Z"/><path class="cls-3" d="M80.43,41.64l.48-.82C81.25,41.38,81.17,41.71,80.43,41.64Z"/><path class="cls-10" d="M63.71,76.4a.35.35,0,0,1,0-.43C64,76.14,64.1,76.3,63.71,76.4Z"/><path class="cls-10" d="M62.91,67.2a.42.42,0,0,1-.24-.52A.34.34,0,0,1,62.91,67.2Z"/><path class="cls-15" d="M45.4,96.48l-.2.34c-.83-.52-.12-1,.13-1.35a1,1,0,0,0,.13-1.23,6.77,6.77,0,0,1-.79-1.95c-.11-.65-.77-.8-1.27-1a1.51,1.51,0,0,1-1.15-1.59c0-.31-.12-.42-.38-.45s-.35-.22-.27-.47l.81-.63h0c.51.25.92-.19,1.4-.19a.46.46,0,0,0,.77-.24l.29-.09c.25.12.51.22.68-.12a.2.2,0,0,1,.13,0c.41.31.69.23.83-.27.23-.35.71-.28,1-.57a.89.89,0,0,0,.88-.39.66.66,0,0,0,.52-.19.56.56,0,0,0,.61-.34h0a7.09,7.09,0,0,0,3-2.19l.41-.66a.32.32,0,0,0,.3-.29l.61-1a1.08,1.08,0,0,0,1.26-.51,2.85,2.85,0,0,1,1.45-1.07c.17-.07.44-.11.51-.25a.94.94,0,0,1,1.3-.58.61.61,0,0,0,.79-.35c.4-.84.51-.24.55.2.49-.21.44-.72.85-1,.19,1.12,1.34.54,1.89,1.09a36.18,36.18,0,0,1-2,3.82c-.67.12-.75.61-.75,1.16l-.49.62q-.5.06-.3.51l-.3.5c-.4-.07-.54.08-.41.46l-.33.49c-.25-.07-.38.05-.45.27A14.12,14.12,0,0,1,54.7,89.8c-.26-.1-.42,0-.51.26l-.18.27c-.27-.11-.43,0-.52.25-.06.09-.13.17-.2.26a.34.34,0,0,0-.5.24l-.45.37a.35.35,0,0,0-.52.24.47.47,0,0,1-.09.12.34.34,0,0,0-.52.22,9.25,9.25,0,0,1-1.93,1.16c-.47-.15-.69.15-.88.49a19.63,19.63,0,0,0-2,1.58A1.17,1.17,0,0,0,45.4,96.48Z"/><path class="cls-3" d="M52.93,83c-.14.22-.28.44-.41.66-.45-.17-.62.17-.87.44s-.49.58-.77.13-.49-.85-1-.4-1.08.79-.31,1.47c.17.15,0,.37-.06.55h0c-.35-.15-.48.09-.61.34a.66.66,0,0,1-.52.19c-.45-.21-.69,0-.88.39s-.74.22-1,.57a.59.59,0,0,0-.83.27.2.2,0,0,0-.13,0l-.35-.15a3.11,3.11,0,0,0-.18-.54.72.72,0,0,0-1-.39c-.46.22,0,.47,0,.7s-.11.43-.21.62c-.57-.18-1.14-.32-1.47.4h0c-.67-.26-1,.23-1.42.61a.42.42,0,0,1-.52.19c-.09-1.35,1.05-2.51.59-3.92-.09-.28.15-.42.36-.5s.21,0,.31.76c.34-.34.55-.76.94-1,.18-.1.31-.29.18-.49a.46.46,0,0,0-.51-.18c-.64.11-1-.26-.74-.82a33,33,0,0,1,1.61-3.13c.24-.41.76-.62,1,.09.07.21.13.3.31.17.44-.3,1.36.14,1.41-.65C46,78,47.5,77.68,48,76.62c.06-.13.9-1,1.24.14.1.33.5.07.58-.16.38-1.18,1.07-1.19,2-.6a.75.75,0,0,0,.57,0c.53-.15.75.06.78.66.28-.74.79-1.23,1.08-1.86l.3.36a14.23,14.23,0,0,1-.07,4.37c-.38.11-.24.26,0,.42-.18.57-.36,1.13-.55,1.7-.2.33-.4.67-.61,1C53,82.63,52.78,82.63,52.93,83ZM49,84l-.11-.14s-.12.08-.13.12.07.09.1.13Z"/><path class="cls-3" d="M27.12,125.16c1.32.55,1.43,1.69,1.39,2.89A3.35,3.35,0,0,1,27.12,125.16Z"/><path class="cls-3" d="M36.22,100.79c-.24.29-.47.6-.76,0a1.34,1.34,0,0,0-.41-.37c-.21-.16-.6-.18-.52-.58a1,1,0,0,1,.61-.7c.39-.18.33.37.56.48a.91.91,0,0,1,.16.11C36.07,100.07,36.37,100.35,36.22,100.79Z"/><path class="cls-10" d="M37.6,113.58a2.65,2.65,0,0,1,1-1.91A2.59,2.59,0,0,1,37.6,113.58Z"/><path class="cls-10" d="M41,88.81c.4-.38.75-.87,1.42-.61l-.81.63Z"/><path class="cls-10" d="M39.24,89.66c.28-.39.57-.75,1.14-.54A1.06,1.06,0,0,1,39.24,89.66Z"/><path class="cls-10" d="M23.24,124.07c-.35-.39-.11-.77,0-1.16C23.56,123.3,23.38,123.68,23.24,124.07Z"/><path class="cls-10" d="M24.45,120.13c.23-.33.4-.75.93-.69C25.14,119.77,24.94,120.15,24.45,120.13Z"/><path class="cls-10" d="M23.32,126.08a.54.54,0,0,1-.19-.79A.54.54,0,0,1,23.32,126.08Z"/><path class="cls-10" d="M25.77,119.19c.12-.25.25-.49.6-.34A.53.53,0,0,1,25.77,119.19Z"/><path class="cls-10" d="M39.14,109.11a.34.34,0,0,1-.07-.52C39.24,108.74,39.33,108.91,39.14,109.11Z"/><path class="cls-10" d="M35.93,115.22c.09-.25.24-.35.5-.25C36.35,115.21,36.16,115.25,35.93,115.22Z"/><path class="cls-10" d="M34.53,116.25A.33.33,0,0,1,35,116,.4.4,0,0,1,34.53,116.25Z"/><path class="cls-10" d="M33.56,116.83a.36.36,0,0,1,.52-.21A.38.38,0,0,1,33.56,116.83Z"/><path class="cls-10" d="M31.37,117.66a.35.35,0,0,1,.53-.16A.38.38,0,0,1,31.37,117.66Z"/><path class="cls-10" d="M23.24,124.94a.34.34,0,0,1-.12-.51C23.31,124.56,23.4,124.73,23.24,124.94Z"/><path class="cls-3" d="M29.76,129.37a.35.35,0,0,1,.24.51A.38.38,0,0,1,29.76,129.37Z"/><path class="cls-10" d="M54.5,75.21l-.3-.36a2.39,2.39,0,0,1,.11-1.06A1.41,1.41,0,0,1,54.5,75.21Z"/><path class="cls-3" d="M53.36,69.16c-.27-.13-.54-.28-.49-.63s.25-.33.51-.24h0a.55.55,0,0,0,.08.71h0Z"/><path class="cls-10" d="M53.36,69.16l.1-.17c.4.26.35.6.16,1A1.16,1.16,0,0,1,53.36,69.16Z"/><path class="cls-10" d="M53.86,70.76a.86.86,0,0,1,.16.94C53.61,71.45,53.66,71.12,53.86,70.76Z"/><path class="cls-10" d="M53.25,66.85a.42.42,0,0,1,.1.56A.35.35,0,0,1,53.25,66.85Z"/><path class="cls-10" d="M54.05,72.13a.37.37,0,0,1,.14.53A.35.35,0,0,1,54.05,72.13Z"/><path class="cls-10" d="M53.62,70a.33.33,0,0,1,.15.52A.35.35,0,0,1,53.62,70Z"/><path class="cls-3" d="M53.28,64.21a.46.46,0,0,1,.11.58A.35.35,0,0,1,53.28,64.21Z"/><path class="cls-3" d="M37,128.69c-.1.05-.18.14-.24.12s-.15-.18-.08-.28a.27.27,0,0,1,.22-.07S36.92,128.6,37,128.69Z"/><path class="cls-3" d="M37.47,129.26s-.1.1-.14.1-.07-.08-.11-.13.09-.1.13-.1S37.43,129.21,37.47,129.26Z"/><path class="cls-3" d="M19,125.51a1.34,1.34,0,0,0,.11.14c-.05,0-.1.1-.14.1s-.07-.08-.11-.13Z"/><path class="cls-3" d="M17.69,125.07l.11.13c-.05,0-.09.11-.14.1s-.07-.08-.11-.12Z"/><path class="cls-15" d="M61.69,66.13l.34.21c-.1.14-.16.42-.36.33S61.66,66.31,61.69,66.13Z"/><path class="cls-10" d="M53.46,69a.55.55,0,0,1-.08-.71C53.68,68.49,53.59,68.74,53.46,69Z"/><path class="cls-10" d="M54.39,80c-.2-.16-.34-.31,0-.42A.35.35,0,0,1,54.39,80Z"/><path class="cls-14" d="M61.85,56.58c-.51,1.35-1.37,2.54-1.78,3.93-.31-.36-.13-.76,0-1.09.4-.88.86-1.73,1.3-2.6A.4.4,0,0,1,61.85,56.58Z"/><path class="cls-14" d="M62.47,55.79c0,.18-.12.29-.31.28C62.05,55.74,62.25,55.75,62.47,55.79Z"/><path class="cls-14" d="M59.83,61.22a.38.38,0,0,1,.1.54A.34.34,0,0,1,59.83,61.22Z"/><path class="cls-14" d="M61.42,65.37l-.09.18c-.39.11-.33-.12-.26-.35Z"/><path class="cls-14" d="M45.4,96.48a1.17,1.17,0,0,1,1-1.22A3.6,3.6,0,0,1,45.4,96.48Z"/><path class="cls-14" d="M59.73,84.24c0-.55.08-1,.75-1.16C60.29,83.51,60.22,84,59.73,84.24Z"/><path class="cls-14" d="M48.4,93.68c.19-.34.41-.64.88-.49A.89.89,0,0,1,48.4,93.68Z"/><path class="cls-14" d="M58.94,85.37q-.19-.45.3-.51C59.32,85.14,59.24,85.32,58.94,85.37Z"/><path class="cls-14" d="M58.23,86.33c-.13-.38,0-.53.41-.46C58.57,86.09,58.5,86.3,58.23,86.33Z"/><path class="cls-14" d="M57.45,87.09c.07-.22.2-.34.45-.27C57.86,87.1,57.67,87.12,57.45,87.09Z"/><path class="cls-14" d="M54.19,90.06c.09-.26.25-.36.51-.26A.42.42,0,0,1,54.19,90.06Z"/><path class="cls-14" d="M53.49,90.58c.09-.27.25-.36.52-.25A.44.44,0,0,1,53.49,90.58Z"/><path class="cls-14" d="M52.79,91.08a.34.34,0,0,1,.5-.24A.38.38,0,0,1,52.79,91.08Z"/><path class="cls-14" d="M51.82,91.69a.35.35,0,0,1,.52-.24A.42.42,0,0,1,51.82,91.69Z"/><path class="cls-14" d="M51.21,92a.34.34,0,0,1,.52-.22A.42.42,0,0,1,51.21,92Z"/><path class="cls-10" d="M49.5,85.84c.08-.18.23-.4.06-.55-.77-.68-.12-1.1.31-1.47s.74,0,1,.4.58.09.77-.13.42-.61.87-.44A7.09,7.09,0,0,1,49.5,85.84Z"/><path class="cls-10" d="M43.88,87.8c.1-.19.28-.37.21-.62s-.5-.48,0-.7a.72.72,0,0,1,1,.39,3.11,3.11,0,0,1,.18.54l-.33.27-.29.09-.69,0Z"/><path class="cls-10" d="M42.41,88.2c.33-.72.9-.58,1.47-.4v0l-.08.19C43.33,88,42.92,88.45,42.41,88.2Z"/><path class="cls-14" d="M45.68,87.6a.59.59,0,0,1,.83-.27C46.37,87.83,46.09,87.91,45.68,87.6Z"/><path class="cls-10" d="M47.48,86.76c.19-.36.43-.6.88-.39A.89.89,0,0,1,47.48,86.76Z"/><path class="cls-14" d="M43.81,88l.08-.19.69,0A.46.46,0,0,1,43.81,88Z"/><path class="cls-14" d="M44.87,87.68l.33-.27.35.15C45.38,87.9,45.12,87.8,44.87,87.68Z"/><path class="cls-10" d="M48.88,86.18c.13-.25.26-.49.61-.34A.56.56,0,0,1,48.88,86.18Z"/><path class="cls-10" d="M52.93,83c-.15-.36,0-.36.3-.29A.32.32,0,0,1,52.93,83Z"/><path class="cls-10" d="M49,84l-.14.11s-.1-.09-.1-.13.08-.08.13-.12Z"/></g></g></svg>