<svg xmlns="http://www.w3.org/2000/svg" viewBox="0 0 131.31 103.23"><defs><style>.cls-1{fill:#101010;}.cls-2{fill:#878788;}.cls-3{fill:#434344;}.cls-4{fill:#040503;}.cls-5{fill:#232424;}.cls-6{fill:#717173;}.cls-7{fill:#2f3138;}.cls-8{fill:#545455;}.cls-9{fill:#3a3a3b;}.cls-10{fill:#4f4e4f;}.cls-11{fill:#a74236;}.cls-12{fill:#22deee;}.cls-13{fill:#0186c1;}.cls-14{fill:#c21af2;}.cls-15{fill:#8feaef;}</style></defs><g id="Capa_2" data-name="Capa 2"><g id="Capa_1-2" data-name="Capa 1"><path class="cls-1" d="M.89,41.77a3.42,3.42,0,0,0,1.68-3.6,39.26,39.26,0,0,1,.09-5.42c.15-2.32,1.23-3.47,3.49-4.05a34,34,0,0,1,4.93-.58c1.43-.16,1.57-.72,1.74-1.82.12-.68-.14-1.6.73-2.05l.44.5A16.25,16.25,0,0,0,13.6,30c0,14.18.11,28.36,0,42.54,0,3.46.6,6.22,3.48,8.38a34.06,34.06,0,0,1,4.34,4.24c1.18,1.28,1.94,1,2.59-.43.79-.23,1.21-.91,1.74-1.44,3.07-3,6.12-6.07,9.18-9.11,0,.21,0,.42.08.63-.59,1.63-2.42,2.27-3.06,3.86a16.78,16.78,0,0,0-4.3,4.31,2.69,2.69,0,0,0-1.49,1.34l-1.74,1.6c-1,.52-1.15,1.1-.3,1.93,2.19,2.15,4.37,4.32,6.51,6.52.66.69,1.21.42,1.83.05l.42.4c-1,1.26-1.9,1-3-.08-5.3-5.37-10.67-10.67-16-16a2.63,2.63,0,0,1-.93-2.42c.28-1.68-.49-2.14-2.08-2.18a27.5,27.5,0,0,1-5.17-.72,3.6,3.6,0,0,1-3.11-3.83c0-1.4,0-2.79-.08-4.19-.06-1.82.36-3.79-1.77-4.94C.08,60.12,0,59.29,0,58.55c0-4.89,0-9.78,0-14.67a2.1,2.1,0,0,1,.81-2l.24.55A2.25,2.25,0,0,0,.86,43a130.15,130.15,0,0,0-.09,15.8c.07,1.83,2,2.65,4.08,2,1.81,0,2.57-.75,2.48-2.65-.14-3,0-6.11,0-9.16,0-1.78,0-3.55,0-5.33,0-.77,0-1.53-1-1.78A5.4,5.4,0,0,0,1.44,42Zm10.5,31.49c.63.11,1.25.2,1.28-.73s0-1.66,0-2.49c0-3.5,0-3.5-3.35-3.41C7.93,65.8,7,64.72,7.22,62.94c.15-1.13-.46-1.49-1.49-1.33-.61.1-1.21.24-1.82.36a.8.8,0,0,0-.55.8c0,2.36,0,4.72.07,7.07a2.81,2.81,0,0,0,2.2,2.7C7.52,73.14,9.49,72.86,11.39,73.26Zm1.27-43.58c0-.48-.11-.91-.65-.78-2,.5-4,.12-6,.76-1,.31-1.92.75-2.15,1.77a19.09,19.09,0,0,0-.05,9.14c1-.34,2.73,1.06,3-1a5.06,5.06,0,0,1,1.7-3.13c1.25-.85,3.39.43,4-1.19.54-1.31.15-3,.16-4.52C12.7,30.37,12.67,30,12.66,29.68ZM13,51.26h0q0-5.76,0-11.52c0-2.41-1-3.21-3.26-2.47-1.7.55-1.7,2-1.57,3.47.54,6.2.21,12.42.26,18.63,0,1.24-.33,2.49-.32,3.74,0,1.89,1.2,2.35,3,2.37s2-.78,1.95-2.27C12.93,59.23,13,55.25,13,51.26Z"/><path class="cls-1" d="M33.69,8c1.46-3.2,3.81-4.41,7.42-4.14a35.85,35.85,0,0,0,9.7-.22h.57c1.42,5.66,2.88,6.8,8.53,6.7l.62,0H72.72c1.33-.15,3.09.78,3.91-.56,1.31-2.16,3.46-4.09,2.84-7.06a.23.23,0,0,1,.23-.19l.53.3c.11,1.26,1.08,1,1.87,1,3.47,0,6.94.16,10.4,0A4,4,0,0,1,96.59,6c.43.75.82,1.62,1.76,1.94l.69.38C96.15,11.23,93.27,14.1,90.4,17c-.31.31-1,.5-.77,1.07s1,.14,1.49.2c3.56.84,4.41,2,4.2,5.47A5.54,5.54,0,0,1,92.86,26c-3.57,0-4.67-.86-4.56-3.59a14.8,14.8,0,0,0,.82,1.46A2.84,2.84,0,0,0,94,23.67a2.48,2.48,0,0,0-.13-3.11,3,3,0,0,0-3.93-.91l-.83,0c0-.79-.52-.86-1.11-.85l-3.53.06H77.33L45,18.76a5.4,5.4,0,0,1-2.86-.4L32.82,8.72Zm47-2.33c-.65.38-.82,1.11-1.22,1.66-1,1.34-1.41,3.07-2.93,4-5.36-.15-10.72.08-16.08.17-7.24.11-5.23,1.24-9.11-5-.43-.67-.76-1.35-1.71-1.26-.43-.48-1-.36-1.55-.36-3.12,0-6.25.11-9.36,0-2.45-.12-2.89,1.9-3.79,3.3s1,1.68,1.45,2.55c.12.21.44.32.67.48,1,1.77,2.93,2.66,4.18,4.21.62,2.08,2.31,2.4,4.12,2.49,4.59.21,9.13-.56,13.77-.12a117.38,117.38,0,0,0,16.35.05c3.49-.17,6.94-.52,10.4.07a3.44,3.44,0,0,0,4.05-2.11A47.25,47.25,0,0,0,95.79,10c.58-.36,1.3-.63,1.09-1.54-.35-1.49-2.91-3.48-4.5-3.48q-5,0-10,0C81.7,4.94,80.89,4.69,80.66,5.69Z"/><path class="cls-2" d="M117,78.05l0,.1-.11,0-7.7,7.72c-1.33.72-1.44-.42-1.81-1.18,1.61-.79,2.61-2.27,3.84-3.47,4.93-4.8,4.92-4.81,4.74-11.68q0-4,0-8l0-9.23V43.13l0-8V31.8c0-.83.09-1.67,0-2.49-.11-1.21.44-2.55-.48-3.61a49.71,49.71,0,0,0-8-7.75l.51-1.27,0,0c1.73-.26,2.13,1.54,3.3,2.14l6.27,6.33q0,25.44,0,50.87A5.1,5.1,0,0,1,117,78.05Z"/><path class="cls-1" d="M117,78.05a5.1,5.1,0,0,0,.51-2q0-25.43,0-50.87l.42-.48c.11.17.34.37.31.52-.63,3.19,1.52,3.1,3.65,3.23,1.76.11,3.66,0,4.92,1.68-1.52,0-3-.82-4.56-.38l-2.1-.07c-.35-1-.92-1-1.64-.36a2.41,2.41,0,0,0,0,.38c0,1.81,0,3.62-.06,5.43,0,1,.46,1.53,1.4,1.14,1.52-.63,2.52.25,3.61,1,.26.64.78,1.29.75,1.91-.08,1.49.55,1.76,1.82,1.47a6.46,6.46,0,0,1,1.25-.08l.77-.45.06,1.21a8.72,8.72,0,0,0-2.9.59A1.85,1.85,0,0,0,123.89,44q0,7.32,0,14.64c0,1.46.55,2.26,2.09,2.15.17.19.33.56.51,0h0l2.52.39c-.1,2.85-.19,5.71-.32,8.56,0,.72.06,1.54-.71,2,0,0-.12,0-.16-.06a.57.57,0,0,1-.1-.19,23.71,23.71,0,0,0,.3-4.76c0-.77.12-1.53.13-2.3,0-2.66-1.07-3.35-3.79-2.43a.75.75,0,0,0-.29.88L124,64.54a.85.85,0,0,0-.44.84l-.84.85c-1.26.81-3.4-.43-4,1.19-.52,1.32-.11,3-.11,4.54,0,.21,0,.42.06.63,0,1.2.94.72,1.53.78,1.51.13,3-.36,4.53.15-1.26,1-2.78.67-4.17.7-1.64,0-2.44.43-2.23,2.26C118.38,77.77,118.23,77.79,117,78.05Zm1.21-26.64h0c0,4.19,0,8.39,0,12.58,0,1.06.28,1.45,1.36,1.56,3,.32,3.76-.86,3.55-4.48-.39-6.58-.87-13.17.18-19.76a6,6,0,0,0-.31-2.57c-.63-2-2.29-1.43-3.69-1.47-1.64,0-1,1.23-1,2C118.18,43.3,118.21,47.35,118.21,51.41Z"/><path class="cls-3" d="M51.34,100.21l-.55-.75c1.16-.46.69-1.82,1.39-2.54a2.64,2.64,0,0,0,1.07-1.5c.66-1.83,1.83-2.52,3.83-2.37,2.7.19,5.42,0,8.13.09,2.07.07,4.17-.39,6.2.29.2,1.39,1.13,2,2.3,2.66a10.45,10.45,0,0,1,4,4.14l-4.14,0c-.43-1.12.75-2.64-.87-3.45l-.21-.15.15.21,0,.42c-.79.14-1.17-.53-1.72-.86a27.89,27.89,0,0,0-10,0c-3.69,0-3.32-.27-3.37,3.39,0,.14,0,.28,0,.41Z"/><path class="cls-1" d="M71.41,93.43c-2-.68-4.13-.22-6.2-.29-2.71-.09-5.43.1-8.13-.09-2-.15-3.17.54-3.83,2.37a2.64,2.64,0,0,1-1.07,1.5l-.49-.49A10.71,10.71,0,0,0,52.44,95c.81-2.37,2.49-2.86,4.85-2.77,4.3.17,8.61,0,12.91,0h5.86a1.86,1.86,0,0,1,1.8,1.13c.74,1.39,1.63,2.72,2.25,4.17a1.4,1.4,0,0,0,1.75,1c3.87-.37,7.75-.29,11.63-.33,1,0,3.42-3,3.29-4,0-.09-.36-.14-.55-.21a54.41,54.41,0,0,0-6.3-6.31c-.31-.76-1.28-1.12-1.29-2.06l.73-.13c1.53,1.48,3.12,2.93,4.6,4.47,1.71,1.76,3.71,3.24,5.16,5.26a2,2,0,0,0-2.4,1.42c-1.06,2.27-2.8,3-5.25,2.8-3.14-.2-6.29,0-9.44-.06-1,0-1.69.11-1.83,1.37-.12,1.07-.74,2.19-1.92,2.2-3,0-6,.75-8.91-.1,0-.15,0-.3,0-.45h1.25l.21,0h1.27l.2,0,.48-.41.92.32c1.23,0,2.45,0,3.68,0s2.07-.52,2-1.94c.35-4.88-2.64-7.68-7.31-6.87C71.83,93.42,71.62,93.42,71.41,93.43Z"/><path class="cls-4" d="M51.69,96.43l.49.49c-.7.72-.23,2.08-1.39,2.54-3.82-.09-7.64-.33-11.46-.23a4.62,4.62,0,0,1-4.59-2.47c-.45-.76-.71-1.88-1.9-2l-.42-.4c2.88-3.22,6.36-5.84,9-9.25,2.37-1,4.88-.16,7.3-.58q16.8.31,33.6,0c2.24.43,4.56-.35,6.76.51l.24.37-.73.13H69c-5.52,0-11,0-16.56,0-3.27,0-6.91-1-9.72.37s-4.81,4.37-7.13,6.68c-.57.56-1.56,1.14-.89,2.07.88,1.22.93,3.36,2.94,3.43,3.7.13,7.4.05,11.11.05C50.32,98.54,51,97.51,51.69,96.43Z"/><path class="cls-5" d="M51.38,3.67h-.57C51.07,1,51.81.15,54.42.22,58.28.32,62.15-.3,66,.35c.24.5.5.58.81.07,3.49-.63,7-.14,10.5-.21,1.25,0,2.37.21,2.53,1.78-1.49-1-3.19-.83-4.87-.88-1.38,0-1.72.55-1.45,1.76,0,.74,0,1.49,0,2.23.06,1.47-.51,2.36-2.09,2.34-1.94-.58-4,.38-5.9-.44.42-1.23-.79-2.8.78-3.79a13.45,13.45,0,0,1,.09,1.67c-.06,1,.38,1.36,1.36,1.34S69,5.71,69,4.9s0-1.54,0-2.31c0-.59.18-1.37-.74-1.47s-1.75-.31-2,.93L65,2c-.42-1.27-1.48-1-2.36-.87-1,.11-.67,1-.66,1.59a6,6,0,0,0,.24,3.57l0,.7-.89.11C57.69,7,57.54,7.8,57.6,3.24V2.83c0-.52.27-1.12-.24-1.52-1.15-.9-5,.14-5.63,1.51Zm7.18-.9-.09,2.3c0,.77.32,1.14,1.12,1.15S61,6,60.93,5.07c0-.76,0-1.53-.08-2.29.2-1,0-1.69-1.27-1.68S58.52,2,58.56,2.77Zm14.11.91h0V2c0-.88-.62-.95-1.29-.91a.79.79,0,0,0-.74,1.17,4.63,4.63,0,0,1,0,2.61c-.1.63,0,1.26.88,1.3s1.17-.26,1.15-1.06C72.66,4.64,72.67,4.16,72.67,3.68Z"/><path class="cls-2" d="M89.37,85.42l-.24-.37.09-.91a3,3,0,0,0,1.9.66,1.85,1.85,0,0,0,.66,1.44c1.31,1.13,2.55,2.33,3.81,3.5,4.52,4.19,3.18,4.56,7.83-.4,1.12-1.06,2.56-1.86,2.89-3.56.67.59,1.8.91,1.31,2.19l-.55.55a18.63,18.63,0,0,0-5.81,5.81c-.37,1.16-1.33.8-2.13.82-1.45-2-3.45-3.5-5.16-5.26C92.49,88.35,90.9,86.9,89.37,85.42Z"/><path class="cls-5" d="M33.69,8l-.87.7c-.89-.94-1.63-.88-2.55.11-1.85,2-3.79,3.92-5.78,5.77-1.1,1-.95,1.7.26,2.36l1.08,1.68-.29.29-1.58-1c-.58-1.4-1.28-1.6-2.43-.45-2.47,2.47-5,4.84-7.54,7.26l-.44-.5c5.56-5.5,11.16-11,16.65-16.55C31.68,6.2,32.54,7.94,33.69,8Z"/><path class="cls-2" d="M125.24,41.91a8.72,8.72,0,0,1,2.9-.59c.75,0,1.24,1,2.11.51h0a16.81,16.81,0,0,1,.38,4.64c0,3.4,0,6.81,0,10.22a7.39,7.39,0,0,1-.83,3.79l-.83.7-2.52-.39c.9-1.1,3-1,2.91-3.15-.08-4.19,0-8.38,0-12.58a2.54,2.54,0,0,0-2.53-2.76C126.27,42.24,125.67,42.42,125.24,41.91Z"/><path class="cls-5" d="M69.36,102.33l0,.45c-1.08.74-2.23.39-3.37.22V97.35h-.34l-.1.78-.65,0c-.2-.55-.21-1.1-1.05-1.32-1.73-.46-1.72,1.43-2.94,2V97l0-.56a27.89,27.89,0,0,1,10,0,7.79,7.79,0,0,0-.26,2.92c0,.29,0,.58,0,.87a1.35,1.35,0,0,1-.33.09c-.56,0-.7.82-1.33.72,0-.27,0-.55-.07-.82l.06-.41c1.24-.84,2.07-1.69,0-2.56-2.31-.78-2.59-.61-2.58,1.57,0,.48,0,1,.08,1.44-.52,2.15.79,2.15,2.28,1.93Z"/><path class="cls-4" d="M64.92,98.16l.65,0c0,1.6,0,3.19,0,4.78-4,.09-7.93.18-11.89.24a1.44,1.44,0,0,1-1.51-.83,30.32,30.32,0,0,1,3.69,0c1.7.17,2-.62,1.74-2,0-.13,0-.27,0-.41.05-3.66-.32-3.35,3.37-3.39,0,.19,0,.37,0,.56-.87,0-2.13-.8-2.4.59a8.11,8.11,0,0,0,.12,4.3c.5,1.19,2,.09,3,.16a3.09,3.09,0,0,1,.59.18c1.34-.08,3.4.87,2.76-2Z"/><path class="cls-1" d="M107.62,88c.49-1.28-.64-1.6-1.31-2.19-.1-.76-.75-1.12-1.21-1.59-1.38-1.41-2.8-2.77-4.21-4.15-.94-1.55-2.81-2.34-3.41-4.17,1-.09,1.36.83,2,1.35,2.73,2.41,4.86,5.45,7.93,7.5.37.76.48,1.9,1.81,1.18l.49.49C109.08,87,108.74,88,107.62,88Z"/><path class="cls-4" d="M129.8,60.48a7.39,7.39,0,0,0,.83-3.79c0-3.41,0-6.82,0-10.22a16.81,16.81,0,0,0-.38-4.64c1.15.38,1.06,1.38,1.06,2.25,0,4.68,0,9.36-.06,14C131.24,59.16,131.26,60.29,129.8,60.48Z"/><path class="cls-6" d="M57.55,100.25c.29,1.42,0,2.21-1.74,2a30.32,30.32,0,0,0-3.69,0c-.48-.62-1.3-1.12-.78-2.11Z"/><path class="cls-7" d="M99,8.35,98.35,8c.93-1,1.89-1.3,3-.18,2.21,2.28,4.44,4.53,6.66,6.79l-.48.48c-2.13-2.07-4.27-4.13-6.37-6.23C100.5,8.19,99.93,7.67,99,8.35Z"/><path class="cls-8" d="M122.28,29.74c1.57-.44,3,.34,4.56.38l.42,0h0l.07.83c1,3,.85,6.1.79,9.19l-.77.45c0-1.11,0-2.21,0-3.32C127.28,31.69,127.28,31.69,122.28,29.74Z"/><path class="cls-2" d="M73.52,2.87c-.27-1.21.07-1.79,1.45-1.76,1.68,0,3.38-.14,4.87.88.1.07.1.15,0,.24a.55.55,0,0,0-.16.3.23.23,0,0,0-.23.19Z"/><path class="cls-5" d="M109.66,86.39l-.49-.49,7.7-7.72c.74.37.34.77,0,1.11Q113.28,82.85,109.66,86.39Z"/><path class="cls-7" d="M118,24.69l-.42.48-6.27-6.34.49-.49A55.5,55.5,0,0,1,118,24.69Z"/><path class="cls-5" d="M101.26,94.33a18.63,18.63,0,0,1,5.81-5.81A14.44,14.44,0,0,1,101.26,94.33Z"/><path class="cls-4" d="M128.08,40.11c.06-3.09.16-6.19-.79-9.19,1.37,0,1.24,1.07,1.3,1.87a23.32,23.32,0,0,1,0,4.34c-.23,1.89-.27,3.6,1.63,4.7-.87.54-1.36-.53-2.11-.51Z"/><path class="cls-8" d="M124.63,73.52c-1.5-.51-3,0-4.53-.15-.59-.06-1.51.42-1.53-.78l1.16-.06a17.72,17.72,0,0,0,5.48-.41,1.76,1.76,0,0,0,1.21.46c-.18.35-.43.4-.74.15-.36.25-.91.23-1.09.75Z"/><path class="cls-1" d="M111.76,18.34l-.49.49c-1.17-.59-1.57-2.39-3.3-2.13-.31-.5.2-1.24-.46-1.64l.48-.48Z"/><path class="cls-6" d="M128,66.75a23.71,23.71,0,0,1-.3,4.76h0l-.36-.69C127.56,69.48,126.67,67.93,128,66.75Z"/><path class="cls-9" d="M65.52,102.92c0-1.6,0-3.19,0-4.79,0-.26.07-.52.1-.78H66V103Z"/><path class="cls-8" d="M66.81.42c-.31.51-.57.43-.81-.07C66.31-.12,66.58-.13,66.81.42Z"/><path class="cls-6" d="M127.64,71.52c0,.73-.21,1.14-1,.85a1.75,1.75,0,0,1-.16-.27,1.85,1.85,0,0,1,.83-1.27Z"/><path class="cls-6" d="M126.42,72.58a1.76,1.76,0,0,1-1.21-.46l1.24,0a1.75,1.75,0,0,0,.16.27A.29.29,0,0,1,126.42,72.58Z"/><path class="cls-1" d="M124.59,73.48c.18-.52.73-.5,1.09-.75.18.28.35.56,0,.83A.82.82,0,0,1,124.59,73.48Z"/><path class="cls-1" d="M.81,41.85l.08-.08.55.2-.39.43Z"/><path class="cls-5" d="M79.7,2.53a.55.55,0,0,1,.16-.3l.37.6Z"/><polygon class="cls-8" points="127.26 30.08 127.32 30.07 127.23 30.09 127.26 30.08"/><path class="cls-8" d="M34.89,74.13c-3.06,3-6.11,6.09-9.18,9.11-.53.53-.95,1.21-1.74,1.44-1.66-.55-2.77-1.93-3.87-3.08C17.58,79,14,76.72,15.22,72.09c1.47-.09,3.32.66,3.76-1.71a6.08,6.08,0,0,0,3.79,2.49L33.2,73C34,73,35,72.73,34.89,74.13Z"/><path class="cls-8" d="M48.77,84.54c-2.42.42-4.93-.43-7.3.58-1.13-.21-1.81.51-2.52,1.19-2.05,2-4,4.06-6.16,5.89-.88.74-1.3.62-2-.09-2.1-2.11-4.27-4.16-6.4-6.24l1.74-1.6L27,86c.13,1.48.9,2.4,2.43,2.12,1.14-.2,1.46-1.17,1.27-2.28s-1.24-1.14-2.07-1.4c0-.76,0-1.48-1-1.55a16.78,16.78,0,0,1,4.3-4.31c.11.65,0,1.38,1,1.45s1.86.28,2.8.42c.62,3.21,2.6,4.75,4.91,3.84a3.69,3.69,0,0,0,2.5-4.45c-.67-2.38-2.27-3.21-5.22-2.71-1.37-2.07.49-2.79,1.61-3.82,1.17,1.38,2.26,2.83,3.53,4.1,1.87,1.87,2.76,5.32,6.54,4.31C49.54,82.75,48.45,83.43,48.77,84.54Z"/><path class="cls-2" d="M15.22,72.09C14,76.72,17.58,79,20.1,81.6c1.1,1.15,2.21,2.53,3.87,3.08-.65,1.47-1.41,1.71-2.59.43A34.06,34.06,0,0,0,17,80.87c-2.88-2.16-3.52-4.92-3.48-8.38.15-14.18,0-28.36,0-42.54a16.25,16.25,0,0,1,.39-5.2c2.52-2.42,5.07-4.79,7.54-7.26,1.15-1.15,1.85-.95,2.43.45-3,2.11-5.35,4.91-8,7.39a2.76,2.76,0,0,0-.79,2.27c0,4.48,0,9,0,13.43l0,9.24V61.6Z"/><path class="cls-10" d="M7.28,49c0,3-.09,6.11,0,9.16.09,1.9-.67,2.69-2.48,2.65-.23-.6-.77-.73-1.3-.93A2.45,2.45,0,0,1,1.8,57.36c.05-3.2.05-6.4.08-9.6C3.73,47.93,5.3,49.36,7.28,49Z"/><path class="cls-3" d="M8.49,36.43a5.06,5.06,0,0,0-1.7,3.13c-.22,2.07-1.95.67-2.95,1,0-2.08,0-4.16,0-6.23s1.29-3.89,3.06-4.15,3.29-.31,4.93-.45A12.06,12.06,0,0,1,8.49,36.43Z"/><path class="cls-3" d="M3.91,62c.61-.12,1.21-.26,1.82-.36,1-.16,1.64.2,1.49,1.33-.24,1.78.71,2.86,2.11,3.69l2.11,5.86c-.77,0-1.54.07-2.3,0-4.38-.34-5.27-1.32-5.27-5.72C3.87,65.18,3.89,63.57,3.91,62Z"/><path class="cls-10" d="M35.75,80.49c-.94-.14-1.86-.35-2.8-.42s-.93-.8-1-1.45c.64-1.59,2.47-2.23,3.06-3.86.83-.54.67-1.4.75-2.21.22-2-.6-3.94-.14-5.92,1-.08,2-.61,3-.4l.13,4L39,71c-.51,1,.14,1.63.57,2.35-1.12,1-3,1.75-1.61,3.82A5.1,5.1,0,0,0,35.75,80.49Z"/><path class="cls-2" d="M24.38,85.87c2.13,2.08,4.3,4.13,6.4,6.24.71.71,1.13.83,2,.09C35,90.37,36.9,88.27,39,86.31c.71-.68,1.39-1.4,2.52-1.19-2.69,3.41-6.17,6-9,9.25-.62.37-1.17.64-1.83-.05-2.14-2.2-4.32-4.37-6.51-6.52C23.23,87,23.42,86.39,24.38,85.87Z"/><path class="cls-4" d="M35.58,66.63c-.46,2,.36,3.94.14,5.92-.08.81.08,1.67-.75,2.21,0-.21-.06-.42-.08-.63C35,72.73,34,73,33.2,73l-10.43-.12c0-.15,0-.29,0-.44H27a45.25,45.25,0,0,1,5.21,0c1.82.21,2.46-.26,2.38-2.19-.34-7.78.45-15.59-.46-23.36-.11-1-.29-2.21,1.33-2.29,0,.62.1,1.23.14,1.85a35.06,35.06,0,0,0,0,7.17A100.55,100.55,0,0,0,35.58,66.63Z"/><path class="cls-8" d="M7.28,49c-2,.34-3.55-1.09-5.4-1.26-.45-5.66.68-5.19,4.12-5.61.12,0,.22-.16.33-.24,1,.25,1,1,1,1.78C7.29,45.47,7.29,47.24,7.28,49Z"/><path class="cls-2" d="M6.33,41.91c-.11.08-.21.22-.33.24-3.44.42-4.57,0-4.12,5.61,0,3.2,0,6.4-.08,9.6A2.45,2.45,0,0,0,3.55,59.9c.53.2,1.07.33,1.3.93-2,.61-4-.21-4.08-2A130.15,130.15,0,0,1,.86,43a2.25,2.25,0,0,1,.19-.59L1.44,42A5.4,5.4,0,0,1,6.33,41.91Z"/><path class="cls-5" d="M11.44,72.49,9.33,66.63c3.36-.09,3.36-.09,3.35,3.41,0,.83,0,1.66,0,2.49l-1.23,0Z"/><path class="cls-7" d="M8.49,36.43a12.06,12.06,0,0,0,3.38-6.69l.79-.06c0,.35,0,.69,0,1,0,1.52.38,3.21-.16,4.52C11.88,36.86,9.74,35.58,8.49,36.43Z"/><path class="cls-8" d="M12.66,29.68l-.79.06c-1.64.14-3.3.2-4.93.45s-3,2-3.06,4.15,0,4.15,0,6.23a19.09,19.09,0,0,1,.05-9.14c.23-1,1.19-1.46,2.15-1.77C8,29,10,29.4,12,28.9,12.55,28.77,12.7,29.2,12.66,29.68Z"/><path class="cls-8" d="M3.91,62c0,1.6,0,3.21,0,4.81,0,4.4.89,5.38,5.27,5.72.76.06,1.53,0,2.3,0h0c0,.25,0,.51,0,.76-1.9-.4-3.87-.12-5.76-.72a2.81,2.81,0,0,1-2.2-2.7c-.09-2.35-.06-4.71-.07-7.07A.8.8,0,0,1,3.91,62Z"/><path class="cls-10" d="M27.61,82.93c1,.07,1.06.79,1,1.56-.83.22-1.18.93-1.63,1.55l-.89-1.77A2.69,2.69,0,0,1,27.61,82.93Z"/><path class="cls-3" d="M11.39,73.26c0-.25,0-.51,0-.76l1.23,0C12.64,73.46,12,73.37,11.39,73.26Z"/><path class="cls-8" d="M35.58,46.47l-.15-1.84c0-.16,0-.32,0-.47l0-7.74a7.94,7.94,0,0,0,0-4.63c-.15-1.26.41-2.61-.55-3.75l-.05-.42c.89-.66.63-2.15,1.84-2.58,1.46,1.19,3,1.65,4.78.67A4,4,0,0,0,43.29,22c.06-1.83-1.48-2.51-2.57-3.51l1.44-.14a5.4,5.4,0,0,0,2.86.4l32.31.08c.15,1,1.17,1.69.85,2.81l-27.12.08a3.21,3.21,0,0,1-2.88,0l-1.47,0a2.33,2.33,0,0,0-1.26,2.5h0a1.16,1.16,0,0,0-1.1.45C42.55,26.79,40.71,28.85,39,31c-.39.5-.94,1.26-.32,2-.61,4.47-.28,9-.39,13.44Z"/><path class="cls-3" d="M49.61,5.3c1-.09,1.28.59,1.71,1.26,3.88,6.21,1.87,5.08,9.11,5,5.36-.09,10.72-.32,16.08-.17.09.6-.19,1.79.83,1.38,1.25-.5,1.91.48,2.86.57-.27.7-.55,1.4-.83,2.11-1.54,0-3.07,0-4.61,0-7.54-.2-15.09.48-22.62-.41a6.41,6.41,0,0,1-.45-.7c-1-1.89-1.17-4.43-4.09-4.62-.18,0-.4-.53-.46-.85-.21-1-.34-2-.51-3.07C47.62,5.59,48.73,6.18,49.61,5.3Zm26.28,9.15a5.68,5.68,0,0,0,.15-.78,1,1,0,0,0-.13-.36c-.08.14-.22.27-.23.41A2.83,2.83,0,0,0,75.89,14.45Z"/><path class="cls-8" d="M95.32,23.74c.21-3.51-.64-4.63-4.19-5.47.05-.79.66-1.2,1.16-1.67,2-1.86,4-3.63,5.93-5.56,1-1,1.53-1,2.7-.09,2.24,1.76,3.73,4.32,6.24,5.76q-4.78,4.84-9.58,9.67C96.72,25.59,96.37,24.36,95.32,23.74ZM102.26,15a1.68,1.68,0,0,0-1.79,1.64,1.81,1.81,0,0,0,1.89,2,1.65,1.65,0,0,0,1.71-1.76A1.77,1.77,0,0,0,102.26,15Z"/><path class="cls-5" d="M52.14,15c7.53.89,15.08.21,22.62.41,1.54,0,3.07,0,4.61,0h3c2.47.88,5,.24,7.53.4a3.44,3.44,0,0,1-4.05,2.11c-3.46-.59-6.91-.24-10.4-.07a117.38,117.38,0,0,1-16.35-.05c-4.64-.44-9.18.33-13.77.12-1.81-.09-3.5-.41-4.12-2.49,2.7-.29,5.34.63,8,.4A6.41,6.41,0,0,0,52.14,15Z"/><path class="cls-9" d="M89.9,15.82c-2.51-.16-5.06.48-7.53-.4.31-1.22.86-2.1,2.35-2.18a2.39,2.39,0,0,0,2.22-2.16c.23-1.22.4-2.46.6-3.69l6.62.54c.57.65,1.9.69,1.63,2A47.25,47.25,0,0,1,89.9,15.82Z"/><path class="cls-9" d="M49.25,15.84c-2.7.23-5.34-.69-8-.4C40,13.89,38.05,13,37,11.23a2.12,2.12,0,0,0-.34-1.36c-.72-1-.41-1.62.66-2l6.7-.05a4.79,4.79,0,0,1,.09.83c-.17,2.43.5,4.2,3.23,4.69C48.63,13.56,49,14.75,49.25,15.84Z"/><path class="cls-10" d="M51.38,3.67l.35-.85H57.6v.41c-.06,4.56.09,3.74,3.75,3.87.29,1.22-.66,2.13-.82,3.23l-.62,0C54.26,10.47,52.8,9.33,51.38,3.67Z"/><path class="cls-10" d="M73.52,2.87l6-.15c.62,3-1.53,4.9-2.84,7.06-.82,1.34-2.58.41-3.91.56.28-1.27-1.28-1.74-1.27-2.9,1.58,0,2.15-.87,2.09-2.34C73.5,4.36,73.52,3.61,73.52,2.87Z"/><path class="cls-8" d="M88.3,22.38c-.11,2.73,1,3.6,4.56,3.59-.12,1.8,2.22,1.48,2.53,2.91a1.74,1.74,0,0,1,0,.39C93.8,28.85,93.77,31,92.43,31c-2.56-2.62-4.58-5.76-7.58-8l0,0c0-.63,0-1.22-.87-1.29a.13.13,0,0,1-.13.16,6.15,6.15,0,0,0,.59-3.05L88,18.77c.59,0,1.13.06,1.11.85a2.4,2.4,0,0,0-1.22,2.13l.37.61Z"/><path class="cls-2" d="M107.16,16.71c-2.51-1.44-4-4-6.24-5.76-1.17-.91-1.71-.9-2.7.09-1.9,1.93-4,3.7-5.93,5.56-.5.47-1.11.88-1.16,1.67-.51-.06-1.19.43-1.5-.2s.46-.76.77-1.07c2.87-2.9,5.75-5.77,8.64-8.65.89-.68,1.46-.16,2.1.48,2.1,2.1,4.24,4.16,6.37,6.23.66.4.15,1.14.46,1.64l0,0C107.69,16.29,107.43,16.63,107.16,16.71Z"/><path class="cls-3" d="M71.45,7.44c0,1.16,1.55,1.63,1.27,2.9H60.53c.16-1.1,1.11-2,.82-3.23L62.24,7h3.31C67.46,7.82,69.51,6.86,71.45,7.44Z"/><path class="cls-10" d="M80.2,13.31c-1-.09-1.61-1.07-2.86-.57-1,.41-.74-.78-.83-1.38,1.52-.94,1.95-2.67,2.93-4,.4-.55.57-1.28,1.22-1.66l4.2.09c-.5,1.32.07,3.49-1.41,3.88C81.3,10.22,80.94,11.8,80.2,13.31Z"/><path class="cls-2" d="M42.16,18.36l-1.44.14-.32-.16c-2.38-2.9-5.23-5.35-7.85-8-.78-.79-1.37-.19-1.92.4L24.75,17c-1.21-.66-1.36-1.34-.26-2.36,2-1.85,3.93-3.77,5.78-5.77.92-1,1.66-1,2.55-.11Q37.49,13.54,42.16,18.36Z"/><path class="cls-11" d="M88.3,22.38l0,0,.23-.61,1.45-2.1a3,3,0,0,1,3.93.91A2.48,2.48,0,0,1,94,23.67a2.84,2.84,0,0,1-4.88.17A14.8,14.8,0,0,1,88.3,22.38Z"/><path class="cls-5" d="M37.35,7.86c-1.07.39-1.38,1-.66,2A2.12,2.12,0,0,1,37,11.23c-.23-.16-.55-.27-.67-.48C35.87,9.88,34,9.56,34.91,8.2s1.34-3.42,3.79-3.3c3.11.15,6.24,0,9.36,0,.54,0,1.12-.12,1.55.36-.88.88-2,.29-3,.46-1-.54-1.92-.7-2.55.53-1.64,0-3.28,0-4.91-.11A1.53,1.53,0,0,0,37.35,7.86Z"/><path class="cls-5" d="M84.86,5.78l-4.2-.09c.23-1,1-.75,1.69-.75q5,0,10,0c1.59,0,4.15,2,4.5,3.48.21.91-.51,1.18-1.09,1.54.27-1.34-1.06-1.38-1.64-2C94,6.65,93.2,6.18,92,6.19c-1.39,0-2.78,0-4.16,0C87,4.63,85.91,5.46,84.86,5.78Z"/><path class="cls-10" d="M84.47,18.83a6.15,6.15,0,0,1-.59,3.05.28.28,0,0,1-.44-.15l-5.26-.08c.32-1.12-.7-1.83-.85-2.81Z"/><path class="cls-10" d="M95.39,28.88c-.31-1.43-2.65-1.11-2.53-2.91a5.54,5.54,0,0,0,2.46-2.23c1.05.62,1.4,1.85,2.26,2.64-.34.76-1.51,1-1.36,2.07v0Z"/><path class="cls-5" d="M89.94,19.65l-1.45,2.1h-.6a2.4,2.4,0,0,1,1.22-2.13Z"/><path class="cls-8" d="M107.36,84.72c-3.07-2-5.2-5.09-7.93-7.5-.59-.52-.93-1.44-2-1.35h0c0-.29-.13-.44-.43-.42h0a.63.63,0,0,0-.43-.86v0c-.19-1.28.63-1.3,1.55-1.29,2.37,0,4.75-.1,7.12,0,3.24.19,5.73-.89,7.33-3.78h3.29c.18,6.87.19,6.88-4.74,11.68C110,82.45,109,83.93,107.36,84.72Z"/><path class="cls-8" d="M107.48,18a49.71,49.71,0,0,1,8,7.75c.92,1.06.37,2.4.48,3.61.07.82,0,1.66,0,2.49-1.11.4-1.93,1.63-3.34,1.25A5.92,5.92,0,0,0,107,29.71c-3.07-.12-6.15.14-9.2-.34-.69-.1-1.44,0-1.58-.94v0c1,0,1.39-.82,2-1.37C101.35,24.1,104.15,20.75,107.48,18Z"/><path class="cls-10" d="M116,43.13v9.24c-1.69-.36-3.15.55-4.71.86-3-1-6.11-.15-9.14-.57.17-1-1.1-1.65-.84-2.72,2.57,0,5.15,0,7.73,0a3.45,3.45,0,0,0,3.61-3.24c.13-1-.14-2.1.29-3.1A8.63,8.63,0,0,0,116,43.13Z"/><path class="cls-8" d="M111.26,53.23c1.56-.31,3-1.22,4.71-.86,0,3.08,0,6.15,0,9.23l-3-.41C112.27,58.56,113.48,55.53,111.26,53.23Z"/><path class="cls-10" d="M112.94,61.19l3,.41q0,4,0,8h-3.29C112.83,66.79,112.33,64,112.94,61.19Z"/><path class="cls-8" d="M116,43.13a8.63,8.63,0,0,1-3.06.43c-.6-2.67-.21-5.33,0-8l3-.41Z"/><path class="cls-1" d="M107.48,18c-3.33,2.8-6.13,6.15-9.3,9.13-.57.55-1,1.4-2,1.37-.15-1.09,1-1.31,1.36-2.07q4.78-4.83,9.58-9.67c.27-.08.53-.42.83,0Z"/><path class="cls-10" d="M115.94,35.15l-3,.41c-.11-.83-.23-1.67-.34-2.51,1.41.38,2.23-.85,3.34-1.25Z"/><path class="cls-8" d="M125.24,41.91c.43.51,1,.33,1.57.39a2.54,2.54,0,0,1,2.53,2.76c0,4.2-.06,8.39,0,12.58,0,2.1-2,2-2.91,3.15H126c-1.54.11-2.1-.69-2.09-2.15q0-7.32,0-14.64A1.85,1.85,0,0,1,125.24,41.91Z"/><path class="cls-3" d="M126.45,72.1l-1.24,0a17.72,17.72,0,0,1-5.48.41c.92-2.13,1.29-4.52,2.94-6.3l.84-.85c.53-.08,1-.16.44-.84,0-.54.06-1.09.08-1.64.36-.12.93.11.94-.52,0-.12-.42-.24-.65-.36,2.72-.92,3.8-.23,3.79,2.43,0,.77-.09,1.53-.13,2.3-1.31,1.18-.42,2.73-.7,4.08A1.85,1.85,0,0,0,126.45,72.1Z"/><path class="cls-3" d="M122.28,29.74c5,2,5,2,5,7.5,0,1.11,0,2.21,0,3.32a6.46,6.46,0,0,0-1.25.08c-1.27.29-1.9,0-1.82-1.47,0-.62-.49-1.27-.75-1.91.48-.32.38-.69,0-1-1.8-1.68-3.92-3.13-4.24-5.89,0-.25-.49-.45-.75-.67a2.41,2.41,0,0,1,0-.38l1.64.36Z"/><path class="cls-7" d="M118.54,29.69c.26.22.72.42.75.67.32,2.76,2.44,4.21,4.24,5.89.34.32.44.69,0,1-1.09-.75-2.09-1.63-3.61-1-.94.39-1.43-.11-1.4-1.14C118.52,33.31,118.52,31.5,118.54,29.69Z"/><path class="cls-7" d="M122.67,66.23c-1.65,1.78-2,4.17-2.94,6.3l-1.16.06c0-.21-.06-.42-.06-.63,0-1.53-.41-3.22.11-4.54C119.27,65.8,121.41,67,122.67,66.23Z"/><path class="cls-7" d="M120.18,29.67l-1.64-.36C119.26,28.64,119.83,28.63,120.18,29.67Z"/><path class="cls-7" d="M124.32,62c.23.12.65.24.65.36,0,.63-.58.4-.94.52A.75.75,0,0,1,124.32,62Z"/><path class="cls-7" d="M124,64.54c.61.68.09.76-.44.84A.85.85,0,0,1,124,64.54Z"/><path class="cls-2" d="M126,60.77h.51C126.29,61.33,126.13,61,126,60.77Z"/><path class="cls-10" d="M71.41,93.43c.21,0,.42,0,.63,0,4.67-.81,7.66,2,7.31,6.87l-1.6,0a10.45,10.45,0,0,0-4-4.14C72.54,95.41,71.61,94.82,71.41,93.43Z"/><path class="cls-6" d="M77.75,100.23l1.6,0c.09,1.42-.66,1.95-2,1.94s-2.45,0-3.68,0a3.72,3.72,0,0,1-.08-2Z"/><path class="cls-5" d="M73.61,100.28a3.72,3.72,0,0,0,.08,2l-.92-.32c0-.56-.07-1.13-.11-1.69V97.31l0-.42.06-.06C74.36,97.64,73.18,99.16,73.61,100.28Z"/><path class="cls-8" d="M72.65,97.31c0,.41,0,.82,0,1.23l-2,.83a7.79,7.79,0,0,1,.26-2.92C71.48,96.78,71.86,97.45,72.65,97.31Z"/><path class="cls-5" d="M72.68,96.89l-.15-.21.21.15Z"/><path class="cls-5" d="M48.78,98.15c-3.71,0-7.41.08-11.11-.05-2-.07-2.06-2.21-2.94-3.43-.67-.93.32-1.51.89-2.07,2.32-2.31,4.32-5.35,7.13-6.68s6.45-.34,9.72-.37c5.52,0,11,0,16.56,0H88.64c0,.94,1,1.3,1.29,2.06-.82.79-1.84.28-2.76.42-1.47.23-3-.46-4.42.45-1.13-1-2.26-1.67-3.36,0-1-.71-2.21-.41-3.34-.4H74l-2.06,0-18.56-.09a2.8,2.8,0,0,0-1.57.46c-.77-1.62-1.92-.81-3-.46a7.21,7.21,0,0,1-1,0c-4.26-.53-8,.17-10.25,4.35-.43.79-1.69,1.19-1,2.43s1.32,2.12,2.84,2.05,3.19-.06,4.79-.08c.57,1.54,1.58.88,2.54.51H50C49.6,97.75,49,97.66,48.78,98.15Z"/><path class="cls-3" d="M51.76,88.51a2.8,2.8,0,0,1,1.57-.46q9.29.06,18.56.08c-.42,1.41-2.28,2.23-1.69,4.06-4.3,0-8.61.17-12.91,0-2.36-.09-4,.4-4.85,2.77a10.71,10.71,0,0,1-.75,1.47c-.67,1.08-1.37,2.11-2.91,1.72.25-.49.82-.4,1.21-.85H46.6c.26-1.82.19-3.81,2.69-4.3.71-.14.89-1,1.18-1.64C50.92,90.42,51.34,89.46,51.76,88.51Z"/><path class="cls-3" d="M82.75,88.48c1.39-.91,3-.22,4.42-.45.92-.14,1.94.37,2.76-.42a54.41,54.41,0,0,1,6.3,6.31c-1.85,2.87-4.61,3.34-7.71,2.94-.34,0-.69,0-1-.06,0-.9,0-1.82-.1-2.71-.24-2-.68-3.91-3.32-4C83.06,90.08,83,89.21,82.75,88.48Z"/><path class="cls-3" d="M76.05,88.11c1.13,0,2.29-.31,3.34.4.46.53.46,1.44,1.33,1.64v0c-.16,1.36.2,2.74,1.55,3,2,.42,2.3,1.65,2.28,3.29-.12.8-.7.92-1.35.86a1.09,1.09,0,0,0-1.33,1.14,1.4,1.4,0,0,1-1.75-1c-.62-1.45-1.51-2.78-2.25-4.17a1.86,1.86,0,0,0-1.8-1.13C76.05,90.83,76.05,89.47,76.05,88.11Z"/><path class="cls-10" d="M76.05,88.11c0,1.36,0,2.72,0,4.08H70.2c-.59-1.83,1.27-2.65,1.69-4.06H74c.06.27.1.59.44.59s.39-.33.44-.59Z"/><path class="cls-5" d="M81.86,98.44a1.09,1.09,0,0,1,1.33-1.14c.65.06,1.23-.06,1.35-.86,1,1.63,1.76,1.72,2.94.36.35,0,.7,0,1,.06,3.1.4,5.86-.07,7.71-2.94.19.07.54.12.55.21.13,1-2.28,4-3.29,4C89.61,98.15,85.73,98.07,81.86,98.44Z"/><path class="cls-8" d="M72.66,100.23c0,.56.08,1.13.11,1.69l-.48.41c-.15-.23-.29-.21-.41,0H71l-.42-.45,0-.46-.36-.55.1-.57a1.35,1.35,0,0,0,.33-.09Z"/><path class="cls-7" d="M70.32,100.33c0,.19-.07.38-.1.57l.36.55c0,.16,0,.31,0,.46s0,.27,0,.41H69.36l-.58-.13.21-1.15C69.62,101.15,69.76,100.35,70.32,100.33Z"/><path class="cls-3" d="M70.61,102.32c0-.14,0-.28,0-.41l.42.45h-.2Z"/><path class="cls-3" d="M71.88,102.36c.12-.24.26-.26.41,0l-.2,0Z"/><path class="cls-10" d="M48.77,84.54c-.32-1.11.77-1.79.85-2.78l31.06,0c-.05,1.3,2,1.29,1.69,2.76Q65.57,84.85,48.77,84.54Z"/><path class="cls-8" d="M82.37,84.54c.34-1.47-1.74-1.46-1.69-2.76.89,0,1.79,0,2.68,0,1.56,0,3.28.42,4.33-1.32.2,1.11.21,2.3,1.34,3l.19.71-.09.91C86.93,84.19,84.61,85,82.37,84.54Z"/><path class="cls-8" d="M66.29,2.05c.21-1.24,1.15-1,2-.93S69,2,69,2.59c0,.77,0,1.54,0,2.31s-.21,1.3-1.17,1.32-1.42-.34-1.36-1.34a13.45,13.45,0,0,0-.09-1.67C66.32,2.82,66.31,2.44,66.29,2.05Z"/><path class="cls-6" d="M62,2.73c0-.63-.38-1.48.66-1.59C63.52,1,64.58.74,65,2c0,.9,0,1.81,0,2.71.14,1.62-.58,2-2,1.46.18-.67-.32-1.5.52-2,1.32-.84.31-1.07-.39-1.29A6.06,6.06,0,0,0,62,2.73Z"/><path class="cls-8" d="M72.67,3.68c0,.48,0,1,0,1.45,0,.8-.38,1.1-1.15,1.06s-1-.67-.88-1.3a4.63,4.63,0,0,0,0-2.61.79.79,0,0,1,.74-1.17c.67,0,1.27,0,1.29.91V3.68Z"/><path class="cls-2" d="M57.6,2.83H51.73c.68-1.37,4.48-2.41,5.63-1.51C57.87,1.71,57.61,2.31,57.6,2.83Z"/><path class="cls-8" d="M60.85,2.78c0,.76,0,1.53.08,2.29,0,1-.53,1.15-1.34,1.15s-1.14-.38-1.12-1.15l.09-2.3Z"/><path class="cls-10" d="M62,2.73a6.06,6.06,0,0,1,1.21.13c.7.22,1.71.45.39,1.29-.84.53-.34,1.36-.52,2l-.84.12A6,6,0,0,1,62,2.73Z"/><path class="cls-4" d="M62.22,6.3l.84-.12c1.41.53,2.13.16,2-1.46C65,3.82,65,2.91,65,2l1.29,0c0,.39,0,.77,0,1.16C64.76,4.2,66,5.77,65.55,7H62.24C62.23,6.77,62.23,6.53,62.22,6.3Z"/><path class="cls-6" d="M60.85,2.78H58.56c0-.78-.34-1.66,1-1.67S61.05,1.75,60.85,2.78Z"/><path class="cls-10" d="M97.48,75.87c.6,1.83,2.47,2.62,3.41,4.17-1.68.94-2.25,2.11-.8,3.72.37.4.23,1.09.8,1.37-.79,2.18-.42,2.71,2.06,3,0,.46,0,1,.47,1.21-4.65,5-3.31,4.59-7.83.4-1.26-1.17-2.5-2.37-3.81-3.5a1.85,1.85,0,0,1-.66-1.44l1.61-.43a3.35,3.35,0,0,0,2.62-3.14,3.69,3.69,0,0,0-2-3.63c-1.25-.77-2.54-.46-3.82,0l-.44-1.31a15.84,15.84,0,0,0,1.62-1.87c.58-.89,2.16-.9,2.07-2.36,0-.26.07-.53.1-.79l2.6-.41a5.92,5.92,0,0,1,.29,2.47c0,.61-.1,1.34.89,1.3v0a.62.62,0,0,0,.43.86h0l.43.42Z"/><path class="cls-8" d="M103.42,89.34c-.52-.26-.48-.75-.47-1.21.9-.63,1.65-1.42,1-2.54s-1.9-1.1-3-.46c-.57-.28-.43-1-.8-1.37-1.45-1.61-.88-2.78.8-3.72,1.41,1.38,2.83,2.74,4.21,4.15.46.47,1.11.83,1.21,1.59C106,87.48,104.54,88.28,103.42,89.34Z"/><path class="cls-1" d="M89.52,77.59c1.28-.45,2.57-.76,3.82,0a3.69,3.69,0,0,1,2,3.63,3.35,3.35,0,0,1-2.62,3.14l-1.61.43a3,3,0,0,1-1.9-.66c-.06-.24-.12-.47-.19-.71l.94-.05c1.71.71,3.16.46,4.07-1.28.79-1.52,0-2.75-1.11-3.62-1.47-1.1-2.75-.36-3.88.77l-.77,0C88.21,78.31,89,78.07,89.52,77.59Z"/><path class="cls-8" d="M24.75,17l5.88-6.24c.55-.59,1.14-1.19,1.92-.4,2.62,2.67,5.47,5.12,7.85,8-2.23.2-3.93,1.12-4.66,3.38-1.91-.15-3.2,1.07-4.57,2.09-.45-.08-.63-.77-1.6-.45a34.46,34.46,0,0,0,4.93,5.08c.25,1.4-.76,1.19-1.56,1.2l-8.92.1c-1.76,0-3.28.4-4.2,2.05h0c-1.15.62-1.2,1.74-1.23,2.84,0,2-.06,4-.08,6-1.11,0-2.14.62-3.28.42,0-4.47,0-9,0-13.43A2.76,2.76,0,0,1,16,25.33c2.64-2.48,5-5.28,8-7.39l1.58,1,.42.41.44.42.4.16-.14-.43-.41-.42-.42-.43Zm3.46-1.13c-1.47.47-.95,1.46-.44,2.22a1.58,1.58,0,0,0,2.52.25c.9-.76,1.25-1.68,0-2.54C29.58,14.51,28.86,14,28.21,15.83Zm-.12,5.29S28,21,28,21s-.09.06-.13.09.07.11.11.12S28.05,21.16,28.09,21.12Z"/><path class="cls-8" d="M62.24,102.24a3.09,3.09,0,0,0-.59-.18c-1-.07-2.5,1-3-.16a8.11,8.11,0,0,1-.12-4.3c.27-1.39,1.53-.61,2.4-.59v1.85c1.22-.59,1.21-2.48,2.94-2,.84.22.85.77,1.05,1.32,0,.7.06,1.41.08,2.11C63.58,100.22,61.82,99.71,62.24,102.24Z"/><path class="cls-8" d="M66.5,100.27c0-.48-.07-1-.08-1.44,0-2.18.27-2.35,2.58-1.57,0,.85,0,1.71,0,2.56l-.06.41Z"/><path class="cls-6" d="M66.5,100.27l2.42,0c0,.27,0,.55.07.82l-.21,1.15C67.29,102.42,66,102.42,66.5,100.27Z"/><path class="cls-10" d="M72.66,100.23h-2c0-.29,0-.58,0-.87l2-.83Z"/><path class="cls-7" d="M69,99.82c0-.85,0-1.71,0-2.56C71.05,98.13,70.22,99,69,99.82Z"/><path class="cls-6" d="M62.24,102.24c-.42-2.53,1.34-2,2.76-2C65.64,103.11,63.58,102.16,62.24,102.24Z"/><path class="cls-10" d="M15.22,72.09c0-3.49,0-7,0-10.49,1.12,0,2.15.63,3.3.42.25,2.78-.37,5.62.48,8.36C18.54,72.75,16.69,72,15.22,72.09Z"/><path class="cls-1" d="M19,70.38c-.85-2.74-.23-5.58-.48-8.36,0-1,0-2.06.06-3.08.06-1.53-.47-3.17.81-4.48h.87c0,.36,0,.72.05,1.08-1.55.67-1,1.71-.51,2.76l0,.66c-.54,1.6-.08,3.26-.26,4.89-.15,1.34.57,1.49,1.61,1.3-.15.21-.3.59-.46.6-1.16,0-1.35.7-1.21,1.66s.95.79,1.59.84c1.23.09,1.29-.74,1.28-1.63s0-1.93,0-2.9l0-6,0-.76c1.57.4.51,1.72.88,2.54,0,2.34,0,4.69-.06,7-.06,1.78.55,2.31,2.15,1.37l.37-.06c.13.48.59.4.92.53a.84.84,0,0,1-.13.29l-.75.4-3.77.13c-.72,0-1.89-.68-2,.44-.08,1,1,1.33,2,1.13l-.06.12c-.11.74.39,1.13.87,1.54v.44A6.08,6.08,0,0,1,19,70.38Z"/><path class="cls-6" d="M92.77,72.05c.09,1.46-1.49,1.47-2.07,2.36a15.84,15.84,0,0,1-1.62,1.87c-.59.68-1.21,1.33-1.75,2s-.52,1.17.45,1.33l-.09.79c-1,1.74-2.77,1.28-4.33,1.32-.89,0-1.79,0-2.68,0l-31.06,0c-3.78,1-4.67-2.44-6.54-4.31-1.27-1.27-2.36-2.72-3.53-4.1C39.12,72.63,38.47,72,39,71c2.68,2.39,4.68,5.35,6.81,8.19a2.85,2.85,0,0,0,2.58,1.33q17.07,0,34.15,0a3.16,3.16,0,0,0,2.82-1.34c2-2.58,4.16-5.06,6.26-7.58C91.87,72.13,92.32,72.09,92.77,72.05Z"/><path class="cls-1" d="M35.75,80.49a5.1,5.1,0,0,1,2.19-3.32c3-.5,4.55.33,5.22,2.71a3.69,3.69,0,0,1-2.5,4.45C38.35,85.24,36.37,83.7,35.75,80.49Zm4,3a2.77,2.77,0,0,0,2.8-2.76,2.81,2.81,0,0,0-3-2.83A2.63,2.63,0,0,0,37,80.78,2.56,2.56,0,0,0,39.71,83.48Z"/><path class="cls-1" d="M27,86c.45-.62.8-1.33,1.63-1.55.83.25,1.87.18,2.07,1.39s-.13,2.08-1.27,2.28C27.91,88.44,27.14,87.52,27,86Zm2.85.27a.8.8,0,0,0-1-.78.74.74,0,0,0-.65.89c0,.61.44.83,1,.77A.73.73,0,0,0,29.86,86.31Z"/><path class="cls-10" d="M15.22,41c1.14.2,2.17-.37,3.28-.42l.09,4.21c0,3.63,1.34,5.08,4.83,5.06,1,0,2.07-.05,3.1-.07l1.26.11c.25,1.09-1,1.7-.85,2.76-.81,0-1.63,0-2.44.09-1.59.11-3.3-.42-4.67.86-1.62-1-2.5-3.05-4.62-3.36Z"/><path class="cls-8" d="M15.2,50.27c2.12.31,3,2.34,4.62,3.36l-.45.83c-1.28,1.31-.75,2.95-.81,4.48,0,1,0,2.05-.06,3.08-1.15.21-2.18-.41-3.3-.42Z"/><path class="cls-1" d="M91.59,71.65c-2.1,2.52-4.24,5-6.26,7.58a3.16,3.16,0,0,1-2.82,1.34q-17.07-.07-34.15,0a2.85,2.85,0,0,1-2.58-1.33C43.65,76.36,41.65,73.4,39,71c-.08-.27-.17-.52-.25-.78,1.19,0,.83-.91.83-1.5q0-17.83,0-35.67a3.19,3.19,0,0,1,.81-2c1.68-2.28,3.74-4.26,5.1-6.77h0c.71-.23.8-1,1.26-1.45s1.64.18,1.47-1.08a3.21,3.21,0,0,0,2.88,0c-.05,1.19.88.87,1.47.87q14.7,0,29.42,0c.6,0,1.5.29,1.49-.86a.28.28,0,0,0,.44.15.13.13,0,0,0,.13-.16c-.59,1,.48.93.87,1.29l0,0a3.71,3.71,0,0,0,.44,1.34c2,2.38,4.16,4.71,6.25,7.06Q91.56,51.52,91.59,71.65Zm-47,3.86.73.79c1,2.39,2.64,3.43,5.49,3.37q14.76-.3,29.55,0c2.82.06,4.49-.86,5.51-3.33,1.17-.8,1.78-2.12,2.76-3.08a6.86,6.86,0,0,0,2.14-6c-.22-2.29-.25-4.59-.37-6.89a46.22,46.22,0,0,0,0-12.21V40.22l0-6.35c.11-1.18,0-2.27-1.17-2.93-1-2-2.77-3.46-4-5.31a4.14,4.14,0,0,0-3.9-1.82c-10.26.09-20.52.12-30.77,0-2.22,0-3.77.48-4.68,2.53a20.84,20.84,0,0,0-1.62,1.9c-1.4,2.09-3.8,3.59-3.79,6.53q.06,15.51.06,31v2.56c.09,1.14-.61,2.47.74,3.33A16.19,16.19,0,0,0,44.58,75.51Z"/><path class="cls-2" d="M39.54,33.06q0,17.84,0,35.67c0,.59.36,1.52-.83,1.5,0-1.33-.09-2.66-.13-4,.4-4.07-.36-8.12-.29-12.18V46.49c.11-4.48-.22-9,.39-13.44Z"/><path class="cls-8" d="M38.3,54.05c-.07,4.06.69,8.11.29,12.18-1.05-.21-2,.32-3,.4a100.55,100.55,0,0,1,0-13Z"/><path class="cls-9" d="M20.29,55.56c0-.37,0-.73-.05-1.09a2.32,2.32,0,0,1,2.17-.88c3,0,5.95,0,8.92,0,.46,0,1.59.47,1.07-.87.79-1.08-.25-1.88-.42-2.81.65-.14,1-.51.74-1.19,0-.13-.38-.31-.44-.26-1.76,1.32-4-.1-5.75.9A7.34,7.34,0,0,1,23.59,49v-.82h.83c.68-.08,1.4.19,2-.23h1a4.47,4.47,0,0,0,3.26,0c1.3-.25.78-1.26.85-2-.08-.46-.41-.6-.81-.64,0-1,1.27-1.9.38-3,.22-1.46-.42-2-1.87-2s-2.63,0-3.95,0l0-1.72c1,0,2.06,0,3.09,0,1.45.09,2.85.15,3.2-1.74a2.9,2.9,0,0,0,.38-2.33l0-.72c0-.37,0-.74,0-1.12,1.52,0,1.31-1.17,1.37-2.14,1.78-.88.91,1.06,1.52,1.43.1,1.49-.67,3,.07,4.48,0,1.37-.16,2.73-.25,4.09-.08,1.2-.89,2.77.77,3.69,0,.15,0,.31,0,.47-1.62.07-1.44,1.27-1.33,2.28.91,7.77.12,15.58.46,23.36.08,1.93-.56,2.4-2.38,2.19a45.25,45.25,0,0,0-5.21,0c.18-1.08,1-.66,1.67-.77h1.23c.75-.17,1.83.51,2.13-.82.38-1.6,1.27-3.24-.48-4.62l-1.64-.08c-.57-.63-1.09-.18-1.62.09l-2.43.08L25.68,65c1.45,0,2.91.06,4.35-.09.71-.07,1.85-.45.27-1.22l0-1.72c1.25-1,.78-1.5-.49-1.58-1.66-.1-3.33,0-5,0l-1.64-.83c-.37-.82.69-2.14-.88-2.54C22.28,55.58,21,56,20.29,55.56ZM24.08,57l-.06,0a13,13,0,0,0,7.58,0c.66-.58.31-1.36.38-2-.06-1-.84-.88-1.5-.89-1.23,0-2.47-.06-3.69,0-.81.06-1.83-.46-2.36.66l0,.16-.16,0C23.22,55.52,23.39,56.23,24.08,57Z"/><path class="cls-10" d="M38.3,54.05l-2.74-.41a35.06,35.06,0,0,1,0-7.17l2.72,0Q38.3,50.27,38.3,54.05Z"/><path class="cls-7" d="M28.64,71.67c-.63.11-1.49-.31-1.67.77H22.76c-.48-.41-1-.8-.87-1.54a14.9,14.9,0,0,1,2.21-.08c1.36.12,1.9-.4,1.59-1.74l.75-.4.15.08c-.15.67-.9,1.28-.05,2a1.16,1.16,0,0,0,1.8,0Z"/><path class="cls-2" d="M83.44,21.73c0,1.15-.89.86-1.49.86q-14.72,0-29.42,0c-.59,0-1.52.32-1.47-.87l27.12-.08Z"/><path class="cls-1" d="M35.74,21.72c.73-2.26,2.43-3.18,4.66-3.38l.32.16c1.09,1,2.63,1.68,2.57,3.51a4,4,0,0,1-1.84,3.7c-1.73,1-3.32.52-4.78-.67A5.17,5.17,0,0,1,35.74,21.72Zm3.4,3.4c2.11.06,3.35-1.09,3.38-2.75a2.67,2.67,0,0,0-2.67-2.84,2.56,2.56,0,0,0-2.91,2.75C37,24,37.78,25,39.14,25.12Z"/><path class="cls-10" d="M35.74,21.72A5.17,5.17,0,0,0,36.67,25c-1.21.43-1,1.92-1.84,2.58a25.86,25.86,0,0,1-3.66-3.81C32.54,22.79,33.83,21.57,35.74,21.72Z"/><path class="cls-6" d="M39.54,33.06h-.86c-.62-.79-.07-1.55.32-2,1.71-2.15,3.55-4.21,5.35-6.29a1.16,1.16,0,0,1,1.1-.45C44.09,26.77,42,28.75,40.35,31A3.19,3.19,0,0,0,39.54,33.06Z"/><path class="cls-4" d="M34.79,31.9c-.61-.37.26-2.31-1.52-1.43-1.83.15-3.62-.62-5.45-.19L24,30.16v-.42l8.92-.1c.8,0,1.81.2,1.56-1.2l.38-.4c1,1.14.4,2.49.55,3.75Z"/><path class="cls-1" d="M34.88,28l-.38.4a34.46,34.46,0,0,1-4.93-5.08c1-.32,1.15.37,1.6.45a25.86,25.86,0,0,0,3.66,3.81C34.85,27.76,34.86,27.9,34.88,28Z"/><path class="cls-4" d="M35.38,44.16c-1.66-.92-.85-2.49-.77-3.69.09-1.36.25-2.72.26-4.09l.53,0Z"/><path class="cls-1" d="M35.4,36.42l-.53,0c-.75-1.48,0-3-.08-4.48l.64-.11A7.94,7.94,0,0,1,35.4,36.42Z"/><path class="cls-6" d="M46.71,22.81c-.46.45-.55,1.22-1.26,1.45a2.33,2.33,0,0,1,1.26-2.5Z"/><path class="cls-2" d="M46.71,22.81v-1l1.47,0C48.35,23,47.23,22.49,46.71,22.81Z"/><path class="cls-1" d="M44.08,6.29c.63-1.23,1.55-1.07,2.55-.53.17,1,.3,2.05.51,3.07.06.32.28.84.46.85,2.92.19,3.13,2.73,4.09,4.62a6.41,6.41,0,0,0,.45.7,6.41,6.41,0,0,1-2.89.84c-.29-1.09-.62-2.28-1.88-2.51-2.73-.49-3.4-2.26-3.23-4.69a4.57,4.57,0,0,0-.09-.82ZM45,9.49c-.2,1.57.62,2.78,2.75,2.9.65,0,.94.42,1.28.91s.26,1.35,1,1,.16-1.18,0-1.62c-.27-.8-.59-1.82-1.64-2-1.67-.27-2.27-1.37-2.44-2.86,0-.36,0-.78-.41-.8C44.88,7,45,7.58,45,8S45,8.67,45,9.49Z"/><path class="cls-1" d="M84.86,5.78c1-.32,2.17-1.15,3,.41-.42.32-.35.76-.29,1.2-.2,1.23-.37,2.47-.6,3.69a2.39,2.39,0,0,1-2.22,2.16c-1.49.08-2,1-2.35,2.18h-3c.28-.71.56-1.41.83-2.11.74-1.51,1.1-3.09,3.25-3.65C84.93,9.27,84.36,7.1,84.86,5.78ZM86.39,6A1.84,1.84,0,0,0,85.3,7.84c-.16,1.51-.42,2.75-2.41,3-1.57.19-1.43,2-2,3.13,0,.06.25.42.37.41s.6-.13.68-.31a2.83,2.83,0,0,1,3-1.68c.69,0,1-.72,1.15-1.34A12.88,12.88,0,0,0,86.39,6Z"/><path class="cls-5" d="M75.89,14.45a2.83,2.83,0,0,1-.21-.73c0-.14.15-.27.23-.41a1,1,0,0,1,.13.36A5.68,5.68,0,0,1,75.89,14.45Z"/><path class="cls-1" d="M102.26,15a1.77,1.77,0,0,1,1.81,1.92,1.65,1.65,0,0,1-1.71,1.76,1.81,1.81,0,0,1-1.89-2A1.68,1.68,0,0,1,102.26,15Zm.95,1.75a.88.88,0,0,0-.93-.88.83.83,0,1,0-.1,1.66A.88.88,0,0,0,103.21,16.75Z"/><path class="cls-8" d="M87.54,7.39c-.06-.44-.13-.88.29-1.2,1.38,0,2.77,0,4.16,0,1.21,0,2,.46,2.16,1.74Z"/><path class="cls-8" d="M44.08,6.29l0,1.53-6.7,0a1.53,1.53,0,0,1,1.82-1.68C40.8,6.25,42.44,6.25,44.08,6.29Z"/><path class="cls-1" d="M96.65,74.62c-1,0-.87-.69-.89-1.3a5.92,5.92,0,0,0-.29-2.47,5.45,5.45,0,0,0,.29-2.26q0-16.56,0-33.1a28.8,28.8,0,0,0-.3-2.9,5.53,5.53,0,0,0-.11-3.32,1.74,1.74,0,0,0,0-.39l.84-.45c.14,1,.89.84,1.58.94,3,.48,6.13.22,9.2.34a5.92,5.92,0,0,1,5.59,3.34c.11.84.23,1.68.34,2.51-.24,2.67-.63,5.33,0,8-.43,1-.16,2.07-.29,3.1A3.45,3.45,0,0,1,109,49.9c-2.58,0-5.16,0-7.73,0l-2.94-.13c.13-.3.26-.59.38-.89l10.46.1c1.21,0,2-.42,2.08-1.78.5-1.05,1.47-2.25-.76-2.44l0-.61c.9,0,1.33-.44,1.29-1.4-.08-1.7-.07-3.4-.1-5.1l0-.87c.22-1.29.21-2.39-1.63-2h-.91l-.3.3c0,3.65-.42,7.31.3,10.94l-1.13.44-.57-.72.09-.49a3.15,3.15,0,0,0,.79-2.48c0-2-.1-4,0-6,.14-1.71-.51-2.28-2.1-2h-.48c-.33,0-.69,0-.89-.33.08-.37.13-.75.51-1,1.53.75,3.14.16,4.71.28.44,0,1.09.14,1.16-.55a1.18,1.18,0,0,0-1-1.37,13.94,13.94,0,0,0-1.45-.12c-.1-.41,0-.92-.51-1.12-2.22-.15-4.44-.37-6.67-.44-5.13-.16-5.13-.13-5,5-.06,3.13.05,6.28-.25,9.38A9.71,9.71,0,0,0,96.72,49c0,.41,0,.82,0,1.23l0,16.83a34.8,34.8,0,0,1-.06,3.54c-.18,1.68.61,2.09,2.07,1.81l3.79,0c2,0,4,.29,6.41-.26-1.44-1-3,.1-4-1,.63-.91-1-2.35.73-3,2.67.34,2.67.34,2.69-2.31q0-4.61.08-9.21c1,.07.71.86.73,1.42,0,1.61,0,3.21,0,4.82,0,1.39,0,2.79,0,4.18,0,1,.28,1.49,1.34,1.2,1.09.18,1.26-.45,1.27-1.34s-.38-1.26-1.26-1c-.54-.26-.14-.57-.05-.85.71,0,1.37.15,1.29-1-.08-1.3,0-2.61,0-3.92,0-.58,0-1.13-.85-1l-.47-.29a.48.48,0,0,1,.09-.14c2-1.19,2.06-1.58.52-3.08-.15-.51-.16-1.13-.48-1.48-.59-.66-.88-.32-.81.45l-1.77,0c-.33-.07-.64-.1-.86.24a53.26,53.26,0,0,0-7.58.05c-.44-.49-.77-.88.32-.86,2.14,0,4.28,0,6.42,0a32.86,32.86,0,0,0-6.17-.44c-.69,0-1.62.35-1.83-.82l3.81-.12c3,.42,6.15-.47,9.14.57,2.22,2.3,1,5.33,1.68,8-.61,2.78-.11,5.6-.29,8.39-1.6,2.89-4.09,4-7.33,3.78-2.37-.13-4.75,0-7.12,0C97.28,73.32,96.46,73.34,96.65,74.62Zm14.87-5.48h-4.34c-.28,0-.56,0-.83,0-.56,0-.94.18-.93.82,0,.42,0,.82.44,1.07C107.3,71.9,110.75,70.85,111.52,69.14Z"/><path class="cls-6" d="M91.54,31.39c-2.09-2.35-4.2-4.68-6.25-7.06A3.71,3.71,0,0,1,84.85,23c3,2.21,5,5.35,7.58,8,0,.14,0,.29,0,.44Z"/><path class="cls-10" d="M92.41,31.4c0-.15,0-.3,0-.44,1.34.08,1.37-2.11,2.91-1.69a5.53,5.53,0,0,1,.11,3.32c-.79,1.24-1.92.29-2.87.46Z"/><path class="cls-2" d="M84.88,23c-.39-.36-1.46-.26-.87-1.29C84.84,21.79,84.89,22.38,84.88,23Z"/><path class="cls-1" d="M87.89,21.75h.6c-.08.2-.15.4-.23.61Z"/><path class="cls-1" d="M97.07,75.46a.62.62,0,0,1-.43-.86A.63.63,0,0,1,97.07,75.46Z"/><path class="cls-1" d="M97.49,75.87l-.43-.42C97.36,75.43,97.5,75.58,97.49,75.87Z"/><path class="cls-3" d="M98.34,49.81l2.94.13c-.26,1.07,1,1.67.84,2.72l-3.81.12a2.8,2.8,0,0,1-.84-2.51A.9.9,0,0,0,98.34,49.81Z"/><path class="cls-3" d="M44.06,96.79c-1.6,0-3.2,0-4.79.08S37,96,36.43,94.82s.62-1.64,1-2.43c2.27-4.18,6-4.88,10.25-4.35a7.21,7.21,0,0,0,1,0C48.49,89,48.2,90,47,90.11c-2.22.21-2.91,1.54-2.87,3.56C44.19,94.71,44.1,95.75,44.06,96.79Z"/><path class="cls-1" d="M87.48,96.8c-1.18,1.36-1.92,1.27-2.94-.36,0-1.64-.28-2.87-2.28-3.29-1.35-.28-1.71-1.66-1.55-3,.88.67.85,2.24,2.06,2.46,2.12.39,2.62,1.74,2.58,3.59,0,.43.07.85.86.9,0-1.18-.06-2.35,0-3.51.09-1.54-.48-2.43-2.09-2.45A2.23,2.23,0,0,1,82,89.73c-.17-.35-.05-.93-.68-.77s-.66.66-.61,1.19c-.87-.2-.87-1.11-1.33-1.64,1.1-1.7,2.23-1,3.36,0,.2.73.31,1.6,1.31,1.63,2.64.07,3.08,2,3.32,4C87.49,95,87.45,95.9,87.48,96.8Z"/><path class="cls-1" d="M44.06,96.79c0-1,.13-2.08.1-3.12,0-2,.65-3.35,2.87-3.56C48.2,90,48.49,89,48.77,88.05c1.07-.35,2.22-1.16,3,.46-.42.95-.84,1.91-1.29,2.85-.29.62-.47,1.5-1.18,1.64-2.5.49-2.43,2.48-2.69,4.3C45.64,97.67,44.63,98.33,44.06,96.79ZM49.93,89A5.32,5.32,0,0,1,46,91.2c-.66,0-.94.93-1,1.67s-.23,1.66-.25,2.5c0,.62-.56,1.61.45,1.73.75.08.59-.93.76-1.5.32-1.08,0-2.57,1.6-2.87C49.74,92.33,49.86,90.73,49.93,89Z"/><path class="cls-3" d="M74.83,88.12c0,.26-.09.59-.44.59s-.38-.32-.44-.59Z"/><path class="cls-5" d="M70.58,101.45l-.36-.55Z"/><path class="cls-5" d="M87.69,80.44l.09-.79.5-.43.77,0A3.18,3.18,0,0,0,90,83.38l-.94.05C87.9,82.74,87.89,81.55,87.69,80.44Z"/><path class="cls-8" d="M92.58,33.05c1-.17,2.08.78,2.87-.46a28.8,28.8,0,0,1,.3,2.9q0,16.55,0,33.1a5.45,5.45,0,0,1-.29,2.26l-2.6.41c0-11.22,0-22.44,0-33.66C92.83,36.08,92.67,34.56,92.58,33.05Z"/><path class="cls-2" d="M92.58,33.05c.09,1.51.25,3,.26,4.55,0,11.22,0,22.44,0,33.66,0,.26-.06.53-.1.79-.45,0-.9.08-1.18-.4q0-20.13,0-40.26h.87C92.46,32,92.52,32.5,92.58,33.05Z"/><path class="cls-1" d="M100.89,85.13c1.13-.64,2.27-.79,3,.46s-.07,1.91-1,2.54C100.47,87.84,100.1,87.31,100.89,85.13Zm2.38,1.21a1,1,0,0,0-.94-.81.9.9,0,0,0-1,.88c-.06.65.38.84.92.84S103.25,87.13,103.27,86.34Z"/><path class="cls-8" d="M88.28,79.22l-.5.43c-1-.16-.92-.72-.45-1.33s1.16-1.36,1.75-2l.44,1.31C89,78.07,88.21,78.31,88.28,79.22Z"/><path class="cls-11" d="M90,83.38a3.18,3.18,0,0,1-.92-4.13c1.13-1.13,2.41-1.87,3.88-.77,1.16.87,1.9,2.1,1.11,3.62C93.13,83.84,91.68,84.09,90,83.38Z"/><path class="cls-1" d="M24,29.74v.42c-.07.27-1.09.71.1.76s2.45,0,3.68,0l.39,0,0,.56c-1.54-.4-2.19.34-1.69,1.7.39,1.08-.12,1.43-.77,1.9-.22-1.18-1.14-.79-1.81-.74-.9.07-.73.85-.74,1.44,0,1,0,2.07,0,3.1,0,2,0,3.92,0,5.88,0,.14,0,.28,0,.42l-.42.74c-1-.06-.79-.84-.69-1.39.49-2.89.17-5.8.24-8.7,0-.56.42-1.56-.86-1.39-1-.09-2-.35-2,1.23q.07,3.62.05,7.23c0,.81.34,1.13,1.11,1.1a2.17,2.17,0,0,0,.07.35c-.32.54-.89.29-1.34.4l-.75,0-.09-4.21c0-2,0-4,.08-6,0-1.1.08-2.22,1.23-2.84.42.64-.58,1.26,0,2a16.38,16.38,0,0,1,4.53-.15c.69,0,1.39.35,1.45-.81s-.44-1.38-1.47-1.41a30.57,30.57,0,0,0-4.49.39C20.74,30.14,22.26,29.7,24,29.74Z"/><path class="cls-1" d="M30.33,15.76c1.21.86.86,1.78,0,2.54a1.58,1.58,0,0,1-2.52-.25c-.51-.76-1-1.75.44-2.22.09.76-.28,1.91.93,1.92s1-1,1-1.85C30.18,15.85,30.28,15.81,30.33,15.76Z"/><path class="cls-3" d="M30.33,15.76c0,.05-.15.09-.15.14,0,.82,0,1.86-1,1.85s-.84-1.16-.93-1.92C28.86,14,29.58,14.51,30.33,15.76Z"/><path class="cls-5" d="M25.83,18.64l.42.43-.29.27-.42-.41Z"/><path class="cls-5" d="M26.4,19.76,26,19.34l.29-.27.41.42Z"/><path class="cls-5" d="M28.09,21.12s-.08.1-.12.1-.07-.08-.11-.12S28,21,28,21,28.06,21.08,28.09,21.12Z"/><path class="cls-5" d="M26.66,19.49l.14.43-.4-.16Z"/><path class="cls-3" d="M30.32,62c0,.57,0,1.14,0,1.72-1.58,0-3.17,0-4.75.06-.51,0-1,.24-.93.84s.67.36,1.06.41l.15,1.33,0-.07c-.75.38-.44,1.07-.5,1.66-1.6.94-2.21.41-2.15-1.37.07-2.34,0-4.69.06-7l1.65.83c-.11.85.19,1.21,1.12,1.33A27.7,27.7,0,0,0,30.32,62Z"/><path class="cls-4" d="M32.4,52.71c.52,1.34-.61.86-1.07.87-3,.05-5.95.06-8.92,0a2.32,2.32,0,0,0-2.17.88h-.87l.45-.83c1.37-1.28,3.08-.75,4.67-.86.81-.06,1.63-.06,2.44-.09Z"/><path class="cls-6" d="M21.09,65.16c-1,.19-1.76,0-1.61-1.3.18-1.63-.28-3.29.26-4.89.89,0,1.4.37,1.36,1.39-.06,1.38,0,2.77,0,4.16Z"/><path class="cls-9" d="M21.09,64.52c0-1.39-.05-2.78,0-4.16,0-1-.47-1.35-1.36-1.39,0-.22,0-.44,0-.66.83-.2,1.19-2.38,2.48-.58,0,2,0,4,0,6C21.64,63.63,21.51,64.29,21.09,64.52Z"/><path class="cls-8" d="M21.09,64.52c.42-.23.55-.89,1.19-.79,0,1,0,1.93,0,2.9s-.05,1.72-1.28,1.63c-.64-.05-1.45.2-1.59-.84s0-1.63,1.21-1.66c.16,0,.31-.39.46-.6Z"/><path class="cls-3" d="M28.64,71.67l-.3-.86c0-1.2.23-2.57-1.75-2.06l-.15-.08a.84.84,0,0,0,.13-.29c1.79.25,2-.76,1.69-2.14.53-.27,1-.72,1.62-.09-.76.56-.29,1.36-.39,2,0,.23,0,.45,0,.68.08.81-.36,1.7.36,2.41v.38Z"/><path class="cls-2" d="M25.69,69.07c.31,1.34-.23,1.86-1.59,1.74a14.9,14.9,0,0,0-2.21.08l.06-.12,0-1.57Z"/><path class="cls-6" d="M22.26,57.73c-1.29-1.8-1.65.38-2.48.58-.51-1.05-1-2.09.51-2.76.72.41,2,0,2,1.42C22.3,57.22,22.28,57.47,22.26,57.73Z"/><path class="cls-12" d="M28.26,66.24c.29,1.38.1,2.39-1.69,2.14-.33-.13-.79,0-.92-.53,0-.53.08-1.07.13-1.6l0,.07Z"/><path class="cls-6" d="M21.92,69.2l0,1.57c-1,.2-2.1-.18-2-1.13C20,68.52,21.2,69.22,21.92,69.2Z"/><path class="cls-9" d="M25.78,66.25c-.05.53-.09,1.07-.13,1.6l-.37.06C25.34,67.32,25,66.63,25.78,66.25Z"/><path class="cls-11" d="M39.71,83.48A2.56,2.56,0,0,1,37,80.78a2.63,2.63,0,0,1,2.6-2.89,2.81,2.81,0,0,1,3,2.83A2.77,2.77,0,0,1,39.71,83.48Z"/><path class="cls-10" d="M29.86,86.31a.73.73,0,0,1-.65.88c-.55.06-.95-.16-1-.77a.74.74,0,0,1,.65-.89A.8.8,0,0,1,29.86,86.31Z"/><path class="cls-3" d="M32.4,52.71l-5.47,0c-.19-1.06,1.1-1.67.85-2.76l4.2,0C32.15,50.83,33.19,51.63,32.4,52.71Z"/><path class="cls-4" d="M18.59,44.82l.75,0a3.25,3.25,0,0,0,.82,3c.77,1.45,2.09,1.35,3.43,1.19a7.34,7.34,0,0,0,2.94.37c0,.15,0,.31,0,.46-1,0-2.07.06-3.1.07C19.93,49.9,18.55,48.45,18.59,44.82Z"/><path class="cls-1" d="M26.52,49.81c0-.15,0-.31,0-.46,1.8-1,4,.42,5.75-.9.06-.05.4.13.44.26.23.68-.09,1-.74,1.19l-4.2,0Z"/><path class="cls-3" d="M85.86,76.36c-1,2.47-2.69,3.39-5.51,3.33q-14.77-.3-29.55,0c-2.85.06-4.44-1-5.49-3.37h.53a1.24,1.24,0,0,0,1.27-.89c.88,1.2,2,2,3.55,1.58A12,12,0,0,1,54,76.79c8.67.09,17.33.16,26,.33,1.82,0,3.23-.25,4.23-2a19.38,19.38,0,0,1,2.31-2.68c.81.85-.15,1.32-.4,2S84.86,75.57,85.86,76.36Z"/><path class="cls-3" d="M45.83,26.33c.91-2,2.46-2.56,4.68-2.53,10.25.13,20.51.1,30.77,0a4.14,4.14,0,0,1,3.9,1.82c1.24,1.85,3,3.33,4,5.31-.9.08-1.81-1.38-2.68,0a7.08,7.08,0,0,1-1.68-1.81c-1.28-1.76-2.7-2.93-5.27-2.87-9.34.2-18.68.08-28,.1-1.38,0-2.8-.06-3.93,1C47.71,25.86,46.2,27.06,45.83,26.33Z"/><path class="cls-9" d="M45.83,26.33c.37.73,1.88-.47,1.77,1.05-.88,1.14-1.75,2.3-2.66,3.43a5.66,5.66,0,0,0-1.68,3.66c0,9.89.33,19.79-.3,29.67-.63,0-1.24,0-1.32.85s-.57.82-1.16.79q0-15.51-.06-31c0-2.94,2.39-4.44,3.79-6.53A20.84,20.84,0,0,1,45.83,26.33Z"/><path class="cls-9" d="M86.51,31c.87-1.42,1.78,0,2.68,0,1.19.66,1.28,1.75,1.17,2.93a9.6,9.6,0,0,0,0,6.35c0,2.64,0,5.29,0,7.93-1.17.08-1,2.13-2.47,1.71,0-5-.1-9.91,0-14.86A5.36,5.36,0,0,0,86.51,31Z"/><path class="cls-9" d="M85.86,76.36c-1-.79,0-1.3.26-1.92s1.21-1.1.4-2a6.66,6.66,0,0,0,1.37-4.85c-.1-2.43,0-4.88.06-7.31l2.44,0c.12,2.3.15,4.6.37,6.89a6.86,6.86,0,0,1-2.14,6C87.64,74.24,87,75.56,85.86,76.36Z"/><path class="cls-3" d="M90.39,60.36l-2.44,0,0-10.47c1.51.42,1.3-1.63,2.47-1.71A46.22,46.22,0,0,1,90.39,60.36Z"/><path class="cls-9" d="M47.11,75.4a1.24,1.24,0,0,1-1.27.89c.09-1.1.08-2.14-1.26-2.51-1.22-.53-1.67-2.3-3.35-2.11-1.35-.86-.65-2.19-.74-3.33,1.22-.25,1.37,1.88,2.77,1.25C43.94,71.92,46,73.33,47.11,75.4Z"/><path class="cls-7" d="M43.26,69.59c-1.4.63-1.55-1.5-2.77-1.25,0-.86,0-1.71,0-2.56.59,0,1.1-.06,1.16-.79s.69-.87,1.32-.85A19.92,19.92,0,0,1,43.26,69.59Z"/><path class="cls-3" d="M41.23,71.67c1.68-.19,2.13,1.58,3.35,2.11v1.73A16.19,16.19,0,0,1,41.23,71.67Z"/><path class="cls-7" d="M44.58,75.51V73.78c1.34.37,1.35,1.41,1.26,2.51h-.53C45.06,76,44.82,75.78,44.58,75.51Z"/><path class="cls-3" d="M90.38,40.22a9.6,9.6,0,0,1,0-6.35C90.37,36,90.37,38.11,90.38,40.22Z"/><path class="cls-3" d="M23.19,44.81c0-2,0-3.92,0-5.88.47,0,1,.07,1.26-.44l.83,0c0,.58,0,1.15,0,1.72-.84,1.3-.64,2.06,1.06,2l4.76-.08c.89,1.14-.37,2-.38,3-2.38-.26-4.76-.79-7.13,0Z"/><path class="cls-12" d="M32,54.92c-.07.69.28,1.47-.38,2l-7.58,0,.06,0,.15-2.09.16,0,0-.16C27,54.63,29.48,54.28,32,54.92Z"/><path class="cls-12" d="M31.54,45.86c-.07.77.45,1.78-.85,2a10.19,10.19,0,0,0-3.26,0h-1l-2-.12c-.84-1.36-.89-2.27,1.14-2.16S29.56,45.79,31.54,45.86Z"/><path class="cls-5" d="M25.27,38.51l-.83,0c-.23-1.15.52-1.82,1.22-2.52a1.91,1.91,0,0,0,2.6,0,.87.87,0,0,0,1.15,0c.32,1.36,1.37.7,2.15.79-.35,1.89-1.75,1.83-3.2,1.74C27.33,38.46,26.3,38.51,25.27,38.51Z"/><path class="cls-1" d="M31.11,42.18l-4.76.08c-1.7,0-1.9-.73-1.06-2,1.32,0,2.64.05,3.95,0S31.33,40.72,31.11,42.18Z"/><path class="cls-7" d="M29.41,36a.87.87,0,0,1-1.15,0c-.51-1.47.27-3-.1-4.46l0-.56h2.26c1,0,1.6.36,1.43,1.47-.47-.81-1.06-1.37-2-.68a1.25,1.25,0,0,0-.26,1.71c.57.79,1.48.47,2.28.27l0,.72C30.79,34.46,29.32,33.94,29.41,36Z"/><path class="cls-4" d="M30.32,62A27.7,27.7,0,0,1,26,61.67c-.93-.12-1.23-.48-1.12-1.33,1.66,0,3.33-.06,5,0C31.1,60.46,31.57,61,30.32,62Z"/><path class="cls-5" d="M25.68,65c-.39,0-1,.08-1.06-.41s.42-.83.93-.84c1.58-.05,3.17-.05,4.75-.06,1.58.77.44,1.15-.27,1.22C28.59,65.05,27.13,65,25.68,65Z"/><path class="cls-5" d="M31.54,45.86c-2-.07-4-.1-5.95-.2s-2,.8-1.14,2.16c0,.12,0,.23,0,.35H23.6l-.48-.86L22.75,46l.42-.74.43,0c2.37-.78,4.75-.25,7.13,0C31.13,45.26,31.46,45.4,31.54,45.86Z"/><path class="cls-12" d="M29.41,36c-.09-2.05,1.38-1.53,2.53-1.54a2.9,2.9,0,0,1-.38,2.33C30.78,36.69,29.73,37.35,29.41,36Z"/><path class="cls-3" d="M31.88,32.43c.17-1.11-.46-1.47-1.43-1.47H28.19l-.39,0c0-.21,0-.43,0-.64,1.83-.43,3.62.34,5.45.19-.06,1,.15,2.11-1.37,2.14l-.06-.08Z"/><path class="cls-12" d="M31.88,32.43l0,.1.06.08c0,.38,0,.75,0,1.12-.8.2-1.71.52-2.28-.27a1.25,1.25,0,0,1,.26-1.71C30.82,31.06,31.41,31.62,31.88,32.43Z"/><path class="cls-3" d="M23.12,47.3l.48.86c0,.27,0,.55,0,.82-1.34.16-2.66.26-3.43-1.19Z"/><path class="cls-12" d="M29.49,68.2c.1-.69-.37-1.49.39-2l1.64.08C32.2,68.29,31.12,68.53,29.49,68.2Z"/><path class="cls-7" d="M29.49,68.2c1.63.33,2.71.09,2-2,1.75,1.38.86,3,.48,4.62l-.15-.15c.33-2-.84-2.13-2.34-1.82Z"/><path class="cls-1" d="M32,54.92c-2.5-.64-5-.29-7.55-.21.53-1.12,1.55-.6,2.36-.66,1.22-.08,2.46,0,3.69,0C31.14,54,31.92,53.88,32,54.92Z"/><path class="cls-5" d="M24,56.93l7.58,0A13,13,0,0,1,24,56.93Z"/><path class="cls-3" d="M27.43,47.94a10.19,10.19,0,0,1,3.26,0A4.47,4.47,0,0,1,27.43,47.94Z"/><path class="cls-7" d="M29.87,71.67v-.38a3.67,3.67,0,0,0,2-.59l.15.15C31.7,72.18,30.62,71.5,29.87,71.67Z"/><path class="cls-1" d="M24.23,54.89,24.08,57C23.39,56.23,23.22,55.52,24.23,54.89Z"/><path class="cls-3" d="M24.43,48.17c0-.12,0-.23,0-.35l2,.12C25.83,48.36,25.11,48.09,24.43,48.17Z"/><path class="cls-12" d="M26.59,68.75c2-.51,1.76.86,1.75,2.06a1.16,1.16,0,0,1-1.8,0C25.69,70,26.44,69.42,26.59,68.75Z"/><path class="cls-11" d="M39.14,25.12C37.78,25,37,24,36.94,22.28a2.56,2.56,0,0,1,2.91-2.75,2.67,2.67,0,0,1,2.67,2.84C42.49,24,41.25,25.18,39.14,25.12Z"/><path class="cls-9" d="M27.82,30.28c0,.21,0,.43,0,.64-1.23,0-2.46,0-3.68,0s-.17-.49-.1-.76Z"/><path class="cls-13" d="M45,9.49c0-.82,0-1.17,0-1.52s-.08-.93.53-.91c.45,0,.38.44.41.8.17,1.49.77,2.59,2.44,2.86,1,.17,1.37,1.19,1.64,2,.15.44.8,1.27,0,1.62s-.72-.64-1-1-.63-.87-1.28-.91C45.57,12.27,44.75,11.06,45,9.49Z"/><path class="cls-13" d="M86.39,6A12.88,12.88,0,0,1,86,11c-.1.62-.46,1.35-1.15,1.34a2.83,2.83,0,0,0-3,1.68c-.08.18-.44.29-.68.31s-.4-.35-.37-.41c.6-1.11.46-2.94,2-3.13,2-.23,2.25-1.47,2.41-3A1.84,1.84,0,0,1,86.39,6Z"/><path class="cls-3" d="M103.21,16.75a.88.88,0,0,1-1,.78.83.83,0,1,1,.1-1.66A.88.88,0,0,1,103.21,16.75Z"/><path class="cls-3" d="M98.72,72.43c-1.46.28-2.25-.13-2.07-1.81a34.8,34.8,0,0,0,.06-3.54c1.11-.29.75-1.2.76-1.9,0-2.38,0-4.76,0-7.14,0-.7.23-1.69,1.12-1.06,2.47,1.74,5.06.34,7.56.71-.61-.45-1.4,0-2-.61,1.32-.3,3.72.79,2.93-2.25.22-.34.53-.31.86-.24,0,.7-.3,1.49.44,2q0,4.6-.08,9.21c0,2.65,0,2.65-2.7,2.31l.15-1.46c.92-.58.83-.77-.24-.92-.89-.13-2.11.71-2.63-.75,1.17-.16,2.42.2,3.55-.54a34,34,0,0,0-6-.25c-.45,0-.29.51,0,.8L100,66.31c-.86,2-.79,2.09,1.63,2l0,.85c-1.05-.21-2.25-.7-2.17,1.17l-.58-.43-.13.91ZM103.51,62v0h2.1c.62,0,1.14-.14,1.08-.92s-.53-.74-1-.74c-1.4,0-2.8,0-4.2,0-.52,0-1,.12-1,.78s.43.82,1,.83C102.11,62,102.81,62,103.51,62Z"/><path class="cls-3" d="M106.32,34.75c1.59-.26,2.24.31,2.1,2-.15,2-.07,4,0,6a3.15,3.15,0,0,1-.79,2.48c-2.67.11-5.36-.48-8,.33-.74.7-.44,1.39,0,2.07a1.43,1.43,0,0,1-.87.91H97.48c0-1.67,0-3.35,0-5,1.21.1,2-.72,2.94-1.28l4.8,0c.57,0,1.23,0,1.27-.76,0-.89-.71-.89-1.34-.89a15.83,15.83,0,0,1-4.34-.35l0-1.72,1.65,0C106.48,38.5,106.48,38.5,106.32,34.75Z"/><path class="cls-9" d="M100.85,38.54l0,1.72c-1.08.49-.86,1.23-.39,2-.92.56-1.73,1.38-2.94,1.28,0-.7.29-1.4.27-2-.08-2.16,1.08-4.55-1.05-6.37-.16-5.13-.16-5.16,5-5,2.23.07,4.45.29,6.67.44-.64.62-1.45.29-2.18.36-1.23.1-2.51-.26-3.66.43-1.06-.08-.13,1.12-.82,1.27-.28-.78-.8-1.14-1.61-.84s-.54.9-.53,1.43a11.84,11.84,0,0,1,.09,1.44c-.08.81-.2,1.64.9,1.75,1.36.14,1.09-.91,1.12-1.71,1.57.46.6-.82.86-1.26.56.28.46.85.39,1.27-.23,1.49.62,1.88,1.84,2-1.76.49-3.76-.14-5.86,1.08Z"/><path class="cls-7" d="M104.22,57.08c.56.56,1.35.16,2,.61-2.5-.37-5.09,1-7.56-.71-.89-.63-1.11.36-1.12,1.06,0,2.38,0,4.76,0,7.14,0,.7.35,1.61-.76,1.9l0-16.83.73,0a2.8,2.8,0,0,0,.84,2.51c.21,1.17,1.14.8,1.83.82a32.86,32.86,0,0,1,6.17.44c-2.14,0-4.28,0-6.42,0-1.09,0-.76.37-.32.86-.3,1.59.3,2.31,2,2.15A21.67,21.67,0,0,1,104.22,57.08Zm-5.93-2.39-.17-.32c-.06.1-.17.2-.17.3a.84.84,0,0,0,.15.32Z"/><path class="cls-8" d="M111.73,36.82c0,.29,0,.58,0,.87-1-.09-1.27.47-1.24,1.38,0,1.7,0,3.41,0,5.12l0,.61,0,2.45c-1,.18-1.39-.26-1.35-1.21-.72-3.63-.28-7.29-.3-10.93l.3-.31h.91C110,36,110,37.07,111.73,36.82Z"/><path class="cls-12" d="M99.6,47.67c-.46-.68-.76-1.37,0-2.07.3.14.64.45.91.4,2.32-.41,4.67,0,7-.24l.57.72c0,.68-.1,1.32-1,1.47l-5.53,0-.44,0-.81.05Z"/><path class="cls-8" d="M108.45,56.62c-.74-.54-.4-1.33-.44-2l1.76,0c.24.59.15,1.6,1.3,1,1.54,1.5,1.47,1.89-.52,3.08a.48.48,0,0,0-.09.14l.47.29a9.72,9.72,0,0,0-.45,3.75h-1.25c0-1.61,0-3.21,0-4.82C109.16,57.48,109.48,56.69,108.45,56.62Z"/><path class="cls-12" d="M104.22,57.08a21.67,21.67,0,0,0-2.67,0c-1.68.16-2.28-.56-2-2.15a53.26,53.26,0,0,1,7.58-.05C107.94,57.87,105.54,56.78,104.22,57.08Z"/><path class="cls-7" d="M96.71,35.15c2.13,1.82,1,4.21,1.05,6.37,0,.64-.31,1.34-.27,2,0,1.67,0,3.35,0,5l-.76.44a9.71,9.71,0,0,1-.26-4.49C96.76,41.43,96.65,38.28,96.71,35.15Z"/><path class="cls-5" d="M100.85,38.54l-2-.76c2.1-1.22,4.1-.59,5.86-1.08,1.51,0,.39-1.48,1.09-1.94h.48c.16,3.75.16,3.75-3.82,3.77Z"/><path class="cls-6" d="M108.86,31.71a13.94,13.94,0,0,1,1.45.12,1.18,1.18,0,0,1,1,1.37c-.07.69-.72.58-1.16.55-1.57-.12-3.18.47-4.71-.28-.18-1.35.41-1.87,1.76-1.69A9.08,9.08,0,0,0,108.86,31.71Z"/><path class="cls-6" d="M111.52,69.14c-.77,1.71-4.22,2.76-5.66,1.89-.43-.25-.44-.65-.44-1.07,0-.64.37-.82.93-.82.27,0,.55,0,.83,0Z"/><path class="cls-12" d="M105.82,66.68l-.15,1.46c-1.68.66-.09,2.1-.72,3a3.09,3.09,0,0,1-1.9-.11c0-.21-.09-.42-.13-.63l0-.83C103.06,65.82,103.19,65.68,105.82,66.68Z"/><path class="cls-7" d="M107.11,48c.85-.15.92-.79,1-1.47l1.13-.44c0,1,.38,1.39,1.35,1.21h.72c0,1.36-.87,1.79-2.08,1.78l-10.46-.1c0-.11,0-.22,0-.34a1.43,1.43,0,0,0,.87-.91l.73.35A8.26,8.26,0,0,0,107.11,48Z"/><path class="cls-12" d="M105.84,34.76c-.7.46.42,1.94-1.09,1.94-1.22-.09-2.07-.48-1.84-2,.07-.42.17-1-.39-1.27,0-.55,0-1.1,0-1.65,2.41-.5,2.5-.4,1.88,2.1-.14.6.28.44.56.52C105.15,34.79,105.51,34.71,105.84,34.76Z"/><path class="cls-6" d="M110.52,44.19c0-1.71,0-3.42,0-5.12,0-.91.22-1.47,1.24-1.38,0,1.7,0,3.4.1,5.1C111.85,43.75,111.42,44.15,110.52,44.19Z"/><path class="cls-6" d="M110.48,62.86a9.72,9.72,0,0,1,.45-3.75c.82-.08.85.47.85,1,0,1.31-.08,2.62,0,3.92.08,1.12-.58,1-1.29,1C110.49,64.32,110.49,63.59,110.48,62.86Z"/><path class="cls-7" d="M105,34.43c-.28-.08-.7.08-.56-.52.62-2.5.53-2.6-1.88-2.1v-.43c1.15-.69,2.43-.33,3.66-.43.73-.07,1.54.26,2.18-.36.56.2.41.71.51,1.12a9.08,9.08,0,0,1-1.64.07c-1.35-.18-1.94.34-1.76,1.69C105.08,33.68,105,34.06,105,34.43Z"/><path class="cls-10" d="M110.48,62.86c0,.73,0,1.46,0,2.18-.09.29-.49.6.05.86,0,.78,0,1.56,0,2.34-1.06.29-1.37-.23-1.34-1.2,0-1.39,0-2.79,0-4.18Z"/><path class="cls-7" d="M103.05,71a3.09,3.09,0,0,0,1.9.11c1,1.15,2.53.06,4,1-2.37.55-4.4.22-6.41.26Z"/><path class="cls-9" d="M103.05,71l-.54,1.42-3.79,0c0-.53,0-1.06,0-1.59h.76c1.06,1.55,1.66.71,2.21-.43h1.21Z"/><path class="cls-5" d="M107.49,45.76c-2.33.2-4.68-.17-7,.24-.27,0-.61-.26-.91-.4,2.64-.81,5.33-.22,8-.33Z"/><path class="cls-6" d="M111.73,36.82c-1.69.25-1.76-.8-1.63-2C111.94,34.43,112,35.53,111.73,36.82Z"/><path class="cls-6" d="M110.53,68.24c0-.78,0-1.56,0-2.34.88-.26,1.28,0,1.26,1S111.62,68.42,110.53,68.24Z"/><path class="cls-6" d="M111.26,47.24h-.72c0-.82,0-1.63,0-2.45C112.73,45,111.76,46.19,111.26,47.24Z"/><path class="cls-9" d="M98.73,48.58c0,.12,0,.23,0,.34-.12.3-.25.59-.38.89a.9.9,0,0,1-.87.46l-.73,0c0-.41,0-.82,0-1.23l.76-.44Z"/><path class="cls-3" d="M111.07,55.6c-1.15.57-1.06-.44-1.3-1-.06-.77.23-1.11.82-.45C110.91,54.47,110.92,55.09,111.07,55.6Z"/><path class="cls-6" d="M109.19,34.8l-.3.31Z"/><path class="cls-13" d="M80.72,90.15c0-.53,0-1,.61-1.19s.51.42.68.77a2.23,2.23,0,0,0,2.12,1.39c1.61,0,2.18.91,2.09,2.45-.07,1.16,0,2.33,0,3.51-.79,0-.87-.47-.86-.9,0-1.85-.46-3.2-2.58-3.59-1.21-.22-1.18-1.79-2.06-2.46Z"/><path class="cls-13" d="M49.93,89c-.07,1.76-.19,3.36-2.36,3.76C46,93,46.29,94.52,46,95.6c-.17.57,0,1.58-.76,1.5-1-.12-.47-1.11-.45-1.73,0-.84.18-1.66.25-2.5s.35-1.64,1-1.67A5.32,5.32,0,0,0,49.93,89Z"/><path class="cls-10" d="M103.27,86.34c0,.79-.48.91-1,.91s-1-.19-.92-.84a.9.9,0,0,1,1-.88A1,1,0,0,1,103.27,86.34Z"/><path class="cls-8" d="M23.12,47.3l-3,.49a3.25,3.25,0,0,1-.82-3c.45-.11,1,.14,1.34-.4,1.57-2,.79-4.13.45-6.25-.83-1.3.78-2.39.31-3.66,1.28-.17.88.83.86,1.39-.07,2.9.25,5.81-.24,8.7-.1.55-.33,1.33.69,1.39C22.88,46.41,23,46.86,23.12,47.3Z"/><path class="cls-6" d="M21.44,34.49c.47,1.27-1.14,2.36-.31,3.66-.29,2,.43,4-.52,5.9-.77,0-1.11-.29-1.11-1.1q0-3.62-.05-7.23C19.42,34.14,20.47,34.4,21.44,34.49Z"/><path class="cls-8" d="M19.82,31.79a30.57,30.57,0,0,1,4.49-.39c1,0,1.53.29,1.47,1.41s-.76.84-1.45.81a16.38,16.38,0,0,0-4.53.15c-.57-.71.43-1.33,0-2Z"/><path class="cls-12" d="M28.16,31.53c.37,1.48-.41,3,.1,4.46a1.91,1.91,0,0,1-2.6,0c0-.28,0-.56,0-.84.65-.47,1.16-.82.77-1.9C26,31.87,26.62,31.13,28.16,31.53Z"/><path class="cls-9" d="M25.7,35.13c0,.28,0,.56,0,.84-.7.7-1.45,1.37-1.22,2.52-.29.51-.79.43-1.26.44,0-1,0-2.06,0-3.1,0-.59-.16-1.37.74-1.44C24.56,34.34,25.48,34,25.7,35.13Z"/><path class="cls-3" d="M20.61,44.05c.95-1.9.23-3.94.52-5.9.34,2.12,1.12,4.27-.45,6.25A2.17,2.17,0,0,1,20.61,44.05Z"/><path class="cls-9" d="M23.6,45.21l-.43,0c0-.14,0-.28,0-.42Z"/><path class="cls-12" d="M31.85,70.7a3.67,3.67,0,0,1-2,.59c-.72-.71-.28-1.6-.36-2.41C31,68.57,32.18,68.67,31.85,70.7Z"/><path class="cls-4" d="M43.26,69.59a19.92,19.92,0,0,0-.3-5.45c.63-9.88.26-19.78.3-29.67a5.66,5.66,0,0,1,1.68-3.66c.91-1.13,1.78-2.29,2.66-3.43,1.14-1,2.56-1,3.94-1,9.34,0,18.68.1,28-.1,2.57-.06,4,1.11,5.27,2.87A7.08,7.08,0,0,0,86.51,31a5.36,5.36,0,0,1,1.37,4c-.06,5,0,9.91,0,14.86l0,10.47c0,2.43-.16,4.88-.06,7.31a6.66,6.66,0,0,1-1.37,4.85,19.38,19.38,0,0,0-2.31,2.68c-1,1.7-2.41,2-4.23,2-8.66-.17-17.32-.24-26-.33a12,12,0,0,0-3.33.19c-1.59.44-2.67-.38-3.55-1.58C46,73.33,43.94,71.92,43.26,69.59Zm8.17-41.91-.87,0c-2.38.18-6.29,4.83-6.35,7.59-.28,11.25.35,22.49.36,33.73,0,1.93,3.67,6,5.56,6.35,10.31.32,20.63.2,30.94,0a1.44,1.44,0,0,0,1.37-.32c1.38-1.56,2.77-3.12,4.1-4.72A2.62,2.62,0,0,0,87,68.59q0-17,0-34.08c0-.9-.06-1.71-1.16-1.91-1.32-1.9-2.19-4.26-4.83-4.86-2,.67-4,0-6,0l-22,0A2.24,2.24,0,0,0,51.43,27.68Z"/><path class="cls-1" d="M103.51,62c-.7,0-1.4,0-2.1,0-.54,0-1-.18-1-.83s.48-.78,1-.78c1.4,0,2.8,0,4.2,0,.52,0,1,.08,1,.74s-.46.92-1.08.92h-2.1Z"/><path class="cls-9" d="M105.82,66.68c-2.63-1-2.76-.86-2.93,2.9h-1.16a1.6,1.6,0,0,1-.11-.39l0-.85.06,0c1.47-.44.75-1,.1-1.6s-1.19-.24-1.79-.38c.13-.43.26-.86.38-1.29H103c.52,1.46,1.74.62,2.63.75C106.65,65.91,106.74,66.1,105.82,66.68Z"/><path class="cls-1" d="M103,65H100.4c-.24-.29-.4-.78,0-.8a34,34,0,0,1,6,.25C105.37,65.21,104.12,64.85,103,65Z"/><path class="cls-12" d="M101.62,69.19a1.6,1.6,0,0,0,.11.39c0,.28,0,.55,0,.83-.55,1.14-1.15,2-2.21.43l0-.48C99.37,68.49,100.57,69,101.62,69.19Z"/><path class="cls-12" d="M100,66.31c.6.14,1.28-.15,1.79.38,0,.53-.07,1.07-.1,1.6l-.06,0C99.23,68.4,99.16,68.31,100,66.31Z"/><path class="cls-7" d="M99.45,70.36l0,.48h-.76c.05-.31.09-.61.13-.91Z"/><path class="cls-1" d="M100.43,42.28c-.47-.79-.69-1.53.39-2a15.83,15.83,0,0,0,4.34.35c.63,0,1.38,0,1.34.89,0,.73-.7.76-1.27.76Z"/><path class="cls-12" d="M101.66,34.72c0,.8.24,1.85-1.12,1.71-1.1-.11-1-.94-.9-1.75a11.84,11.84,0,0,0-.09-1.44c0-.53-.16-1.17.53-1.43s1.33.06,1.61.84S100.66,34,101.66,34.72Z"/><path class="cls-8" d="M101.66,34.72c-1-.7.17-1.38,0-2.07.69-.15-.24-1.35.82-1.27v.43c0,.55,0,1.1,0,1.65C102.26,33.9,103.23,35.18,101.66,34.72Z"/><path class="cls-3" d="M98.29,54.69l-.19.3a.84.84,0,0,1-.15-.32c0-.1.11-.2.17-.3Z"/><path class="cls-5" d="M107.11,48a8.26,8.26,0,0,1-6.78.07l.81-.05.44,0Z"/><path class="cls-10" d="M101.58,48l-.44,0Z"/><path class="cls-3" d="M101.71,70.41c0-.28,0-.55,0-.83h1.16l0,.83Z"/><path class="cls-7" d="M85.79,32.6c1.1.2,1.17,1,1.16,1.91q0,17,0,34.08a2.62,2.62,0,0,1-.42,1.79c-1.33,1.6-2.72,3.16-4.1,4.72a1.44,1.44,0,0,1-1.37.32c-.3-1.45,1-3.23-.91-4.35a10.56,10.56,0,0,0-4-.18L54.41,71c-4.34,0-4.34,0-4.28,4.41C48.24,75,44.57,71,44.57,69c0-11.24-.64-22.48-.36-33.73.06-2.76,4-7.41,6.35-7.59-.19,5.68-.44,4.45,4.33,4.6l1,.06c0,.23,0,.47,0,.7l-.28.31-1,.9c-.32.95-2.26-.28-2,1.47,0,.21-.06.41-.08.62-2.57.43-3,1.15-2.13,3.44v1.41c-.74.3-1.95-.25-2.06,1.21s.57,2,2.11,2c8.1,0,16.21,0,24.32,0a.71.71,0,0,0,0,.29l-18.89.13c-4.51-.36-4.51-.36-4.63,3.94a1.2,1.2,0,0,1,0,.2c-3.38,1.11-3.44,1.19-2.49,3.77.1.19.22.26.39.08h.92c.38.38.88.26,1.34.34-.09,1.42-.56,2.86.3,4.21a1.37,1.37,0,0,0,0,.35l-1,.1c-.8,0-1.82-.22-2,.92-.18,1-.17,2,1,2.45.34.43,1.23.26,1.21,1.1-1.26,1.59-.71,3.1,1.3,3.56l.54.35a1.23,1.23,0,0,0-.08.38,1.21,1.21,0,0,0,.72,1.7c.82.53,1.93.13,2.69.84.32.85,1.11.76,1.77.81a145.58,145.58,0,0,0,17,0C75.56,70,76,69.81,76,69l1.35-.6c1.34.14,1.8-.55,1.68-1.78a.66.66,0,0,0,.34-.71c1.86-.3,1.14-2,1.67-3.05l.44-1.57c1.35-.17,1.35-1.12,1.21-2.13s-.92-1.38-1.93-1.3a13.72,13.72,0,0,1-1.42-.06.65.65,0,0,0,0-.31c1.24-1.06.77-2.5.5-3.64s-1.56-.47-2.39-.55a14.53,14.53,0,0,0-2.28.08c-6.47-.16-12.93-.21-19.4,0l-.34-.17c0-.1,0-.2,0-.3l25.24-.06c1.8,0,2.61-1,2.06-2.58s-1.83-.52-2.72-.88c0-1.49,0-3,0-4.46.58-.18,1.27.1,1.79-.38,1.56-.58.94-1.82.87-2.89l0-.07-.46-.4-.68-.06H80.26c.23-.49,1-.71.78-1.43,0-1,.35-2.15-.42-3.09C82.6,35.59,83.7,33.45,85.79,32.6Z"/><path class="cls-14" d="M80.16,71.07c1.86,1.12.61,2.9.91,4.35-10.31.16-20.63.28-30.94,0C50.07,71,50.07,71,54.41,71l21.78-.08A14.67,14.67,0,0,0,80.16,71.07Z"/><path class="cls-14" d="M55.92,32.37l-1-.06c-4.77-.15-4.52,1.08-4.33-4.6l.87,0a1.5,1.5,0,0,0,1.49,0l22,0c2,0,4,.67,6,0-.15,1.61,1.06,3.55-1.17,4.63C71.83,32.15,63.88,32.12,55.92,32.37Z"/><path class="cls-9" d="M79.79,32.37c2.23-1.08,1-3,1.17-4.63,2.64.6,3.51,3,4.83,4.86-2.09.85-3.19,3-5.17,4l-1.2-.29-.39-.7a3,3,0,0,0-1.27-1.75,2.22,2.22,0,0,0,0-.37C77.9,32.12,79.24,33,79.79,32.37Z"/><path class="cls-8" d="M52.92,27.7a1.5,1.5,0,0,1-1.49,0A2.24,2.24,0,0,1,52.92,27.7Z"/><path class="cls-3" d="M101.71,68.29c0-.53.07-1.07.1-1.6C102.46,67.27,103.18,67.85,101.71,68.29Z"/><path class="cls-14" d="M48.78,52.83c-1-2.58-.89-2.66,2.49-3.77,1.35.73,2.78.24,4.17.29l19.85,0,4.78,0c.89.36,2.21-.56,2.72.88s-.26,2.57-2.06,2.58l-25.24.06a27.84,27.84,0,0,0-5.4,0h-.92A.59.59,0,0,0,48.78,52.83Z"/><path class="cls-14" d="M49.69,61.29c-1.17-.47-1.18-1.49-1-2.45.21-1.14,1.23-.87,2-.92l1-.1H72.28a38.16,38.16,0,0,0,7.09,0,13.72,13.72,0,0,0,1.42.06c1-.08,1.78.16,1.93,1.3s.14,2-1.21,2.13l-4.45-.09c-6.29-.51-12.6-.26-18.91-.3a4.69,4.69,0,0,0-2.64.31Z"/><path class="cls-14" d="M82.75,41.63c.07,1.07.69,2.31-.87,2.89l-7,0c-8.11,0-16.22-.09-24.32,0-1.54,0-2.22-.46-2.11-2s1.32-.91,2.06-1.21a4.47,4.47,0,0,0,2.18,0,25.57,25.57,0,0,0,5.32.13H74a11.11,11.11,0,0,0,3.59-.16,4.78,4.78,0,0,0,2.65-.09h1.31l.68.06.46.39,0,.07Z"/><path class="cls-14" d="M79.42,36.28l1.2.29c.77.94.4,2,.42,3.09l-2.61-.06a4,4,0,0,0-.8-.18l-24,0c-.47,0-1-.08-1.36.35H50.48c-.88-2.29-.44-3,2.12-3.44Z"/><path class="cls-14" d="M52.21,66c-2-.46-2.57-2-1.31-3.56l.93.06c7.23.73,14.47.35,21.71.28l7.53.12c-.53,1,.19,2.75-1.67,3.05L68.5,66Z"/><path class="cls-15" d="M55.85,53.35c6.47-.19,12.93-.14,19.4,0-.18,1.32.33,2.72-.45,4l-2.51.14-10.9,0-5.45-.14C55.19,56,55.58,54.69,55.85,53.35Z"/><path class="cls-15" d="M55.93,44.92l18.89-.13a2,2,0,0,0,.36.17l.06,4L55.85,48.9Z"/><path class="cls-12" d="M79.06,66.61c.12,1.23-.34,1.92-1.68,1.78h-24a1.21,1.21,0,0,1-.72-1.7q11.85,0,23.71-.11a3.86,3.86,0,0,0,2.25-.29Z"/><path class="cls-12" d="M77.76,33.83A3,3,0,0,1,79,35.58l-.42.1c-5.11,0-10.21-.08-15.32,0-2.15,0-4.32-.27-6.45.25a17.45,17.45,0,0,1-4.15-.15c-.27-1.75,1.67-.52,2-1.47a33.11,33.11,0,0,1,5.8-.36Z"/><path class="cls-14" d="M76,69c0,.82-.47,1.05-1.22,1.08a145.58,145.58,0,0,1-17,0c-.66,0-1.45,0-1.77-.81C62.71,68.53,69.37,68.84,76,69Z"/><path class="cls-12" d="M75.24,49l-.06-4,4.91-.06c0,1.48,0,3,0,4.46l-4.78,0A1,1,0,0,1,75.24,49Z"/><path class="cls-12" d="M55.93,44.92c0,1.33-.06,2.66-.08,4l-.41.45c-1.39-.05-2.82.44-4.17-.29a1.2,1.2,0,0,0,0-.2C51.42,44.56,51.42,44.56,55.93,44.92Z"/><path class="cls-12" d="M74.8,57.34c.78-1.25.27-2.65.45-4a14.53,14.53,0,0,1,2.28-.08c.83.08,2.13-.52,2.39.55s.74,2.58-.5,3.64Z"/><path class="cls-12" d="M55.85,53.35c-.27,1.34-.66,2.69.09,4l-4.21.11c-.86-1.35-.39-2.79-.3-4.21l4.08-.08Z"/><path class="cls-3" d="M79.79,32.37c-.55.63-1.89-.25-2.06,1.09l-.85,0c-.17-.36-.51-.39-.84-.47-.11-.19-.23-.2-.36,0l-6.83,0a2.9,2.9,0,0,0-2.76,0l-10.15.14c0-.23,0-.47,0-.7C63.88,32.12,71.83,32.15,79.79,32.37Z"/><path class="cls-3" d="M78.61,35.68l.42-.1.39.7-26.82.09.09-.62a17.45,17.45,0,0,0,4.15.15c6.3,0,12.61,0,18.91,0A5.69,5.69,0,0,0,78.61,35.68Z"/><path class="cls-13" d="M78.62,66.28a3.86,3.86,0,0,1-2.25.29q-11.85.08-23.71.11a1.23,1.23,0,0,1,.08-.38l15.78,0Z"/><path class="cls-13" d="M76,69c-6.66-.15-13.32-.46-20,.23-.76-.71-1.87-.31-2.69-.84h24Z"/><path class="cls-8" d="M76.88,33.44l.85,0a2.22,2.22,0,0,1,0,.37l-17.28.09a33.11,33.11,0,0,0-5.8.36l1-.9Z"/><path class="cls-3" d="M81.07,62.85l-7.53-.12,0-.18c1.12-.28,2.35.14,3.79-.68l-2.12-.38a.45.45,0,0,1,0-.23l1.8-.07,4.45.09C81.36,61.8,81.22,62.32,81.07,62.85Z"/><path class="cls-2" d="M76.88,33.44l-21.22-.06.28-.31,10.14-.14a7.37,7.37,0,0,0,2.77,0l6.83,0,.18,0L76,33C76.37,33.05,76.71,33.08,76.88,33.44Z"/><path class="cls-10" d="M68.52,66.26l-15.78,0L52.2,66l16.3,0C68.51,66.08,68.52,66.17,68.52,66.26Z"/><path class="cls-9" d="M78.43,39.6l2.61.06c.2.72-.55.94-.78,1.43a4.78,4.78,0,0,1-2.65.09C76.67,40,78.07,40.08,78.43,39.6Z"/><path class="cls-3" d="M51.83,62.45l-.93-.06c0-.84-.87-.67-1.21-1.1l5.82-.09h0a2.83,2.83,0,0,0,0,.29c-.48.25-1.13-.06-1.54.45A4,4,0,0,1,51.83,62.45Z"/><path class="cls-3" d="M68.52,66.26c0-.09,0-.18,0-.28l10.9-.08a.66.66,0,0,1-.34.71l-.44-.33Z"/><path class="cls-3" d="M51.73,57.47l4.21-.11,5.45.14a.81.81,0,0,0,0,.31H51.75A1.37,1.37,0,0,1,51.73,57.47Z"/><path class="cls-3" d="M50.48,39.81h1.79c-.5.81.06.84.64.85-.09.19-.17.37-.26.55a4.47,4.47,0,0,1-2.18,0C50.48,40.75,50.48,40.28,50.48,39.81Z"/><path class="cls-10" d="M74.8,57.34l4.62.14a.65.65,0,0,1,0,.31,38.16,38.16,0,0,1-7.09,0c0-.11,0-.22,0-.33Z"/><path class="cls-3" d="M80.09,44.9,75.18,45a2,2,0,0,1-.36-.17.71.71,0,0,1,0-.29l7,0C81.36,45,80.67,44.72,80.09,44.9Z"/><path class="cls-9" d="M55.51,53.18l-4.08.08c-.46-.08-1,0-1.34-.34a27.84,27.84,0,0,1,5.4,0C55.5,53,55.5,53.08,55.51,53.18Z"/><path class="cls-8" d="M80.16,71.07a14.67,14.67,0,0,1-4-.18A10.6,10.6,0,0,1,80.16,71.07Z"/><path class="cls-8" d="M82.25,41.16l-.68-.06Z"/><path class="cls-9" d="M48.78,52.83a.59.59,0,0,1,.39.08C49,53.09,48.88,53,48.78,52.83Z"/><polygon class="cls-8" points="82.75 41.63 82.66 41.62 82.71 41.55 82.75 41.63"/><path class="cls-7" d="M55.44,49.35l.41-.45L75.24,49a1,1,0,0,0,.05.34Z"/><path class="cls-8" d="M77.06,61.19l-1.8.07-19.75,0h0a4.69,4.69,0,0,1,2.64-.31C64.46,60.93,70.77,60.68,77.06,61.19Z"/><path class="cls-8" d="M72.29,57.48c0,.11,0,.22,0,.33H61.4a.81.81,0,0,1,0-.31Z"/><path class="cls-8" d="M52.91,40.67c-.58,0-1.14,0-.64-.85.37-.43.89-.35,1.36-.35l24,0a4,4,0,0,1,.8.18c-.36.48-1.76.43-.82,1.58a11.11,11.11,0,0,1-3.59.16.86.86,0,0,1,0-.27c.69-.22,1.6.13,2.25-1.18H59.7c-2.21,0-4.46-.41-6.57.63Z"/><path class="cls-9" d="M74,41.07a.86.86,0,0,0,0,.27H58A1.13,1.13,0,0,0,58,41l13.34-.08Z"/><path class="cls-10" d="M58,41a1.13,1.13,0,0,1-.06.36,25.57,25.57,0,0,1-5.32-.13c.09-.18.17-.36.26-.55l.21-.15Z"/><path class="cls-8" d="M51.83,62.45A4,4,0,0,0,54,62a2.82,2.82,0,0,0,1.79.41l17.06,0,.78.21,0,.18C66.3,62.8,59.06,63.18,51.83,62.45Z"/><path class="cls-13" d="M78.61,35.68a5.69,5.69,0,0,1-2.86.25c-6.3,0-12.61,0-18.91,0,2.13-.52,4.3-.23,6.45-.25C68.4,35.6,73.5,35.66,78.61,35.68Z"/><path class="cls-8" d="M68.85,32.94a7.37,7.37,0,0,1-2.77,0A2.92,2.92,0,0,1,68.85,32.94Z"/><path class="cls-8" d="M76,33l-.18,0-.18,0C75.81,32.77,75.93,32.78,76,33Z"/><path class="cls-6" d="M55.51,61.21l19.75,0a.45.45,0,0,0,0,.23,2,2,0,0,1,0,.26c-6.57-.41-13.14-.09-19.71-.25A2.83,2.83,0,0,1,55.51,61.21Z"/><path class="cls-13" d="M73.58,62.55l-.78-.21c.7-.62,1.69,0,2.4-.59a2,2,0,0,0,0-.26l2.12.38C75.93,62.69,74.7,62.27,73.58,62.55Z"/><path class="cls-12" d="M75.2,61.75c-.71.6-1.7,0-2.4.59l-17.06,0A2.82,2.82,0,0,1,54,62c.41-.51,1.06-.2,1.54-.45C62.06,61.66,68.63,61.34,75.2,61.75Z"/><path class="cls-15" d="M74,41.07l-2.6-.16c-.68-.52-1.48-.26-2.22-.27-4.08,0-8.16,0-12.25,0,.9-.66,2-.08,2.8-.74H76.22C75.57,41.2,74.66,40.85,74,41.07Z"/><path class="cls-12" d="M59.7,39.89c-.85.66-1.9.08-2.8.74,4.09,0,8.17,0,12.25,0,.74,0,1.54-.25,2.22.27L58,41l-4.91-.47C55.24,39.48,57.49,39.89,59.7,39.89Z"/></g></g></svg>