<svg xmlns="http://www.w3.org/2000/svg" viewBox="0 0 74.47 320.76"><defs><style>.cls-1{fill:#8227ad;}.cls-2{fill:#b42dd7;}.cls-3{fill:#d36cf4;}</style></defs><g id="Capa_2" data-name="Capa 2"><g id="Capa_1-2" data-name="Capa 1"><path class="cls-1" d="M37.68,0c20.6.16,34.69,21,36.79,24.19-19,16.66-21.68,29.5-20.28,38.38C56.11,74.78,65.78,79.74,64.61,93.3c-1.06,12.18-10.93,13-14.1,26.26-4.71,19.72,16.79,30,16.31,53.81A30.85,30.85,0,0,1,65,183.68c-5.92,15.93-12.76,21.5-17.35,30.2-10.12,19.18,8.84,37.1,6.36,82.66-.37,6.82-1.27,15.31-7.14,20.25s-15.26,5.43-20.94.73-6.06-13.77-6.13-22.09c-.38-49.93,15.81-63.53,6.94-81.55-5-10.23-14.66-15.19-18.12-32.79a47.41,47.41,0,0,1-1.06-9.75C9,148.1,30.61,140.07,24,119.56,20,107.32,11,106,9.86,93.3c-1.18-13.56,8.5-18.52,10.42-30.73C21.68,53.69,19,40.85,0,24.19A53.07,53.07,0,0,1,11.46,11,49.35,49.35,0,0,1,37.68,0Z"/><path class="cls-2" d="M37.47,6.29c10.89.15,18.35,19.48,19.45,22.44-10,15.46-11.46,27.36-10.72,35.6,1,11.33,6.13,15.93,5.51,28.51-.58,11.81-5.36,13-7.45,24.36-2.54,13.71,7.11,27.31,8.64,48,1.26,16.89-6.43,20.57-10.79,33-1.6,4.57-2,8.12-2.61,13.12-2.66,23.05,2.51,40.81,1.79,68.79-.29,11.34-1.62,27.12-3.58,27.19s-4.52-14.61-5.36-28c-1.51-24.22,2-57.81,1.28-68a67.34,67.34,0,0,0-1.73-10.69c-.32-1.22-.69-2.47-1.14-3.81-4.14-12.09-10.63-15.64-9.2-31.65,1.86-20.77,11.18-34.38,8.65-48-2.1-11.35-6.87-12.55-7.45-24.36-.62-12.58,4.49-17.18,5.51-28.51.74-8.24-.68-20.14-10.73-35.6A34.74,34.74,0,0,1,23.6,16.46,31.12,31.12,0,0,1,37.47,6.29Z"/><ellipse class="cls-3" cx="36.6" cy="25.1" rx="4.5" ry="6.52"/><path class="cls-3" d="M40.53,102.5c.46,11.11-2.81,11.58-1.54,19.18.79,4.73,2.66,8.48.85,11.47-.25.41-1.21,2-2.61,2s-2.27-1.34-2.5-1.66c-2-2.79.1-6.86.85-12.14,1.17-8.29-2.51-9-1.64-18.88.61-7,2.2-6.45,2-11.7-.25-6-2.44-8.52-1.54-14.43.43-2.81,1.59-6.57,2.84-6.56,1.43,0,2.46,4.9,2.61,5.64,1.24,5.9-.28,9.18-.51,15.35C39.13,96.19,40.24,95.33,40.53,102.5Z"/><ellipse class="cls-3" cx="45.06" cy="34.9" rx="2.1" ry="3.93"/><ellipse class="cls-3" cx="29.23" cy="33.98" rx="2.1" ry="3.93"/><ellipse class="cls-3" cx="36.6" cy="40.82" rx="2.1" ry="6.33"/><ellipse class="cls-3" cx="36.6" cy="149.01" rx="4.5" ry="6.52"/><ellipse class="cls-3" cx="45.06" cy="158.81" rx="2.1" ry="3.93"/><ellipse class="cls-3" cx="29.23" cy="157.89" rx="2.1" ry="3.93"/><ellipse class="cls-3" cx="45.06" cy="80.44" rx="2.1" ry="3.93"/><ellipse class="cls-3" cx="29.23" cy="79.52" rx="2.1" ry="3.93"/><ellipse class="cls-3" cx="36.6" cy="164.73" rx="2.1" ry="6.33"/><ellipse class="cls-2" cx="19.46" cy="151.87" rx="1.91" ry="2.08"/><ellipse class="cls-2" cx="15.87" cy="161.51" rx="2.41" ry="2.62"/><ellipse class="cls-2" cx="15.74" cy="177.18" rx="2.91" ry="3.16"/><ellipse class="cls-2" cx="19.46" cy="187.38" rx="3.4" ry="3.7"/><ellipse class="cls-2" cx="54.44" cy="151.07" rx="1.91" ry="2.08"/><ellipse class="cls-2" cx="58.02" cy="160.7" rx="2.41" ry="2.62"/><ellipse class="cls-2" cx="58.15" cy="176.37" rx="2.91" ry="3.16"/><ellipse class="cls-2" cx="54.44" cy="186.57" rx="3.4" ry="3.7"/></g></g></svg>