<svg xmlns="http://www.w3.org/2000/svg" viewBox="0 0 102.05 102.05"><defs><style>.cls-1{fill:#d4d9d8;}.cls-2{fill:#191d1f;}.cls-3{fill:#292b2f;}.cls-4{fill:#b5bcbf;}.cls-5{fill:#82878d;}.cls-6{fill:#393e41;}.cls-7{fill:#30cfde;}.cls-8{fill:#484e53;}.cls-9{fill:#0d475f;}.cls-10{fill:#55585f;}.cls-11{fill:#2a83a6;}.cls-12{fill:#f1f1f1;}</style></defs><g id="Capa_2" data-name="Capa 2"><g id="Capa_1-2" data-name="Capa 1"><path class="cls-1" d="M99,34l-.2-.53a4.08,4.08,0,0,0-.16-.6C91.24,15.31,78.33,4.69,60,.88A46.44,46.44,0,0,0,41.38,1C28.31,3.62,18,10.69,9.93,21.34a41.62,41.62,0,0,0-6,10.84c-.14.3-.31.59-.43.9-6.27,16.63-4,32.31,5.9,46.67C18.75,93.28,31.77,101,48.17,102c15,.9,27.78-4.37,38.5-15a46.11,46.11,0,0,0,8.59-11.21,14.33,14.33,0,0,0,1.67-3.14l.92-2,.32-.79a32.82,32.82,0,0,0,2.35-7.31A45.6,45.6,0,0,0,101.82,46a39.71,39.71,0,0,0-2.09-9.76l-.4-1.31A1.83,1.83,0,0,0,99,34Z"/><path class="cls-2" d="M95.26,75.79A46.11,46.11,0,0,1,86.67,87C76,97.58,63.15,102.85,48.17,102c-16.4-1-29.42-8.67-38.77-22.2-9.91-14.36-12.17-30-5.9-46.67.12-.31.29-.6.43-.9a.65.65,0,0,1,.58.35c-.43,1.24-.88,2.48-1.28,3.73-.13.4-.46.83,0,1.25L3,37.89c-.84.56-.57,1.57-.94,2.33a1.77,1.77,0,0,0,.69,2.58l-.82-.17c-.4.12-.39.48-.45.8a43.56,43.56,0,0,0-.7,8.45,32.81,32.81,0,0,0,.93,7.83c.06.31-.06.79.32.87s.78-.28,1-.59a1.73,1.73,0,0,0,.34-1.05c-.29-4.07,0-8.14-.12-12.21a9.19,9.19,0,0,0-.52-3.93,1.69,1.69,0,0,1,1.16,1.83q0,7.18.05,14.39a1.69,1.69,0,0,1-.86,1.69c-1.23.6-1.14,1.44-.65,2.46a6.32,6.32,0,0,1,.27.84c.45,1.4.4,1.3,1.66.59a3.45,3.45,0,0,0,1.92-3.52c-.14-5.3-.08-10.6-.08-15.9a3,3,0,0,1,.12-1.49l.36-.36,0,3.26a51.9,51.9,0,0,1,.2,6.83C6.49,56,7,58.49,6.92,61v.49a2.83,2.83,0,0,1-1.75,3.31c-.41.2-.92.4-1,1-.67.17-.47.69-.38,1.12a14.67,14.67,0,0,0,.46,1.42c.51,1.56.61,1.58,1.72.32.92-.34,1.45-1.21,2.25-1.73A1.88,1.88,0,0,0,9,65.19c0-4.34,0-8.67-.05-13,0-1.86,0-3.72,0-5.58,0-.38,0-.8.55-.79.06,5.54,0,11.09.21,16.62.12,2.88-.41,5.19-3,6.69-.49.64-1.81.76-1.25,2a58.54,58.54,0,0,0,3,5.78c.23.4.46.64,1,.49.83-.23,1.68-.38,2.53-.57,1.07,0,2.14,0,3.21,0a2.87,2.87,0,0,1,2.61,1.1A59.29,59.29,0,0,0,31,89.05a2.69,2.69,0,0,1,1.33,1.57c.29,1.34.54,2.7.87,4,1,3.78,1,3.79,4.7,4.77.62.17,1.25.54,1.88,0l.31.33c.89.78,1.64.79,2.1-.11A2.91,2.91,0,0,1,45.23,98c3.8.12,7.61.11,11.42,0a2.32,2.32,0,0,1,2.55,1.45c.5,1.2,1.25,1.2,2.27.58a11.22,11.22,0,0,1-1.14-1.7c-.74-1.67-2-2-3.68-2-4.55.07-9.1.17-13.65-.07l-.25-.14v-.33c4.1,0,8.21.28,12.28,0,3.11-.21,5.39.49,6.66,3.54,0,.07.09.13.13.21a.7.7,0,0,0,1,.32c1.54-.48,3.09-.92,4.63-1.4a1.24,1.24,0,0,0,1-1c.44-2.13.94-4.25,1.42-6.37a4,4,0,0,1,1.92-2.35c4.15-2.78,8.31-5.57,11.66-9.35,1.62-1.83,3.26-3.18,5.83-2.68.07,0,.16,0,.24,0a9.17,9.17,0,0,1,1.83.25c1.81.62,2.9-.11,3.54-1.81A.83.83,0,0,1,95.26,75.79Zm-6.77,1.7c-1,0-1.94-.34-2.78.59a67.83,67.83,0,0,1-13.53,11.2,2.6,2.6,0,0,0-1.37,1.55,56.63,56.63,0,0,0-1.65,7c1.16-.5,2.09-1,3.07-1.29a2.14,2.14,0,0,0,1.62-2.65,2.27,2.27,0,0,1,.83-2.37A84.84,84.84,0,0,0,88.55,80.32c.23-.22.48-.5.84-.13A62.34,62.34,0,0,1,76.2,91.31c-1.83,1.14-1.94,1.59-1.42,3.7a4.68,4.68,0,0,0,.55-.27,61,61,0,0,0,8.15-5.91,61.93,61.93,0,0,0,8.8-9.71c.78-1.09.65-1.32-.71-1.39A13.26,13.26,0,0,1,88.49,77.49ZM31.55,90.85c-.05-.74-.63-1-1.15-1.37A63.2,63.2,0,0,1,17.13,78.27a2.52,2.52,0,0,0-3-.6,27.16,27.16,0,0,0-3,.22c-1.9.45-1.88.36-.68,2a56.09,56.09,0,0,0,9,9.66,57.79,57.79,0,0,0,8,5.55c.21.13.41.33.61,0a3.49,3.49,0,0,0-.85-3.07A61.26,61.26,0,0,1,13.1,80c-.17-.2-.52-.36-.19-.76a7.53,7.53,0,0,1,.82.51,11.24,11.24,0,0,1,1,.94C18.29,84.44,22,88,26.43,90.6c1.71,1,2.65,2.17,2.4,4.21-.06.49-.13,1,.45,1.33a15.52,15.52,0,0,0,3.77,1.55l0,.08a.1.1,0,0,0,.07,0l-.1-.1C32.7,95.37,32.1,93.12,31.55,90.85ZM50.7,98.69c-2.15,0-4.3,0-6.45,0A1.32,1.32,0,0,0,42.82,100c-.06.83.75.69,1.29.75,1,.1,2.06.16,3.07.3,3.84.53,7.65.06,11.46-.31.28,0,.57-.15.35-.45-.49-.71-.72-1.66-2-1.6C54.93,98.78,52.81,98.7,50.7,98.69Z"/><path class="cls-3" d="M4.51,32.53a.65.65,0,0,0-.58-.35,41.62,41.62,0,0,1,6-10.84C18,10.69,28.31,3.62,41.38,1A46.44,46.44,0,0,1,60,.88c18.31,3.81,31.22,14.43,38.58,32a4.08,4.08,0,0,1,.16.6.67.67,0,0,0-.6.34c-.18-.41-.39-.81-.54-1.23-.33-.86-.66-.74-1.17-.12-.75.9-.46,1.84-.27,2.8a12.92,12.92,0,0,1-1.67,1.3A3.08,3.08,0,0,0,93,39.63q.09,12.24,0,24.47c0,2,1.11,2.89,2.52,3.73a5.09,5.09,0,0,0,2,1.78c.16.3.45.25.72.26-.11.26-.21.53-.32.79l-.83,0a3.79,3.79,0,0,0-1.8-1.78,4.58,4.58,0,0,0-1.5-1.47,3.85,3.85,0,0,1-1.53-3.48c.14-2.3,0-4.61.07-6.92.25-4.55.2-9.09,0-13.64a27.78,27.78,0,0,0,.15-4.65,2.3,2.3,0,0,1,1.12-2.2c1.4-.85,2.36-1.94,2-3.75.19-.32.31-.77.59-.93.91-.54.67-1.14.3-1.88a72.25,72.25,0,0,0-5-8.4c-1-1.43-1.92-2.13-3.56-1.33-.54,0-1.08,0-1.61.08a5,5,0,0,1-4.42-1.61A49.61,49.61,0,0,0,72.6,11.4c-1.77-1.1-3.24-2.27-3.52-4.5-.08-.45-.21-.9-.25-1.35A2.08,2.08,0,0,0,67,3.5c-1.41-.3-2.77-.79-4.16-1.19-.89-.25-1.79-.6-2.61.21,0-.43.14-.91-.57-1-.54,0-1-.07-1.18.57C58,3.77,56.8,4,55.28,4c-3-.1-6-.09-8.93,0A2.29,2.29,0,0,1,44,2.45a3.24,3.24,0,0,0-.36-.66c-.36-.49-.84-.24-1.25-.14-.64.16-.22.58-.14.9l-.46.06c-.25-.48-.53-.76-1.16-.57a34.14,34.14,0,0,1-4.32,1.09c-2,.33-2.91,1.59-3.14,3.51-.36,2.3-1.78,3.68-3.7,4.84A39.51,39.51,0,0,0,21,17.89a6.83,6.83,0,0,1-6.58,2.35c-.52-.13-1-.23-1.56-.39a.87.87,0,0,0-1.06.39,48.21,48.21,0,0,0-6.49,10.7c-.15.33-.37.7.09,1A2.76,2.76,0,0,1,6.54,34.2v.46c-.7.05-.51-.58-.71-.92C5.52,33.21,5.52,32.28,4.51,32.53Zm9.88-13.16c1.49.19,3.14.77,4.37-.42A67.81,67.81,0,0,1,30.38,10a3.21,3.21,0,0,0,1.67-2.86,9.11,9.11,0,0,0,1-2.77,4.2,4.2,0,0,0-.6.14,51.17,51.17,0,0,0-19.19,14c-.51.58-.43.86.35.88ZM70.07,6.94A3.46,3.46,0,0,0,71.8,10a65.3,65.3,0,0,1,11.68,9.09,1.29,1.29,0,0,0,1,.42,18.9,18.9,0,0,0,3.1-.1c.58.08,1.36.09,1.6-.35.31-.59-.47-1-.83-1.38A50.35,50.35,0,0,0,71.47,5.33c-.64-.29-1.51-1.09-2-.55S69.72,6.24,70.07,6.94ZM51.17,3.38v0h5.08c1.1,0,1.47-.92,1.6-1.64s-.81-.47-1.23-.52a50.89,50.89,0,0,0-11.24,0c-.39,0-.94-.17-1.11.31s.28.83.53,1.21a1.48,1.48,0,0,0,1.41.58C47.87,3.37,49.52,3.38,51.17,3.38Z"/><path class="cls-3" d="M99.73,36.23A39.71,39.71,0,0,1,101.82,46a45.6,45.6,0,0,1-1.3,16.57l-.58,0a1.44,1.44,0,0,0-.78-1.92,1.89,1.89,0,0,1-1-1.73q.06-7.25,0-14.5c0-.69.16-1.38.75-1.62,1.75-.68,1.41-1.92,1-3.24-.12-.4-.16-.82-.24-1.23.37-.72-.28-1.11-.52-1.63l0,0A.62.62,0,0,1,99.73,36.23Zm1.62,16.37a69.09,69.09,0,0,0-.68-9.43c0-.25,0-.59-.27-.65s-.44.28-.58.53c-1.09.12-1.11,1-1.11,1.77q0,6.82,0,13.64a1.56,1.56,0,0,0,.27,1.2c.29.29.58.73,1,.66s.4-.62.48-1A55.87,55.87,0,0,0,101.35,52.6Z"/><path class="cls-2" d="M99.94,62.53l.58,0a32.82,32.82,0,0,1-2.35,7.31c-.27,0-.56,0-.72-.26.22-.54.45-1.06.66-1.6.7-1.84.7-1.84-.9-3-2-1-2.33-2.69-2.27-4.81.17-6.3,0-12.61.25-18.91.08-1.72.56-2.37,2.33-2.78.06.33-.21.46-.41.54-1.28.48-1.44,1.49-1.44,2.73,0,6.7,0,13.4,0,20.1,0,1,2.2,3.53,3.07,3.28s.64-1.47,1-2.22Z"/><path class="cls-3" d="M95.26,75.79a.83.83,0,0,0-.4-.67,12.13,12.13,0,0,1,1.28-2.48h.79A14.33,14.33,0,0,1,95.26,75.79Z"/><path class="cls-2" d="M96.93,72.65h-.78l.87-2,.83,0C97.55,71.32,97.24,72,96.93,72.65Z"/><path class="cls-2" d="M99.73,36.23a.62.62,0,0,0-.58.38L98.59,35l.74-.07Z"/><path class="cls-3" d="M99.33,34.92l-.74.07c-.12-.34-.25-.69-.38-1H99A1.83,1.83,0,0,1,99.33,34.92Z"/><path class="cls-2" d="M99,34h-.75a.41.41,0,0,1,0-.19.67.67,0,0,1,.6-.34Z"/><path class="cls-4" d="M92.26,57c0,2.31.07,4.62-.07,6.92a3.85,3.85,0,0,0,1.53,3.48,4.58,4.58,0,0,1,1.5,1.47l-2.28,3a8,8,0,0,0-.13-1,2.31,2.31,0,0,0-2.61-2,2.43,2.43,0,0,0-2,2.75c.15,1.63,1.36,2.37,3.25,2-.4,1.17-1.67,1.75-2,3-.08,0-.17.07-.24,0-2.57-.5-4.21.85-5.83,2.68-3.35,3.78-7.51,6.57-11.66,9.35a4,4,0,0,0-1.92,2.35A65.23,65.23,0,0,1,57.4,93.72a67.3,67.3,0,0,1-13.24-.2,49.87,49.87,0,0,1-11.87-2.9A2.69,2.69,0,0,0,31,89.05,59.29,59.29,0,0,1,17.77,77.92a2.87,2.87,0,0,0-2.61-1.1c-1.07.09-2.14,0-3.21,0-.54-.72-1.07-1.45-1.62-2.17a24.87,24.87,0,0,1-3.64-5.57c2.58-1.5,3.11-3.81,3-6.69-.23-5.53-.15-11.08-.21-16.62,0-1.32,0-2.65,0-4s0-2.49,0-3.73c0-.94-.58-1.34-1.39-1.13v-.09H8c0-.1.12-.2.1-.29s-.22-.15-.36-.11h0c.33-.36-.08-.41-.22-.57l-.8-.7-.25-.37a.14.14,0,0,0,.09-.18V34.2c.29-.06.33-.28.41-.54a19.59,19.59,0,0,1,3.34-6.28c.41,1.82,1.46,2.5,2.87,1.81a7.21,7.21,0,0,0,1.13-.76c1.26-1,1.62-2,1.13-3.26S14,23.54,12.47,23.71c-.15-.49.22-.77.43-1.11.5-.79,1-1.57,1.54-2.36A6.83,6.83,0,0,0,21,17.89a39.51,39.51,0,0,1,8.4-6.41c1.92-1.16,3.34-2.54,3.7-4.84a3.61,3.61,0,0,0,1.67-.37,41.37,41.37,0,0,1,7.75-1.9l.46.5c.35.88,1.1.88,1.85.88,3.87,0,7.74,0,11.61,0a4.59,4.59,0,0,0,1.95-.12,1.08,1.08,0,0,0,.94-.9l.5-.7L69.08,6.9c.28,2.23,1.75,3.4,3.52,4.5a49.61,49.61,0,0,1,9.31,7.28,5,5,0,0,0,4.42,1.61c.53-.06,1.07-.06,1.61-.08a10.48,10.48,0,0,0,.87,1.33c.45.65,1.26,1.12,1.17,2.09a2.46,2.46,0,0,0-2.41.6A2.58,2.58,0,0,0,87.06,27,3.72,3.72,0,0,0,90,29.32c1,.18,1.66-.54,2.08-1.44.75.42,1,1.23,1.5,1.88.72,1,.81,2.36,2,3,.34,1.81-.62,2.9-2,3.75a2.3,2.3,0,0,0-1.12,2.2,27.78,27.78,0,0,1-.15,4.65c-.5.32-.1.89-.3,1.25-.46.85,0,2.24-1.46,2.52,0-.29-.1-.58-.13-.87A38.74,38.74,0,0,0,72.6,16.87a37.73,37.73,0,0,0-25.86-6c-14.21,1.6-24.6,9-31.31,21.72a36.88,36.88,0,0,0-4,18A2.64,2.64,0,0,0,11,52.42a53.48,53.48,0,0,0,1.81,9.73A37.84,37.84,0,0,0,21.4,76.83a43.83,43.83,0,0,0,12.32,9c5.33,2.82,11.06,3.8,17,4a38.18,38.18,0,0,0,8.7-1,40.79,40.79,0,0,0,16-7.35,35.72,35.72,0,0,0,7.22-7A43.59,43.59,0,0,0,87.73,66a39.23,39.23,0,0,0,2.75-9.77c.07-.39.08-.8.61-.73s.82.18.89.71C92,56.48,92,56.79,92.26,57ZM14.88,71.47a2.48,2.48,0,0,0-2.35-2.57,2.39,2.39,0,0,0-2.36,2.41,2.47,2.47,0,0,0,2.27,2.53A2.55,2.55,0,0,0,14.88,71.47Z"/><path class="cls-5" d="M32.29,90.62a49.87,49.87,0,0,0,11.87,2.9,67.3,67.3,0,0,0,13.24.2,65.23,65.23,0,0,0,12.44-2.61c-.48,2.12-1,4.24-1.42,6.37a1.24,1.24,0,0,1-1,1c-1.54.48-3.09.92-4.63,1.4a.7.7,0,0,1-1-.32c0-.08-.1-.14-.13-.21-1.27-3-3.55-3.75-6.66-3.54-4.07.28-8.18,0-12.28,0-.62-.13-.89.37-1.16.74-.66,1-1.25,1.94-1.86,2.92-.63.53-1.26.16-1.88,0-3.74-1-3.75-1-4.7-4.77C32.83,93.32,32.58,92,32.29,90.62Z"/><path class="cls-6" d="M33.05,97.69a15.52,15.52,0,0,1-3.77-1.55c-.58-.28-.51-.84-.45-1.33.25-2-.69-3.21-2.4-4.21C22,88,18.29,84.44,14.74,80.73a11.24,11.24,0,0,0-1-.94,7.53,7.53,0,0,0-.82-.51c-.33.4,0,.56.19.76a61.26,61.26,0,0,0,14.08,12A3.49,3.49,0,0,1,28,95.12c-.2.34-.4.14-.61,0a57.79,57.79,0,0,1-8-5.55,56.09,56.09,0,0,1-9-9.66c-1.2-1.67-1.22-1.58.68-2a27.16,27.16,0,0,1,3-.22,1.66,1.66,0,0,0,.47.87,37.6,37.6,0,0,0,4.8,4.89,45.93,45.93,0,0,0,12.17,7.42c.55,2.27,1.15,4.52,1.5,6.84Z"/><path class="cls-6" d="M88.49,77.49a13.26,13.26,0,0,0,3.08.24c1.36.07,1.49.3.71,1.39a61.93,61.93,0,0,1-8.8,9.71,61,61,0,0,1-8.15,5.91,4.68,4.68,0,0,1-.55.27c-.52-2.11-.41-2.56,1.42-3.7A62.34,62.34,0,0,0,89.39,80.19c-.36-.37-.61-.09-.84.13A84.84,84.84,0,0,1,74.68,91.47a2.27,2.27,0,0,0-.83,2.37,2.14,2.14,0,0,1-1.62,2.65c-1,.31-1.91.79-3.07,1.29a56.63,56.63,0,0,1,1.65-7c.14.07.32.22.41.18a56.53,56.53,0,0,0,8.26-4.25c3.31-2.15,5.69-5.29,8.42-8.06A2,2,0,0,0,88.49,77.49Z"/><path class="cls-7" d="M6.31,43.69a3,3,0,0,0-.12,1.49c0,5.3-.06,10.6.08,15.9A3.45,3.45,0,0,1,4.35,64.6c-1.26.71-1.21.81-1.66-.59a6.32,6.32,0,0,0-.27-.84c-.49-1-.58-1.86.65-2.46A1.69,1.69,0,0,0,3.93,59q0-7.2-.05-14.39A1.69,1.69,0,0,0,2.72,42.8h0A1.77,1.77,0,0,1,2,40.22c.37-.76.1-1.77.94-2.33A15.09,15.09,0,0,0,5.32,39.6a1.54,1.54,0,0,1,.89,1.5A8,8,0,0,0,6.31,43.69Z"/><path class="cls-8" d="M88.49,77.49a2,2,0,0,1-.59,1.21c-2.73,2.77-5.11,5.91-8.42,8.06A56.53,56.53,0,0,1,71.22,91c-.09,0-.27-.11-.41-.18a2.6,2.6,0,0,1,1.37-1.55,67.83,67.83,0,0,0,13.53-11.2C86.55,77.15,87.53,77.53,88.49,77.49Z"/><path class="cls-8" d="M4.15,65.81c.11-.58.62-.78,1-1a2.83,2.83,0,0,0,1.75-3.31c.13-.06.35-.11.37-.19.06-.28-.19-.27-.38-.3,0-2.54-.43-5.07,0-7.61a1.11,1.11,0,0,0,1-.74.89.89,0,0,1,1-.5c0,4.34,0,8.67.05,13a1.88,1.88,0,0,1-.76,1.75c-.8.52-1.33,1.39-2.25,1.73A8.07,8.07,0,0,0,4.15,65.81Z"/><path class="cls-6" d="M50.7,98.69c2.11,0,4.23.09,6.33,0,1.24-.06,1.47.89,2,1.6.22.3-.07.42-.35.45-3.81.37-7.62.84-11.46.31-1-.14-2-.2-3.07-.3-.54-.06-1.35.08-1.29-.75a1.32,1.32,0,0,1,1.43-1.28C46.4,98.71,48.55,98.69,50.7,98.69Z"/><path class="cls-7" d="M43,96.25c4.55.24,9.1.14,13.65.07,1.7,0,2.94.3,3.68,2a11.22,11.22,0,0,0,1.14,1.7c-1,.62-1.77.62-2.27-.58A2.32,2.32,0,0,0,56.65,98c-3.81.11-7.62.12-11.42,0a2.91,2.91,0,0,0-3.08,1.7c-.46.9-1.21.89-2.1.11,1-1.06,1.5-2.57,2.66-3.54Z"/><path class="cls-8" d="M31.55,90.85a45.93,45.93,0,0,1-12.17-7.42,37.6,37.6,0,0,1-4.8-4.89,1.66,1.66,0,0,1-.47-.87,2.52,2.52,0,0,1,3,.6A63.2,63.2,0,0,0,30.4,89.48C30.92,89.81,31.5,90.11,31.55,90.85Z"/><path class="cls-8" d="M1.91,42.63l.82.17h0a9.19,9.19,0,0,1,.52,3.93c.08,4.07-.17,8.14.12,12.21A1.73,1.73,0,0,1,3,60c-.23.31-.6.68-1,.59s-.26-.56-.32-.87a32.81,32.81,0,0,1-.93-7.83c.64-.12.42-.65.42-1a36.15,36.15,0,0,1,.3-4.77C1.64,44.94,2.18,43.84,1.91,42.63Z"/><path class="cls-8" d="M6.7,35.21c.26.24.53.47.8.7-.12.09-.29.15-.23.34s.26.23.45.23h0l.26.4H8V37c1.26.89.76,2.24.89,3.43.05.51-.37,1.23.52,1.43,0,1.33,0,2.66,0,4-.56,0-.53.41-.55.79H6.72c0-1.09,0-2.17,0-3.26.15-1.86.24-3.71-1.72-4.79a9.46,9.46,0,0,1,1.19-3C6.42,35.6,6.75,35.74,6.7,35.21Z"/><path class="cls-5" d="M89.49,76.68c.31-1.23,1.58-1.81,2-3a5,5,0,0,0,1.47-1.8l2.28-3A3.79,3.79,0,0,1,97,70.64l-.87,2a11.69,11.69,0,0,0-1.29,2.48c-.64,1.7-1.73,2.43-3.54,1.81A9.17,9.17,0,0,0,89.49,76.68Z"/><path class="cls-5" d="M6.69,69.12a24.87,24.87,0,0,0,3.64,5.57c.55.72,1.08,1.45,1.62,2.17-.85.19-1.7.34-2.53.57-.52.15-.75-.09-1-.49a58.54,58.54,0,0,1-3-5.78C4.88,69.88,6.2,69.76,6.69,69.12Z"/><path class="cls-6" d="M6.72,46.59h2.2c0,1.86,0,3.72,0,5.58a.89.89,0,0,0-1,.5,1.11,1.11,0,0,1-1,.74A51.9,51.9,0,0,0,6.72,46.59Z"/><path class="cls-5" d="M6.14,35.55a9.46,9.46,0,0,0-1.19,3c-.72-.09-1.12-.77-1.75-1-.43-.42-.1-.85,0-1.25.4-1.25.85-2.49,1.28-3.73,1-.25,1,.68,1.32,1.21.2.34,0,1,.71.92a.14.14,0,0,1-.09.18C6,34.92,6.12,35.25,6.14,35.55Z"/><path class="cls-6" d="M4.15,65.81A8.07,8.07,0,0,1,6,68.67c-1.11,1.26-1.21,1.24-1.72-.32a14.67,14.67,0,0,1-.46-1.42C3.68,66.5,3.48,66,4.15,65.81Z"/><path class="cls-5" d="M1.91,42.63c.27,1.21-.27,2.31-.43,3.47a36.15,36.15,0,0,0-.3,4.77c0,.36.22.89-.42,1a43.56,43.56,0,0,1,.7-8.45C1.52,43.11,1.51,42.75,1.91,42.63Z"/><path class="cls-3" d="M3.2,37.51c.63.26,1,.94,1.75,1,2,1.08,1.87,2.93,1.72,4.79l-.36.36a8,8,0,0,1-.1-2.59,1.54,1.54,0,0,0-.89-1.5A15.09,15.09,0,0,1,3,37.89Z"/><path class="cls-3" d="M42.71,96.23c-1.16,1-1.63,2.48-2.66,3.54l-.31-.33c.61-1,1.2-2,1.86-2.92.27-.37.54-.87,1.16-.74v.33A.56.56,0,0,0,42.71,96.23Z"/><path class="cls-6" d="M6.92,61c.19,0,.44,0,.38.3,0,.08-.24.13-.37.19C6.92,61.36,6.92,61.19,6.92,61Z"/><path class="cls-9" d="M42.71,96.23a.56.56,0,0,1,0-.12l.25.14Z"/><path class="cls-6" d="M33.05,97.69l.1.1a.1.1,0,0,1-.07,0l0-.08Z"/><path class="cls-1" d="M90.51,47.12c1.42-.28,1-1.67,1.46-2.52.2-.36-.2-.93.3-1.25.19,4.55.24,9.09,0,13.64-.29-.2-.25-.51-.28-.8-.07-.53-.48-.66-.89-.71s-.54.34-.61.73A39.23,39.23,0,0,1,87.73,66a43.59,43.59,0,0,1-5.11,8.46,35.72,35.72,0,0,1-7.22,7,40.79,40.79,0,0,1-16,7.35,38.18,38.18,0,0,1-8.7,1c-5.9-.22-11.63-1.2-17-4a43.83,43.83,0,0,1-12.32-9,37.84,37.84,0,0,1-8.64-14.68A53.48,53.48,0,0,1,11,52.42a2.64,2.64,0,0,1,.47-1.77A54.14,54.14,0,0,0,13,60.46a39.55,39.55,0,0,0,73.88,5.42A40.48,40.48,0,0,0,90.5,51.41c.5.32,0,1.05.61,1.48.1-.74.16-1.37.27-2s0-1.3-.83-1.52v-1c.23,0,.57.06.58-.29s-.29-.46-.6-.49Z"/><path class="cls-8" d="M97.52,38.56c-1.77.41-2.25,1.06-2.33,2.78-.3,6.3-.08,12.61-.25,18.91-.06,2.12.3,3.8,2.27,4.81a9.22,9.22,0,0,0-1.75,2.77c-1.41-.84-2.54-1.74-2.52-3.73q.12-12.22,0-24.47a3.08,3.08,0,0,1,1.55-3.11,12.92,12.92,0,0,0,1.67-1.3,19.71,19.71,0,0,1,1.29,2.94v.38Z"/><path class="cls-10" d="M87.57,19.45a18.9,18.9,0,0,1-3.1.1,1.29,1.29,0,0,1-1-.42A65.3,65.3,0,0,0,71.8,10a3.46,3.46,0,0,1-1.73-3.1,2.68,2.68,0,0,1,.59.13,52.54,52.54,0,0,1,12,7.46A25.76,25.76,0,0,1,87.57,19.45Z"/><path class="cls-10" d="M32.05,7.15A3.21,3.21,0,0,1,30.38,10,67.81,67.81,0,0,0,18.76,19c-1.23,1.19-2.88.61-4.37.42a6.49,6.49,0,0,1,.59-.79A52,52,0,0,1,26.36,9.82C28.18,8.77,29.93,7.55,32.05,7.15Z"/><path class="cls-5" d="M87.57,19.45a25.76,25.76,0,0,0-4.92-4.92,52.54,52.54,0,0,0-12-7.46,2.68,2.68,0,0,0-.59-.13c-.35-.7-1-1.67-.56-2.16s1.32.26,2,.55A50.35,50.35,0,0,1,88.34,17.72c.36.4,1.14.79.83,1.38C88.93,19.54,88.15,19.53,87.57,19.45Z"/><path class="cls-5" d="M32.05,7.15c-2.12.4-3.87,1.62-5.69,2.67A52,52,0,0,0,15,18.58a6.49,6.49,0,0,0-.59.79l-.74,0c-.78,0-.86-.3-.35-.88A51.17,51.17,0,0,1,32.49,4.52a4.2,4.2,0,0,1,.6-.14A9.11,9.11,0,0,1,32.05,7.15Z"/><path class="cls-1" d="M10.29,27.38A19.59,19.59,0,0,0,7,33.66c-.08.26-.12.48-.41.54a2.76,2.76,0,0,0-1.12-2.27c-.46-.29-.24-.66-.09-1a48.21,48.21,0,0,1,6.49-10.7.87.87,0,0,1,1.06-.39c.51.16,1,.26,1.56.39-.52.79-1,1.57-1.54,2.36-.21.34-.58.62-.43,1.11-.48.39-1.18.51-1.45,1.17-.18.09-.18.24-.16.41A6,6,0,0,0,10.29,27.38Z"/><path class="cls-1" d="M95.56,32.75c-1.2-.63-1.29-2-2-3-.48-.65-.75-1.46-1.5-1.88L92,26.39a2.34,2.34,0,0,0-1-2l-1-.72c.09-1-.72-1.44-1.17-2.09a10.48,10.48,0,0,1-.87-1.33c1.64-.8,2.58-.1,3.56,1.33a72.25,72.25,0,0,1,5,8.4c.37.74.61,1.34-.3,1.88C95.87,32,95.75,32.43,95.56,32.75Z"/><path class="cls-5" d="M51.17,3.38c-1.65,0-3.3,0-5,0a1.48,1.48,0,0,1-1.41-.58c-.25-.38-.69-.74-.53-1.21s.72-.27,1.11-.31a50.89,50.89,0,0,1,11.24,0C57,1.31,58,1,57.85,1.78s-.5,1.65-1.6,1.64H51.17Z"/><path class="cls-7" d="M42.2,2.55c-.08-.32-.5-.74.14-.9.41-.1.89-.35,1.25.14a3.24,3.24,0,0,1,.36.66A2.29,2.29,0,0,0,46.35,4c3-.08,5.95-.09,8.93,0C56.8,4,58,3.77,58.43,2.12c.18-.64.64-.61,1.18-.57.71.06.56.54.58,1v0c-.46.24-.54.72-.71,1.14l-.58,1c-.31,0-.5.14-.49.49L51,5.19H49.24a8.17,8.17,0,0,0-2.79,0l-.94,0H45c-.78.15-1.33-.37-2-.71C43.23,3.63,42.51,3.18,42.2,2.55Z"/><path class="cls-1" d="M60.18,2.48v0c.81-.81,1.71-.46,2.6-.21,1.39.4,2.75.89,4.16,1.19a2.08,2.08,0,0,1,1.88,2.05c0,.45.17.9.25,1.35L59.85,4l.09-.43C60.08,3.25,60.73,3,60.18,2.48Z"/><path class="cls-1" d="M42.54,4.37a41.37,41.37,0,0,0-7.75,1.9,3.61,3.61,0,0,1-1.67.37c.23-1.92,1.12-3.18,3.14-3.51A34.14,34.14,0,0,0,40.58,2c.63-.19.91.09,1.16.57Z"/><path class="cls-5" d="M97.47,38.16a19.71,19.71,0,0,0-1.29-2.94c-.19-1-.48-1.9.27-2.8.51-.62.84-.74,1.17.12.15.42.36.82.54,1.23a.41.41,0,0,0,0,.19c.13.34.26.69.38,1l.56,1.62,0,0A3.8,3.8,0,0,1,97.47,38.16Z"/><path class="cls-6" d="M95.46,67.83a9.22,9.22,0,0,1,1.75-2.77c1.6,1.11,1.6,1.11.9,3-.21.54-.44,1.06-.66,1.6A5.09,5.09,0,0,1,95.46,67.83Z"/><path class="cls-6" d="M42.54,4.37l-.8-1.76.46-.06c.31.63,1,1.08.81,1.93v.39Z"/><path class="cls-7" d="M99.94,62.53l-.21.46c-.35.75-.12,2-1,2.22s-3.07-2.3-3.07-3.28c0-6.7,0-13.4,0-20.1,0-1.24.16-2.25,1.44-2.73.2-.08.47-.21.41-.54l0,0c.57.2.85-.31,1.18-.57.57-.43.83-.23,1,.32s.12.83.24,1.23c.4,1.32.74,2.56-1,3.24-.59.24-.75.93-.75,1.62q0,7.24,0,14.5a1.89,1.89,0,0,0,1,1.73A1.44,1.44,0,0,1,99.94,62.53Z"/><path class="cls-8" d="M101.35,52.6a55.87,55.87,0,0,1-.9,6.7c-.08.4,0,.94-.48,1s-.71-.37-1-.66a1.56,1.56,0,0,1-.27-1.2q0-6.81,0-13.64c0-.82,0-1.65,1.11-1.77A34,34,0,0,1,101,51.44C101,51.83,100.67,52.4,101.35,52.6Z"/><path class="cls-5" d="M101.35,52.6c-.68-.2-.35-.77-.37-1.16a34,34,0,0,0-1.16-8.39c.14-.25.23-.62.58-.53s.23.4.27.65A69.09,69.09,0,0,1,101.35,52.6Z"/><path class="cls-2" d="M99.69,38.29c-.21-.55-.47-.75-1-.32-.33.26-.61.77-1.18.57v-.38a3.8,3.8,0,0,0,1.7-1.5C99.41,37.18,100.06,37.57,99.69,38.29Z"/><path class="cls-2" d="M90.56,48.39v2.26l0,.76a40.48,40.48,0,0,1-3.58,14.47A39.55,39.55,0,0,1,13,60.46a54.14,54.14,0,0,1-1.62-9.81,36.88,36.88,0,0,1,4-18C22.14,19.86,32.53,12.5,46.74,10.9a37.73,37.73,0,0,1,25.86,6A38.74,38.74,0,0,1,90.38,46.25c0,.29.09.58.13.87l0,.49ZM12.09,51c-.18,3.52,1,8,2.57,12.24a38,38,0,0,0,13,17,39,39,0,0,0,38.44,4.94A36.83,36.83,0,0,0,83.48,70.6a37.78,37.78,0,0,0,6.29-23.36,39.33,39.33,0,0,0-3.06-12.65A38.41,38.41,0,0,0,74.24,18.86a37.06,37.06,0,0,0-22-7.59A39.7,39.7,0,0,0,27.08,19.5a40.06,40.06,0,0,0-8.9,9.76C14.13,35.52,12.16,42.36,12.09,51Z"/><path class="cls-3" d="M14.88,71.47a2.55,2.55,0,0,1-2.44,2.37,2.47,2.47,0,0,1-2.27-2.53,2.39,2.39,0,0,1,2.36-2.41A2.48,2.48,0,0,1,14.88,71.47Zm-2.44-1.59c-.7.16-1.27.53-1.22,1.32a1.2,1.2,0,0,0,1.28,1.25,1.1,1.1,0,0,0,1.15-1.21A1.27,1.27,0,0,0,12.44,69.88Z"/><path class="cls-3" d="M11,24.88c.27-.66,1-.78,1.45-1.17,1.52-.17,2.48.3,2.95,1.46s.13,2.29-1.13,3.26a7.21,7.21,0,0,1-1.13.76c-1.41.69-2.46,0-2.87-1.81a6,6,0,0,1,.57-2.09c2.7-.35,2.7-.35,3.75,2.28.25-1,.67-1.89-.14-2.7a2.12,2.12,0,0,0-2.64-.21C11.57,24.78,11.33,25,11,24.88Zm2.85,2c-.13-.64-.33-1.32-1.26-1.29a1.84,1.84,0,0,0-1.55,1.81,1.22,1.22,0,0,0,1.21,1.31A1.77,1.77,0,0,0,13.87,26.86Z"/><path class="cls-3" d="M92.94,71.9a5,5,0,0,1-1.47,1.8c-1.89.37-3.1-.37-3.25-2a2.43,2.43,0,0,1,2-2.75,2.31,2.31,0,0,1,2.61,2A8,8,0,0,1,92.94,71.9Zm-1-.62c-.16-.65-.42-1.3-1.21-1.35a1.27,1.27,0,0,0-1.39,1.29,1.19,1.19,0,0,0,1.22,1.3C91.35,72.56,91.77,72,92,71.28Z"/><path class="cls-3" d="M92,26.39l.1,1.49c-.42.9-1,1.62-2.08,1.44A3.72,3.72,0,0,1,87.06,27a2.58,2.58,0,0,1,.51-2.81,2.46,2.46,0,0,1,2.41-.6l1,.72,0,.47c-1-.44-2-1-3-.06a2.34,2.34,0,0,0-.18,2.74c.26-.36,0-1,.67-.95a3.59,3.59,0,0,0,.14,1A1.58,1.58,0,0,0,90,28.63,1.05,1.05,0,0,0,91.12,28a1.53,1.53,0,0,0-.31-1.73,6.2,6.2,0,0,0-.84-.71c-.16-.28-.71-.1-.69-.6.91-.3,1.42.28,1.93.88C91.47,26,91.57,26.39,92,26.39Z"/><path class="cls-2" d="M43,4.87V4.48c.62.34,1.17.86,2,.71a.32.32,0,0,0,.55,0l.94,0a4.58,4.58,0,0,0,2.79,0h.44a.33.33,0,0,0,.56,0h.43c.11.15.22.14.32,0l7.41-.08c0,.17,0,.35,0,.53a4.59,4.59,0,0,1-1.95.12c-3.87,0-7.74,0-11.61,0C44.1,5.75,43.35,5.75,43,4.87Z"/><path class="cls-2" d="M9.46,41.83c-.89-.2-.47-.92-.52-1.43-.13-1.19.37-2.54-.89-3.43.81-.21,1.35.19,1.39,1.13C9.49,39.34,9.46,40.59,9.46,41.83Z"/><path class="cls-6" d="M58.41,5.64c0-.18,0-.36,0-.53,0-.35.18-.49.49-.49l.46.12A1.08,1.08,0,0,1,58.41,5.64Z"/><path class="cls-2" d="M59.35,4.74l-.46-.12.58-1h.47L59.85,4Z"/><path class="cls-2" d="M6.14,35.55c0-.3-.13-.63.31-.71l.25.37C6.75,35.74,6.42,35.6,6.14,35.55Z"/><path class="cls-2" d="M7.72,36.48c-.19,0-.39,0-.45-.23s.11-.25.23-.34C7.64,36.07,8.05,36.12,7.72,36.48Z"/><path class="cls-2" d="M8,36.87l-.26-.4c.14,0,.31-.09.36.11S8,36.77,8,36.87Z"/><path class="cls-4" d="M90.54,50.16v-.78c.78.22,1,.77.83,1.52s-.17,1.25-.27,2c-.61-.43-.11-1.16-.61-1.48l0-.76c.15,0,.34,0,.34-.24S90.69,50.18,90.54,50.16Z"/><path class="cls-4" d="M90.56,48.39l0-.78c.31,0,.62.13.6.49S90.79,48.36,90.56,48.39Z"/><path class="cls-5" d="M11,24.88c.31.08.55-.1.81-.22a2.12,2.12,0,0,1,2.64.21c.81.81.39,1.69.14,2.7-1-2.63-1-2.63-3.75-2.28C10.84,25.12,10.84,25,11,24.88Z"/><path class="cls-8" d="M92,26.39c-.38,0-.48-.39-.74-.56.4-.47-.26-.65-.26-1l0-.47A2.34,2.34,0,0,1,92,26.39Z"/><path class="cls-8" d="M49.24,5.2a4.58,4.58,0,0,1-2.79,0A8.17,8.17,0,0,1,49.24,5.2Z"/><path class="cls-3" d="M59.94,3.61h-.47c.17-.42.25-.9.71-1.14C60.73,3,60.08,3.25,59.94,3.61Z"/><path class="cls-8" d="M50.24,5.19a.33.33,0,0,1-.56,0Z"/><path class="cls-8" d="M45.51,5.19a.32.32,0,0,1-.55,0Z"/><path class="cls-8" d="M51,5.19c-.1.15-.21.16-.32,0Z"/><path class="cls-6" d="M12.09,51c.07-8.61,2-15.45,6.09-21.71a40.06,40.06,0,0,1,8.9-9.76,39.7,39.7,0,0,1,25.11-8.23,37.06,37.06,0,0,1,22,7.59A38.41,38.41,0,0,1,86.71,34.59a39.33,39.33,0,0,1,3.06,12.65A37.78,37.78,0,0,1,83.48,70.6,36.83,36.83,0,0,1,66.05,85.15a39,39,0,0,1-38.44-4.94,38,38,0,0,1-12.95-17C13.06,59,11.91,54.49,12.09,51Zm1.52-2.28A32.94,32.94,0,0,0,14,55.5a36.05,36.05,0,0,0,4.85,13A36.72,36.72,0,0,0,33.1,82.15a34.53,34.53,0,0,0,13.27,4.22,39.52,39.52,0,0,0,11.08-.15A36.87,36.87,0,0,0,80.58,72.29a37.89,37.89,0,0,0,7.9-21.59,33,33,0,0,0-1.84-12.63A37,37,0,0,0,71.93,19a36.2,36.2,0,0,0-24.52-6.07,39.37,39.37,0,0,0-13.74,3.92,36,36,0,0,0-12,9.81A34.39,34.39,0,0,0,13.61,48.69Z"/><path class="cls-1" d="M90.54,50.16c.15,0,.34,0,.33.25s-.19.21-.34.24Z"/><path class="cls-7" d="M12.44,69.88a1.27,1.27,0,0,1,1.21,1.36,1.1,1.1,0,0,1-1.15,1.21,1.2,1.2,0,0,1-1.28-1.25C11.17,70.41,11.74,70,12.44,69.88Z"/><path class="cls-7" d="M13.87,26.86a1.77,1.77,0,0,1-1.6,1.83,1.22,1.22,0,0,1-1.21-1.31,1.84,1.84,0,0,1,1.55-1.81C13.54,25.54,13.74,26.22,13.87,26.86Z"/><path class="cls-7" d="M92,71.28c-.2.76-.62,1.28-1.38,1.24a1.19,1.19,0,0,1-1.22-1.3,1.27,1.27,0,0,1,1.39-1.29C91.55,70,91.81,70.63,92,71.28Z"/><path class="cls-7" d="M90,25.55a6.2,6.2,0,0,1,.84.71A1.53,1.53,0,0,1,91.12,28a1.05,1.05,0,0,1-1.11.64,1.58,1.58,0,0,1-1.39-1.09,3.57,3.57,0,0,1-.14-1v-.07A1.35,1.35,0,0,1,90,25.55Z"/><path class="cls-5" d="M88.49,26.49v.07c-.66-.06-.41.58-.67.94A2.34,2.34,0,0,1,88,24.76c.93-1,2-.38,3,.06,0,.36.66.54.26,1-.51-.6-1-1.18-1.93-.88C88.7,25.3,87.79,25.47,88.49,26.49Z"/><path class="cls-6" d="M88.49,26.49c-.7-1,.21-1.19.79-1.54,0,.5.53.32.69.6A1.35,1.35,0,0,0,88.49,26.49Z"/><path class="cls-2" d="M13.61,48.69a34.39,34.39,0,0,1,8.09-22,36,36,0,0,1,12-9.81,39.37,39.37,0,0,1,13.74-3.92A36.2,36.2,0,0,1,71.93,19,37,37,0,0,1,86.64,38.07,33,33,0,0,1,88.48,50.7a37.89,37.89,0,0,1-7.9,21.59A36.87,36.87,0,0,1,57.45,86.22a39.52,39.52,0,0,1-11.08.15A34.53,34.53,0,0,1,33.1,82.15,36.72,36.72,0,0,1,18.83,68.49,36.05,36.05,0,0,1,14,55.5,32.94,32.94,0,0,1,13.61,48.69Zm5.76-17h-.29a30,30,0,0,0-3.66,8.61,18.31,18.31,0,0,0-.91,5.4,9.9,9.9,0,0,0-.38,4.08,27.38,27.38,0,0,0,.62,6.13A37,37,0,0,0,26.51,76.71a13.68,13.68,0,0,0,3.78,2.79A27.91,27.91,0,0,0,40,84.42,38.36,38.36,0,0,0,57.63,85.5,36.35,36.35,0,0,0,78.25,74.05a23.57,23.57,0,0,0,4.77-7,27.93,27.93,0,0,0,4-10.59c.4-.56.16-1.22.26-1.83a33.26,33.26,0,0,0-2.43-19.17,37,37,0,0,0-7.27-10.88c-.89-.94-1.57-2.19-3-2.54l-1.09-1a11.22,11.22,0,0,0-3.19-2.28c-.32-.2-.62-.42-1-.6A36.88,36.88,0,0,0,47,13.67a37.76,37.76,0,0,0-13.75,4.27c-.38.2-.92.26-.92.88-2.6.83-4.54,2.65-6.5,4.45a29.19,29.19,0,0,0-6.43,7.93c-.07.12,0,.32,0,.48Z"/><path class="cls-9" d="M83,67.06a23.57,23.57,0,0,1-4.77,7A36.35,36.35,0,0,1,57.63,85.5,38.36,38.36,0,0,1,40,84.42c.06-.43-.23-.68-.46-1a30.34,30.34,0,0,1-4.81-7.87c-.5-1.32-1.06-2.62-1.59-3.93-1-2-1-4.26-1.53-6.38a3.6,3.6,0,0,1,3.07,1.54,1.7,1.7,0,0,0,1.33.82,20,20,0,0,0,4,5,22.42,22.42,0,0,0,7.7,6.56,8.69,8.69,0,0,0,3.7,1.25c-2.82-2.78-5.78-4.86-8.17-7.58L40,69.36c2.54.1,4.07,2.31,6.31,3.12a13.48,13.48,0,0,1,2.52,1.75c.37.25.75.71,1.18.2s.08-1-.3-1.42-1.11-.46-1.11-1.23c.55-.26,1.31,0,1.61-.74.35.2.67.49,1,.66,1.43.71,2.75,1.75,4.47,1.7l.09.12s0-.06,0-.07-.06,0-.09,0c-.32-.62-1-.75-1.44-1.24a3.4,3.4,0,0,1,1.92-.45c.48.08,1.42.31,1.79-.56a32.52,32.52,0,0,0,16.87-.58,8.68,8.68,0,0,0,2.4-.53C79.37,69.51,81.1,68.1,83,67.06Z"/><path class="cls-9" d="M30.29,79.5a13.68,13.68,0,0,1-3.78-2.79A37,37,0,0,1,14.75,55.88a27.38,27.38,0,0,1-.62-6.13,44.8,44.8,0,0,1,6.81-8.69A2.37,2.37,0,0,0,23.6,38.8a1.61,1.61,0,0,1,.21-.44,7.77,7.77,0,0,1,2.56-1.69c.39,1.94.43,2,2.94,2.37-.28.56-1,.85-.93,1.71l.94-.45a6.27,6.27,0,0,1-1.52,3l-.23.23h0a.22.22,0,0,0-.25.25h0c-2.64,1.9-4.12,4.68-5.5,7.53a26.73,26.73,0,0,0-2.4,13.55,5.6,5.6,0,0,0,.42-.83c.72-3,2.1-5.72,3.06-8.61.2-.59.6-1.12.46-1.8.84-1,.87-2.32,1.49-3.39a17.46,17.46,0,0,0,.85,3.09c.43.89.73,1.84,1.07,2.76s-.05,1.94,1,2.39c-.12.79-.26,1.57-.34,2.36a30.61,30.61,0,0,0-.39,6.76,18.82,18.82,0,0,0,1.48,8C29.07,76.94,29.7,78.21,30.29,79.5Z"/><path class="cls-9" d="M32.3,18.82c0-.62.54-.68.92-.88A37.76,37.76,0,0,1,47,13.67a36.88,36.88,0,0,1,22.44,4.52c.33.18.63.4,1,.6a3.46,3.46,0,0,0,1.09,2c1.2,2.28,2.46,4.59,2.76,7.18.24,2.15.1,4.34.13,6.51A1.22,1.22,0,0,1,73.25,34a22.88,22.88,0,0,1-2.79-3.48,5.16,5.16,0,0,0-2.92-2.43,3.93,3.93,0,0,1-2.63-2.16,25.76,25.76,0,0,0-1.58-2.42c-.76-1-1.43-2.18-2.94-2.17-.3,0-.59,0-.8.21s-.05.57.09.81c.23.4.5.77.75,1.16.14.21.29.44.08.67s-.47.11-.68,0A2.3,2.3,0,0,0,58,23.63a28,28,0,0,0-7.26-3.87,13.87,13.87,0,0,0-7.37-1.25l5.54,3.11.15.23-1.59,1C42.68,20.45,37.78,18.53,32.3,18.82Z"/><path class="cls-9" d="M74.64,22.05c1.4.35,2.08,1.6,3,2.54a37,37,0,0,1,7.27,10.88,33.26,33.26,0,0,1,2.43,19.17c-.1.61.14,1.27-.26,1.83a7.52,7.52,0,0,0-1,.58,45.92,45.92,0,0,1-7.54,5.23,57.71,57.71,0,0,1-12.43,4.3,1.58,1.58,0,0,1,1.09-1.27,5.53,5.53,0,0,0,2.46-2.37l1.66-2.34c1.1-1.5,2.19-3.07,2-5.12a18.54,18.54,0,0,0,5.34-6.07c2.89-4.14,3.67-8.79,3.37-13.72-1.13,1.4-1.3,3.27-2.48,4.61a25.64,25.64,0,0,0-.18-6.89A28.35,28.35,0,0,0,74.64,22.05Z"/><path class="cls-7" d="M32.3,18.82c5.48-.29,10.38,1.63,15.16,4l6.81,4.5.2-.25a20.8,20.8,0,0,0-3-3.05c-.21-.16-.67-.21-.44-.68a29.07,29.07,0,0,1,10,9.07l.1.24c-.09.08-.18.22-.28.23-.7.08-1.16.39-1.19,1.18s.4,2.29.92,2.3c1.24,0,1.09.94,1.33,1.52a16.71,16.71,0,0,1,1,4.16c.48,3.35-1.76,8.7-5.11,10.21a20.54,20.54,0,0,1-4.45,1.24c.46.56,1.1.29,1.58.6a8.63,8.63,0,0,1-7.42-2.77,3.76,3.76,0,0,1,0-5.5h0a3.19,3.19,0,0,1,0,.62,4.15,4.15,0,0,0,2.93,5.16,6.58,6.58,0,0,0,3.77.17,5.17,5.17,0,0,0,3.69-2.72,15.15,15.15,0,0,0,1.54-8.15c.53-2.39.57-4.78-.77-6.88a18.17,18.17,0,0,0-6-6.19,21.1,21.1,0,0,0-11.35-3.28,35,35,0,0,0-9.69.61,1.82,1.82,0,0,0-1.38-1.56c-1.57-.64-2.39.56-3.39,1.35-.3-.59-.19-1.44-1-1.7C27.76,21.47,29.7,19.65,32.3,18.82Z"/><path class="cls-7" d="M74.64,22.05a28.35,28.35,0,0,1,4.75,11.36,25.64,25.64,0,0,1,.18,6.89,25.47,25.47,0,0,1-2,6.48A42.8,42.8,0,0,1,74,52.22c-2,2.46-4.21,4.71-7.4,5.58,1.49-1.66,3.37-2.89,4.79-4.64a11.54,11.54,0,0,0,2.52-4.4,53.34,53.34,0,0,1-5.54,5c-.82-.54-.65-1.43-.77-2.22a18.8,18.8,0,0,0,5.56-9.16,24.88,24.88,0,0,0,1.18-7.89c0-2.17.11-4.36-.13-6.51-.3-2.59-1.56-4.9-2.76-7.18l2.1.28Z"/><path class="cls-9" d="M31.6,25.18a35,35,0,0,1,9.69-.61c-.11.67-.63.5-1.06.56a6.7,6.7,0,0,0-4.47,2c-.45-.22-.91-.42-1.35-.64a1.32,1.32,0,0,0-1.86.34c-1.07,1.38-2.15,2.74-3.23,4.11-1,.76-1.35,2-2.19,2.9a17,17,0,0,0-2.6,1.69c0-1.26-.41-1.8-1.76-2-1.08-.17-1.16.73-1.37,1.42-.44,1.44-.85,2.89-1.28,4.34-1.95,2.07-3.87,4.18-5.61,6.44a18.31,18.31,0,0,1,.91-5.4,30,30,0,0,1,3.66-8.61c.09.15.18.27.29,0h0c.49-.37,1-.76,1.47-1.09,1.21-.78,2.07-2.07,3.54-2.44-.29.65-.59,1.29-.85,2a1.86,1.86,0,0,0,.42,2.4,2,2,0,0,0,2.51-.23c1.9-1.49,3.05-3.62,4.49-5.48A3.33,3.33,0,0,0,31.6,25.18Z"/><path class="cls-11" d="M30.29,79.5c-.59-1.29-1.22-2.56-1.75-3.88a18.84,18.84,0,0,1-1.48-8c1,0,1.62.71,2.37,1.21,1.28.87,2.26,2.16,3.72,2.8.53,1.31,1.09,2.61,1.59,3.93a30.34,30.34,0,0,0,4.81,7.87c.23.3.52.55.46,1A27.91,27.91,0,0,1,30.29,79.5Z"/><path class="cls-11" d="M78.56,62.28a45.92,45.92,0,0,0,7.54-5.23,7.52,7.52,0,0,1,1-.58,27.93,27.93,0,0,1-4,10.59c-1.92,1-3.65,2.45-5.81,3a8.68,8.68,0,0,1-2.4.53c.16-1.13,1.11-1.79,1.6-2.73C77.33,66.08,78.63,64.45,78.56,62.28Z"/><path class="cls-11" d="M14.51,45.67c1.74-2.26,3.66-4.37,5.61-6.44-.11.79,0,1.49.82,1.83a44.8,44.8,0,0,0-6.81,8.69A9.9,9.9,0,0,1,14.51,45.67Z"/><path class="cls-11" d="M24.37,28.15c-1.47.37-2.33,1.66-3.54,2.44-.51.33-1,.72-1.47,1.09,0-.16-.06-.36,0-.48a29.19,29.19,0,0,1,6.43-7.93c.84.26.73,1.11,1,1.7A26,26,0,0,0,24.37,28.15Z"/><path class="cls-11" d="M73.55,21.07l-2.1-.28a3.46,3.46,0,0,1-1.09-2A11.22,11.22,0,0,1,73.55,21.07Z"/><path class="cls-11" d="M19.37,31.67c-.11.26-.2.14-.29,0Z"/><path class="cls-7" d="M78.56,62.28c.07,2.17-1.23,3.8-2.15,5.58-.49.94-1.44,1.6-1.6,2.73a32.52,32.52,0,0,1-16.87.58L47.23,66.05a22.88,22.88,0,0,0,7,6.13c.41.49,1.12.62,1.44,1.24l0,0c-1.72,0-3-1-4.47-1.7-.34-.17-.66-.46-1-.66s-.47-.47-.73-.67a30.05,30.05,0,0,1-6.77-7.23c.77-.32.14-1.22.67-1.63a20,20,0,0,0,6.16,4.25c5.45,2.39,11,2.3,16.59.82A57.71,57.71,0,0,0,78.56,62.28Z"/><path class="cls-11" d="M42.71,63.14a30.05,30.05,0,0,0,6.77,7.23c.26.2.49.45.73.67-.3.74-1.06.48-1.61.74,0,.77.75.82,1.11,1.23s.75.87.3,1.42-.81,0-1.18-.2a13.48,13.48,0,0,0-2.52-1.75c-2.24-.81-3.77-3-6.31-3.12A22.6,22.6,0,0,1,36.24,64c-.36-.72-1.11-1.26-1-2.21l.06,0,.77,1c-.15-2.44-.59-4.62-.56-6.84a5.32,5.32,0,0,0,.26-1.72c.31-1.88,0-3.86.79-5.66.68.19,1,1,1.63,1.18a12.51,12.51,0,0,0-.06,3.12C38.59,56.78,40.57,60,42.71,63.14Z"/><path class="cls-7" d="M33.15,71.64c-1.46-.64-2.44-1.93-3.72-2.8-.75-.5-1.38-1.21-2.37-1.21a30.55,30.55,0,0,1,.39-6.75c.08-.79.22-1.57.34-2.36.49-2.11.81-4.25,1.51-6.32,1.33-3.94,3.31-7.33,7-9.49a3.92,3.92,0,0,1,2.27-.9v.51l0,0a1.46,1.46,0,0,0-1.17.62c-1,1.11-2.06,2.18-3,3.33a14.66,14.66,0,0,0-3.18,7.15,30.8,30.8,0,0,0,.47,11.86C32.12,67.38,32.18,69.62,33.15,71.64Z"/><path class="cls-11" d="M31.62,65.26a30.8,30.8,0,0,1-.47-11.86,14.66,14.66,0,0,1,3.18-7.15c1-1.15,2-2.22,3-3.33a1.46,1.46,0,0,1,1.17-.62,19.18,19.18,0,0,0-4.25,13.61c-.15,2,.69,3.9,1,5.84l-.06,0c-1.36-1.78-1.27-4-1.9-6.07a3.11,3.11,0,0,0-.1.9,22.81,22.81,0,0,0,2.75,11,1.7,1.7,0,0,1-1.33-.82A3.6,3.6,0,0,0,31.62,65.26Z"/><path class="cls-7" d="M36,67.62a22.81,22.81,0,0,1-2.75-11,3.11,3.11,0,0,1,.1-.9c.63,2,.54,4.29,1.9,6.07-.14,1,.61,1.49,1,2.21A22.6,22.6,0,0,0,40,69.36l3.21,3.53a3.06,3.06,0,0,1-2.08-.47c-.47-.28-.9-.47-1.15.24A20,20,0,0,1,36,67.62Z"/><path class="cls-11" d="M40,72.66c.25-.71.68-.52,1.15-.24a3.06,3.06,0,0,0,2.08.47c2.39,2.72,5.35,4.8,8.17,7.58a8.69,8.69,0,0,1-3.7-1.25A22.42,22.42,0,0,1,40,72.66Z"/><path class="cls-11" d="M54.23,72.18a22.88,22.88,0,0,1-7-6.13l10.71,5.12c-.37.87-1.31.64-1.79.56A3.4,3.4,0,0,0,54.23,72.18Z"/><path class="cls-7" d="M55.67,73.42s.07,0,.09,0,0,0,0,.07l-.09-.12Z"/><path class="cls-11" d="M38.52,41.81a3.92,3.92,0,0,0-2.27.9c-3.64,2.16-5.62,5.55-6.95,9.49-.7,2.07-1,4.21-1.51,6.32-1.07-.45-.73-1.6-1-2.39s-.64-1.87-1.07-2.76a17.46,17.46,0,0,1-.85-3.09,8.57,8.57,0,0,1,.49-1.66c.42-1.71,1.55-3.1,2-4.79h0c.18,0,.25-.09.25-.25h0l.23-.23a6.27,6.27,0,0,0,1.52-3l2.06-1.53.38-.49a.23.23,0,0,0,.3-.19l.07-.05c.21,0,.37,0,.42-.27h0a31,31,0,0,1,5.7-2.4L40,35.05a12.67,12.67,0,0,1,7.53.49l-.06,1.35L46,37c-.73.9-1.89,1.52-1.81,2.92A24.65,24.65,0,0,0,39,41.83l0,0c-.16-.27-.33-.33-.49,0Z"/><path class="cls-4" d="M29.31,39c-2.51-.4-2.55-.43-2.94-2.37l.26-.43a49.72,49.72,0,0,1,5.43-2.91,9.69,9.69,0,0,1,4.25-1.1c-.08.66-.91,1-.79,1.73h0a.33.33,0,0,0-.45.22l-.81,1A8,8,0,0,0,29.83,39Z"/><path class="cls-4" d="M20.94,41.06c-.85-.34-.93-1-.82-1.83.43-1.45.84-2.9,1.28-4.34.21-.69.29-1.59,1.37-1.42,1.35.22,1.81.76,1.76,2a6.23,6.23,0,0,0-.72,2.87,1.61,1.61,0,0,0-.21.44A2.37,2.37,0,0,1,20.94,41.06Z"/><path class="cls-10" d="M23.36,53.67c.14.68-.26,1.21-.46,1.8-1,2.89-2.34,5.63-3.06,8.61a5.6,5.6,0,0,1-.42.83,26.73,26.73,0,0,1,2.4-13.55,1.61,1.61,0,0,1,.79,1.42C22.63,53.3,22.8,53.65,23.36,53.67Z"/><path class="cls-5" d="M23.36,53.67c-.56,0-.73-.37-.75-.89a1.61,1.61,0,0,0-.79-1.42c1.38-2.85,2.86-5.63,5.5-7.53-.43,1.69-1.56,3.08-2,4.79a8.57,8.57,0,0,0-.49,1.66C24.23,51.35,24.2,52.7,23.36,53.67Z"/><path class="cls-7" d="M23.81,38.36a6.23,6.23,0,0,1,.72-2.87,17,17,0,0,1,2.6-1.69c0,.84-.54,1.58-.49,2.44l-.27.43A7.77,7.77,0,0,0,23.81,38.36Z"/><path class="cls-5" d="M29.31,39l.52-.07,1.55-.2L29.32,40.3l-.94.45C28.3,39.89,29,39.6,29.31,39Z"/><path class="cls-5" d="M27.8,43.34l-.23.23Z"/><path class="cls-5" d="M27.58,43.57c0,.16-.07.26-.25.25A.22.22,0,0,1,27.58,43.57Z"/><path class="cls-11" d="M74.34,34.48a24.88,24.88,0,0,1-1.18,7.89,18.8,18.8,0,0,1-5.56,9.16l-1.43.69s-.09-.11-.14-.17c-.27-.51.92-.78.22-1.36-.57-.42-.54-1.06-.65-1.67-.16-.86-.06-1.92-1.23-2.21l.08-.92c2.47-4.62,1.18-9.18-.22-13.74a2.9,2.9,0,0,0-.46-1.28A24.48,24.48,0,0,0,58,23.63a2.3,2.3,0,0,1,1.84.55c.21.13.47.25.68,0s.06-.46-.08-.67c-.25-.39-.52-.76-.75-1.16-.14-.24-.34-.52-.09-.81s.5-.21.8-.21c1.51,0,2.18,1.17,2.94,2.17a25.76,25.76,0,0,1,1.58,2.42,3.93,3.93,0,0,0,2.63,2.16,5.16,5.16,0,0,1,2.92,2.43A22.88,22.88,0,0,0,73.25,34,1.22,1.22,0,0,0,74.34,34.48ZM68.08,47.35c2.65-1.79,4.75-7.5,3.47-9.52C70.39,41,69.26,44.13,68.08,47.35Z"/><path class="cls-5" d="M58,23.63a24.48,24.48,0,0,1,5.78,7.24,2.9,2.9,0,0,1,.46,1.28,8.25,8.25,0,0,1-3.2.29,29.07,29.07,0,0,0-10-9.07,5.46,5.46,0,0,0-2-1.52l-.15-.23c.36-.88,1.57-.89,1.83-1.86A28,28,0,0,1,58,23.63Z"/><path class="cls-10" d="M50.73,19.76c-.26,1-1.47,1-1.83,1.86l-5.54-3.11A13.87,13.87,0,0,1,50.73,19.76Z"/><path class="cls-11" d="M49.05,21.85a5.46,5.46,0,0,1,2,1.52c-.23.47.23.52.44.68a20.8,20.8,0,0,1,3,3.05l-.2.25-6.81-4.5Z"/><path class="cls-11" d="M66.13,66.58c-5.61,1.48-11.14,1.57-16.59-.82a20,20,0,0,1-6.16-4.25,28.93,28.93,0,0,1-2.7-4.46c.66-.14.52-.54.4-1a7.62,7.62,0,0,1-.34-3.31c.12-.55-.34-1.56.38-1.56.54,0,.86,1.14.82,1.78-.1,1.73,1,2.82,2,3.89.62.7,1.49,1.52,2.67.87l1.88,1.37C51.17,63,55,64.57,59.6,64.5c2.63-.12,5.24-.34,7.54-2h-6c-2.27-.27-4.61-.16-6.73-1.26.08-.31.24-.58.59-.44.8.32,1.49-.12,2.22-.29,3.32,1.15,6.29,0,9.2-1.48l.23-.23.06,0A2.7,2.7,0,0,0,68,58.33l5.39-2.85c.19,2.05-.9,3.62-2,5.12l-1.66,2.34a5.53,5.53,0,0,1-2.46,2.37A1.58,1.58,0,0,0,66.13,66.58Z"/><path class="cls-10" d="M77.52,46.78a25.47,25.47,0,0,0,2-6.48c1.18-1.34,1.35-3.21,2.48-4.61.3,4.93-.48,9.58-3.37,13.72a1.36,1.36,0,0,1-.84-1.25C77.75,47.7,78,47.16,77.52,46.78Z"/><path class="cls-5" d="M77.52,46.78c.45.38.23.92.32,1.38a1.36,1.36,0,0,0,.84,1.25,18.54,18.54,0,0,1-5.34,6.07L68,58.33a2.7,2.7,0,0,1-1.26.48c0-.32,0-.64-.08-1V57.8c3.19-.87,5.37-3.12,7.4-5.58A42.8,42.8,0,0,0,77.52,46.78Z"/><path class="cls-1" d="M40.68,57.05a28.93,28.93,0,0,0,2.7,4.46c-.53.41.1,1.31-.67,1.63-2.14-3.15-4.12-6.36-4.55-10.29a12.51,12.51,0,0,1,.06-3.12,16.65,16.65,0,0,1,2.61-6c.39-.56,1.11-.88,1.18-1.66h0c.28.08.45-.09.63-.26a4.26,4.26,0,0,1,1.2-.82c1-.68,2.33-.61,3.37-1.26a7.77,7.77,0,0,1,6,2.26c-.17.39-.6.42-.88.66-.75.63-1.48,1.18-.49,2.32a1.48,1.48,0,0,1-.35,2.39c-.61.4-.78.9,0,1.13a2.67,2.67,0,0,0,2.59-.23,3.36,3.36,0,0,0,1.77-3.06,6.67,6.67,0,0,0-1.94-4.57c.09-.14.15-.36.27-.4,1.33-.44,1-1.19.48-2.1-1.22-1.92-3.12-2.89-5-3.91-1-.55-2.34-.44-3.24-1.31a2.12,2.12,0,0,1,2.23-1c.44.08.67-.16.84-.53a18.63,18.63,0,0,1,4.68,2.54,15.55,15.55,0,0,1,5.2,7,15.15,15.15,0,0,1-1.54,8.15,5.17,5.17,0,0,1-3.69,2.72,6.58,6.58,0,0,1-3.77-.17,4.15,4.15,0,0,1-2.93-5.16,3.19,3.19,0,0,0,0-.62l.08-.07-.07.08a3.76,3.76,0,0,0,0,5.5,8.63,8.63,0,0,0,7.42,2.77c-.48-.31-1.12,0-1.58-.6a20.54,20.54,0,0,0,4.45-1.24c3.35-1.51,5.59-6.86,5.11-10.21a16.71,16.71,0,0,0-1-4.16c-.24-.58-.09-1.5-1.33-1.52-.52,0-.94-1.37-.92-2.3s.49-1.1,1.19-1.18c.1,0,.19-.15.28-.23a14.62,14.62,0,0,1,2.75,5.84c.65,2.42.42,4.91.57,7.37,0,.31-.06.62-.08.92-.1.08-.25.15-.28.25a13.4,13.4,0,0,1-3.31,5.88.47.47,0,0,0-.11.57c.21.3.51.17.79.09a10.14,10.14,0,0,0,4.79-2.91c.7.58-.49.85-.22,1.36l-.31.26c.19.2.32.07.45-.09l1.43-.69c.12.79,0,1.68.77,2.22l-1.16,1c-.78.13-1.59-.51-2.37.13a12.62,12.62,0,0,1-3.17,1.66c-4.27,1.82-8.44,1.91-12.62-.4a39.71,39.71,0,0,1-3.81-2.71c0-.11-.07-.22-.11-.33s-.09.07-.08.08a2.11,2.11,0,0,0,.18.27c-.09.61.33,1,.62,1.45a23.29,23.29,0,0,0,3.92,4.6c-.45-.11-.81-.51-1.33-.44l-1.88-1.37c-2.16-2.4-3.84-5-3.31-8.46.47-3,1.23-5.81,4.63-6.74a4.42,4.42,0,0,0,.66-.39c-.51,0-.7,0-.89,0a5.84,5.84,0,0,0-.73.11c-4.42.85-6.4,3.92-7.19,8.1C39.29,52.67,39.22,55,40.68,57.05Z"/><path class="cls-11" d="M59.37,40.92a15.55,15.55,0,0,0-5.2-7,18.63,18.63,0,0,0-4.68-2.54,37.94,37.94,0,0,0-10.77-2.65,2.85,2.85,0,0,0-1.47.2l-.18-.05c-.12-.83-.82-1.22-1.31-1.75a6.7,6.7,0,0,1,4.47-2c.43-.06,1,.11,1.06-.56a21.1,21.1,0,0,1,11.35,3.28,18.17,18.17,0,0,1,6,6.19C59.94,36.14,59.9,38.53,59.37,40.92ZM40.73,27.05c3.91,1.62,8,2.76,11.77,4.63A12.48,12.48,0,0,0,40.73,27.05Z"/><path class="cls-4" d="M24.37,28.15A26,26,0,0,1,26.83,25c1-.79,1.82-2,3.39-1.35a1.82,1.82,0,0,1,1.38,1.56,3.33,3.33,0,0,1-.66,1.61c-1.44,1.86-2.59,4-4.49,5.48a2,2,0,0,1-2.51.23,1.86,1.86,0,0,1-.42-2.4C23.78,29.44,24.08,28.8,24.37,28.15Z"/><path class="cls-4" d="M64.45,45.89c-.15-2.46.08-5-.57-7.37a14.62,14.62,0,0,0-2.75-5.84l-.1-.24a8.25,8.25,0,0,0,3.2-.29C65.63,36.71,66.92,41.27,64.45,45.89Z"/><path class="cls-1" d="M37.07,28.84l.18.05A7.1,7.1,0,0,1,37,31.68l-.68.55a9.69,9.69,0,0,0-4.25,1.1,49.72,49.72,0,0,0-5.43,2.91c0-.86.46-1.6.5-2.44.84-.88,1.2-2.14,2.19-2.9a1.76,1.76,0,0,0,1.29-.29A16.11,16.11,0,0,1,37.07,28.84Z"/><path class="cls-4" d="M37.07,28.84a16.11,16.11,0,0,0-6.46,1.77,1.76,1.76,0,0,1-1.29.29c1.08-1.37,2.16-2.73,3.23-4.11a1.32,1.32,0,0,1,1.86-.34c.44.22.9.42,1.35.64C36.25,27.62,37,28,37.07,28.84Z"/><path class="cls-4" d="M47.2,39.72c-1,.65-2.34.58-3.37,1.26a4.26,4.26,0,0,0-1.2.82c-.24,0-.49,0-.63.26h0a11,11,0,0,0-5.42,6.49c-.82,1.8-.48,3.78-.79,5.66a5.32,5.32,0,0,1-.26,1.72l-1.26,0A19.18,19.18,0,0,1,38.53,42.3l0,0a.86.86,0,0,0,.53-.49,24.65,24.65,0,0,1,5.19-1.9A11.83,11.83,0,0,1,47.2,39.72Z"/><path class="cls-7" d="M36.59,48.55A11,11,0,0,1,42,42.06c-.07.78-.79,1.1-1.18,1.66a16.65,16.65,0,0,0-2.61,6C37.56,49.5,37.27,48.74,36.59,48.55Z"/><path class="cls-5" d="M34.28,55.91l1.26,0c0,2.22.41,4.4.56,6.84l-.77-1C35,59.81,34.13,58,34.28,55.91Z"/><path class="cls-11" d="M39,41.83a.86.86,0,0,1-.53.49v-.51H39Z"/><path class="cls-4" d="M46.41,32.9c.91.87,2.2.76,3.25,1.31,1.9,1,3.8,2,5,3.91.57.91.85,1.66-.48,2.1-.12,0-.18.26-.27.4A7.59,7.59,0,0,0,50.55,38c-1.46-.65-3-.55-4.51-1l1.42-.12a21.34,21.34,0,0,1,3.74.36l.16.15,0-.1-.21,0a6.72,6.72,0,0,0-3.68-1.71A12.67,12.67,0,0,0,40,35.05l-1.71.31c-.64-.9.45-1.5.39-2.29a24.08,24.08,0,0,1,6.72-.52A1.9,1.9,0,0,0,46.41,32.9Z"/><path class="cls-7" d="M46,37c1.47.47,3.05.37,4.51,1a7.59,7.59,0,0,1,3.38,2.59,6.67,6.67,0,0,1,1.94,4.57,3.36,3.36,0,0,1-1.77,3.06c1.34-2.89,1.1-4.57-.9-6.27a7.77,7.77,0,0,0-6-2.26,11.83,11.83,0,0,0-3,.21C44.15,38.53,45.31,37.91,46,37Z"/><path class="cls-5" d="M38.67,33.07c.06.79-1,1.39-.39,2.29a31.75,31.75,0,0,0-5.7,2.41c.25-1.07,1.37-1.54,1.7-2.55l.81-1a.45.45,0,0,0,.45-.22h0A17.37,17.37,0,0,1,38.67,33.07Z"/><path class="cls-1" d="M34.28,35.22c-.33,1-1.45,1.48-1.7,2.55h0a.33.33,0,0,0-.42.27l-.07.05-.3.19-.38.49-1.55.2A8,8,0,0,1,34.28,35.22Z"/><path class="cls-7" d="M51.2,37.25a21.34,21.34,0,0,0-3.74-.36l.06-1.35a6.72,6.72,0,0,1,3.68,1.71Z"/><path class="cls-7" d="M39,41.8h-.49C38.69,41.47,38.86,41.53,39,41.8Z"/><path class="cls-5" d="M32.13,38a.33.33,0,0,1,.42-.27C32.5,38,32.34,38.06,32.13,38Z"/><path class="cls-5" d="M31.76,38.28l.3-.19A.23.23,0,0,1,31.76,38.28Z"/><path class="cls-11" d="M38.67,33.07a17.37,17.37,0,0,0-3.15.89c-.12-.76.71-1.07.79-1.73l.68-.55.84-.12c2.6-.25,5.16-.3,7.56,1A24.08,24.08,0,0,0,38.67,33.07Z"/><path class="cls-11" d="M35.54,34a.45.45,0,0,1-.45.22A.33.33,0,0,1,35.54,34Z"/><path class="cls-7" d="M66.25,50.69a10.14,10.14,0,0,1-4.79,2.91c-.28.08-.58.21-.79-.09a.47.47,0,0,1,.11-.57,13.4,13.4,0,0,0,3.31-5.88c0-.1.18-.17.28-.25,1.17.29,1.07,1.35,1.23,2.21C65.71,49.63,65.68,50.27,66.25,50.69Z"/><path class="cls-5" d="M68.08,47.35c1.18-3.22,2.31-6.34,3.47-9.52C72.83,39.85,70.73,45.56,68.08,47.35Z"/><path class="cls-7" d="M64.21,56.69c.22.61-.19,1.46.7,1.8a14.17,14.17,0,0,1-7.71,2c-.73.17-1.42.61-2.22.29-.35-.14-.51.13-.59.44-1.65-.3-3-1.51-4.62-1.78a23.29,23.29,0,0,1-3.92-4.6c-.29-.44-.71-.84-.62-1.45v0a39.71,39.71,0,0,0,3.81,2.71c4.18,2.31,8.35,2.22,12.62.4a12.62,12.62,0,0,0,3.17-1.66c.78-.64,1.59,0,2.37-.13a3.68,3.68,0,0,1-1.55,1.06c0-.55-.31-.68-.7-.29s-1.15.36-1.1,1.15A1.91,1.91,0,0,0,64.21,56.69ZM62.89,57l-.34.11.07.09.27-.19A.35.35,0,0,0,63,57s0-.06,0-.08Z"/><path class="cls-7" d="M40.68,57.05c-1.46-2.08-1.39-4.38-1-6.75.79-4.18,2.77-7.25,7.19-8.1a5.84,5.84,0,0,1,.73-.11c.19,0,.38,0,.89,0a4.42,4.42,0,0,1-.66.39c-3.4.93-4.16,3.74-4.63,6.74-.53,3.47,1.15,6.06,3.31,8.46-1.18.65-2.05-.17-2.67-.87-1-1.07-2-2.16-2-3.89,0-.64-.28-1.78-.82-1.78-.72,0-.26,1-.38,1.56A7.62,7.62,0,0,0,41.08,56C41.2,56.51,41.34,56.91,40.68,57.05Z"/><path class="cls-4" d="M49.77,59.49c1.66.27,3,1.48,4.62,1.78,2.12,1.1,4.46,1,6.73,1.26,0,1-1.23,1.14-1.52,2C55,64.57,51.17,63,48.44,59.05,49,59,49.32,59.38,49.77,59.49Z"/><path class="cls-5" d="M59.6,64.5c.29-.83,1.48-1,1.52-2h6C64.84,64.16,62.23,64.38,59.6,64.5Z"/><path class="cls-4" d="M57.2,60.54a14.17,14.17,0,0,0,7.71-2l.21-.05a3.28,3.28,0,0,1,.31-.2l1.18-.38c0,.31.06.63.08,1l-.06,0c-.08.07-.15.15-.23.23C63.49,60.56,60.52,61.69,57.2,60.54Z"/><path class="cls-5" d="M66.4,59.06c.08-.08.15-.16.23-.23Z"/><path class="cls-7" d="M45.39,32.55c-2.4-1.29-5-1.24-7.56-1l-.84.12a7.1,7.1,0,0,0,.26-2.79,2.85,2.85,0,0,1,1.47-.2,37.94,37.94,0,0,1,10.77,2.65c-.17.37-.4.61-.84.53a2.12,2.12,0,0,0-2.23,1A1.9,1.9,0,0,1,45.39,32.55Z"/><path class="cls-12" d="M53.2,42c2,1.7,2.24,3.38.9,6.27a2.67,2.67,0,0,1-2.59.23c-.81-.23-.64-.73,0-1.13A1.48,1.48,0,0,0,51.83,45c-1-1.14-.26-1.69.49-2.32C52.6,42.4,53,42.37,53.2,42Z"/><path class="cls-11" d="M66.17,52.22c-.13.16-.26.29-.45.09l.31-.26C66.08,52.11,66.12,52.17,66.17,52.22Z"/><path class="cls-7" d="M45.23,53.44a2.11,2.11,0,0,1-.18-.27s.05-.05.08-.08.08.22.11.33Z"/><path class="cls-7" d="M42,42.06c.14-.25.39-.24.63-.26C42.45,42,42.28,42.14,42,42.06Z"/><path class="cls-7" d="M47.47,45.85l.07-.08-.08.07Z"/><path class="cls-5" d="M40.73,27.05A12.48,12.48,0,0,1,52.5,31.68C48.7,29.81,44.64,28.67,40.73,27.05Z"/><path class="cls-1" d="M64.21,56.69a1.91,1.91,0,0,1-.35,0c0-.79.72-.78,1.1-1.15s.65-.26.7.29Z"/><path class="cls-7" d="M65.43,58.24a3.28,3.28,0,0,0-.31.2A3.28,3.28,0,0,1,65.43,58.24Z"/><path class="cls-7" d="M51.2,37.25l.21,0,0,.1-.16-.15Z"/><path class="cls-1" d="M62.89,57l-.27.19-.07-.09.34-.11Z"/><path class="cls-1" d="M62.89,57l.14-.1s0,.07,0,.08a.35.35,0,0,1-.11,0Z"/></g></g></svg>