<svg xmlns="http://www.w3.org/2000/svg" viewBox="0 0 102.05 102.05"><defs><style>.cls-1{fill:#d4d9d8;}.cls-2{fill:#191d1f;}.cls-3{fill:#292b2f;}.cls-4{fill:#82878d;}.cls-5{fill:#55585f;}.cls-6{fill:#484e53;}.cls-7{fill:#393e41;}.cls-8{fill:#30cfde;}.cls-9{fill:#8227ad;}.cls-10{fill:#47155e;}.cls-11{fill:#b42dd7;}.cls-12{fill:#b5bcbf;}.cls-13{fill:#f1f1f1;}.cls-14{fill:#fcfcfc;}</style></defs><g id="Capa_2" data-name="Capa 2"><g id="Capa_1-2" data-name="Capa 1"><path class="cls-1" d="M100,65.07a5.59,5.59,0,0,0,.22-.57,50.65,50.65,0,0,0-.83-29.68,50,50,0,0,0-22-27.58A49.63,49.63,0,0,0,47.2.16a48.68,48.68,0,0,0-12,2.36l-2.52.84c-.07,0-.13,0-.16.05l-1.26.51C20.59,8.3,12.68,15.87,6.76,25.55a43,43,0,0,0-4.23,9.86C-.94,46.63-1,57.87,3.35,68.74c7.39,18.45,21,29.56,40.75,32.71a47.83,47.83,0,0,0,25.68-3A51.53,51.53,0,0,0,92,81.31,45.73,45.73,0,0,0,100,65.07Z"/><path class="cls-2" d="M32.66,3.36l2.52-.84c-.08.31.32.62,0,.92a15.43,15.43,0,0,0-4.8,1.73A49.51,49.51,0,0,0,6.71,27.56c-.41.75-.74,1.44.4,1.84,1.55,1.09,1.76,2.49,1.1,4.19A1.82,1.82,0,0,0,9.09,36a2.4,2.4,0,0,1,1.2,2.38c-.11,2.17-.18,4.34-.18,6.52,0,5.91,0,11.82.14,17.73.13,4.44.27,3.7-3.21,6-.06,0-.11.12-.17.18a10.57,10.57,0,0,1-1.22.79c-.91.45-.86,1-.44,1.82.74,1.36,1.45,2.74,2.18,4.11.15.28.25.67.65.65,1.17,0,2.37.26,3.51-.22,1.94,0,3.62.29,4.93,2.07A40,40,0,0,0,23.9,85.1c3,2.39,6.4,4,9.56,6.13a22.57,22.57,0,0,1,1.46,5c.16.64.46.73.75.22.74-1.32,1.9-2.35,2.52-3.75A15.47,15.47,0,0,0,40.36,90a3.22,3.22,0,0,1,3-1.48c2.28.09,4.57,0,6.86,0l1.72,0c2.29,0,4.57.09,6.85,0A2.94,2.94,0,0,1,61.72,90c.61,1,1.37,1.82,2.06,2.72L67,97.17l1.54-5.91c2.08-1.22,4.19-2.38,6.22-3.67a49.89,49.89,0,0,0,11.6-10.14,2.59,2.59,0,0,1,2.11-1.29,9.92,9.92,0,0,0,2.18-.26c.89.08,1.78.16,2.66.26a1.35,1.35,0,0,0,1.65-.86c.44-1,1-2,1.5-3.06,1-1.94,1-1.94-.78-3.28-.19-.15-.39-.28-.59-.43-.51-.33-1-.7-1.55-1a3.09,3.09,0,0,1-1.59-3.17c0-1.8.14-3.6.17-5.4q.14-10.27-.22-20.54a2.39,2.39,0,0,1,1-2.25c1.38-.83,1.2-1.9.91-3.16-.2-.84-.56-1.77.27-2.52l.31.29a3.37,3.37,0,0,0,.27,2.48,2.39,2.39,0,0,1-.84,2.92,2.36,2.36,0,0,0-1.2,1.89q.06,13.41,0,26.84a2,2,0,0,0,1,1.86l2,1.23c.38.62,1.08.81,1.61,1.24.28.24.47.17.67-.14,1.08-1.63.82-3.05-.82-4.29-.88-.73-2.21-1.12-2.21-2.56,0-7.25,0-14.49,0-21.74,0-.48,0-.94.71-.87a12,12,0,0,0-.15,1.46q0,10.16.1,20.3c0,1.49,2.15,3.51,3.76,3.64H100a45.73,45.73,0,0,1-8,16.24A51.53,51.53,0,0,1,69.78,98.45a47.83,47.83,0,0,1-25.68,3C24.36,98.3,10.74,87.19,3.35,68.74-1,57.87-.94,46.63,2.53,35.41a43,43,0,0,1,4.23-9.86C12.68,15.87,20.59,8.3,31.24,3.92l1.26-.51C32.58,3.49,32.63,3.48,32.66,3.36ZM6.82,30.3c-.89-1.06-1-1.07-1.47.14-.69,1.71-1.32,3.44-2,5.15-.22.59-.25,1.06.55,1.15.1.13.18.31.31.37,2.66,1.15,3.59,3.22,3.15,6,0,6,0,12.09,0,18.12,0,1.43-.23,2.47-1.63,3a1.7,1.7,0,0,0-.9.81c-1.56.57-1.66.78-1.15,2.32.79,2.39,1,2.44,2.89.67,2.21-.85,3.12-2.29,3-4.81-.17-4.71-.13-9.42-.3-14.13-.06-1.6.41-3.17.18-4.78,0-2,0-4,.05-6a1.7,1.7,0,0,0-.86-1.73,2.69,2.69,0,0,1-1.25-3.53c.09-.27.08-.57.19-.83C8.1,31.28,7.67,30.7,6.82,30.3ZM2.24,42.6c-.09-.13-.19-.39-.25-.37-.5.09-.38.57-.44.87A38.87,38.87,0,0,0,1,52.67c-.22,2.44.44,4.79.7,7.18,0,.34.16.6.53.32.63-.49,1.42-.84,1.42-1.85,0-4.68,0-9.36,0-14A1.46,1.46,0,0,0,2.24,42.6ZM41.85,92.69c1.3-1.7,3.1-1.83,5.06-1.75,2.82.11,5.66.1,8.48,0,1.83-.06,3.53,0,4.48,1.88,0,.07.14.09.21.13a30.24,30.24,0,0,0,3.09,5c1.09,1.7,1.3,1.71,3.14,1,.65-.26.61-.55.29-1q-1.91-2.61-3.82-5.21c-.51-.79-1-1.57-1.54-2.35A2.41,2.41,0,0,0,59,89.2c-4.37.06-8.75.21-13.11,0-2.9-.16-5.12.38-6.41,3.16a.54.54,0,0,1-.05.11,8.58,8.58,0,0,1-.81,1.07c-1.2,1.22-.92,3.2-2.25,4.38a.69.69,0,0,0,.36,1.18c.58.2,1.21.62,1.71-.22.74-1.22,1.56-2.39,2.28-3.63A4.91,4.91,0,0,0,41.85,92.69Zm-8.6.25a2,2,0,0,0-1.1-1.79c-1.1-.62-2.2-1.25-3.29-1.89A46.94,46.94,0,0,1,16.53,79.1c-1.15-1.36-2.28-2.91-4.46-2.42-1.07,0-2.14,0-3.21,0-.27,0-.89,0-.57.44.61.91,1,1.93,2.3,2.38A10.59,10.59,0,0,1,15.07,82a47.75,47.75,0,0,0,12,9.31c1.89,1,2.64,2.24,2.51,4.24a.83.83,0,0,0,.45.91A22.62,22.62,0,0,0,33.61,98c.68.23,1-.13.82-.75C34.06,95.83,34.05,94.28,33.25,92.94ZM89.87,76.67A3.17,3.17,0,0,0,86.67,78a22.45,22.45,0,0,1-1.93,2.21A54.32,54.32,0,0,1,71.35,90.39c-1.08.61-2.32,1.09-2.62,2.53a21.63,21.63,0,0,0-1,5.4c1-.35,1.85-.66,2.7-.93,1.85-.59,2.94-1.65,2.49-3.76a1.31,1.31,0,0,1,.83-1.49A51.55,51.55,0,0,0,87.52,81.6a1.8,1.8,0,0,1,2.29-.5c.36.16.77.42,1.14,0a28.34,28.34,0,0,0,3.21-4.4C92.53,77,91.22,76.46,89.87,76.67ZM58.64,92.42c-.62-1-1.68-.93-2.63-.93-3.58,0-7.17.16-10.75,0a1.86,1.86,0,0,0-1.95,1l-3.75,5.9c-.76,1.21-.75,1.23.7,1.59.55.13,1.11.27,1.67.38.78.15,1.32,0,1.54-.92a14.48,14.48,0,0,1,.86-2,2.29,2.29,0,0,1,2-1.53c2.79-.28,5.57-.07,8.35-.11,2.19,0,3.16,1.22,3.8,3.1.58,1.7.67,1.66,2.45,1.32.6-.12,1.2-.21,1.81-.28s.55-.3.32-.66C61.62,96.91,60.3,94.55,58.64,92.42Zm-52-41.29h0c0-3.37,0-6.74,0-10.1A2.18,2.18,0,0,0,5.57,38.8c-.91-.51-1.93-1.92-2.51-1.61-.81.44-.66,2-1,3a1.25,1.25,0,0,0,.69,1.7c.73.41,1.5.88,1.5,1.93,0,4.76,0,9.53,0,14.29,0,.79-.09,1.7-.91,2-1.58.64-1.39,1.71-1,2.94a9.47,9.47,0,0,1,.32,1.19c.15.71.38,1,1.1.44a10.11,10.11,0,0,1,1.73-1.17A2,2,0,0,0,6.7,61.48C6.63,58,6.67,54.58,6.67,51.13ZM73.5,95.74c.22-.08.45-.14.67-.23a37.5,37.5,0,0,0,7.31-4.67A48.73,48.73,0,0,0,89.57,83c.25-.28.9-.55.57-.92a1.41,1.41,0,0,0-1.67-.37,1.58,1.58,0,0,0-.46.4A52.94,52.94,0,0,1,74.94,92.37,2.64,2.64,0,0,0,73.5,95.74Zm-44.79-.07c.26-2.28.22-2.38-.84-3A47.74,47.74,0,0,1,14.54,82.47c-.77-.88-1.49-1.41-2.53-.48C14.59,86.51,24.18,94.21,28.71,95.67Zm29.85,4.81c-.46-1-.94-2-1.38-3a1.73,1.73,0,0,0-1.73-1.11c-1.89,0-3.77-.14-5.65-.06-5.37.2-3.75-.86-6.19,4a.93.93,0,0,0,0,.24c1.74.62,1.87.6,2.44-1a1.92,1.92,0,0,1,2.17-1.52c2,.12,4,.11,6,.08a1.85,1.85,0,0,1,2,1.44C56.77,101.1,56.81,101.09,58.56,100.48Zm-7.47.59c1.31,0,2.63,0,3.94,0,.37,0,1,0,.88-.53-.21-.74-.42-1.82-1.37-1.86-2.33-.12-4.67-.1-7,0-1,0-1.11,1.19-1.31,1.87-.12.39.86.51,1.42.52C48.8,101.08,50,101.07,51.09,101.07Z"/><path class="cls-3" d="M35.15,3.44c.35-.3,0-.61,0-.92A48.68,48.68,0,0,1,47.2.16,49.63,49.63,0,0,1,77.36,7.24a50,50,0,0,1,22,27.58,50.65,50.65,0,0,1,.83,29.68,5.59,5.59,0,0,1-.22.57h-.76c.25-1,.46-2,.76-3a1,1,0,0,0-.55-1.4,2.7,2.7,0,0,1-1.59-2.53c0-4.59,0-9.19,0-13.78a1.94,1.94,0,0,1,.85-1.93c1.74-.8,1.68-2,1.1-3.5a5.88,5.88,0,0,1-.27-1.19c-.12-.71-.32-.95-1-.39-.94.8-2,1.49-3,2.22-.18-.6.22-.88.63-1.19a7.79,7.79,0,0,0,2.06-1.69c.8-.1.76-.6.53-1.17q-1-2.64-2-5.27c-.41-1-.83-.85-1.22,0-.51-.08-.82.3-1.19.52L94,30.51c.14-.58.89-.64,1-1.21.9-.11,1.13-.51.62-1.3-.22-.34-.37-.73-.58-1.08A49.48,49.48,0,0,0,69.31,4.2c-2.63-1-2-1.39-3.61,1.43-.77,1.09-1.53,2.19-2.31,3.27-.51.71-.85,1.31.52,1.2.3,0,.59.07.6.44A.43.43,0,0,1,64,11a1,1,0,0,0-1.8-.11c-.62.81-1.19,1.66-1.81,2.47-.44.56-.94,1-1.76.82,0-.22,0-.45,0-.68.88,0,1.31-.61,1.71-1.21,1.67-2.47,3.31-5,5-7.43.27-.41.54-.81.82-1.21s.1-.5-.19-.69a2.07,2.07,0,0,0-3.19.65c-.15.24-.27.5-.4.75-.58.84-1.15,1.68-1.75,2.51a3.85,3.85,0,0,1-3.69,2c-1.54-.15-3.11,0-4.67,0H50c-1.85,0-3.7,0-5.54,0A2.6,2.6,0,0,1,42.09,7.6c-.69-1-1.44-2-2.17-2.95a2.66,2.66,0,0,0-.59-1.2c-.32-.41-.48-1.11-1.13-1s-1.87.1-2.26.73.51,1.25.89,1.86a.31.31,0,0,0,.09.07c1.29,2.05,2.77,4,4,6,.62,1,1.17,2.24,2.62,2.39,0,.22,0,.45,0,.68a1.36,1.36,0,0,1-1.5-.58,22,22,0,0,1-1.77-2.33A1.49,1.49,0,0,0,38,10.67l1.19,1.68a.58.58,0,0,1-.61.4c0-.66-.45-1-.81-1.43-.56-.66-.6-1.16.39-1.37l1-.24a31.4,31.4,0,0,0-2.69-3.83Zm20-1.5c.39-.61.33-1-.5-1L47.47,1c-.84,0-.85.4-.46,1,.13.89.87,1.11,1.54,1.13A28.09,28.09,0,0,0,54.05,3C54.76,2.87,55.07,2.59,55.16,1.94Zm.77.21A2.09,2.09,0,0,1,53.32,3.7a22.85,22.85,0,0,0-3.31,0c-1.78.06-3.63.31-4-2.21,0-.29-.31-.33-.58-.3s-.24.13-.26.32a3.72,3.72,0,0,0,3,3.17h5.16c2.47,0,2.47,0,3.33-2.48.18-.26.48-.52.33-.85,0-.12-.42-.15-.65-.15-.41,0-.41.31-.4.6C55.93,1.91,55.93,2,55.93,2.15Zm44,40.46c-1.12.08-1.42.86-1.42,1.78,0,4.67,0,9.34,0,14a1.64,1.64,0,0,0,.92,1.6c.51.27.81.29.92-.37a49.53,49.53,0,0,0,.76-6.78c0-1.23.08-2.46.06-3.69a42.56,42.56,0,0,0-.72-6.47C100.37,42.07,100.24,41.94,100,42.61Zm-43.07-39A2.69,2.69,0,0,1,54,5.4c-1.84-.08-3.68-.09-5.51,0a2.77,2.77,0,0,1-3.12-1.75c-.24-.61-.49-1.21-.73-1.82-.13-.3-.24-.64-.68-.56-1.4.24-2.81.49-4.21.75-.26.05-.48.27-.27.53.53.65.7,1.6,1.6,1.93.27,1.17,1.18,1.94,1.78,2.91a1.48,1.48,0,0,0,1.44.72c4.47,0,8.94,0,13.41,0,.41,0,.87,0,1.16-.29a11.54,11.54,0,0,0,2.25-3.31c.68-.26.84-1,1.24-1.47s.45-1-.41-1.11c-.65-.09-1.29-.23-1.93-.35C57.56,1.13,57.54,1.14,56.89,3.65Z"/><path class="cls-4" d="M32.66,3.36c0,.12-.08.13-.16.05S32.59,3.33,32.66,3.36Z"/><path class="cls-5" d="M64,11a.43.43,0,0,0,.53-.5c0-.37-.3-.47-.6-.44-1.37.11-1-.49-.52-1.2.78-1.08,1.54-2.18,2.31-3.27l5,1.75c-1.19,1.65-1,3.3.54,4.09,1.67.88,3.19,0,3.71-2.18a2.52,2.52,0,0,1,1.25.42,52.44,52.44,0,0,1,7.42,4.92c1.3,1.06,2.83,1.94,3.58,3.57-1.85.05-2.7.74-2.72,2.21a2.46,2.46,0,0,0,2.2,2.75c1.48.11,2.31-.71,2.5-2.5a1.35,1.35,0,0,1,1.3.77c1,1.47,2,2.95,3,4.47a8.07,8.07,0,0,1,1.59,3.4c-.14.57-.89.63-1,1.21-.83.75-.47,1.68-.27,2.52.29,1.26.47,2.33-.91,3.16a2.39,2.39,0,0,0-1,2.25q.35,10.26.22,20.54c0,1.8-.14,3.6-.17,5.4a3.09,3.09,0,0,0,1.59,3.17c.54.28,1,.65,1.55,1-.42.85-.68,1.81-1.69,2.2-.54-1.37-1.51-1.88-2.76-1.44A2.61,2.61,0,0,0,89,72.47,2.32,2.32,0,0,0,91.85,74c0,.88-1.16,1.08-1.24,1.94a9.92,9.92,0,0,1-2.18.26,2.59,2.59,0,0,0-2.11,1.29,49.89,49.89,0,0,1-11.6,10.14c-2,1.29-4.14,2.45-6.22,3.67l-4.72,1.43c-.69-.9-1.45-1.76-2.06-2.72a2.94,2.94,0,0,0-2.93-1.51c-2.28.11-4.56,0-6.85,0a11.17,11.17,0,0,0-.24-2.94c1.76,0,3.52.1,5.26,0a3.67,3.67,0,0,1,3.88,1.84,2.48,2.48,0,0,0,2.87,1.37c.3-.09.71-.12.77-.5s-.26-.65-.66-.75l-.24-.25L63.33,87l0-.46a4,4,0,0,0,1.57-.18A39.3,39.3,0,0,0,83.38,72.68c4.7-6.08,6.55-13.15,7.23-20.64,0-.32.07-.69-.41-.75,0-.65,0-1.31,0-2A35.1,35.1,0,0,0,86,31.8,39.22,39.22,0,0,0,63.51,12.54c0-.55.7-.88.5-1.5Z"/><path class="cls-5" d="M36.46,5.88a31.4,31.4,0,0,1,2.69,3.83l-1,.24c-1,.21-.95.71-.39,1.37.36.42.86.77.81,1.43a3.79,3.79,0,0,0-1.55.33,39.8,39.8,0,0,0-15,10.2,38.34,38.34,0,0,0-7.88,13,42.92,42.92,0,0,0-2.35,15.32c-.44.39-.31.92-.28,1.39A34.49,34.49,0,0,0,15,66.24a39.29,39.29,0,0,0,9.67,12.85,35.66,35.66,0,0,0,13.69,7.65,2.68,2.68,0,0,1-.69,1.14c-.22.28-.27.56.18.61,1.12.13,2.3.66,3.08-.84a9.43,9.43,0,0,1,1.77-1.87,1.35,1.35,0,0,1,1-.47,54,54,0,0,0,6.23,0c.1,0,.21.1.32.15v3c-2.29,0-4.58,0-6.86,0a3.22,3.22,0,0,0-3,1.48,15.47,15.47,0,0,1-2.17,2.79,45.64,45.64,0,0,0-4.73-1.51c-3.16-2.09-6.59-3.74-9.56-6.13A40,40,0,0,1,16.48,78c-1.31-1.78-3-2.09-4.93-2.07-.36-.67-1.19-1-1.21-1.94,1.92,0,2.75-.53,2.94-1.74a2.87,2.87,0,0,0-1.95-3.15A2.55,2.55,0,0,0,8.59,71L6.87,68.77c.06-.06.11-.13.17-.18,3.48-2.26,3.34-1.52,3.21-6-.16-5.91-.15-11.82-.14-17.73,0-2.18.07-4.35.18-6.52A2.4,2.4,0,0,0,9.09,36a1.82,1.82,0,0,1-.88-2.41c.66-1.7.45-3.1-1.1-4.19A41.57,41.57,0,0,1,11,23.33c.55-.78.92-1.75,1.89-2.19a2.45,2.45,0,0,0,2.2,2,2.41,2.41,0,0,0,2.6-1.92c.29-1.56-.35-2.57-2-3.14,0-.11.06-.25.14-.33a49.64,49.64,0,0,1,10.47-7.69.9.9,0,0,1,1,0,2.49,2.49,0,0,0,2.32,1.68A2.6,2.6,0,0,0,32,10.35a2.87,2.87,0,0,0,0-2.48.75.75,0,0,1,.61-.81A20.87,20.87,0,0,1,36.46,5.88Z"/><path class="cls-6" d="M98.27,36.71a7.79,7.79,0,0,1-2.06,1.69c-.41.31-.81.59-.63,1.19l0,.07c-.68-.07-.71.39-.71.87,0,7.25,0,14.49,0,21.74,0,1.44,1.33,1.83,2.21,2.56A21.87,21.87,0,0,1,95.56,68l-2-1.23a2,2,0,0,1-1-1.86q0-13.43,0-26.84a2.36,2.36,0,0,1,1.2-1.89,2.39,2.39,0,0,0,.84-2.92,3.37,3.37,0,0,1-.27-2.48c.37-.22.68-.6,1.19-.52A28.49,28.49,0,0,1,98.27,36.71Z"/><path class="cls-7" d="M58.64,92.42c1.66,2.13,3,4.49,4.43,6.76.23.36.17.6-.32.66s-1.21.16-1.81.28c-1.78.34-1.87.38-2.45-1.32-.64-1.88-1.61-3.14-3.8-3.1-2.78,0-5.56-.17-8.35.11a2.29,2.29,0,0,0-2,1.53,14.48,14.48,0,0,0-.86,2c-.22.9-.76,1.07-1.54.92-.56-.11-1.12-.25-1.67-.38-1.45-.36-1.46-.38-.7-1.59l3.75-5.9c.06,0,.12.15.18.15,3.25.23,6.5.12,9.75.23a40.86,40.86,0,0,0,4.13-.12C57.81,92.66,58.29,92.83,58.64,92.42Z"/><path class="cls-8" d="M95.53,39.66l0-.07c1-.73,2-1.42,3-2.22.67-.56.87-.32,1,.39A5.88,5.88,0,0,0,99.79,39c.58,1.47.64,2.7-1.1,3.5a1.94,1.94,0,0,0-.85,1.93c0,4.59.06,9.19,0,13.78a2.7,2.7,0,0,0,1.59,2.53,1,1,0,0,1,.55,1.4c-.3,1-.51,2-.76,3-1.61-.13-3.75-2.15-3.76-3.64q-.08-10.16-.1-20.3A12,12,0,0,1,95.53,39.66Z"/><path class="cls-8" d="M6.67,51.13c0,3.45,0,6.91,0,10.35a2,2,0,0,1-1.13,2.09,10.11,10.11,0,0,0-1.73,1.17c-.72.6-.95.27-1.1-.44a9.47,9.47,0,0,0-.32-1.19c-.44-1.23-.63-2.3,1-2.94.82-.32.91-1.23.91-2,0-4.76,0-9.53,0-14.29,0-1-.77-1.52-1.5-1.93a1.25,1.25,0,0,1-.69-1.7c.33-1,.18-2.6,1-3,.58-.31,1.6,1.1,2.51,1.61A2.18,2.18,0,0,1,6.71,41c-.07,3.36,0,6.73,0,10.1Z"/><path class="cls-4" d="M12.91,21.14c-1,.44-1.34,1.41-1.89,2.19A41.57,41.57,0,0,0,7.11,29.4C6,29,6.3,28.31,6.71,27.56A49.51,49.51,0,0,1,30.35,5.17a15.43,15.43,0,0,1,4.8-1.73l1.31,2.44a20.87,20.87,0,0,0-3.85,1.18.75.75,0,0,0-.61.81,6.92,6.92,0,0,0-1.13-.72c-.85-.35-1.72-.54-2.33.44h0c-1.26.42-1.18,1.47-1.18,2.49a.9.9,0,0,0-1,0,49.64,49.64,0,0,0-10.47,7.69c-.08.08-.09.22-.14.33-.49.18-1.26-.14-1.37.75l0,0c-.48-.35-.6.14-.84.36C12.89,19.71,13,20.45,12.91,21.14Z"/><path class="cls-3" d="M89.87,76.67c1.35-.21,2.66.37,4.29.06A28.34,28.34,0,0,1,91,81.13c-.37.39-.78.13-1.14,0a1.8,1.8,0,0,0-2.29.5A51.55,51.55,0,0,1,73.73,92.14a1.31,1.31,0,0,0-.83,1.49c.45,2.11-.64,3.17-2.49,3.76-.85.27-1.69.58-2.7.93a22.09,22.09,0,0,1,1-5.4,1.51,1.51,0,0,0,1-.22c2-1.1,4-2.15,5.89-3.3a43.46,43.46,0,0,0,7.55-5.65C85.49,81.53,88.11,79.49,89.87,76.67Z"/><path class="cls-3" d="M33.25,92.94c.8,1.34.81,2.89,1.18,4.34.16.62-.14,1-.82.75A22.62,22.62,0,0,1,30,96.49a.83.83,0,0,1-.45-.91c.13-2-.62-3.22-2.51-4.24a47.75,47.75,0,0,1-12-9.31,10.59,10.59,0,0,0-4.48-2.54C9.29,79,8.9,78,8.29,77.11c-.32-.48.3-.43.57-.44,1.07,0,2.14,0,3.21,0,.69.76,1.39,1.49,2.07,2.26a51.47,51.47,0,0,0,11.09,9.78C27.81,90.31,30.57,91.54,33.25,92.94Z"/><path class="cls-7" d="M9.53,44.33c.23,1.61-.24,3.18-.18,4.78.17,4.71.13,9.42.3,14.13.09,2.52-.82,4-3,4.81l-1.74-3a1.7,1.7,0,0,1,.9-.81c1.4-.55,1.65-1.59,1.63-3-.08-6,0-12.08,0-18.12C8.3,43.16,8.49,44.49,9.53,44.33Z"/><path class="cls-7" d="M60.08,93c-.07,0-.18-.06-.21-.13-.95-1.92-2.65-1.94-4.48-1.88-2.82.1-5.66.11-8.48,0-2-.08-3.76,0-5.06,1.75-.77-.5-1.63-.12-2.44-.26a.54.54,0,0,0,.05-.11C40.75,89.54,43,89,45.87,89.16c4.36.25,8.74.1,13.11,0a2.41,2.41,0,0,1,2.26,1.14c.52.78,1,1.56,1.54,2.35C61.89,92.82,60.94,92.4,60.08,93Z"/><path class="cls-3" d="M73.5,95.74a2.64,2.64,0,0,1,1.44-3.37A52.94,52.94,0,0,0,88,82.12a1.58,1.58,0,0,1,.46-.4,1.41,1.41,0,0,1,1.67.37c.33.37-.32.64-.57.92a48.73,48.73,0,0,1-8.09,7.83,37.5,37.5,0,0,1-7.31,4.67C74,95.6,73.72,95.66,73.5,95.74Z"/><path class="cls-3" d="M28.71,95.67C24.18,94.21,14.59,86.51,12,82c1-.93,1.76-.4,2.53.48A47.74,47.74,0,0,0,27.87,92.71C28.93,93.29,29,93.39,28.71,95.67Z"/><path class="cls-6" d="M2.24,42.6a1.46,1.46,0,0,1,1.41,1.68c0,4.68,0,9.36,0,14,0,1-.79,1.36-1.42,1.85-.37.28-.49,0-.53-.32-.26-2.39-.92-4.74-.7-7.18.32-.44.15-1,.18-1.43A64.29,64.29,0,0,1,2.24,42.6Z"/><path class="cls-7" d="M33.25,92.94c-2.68-1.4-5.44-2.63-8-4.23a51.47,51.47,0,0,1-11.09-9.78c-.68-.77-1.38-1.5-2.07-2.26,2.18-.48,3.31,1.07,4.46,2.43A46.94,46.94,0,0,0,28.86,89.26c1.09.64,2.19,1.27,3.29,1.89A2,2,0,0,1,33.25,92.94Z"/><path class="cls-6" d="M9.53,44.33c-1,.16-1.23-1.17-2.15-1.22.44-2.78-.49-4.85-3.15-6-.13-.06-.21-.24-.31-.37a29.35,29.35,0,0,1,2.9-6.44c.85.4,1.28,1,.84,1.95-.11.26-.1.56-.19.83a2.69,2.69,0,0,0,1.25,3.53,1.7,1.7,0,0,1,.86,1.73C9.54,40.33,9.55,42.33,9.53,44.33Z"/><path class="cls-7" d="M89.87,76.67c-1.76,2.82-4.38,4.86-6.76,7.08a43.46,43.46,0,0,1-7.55,5.65c-1.93,1.15-3.93,2.2-5.89,3.3a1.51,1.51,0,0,1-1,.22c.31-1.44,1.55-1.92,2.63-2.53A54.32,54.32,0,0,0,84.74,80.2,22.45,22.45,0,0,0,86.67,78,3.17,3.17,0,0,1,89.87,76.67Z"/><path class="cls-8" d="M58.56,100.48c-1.75.61-1.79.62-2.37-1a1.85,1.85,0,0,0-2-1.44c-2,0-4,0-6-.08A1.92,1.92,0,0,0,46,99.45c-.57,1.64-.7,1.66-2.44,1a.93.93,0,0,1,0-.24c2.44-4.81.82-3.75,6.19-4,1.88-.08,3.76.06,5.65.06a1.73,1.73,0,0,1,1.73,1.11C57.62,98.48,58.1,99.48,58.56,100.48Z"/><path class="cls-7" d="M93.36,70.73c1-.39,1.27-1.35,1.69-2.2.2.15.4.28.59.43,1.74,1.34,1.74,1.34.78,3.28-.51,1-1.06,2-1.5,3.06a1.35,1.35,0,0,1-1.65.86c-.88-.1-1.77-.18-2.66-.26.08-.86,1.2-1.06,1.24-1.94A3.09,3.09,0,0,0,93.36,70.73Z"/><path class="cls-7" d="M6.87,68.77,8.59,71c0,1-.1,2,1,2.48h0a.91.91,0,0,0,.76.53c0,.89.85,1.27,1.21,1.94-1.14.48-2.34.18-3.51.22-.4,0-.5-.37-.65-.65C6.66,74.12,6,72.74,5.21,71.38c-.42-.77-.47-1.37.44-1.82A10.57,10.57,0,0,0,6.87,68.77Z"/><path class="cls-3" d="M51.09,101.07c-1.14,0-2.29,0-3.44,0-.56,0-1.54-.13-1.42-.52.2-.68.33-1.83,1.31-1.87,2.33-.11,4.67-.13,7,0,1,0,1.16,1.12,1.37,1.86.16.53-.51.52-.88.53C53.72,101.09,52.4,101.07,51.09,101.07Z"/><path class="cls-3" d="M60.08,93c.86-.55,1.81-.13,2.7-.26q1.92,2.59,3.82,5.21c.32.44.36.73-.29,1-1.84.73-2,.72-3.14-1A30.24,30.24,0,0,1,60.08,93Z"/><path class="cls-3" d="M39.41,92.43c.81.14,1.67-.24,2.44.26a4.91,4.91,0,0,1-1.15,2.52c-.72,1.24-1.54,2.41-2.28,3.63-.5.84-1.13.42-1.71.22a.69.69,0,0,1-.36-1.18c1.33-1.18,1-3.16,2.25-4.38A8.58,8.58,0,0,0,39.41,92.43Z"/><path class="cls-6" d="M58.64,92.42c-.35.41-.83.24-1.27.27a40.86,40.86,0,0,1-4.13.12c-3.25-.11-6.5,0-9.75-.23-.06,0-.12-.1-.18-.15a1.86,1.86,0,0,1,1.95-1c3.58.19,7.17,0,10.75,0C57,91.49,58,91.38,58.64,92.42Z"/><path class="cls-7" d="M63.78,92.69l4.72-1.43L67,97.17Z"/><path class="cls-7" d="M33.46,91.23a45.64,45.64,0,0,1,4.73,1.51c-.62,1.4-1.78,2.43-2.52,3.75-.29.51-.59.42-.75-.22A22.57,22.57,0,0,0,33.46,91.23Z"/><path class="cls-3" d="M4.88,65.06l1.74,3c-1.88,1.77-2.1,1.72-2.89-.67C3.22,65.84,3.32,65.63,4.88,65.06Z"/><path class="cls-3" d="M95.56,68A21.87,21.87,0,0,0,97,64.83c1.64,1.24,1.9,2.66.82,4.29-.2.31-.39.38-.67.14C96.64,68.83,95.94,68.64,95.56,68Z"/><path class="cls-4" d="M6.82,30.3a29.35,29.35,0,0,0-2.9,6.44c-.8-.09-.77-.56-.55-1.15.66-1.71,1.29-3.44,2-5.15C5.84,29.23,5.93,29.24,6.82,30.3Z"/><path class="cls-4" d="M50.22,88.51v-3l1.48.05a11.17,11.17,0,0,1,.24,2.94Z"/><path class="cls-4" d="M2.24,42.6a64.29,64.29,0,0,0-1.05,8.64c0,.48.14,1-.18,1.43a38.87,38.87,0,0,1,.54-9.57c.06-.3-.06-.78.44-.87C2.05,42.21,2.15,42.47,2.24,42.6Z"/><path class="cls-2" d="M11.84,51.65a42.92,42.92,0,0,1,2.35-15.32,38.34,38.34,0,0,1,7.88-13,39.8,39.8,0,0,1,15-10.2,3.79,3.79,0,0,1,1.55-.33.58.58,0,0,0,.61-.4l.71.87c-.52.53-1.12-.11-1.72.15-2.05.91-4.14,1.7-6.11,2.8a32.31,32.31,0,0,0-6.29,4.44,41.66,41.66,0,0,0-8.34,10.24,43.54,43.54,0,0,0-4.88,15.83A31.2,31.2,0,0,0,13.37,57a37,37,0,0,0,15.92,23.6c3.33,2.26,6.79,4.53,11.09,4.65l-1.2,1.35c0-.23,0-.48-.28-.61C24,80.85,15.17,70.43,12.29,54.93,12.09,53.84,12,52.74,11.84,51.65Z"/><path class="cls-5" d="M45.36,3.66a2.77,2.77,0,0,0,3.12,1.75c1.83-.1,3.67-.09,5.51,0a2.69,2.69,0,0,0,2.9-1.75,24.49,24.49,0,0,1,4.22.86,11.54,11.54,0,0,1-2.25,3.31c-.29.33-.75.29-1.16.29-4.47,0-8.94,0-13.41,0a1.48,1.48,0,0,1-1.44-.72c-.6-1-1.51-1.74-1.78-2.91A31.24,31.24,0,0,1,45.36,3.66Z"/><path class="cls-4" d="M70.69,7.38l-5-1.75c1.63-2.82,1-2.45,3.61-1.43A49.48,49.48,0,0,1,95.1,26.92c.21.35.36.74.58,1.08.51.79.28,1.19-.62,1.3a8.07,8.07,0,0,0-1.59-3.4c-1-1.52-2-3-3-4.47a1.35,1.35,0,0,0-1.3-.77,2.84,2.84,0,0,0-2-2.46c-.75-1.63-2.28-2.51-3.58-3.57a52.44,52.44,0,0,0-7.42-4.92,2.52,2.52,0,0,0-1.25-.42C74.27,7.07,72.64,6.33,70.69,7.38Z"/><path class="cls-7" d="M65.26,4.9c-1.65,2.47-3.29,5-5,7.43-.4.6-.83,1.24-1.71,1.21l-6.43,0,0-4.66c1.56,0,3.13-.12,4.67,0a3.85,3.85,0,0,0,3.69-2c.6-.83,1.17-1.67,1.75-2.51Z"/><path class="cls-7" d="M43.59,13.54c-1.45-.15-2-1.41-2.62-2.39-1.28-2.05-2.76-4-4-6l3-.49c.73,1,1.48,1.94,2.17,2.95a2.6,2.6,0,0,0,2.37,1.25c1.84,0,3.69,0,5.54,0l0,4.64Z"/><path class="cls-8" d="M39.93,13.22l-.71-.87L38,10.67a1.49,1.49,0,0,1,2.28.64,22,22,0,0,0,1.77,2.33,1.36,1.36,0,0,0,1.5.58l7.14,0H52l6.66,0c.82.22,1.32-.26,1.76-.82.62-.81,1.19-1.66,1.81-2.47A1,1,0,0,1,64,11h0c-.52.26-.71.78-1,1.23a24.94,24.94,0,0,0-2.75,3.4.23.23,0,0,0-.19.09h-18c-.91-.55-1.1-1.72-2-2.3Z"/><path class="cls-6" d="M101.13,52.85a49.53,49.53,0,0,1-.76,6.78c-.11.66-.41.64-.92.37a1.64,1.64,0,0,1-.92-1.6c0-4.67,0-9.34,0-14,0-.92.3-1.7,1.42-1.78.1.56.24,1.11.3,1.67C100.56,47.14,100.84,50,101.13,52.85Z"/><path class="cls-4" d="M45.36,3.66a31.24,31.24,0,0,0-4.29.83c-.9-.33-1.07-1.28-1.6-1.93-.21-.26,0-.48.27-.53,1.4-.26,2.81-.51,4.21-.75.44-.08.55.26.68.56C44.87,2.45,45.12,3.05,45.36,3.66Z"/><path class="cls-4" d="M61.11,4.51a24.49,24.49,0,0,0-4.22-.86c.65-2.51.67-2.52,3.12-2.07.64.12,1.28.26,1.93.35.86.12.91.51.41,1.11S61.79,4.25,61.11,4.51Z"/><path class="cls-5" d="M56.64,2.18c-.86,2.47-.86,2.48-3.33,2.48H48.15a3.72,3.72,0,0,1-3-3.17c0-.19.06-.3.26-.32s.54,0,.58.3c.35,2.52,2.2,2.27,4,2.21a22.85,22.85,0,0,1,3.31,0,2.09,2.09,0,0,0,2.61-1.55Z"/><path class="cls-5" d="M55.16,1.94c-.09.65-.4.93-1.11,1a28.09,28.09,0,0,1-5.5.11c-.67,0-1.41-.24-1.54-1.13A28.9,28.9,0,0,1,55.16,1.94Z"/><path class="cls-4" d="M50,13.49l0-4.64h2.19l0,4.66a.53.53,0,0,0-.2.07H50.71Z"/><path class="cls-5" d="M39.92,4.65l-3,.49a.31.31,0,0,1-.09-.07c-.38-.61-1.25-1.27-.89-1.86s1.47-.55,2.26-.73.81.56,1.13,1A2.66,2.66,0,0,1,39.92,4.65Z"/><path class="cls-4" d="M98.27,36.71a28.49,28.49,0,0,0-2.74-6.43c.39-.86.81-1,1.22,0q1,2.63,2,5.27C99,36.11,99.07,36.61,98.27,36.71Z"/><path class="cls-4" d="M55.16,1.94A28.9,28.9,0,0,0,47,2c-.39-.59-.38-1,.46-1l7.19,0C55.49.94,55.55,1.33,55.16,1.94Z"/><path class="cls-5" d="M65.26,4.9l-3-.5c.13-.25.25-.51.4-.75A2.07,2.07,0,0,1,65.89,3c.29.19.4.38.19.69S65.53,4.49,65.26,4.9Z"/><path class="cls-2" d="M50,13.49l.68.09v.61l-7.14,0c0-.23,0-.46,0-.68Z"/><path class="cls-2" d="M52,13.57a.53.53,0,0,1,.2-.07l6.43,0c0,.23,0,.46,0,.68L52,14.2C52,14,52,13.78,52,13.57Z"/><path class="cls-4" d="M101.13,52.85c-.29-2.85-.57-5.71-.87-8.57-.06-.56-.2-1.11-.3-1.67.28-.67.41-.54.51.08a42.56,42.56,0,0,1,.72,6.47C101.21,50.39,101.16,51.62,101.13,52.85Z"/><path class="cls-4" d="M56.64,2.18l-.71,0c0-.12,0-.24,0-.37,0-.29,0-.61.4-.6.23,0,.6,0,.65.15C57.12,1.66,56.82,1.92,56.64,2.18Z"/><path class="cls-2" d="M40.14,13.47c.87.58,1.06,1.75,2,2.3v.29c-.33,0-.69,0-.89-.34-.59-.85-1.33-.73-2.15-.41a38.34,38.34,0,0,0-6.28,3c-.39.23-1,.29-1.05.91a4,4,0,0,0-2.47,1.73,7.23,7.23,0,0,0-2.94,2.22,16.74,16.74,0,0,0-1.78,1.47,36.37,36.37,0,0,0-7.16,11.18A28.27,28.27,0,0,0,15,46.11a2.44,2.44,0,0,0-.27,1.3,54.6,54.6,0,0,0,.08,6,19.06,19.06,0,0,0,1.05,3.37c-.26.63.06,1.22.13,1.83.26.94.46,1.9.78,2.82A35.68,35.68,0,0,0,32.3,80.11a1.88,1.88,0,0,0,1.48.44,4.09,4.09,0,0,0,1.94,1.24,12.53,12.53,0,0,0,4.73,1.75.81.81,0,0,0,.94-.42,1.64,1.64,0,0,1,1.25-.31c1.45,0,2.9,0,4.36,0a14.32,14.32,0,0,1,3.39-.21c2.76.47,5.51.08,8.27,0,.43,0,1,.28,1.17-.5l.77.25c.5,1.77,1.85,1.43,3.18.41a3.07,3.07,0,0,0,1.73-.67,2.24,2.24,0,0,0,1.61-.63,4.66,4.66,0,0,0,.94-.28A34.57,34.57,0,0,0,75.63,76a36,36,0,0,0,11.2-20.28c.17-1,.75-2.12.06-3.19a5.54,5.54,0,0,0,.58-2.72,33.15,33.15,0,0,0-.32-4.88,8.66,8.66,0,0,0-.05-1.35A36,36,0,0,0,82,30.32c-1.15-1.77-2.16-3.67-4-4.89-.43-.31-.48-1-1.16-1.07v0a.45.45,0,0,0-.25-.49c-.07-.14-.09-.33-.2-.43a38.35,38.35,0,0,0-12.59-7.81c-1.18-.43-2.34-.88-3.46.11l-.08-.09A24.94,24.94,0,0,1,63,12.27l.49.27A39.22,39.22,0,0,1,86,31.8a35.1,35.1,0,0,1,4.14,17.53c0,.65,0,1.31,0,2a38.43,38.43,0,0,1-25.49,34.3c-.54.2-1.33.09-1.55.89l-.36.06-1-1.24a10.54,10.54,0,0,0,1.58-.14c5.5-1.31,10-4.34,14.14-8a38.61,38.61,0,0,0,6.81-8.5A37.9,37.9,0,0,0,89.6,51.7,34.62,34.62,0,0,0,88.41,40,38,38,0,0,0,78.9,23.1a36.47,36.47,0,0,0-6.48-5.43,28,28,0,0,0-8.84-4.17c-.35-.08-.75-.33-.94.18s.19.68.6.86c1.49.66,3,1.37,4.45,2A35.27,35.27,0,0,1,80.84,27.39a33.45,33.45,0,0,1,6.49,13.78,35.38,35.38,0,0,1,0,16.18,37.4,37.4,0,0,1-6.94,14.49A36.53,36.53,0,0,1,62.06,84.31a.75.75,0,0,0-.57.69c-.86-1.44-2.14-1.69-3.75-1.65-4.34.1-8.68.1-13,0-1.83-.06-3.28.31-4.28,1.91a1.56,1.56,0,0,0-1.07-1.07,50.88,50.88,0,0,1-5-2,38.5,38.5,0,0,1-12-9.54A35.77,35.77,0,0,1,15.16,40.1,35.57,35.57,0,0,1,28.05,20.62a35.47,35.47,0,0,1,10.57-5.87C39.27,14.54,40.14,14.49,40.14,13.47Z"/><path class="cls-4" d="M63.16,86.48c.22-.8,1-.69,1.55-.89A38.43,38.43,0,0,0,90.2,51.29c.48.06.44.43.41.75-.68,7.49-2.53,14.56-7.23,20.64A39.3,39.3,0,0,1,64.87,86.33a4,4,0,0,1-1.57.18A.17.17,0,0,0,63.16,86.48Z"/><path class="cls-3" d="M38.9,86c.24.13.25.38.28.61-.17.57-.87.85-.87,1.48a1.53,1.53,0,0,0,2.13-.69c.53-.73,1.11-1.42,1.68-2.12a1.34,1.34,0,0,1,1.15-.56q7.6,0,15.22,0a2,2,0,0,1,1.68.8c.69.87,1.44,1.68,2.13,2.55.46.58,1,.27,1.45.12s-.07-.42-.06-.65a1.59,1.59,0,0,0,.13-.13c.4.1.72.31.66.75s-.47.41-.77.5a2.48,2.48,0,0,1-2.87-1.37A3.67,3.67,0,0,0,57,85.5c-1.74.14-3.5,0-5.26,0l-1.48-.05c-.11,0-.22-.16-.32-.15a54,54,0,0,1-6.23,0,1.35,1.35,0,0,0-1,.47,9.43,9.43,0,0,0-1.77,1.87c-.78,1.5-2,1-3.08.84-.45,0-.4-.33-.18-.61a2.68,2.68,0,0,0,.69-1.14C38.52,86.48,39,86.47,38.9,86Z"/><path class="cls-3" d="M70.69,7.38c2-1,3.58-.31,4.25,1.91-.52,2.17-2,3.06-3.71,2.18C69.72,10.68,69.5,9,70.69,7.38Zm2.89,2C73.45,8.56,73.05,8,72.23,8A1.15,1.15,0,0,0,71,9.3a1.19,1.19,0,0,0,1.31,1.28C73.12,10.56,73.48,10.06,73.58,9.35Z"/><path class="cls-3" d="M87.19,18.2a2.84,2.84,0,0,1,2,2.46c-.19,1.79-1,2.61-2.5,2.5a2.46,2.46,0,0,1-2.2-2.75C84.49,18.94,85.34,18.25,87.19,18.2Zm1.06,2.93c0-.86-.39-1.41-1.24-1.39A1.17,1.17,0,0,0,85.74,21a1.32,1.32,0,0,0,1.36,1.43C87.91,22.4,88.19,21.81,88.25,21.13ZM86.71,18.9l.08-.06s-.06-.07-.07-.06a.28.28,0,0,0-.1.09Z"/><path class="cls-2" d="M93.36,70.73A3.09,3.09,0,0,1,91.85,74,2.32,2.32,0,0,1,89,72.47a2.61,2.61,0,0,1,1.65-3.18C91.85,68.85,92.82,69.36,93.36,70.73ZM89.9,72.46l-.12-.1.1.11a.46.46,0,0,0,.49.51c.23.78.79.42,1.28.32L90.4,73v-.26c.27,0,.55.06.82.07a1.3,1.3,0,0,0,1.37-1,1.16,1.16,0,0,0-.43-1.41,1.25,1.25,0,0,0-1.48,0,1.34,1.34,0,0,0-.56,1.6c.07.27.41.43.28.76Zm-.27-.84-.1-.2c0,.06-.1.12-.1.18a.52.52,0,0,0,.08.19Z"/><path class="cls-3" d="M63.51,12.54,63,12.27c.28-.45.47-1,1-1.23C64.21,11.66,63.51,12,63.51,12.54Z"/><path class="cls-3" d="M63.16,86.48a.17.17,0,0,1,.14,0l0,.46-.09.09-.44-.52Z"/><path class="cls-3" d="M63.33,87l.25.24-.11.11-.23-.26Z"/><path class="cls-3" d="M63.58,87.21l.24.25a1.59,1.59,0,0,1-.13.13l-.22-.27Z"/><path class="cls-4" d="M38.9,86c.09.44-.38.45-.53.71a35.66,35.66,0,0,1-13.69-7.65A39.29,39.29,0,0,1,15,66.24,34.49,34.49,0,0,1,11.56,53c0-.47-.16-1,.28-1.39.15,1.09.25,2.19.45,3.28C15.17,70.43,24,80.85,38.9,86Z"/><path class="cls-2" d="M28.54,7.59c.61-1,1.48-.79,2.33-.44A6.92,6.92,0,0,1,32,7.87a2.87,2.87,0,0,1,0,2.48,2.6,2.6,0,0,1-2.29,1.41,2.49,2.49,0,0,1-2.32-1.68c0-1-.08-2.07,1.18-2.49,0,.31-.27.51-.31.76-.12.76-.62,1.61.31,2.23l.12.1-.09-.13V9.8c.62.49,1.21,1.18,2.09.51A1.25,1.25,0,0,0,31,8.77c-.31-.83-1-.85-1.7-.63C29.28,7.63,28.92,7.59,28.54,7.59ZM29.37,11s0-.07-.05-.07a.15.15,0,0,0-.09,0l.06.11Z"/><path class="cls-2" d="M9.59,73.46c-1.1-.52-1-1.51-1-2.48a2.55,2.55,0,0,1,2.74-1.89,2.87,2.87,0,0,1,1.95,3.15c-.19,1.21-1,1.7-2.94,1.74a.91.91,0,0,1-.76-.53c.57,0,1.15,0,1.72,0,1.06-.06,1.47-.6,1.37-1.74l-.66.49c0-.2.05-.4.06-.6a1.3,1.3,0,0,0-.86-1.44,1.13,1.13,0,0,0-1.31.35,1.25,1.25,0,0,0-.09,1.67l.3.5C9.62,72.73,9.57,73.07,9.59,73.46Z"/><path class="cls-2" d="M14.35,18.83c.11-.89.88-.57,1.37-.75,1.64.57,2.28,1.58,2,3.14a2.41,2.41,0,0,1-2.6,1.92,2.45,2.45,0,0,1-2.2-2c.06-.69,0-1.43.58-2,.44.31.2.89.52,1.24-.09.65-.21,1.32.51,1.72a1.41,1.41,0,0,0,1.82-.46l.21.26.18-.27c.57-.25.49-.76.49-1.23s-.14-.92-.73-1h0l-.24-.24h0C15.73,18.4,15,18.73,14.35,18.83Z"/><path class="cls-3" d="M14,20.41c-.32-.35-.08-.93-.52-1.24.24-.22.36-.71.84-.36.51.76,1.28.22,1.9.38h0l.24.24h0v.49l-.17.18C15.43,19.31,14.7,19.72,14,20.41Z"/><path class="cls-7" d="M16.23,19.19c-.62-.16-1.39.38-1.9-.38l0,0C15,18.73,15.73,18.4,16.23,19.19Z"/><path class="cls-3" d="M40.14,13.47c0,1-.87,1.07-1.52,1.28a35.47,35.47,0,0,0-10.57,5.87A35.57,35.57,0,0,0,15.16,40.1a35.77,35.77,0,0,0,7.17,32.49,38.5,38.5,0,0,0,12,9.54,50.88,50.88,0,0,0,5,2,1.56,1.56,0,0,1,1.07,1.07l-.06.07c-4.3-.12-7.76-2.39-11.09-4.65A37,37,0,0,1,13.37,57a31.2,31.2,0,0,1-.78-10.36,43.54,43.54,0,0,1,4.88-15.83,41.66,41.66,0,0,1,8.34-10.24,32.31,32.31,0,0,1,6.29-4.44c2-1.1,4.06-1.89,6.11-2.8.6-.26,1.2.38,1.72-.15Z"/><path class="cls-8" d="M40.38,85.29l.06-.07c1-1.6,2.45-2,4.28-1.91,4.34.14,8.68.14,13,0,1.61,0,2.89.21,3.75,1.65l.26.3,1,1.24.44.52.23.26.22.27c0,.23.57.49.06.65s-1,.46-1.45-.12c-.69-.87-1.44-1.68-2.13-2.55a2,2,0,0,0-1.68-.8q-7.6,0-15.22,0a1.34,1.34,0,0,0-1.15.56c-.57.7-1.15,1.39-1.68,2.12a1.53,1.53,0,0,1-2.13.69c0-.63.7-.91.87-1.48Z"/><path class="cls-3" d="M42.11,16.06v-.29h18V16l-.61.39a28.9,28.9,0,0,0-6.83,0l-6.71,0A9.68,9.68,0,0,1,42.11,16.06Z"/><path class="cls-3" d="M52,13.57c0,.21,0,.42,0,.63H50.72c0-.21,0-.41,0-.61Z"/><path class="cls-2" d="M60.08,16v-.28a.23.23,0,0,1,.19-.09l.08.09Z"/><path class="cls-9" d="M47,82.8c-1.46,0-2.91,0-4.36,0a1.64,1.64,0,0,0-1.25.31,2.8,2.8,0,0,1-.55-.26,24.71,24.71,0,0,1-7.34-10c-.24-.61-.94-1.08-.69-1.88a3.61,3.61,0,0,1,2.39,2.28,3.23,3.23,0,0,0,2.91,1.92c.4,0,1,.26,1.2-.29s-.2-.75-.46-1.06A35.17,35.17,0,0,1,33,64.19a11.32,11.32,0,0,0-1.27-3.06c-.38,1.51-.09,2.86-.22,4.19-.51,0-.7-.38-.89-.74q-1.49-2.86-2.95-5.73c-.18-.35-.15-.91-.7-.87s-.53.55-.59.94A38.59,38.59,0,0,0,26.71,70c.2,1.49.55,3,.83,4.44a2.15,2.15,0,0,1-1-.8,25,25,0,0,1-3.32-7.88,11.09,11.09,0,0,1,0-5.46,6.4,6.4,0,0,0,1.7-3.07c1.29-1.77,2.46-3.66,3.91-5.3a36.37,36.37,0,0,0,3.54-5.71l1.14-1.11a16.74,16.74,0,0,1,8.9-5.05,4.41,4.41,0,0,1-1.74,3.13c-3.13,2.24-4.42,5.62-5.37,9.09-.79,2.89-.29,5.84.48,8.71.2.75.2,1.72.84,2.13a10.79,10.79,0,0,1,2.37,2.73c1.84,2.23,4,4,6.94,4.4a13.91,13.91,0,0,0,4,1.75l-3.52-2.75c-.06-.49-.44-.77-.71-1.12a24.87,24.87,0,0,1-3.45-5c.85,0,.63-.51.45-1a15.59,15.59,0,0,1-1.34-3.64,1.2,1.2,0,0,1,.46-1.16c.35-.32.54.16.78.33a1,1,0,0,0,.69.19c.08.09.17.18.25.28a.93.93,0,0,0,.2.81c3.66,5.5,8.65,8.6,15.39,8.52a4.77,4.77,0,0,0,2.77-.32c1.12-.54,2.63-.5,3.26-1.91h.32l.41-.23c1.2-.4,2.09-1.39,3.33-1.72A5.33,5.33,0,0,0,72,61.24a10.71,10.71,0,0,0-3.09,1.61c-1.36.8-2.94,1-4.39,1.56a56,56,0,0,1-7.66.43,9.07,9.07,0,0,1-4.42-1.2,3.37,3.37,0,0,0,0-1.67c-.09-.75.18-1.19,1.05-1a13.85,13.85,0,0,0,7.43-.8,14.79,14.79,0,0,0,5.21-2.85c-.7-.32-1.11.5-1.71.25.59-1.1,1.9-1.7,2-3.08h0c.53,0,.51-.37.49-.73h0l.22-.33a25.49,25.49,0,0,1,1.3-2.87,5.64,5.64,0,0,0,.91-2.63,25.19,25.19,0,0,0-.43-11c1.32,1.3,1.37,3.13,2.23,4.89.66-2.38.34-4.48.42-6.55,1.11-.2,1.51.61,2.08,1.33s.55,2.2,1.83,2.55l.09.09c-.18,1-.3,2-.54,3-.85,3.46-1.74,6.9-4.07,9.75-.12.15-.32.43-.26.51.52.83-.15,1.31-.56,1.79a33.47,33.47,0,0,1-6.7,6.59l-.09.11.11-.09a4.54,4.54,0,0,0,2.25-.52,22.17,22.17,0,0,0,6.77-4.73c1-1,2-2,3-2.92,0,1.51.54,3.06-.4,4.49a.77.77,0,0,0,0,.48,2,2,0,0,1-.94,2.09,1.75,1.75,0,0,0-.52,2.88c-.61.84-1.9,1-2.23,2.1a.79.79,0,0,1-.72.58,3.24,3.24,0,0,0-2.37,1.76c-.89,1.67-1.84,3.16-3.92,3.49a.69.69,0,0,0-.55.84c.13.42.55.27.85.28A22.84,22.84,0,0,0,69.92,71a11.92,11.92,0,0,0,5.33-2,69.43,69.43,0,0,0,7.55-6.78,1.8,1.8,0,0,1,1.57-.69,30.6,30.6,0,0,1-4.78,7.25c-2.07,2.21-4.93,3-7.69,3.9a10,10,0,0,1-6,.19,8.65,8.65,0,0,0-5.85.06c-2.44,1-5.25.8-7.6,2.21-.49.3-.93.5-1,1.11A29.33,29.33,0,0,1,39.8,68.33a1.8,1.8,0,0,0,.33,1.21c.68,1.55,1.92,2.74,2.75,4.19-.87-.27-1.56.4-2.37.44s-.89.44-.45,1a34.08,34.08,0,0,0,5.35,6C46,81.67,46.82,81.93,47,82.8ZM39.43,68.12l-.09,0,.12,0Z"/><path class="cls-10" d="M23.14,60.32a11.09,11.09,0,0,0,0,5.46,25,25,0,0,0,3.32,7.88,2.15,2.15,0,0,0,1,.8c-.28-1.48-.63-2.95-.83-4.44a38.59,38.59,0,0,1-.33-11.1c.06-.39.08-.91.59-.94s.52.52.7.87q1.47,2.86,2.95,5.73c.19.36.38.75.89.74A20.22,20.22,0,0,0,32.81,71c-.25.8.45,1.27.69,1.88a24.71,24.71,0,0,0,7.34,10,2.8,2.8,0,0,0,.55.26.81.81,0,0,1-.94.42,12.53,12.53,0,0,1-4.73-1.75,14,14,0,0,0-2.42-2.92l.48,1.68a1.88,1.88,0,0,1-1.48-.44A35.68,35.68,0,0,1,16.8,61.43c-.32-.92-.52-1.88-.78-2.82a4.68,4.68,0,0,0,.66-2.34l-.79.51a19.06,19.06,0,0,1-1.05-3.37c.24,0,.35-.13.46-.32,2.31-4.06,5.05-7.72,9.33-9.94l1-.38a19,19,0,0,1,.25,3.53,5.21,5.21,0,0,0,1,3.27,32.71,32.71,0,0,0-2.79,7.12A14.31,14.31,0,0,0,23.14,60.32Zm-2.61-7.93a1,1,0,0,0,.29-.21,23.8,23.8,0,0,0,2.69-3.91c.11-.22.2-.49-.07-.64s-.46,0-.66.19a9,9,0,0,0-2.55,4C20.14,52,20.05,52.36,20.53,52.39Z"/><path class="cls-10" d="M51.45,76.24c0-.61.49-.81,1-1.11,2.35-1.41,5.16-1.24,7.6-2.21a8.65,8.65,0,0,1,5.85-.06,10,10,0,0,0,6-.19c2.76-.89,5.62-1.69,7.69-3.9a30.6,30.6,0,0,0,4.78-7.25,1.8,1.8,0,0,0-1.57.69A69.43,69.43,0,0,1,75.25,69a11.92,11.92,0,0,1-5.33,2,22.84,22.84,0,0,1-5.21.69c-.3,0-.72.14-.85-.28a.69.69,0,0,1,.55-.84c2.08-.33,3-1.82,3.92-3.49a3.24,3.24,0,0,1,2.37-1.76.79.79,0,0,0,.72-.58,8.74,8.74,0,0,0,3.71-1.4,9.63,9.63,0,0,0,1-.4,26.65,26.65,0,0,0,9.37-8.63,6.93,6.93,0,0,1,1.38-1.85c.69,1.07.11,2.19-.06,3.19A36,36,0,0,1,75.63,76a34.57,34.57,0,0,1-7.57,5.19,4.66,4.66,0,0,1-.94.28,24.9,24.9,0,0,1-7.56-1.78c-2.46-1-4.89-2-7.34-2.94Z"/><path class="cls-10" d="M73.65,62.66a1.75,1.75,0,0,1,.52-2.88,2,2,0,0,0,.94-2.09.77.77,0,0,1,0-.48c.94-1.43.4-3,.4-4.49.8-1.25,2-2.25,2.53-3.67a15.16,15.16,0,0,0,3.14-6,22.24,22.24,0,0,0-.38-9.7A61.32,61.32,0,0,0,78,25.43c1.84,1.22,2.85,3.12,4,4.89a36,36,0,0,1,5.1,13.21,8.66,8.66,0,0,1,.05,1.35c-.37,0-.47.27-.58.53-1.29,3.25-3.36,6-5.28,8.91a44.94,44.94,0,0,1-6.7,7.74Z"/><path class="cls-10" d="M75.56,39.13c-1.28-.35-1.17-1.72-1.83-2.55s-1-1.53-2.08-1.33a24.27,24.27,0,0,0-1.7-6.2,1.79,1.79,0,0,0-.11-.47,28.57,28.57,0,0,0-7-9,22.6,22.6,0,0,1-3.42-3.14l.62-.39.27-.28c1.12-1,2.28-.54,3.46-.11A38.35,38.35,0,0,1,76.4,23.46c.11.1.13.29.2.43l.25.49v0a22.92,22.92,0,0,1,1.25,6.93c-.61-.75-1-1.31-1.52-1.86-.13-.15-.28-.33-.51-.23s-.16.34-.19.53a12.66,12.66,0,0,0,.23,2.68A50.32,50.32,0,0,1,75.56,39.13Z"/><path class="cls-3" d="M61.75,85.3l-.26-.3a.75.75,0,0,1,.57-.69A36.53,36.53,0,0,0,80.42,71.84a37.4,37.4,0,0,0,6.94-14.49,35.38,35.38,0,0,0,0-16.18,33.45,33.45,0,0,0-6.49-13.78A35.27,35.27,0,0,0,67.69,16.58c-1.48-.67-3-1.38-4.45-2-.41-.18-.8-.33-.6-.86s.59-.26.94-.18a28,28,0,0,1,8.84,4.17A36.47,36.47,0,0,1,78.9,23.1,38,38,0,0,1,88.41,40,34.62,34.62,0,0,1,89.6,51.7a37.9,37.9,0,0,1-5.32,16.92,38.61,38.61,0,0,1-6.81,8.5c-4.12,3.7-8.64,6.73-14.14,8A10.54,10.54,0,0,1,61.75,85.3Z"/><path class="cls-10" d="M42.11,16.06a9.68,9.68,0,0,0,3.82.42l6.71,0c.93.67,1.89,1.3,2.78,2a27.28,27.28,0,0,1,5.32,5c.3.4.82.81.37,1.39a1.79,1.79,0,0,1-2.18-.18,7.14,7.14,0,0,0-2-2.33,6.79,6.79,0,0,0-4.73-1.7A6.26,6.26,0,0,0,54.12,23c.62.64.72,1-.26,1.35-.63.23-1.53.2-1.7,1.16a22.39,22.39,0,0,0-3.35-2.1c-2.12-1.56-4.66-2.09-7.07-2.91a32.47,32.47,0,0,0-10-1.27c.08-.62.66-.68,1.05-.91a38.34,38.34,0,0,1,6.28-3c.82-.32,1.56-.44,2.15.41C41.42,16,41.78,16,42.11,16.06Z"/><path class="cls-10" d="M15,46.11a28.27,28.27,0,0,1,2.36-10.32,36.37,36.37,0,0,1,7.16-11.18,16.74,16.74,0,0,1,1.78-1.47,6,6,0,0,0,.74-.08,28.29,28.29,0,0,1,12.65-.2,47.75,47.75,0,0,1,7,2c.21,0,.43.06.54.28a40.47,40.47,0,0,1-7.38-.41l-1.21-.11A17.78,17.78,0,0,0,31,25.88c-.58-2-2.12-2.49-3.75-1.2a13.19,13.19,0,0,0-4.41,6.08c-.57,1.65-.5,1.89,1.12,2.49a2,2,0,0,0,2.28-.79,42.63,42.63,0,0,0,4.44-5.4l1.51.07c-1.37,1.66-2.73,3.33-4.11,5a11,11,0,0,0-2.29,4.26c-.83.23-1.36,1.08-2.29,1.09.15-.55.27-1.12.47-1.65.35-.9-.24-1.21-.88-1.43s-1.62-.75-2.05.26a17,17,0,0,0-1.41,6.41c-.45.16-.7.55-1,.85A37.55,37.55,0,0,0,15,46.11Z"/><path class="cls-9" d="M75.56,39.13a50.32,50.32,0,0,0,.54-6.72,12.66,12.66,0,0,1-.23-2.68c0-.19-.05-.43.19-.53s.38.08.51.23c.47.55.91,1.11,1.52,1.86a22.92,22.92,0,0,0-1.25-6.93c.68,0,.73.76,1.16,1.07a61.32,61.32,0,0,1,2.84,7.93,22.24,22.24,0,0,1,.38,9.7,15.16,15.16,0,0,1-3.14,6c-.17-1.32-1-2.58-.68-3.92.44-2-.24-3.68-1-5.39-.15-.31-.33-.57-.73-.52Z"/><path class="cls-10" d="M47,82.8c-.18-.87-1-1.13-1.59-1.59a34.08,34.08,0,0,1-5.35-6c-.44-.57-.4-1,.45-1s1.5-.71,2.37-.44l1.86,1.68a2.43,2.43,0,0,0,.77.76,29.71,29.71,0,0,0,6.85,3.72,44.59,44.59,0,0,0,7.47,2.17c-.13.78-.74.49-1.17.5-2.76.11-5.51.5-8.27,0A14.32,14.32,0,0,0,47,82.8Z"/><path class="cls-9" d="M23.48,37.46c.93,0,1.46-.86,2.29-1.09a4.58,4.58,0,0,0,.57,2.46c-.09.35-.51.39-.66.66-.67,1.13-1.78,2.13-1.05,3.66-4.28,2.22-7,5.88-9.33,9.94-.11.19-.22.34-.46.32a54.6,54.6,0,0,1-.08-6,2.44,2.44,0,0,1,.27-1.3,37.55,37.55,0,0,1,3.54-4.21c.34-.3.59-.69,1-.85,1.81.68,2.78.21,3.29-1.59C23.09,38.79,23.28,38.13,23.48,37.46Z"/><path class="cls-9" d="M74.59,62.06a44.94,44.94,0,0,0,6.7-7.74c1.92-2.87,4-5.66,5.28-8.91.11-.26.21-.55.58-.53a33.15,33.15,0,0,1,.32,4.88,5.54,5.54,0,0,1-.58,2.72,6.93,6.93,0,0,0-1.38,1.85A26.65,26.65,0,0,1,76.14,63a9.63,9.63,0,0,1-1,.4A1.73,1.73,0,0,0,74.59,62.06Z"/><path class="cls-4" d="M46.76,24.83a47.75,47.75,0,0,0-7-2,28.29,28.29,0,0,0-12.65.2,6,6,0,0,1-.74.08,7.23,7.23,0,0,1,2.94-2.22,19.69,19.69,0,0,1,6.58-.34c3.86.73,7.6,1.94,11.4,2.91C47.19,24,46.64,24.28,46.76,24.83Z"/><path class="cls-9" d="M47.25,23.49c-3.8-1-7.54-2.18-11.4-2.91a19.69,19.69,0,0,0-6.58.34,4,4,0,0,1,2.47-1.73,32.47,32.47,0,0,1,10,1.27c2.41.82,4.95,1.35,7.07,2.91Z"/><path class="cls-9" d="M59.83,82.06a44.59,44.59,0,0,1-7.47-2.17,29.71,29.71,0,0,1-6.85-3.72,2.43,2.43,0,0,1-.77-.76,4.07,4.07,0,0,1,2.09.61,22.87,22.87,0,0,0,4.68,1.8c.14.35.48.41.78.52,2.69,1,5.37,1.94,8.07,2.84a14.3,14.3,0,0,0,5.15.87,3.07,3.07,0,0,1-1.73.67l-3.18-.41Z"/><path class="cls-4" d="M65.51,82.05a14.3,14.3,0,0,1-5.15-.87c-2.7-.9-5.38-1.89-8.07-2.84-.3-.11-.64-.17-.79-.52.38-.29.77-.56.72-1.12,2.45,1,4.88,2,7.34,2.94a24.9,24.9,0,0,0,7.56,1.78A2.24,2.24,0,0,1,65.51,82.05Z"/><path class="cls-10" d="M60.6,82.31l3.18.41C62.45,83.74,61.1,84.08,60.6,82.31Z"/><path class="cls-9" d="M33.78,80.55l-.48-1.68a14,14,0,0,1,2.42,2.92A4.09,4.09,0,0,1,33.78,80.55Z"/><path class="cls-9" d="M15.89,56.78l.79-.51A4.68,4.68,0,0,1,16,58.61C16,58,15.63,57.41,15.89,56.78Z"/><path class="cls-9" d="M76.85,24.38l-.25-.49A.45.45,0,0,1,76.85,24.38Z"/><path class="cls-8" d="M73.58,9.35c-.1.71-.46,1.21-1.23,1.23A1.19,1.19,0,0,1,71,9.3,1.15,1.15,0,0,1,72.23,8C73.05,8,73.45,8.56,73.58,9.35Z"/><path class="cls-8" d="M88.25,21.13c-.06.68-.34,1.27-1.15,1.25A1.32,1.32,0,0,1,85.74,21,1.17,1.17,0,0,1,87,19.74C87.86,19.72,88.23,20.27,88.25,21.13Z"/><path class="cls-6" d="M86.71,18.9l-.09,0a.28.28,0,0,1,.1-.09s0,0,.07.06Z"/><path class="cls-8" d="M90.4,72.69c.13-.33-.21-.49-.28-.76a1.34,1.34,0,0,1,.56-1.6,1.25,1.25,0,0,1,1.48,0,1.16,1.16,0,0,1,.43,1.41,1.3,1.3,0,0,1-1.37,1c-.27,0-.55-.05-.82-.07Z"/><path class="cls-7" d="M90.4,73l1.25.35c-.49.1-1.05.46-1.28-.32Z"/><path class="cls-7" d="M89.63,71.62l-.12.17a.52.52,0,0,1-.08-.19c0-.06.07-.12.1-.18Z"/><path class="cls-7" d="M90.4,72.69V73l0,0a.46.46,0,0,1-.49-.51h0l.5.23Z"/><path class="cls-7" d="M89.88,72.47l-.1-.11.12.1Z"/><path class="cls-8" d="M29.32,8.14c.73-.22,1.39-.2,1.7.63a1.25,1.25,0,0,1-.37,1.54c-.88.67-1.47,0-2.09-.51v-1l.77-.73Z"/><path class="cls-7" d="M28.55,8.84v1.71l0,0c-.93-.62-.43-1.47-.31-2.23,0-.25.32-.45.31-.76h0c.38,0,.74,0,.78.55v0A.68.68,0,0,0,28.55,8.84Z"/><path class="cls-7" d="M29.37,11l-.08.05-.06-.11a.15.15,0,0,1,.09,0S29.35,10.92,29.37,11Z"/><path class="cls-7" d="M28.57,10.55l.09.13-.12-.1Z"/><path class="cls-8" d="M10.11,72.69l-.3-.5a1.25,1.25,0,0,1,.09-1.67,1.13,1.13,0,0,1,1.31-.35,1.3,1.3,0,0,1,.86,1.44c0,.2,0,.4-.06.6h0c-.19,0-.24.11-.26.26h0c-.16,0-.27.08-.27.26l0,0H10.11Z"/><path class="cls-7" d="M12,72.21l.66-.49c.1,1.14-.31,1.68-1.37,1.74-.57,0-1.15,0-1.72,0h0c0-.39,0-.73.52-.77h0a.83.83,0,0,0,1.47,0l0,0,.27-.26h0L12,72.2Z"/><path class="cls-8" d="M14,20.41c.69-.69,1.42-1.1,2.3-.3l.21,1.06-.17.51h0a1.41,1.41,0,0,1-1.82.46C13.8,21.73,13.92,21.06,14,20.41Z"/><path class="cls-3" d="M16.52,21.17l-.21-1.06.17-.18c.26.15.35.55.74.5,0,.47.08,1-.49,1.23h0Z"/><path class="cls-7" d="M17.22,20.43c-.39.05-.48-.35-.74-.5v-.49C17.08,19.51,17.12,20,17.22,20.43Z"/><path class="cls-3" d="M16.34,21.67h0l.38,0h0l-.18.27Z"/><path class="cls-7" d="M16.48,19.44l-.24-.24Z"/><path class="cls-9" d="M52.16,25.47c.17-1,1.07-.93,1.7-1.16,1-.35.88-.71.26-1.35a6.26,6.26,0,0,1-1.88-2.28A6.79,6.79,0,0,1,57,22.38a7.14,7.14,0,0,1,2,2.33,1.79,1.79,0,0,0,2.18.18c.45-.58-.07-1-.37-1.39a27.28,27.28,0,0,0-5.32-5c-.89-.71-1.85-1.34-2.78-2a28.9,28.9,0,0,1,6.83,0,22.06,22.06,0,0,0,3.41,3.14,28.57,28.57,0,0,1,7,9,1.79,1.79,0,0,1,.11.47,6.68,6.68,0,0,1-3.47-1.64,19.87,19.87,0,0,0-3.88-1.88c1.33,2.37,2.51,4.77,3.72,7.16,1,2,2.13,4,2.32,6.28a7.29,7.29,0,0,1-.31,3.69,5.78,5.78,0,0,0-1.07-2.85,14.45,14.45,0,0,0,.35,3.65A9.54,9.54,0,0,1,66.49,50c-.17.29-.34.67-.66.67s-.5-.47-.59-.81A2.59,2.59,0,0,0,64,48.25a21.49,21.49,0,0,0,.24-5,13.91,13.91,0,0,0-1.77-6.56,26.44,26.44,0,0,0-5.81-6.36c.16-.13.15-.22-.07-.26v0l-.43-.54a.75.75,0,0,0-.5-.51h0C54.71,27.65,53.25,26.74,52.16,25.47Z"/><path class="cls-11" d="M64,48.25a2.59,2.59,0,0,1,1.24,1.58c.09.34.12.82.59.81s.49-.38.66-.67a9.54,9.54,0,0,0,1.12-6.51,14.45,14.45,0,0,1-.35-3.65,5.78,5.78,0,0,1,1.07,2.85A7.29,7.29,0,0,0,68.64,39c-.19-2.3-1.31-4.27-2.32-6.28-1.21-2.39-2.39-4.79-3.72-7.16a19.87,19.87,0,0,1,3.88,1.88A6.68,6.68,0,0,0,70,29.05a24.27,24.27,0,0,1,1.7,6.2c-.08,2.07.24,4.17-.42,6.55-.86-1.76-.91-3.59-2.23-4.89a25.19,25.19,0,0,1,.43,11,4.71,4.71,0,0,0-1,2c-.86.81-1.45,1.84-2.31,2.67a24.6,24.6,0,0,1-7,4.52l-.83.19a10.62,10.62,0,0,1-6.41-.12c-2-.78-3.78-2.72-3.87-4.26a13.08,13.08,0,0,0,1.38,1.23,7.76,7.76,0,0,0,8.57.56c2.71-1.47,4.95-3.32,5.86-6.42A.87.87,0,0,0,64,48.25Z"/><path class="cls-11" d="M45.86,70.27c-3-.42-5.11-2.17-7-4.4a10.79,10.79,0,0,0-2.37-2.73c-.64-.41-.64-1.38-.84-2.13-.77-2.87-1.27-5.82-.48-8.71,1-3.47,2.24-6.85,5.37-9.09a4.41,4.41,0,0,0,1.74-3.13,13.06,13.06,0,0,1,10.32.69c3.56,1.92,5.76,6.73,2.73,9.91l-.46.1,0,0a1.51,1.51,0,0,1,.08-.48,5.72,5.72,0,0,0-1.76-7.15,9.59,9.59,0,0,0-10.89-.21,12.41,12.41,0,0,0-4.47,4.43,5.65,5.65,0,0,0-1.29,3.39c.17,1.8,0,3.59.13,5.39a17.68,17.68,0,0,0,.6,3.74l.52-1.6a17.7,17.7,0,0,0,3.56,7.24C42.64,67.2,43.86,69,45.8,70Z"/><path class="cls-1" d="M55.38,50.68c3-3.18.83-8-2.73-9.91a13.06,13.06,0,0,0-10.32-.69,16.74,16.74,0,0,0-8.9,5.05l-1.14,1.11c-.33-1.37.57-2.51.69-3.79a18,18,0,0,1,10.75-4.84c2.94.2,5.89.32,8.63,1.7A10.67,10.67,0,0,0,47.45,36c-.72-.29-1.64-.25-2.1-1.08h1a13.42,13.42,0,0,1,10.06,5.49,15.3,15.3,0,0,1,1.85,4.76c.43,2.66.09,5.14-2.08,7A1.5,1.5,0,0,0,55.38,50.68Z"/><path class="cls-1" d="M45.8,70c-1.94-1-3.16-2.79-4.42-4.48a17.7,17.7,0,0,1-3.56-7.24l-.52,1.6a17.68,17.68,0,0,1-.6-3.74c-.11-1.8,0-3.59-.13-5.39a5.65,5.65,0,0,1,1.29-3.39,12.41,12.41,0,0,1,4.47-4.43c.2.7.9,1.21.77,2a9.9,9.9,0,0,0-3,4.69,16.81,16.81,0,0,0,2,13.5,24.87,24.87,0,0,0,3.45,5c.27.35.65.63.71,1.12C46.14,69.51,45.76,69.6,45.8,70Z"/><path class="cls-11" d="M75.65,39.22c.4,0,.58.21.73.52.78,1.71,1.46,3.4,1,5.39-.3,1.34.51,2.6.68,3.92-.56,1.42-1.73,2.42-2.53,3.67-1,1-2,2-3,2.92a22.17,22.17,0,0,1-6.77,4.73,4.54,4.54,0,0,1-2.25.52l0,0a33.47,33.47,0,0,0,6.7-6.59c.41-.48,1.08-1,.56-1.79-.06-.08.14-.36.26-.51,2.33-2.85,3.22-6.29,4.07-9.75C75.35,41.24,75.47,40.22,75.65,39.22Z"/><path class="cls-11" d="M66.49,54.47c-.14,1.38-1.45,2-2,3.08.6.25,1-.57,1.71-.25A14.79,14.79,0,0,1,61,60.15a13.85,13.85,0,0,1-7.43.8c-.87-.17-1.14.27-1.05,1a3.37,3.37,0,0,1,0,1.67c-3.13-1.18-5.71-3-7.14-6.15l-.2-.62,0-.07-.08,0a16.77,16.77,0,0,1-.61-3.28c.12-.31,0-.48-.31-.5L44,52.71a4.64,4.64,0,0,1,2.53-5.16c-.06,1.11-.73,2.06-.76,3.19a8.93,8.93,0,0,0,6.55,8.64c2.47.73,5,1,7.31-.43.23-.07.47-.12.69-.21A25.15,25.15,0,0,0,66.49,54.47Z"/><path class="cls-11" d="M42.15,63.15a16.81,16.81,0,0,1-2-13.5,9.9,9.9,0,0,1,3-4.69,6,6,0,0,1,3.27-1.05,6.42,6.42,0,0,1,5.33,1.43h0c-.39.08-.72-.13-1.08-.18-1.73-.24-3.44-.33-4.9.93-3.11,1.52-4.17,6.34-3.34,8.62l0,.53.11.27a11.72,11.72,0,0,0,.64,2.39,1,1,0,0,1-.69-.19c-.24-.17-.43-.65-.78-.33a1.2,1.2,0,0,0-.46,1.16,15.59,15.59,0,0,0,1.34,3.64C42.78,62.64,43,63.15,42.15,63.15Z"/><path class="cls-1" d="M45.3,57.49c1.43,3.15,4,5,7.14,6.15a9.07,9.07,0,0,0,4.42,1.2,56,56,0,0,0,7.66-.43v.8c-1.81,1-3.88.91-5.76,1.23-.19.52,1.15.39.27,1.06-6.74.08-11.73-3-15.39-8.52a.93.93,0,0,1-.2-.81C44.12,58.1,44.93,58.4,45.3,57.49Z"/><path class="cls-12" d="M33,42.45c-.12,1.28-1,2.42-.69,3.79A36.37,36.37,0,0,1,28.75,52c-1.45,1.64-2.62,3.53-3.91,5.3a.71.71,0,0,0-.74-.56,32.71,32.71,0,0,1,2.79-7.12,6.06,6.06,0,0,0,.57-.79A21.48,21.48,0,0,1,33,42.45Z"/><path class="cls-11" d="M32.81,71a20.22,20.22,0,0,1-1.3-5.63c.13-1.33-.16-2.68.22-4.19A11.32,11.32,0,0,1,33,64.19a35.17,35.17,0,0,0,5.85,9.61c.26.31.66.61.46,1.06s-.8.32-1.2.29a3.23,3.23,0,0,1-2.91-1.92A3.61,3.61,0,0,0,32.81,71Z"/><path class="cls-12" d="M52.22,76.7c.05.56-.34.83-.72,1.12A23,23,0,0,1,46.83,76a4.07,4.07,0,0,0-2.09-.61l-1.86-1.68c-.83-1.45-2.07-2.64-2.75-4.19a1.8,1.8,0,0,1-.33-1.21,29.33,29.33,0,0,0,11.65,7.91Z"/><path class="cls-1" d="M66.49,54.47a25.15,25.15,0,0,1-6.16,4.27c-.22.09-.46.14-.69.21-.16-.62.2-1.4-.56-1.83a24.6,24.6,0,0,0,7-4.52c.86-.83,1.45-1.86,2.31-2.67l.08.6a25.49,25.49,0,0,0-1.3,2.87l-.22.33h0a.74.74,0,0,0-.49.73Z"/><path class="cls-13" d="M45.3,57.49c-.37.91-1.18.61-1.86.68-.08-.1-.17-.19-.25-.28a11.72,11.72,0,0,1-.64-2.39l-.11-.27c0-.18,0-.36,0-.53.45-.06.47-.4.43-.72-.1-.9.39-1.22,1.18-1.27l.12.26a.35.35,0,0,0,.31.5,16.77,16.77,0,0,0,.61,3.28.22.22,0,0,0,.05.12Z"/><path class="cls-11" d="M59,67.5c.88-.67-.46-.54-.27-1.06,1.88-.32,4-.24,5.76-1.23l.54.06c-.63,1.41-2.14,1.37-3.26,1.91A4.77,4.77,0,0,1,59,67.5Z"/><path class="cls-11" d="M74.59,62.06a1.73,1.73,0,0,1,.54,1.3,8.74,8.74,0,0,1-3.71,1.4c.33-1.14,1.62-1.26,2.23-2.1Z"/><path class="cls-12" d="M65.06,65.27l-.54-.06v-.8c1.45-.57,3-.76,4.39-1.56a.38.38,0,0,1,.21.46c-1.24.33-2.13,1.32-3.33,1.72l-.41.23Z"/><path class="cls-12" d="M45.8,70c0-.39.34-.48.51-.72L49.83,72a13.91,13.91,0,0,1-4-1.75A2.74,2.74,0,0,0,45.8,70Z"/><path class="cls-4" d="M24.1,56.69a.71.71,0,0,1,.74.56,6.4,6.4,0,0,1-1.7,3.07A14.31,14.31,0,0,1,24.1,56.69Z"/><path class="cls-11" d="M69.12,63.31a.38.38,0,0,0-.21-.46A10.71,10.71,0,0,1,72,61.24,5.33,5.33,0,0,1,69.12,63.31Z"/><path class="cls-12" d="M68.52,50.53l-.08-.6a4.71,4.71,0,0,1,1-2A5.64,5.64,0,0,1,68.52,50.53Z"/><path class="cls-11" d="M66.5,54.47a.74.74,0,0,1,.49-.73C67,54.1,67,54.47,66.5,54.47Z"/><path class="cls-12" d="M39.43,68.12l0,.07-.12,0Z"/><path class="cls-11" d="M67,53.73l.22-.33Z"/><path class="cls-11" d="M65.38,65.26l.41-.23Z"/><path class="cls-11" d="M63.54,60.89l-.11.09.09-.11Z"/><path class="cls-11" d="M45.35,34.88c.46.83,1.38.79,2.1,1.08a10.67,10.67,0,0,1,4.91,3.35c-2.74-1.38-5.69-1.5-8.63-1.7.14-.53-.15-.62-.59-.64A19.8,19.8,0,0,0,37,37.6a49.54,49.54,0,0,0-11.33,5.17l-1,.38c-.73-1.53.38-2.53,1.05-3.66.15-.27.57-.31.66-.66l1.4.32c.67.17,1.34.56,2,0a1.7,1.7,0,0,0,1.37-.69c1.23-1.54,2.42-3.11,3.63-4.67l.44-.2a33.32,33.32,0,0,1,9.65.93C45.08,34.53,45.27,34.62,45.35,34.88Z"/><path class="cls-9" d="M25.62,42.77A49.54,49.54,0,0,1,37,37.6,19.8,19.8,0,0,1,43.14,37c.44,0,.73.11.59.64A18,18,0,0,0,33,42.45a21.48,21.48,0,0,0-5.52,6.33,6.06,6.06,0,0,1-.57.79,5.21,5.21,0,0,1-1-3.27A19,19,0,0,0,25.62,42.77Z"/><path class="cls-9" d="M20.53,52.39c-.48,0-.39-.39-.3-.61a9,9,0,0,1,2.55-4c.2-.15.41-.33.66-.19s.18.42.07.64a23.8,23.8,0,0,1-2.69,3.91A1,1,0,0,1,20.53,52.39Z"/><path class="cls-12" d="M52.16,25.47c1.09,1.27,2.55,2.18,3.5,3.59-.61.11-1-.35-1.4-.62a30,30,0,0,0-6.73-3.35H47.3c-.11-.22-.33-.25-.54-.28-.12-.55.43-.85.49-1.34l1.56-.12A22.39,22.39,0,0,1,52.16,25.47Z"/><path class="cls-11" d="M47.53,25.09a30,30,0,0,1,6.73,3.35c.42.27.79.73,1.4.62h0c0,.36.21.46.5.51l.43.54-.82,0a10.58,10.58,0,0,0-5.24-1.62c1.38.65,2.57,1.58,3.91,2.25A33.92,33.92,0,0,1,59,35.49a14.24,14.24,0,0,1,2.14,4.19c-.63-.43-.59-1.1-1.34-1.22.88,2.68,1.88,5.25,1.73,8-.61.81-.56,1.84-.94,2.74-.89,2.1-3.25,4.49-5.66,4.09l1.24-1.15c2.17-1.91,2.51-4.39,2.08-7a15.3,15.3,0,0,0-1.85-4.76c3.06-.72,3.42-1.38,1.67-3.66a21.81,21.81,0,0,0-8-6.15,47.09,47.09,0,0,0-6.43-2.25c-.17-.06-.55-.14-.39-.28.91-.83-.4-.38-.37-.67a12.44,12.44,0,0,0-3.28-.26l-1.19,0c-.43-1.38,1-1.59,1.5-2.37a40.47,40.47,0,0,0,7.38.41h0C47.36,25.28,47.45,25.24,47.53,25.09Zm12.18,13,0-.07h-.07Z"/><path class="cls-12" d="M35.16,33.54l-.44.2a20.62,20.62,0,0,0-6.11,1.18,1.37,1.37,0,0,0-1,2c.37.94.8,2,2.07,2.16-.64.61-1.31.22-2,0l-1.4-.32a4.58,4.58,0,0,1-.57-2.46,11,11,0,0,1,2.29-4.26c1.38-1.65,2.74-3.32,4.11-5,.82-.89,1.64,0,2.46,0A3.41,3.41,0,0,1,36.76,30C36.87,31.46,35.83,32.42,35.16,33.54Z"/><path class="cls-12" d="M30.66,27.06a42.63,42.63,0,0,1-4.44,5.4,2,2,0,0,1-2.28.79c-1.62-.6-1.69-.84-1.12-2.49a13.19,13.19,0,0,1,4.41-6.08c1.63-1.29,3.17-.77,3.75,1.2C30.87,26.27,30.77,26.67,30.66,27.06Z"/><path class="cls-12" d="M23.48,37.46c-.2.67-.39,1.33-.58,2-.51,1.8-1.48,2.27-3.29,1.59A17,17,0,0,1,21,34.64c.43-1,1.34-.5,2.05-.26s1.23.53.88,1.43C23.75,36.34,23.63,36.91,23.48,37.46Z"/><path class="cls-9" d="M30.66,27.06c.11-.39.21-.79.32-1.18a17.78,17.78,0,0,1,7.73-1.29l1.21.11c-.52.78-1.93,1-1.5,2.37l-3.79.05c-.82,0-1.64-.88-2.46,0Z"/><path class="cls-2" d="M28.55,8.84a.68.68,0,0,1,.77-.73C29.07,8.36,28.81,8.6,28.55,8.84Z"/><path class="cls-2" d="M11.55,72.69a.83.83,0,0,1-1.47,0Z"/><path class="cls-2" d="M12,72.2l-.26.26C11.8,72.31,11.85,72.19,12,72.2Z"/><path class="cls-2" d="M11.8,72.45l-.27.26C11.53,72.53,11.64,72.47,11.8,72.45Z"/><path class="cls-2" d="M16.73,21.66l-.38,0c0-.17.11-.34.17-.51Z"/><path class="cls-1" d="M61.52,46.51c.15-2.8-.85-5.37-1.73-8,.75.12.71.79,1.34,1.22A14.24,14.24,0,0,0,59,35.49a33.32,33.32,0,0,0-4.56-4.79c.23-.66.79-.64,1.33-.64l.82,0v0a2.5,2.5,0,0,1,.07.26,26.44,26.44,0,0,1,5.81,6.36,13.91,13.91,0,0,1,1.77,6.56,21.49,21.49,0,0,1-.24,5,.87.87,0,0,1-.22,0c-.43,0-.6-.3-.82-.61A2.52,2.52,0,0,0,61.52,46.51Zm-.3-6.31a.36.36,0,0,0,0-.11s0,0-.07,0a.36.36,0,0,0,0,.1S61.19,40.19,61.22,40.2Z"/><path class="cls-12" d="M56.15,29.56c-.29,0-.52-.15-.5-.51A.75.75,0,0,1,56.15,29.56Z"/><path class="cls-11" d="M56.66,30.33a2.5,2.5,0,0,0-.07-.26C56.81,30.11,56.82,30.2,56.66,30.33Z"/><path class="cls-13" d="M61.52,46.51A2.52,2.52,0,0,1,63,47.69c.22.31.39.61.82.61-.91,3.1-3.15,5-5.86,6.42a7.76,7.76,0,0,1-8.57-.56A13.08,13.08,0,0,1,48,52.93c.09,1.54,1.86,3.48,3.87,4.26a10.62,10.62,0,0,0,6.41.12l.83-.19c.76.43.4,1.21.56,1.83-2.36,1.41-4.84,1.16-7.31.43a8.93,8.93,0,0,1-6.55-8.64c0-1.13.7-2.08.76-3.19v0l.15-.1-.16-.12c-1,0-.66-.76-.78-1.27,1.46-1.26,3.17-1.17,4.9-.93.36.05.69.26,1.08.18l.09.14s0-.07,0-.08l-.11,0a6.42,6.42,0,0,0-5.33-1.43A6,6,0,0,0,43.1,45c.13-.83-.57-1.34-.77-2a9.59,9.59,0,0,1,10.89.21A5.72,5.72,0,0,1,55,50.28a1.51,1.51,0,0,0-.08.48c-.16,0-.33,0-.36.23,0,0,.1.14.14.14.2,0,.21-.19.24-.35l.46-.1a1.5,1.5,0,0,1,.78,1.51l-1.24,1.15c2.41.4,4.77-2,5.66-4.09C61,48.35,60.91,47.32,61.52,46.51ZM50.94,52a2.88,2.88,0,0,0,2.72-3c0-.76-1.52-2.46-2.17-2.45a2.87,2.87,0,0,0-3,2.85A2.32,2.32,0,0,0,50.94,52Z"/><path class="cls-9" d="M35.16,33.54c.67-1.12,1.71-2.08,1.6-3.55a4.63,4.63,0,0,0,2.85-2.88,12.44,12.44,0,0,1,3.28.26c0,.29,1.28-.16.37.67-.16.14.22.22.39.28a47.09,47.09,0,0,1,6.43,2.25,21.81,21.81,0,0,1,8,6.15c1.75,2.28,1.39,2.94-1.67,3.66a13.42,13.42,0,0,0-10.06-5.49.19.19,0,0,0-.32,0h-.66c-.08-.26-.27-.35-.54-.41A33.32,33.32,0,0,0,35.16,33.54Z"/><path class="cls-11" d="M46,34.88a.19.19,0,0,1,.32,0Z"/><path class="cls-1" d="M45.74,46.08c.12.51-.17,1.27.78,1.27a1.55,1.55,0,0,1,0,.22v0A4.64,4.64,0,0,0,44,52.71c-.79,0-1.28.37-1.18,1.27,0,.32,0,.66-.43.72C41.57,52.42,42.63,47.6,45.74,46.08Z"/><path class="cls-1" d="M44.44,53.47a.35.35,0,0,1-.31-.5C44.46,53,44.56,53.16,44.44,53.47Z"/><path class="cls-1" d="M45.1,56.87a.22.22,0,0,1-.05-.12l.08,0Z"/><path class="cls-1" d="M42.44,55.23l.11.27Z"/><path class="cls-1" d="M29.72,39.1c-1.27-.15-1.7-1.22-2.07-2.16a1.37,1.37,0,0,1,1-2,20.62,20.62,0,0,1,6.11-1.18c-1.21,1.56-2.4,3.13-3.63,4.67A1.7,1.7,0,0,1,29.72,39.1Z"/><path class="cls-10" d="M47.53,25.09c-.08.15-.17.19-.26,0Z"/><path class="cls-10" d="M39.61,27.11A4.63,4.63,0,0,1,36.76,30a3.41,3.41,0,0,0-2.13-2.87l3.79-.05Z"/><path class="cls-12" d="M55.76,30.06c-.54,0-1.1,0-1.33.64-1.34-.68-2.53-1.61-3.91-2.26A10.58,10.58,0,0,1,55.76,30.06Z"/><polygon class="cls-1" points="59.71 38.13 59.69 38.05 59.75 38.06 59.71 38.13"/><path class="cls-11" d="M61.22,40.2s-.07,0-.07,0a.36.36,0,0,1,0-.1s.07,0,.07,0A.36.36,0,0,1,61.22,40.2Z"/><path class="cls-14" d="M50.94,52a2.32,2.32,0,0,1-2.43-2.56,2.87,2.87,0,0,1,3-2.85c.65,0,2.16,1.69,2.17,2.45A2.88,2.88,0,0,1,50.94,52Z"/><path class="cls-1" d="M54.92,50.78c0,.16,0,.33-.24.35,0,0-.14-.09-.14-.14,0-.2.2-.21.36-.23Z"/><path class="cls-11" d="M46.53,47.57a1.55,1.55,0,0,0,0-.22l.16.12Z"/><path class="cls-11" d="M51.7,45.34l.11,0s0,0,0,.08l-.09-.14Z"/></g></g></svg>