<svg xmlns="http://www.w3.org/2000/svg" viewBox="0 0 327.45 333.51"><defs><style>.cls-1{fill:#fbfbfb;}.cls-2{fill:#1d1d1d;}.cls-3{fill:#f09536;}.cls-4{fill:#282b2c;}.cls-5{fill:#31363e;}.cls-6{fill:#d5dadc;}.cls-7{fill:#858c94;}.cls-8{fill:#4b535e;}.cls-9{fill:#b8bcbf;}.cls-10{fill:#b9c0c2;}.cls-11{fill:#505862;}.cls-12{fill:#515964;}.cls-13{fill:#f9cf55;}.cls-14{fill:#b64c44;}.cls-15{fill:#3684ac;}.cls-16{fill:#1d516f;}</style></defs><g id="Capa_2" data-name="Capa 2"><g id="Capa_1-2" data-name="Capa 1"><path class="cls-1" d="M251.54,71.33c-.29-.67-.61-1.29-1.5-1.22-.65-2-1.69-3.48-4.16-2.65a74,74,0,0,0-11.24,0c-2.27-.51-3.84.07-4.15,2.64-4.57,3.57-5.81,8.46-5.54,14-.11,2.29-.21,4.59-.34,7.25-3.57-1.93-6.68-4.08-10.11-5.34-5.81-2.12-7.73-5.91-7.95-12-.9-24.69-10.15-46.56-23.7-66.84-.83-1.24-1.5-2.73-3-3.28C171.07.71,162.29-2,153,2a20.55,20.55,0,0,1-4.31,1.36,6.5,6.5,0,0,0-4.35,3.13C135.68,19,129.81,32.9,124.84,47.23c-3.57,10.27-3.69,21-4.91,31.64-.14,1.22.24,2.76-1.19,3.43-5.45,2.54-10.49,5.92-16.17,8,0-2.85-.48-5.72-.52-8.52-.07-4.79-1.45-8.7-4.8-12C96,68.6,95.72,66.52,93.14,66.7c-4.17.29-8.37.07-12.56,0-1,0-2.08-.09-2.83.91-2.28,3.06-4.71,6-5.8,9.79-.76,2.63-.57,5.3-.71,8-.07,1.19-.41,1.39-1.31.64-4.4-4.59-8-10.1-14.08-12.78-2.73-1.21-3.61-2.9-3.63-5.85,0-9.19-.43-18.39-.67-27.58,0-1.72,0-3.4-2.55-3.13-4.91.53-7.3,3.13-7.31,8,0,1.63,0,3.26,0,4.89-1.84,2.72-4.38,5-5.54,8.14-1.34.36-1.72,1.58-2.32,2.6-9,13.6-18.06,27.11-26.82,40.84C3.76,106.26,1,112.2.74,118,0,139.61.18,161.28,0,182.94a3.16,3.16,0,0,0,1.93,3.32q19.74,9.62,39.39,19.43c2,1,2.7.11,3.31-1.55,1.35-3.71,2.84-7.38,4.11-11.11,2.72-8,6.62-15.72,5.86-24.55,0-.21.38-.45.9-1,.61,5.79.5,11.27,1.55,16.61a.37.37,0,0,0,.06.56c.62,3.9,3.61,6.07,6.23,8.51a26.75,26.75,0,0,0,.12,11.78c1.43,5.21,3.27,10.3,4.8,15.48,1.25,4.23,2.3,8.52,3.69,13.74,1.22-5,2.74-8.95,3-12.94.29-5,2.71-9.3,3.72-14.05a62,62,0,0,0,1.46-13.91c2.64-2.61,6.23-4.68,5.42-9.3,1-2.78,2.52-2.85,4.75-1.25a45,45,0,0,0,5.07,2.76c3.11,2.92,3.2,4,.63,7.61-2.36,3.32-4.65,6.69-7.11,9.93a11.45,11.45,0,0,0-2.45,7.71c.22,6.39.1,12.8.13,19.2.07,15.83.07,15.83,11.12,27.18.24.25.47.51.7.78a2.69,2.69,0,0,0,2.54.75c-2.18,7.49-1.73,15-.28,22.66,1.48-.82.67-2.44,2-3.27,1,8.74,1.13,17.46,3.85,25.84l.66-2.85c2.1,11,4.32,21.93,8.4,32.53.43-.39.7-.52.74-.7,2.7-10.22,5.31-20.47,6.6-31,.14-1.14.07-2.65.75-3.33,1.73-1.69,1.85-1.54,2.08-3,.69-4.62,1.4-9.24,2.17-14.27,1,1.62.57,3.22,1.91,4.57,1.73-9.42,2.44-18.55,0-27.71,2,.76,3.2-.12,4.3-1.78q2.81-4.2,5.95-8.18a8.44,8.44,0,0,0,1.9-5.41c0-2.64-.43-5.39.67-8.27.94,1.08,1.66,1.82,2.28,2.64,2.31,3,5.1,4.65,9.17,4.39a112.47,112.47,0,0,1,15.36.08c6.28.48,11.76-.33,15.2-6.36.07-.14.39-.14,1.12-.36,0,3.24,0,6.31,0,9.39,0,1.09-.18,2.18.87,3.17A43.29,43.29,0,0,1,193,256c1.28,2,2.59,3.14,5,2-3.1,9.52-2.38,19-.24,29,1-1.49.42-3.14,1.7-4,.82,4.79,1.6,9.49,2.44,14.18a16.73,16.73,0,0,0,.76,2.3c2.59-1.25,1.76,1.07,1.87,2a146.52,146.52,0,0,0,3.56,18.12c1.19,4.63,2.49,9.24,3.74,13.86a45.56,45.56,0,0,0,3.91-10.55c.92-3.72,1.58-7.5,2.38-11.25.74-3.46.63-7.1,2-10.73.95,1.22.27,2.63,1.58,3.58,1.65-8.93,2.09-17.67,2.73-26.59,1.62.73.81,2.7,2.38,3.16a57.43,57.43,0,0,0-.23-22.21c1.61.06,2.5-1,3.41-2.1,2.81-3.27,5.55-6.6,8.46-9.77a8.72,8.72,0,0,0,2.31-6.33q0-15.72.16-31.45a7.79,7.79,0,0,0-1.48-4.86c-2.85-4-5.6-8-8.42-12-1.41-2-2.09-4.35,0-5.87a37.28,37.28,0,0,1,9.76-5.1c.39,1.28.69,2.28,1,3.28.6,3.79,2.92,6.42,5.85,8.64-.4,3.93-.74,7.87.39,11.75,1.59,5.43,3.29,10.83,4.83,16.28,1,3.69,1.9,7.42,3.09,12.12,1.22-4.87,2.53-8.64,3.06-12.51.67-4.95,3.09-9.33,4.1-14.25a59.68,59.68,0,0,0,1.15-13.39c4.67-3.78,7.22-8.54,7.08-14.69a58.55,58.55,0,0,1,.54-6.58c1.42.12,1.15,1.23,1.13,2.08a15.24,15.24,0,0,0,1,5.47c2.82,7.87,5.73,15.71,8.45,23.62,1,3,2.22,3.69,5.25,2.14,12.29-6.31,24.69-12.43,37.11-18.49,2.12-1,2.72-2.36,2.69-4.62-.23-20.95-.35-41.9-.51-62.85a7.59,7.59,0,0,0-.29-2.75c-2.94-7.15-4.94-14.61-9.55-21.16-9.29-13.21-17.59-27.1-27.21-40.09-1.53-3.07-4.46-5.37-4.94-9,.29-7.15.21-7.3-5-9.11-3.41-1.2-4.14-.72-4.25,2.84q-.42,14.27-.82,28.53c-.05,1.66,0,3.25-1.92,4.06-6.75,2.89-11.09,8.6-15.92,13.72l-.58.43-.54-.61a13.52,13.52,0,0,0-.39-7.08A8.64,8.64,0,0,0,254,74.85l-1.45-2.54Z"/><path class="cls-2" d="M289.89,55.35c9.62,13,17.92,26.88,27.21,40.09,4.61,6.55,6.61,14,9.55,21.16a7.59,7.59,0,0,1,.29,2.75c.16,21,.28,41.9.51,62.85,0,2.26-.57,3.58-2.69,4.62-12.42,6.06-24.82,12.18-37.11,18.49-3,1.55-4.23.81-5.25-2.14-2.72-7.91-5.63-15.75-8.45-23.62a15.24,15.24,0,0,1-1-5.47c0-.85.29-2-1.13-2.07,0,0,0-.16-.14-.34a2.66,2.66,0,0,0-1.75-3.52c-1-.38-3.27.11-3.44,1.49-.35,2.91-1.54,6.09,1,8.73-2.66.8-4.78-1.3-7.3-1.35-3.63-.07-7.26-.26-10.82.7-2.59.61-5.89.09-6.43,4-1.05.72-.09,1.47,0,2.2l-1.18.71c-.3-1-.6-2-1-3.28a37.28,37.28,0,0,0-9.76,5.1c-2.09,1.52-1.41,3.88,0,5.87,2.82,4,5.57,8,8.42,12a7.79,7.79,0,0,1,1.48,4.86q-.18,15.72-.16,31.45a8.72,8.72,0,0,1-2.31,6.33c-2.91,3.17-5.65,6.5-8.46,9.77-.91,1.07-1.8,2.16-3.4,2.1a13.32,13.32,0,0,0-5.76-1.93,37.22,37.22,0,0,0-18.34-.23A8.3,8.3,0,0,0,198,258c-2.39,1.1-3.7,0-5-2a43.29,43.29,0,0,0-6.45-8.65c-1-1-.85-2.08-.87-3.17-.06-3.08,0-6.15,0-9.39-.73.22-1.05.22-1.12.36-3.44,6-8.92,6.84-15.2,6.36a112.47,112.47,0,0,0-15.36-.08c-4.07.26-6.86-1.35-9.17-4.39-.62-.82-1.34-1.56-2.28-2.64-1.1,2.88-.63,5.63-.67,8.27a8.44,8.44,0,0,1-1.9,5.41q-3.14,4-5.95,8.18c-1.1,1.66-2.31,2.54-4.3,1.78a10,10,0,0,0-4.77-1.36,33.65,33.65,0,0,0-18.19-.07c-2.2-.05-4,1-5.87,2a2.69,2.69,0,0,1-2.54-.75c-.23-.27-.46-.53-.7-.78-11-11.35-11-11.35-11.12-27.18,0-6.4.09-12.81-.13-19.2A11.45,11.45,0,0,1,88.86,203c2.46-3.24,4.75-6.61,7.11-9.93,2.57-3.62,2.48-4.69-.63-7.61,3.15-1.77,1.46-4.55,1.29-6.89-.2-2.64-2.26-3.12-4.52-3-.23-.9-.52-1.78-.68-2.68-2-11.5-1.74-23.13-2.05-34.72-.16-5.82-.06-11.64-.07-17.46,0-1.64.3-3.27-2.34-3.25s-2.62,1.52-2.61,3.41q.06,15.2,0,30.39c0,2.85-2.75,6.09-5,6s-4.78-3.3-4.79-5.85c0-10.13-.09-20.26.07-30.38,0-2.77-.74-3.92-3.52-3.41-2.5-.42-2.16,1.36-2.12,2.81.2,7,.43,14,.65,21,0,2.68-.14,5.36,0,8,.31,5.1-1.56,10.65,2.9,15-1.77,0-1.95.08-1.5,1,.35.72,1.09,1.4.33,2.15s-1.51.26-2.3.05c-3.46-.94-6.94-1.83-10.4-2.77-1.17-.31-2.31-.78-3.72.56,7.66,2.11,14.89,4.19,22.25,6.82-.22-2.52-2.74-3-2.57-5,1.74.11,2.39,1.67,3.47,2.64a41.14,41.14,0,0,0,14,8.6l0,0,.69.68c.46,0,.92,0,1.38,0,1.27.09,2.07,1,1.79,2-.38,1.38-1.52.44-2.27.15-1.81-.72-3.54-1.65-5.37-2.32-1.37-.5-2.74-1.92-4.34-.22a.78.78,0,0,1-1.38-.65c.19-1.89-1.3-2.32-2.36-2.25-2.33.15.35,1.24-.17,1.71-.28.25-.88.15-1.33.2a5.41,5.41,0,0,1-.58-.12V176.3c-.12-.55-.11-1.49-.37-1.57-4.08-1.27-7.65-4.11-12.17-4-1.84.23-2.93-2.07-4.88-1.46-1.12-.55-3.15-2.06-3.3-.5-.31,3-1.44,6.46,1.11,9.25l.64.94a1.43,1.43,0,0,0,.09.41c-1.88.06-1.19,1.43-1.25,2.44s.68,2.06-1,2.27c-1-5.34-.94-10.82-1.55-16.61-.52.58-.92.82-.9,1,.76,8.83-3.14,16.55-5.86,24.55-1.27,3.73-2.76,7.4-4.11,11.11-.61,1.66-1.31,2.55-3.31,1.55q-19.65-9.81-39.39-19.43A3.16,3.16,0,0,1,0,182.94c.18-21.66,0-43.33.74-65,.22-5.77,3-11.71,6.26-16.79,8.76-13.73,17.85-27.24,26.82-40.84,2,1.56-1.2,3.26.12,4.84l-.66,44.68h-.71c0-2.84,0-5.67,0-8.51,0-1,.45-2.39-1.26-2.67,2.57-9.54,1.22-19.21,1-28.84.12-1.12.23-2.24.42-4.12-3.32,3.79-5.44,7.5-7.77,11-.86,1.31-2.28,2.44-1.83,4.33.84,6.21.34,12.46.4,18.68,0,1,.24,2.21-1.31,2.38-.29-5.65.29-11.32-.41-17l.17-1.78c.13-.55.67-1.12-.1-1.61l-.42.74a159.89,159.89,0,0,0-13.27,20,66,66,0,0,0-5.91,16.24v45.79c5.63-2.3,7.73-6,7.44-12.21-.56-11.73-.11-23.5-.13-35.26a5.71,5.71,0,0,1,4.25-5.9c-.33,2.55-4.4,3.88-2.26,7.43a13.84,13.84,0,0,1,1.13-1.35c3.2-2.92,5.41-6.93,9.56-8.82-2.52,4.19-6.31,7.3-9.41,11a6.65,6.65,0,0,0-1.9,4.61c.07,10.44.11,20.87,0,31.3,0,3.22,1.12,2.62,2.85,1.25l.77.76q-5.37,4-10.75,8C1.38,167.1.64,174,2.57,176.62c0,.67.07,1.33.72,1.74,1.38.61,2.79,1.14,4.13,1.82,10,5.14,20.28,9.78,30.59,14.28,2.19.95,4.49,3.4,6.59,2.43s2.26-4.39,3.09-6.74c2.05-5.84,5.4-11.41,4.51-18,0-.54,0-1.07.08-1.6,1.1-.93.52-2.18.5-3.25q-.63-34.87-1.37-69.73c-.15-7.32-.45-14.64-.69-21.95Q50.38,59,50,42.49c-.11-4.69-.86-5.07-4.91-2.73a3.09,3.09,0,0,0-1.85,3c.11,3.25.1,6.5.14,9.76L43.32,63l-.78,0-.37-5.64.26-4.76c.34-1.16-.31-2.06-.75-3,0-1.63,0-3.26,0-4.89,0-4.88,2.4-7.48,7.31-8,2.5-.27,2.5,1.41,2.55,3.13.24,9.19.62,18.39.67,27.58,0,3,.9,4.64,3.63,5.85,6.07,2.68,9.68,8.19,14.08,12.78l-1,.09c-2.8-2-4.53-5.21-7.65-7a4.78,4.78,0,0,0-.24,3.25c-1.09,3,.73,6,.1,9-1.67,7.95,1.77,12.91,9,15.79a3.66,3.66,0,0,1,.57.4c.87.61,1.48.67,2.29-.33,1.83-2.24,3.88-4.31,5.83-6.44,2.08-.39,2.48-1.26.91-2.85a26.52,26.52,0,0,1-1.91-2.43l2.28-.29c2.48,5.12,3.79,5.45,8.77,3.42,3.5-1.43,5.14-3.52,4.6-7.34a30.75,30.75,0,0,1,0-4.5l.66,0v7.77l1.37,0c0-3.39.06-6.78,0-10.17,0-1-.75-1-1.44-.4l-.54,0-.7-.07c0-.42,0-.85,0-1.27l4.1-.37a2,2,0,0,0,.3.46c-1.68,2.2-.62,4.73-.78,7.1-.08,1.17-.75,2.88.55,3.5,1.14.54,2.28-.82,3.41-1.35.39-.18.66-.64,1-1a1.24,1.24,0,0,0,1.21-.74c5.68-2.07,10.72-5.45,16.17-8,1.43-.67,1.05-2.21,1.19-3.43,1.22-10.61,1.34-21.37,4.91-31.64,5-14.33,10.84-28.2,19.54-40.74a6.5,6.5,0,0,1,4.35-3.13A20.55,20.55,0,0,0,153,2c9.25-4,18-1.29,26.78,1.82,1.53.55,2.2,2,3,3.28,13.55,20.28,22.8,42.15,23.7,66.84.22,6.09,2.14,9.88,7.95,12,3.43,1.26,6.54,3.41,10.11,5.34.13-2.66.23-5,.34-7.25l.61,0c0,2.19,0,4.38.1,6.57.06,1.68,1.43,2.23,2.67,2.85a1,1,0,0,0,1.46-.36c1.18-1.61.67-8.74-.78-10.42l.08-.11c7.19.95,14.38,1.4,21.59.17.06.47.12.94.19,1.4,1,2.53-.52,5.15.21,8.16,1.93-2,4-3.32,3.94-6.11l.94,0,.54.61.58-.43c4.83-5.12,9.17-10.83,15.92-13.72,1.9-.81,1.87-2.4,1.92-4.06q.39-14.26.82-28.53c.11-3.56.84-4,4.25-2.84,5.17,1.81,5.25,2,5,9.11,0,1.84,0,3.68,0,5.52.07.24.13.48.2.72,0,1.61,0,3.21,0,4.82q-.15,5.25-.32,10.5L284,68c-.51-4.7.45-9.44-.3-14.15a59.52,59.52,0,0,0,.13-11.48c-.16-3.06-3.09-3.53-5.15-3.66-2.25-.14-1,2.18-1.18,3.45-.23,5.46-.55,10.92-.67,16.39q-1.16,53.76-2.2,107.54c0,1.38-.3,2.86.39,4.32,3.05-2.32,4.34-6,7.69-7.62-.18,2.69-2.2,4.27-3.91,5.86-3.69,3.43-4.62,7.21-2.64,11.89,1.71,4.07,3.12,8.26,4.61,12.41,1.85,5.17,1.86,5.24,6.77,2.92q17.18-8.15,34.29-16.4c.91-.44,2-.7,2.3-1.93,0-.39,0-.78,0-1.17.44,0,1.14.28,1.28.1,1.08-1.47.15-9.17-1.23-10.74l.6-.55c1.26-1,.69-2.38.7-3.57,0-7.8,0-15.59-.06-23.38-.08-6.27.37-12.55-.29-18.81-1.24-6-2.86-12-5.87-17.24-3.83-6.71-8.46-13-12.75-19.41-.16-.29-.31-.81-.5-.82-1.32-.1-.62.94-.62,1.4-.08,6.26-.09,12.52-.11,18.78-.84-.31-.72-1.06-.84-1.72-1.22-6.43-.05-12.86,0-19.29-1.31-5.9-5.8-9.75-9.48-14.28.09,1,.17,2,.26,3-.75,6.91-.36,13.83-.2,20.76.1,4.4,1,8.06,4.7,10.85,1.39,1,3,2.2,3.39,4.22-3.46-1-4.82-4.62-7.69-6.38-.4-.48-.56-.28-.62.22.17,2.73.92,5.43.43,8.2l-1.15,0Q294,86.87,293.78,66a4,4,0,0,0-.76-3.82c-1.34-2-2.62-4-3.92-6C289.36,55.9,289.62,55.62,289.89,55.35ZM238.17,179.77a1.47,1.47,0,0,0,1.4-.7l.9-.27-.17-.27-.76.51a1.5,1.5,0,0,0-1.39.71l-.15.31Zm-4.92,2.76-.9.29.17.25c.26-.16.51-.33.77-.51l.14-.31ZM149.41,5c-.54.11-1.21,0-1.44.72v0c-3.18,2.3-5,5.54-6.23,9.16l-.24.2.2-.25,4.76-3c1.9-.74,3.83-1.42,5.7-2.23,2.51-1.09,1.51-3.38,1.36-5.11-.11-1.24-1.28-.9-2-.11a3.09,3.09,0,0,0-2.14.68Zm86.05,221.48c-.9-1.13-2.25-1.23-3.5-1.58-.92-1.39-3.82,0-3.73-3.11.25-8.7.19-17.4.21-26.11,0-1,.34-2.23-.69-3.18-1.18,1.11-.73,2.33-.73,3.4-.05,8-.18,16,0,24,.08,3.14-1.2,3.52-3.74,3a49.78,49.78,0,0,0-14.5-1.1c-3.45.27-6.86.93-10.3,1.41-2.07,1.16-5.19.83-5.78,4.08l-.16.29.16-.29,5.64-2.13c7-1.34,14-2.19,21.25-1.45,4.16.43,8.09,1.83,12.21,2.34l3.29.88a2.91,2.91,0,0,0,3.33,1.63,1,1,0,0,0,.27-.87C238.05,226.23,236.65,226.6,235.46,226.47ZM248.73,84.06c-1,0-2.06-.35-2.87.56a85.39,85.39,0,0,1-12-.13L232.6,84c-1.76,3.65-.39,7.39-.14,11.11.06-.66.12-1.32.19-2l1.13,0c-.84,4.24,2.71,4.77,5.23,6,4.39,2.23,7.8.24,8.16-4.75.17-2.3.11-4.61.15-6.92h1.22v6.2C248.83,90.5,250.13,87.23,248.73,84.06Zm-16.2,164a2.16,2.16,0,0,0-.65.26,13.29,13.29,0,0,0-4.91-1.58,10.47,10.47,0,0,0-2.5-1.07c-10.4-1.54-20.75-1.7-30.91,1.49-1.19.38-3.41.19-2.44,2.75,1.28,3.38,3.62,5.32,5.57,4.34a22.28,22.28,0,0,1,7.33-2l4.72-.47a2.54,2.54,0,0,1,0,.55c-2.49,1.84-6,.53-8.42,2.78,8.5-2.14,16.92-1.18,25.32.56-2.35-2-5.59-1.22-8.22-3a4.67,4.67,0,0,1,1.32-.22c2.73.44,5.45.92,8.18,1.39.2,1.43.47,2.91,2.19,1.13,2.25-2.32,4.87-4.33,6.29-7.35a9.08,9.08,0,0,0,3.48-8.48,26.7,26.7,0,0,1,0-5.51c.27-2.73-.83-4.14-3.55-4.3-12.05-4.78-24.31-6.68-36.92-2.43C192.38,229,187,236.3,187.1,242c.06,4.81,1,5.54,5.69,4,13.37-4.43,26.62-4.4,39.76.88C232.54,247.3,232.53,247.7,232.53,248.09ZM178.83,5.14c-.87-.29-1.73-.6-2.61-.88-3-.93-3.4-.48-2.89,2.55.68,4.05,4.27,3.45,6.84,4.49l4.36,3,.59-.62C183,10.84,182.09,7.19,178.83,5.14ZM69.71,165.8l.32.14-.28-.18a3.57,3.57,0,0,0-3.28-3.44c-3.29-.5-6.58-1-9.87-1.51-.68-.1-1.62-1-2,.23-.34,1,.65,1.45,1.38,1.65C60.48,164,64.94,165.57,69.71,165.8Zm183.23,10.4c2.08,0,4.17.12,6.24,0,1.14-.06,2.85.77,3.25-1,.33-1.41.54-3.28-.13-4.37s-2.23.19-3.38.49c-1.78.44-3.54,1-5.3,1.47-4.05.72-7.38,3-10.81,5.11C246.2,177.21,249.46,176.06,252.94,176.2Zm-2.89-4.12,22.63-6.63a2.77,2.77,0,0,0-3.27-.64c-3.91,1.06-7.84,2-11.71,3.19-1.64.5-2.16.13-2-1.48,5.33-.45,10.41-2,15.51-3.51.76-.22,1.76-.38,1.5-1.49-.2-.88-1.13-.67-1.77-.63-4.39.31-8.75.88-12.71,3-1.08.57-2.92.5-2.62,2.54-2.94.8-3.73,3.73-5.56,5.63l-.15.31ZM85.12,107l0,0c-.14-1.58-1.22-2.71-1.89-4-.9-1.75-2-2-3.56-.68A44.37,44.37,0,0,0,70,114.07c-1.18,2,0,2.41,1.8,2.11,2.16,1.74,3.05-.22,4.2-1.43C76,127,76,139.18,76,151.4a3.91,3.91,0,0,0,3.71,4.17,3.27,3.27,0,0,0,3.36-3.3c0-11.17.11-22.35-.13-33.51-.09-4.32-2-6-5.49-6.09,2.35-2.6,3.61-2.45,5.34,1.71,1.36,3.26,3.56,2.05,5.29,1.45,2.46-.85.7-2.67.21-4a16.33,16.33,0,0,0-1.57-2.65C86.26,108.37,86.09,107.41,85.12,107ZM92.6,248.52c2.21,2.43,3.21,6.16,7.18,6.72.3,2.41,1.77,1.13,2.77.78a37.81,37.81,0,0,1,11.23-2.1c1.9,0,3.79,0,5.62,0,.09-1.59-1.42-1.1-1.5-2,1.89-.39,3.7.12,5.52.42,2.65.56,5.6.34,7.62,2.64.52.6,1,.66,1.35.11,1.49-2.52,4.32-4.26,4.47-7.56,2.6-.56,3.48-2.27,3.51-4.82.08-7.47-5.87-14.79-13.65-16.76-12.23-3.11-23.92-1.08-35.36,3.51-1.08.38-2.24.64-2.74,1.87C86.89,235.62,89.06,245,92.6,248.52ZM118.8,131.9c-.12,9.25-.74,18.53,2,27.58a99.69,99.69,0,0,0,4.67,17.58c.7,2.29,1.4,4.59,2.11,6.88a8.87,8.87,0,0,0,1.41,4.23,18.87,18.87,0,0,0,1.55,5.56A140.17,140.17,0,0,0,138.81,218c1.18,2.58,3.28,4.75,5,7.1.74,1,1.42,1.22,1.81-.27,1.59-.32,2.07-2.35,3.78-2.48a1.41,1.41,0,0,1-.49,1.57c-3.95,2.64-3.07,5.7-.83,8.9a14.2,14.2,0,0,1,1.13,2.53c.9,3.94,3.44,4.8,7.19,4.59a150.4,150.4,0,0,1,16.31,0c3.38.18,4.94-1.14,5.37-4.28.74-3.44,4-6,3.52-9.84l.29,0,.29,0c1.68.47,1.87-1.11,2.47-1.92,6.64-9,9.31-19.63,12.22-30.15a16.55,16.55,0,0,0,1.56-5.55,7.61,7.61,0,0,0,1.38-4.61,18.94,18.94,0,0,0,2.17-7.42,88.8,88.8,0,0,0,4.74-17.39l0-.67.15-1.36c1.56-1.68,1.06-3.85,1.36-5.83.64-4.29-.3-8.75,1.26-12.95.95,2.57.78,5.25.69,7.91-.3,8.37-2.24,16.46-4.4,24.5-.38,1.4-1.26,2.9.58,4,1.68,1,3.3,1.53,5.15.24a32,32,0,0,1,4.53-2.56,2.83,2.83,0,0,0,1.89-2.93c-.14-5.1-.17-10.2-.24-15.29l.88.07c.23,5.11.56,10.22.62,15.33,0,1.95.61,2.43,2.41,2.06,3.53-.73,7.07-1.43,10.62-2,1.93-.31,2.74-1.15,2.81-3.17.2-6,.58-12.08.9-18.12.06-1.09,0-2.12-1.2-2.59v-.82c1.85-.15,1.19-1.59,1.36-2.62s-.58-2.71,1.46-2.9c-.26,4.4,0,8.8-.38,13.21-.67,7.76-.11,15.58-1.08,23.33-.19,1.45.32,2.33,2,1.45,5.1-2.69,10.77-4.54,14-9.94a16,16,0,0,1,3.83-4.48c1.76-1.35,2-3,2-4.88,0-5.94,0-11.88,0-17.82.2-6.23.37-12.46.61-18.7.07-2-.09-3.23-2.69-3.25s-3.11,1.23-2.9,3.39c.1,1,.05,2.08.08,3.13q0,5.24-.08,10.48l-1.26,0c0-5.2,0-10.4.06-15.6a6.5,6.5,0,0,0-3.11-5.79c-1.85-1-2.65,1.61-3.88,2.68l-.91-.12c3.29-6.42,4-6.5,8.08-.54,1,1.4,2,1.24,3.3.94,2.65.82,3.21-.16,2.15-2.51-1.76-3.89-4.82-6.78-7.84-9.6-4.29-4-4.53-3.64-6.86,1.1-.93,1.75-1.88,3.48-2.78,5.23-2.35,4.62-2.34,4.62,2.56,6.14l.08.85c-4.91-.38-4.92-.38-4.93,4.5,0,3.82,0,7.65,0,11.47-1.81-.16-1.41-1.56-1.42-2.63,0-4,0-7.91,0-11.86,0-1.27.23-2.59-.86-3.59l.14-.89c2.5-.75,3-2.32.47-3.19-4.42-1.51-5.24-4.46-4.74-8.49a33.35,33.35,0,0,0,0-4.47c-1-4.15-5.25-3.83-7.79-6.32a4.19,4.19,0,0,0-.05,3.37l-.39,3h-.67l-.31-3.48c.23-4-.66-4.91-6.71-6.57l.53,3.78c0,1.15-.05,2.3-.07,3.45h-1.16c-.2-8.79-.63-9.49-6.9-11.23.85,12.5,1.82,25,2.5,37.46.25,4.72.71,9.52-.59,14.22-.68-1.73-.49-4-2.74-4.79,0-.45,0-.9,0-1.35,1.58.07,1.56-.9,1.33-2l.09-.88c.84-.76.41-1.74.37-2.62-.63-16.29-2.18-32.52-3.26-48.78a134,134,0,0,0-15-53.34c-1.4-2.69-2.82-5.16-5.69-6.47l-3.9-2.46c-.64-.9-1.63-.84-2.57-.89-.41-.38-.77-1-1.25-1.1-6.6-1.74-13.13-3.89-20.12-1.79-8.45,2.54-7.72.32-8.85,9.83-1.54-1.64.36-4.12-1.38-5.71a13.7,13.7,0,0,0-4.86,2.6,4.49,4.49,0,0,0-2.9,2.31c-6.08,12.07-12.1,24.27-14.44,37.64-4,22.75-4.35,45.86-5.59,68.87,0,1-.11,1.88,1.26,1.85-.91,1-1.69,2.14-1.35,3.65ZM85.94,104.13c1.63,2.35,1.17,7,6.14,5.7-.53,1.27-2.73,1.76-1.51,3.9,1,1.74,2-.18,2.93.32-3,2.18-2.86,5.3-2.78,8.52.13,5.36,0,10.72.07,16.08,0,5.57,0,5.57,5.49,5.32v.75a12.87,12.87,0,0,1-3.07.58c-2.3-.1-2.81,1.1-2.48,3,1,6.08,1,12.24,1.38,18.36a2.17,2.17,0,0,0,2,2.35l14.08,2.36,1.39,0c2.26,1.16,4.56,2.25,6.76,3.5,1.93,1.11,3.34-.1,4.82-.89s.84-2.2.45-3.37c-4.18-12.52-4.72-25.43-4.45-38.49.23-10.9.39-21.79,1.41-32.66.47-5,.49-10,.72-15.16-5.73,2.25-5.61,2.27-6.52,7.42-.5,2.78-.22,5.56-.47,8.32h-1.07c0-2.51,0-5,.08-7.53a8.51,8.51,0,0,0,.1-4.38c-2.21,1.25-4.51,1.77-6.1,3.57l-1.48.11c-1.88,1.09-3.73,2.24-5.66,3.25-1.22.65-2.12,1.36-1.83,2.9,0,2.56-.17,5.12,0,7.66.24,3.24-1.19,4.51-4.28,4.23,3.43-2.39,4.59-7.81,2.68-12.47-2.76,1.39-5.49,2.85-8.29,4.14C84.91,102.23,85,103,85.94,104.13Zm11.7,89.7c-3.49,3.74-6.06,8.15-8.9,12.36a5,5,0,0,0-.69,2.63c0,4.76,0,9.52,0,14.27,0,.91-.17,2.14.65,2.59,1.16.63,1.74-.78,2.58-1.3l.78.26.81.59c-1.09,1.42-3.71.72-4.59,3.92a61.84,61.84,0,0,1,27.53-5.93c.22.31.45.33.7,0l11.87,1.21,7,2.92c-1.94-3-4.32-3.55-6.95-3.58-3.69-1.16-7.39-2.25-11.33-2.07,1.45-1.92,3.44-1.33,5.32-1.09,2.47.3,4.85,1.28,7.4,1.1l0,0,.63.61.79.1.32.14-.3-.16a5.49,5.49,0,0,0-.08-1.73q-5.41-14.28-10.91-28.53a2.44,2.44,0,0,0-2.28-1.83,57.29,57.29,0,0,0-14,1.34c-4-.43-1.33,2.87-2.28,4.15l-1.18,0a11.82,11.82,0,0,0-.15-3c-.57-1.8-1-.82-1.4.18A1.43,1.43,0,0,0,97.64,193.83ZM273.1,99.94c-4.49,2.62-9,5.25-13.49,7.84-3.72,2.14-3.68,3.47.23,6.28-.09,5.18-.83,10.42,1.38,15.4-.76-.16-2.07-2.17-1.94.61.07,1.26,0,2.53,0,3.8.15,9.71-1.22,8.5,8.7,8.69,1.08,0,2.68.83,3-1.24,2.24,1.32,2.91.48,2.75-1.86a236,236,0,0,1-.4-26.06c2.3-1.64,1-4,1-6,0-1.1-1.34-.14-2-.44l.77-1.3c2.18-.72,1.61-2.07.79-3.47,0-.74,0-1.47-.07-2.21C273.61,99.64,273.37,99.6,273.1,99.94ZM98.51,181.27c.18,2,.5,3.92.49,5.88s.84,2.57,2.75,2.49c4.41-.19,8.82-.21,13.23-.3,1.35.07,3.06.85,3.89-.38.71-1.07-.74-2.27-1.15-3.44a8.61,8.61,0,0,0-7-6c-2.72-.5-5.38-1.35-8.09-1.88C98.27,176.81,98.26,176.86,98.51,181.27Zm113.76,7.65c2.19.18,4.37.39,6.56.53,2.78.18,6.07,1.29,8.2.19,2.73-1.41.8-5.35,1.75-8a5.68,5.68,0,0,0,.16-1c.52-2.87-.06-4.25-3.43-3.09a64,64,0,0,1-9.08,2.24,9.12,9.12,0,0,0-7.22,6.29c-.38,1-1.5,2.28-.47,3.14A2.82,2.82,0,0,0,212.27,188.92ZM59.74,79.68c-.37-2.22-3.87-5.66-6.05-5.79-1.5-.09-.63,1.09-.75,1.73,0,5.45,0,10.9,0,16.35,0,5.89.82,6.88,6.83,8.19ZM236,224.56c2.41,2.15,3.24,1.25,3.23-1.59a82.67,82.67,0,0,1,.15-9.71c1-8.45-5.44-13.07-9.69-18.9.16,1.36.33,2.72.49,4.09-.88,6.25-.2,12.53-.32,18.79C229.72,223.32,229.81,223.32,236,224.56ZM267.64,80.43c0,6-.09,12.06-.09,18.09,0,.82-.42,2,1,2.16,2.06.23,5.84-3.07,5.86-5.19,0-4.87.15-9.75,0-14.61-.05-1.52,1.43-3.13-.17-4.57.13-.76.52-1.54-.14-2.37-1.1.61-2.22,1.19-3.3,1.85C269.06,76.85,267,77.69,267.64,80.43Zm-19.75,20.43c1.12,1.16,2.29,2.27,3.35,3.48,3.79,4.33,3.77,4.34,8.77,1.35,1.49-.89,3-1.84,4.5-2.64a2.75,2.75,0,0,0,1.64-2.78c-.07-5.45-.11-10.9-.16-16.35a8.24,8.24,0,0,0-.14-4.35c-6.48,6.29-12.59,12.38-18.4,18.77C246.48,99.41,246.16,100.29,247.89,100.86ZM66.24,128.76c2.27-3.95,1.23-8.28,1.45-12.47a2.05,2.05,0,0,0-.7-1.88,77.81,77.81,0,0,0-12.4-7.18v33.58c1.07,0,1.54-1.29,2.61-.85.39.65-1.37,2,.54,2.06,2.66.07,5.33-.05,8-.23,1.34-.1,2-1,2-2.41q0-4.87,0-9.74C67.74,128.35,67.15,128.35,66.24,128.76ZM197,222.47a67.7,67.7,0,0,1,27.46-1.1c1.25.21,1.14-.88,1.16-1.65.23-8.34.43-16.69.67-25,0-1.47-.23-2.42-2-2.46a37,37,0,0,0-13,2,7.81,7.81,0,0,0-4.69,3.93A144.19,144.19,0,0,0,197,222.47Zm9-46.84c-2.24-.23-2.27,1.47-2.5,2.54-2.57,12-7.24,23.26-11,34.86a33.27,33.27,0,0,1-5.89,11A46.5,46.5,0,0,0,179.82,235c-.23.54-.53,1.12-.07,1.63s1.08.13,1.46-.27c4.88-5.09,10.3-9.66,13.22-16.43,4.37-10.15,8-20.59,11.66-31,2.61-7.31,7.13-10.93,14.42-12.09,3.88-.61,7.7-1.59,11.55-2.4,1.28-.28,2.09-.9,1.89-2.4-.17-1.29-1-1.45-2-1.26-5.11,1-10.24,1.9-15.32,3C213,174.58,209.89,178.61,205.92,175.63Zm-57.66,61.79c-1.81-4-2.69-7.4-4.88-10.3-2.7-3.59-5.85-6.86-7.46-11.25-4.58-12.54-8.75-25.21-12.3-38.08-.64-2.35-1.35-3.43-3.66-1.84-1.44,1-2.74.72-4.2-.06-6.28-3.34-13.44-3.35-20.12-5.16-.74-.2-1.72-.23-2,.84a1.82,1.82,0,0,0,1,2.35,8.11,8.11,0,0,0,2.31.79,136,136,0,0,1,15.55,3.64,8.78,8.78,0,0,1,5.92,4.42,107.5,107.5,0,0,1,6,14.08c3.91,10.73,6.41,22.16,14,31.18C141,231.25,144.45,233.87,148.26,237.42ZM1.88,179c-1.23,3.65,0,5.57,3,7,11.82,5.69,23.55,11.57,35.33,17.35,1.17.57,2.6,1.76,3.3-.51.49-1.59,2.08-3.24-.76-4.56C29.15,192,15.44,186,1.88,179ZM326,182c.14-1.89.19-3.31-2.49-2-12.82,6.29-25.66,12.52-38.58,18.57-2.57,1.2-1.5,2.56-1,4.15.65,2.25,2,1.69,3.48.94q18.21-9.12,36.45-18.2C325.36,184.69,326.35,183.78,326,182Zm-66.58-29c.15,2-1.39,5.83.4,7.5s5.38-.56,8.2-.91c1-.13,2-.4,3.08-.52,1.4-.15,2-.8,1.95-2.26,0-3.71.06-7.42.09-11.14,0-.9.17-2.08-1.16-2.11-4.05-.06-8.35-.81-12,.37-1.63.52-.18,5.11-.54,7.83C259.43,151.89,259.44,152,259.44,153Zm-191.29.37c-.41-3.83,1.07-7.73-.83-9.54s-5.72-.4-8.7-.44c-4.59-.07-4.66,0-4.5,4.73.12,3.45-1.27,7.91.77,10.09,2.25,2.43,6.9,1.89,10.47,2.79,2.1.53,3,.11,2.83-2.24C68,156.71,68.15,154.61,68.15,153.39ZM54,99.72c1.16,2.15-1,5,1.64,6.53,3.81,2.22,7.71,4.28,11.5,6.54,1.65,1,2.08-.26,2.61-1.19s2.08-1.92.4-2.87C64.81,105.73,59.91,102,54,99.72ZM163,1.64c-1.74.34-3.9.73-6,1.18-2.73.58-2.07,2.84-1.87,4.5.24,2.09,1.88.7,2.72.53a27,27,0,0,1,12,.4c.87.21,2.13,1,2.41-.79.49-3-.88-4.78-4-5.19C166.62,2.06,165,1.88,163,1.64Zm68.93,95.8a44.19,44.19,0,0,1-.06,6.56c-.59,3.71,1.35,5.12,4.46,6.09,1.45.46,2.26.17,2.78-1,.95-2.27,3.14-4,2.94-6.76,0-.14-.33-.29-.54-.39ZM125.6,253.65l-1,.76c.18.23.31.58.54.65.41.12.93.08.9-.55A2.65,2.65,0,0,0,125.6,253.65Zm73,1.94c-.19-.11-.37-.29-.55-.29a1.64,1.64,0,0,0-.59.24c.18.1.37.27.55.28A1.51,1.51,0,0,0,198.57,255.59Zm-75.24-2-.55-.27a2.56,2.56,0,0,0,0,.55c0,.07.24.17.26.15A2.78,2.78,0,0,0,123.33,253.64Zm6,1.86-.24-.09,0,.34a.7.7,0,0,0,.25-.05S129.32,255.57,129.32,255.5Z"/><path class="cls-3" d="M198,258a8.3,8.3,0,0,1,4.48-1.36,15.84,15.84,0,0,0-1.42,6.74,87.92,87.92,0,0,0,.76,10.39c.1,1.12-.47,2.49.46,3.32,1.12,1,1.61-1.57,2.91-.81.41,3.11-1,6.83,1,9.19s2,4.94,2.65,7.48c.93,3.38,1.58,6.86,3.32,10.8,2.64-7.63,3.08-15,7-21.55,3.13-5.14,2.44-11.46,2.22-17.39-.09-2.65-.38-5.29-.57-7.94a13.32,13.32,0,0,1,5.76,1.93A57.62,57.62,0,0,1,226.8,281c-1.57-.46-.76-2.43-2.38-3.16-.64,8.92-1.08,17.66-2.73,26.59-1.31-1-.63-2.36-1.58-3.58-1.36,3.63-1.25,7.27-2,10.73-.8,3.75-1.46,7.53-2.38,11.25a45.56,45.56,0,0,1-3.91,10.55c-1.25-4.62-2.55-9.23-3.74-13.86a146.52,146.52,0,0,1-3.56-18.12c-.11-.9.72-3.22-1.87-2a16.73,16.73,0,0,1-.76-2.3c-.84-4.69-1.62-9.39-2.44-14.18-1.28.86-.7,2.51-1.7,4C195.62,277.07,194.9,267.55,198,258Z"/><path class="cls-3" d="M125,256.67a10,10,0,0,1,4.77,1.36c2.46,9.16,1.75,18.29,0,27.71-1.34-1.35-.91-2.95-1.91-4.57-.77,5-1.48,9.65-2.17,14.27-.23,1.5-.35,1.35-2.08,3-.68.68-.61,2.19-.75,3.33-1.29,10.53-3.9,20.78-6.6,31,0,.18-.31.31-.74.7-4.08-10.6-6.3-21.51-8.4-32.53l-.66,2.85c-2.72-8.38-2.88-17.1-3.85-25.84-1.3.83-.49,2.45-2,3.27-1.45-7.68-1.9-15.17.28-22.66,1.83-1,3.67-2.05,5.87-2-2.33,6.47-1.67,13-.34,19.54,1,5,1.15,5,4.45,8.72.2.21.11.67.18,1,.19,1,.38,2,.6,3.06q1.53,7.13,3.08,14.26a52.23,52.23,0,0,0,4.6-14.73c.15-.93.45-2.56.91-2.43,3.29.94,1.72-1.7,1.82-2.6a58.9,58.9,0,0,0,.08-6.64c1.57.09,1.27,1.81,2.78,1.57A70.43,70.43,0,0,0,125,256.67Z"/><path class="cls-3" d="M264.23,193.27a59.68,59.68,0,0,1-1.15,13.39c-1,4.92-3.43,9.3-4.1,14.25-.53,3.87-1.84,7.64-3.06,12.51-1.19-4.7-2-8.43-3.09-12.12-1.54-5.45-3.24-10.85-4.83-16.28-1.13-3.88-.79-7.82-.39-11.75l3.06-.4c-.94,8,2.38,14.94,5.06,22.76a78.39,78.39,0,0,0,3-7.8,32.15,32.15,0,0,0,2.43-14.91Z"/><path class="cls-3" d="M80.09,193.23a61.46,61.46,0,0,1-1.45,13.91c-1,4.75-3.43,9.06-3.72,14.05-.23,4-1.75,7.9-3,12.94-1.39-5.22-2.44-9.51-3.69-13.74-1.53-5.18-3.37-10.27-4.8-15.48a26.75,26.75,0,0,1-.12-11.78l2.9-.2c-.75,8.16,2.67,15.3,5.43,23.2,2.9-7.87,6.11-15,5.7-23.07Z"/><path class="cls-4" d="M92.8,82.66c0,.42,0,.85,0,1.27-3.54.49-7.06,1.26-10.66.25-1.6-.45-1.93.64-1.94,2,0,3-.07,6-.12,9l-2.27.29.12-.18.18-1.55c1.4-3.18.38-6.41-.07-9.62v9a1.49,1.49,0,0,1-1.4-.88c-.2-2.61-.49-5.22-.56-7.84-.06-1.91-1.51-1.88-2.64-2-1.59-.13-.86,1.27-.93,2-.12,1.25,0,2.51,0,3.77l-1.79-.64c-1,0-1.33-.74-1.73-1.43l1-.09c.9.75,1.24.55,1.31-.64.14-2.65,0-5.32.71-8,1.09-3.79,3.52-6.73,5.8-9.79.75-1,1.78-.92,2.83-.91,4.19,0,8.39.24,12.56,0,2.58-.18,2.89,1.9,4.11,3.09,3.35,3.28,4.73,7.19,4.8,12,0,2.8.48,5.67.52,8.52a1.24,1.24,0,0,1-1.21.74c0-1.49-.07-3-.06-4.46,0-4.47,0-4.47-4.1-3.82a2,2,0,0,1-.3-.46l2.89-1.53c2.69-1.42.24-3,.09-4.52-.1-.93-.35-2.55-2.08-1.3-7.53.78-15.06,1.7-22.48-.72-1.76,1-1.71,2.85-2.32,4.41s-.13,2.24,1.45,2.34C80.41,83.26,86.66,82.44,92.8,82.66ZM86.29,73.5v0c3,0,6,0,9,0,.88,0,2.39.5,2.22-1.26-.12-1.26-1.18-1.53-2.33-1.52-5,0-10,0-14.92,0a25.78,25.78,0,0,0-2.77.19,1.86,1.86,0,0,0-1.81,1.77c0,1.22,1.21.77,1.92.79C80.51,73.53,83.4,73.5,86.29,73.5Zm-7.1-5.21V69H94.47v-.68Z"/><path class="cls-4" d="M264.23,193.27l-3-.35a23.73,23.73,0,0,0-10.54,0l-3.06.4c-2.93-2.22-5.25-4.85-5.85-8.64l1.18-.71c.23,1.35-.31,3.63,2.22,2.74,6.91-2.41,13.84-1.9,20.82-.6.74.8,1.71,2.38,2.49.45.86-2.13,2-4.52.42-6.91,0-.36,0-.71,0-1.07,2.27-.75,1-2.73,1.45-4.13.29-1-.86-2.74,1.39-2.73.13.18.18.29.14.34a58.18,58.18,0,0,0-.54,6.57C271.45,184.73,268.9,189.49,264.23,193.27Zm-3.43-2.33c-2.41-3-5.38-2-8.2-1.84-.3,0-.78.6-.81,1-.07.74.59.87,1.17.88Z"/><path class="cls-5" d="M66.24,192.93l-2.9.2c-2.62-2.44-5.61-4.61-6.23-8.51.85-.55,1.26-.06,1.55.67.35.91.73,1.76,2,1.43.19,1.13.69,2.07,1.36.37.75-1.89,2.1-1.77,3.6-1.69,1.41,1.25,3.19.82,4.65.57,3.8-.64,7.49,1.8,11.25.17,1.66-.1,3.22-.4,3.93-2.21h.09c.81,4.62-2.78,6.69-5.42,9.3l-2.73-.17A23.53,23.53,0,0,0,66.24,192.93Zm-2.91-2.09c4.07-.46,8.24.6,12.88-.37C71.41,187.41,67.41,190.71,63.33,190.84Z"/><path class="cls-4" d="M85.52,183.93h-.09a5,5,0,0,0-2.51-3.38c-1.41-.91-3.22-1.27-4.21-2.81.45-.05,1.05,0,1.33-.2.52-.47-2.16-1.56.17-1.71,1.06-.07,2.55.36,2.36,2.25a.78.78,0,0,0,1.38.65c1.6-1.7,3-.28,4.34.22,1.83.67,3.56,1.6,5.37,2.32.75.29,1.89,1.23,2.27-.15.28-1-.52-2-1.79-2-.46,0-.92,0-1.38,0l-.69-.68,0,0,0-2.82c2.26-.13,4.32.35,4.52,3,.17,2.34,1.86,5.12-1.29,6.89a45,45,0,0,1-5.07-2.76C88,181.08,86.49,181.15,85.52,183.93Z"/><path class="cls-6" d="M33.94,65.18c-1.32-1.58,1.9-3.28-.12-4.84.6-1,1-2.24,2.32-2.6,1.92,1.1,1.67-1.1,2.51-1.65,1.45-.94,1.12-3.83,3.78-3.46l-.26,4.76c-2.18.06-2.54,2-3.41,3.37C37.53,62.67,36.48,64.72,33.94,65.18Z"/><path class="cls-2" d="M230.49,70.08c.31-2.57,1.88-3.15,4.15-2.64,0,.38,0,.77,0,1.16-.59.21-1.4-.22-1.85.8h15.34l0-.57-2.31-.24,0-1.13c2.47-.83,3.51.61,4.16,2.65,0,.19,0,.39,0,.59l-19.53.18Z"/><path class="cls-4" d="M230.49,70.08c0,.27,0,.53,0,.8,0,1.3-1.7,1.84-1.42,3.26l-.09.93c-2.64,1.77-3.21,4.44-1.34,6.24l1.43,1.22-.08.12c-1.22.28-3-.91-3.45,1.36L225,84C224.68,78.54,225.92,73.65,230.49,70.08Z"/><path class="cls-5" d="M289.89,55.35c-.27.27-.53.55-.79.83l-3.16-3.81-.95-.5,0-5.52C285.43,50,288.36,52.28,289.89,55.35Z"/><path class="cls-5" d="M250.87,84.11c-.07-.46-.13-.93-.19-1.4a2.86,2.86,0,0,0,2.66-1.41c1.82,0,1.46-1.14,1.11-2.24l1.12.07a13.52,13.52,0,0,1,.39,7.08l-.94,0C255.36,82,252.7,83.88,250.87,84.11Z"/><path class="cls-5" d="M42.43,52.63c-2.66-.37-2.33,2.52-3.78,3.46-.84.55-.59,2.75-2.51,1.65,1.16-3.18,3.7-5.42,5.54-8.14C42.12,50.57,42.77,51.47,42.43,52.63Z"/><path class="cls-5" d="M234.66,68.6c0-.39,0-.78,0-1.16a74,74,0,0,1,11.24,0l0,1.13Z"/><path class="cls-7" d="M60.64,186.72c-1.25.33-1.63-.52-2-1.43-.29-.73-.7-1.22-1.55-.67a.37.37,0,0,1-.06-.56c1.63-.21.9-1.41,1-2.27s-.63-2.38,1.25-2.44C58.69,182,60.54,184.2,60.64,186.72Z"/><path class="cls-8" d="M255.57,79.13l-1.11-.07-1.71-4,1.25-.2A8.64,8.64,0,0,1,255.57,79.13Z"/><path class="cls-4" d="M254,74.85l-1.25.2a1.35,1.35,0,0,0-.53,0l-.82.55v0H250V74.25c.89-.1,2,.11,2-1.33l.56-.61Z"/><path class="cls-4" d="M250,70.7c0-.2,0-.4,0-.59.89-.07,1.21.55,1.5,1.22l-.1.1A1.27,1.27,0,0,1,250,70.7Z"/><path class="cls-4" d="M251.54,71.33l1,1-.55.61a1.55,1.55,0,0,1-.56-1.49Z"/><path class="cls-5" d="M257.08,86.39l-.58.43Z"/><path class="cls-9" d="M33.94,65.18c2.54-.46,3.59-2.51,4.82-4.42.87-1.35,1.23-3.31,3.41-3.37L42.54,63c0,4.26-.06,8.51,0,12.77,0,1.15.14,2.48,1.4.52a18.57,18.57,0,0,1,6.83-.7c.24,7.31.54,14.63.69,21.95q.75,34.86,1.37,69.73c0,1.07.6,2.32-.5,3.25a53.22,53.22,0,0,0-5.11-6.13c-2.38-2.18-2.94-4.65-2.94-7.72,0-20-.21-40-.36-60,0-1.27-.12-2.54-.19-3.82-1.36,1.23-1.1,2.6-1.09,3.89.13,20.35.22,40.7.53,61.05.05,3-1,4.19-3.66,5.14-12.34,4.42-24.78,8.6-36.89,13.66C.64,174,1.38,167.1,3.76,165.35q5.39-4,10.75-8,8.69-6.4,17.37-12.8a3.35,3.35,0,0,0,1.38-3c0-10.57,0-21.15,0-31.72Zm8.85,14.47c.19,1.55-1.08,3.21.68,5C43.87,81.72,43.87,81.72,42.79,79.65Z"/><path class="cls-9" d="M293.78,66q.18,20.9.35,41.79l.12,34a2.65,2.65,0,0,0,.88,2.49c2.92,2,5.37,4.71,8.69,6.18h0A104.9,104.9,0,0,0,320.59,163h0c.92,1.12,1.76,2.35,3.5,2.11l0,0c-.05.08-.15.19-.13.25a1.9,1.9,0,0,0,.25.4c1.38,1.57,2.31,9.27,1.23,10.74-.14.18-.84-.06-1.28-.1q-19-7.53-38.47-14c-1.81-.69-1.25-2.27-1.25-3.57,0-11.67,0-23.33,0-35,.47-7,.43-13.94.27-20.91.69-6,.22-11.92.3-17.87V76.7l-.12-8.79q.17-5.25.32-10.5c1.9.31,2.08,2.24,3.16,3.33C290.14,62.51,290.83,65.42,293.78,66Z"/><path class="cls-10" d="M125.42,177.06a99.69,99.69,0,0,1-4.67-17.58c1.08-.9.76-2.16.63-3.24a106,106,0,0,1,0-25.17c4.69-2.43,9.44-4.76,14.06-7.33,2.05-1.14,2.63-.39,2.86,1.49a9.22,9.22,0,0,0,0,1.39c2.56,18.73,5,37.48,7.74,56.19,1.68,11.59,3,23.23,5.49,34.7.24,1.78-.07,3.26-2.11,3.77C146,210,143.53,198.48,140.77,187c-.34-1.41-.3-3.2-1.81-4C134.56,180.79,130.34,178.12,125.42,177.06Z"/><path class="cls-10" d="M206.69,158.78A88.8,88.8,0,0,1,202,176.17c-4.38,2.14-8.75,4.3-13.14,6.4a2.75,2.75,0,0,0-1.75,2c-1.16,4.94-2.39,9.86-3.59,14.79l-4.41-.76,1.57-12.49C181.77,178,183,170,184,161.88c1.75-12.91,3.44-25.83,5.15-38.74,3-.22,4.82,2.43,7.52,2.92l9.35,5.22a72.56,72.56,0,0,1,.07,19.53c-.25,1.9-.87,4.12.68,5.94l-.15,1.36c-.09.06-.27.17-.26.19A4.71,4.71,0,0,0,206.69,158.78Z"/><path class="cls-10" d="M285,76.7V85c-1.79-.32-1.44,1.06-1.44,1.95,0,5.3,0,10.61.07,15.91q0,10.47,0,20.95c-.08,8.56-.13,17.11-.26,25.66-.07,4.48.34,9-.57,13.41l-.08-.09c-3.35,1.61-4.64,5.3-7.69,7.62-.69-1.46-.42-2.94-.39-4.32q1.05-53.77,2.2-107.54c.12-5.47.44-10.93.67-16.39,3.72-.88,5,.24,5.39,4.14.24,2.52-1,5.21.81,7.55.75,4.71-.21,9.45.3,14.15a32.38,32.38,0,0,0-.18,4.5C284,74,282.85,75.83,285,76.7Z"/><path class="cls-11" d="M324.16,177.58c-.26,1.23-1.39,1.49-2.3,1.93q-17.13,8.22-34.29,16.4c-4.91,2.32-4.92,2.25-6.77-2.92-1.49-4.15-2.9-8.34-4.61-12.41-2-4.68-1.05-8.46,2.64-11.89,1.71-1.59,3.73-3.17,3.91-5.86l.08.09,2.81.32c1.54,1.6,3.73,1.75,5.65,2.46C302.21,169.74,313.19,173.63,324.16,177.58Z"/><path class="cls-11" d="M52.2,172.15c.89,6.59-2.46,12.16-4.51,18-.83,2.35-.87,5.73-3.09,6.74s-4.4-1.48-6.59-2.43C27.7,190,17.44,185.32,7.42,180.18c-1.34-.68-2.75-1.21-4.13-1.82.38-.41.68-1,1.15-1.2,12.33-4.52,24.68-9,37-13.51a2.89,2.89,0,0,1,3.66.84C47.41,167.1,49.83,169.6,52.2,172.15Z"/><path class="cls-12" d="M295.47,99.3c2.87,1.76,4.23,5.34,7.69,6.38h0a1,1,0,0,0,.71,1.41v0a1.85,1.85,0,0,0,1.41,1.42l0,0,.72.72,0,0a.71.71,0,0,0,.72.72l0,0,.65,1c.28.49.44,1.15.86,1.46,7.46,5.57,9.2,13.08,8.47,22-.64,7.69-.13,15.47-.13,23.56-2.24-.68-3.53-2.07-5.09-3-2.54-1.48-4.3-4.28-7.58-4.48h0c-.39-2.87-3.14-3.49-4.95-4.88a7.49,7.49,0,0,1-3.4-6.64c.1-10.4-.1-20.81-.19-31.21.49-2.77-.26-5.47-.43-8.21Z"/><path class="cls-11" d="M31.28,98.69c1.71.28,1.25,1.62,1.26,2.67.05,2.84,0,5.67,0,8.51-.94,1.11-.53,2.44-.54,3.67-.06,7.65-.18,15.29-.05,22.94.07,4.5-1.27,7.83-5.26,10.39-4.54,2.92-8.67,6.47-13,9.75-1.73,1.37-2.88,2-2.85-1.25.12-10.43.08-20.86,0-31.3a6.65,6.65,0,0,1,1.9-4.61c3.1-3.7,6.89-6.81,9.41-11l0,0c3.26-3,6.91-5.75,9.1-9.8Z"/><path class="cls-10" d="M141.66,16.53a13.7,13.7,0,0,1,4.86-2.6,34.38,34.38,0,0,0-1.22,9.3,6.21,6.21,0,0,1-1.37,3.86,80.37,80.37,0,0,0-13.71,31.82c-3.68,18,1.35,34.63,10.06,50.35l.55.79L142,111.8l.93,1.08.46.52c-.25.38-.41.9-.76,1.1-7.15,4.07-14.37,8-21.81,11.52-.28-15.89,1.72-31.6,3.31-47.37C125.72,62.5,130,47.11,135.56,32,137.48,26.8,139.62,21.68,141.66,16.53Z"/><path class="cls-12" d="M91.35,229.42c11.45-4.59,23.14-6.62,35.37-3.51,7.78,2,13.73,9.29,13.65,16.76,0,2.55-.91,4.26-3.51,4.82v0c-.91-1.74-2.73-2.17-4.34-2.58a66.66,66.66,0,0,0-9.87-1.91c-10.07-1-19.94-.43-29.09,4.56,0-.92-.09-1.83-.13-2.74,2.33-1.46,5.37-1.54,7.82-3.88-3.46-.19-5.51,2.43-8.36,2.38-1.22-.93-1.35-2.36-1.4-3.68C91.35,236.27,91.39,232.84,91.35,229.42Z"/><path class="cls-12" d="M232.55,246.91c-13.14-5.28-26.39-5.31-39.76-.88-4.68,1.55-5.63.82-5.69-4-.08-5.74,5.28-13.09,11.35-15.13,12.61-4.25,24.87-2.35,36.92,2.43a38.88,38.88,0,0,1,0,4.18c-.32,3.27.89,6.67-.79,9.84-2.48-.16-4.45-2.26-7.28-2,1.69,2,4.43,1.63,5.94,3.43,0,.71,0,1.42-.07,2.14A3.53,3.53,0,0,0,232.55,246.91Z"/><path class="cls-9" d="M111.3,92.5c0,2.51,0,5-.08,7.53-.44,8.47-1,16.93-1.29,25.39-.59,15.32-1.93,30.61-1.75,46L94.1,169a2.17,2.17,0,0,1-2-2.35c-.42-6.12-.34-12.28-1.38-18.36-.33-1.91.18-3.11,2.48-3a12.87,12.87,0,0,0,3.07-.58c6.4-.51,6.45-.51,6.82-6.92q1.26-22,2.46-44Z"/><path class="cls-9" d="M215.61,95.85c0-1.15,0-2.3.07-3.45,2.62-.31,3.91,2.32,6.18,2.79l.31,3.48c-.23,12,1,23.93,1.54,35.89.41,9.47.55,9.47,9.92,10.88a7.22,7.22,0,0,0,1,0c1.25.47,1.26,1.5,1.2,2.59-.32,6-.7,12.08-.9,18.12-.07,2-.88,2.86-2.81,3.17-3.55.55-7.09,1.25-10.62,2-1.8.37-2.39-.11-2.41-2.06-.06-5.11-.39-10.22-.62-15.33Q217.63,124.85,215.61,95.85Z"/><path class="cls-8" d="M237.49,133.74c0-3.82,0-7.65,0-11.47,0-4.88,0-4.88,4.93-4.5,1,1.09.56,2.43.57,3.66,0,9.76,0,19.51,0,29.27a13.55,13.55,0,0,0,.08,2.78c.53,2.48,2.79,3.31,4.69,4.25.92.45,1.58-.64,1.55-1.73l0,0c.63.12,1.15,0,1.37-.68l0,0c3.78-.31,1.52-3.19,2.07-4.87V135c0-3.5.05-7,.07-10.48,2.46-.77,3.34-.16,3.7,2.69.4,3.09.22,6.15.45,9.21.08,1.21-.43,2.56.76,3.53,0,5.94,0,11.88,0,17.82,0,1.92-.21,3.53-2,4.88a16,16,0,0,0-3.83,4.48c-3.24,5.4-8.91,7.25-14,9.94-1.68.88-2.19,0-2-1.45,1-7.75.41-15.57,1.08-23.33.38-4.41.12-8.81.38-13.21Zm4.95,31.53a1.68,1.68,0,0,0-1.42,2,2.31,2.31,0,0,0,2,2.39c1.17.12,1.44-.95,1.38-1.9A2.67,2.67,0,0,0,242.44,165.27Z"/><path class="cls-8" d="M92.11,175.56l0,2.82a41.14,41.14,0,0,1-14-8.6c-1.08-1-1.73-2.53-3.47-2.64l0,0a.68.68,0,0,0-.7-.7h0a1.18,1.18,0,0,0-.7-1.41v0l-.72-.72h0c-4.46-4.31-2.59-9.86-2.9-15-.16-2.67,0-5.35,0-8a2,2,0,0,0,.77-1.82c-.25-7.34,1.24-14.63.7-22,2.78-.51,3.56.64,3.52,3.41-.16,10.12-.07,20.25-.07,30.38,0,2.55,2.61,5.72,4.79,5.85s5-3.11,5-6q0-15.19,0-30.39c0-1.89,0-3.4,2.61-3.41s2.33,1.61,2.34,3.25c0,5.82-.09,11.64.07,17.46.31,11.59.08,23.22,2.05,34.72C91.59,173.78,91.88,174.66,92.11,175.56Zm-5.62-8.91c0-1.6-.42-2.45-1.62-2.19-1.51.32-1.78,1.65-1.84,3,0,.81,0,1.88,1.14,1.69A2.59,2.59,0,0,0,86.49,166.65Z"/><path class="cls-11" d="M197,222.47a144.19,144.19,0,0,1,9.6-24.32,7.81,7.81,0,0,1,4.69-3.93,37,37,0,0,1,13-2c1.81,0,2.08,1,2,2.46-.24,8.34-.44,16.69-.67,25,0,.77.09,1.86-1.16,1.65A67.7,67.7,0,0,0,197,222.47Z"/><path class="cls-13" d="M125,256.67a70.43,70.43,0,0,1,0,21.69c-1.51.24-1.21-1.48-2.78-1.57a58.9,58.9,0,0,1-.08,6.64c-.1.9,1.47,3.54-1.82,2.6-.46-.13-.76,1.5-.91,2.43a52.23,52.23,0,0,1-4.6,14.73q-1.55-7.12-3.08-14.26c-.22-1-.41-2-.6-3.06-.07-.34,0-.8-.18-1-3.3-3.71-3.43-3.68-4.45-8.72-1.33-6.52-2-13.07.34-19.54A33.65,33.65,0,0,1,125,256.67Z"/><path class="cls-11" d="M217.63,153.84c.07,5.09.1,10.19.24,15.29a2.83,2.83,0,0,1-1.89,2.93,32,32,0,0,0-4.53,2.56c-1.85,1.29-3.47.76-5.15-.24-1.84-1.1-1-2.6-.58-4,2.16-8,4.1-16.13,4.4-24.5.09-2.66.26-5.34-.68-7.9,0-.55,0-1.12,0-1.68,1.3-4.7.84-9.5.59-14.22-.68-12.49-1.65-25-2.5-37.46,6.27,1.74,6.7,2.44,6.9,11.23,0,1-.08,2.09,0,3.13.65,15.68,2.21,31.32,2.19,47A58.17,58.17,0,0,0,217.63,153.84Z"/><path class="cls-13" d="M220.82,256.9c.19,2.65.48,5.29.57,7.94.22,5.93.91,12.25-2.22,17.39-4,6.51-4.4,13.92-7,21.55-1.74-3.94-2.39-7.42-3.32-10.8-.69-2.54-.62-5.1-2.65-7.48s-.56-6.08-1-9.19c-1.3-.76-1.79,1.81-2.91.81-.93-.83-.36-2.2-.46-3.32a87.92,87.92,0,0,1-.76-10.39,15.84,15.84,0,0,1,1.42-6.74A37.22,37.22,0,0,1,220.82,256.9Z"/><path class="cls-12" d="M112.29,100c.25-2.76,0-5.54.47-8.32.91-5.15.79-5.17,6.52-7.42-.23,5.18-.25,10.19-.72,15.16-1,10.87-1.18,21.76-1.41,32.66-.27,13.06.27,26,4.45,38.49.39,1.17,1.13,2.53-.45,3.37s-2.89,2-4.82.89c-2.2-1.25-4.5-2.34-6.76-3.5.27-9.17.38-18.36.83-27.52C111.12,129.24,112.21,114.66,112.29,100Z"/><path class="cls-12" d="M101.69,195.78c1-1.28-1.77-4.58,2.28-4.15,2.08,1.13,4.41,1.06,6.65,1.37,5.35.75,9.64,2.73,11.82,8.21,2.69,6.76,5.34,13.53,7.38,20.52-2.55.18-4.93-.8-7.4-1.1-1.88-.24-3.87-.83-5.32,1.09a1.61,1.61,0,0,0-.38,0c-.12-1.21-.94-1.48-2-1.43-3,.13-6-.32-9,.46-2.7.71-4,.09-3.92-3.12C102,210.35,101.77,203.07,101.69,195.78Z"/><path class="cls-14" d="M325.14,119.46c.66,6.26.21,12.54.29,18.81.09,7.79.09,15.58.06,23.38,0,1.19.56,2.58-.7,3.57l-.72-.1,0,0c-.72-1.44-1.6-2.62-3.5-2.11h0c-.15-2.34-2.93-3.08-2.82-6.07.42-11.69-.28-23.43.34-35.1.35-6.59-2.38-10.66-7.24-14.09h0a.65.65,0,0,0-.69-.69h0a.64.64,0,0,0-.69-.69h0a.63.63,0,0,0-.69-.69h0a.61.61,0,0,0-.69-.69h0a.62.62,0,0,0-.69-.69h0a.61.61,0,0,0-.69-.69h0l-.39-.74-1-.66v0c0-6.26,0-12.52.11-18.78,0-.46-.7-1.5.62-1.4.19,0,.34.53.5.82-.91,1.07-.08,2,.37,2.84q1.86,3.52,3.93,6.92c4.45,7.25,9.68,14.07,11.91,22.53C323.13,116.61,323.56,118.44,325.14,119.46Z"/><path class="cls-14" d="M21.75,85.21c.7,5.64.12,11.31.41,17l0,0a.69.69,0,0,0-.72.72l0,0a.72.72,0,0,0-.73.72l0,0a.7.7,0,0,0-.72.72l0,0a.69.69,0,0,0-.72.72l0,0a.7.7,0,0,0-.72.72l0,0a.7.7,0,0,0-.72.72l0,0a.71.71,0,0,0-.72.72l0,0a1.88,1.88,0,0,0-1.41,1.41v0c-.85.45-1.74.87-1.42,2.11l0,0c-.6-.12-.83.12-.72.72v0a5.71,5.71,0,0,0-4.25,5.9c0,11.76-.43,23.53.13,35.26.29,6.18-1.81,9.91-7.44,12.21V118.79c1.62,0,1.66-1.4,2-2.44C7.87,104.74,15,95.07,21.75,85.21Z"/><path class="cls-5" d="M205.92,175.63c4,3,7.06-1,10.7-1.84,5.08-1.11,10.21-2,15.32-3,1-.19,1.84,0,2,1.26.2,1.5-.61,2.12-1.89,2.4-3.85.81-7.67,1.79-11.55,2.4-7.29,1.16-11.81,4.78-14.42,12.09-3.7,10.38-7.29,20.82-11.66,31-2.92,6.77-8.34,11.34-13.22,16.43-.38.4-.91.89-1.46.27s-.16-1.09.07-1.63A46.5,46.5,0,0,1,186.57,224a33.27,33.27,0,0,0,5.89-11c3.72-11.6,8.39-22.9,11-34.86C203.65,177.1,203.68,175.4,205.92,175.63Z"/><path class="cls-5" d="M148.26,237.42c-3.81-3.55-7.23-6.17-9.93-9.39-7.59-9-10.09-20.45-14-31.18a107.5,107.5,0,0,0-6-14.08,8.78,8.78,0,0,0-5.92-4.42,136,136,0,0,0-15.55-3.64,8.11,8.11,0,0,1-2.31-.79,1.82,1.82,0,0,1-1-2.35c.29-1.07,1.27-1,2-.84,6.68,1.81,13.84,1.82,20.12,5.16,1.46.78,2.76,1.06,4.2.06,2.31-1.59,3-.51,3.66,1.84,3.55,12.87,7.72,25.54,12.3,38.08,1.61,4.39,4.76,7.66,7.46,11.25C145.57,230,146.45,233.42,148.26,237.42Z"/><path class="cls-9" d="M147.9,19.64c1.13-9.51.4-7.29,8.85-9.83,7-2.1,13.52,0,20.12,1.79.48.12.84.72,1.25,1.1.23,2.17.42,4.35.69,6.52.53,4.19.54,4.19-3.56,4a.68.68,0,0,0-.65,0,108.39,108.39,0,0,0-24.75,0c-1.61.18-2.89.25-2.1-2Z"/><path class="cls-11" d="M96.28,144c-5.47.25-5.48.25-5.49-5.32,0-5.36.06-10.72-.07-16.08-.08-3.22-.19-6.34,2.78-8.52l0,0,1.4,0a58.57,58.57,0,0,0,5.35-2.41c2.36-1.33,3.26-.94,3.06,1.89-.54,7.49-1.06,15-1.4,22.47C101.61,142.13,101.74,142.13,96.28,144Z"/><path class="cls-11" d="M237.49,133.74v5.36c-2,.19-1.28,1.79-1.46,2.9s.49,2.47-1.36,2.62c-.41-.19-.82-.55-1.23-.55-6.24.07-8.63-2.83-8.4-9.16.3-7.9-1.34-15.81-.79-24,4,1.14,7.14,3.8,11,4.74,1.09,1,.86,2.32.86,3.59,0,4,0,7.9,0,11.86C236.08,132.18,235.68,133.58,237.49,133.74Z"/><path class="cls-11" d="M261.22,129.46c-2.21-5-1.47-10.22-1.38-15.4h0l1.38,0c3.36-1.86,6.93-3.37,9.87-5.92l1.3-.48c1.63,1.71.26,3.91.95,5.78a236,236,0,0,0,.4,26.06c.16,2.34-.51,3.18-2.75,1.86l0,0a1,1,0,0,0-.71-1.41v0c0-.91-.39-1.48-1.4-1.41h0c0-.49-.2-.74-.7-.72h0c.19-1.14,0-2-1.41-2.1h0c0-.46-.22-.72-.71-.71h0a3,3,0,0,0-2.8-3.49h0c0-.49-.2-.74-.7-.7h0c0-.51-.2-.74-.7-.71h0c0-.5-.21-.74-.71-.72Z"/><path class="cls-6" d="M184.59,16.05c2.87,1.31,4.29,3.78,5.69,6.47a134,134,0,0,1,15,53.34c1.08,16.26,2.63,32.49,3.26,48.78,0,.88.47,1.86-.37,2.62L206.66,126c-.33-22.23-2.93-44.23-6.35-66.31-1.54.46-1.44,2.14-2.78,2L197,61.6c.46-3.19-1.25-6-1.63-9,1.5,0,2.5-.21,1.89-2.19-3.5-11.34-6.31-23-13.21-32.93C183.61,16.81,184.1,16.4,184.59,16.05Z"/><path class="cls-8" d="M57.2,140c-1.07-.45-1.54.88-2.61.84V107.23A77.81,77.81,0,0,1,67,114.41a2.05,2.05,0,0,1,.7,1.88c-.22,4.19.82,8.52-1.45,12.47l0,0a.67.67,0,0,0-.72.72h0a.63.63,0,0,0-.71.71h0a3,3,0,0,0-2.8,3.49h0c-1.8.11-2.26,1.23-2.11,2.8v0c-.5,0-.72.24-.71.72h0c-1.74.15-2.29,1.2-2.1,2.8Z"/><path class="cls-14" d="M125.42,177.06c4.92,1.06,9.14,3.73,13.54,6,1.51.78,1.47,2.57,1.81,4,2.76,11.46,5.25,23,8.71,34.26,0,.36-.07.72-.11,1.09v0c-1.71.13-2.19,2.16-3.78,2.48-1.49-6.06-3.51-12.05-4.34-18.2-.91-6.7-3.9-11-10.42-12.83l-.34-.07a18.87,18.87,0,0,1-1.55-5.56c2.11.9,4.2,1.86,6.35,2.67.86.32,2,1.59,2.69.3.56-1.07-.36-2.26-1.45-2.81-3-1.52-6-2.93-9-4.39C126.82,181.65,126.12,179.35,125.42,177.06Z"/><path class="cls-11" d="M304.49,81.16c-.09,6.43-1.26,12.86,0,19.29.12.66,0,1.41.84,1.72v0c0,.25,0,.49,0,.73a1.22,1.22,0,0,0,1.43.67h0a.59.59,0,0,0,.69.69h0a.58.58,0,0,0,.69.69h0c0,.47.21.71.69.69h0q0,.72.69.69h0c0,.48.2.72.69.69h0q0,.73.69.69h0c.13,2.61,2.24,3.88,3.81,5.46s2.23,3.07,1.45,5.41a95.92,95.92,0,0,0-8.76-8.81l-.73,0,0,0a.64.64,0,0,0-.72-.72l0,0a.64.64,0,0,0-.72-.72l0,0c.12-1.06-.33-1.56-1.41-1.42v0a1,1,0,0,0-.71-1.41h0c-.35-2-2-3.18-3.39-4.22-3.72-2.79-4.6-6.45-4.7-10.85-.16-6.93-.55-13.85.2-20.76a33.87,33.87,0,0,0,2.36,3C300.16,75.39,300.91,79.44,304.49,81.16Z"/><path class="cls-14" d="M183.47,199.32c1.2-4.93,2.43-9.85,3.59-14.79a2.75,2.75,0,0,1,1.75-2c4.39-2.1,8.76-4.26,13.14-6.4a18.94,18.94,0,0,1-2.17,7.42c-3.4,2.51-8.74,2.55-10.73,8.28l9.35-3.67a16.55,16.55,0,0,1-1.56,5.55c-6.43,1.63-10.14,5.15-10.7,12.34-.51,6.66-3.61,12.95-4,19.73l-.29,0-.29,0,0,.05c-.47-2-2.46-2.79-3.53-4.32Q180.78,210.43,183.47,199.32Z"/><path class="cls-11" d="M22.21,108.46c-4.15,1.89-6.36,5.9-9.56,8.82a13.84,13.84,0,0,0-1.13,1.35c-2.14-3.55,1.93-4.88,2.26-7.43v0l.72-.72,0,0c1-.36,1.61-1,1.42-2.11v0c1,.11,1.5-.38,1.41-1.41l0,0a.63.63,0,0,0,.72-.72l0,0a.64.64,0,0,0,.72-.72l0,0a.65.65,0,0,0,.72-.72l0,0a.65.65,0,0,0,.72-.72l0,0a.65.65,0,0,0,.72-.72l0,0a.67.67,0,0,0,.73-.72l0,0a.66.66,0,0,0,.72-.72l0,0c1.55-.17,1.32-1.39,1.31-2.38-.06-6.22.44-12.47-.4-18.68,1.41,0,1.94-1.07,2.6-2l6.58-9.26c.25,9.63,1.6,19.3-1,28.84h0c-4,2.4-7.37,5.32-9.1,9.8Z"/><path class="cls-8" d="M77.4,112.67c3.49.1,5.4,1.77,5.49,6.09.24,11.16.11,22.34.13,33.51a3.27,3.27,0,0,1-3.36,3.3A3.91,3.91,0,0,1,76,151.4C76,139.18,76,127,76,114.75l0,0c1.39-.1,1.52-1,1.42-2.13Z"/><path class="cls-11" d="M244.64,116.28c1.22-1.07,2-3.71,3.87-2.68a6.5,6.5,0,0,1,3.11,5.79c0,5.2,0,10.4-.06,15.6,0,2.35,0,4.71,0,7.06,0,2.77,0,5.54,0,8.31l-.84,4.91,0,0a1,1,0,0,0-1.37.68l0,0c-2.59-.29-4.9-.92-4.88-4.21Q244.53,134,244.64,116.28Z"/><path class="cls-6" d="M141.66,16.53c-2,5.15-4.18,10.27-6.1,15.47-5.6,15.11-9.84,30.5-11.47,46.65-1.59,15.77-3.59,31.48-3.31,47.37-.07.18-.13.36-.2.55-.36.1-.88.07-.62.72l0-.09c-1.37,0-1.31-.9-1.26-1.85,1.24-23,1.61-46.12,5.59-68.87,2.34-13.37,8.36-25.57,14.44-37.64A4.49,4.49,0,0,1,141.66,16.53Z"/><path class="cls-14" d="M1.88,179c13.56,7,27.27,13,40.84,19.3,2.84,1.32,1.25,3,.76,4.56-.7,2.27-2.13,1.08-3.3.51C28.4,197.6,16.67,191.72,4.85,186,1.84,184.58.65,182.66,1.88,179Z"/><path class="cls-14" d="M326,182c.33,1.8-.66,2.71-2.18,3.46q-18.24,9-36.45,18.2c-1.49.75-2.83,1.31-3.48-.94-.46-1.59-1.53-2.95,1-4.15,12.92-6.05,25.76-12.28,38.58-18.57C326.21,178.67,326.16,180.09,326,182Z"/><path class="cls-11" d="M78.81,100.79c-2,2.13-4,4.2-5.83,6.44-.81,1-1.42.94-2.29.33a3.66,3.66,0,0,0-.57-.4c-7.18-2.88-10.62-7.84-9-15.79.63-3-1.19-6-.1-9C67.68,87.87,73,94.57,78.81,100.79Z"/><path class="cls-12" d="M266,83.92c.05,5.45.09,10.9.16,16.35a2.75,2.75,0,0,1-1.64,2.78c-1.54.8-3,1.75-4.5,2.64-5,3-5,3-8.77-1.35-1.06-1.21-2.23-2.32-3.35-3.48,4.7-4.6,9.38-9.23,14.12-13.78C263.23,85.91,264.08,84.23,266,83.92Z"/><path class="cls-9" d="M259.44,153c0-1,0-1.13,0-1.24.36-2.72-1.09-7.31.54-7.83,3.67-1.18,8-.43,12-.37,1.33,0,1.17,1.21,1.16,2.11,0,3.72-.13,7.43-.09,11.14,0,1.46-.55,2.11-1.95,2.26-1,.12-2.05.39-3.08.52-2.82.35-6.35,2.63-8.2.91S259.59,155,259.44,153Z"/><path class="cls-11" d="M208,128.14c.23,1.12.25,2.09-1.33,2a26.71,26.71,0,0,0-8.81-4.28c-5.76-4.21-12.4-6.69-18.89-9.44a6.31,6.31,0,0,0-3.43-.14c-4.38.86-8.8.58-13.18.43-9.11-.32-18.1-.31-26.07,5.07-.1.07-.23.06-.33.12-5.21,3.19-11.16,5-16,8.91l-1.37,0c-.34-1.51.44-2.61,1.35-3.65l0,.09a1.47,1.47,0,0,0,1.64-.61,111.14,111.14,0,0,0,22.25-11.63,16.47,16.47,0,0,1,6.12-.93c8.33,0,16.65,0,25,0,2.89,0,5.78-.16,8.57.84C191.23,120.23,199.81,123.86,208,128.14Z"/><path class="cls-10" d="M68.15,153.39c0,1.22-.13,3.32,0,5.39.2,2.35-.73,2.77-2.83,2.24-3.57-.9-8.22-.36-10.47-2.79-2-2.18-.65-6.64-.77-10.09-.16-4.73-.09-4.8,4.5-4.73,3,0,6.82-1.34,8.7.44S67.74,149.56,68.15,153.39Z"/><path class="cls-11" d="M60.64,186.72c-.1-2.52-2-4.72-1.39-7.37a1.43,1.43,0,0,1-.09-.41c6.24-1.68,12.52-2.7,19-1.32a5.41,5.41,0,0,0,.58.12c1,1.54,2.8,1.9,4.21,2.81a5,5,0,0,1,2.51,3.38c-.71,1.81-2.27,2.11-3.93,2.21-5.26-1.14-10.58-.91-15.9-.74-1.5-.08-2.85-.2-3.6,1.69C61.33,188.79,60.83,187.85,60.64,186.72Z"/><path class="cls-12" d="M247.32,87.52c0,2.31,0,4.62-.15,6.92-.36,5-3.77,7-8.16,4.75-2.52-1.28-6.07-1.81-5.23-6,0-2.88.07-5.77.11-8.65a85.39,85.39,0,0,0,12,.13C247.8,84.85,247.07,86.44,247.32,87.52Z"/><path class="cls-8" d="M227,253.85c-2.73-.47-5.45-.95-8.18-1.39a4.67,4.67,0,0,0-1.32.22c2.63,1.83,5.87,1.07,8.22,3-8.4-1.74-16.82-2.7-25.32-.56,2.44-2.25,5.93-.94,8.42-2.78,1.19-.08,2.42.36,3.7-.34a4.21,4.21,0,0,0-1.05-.29c-.9,0-1.79.05-2.68.08l-4.73.47c-.63-4.78-.64-4.87,4.06-5.76a40.18,40.18,0,0,1,11.33-.07c2.5.24,5,1.41,7.57.29a13.29,13.29,0,0,1,4.91,1.58l-.66,1.31c-.24-.52-.49-.67-.74,0h0a1.19,1.19,0,0,0-.71,1.41l0,0-.72.72,0,0-.72.71h0l-.73.8Z"/><path class="cls-11" d="M80.09,95.22c0-3,.12-6,.12-9,0-1.37.34-2.46,1.94-2,3.6,1,7.12.24,10.66-.25l.7.07c-.29.93-1.14,1.86,0,2.8a30.75,30.75,0,0,0,0,4.5c.54,3.82-1.1,5.91-4.6,7.34C83.88,100.67,82.57,100.34,80.09,95.22Z"/><path class="cls-10" d="M50.72,75.62a18.57,18.57,0,0,0-6.83.7c0-3.26,0-6.53-.07-9.79,1.39.09,2-.42,2.18-2,.33-3.42,1-6.82,1.31-10.24A8.91,8.91,0,0,0,47,49.88c-.27-.63-.56-1.37-1.4-1.35s-1,.79-1,1.51c-.09,1,.3,2.19-1.19,2.51,0-3.26,0-6.51-.14-9.76a3.09,3.09,0,0,1,1.85-3c4-2.34,4.8-2,4.91,2.73Q50.4,59.05,50.72,75.62ZM47.33,43.93c-.3-.77-.22-2.15-1.68-2.36-.89-.13-1,.7-1.06,1.42,0,1.09.14,2.12,1.42,2.4C46.88,45.58,47.25,45,47.33,43.93Z"/><path class="cls-12" d="M266,186.06c-7-1.3-13.91-1.81-20.82.6-2.53.89-2-1.39-2.22-2.74-.06-.73-1-1.48,0-2.19,2.88-.16,5.3-1,6.43-4,3.56-1,7.19-.77,10.82-.7,2.52,0,4.64,2.15,7.3,1.35h0l.71,1.29C268.2,182,267.91,184.34,266,186.06Z"/><path class="cls-11" d="M123.42,252.3c-1.82-.3-3.63-.81-5.52-.42.08.94,1.59.45,1.5,2-1.83,0-3.72,0-5.62,0a37.81,37.81,0,0,0-11.23,2.1c-1,.35-2.47,1.63-2.77-.78h0c3.49-.44,6.55-2.36,10.08-2.77-3.47-.6-6.7,1.14-10.1.66l0,0-.73-.73,0,0-.73-.73,0,0a.93.93,0,0,0-1.06-.73,3.61,3.61,0,0,1-.33-.35c.84-.93-1.54-2.56.7-3.19.93,1.29,2,.66,3.12.29,6.06-2.08,12.34-1.76,18.58-1.58,4.77.15,5.14.75,4.16,5.07A9.09,9.09,0,0,0,123.42,252.3Z"/><path class="cls-9" d="M182.15,225.82c.38-6.78,3.48-13.07,4-19.73.56-7.19,4.27-10.71,10.7-12.34-2.91,10.52-5.58,21.15-12.22,30.15C184,224.71,183.83,226.29,182.15,225.82Z"/><path class="cls-11" d="M250,75.59h1.36a17,17,0,0,1,2,5.71,2.86,2.86,0,0,1-2.66,1.41c-7.21,1.23-14.4.78-21.59-.17l-1.43-1.23c.51-1.92,1-3.85,1.51-5.77C236.12,76.32,243.08,76.69,250,75.59Z"/><path class="cls-4" d="M52.2,172.15c-2.37-2.55-4.79-5.05-7.1-7.66a2.89,2.89,0,0,0-3.66-.84c-12.32,4.54-24.67,9-37,13.51-.47.17-.77.79-1.15,1.2-.65-.41-.68-1.07-.72-1.74,12.11-5.06,24.55-9.24,36.89-13.66,2.67-1,3.71-2.12,3.66-5.14-.31-20.35-.4-40.7-.53-61,0-1.29-.27-2.66,1.09-3.89.07,1.28.18,2.55.19,3.82.15,20,.33,40,.36,60,0,3.07.56,5.54,2.94,7.72a53.22,53.22,0,0,1,5.11,6.13C52.25,171.08,52.23,171.61,52.2,172.15Z"/><path class="cls-9" d="M130.49,193.73l.34.07c6.52,1.81,9.51,6.13,10.42,12.83.83,6.15,2.85,12.14,4.34,18.2-.39,1.49-1.07,1.28-1.81.27-1.69-2.35-3.79-4.52-5-7.1A140.17,140.17,0,0,1,130.49,193.73Z"/><path class="cls-12" d="M99.79,80.76,96.9,82.29l-4.1.37c-6.14-.22-12.39.6-18.35-1.68.14-2.28,1.23-4.43.87-6.76,7.42,2.42,15,1.5,22.48.72Q98.79,77.85,99.79,80.76Z"/><path class="cls-10" d="M184.59,16.05c-.49.35-1,.76-.53,1.4,6.9,10,9.71,21.59,13.21,32.93.61,2-.39,2.22-1.89,2.19-.42-1.06-.85-2.12-1.24-3.19-2.27-6.2-3.89-12.84-8.12-18-4.4-5.36-5.24-11.37-5.33-17.81Z"/><path class="cls-11" d="M274.24,76.31c1.6,1.44.12,3,.17,4.57.18,4.86.07,9.74,0,14.61,0,2.12-3.8,5.42-5.86,5.19-1.45-.16-1-1.34-1-2.16,0-6,.05-12.06.09-18.09C270.66,80.37,271.61,77,274.24,76.31Z"/><path class="cls-12" d="M92.1,224.65l-.78-.27c-.22-4.61-.39-9.22-.67-13.83-.32-5.48,3-8.88,6.74-12.05.63,6,.16,12.06.22,18.09C97.68,222.43,97.61,222.43,92.1,224.65Z"/><path class="cls-12" d="M236,224.56c-6.17-1.24-6.26-1.24-6.14-7.32.12-6.26-.56-12.54.32-18.79,3.69,3.42,7,7,6.62,12.59C236.47,215.55,236.25,220.06,236,224.56Z"/><path class="cls-8" d="M59.74,79.68v20.48c-6-1.31-6.84-2.3-6.83-8.19,0-5.45,0-10.9,0-16.35C55.35,76.75,56.45,80.05,59.74,79.68Z"/><path class="cls-5" d="M123.42,252.3a9.09,9.09,0,0,1,.14-1c1-4.32.61-4.92-4.16-5.07-6.24-.18-12.52-.5-18.58,1.58-1.08.37-2.19,1-3.12-.28,4.62-2.72,9.86-3,15-3.35,8.26-.62,16.24,1.38,24.18,3.38v0c-.15,3.3-3,5-4.47,7.56-.33.55-.83.49-1.35-.11C129,252.64,126.07,252.86,123.42,252.3Z"/><path class="cls-8" d="M148.05,232.82c-2.24-3.2-3.12-6.26.83-8.9a1.41,1.41,0,0,0,.49-1.57v0a24.19,24.19,0,0,1,11-2.12c5.72.29,11.5-.44,17.1,1.39h-.08a5.58,5.58,0,0,0,4.2,4.24l0-.05c.47,3.86-2.78,6.4-3.52,9.84a1.54,1.54,0,0,1-.73-1.41c2.4-5.79,2.21-6.69-1.91-9.24-1.26-1.66-3-1.93-5-1.92-4.65,0-9.3-.07-14,0-5.68,0-8.74,4.4-7,9.84Z"/><path class="cls-5" d="M227,246.77c-2.56,1.12-5.07-.05-7.57-.29a40.18,40.18,0,0,0-11.33.07c-4.7.89-4.69,1-4.06,5.76a22.29,22.29,0,0,0-7.32,2c-1.95,1-4.29-1-5.57-4.34-1-2.56,1.25-2.37,2.44-2.75,10.16-3.19,20.51-3,30.91-1.49A10.47,10.47,0,0,1,227,246.77Z"/><path class="cls-11" d="M231.07,98.62a33.35,33.35,0,0,1,0,4.47c-.5,4,.32,7,4.74,8.49,2.52.87,2,2.44-.47,3.19-2.64-2.13-5.93-3-8.88-4.52-1.94-1-3.2-2.26-3-4.83.14-2.21.64-4.59-.6-6.74l.39-3C226.23,95.62,228,98.78,231.07,98.62Z"/><path class="cls-11" d="M92.07,109.84c3.09.28,4.52-1,4.28-4.23-.19-2.54,0-5.1,0-7.66,3,.28,4.68-2.72,7.47-2.89-.33,7.06,1.46,15.14-8.49,17.56-.19,0-.33.32-.49.48l-1.34,1,0,0c-.91-.5-1.93,1.42-2.93-.32-1.22-2.14,1-2.63,1.51-3.9Z"/><path class="cls-5" d="M112.29,100c-.08,14.63-1.17,29.21-1.89,43.81-.45,9.16-.56,18.35-.83,27.52l-1.39,0c-.18-15.35,1.16-30.64,1.75-46,.33-8.46.85-16.92,1.29-25.39Z"/><path class="cls-12" d="M228.94,180.57a5.68,5.68,0,0,1-.16,1c-.95,2.69,1,6.63-1.75,8-2.13,1.1-5.42,0-8.2-.19-2.19-.14-4.37-.35-6.56-.54C215.81,182.09,222.17,180.93,228.94,180.57Z"/><path class="cls-11" d="M116.72,221.72a1.61,1.61,0,0,1,.38,0c3.94-.18,7.64.91,11.33,2.07a3.64,3.64,0,0,0,0,.66l-11.87-1.21-.7,0a61.84,61.84,0,0,0-27.53,5.93c.88-3.2,3.5-2.5,4.58-3.92,1.67-.46,3.34-.93,5-1.37,1-.27,1.4-.74,1.38-2-.18-9.63-.23-19.26-.33-28.9.36-1,.83-2,1.4-.17a11.82,11.82,0,0,1,.15,3c0,8.21,0,16.43-.08,24.64,0,2.16.59,2.91,2.87,2.32A46.84,46.84,0,0,1,116.72,221.72Z"/><path class="cls-12" d="M115,189.34c-4.41.09-8.82.11-13.23.3-1.91.08-2.75-.48-2.75-2.49s-.31-3.92-.49-5.88C106.15,180.73,112.64,183.91,115,189.34Z"/><path class="cls-11" d="M76,114.75c-1.15,1.21-2,3.17-4.2,1.43.74-3.2,3.18-5.26,5.18-7.6,3.85-4.52,3.87-4.5,8.14-1.52l0,0c-.07,1.14.1,2.1,1.55,2.13a16.33,16.33,0,0,1,1.57,2.65c.49,1.35,2.25,3.17-.21,4-1.73.6-3.93,1.81-5.29-1.45-1.73-4.16-3-4.31-5.34-1.71l0,0A2.26,2.26,0,0,0,76,114.77Z"/><path class="cls-11" d="M242.33,116.92c-4.9-1.52-4.91-1.52-2.56-6.14.9-1.75,1.85-3.48,2.77-5.23,1.72.36,3.56-1.71,5.19.25,2.8,3.35,5.78,6.58,7.37,10.76-1.27.3-2.34.46-3.3-.94-4.09-6-4.79-5.88-8.08.54Z"/><path class="cls-4" d="M94.82,113.1c.16-.16.3-.43.49-.48,10-2.42,8.16-10.5,8.49-17.56a4.93,4.93,0,0,0,0-3.26l1.48-.11c.09.69.17,1.38.25,2.07q-1.23,22-2.46,44c-.37,6.41-.42,6.41-6.82,6.92,0-.25,0-.5,0-.75,5.46-1.84,5.33-1.84,5.61-8,.34-7.5.86-15,1.4-22.47.2-2.83-.7-3.22-3.06-1.89A58.57,58.57,0,0,1,94.88,114Z"/><path class="cls-4" d="M222.84,98.68c1.24,2.15.74,4.53.6,6.74-.16,2.57,1.1,3.81,3,4.83,3,1.53,6.24,2.39,8.88,4.52,0,.3-.09.59-.14.89-3.83-.94-6.94-3.6-11-4.74-.55,8.18,1.09,16.09.79,24-.23,6.33,2.16,9.23,8.4,9.16.41,0,.82.36,1.23.55v.82a7.22,7.22,0,0,1-1,0c-9.37-1.41-9.51-1.41-9.92-10.88-.52-12-1.77-23.89-1.54-35.89Z"/><path class="cls-8" d="M198.51,223.2c3.44-.48,6.85-1.14,10.3-1.41a49.78,49.78,0,0,1,14.5,1.1c2.54.55,3.82.17,3.74-3-.21-8-.08-16,0-24,0-1.07-.45-2.29.73-3.4,1,.95.69,2.15.69,3.18,0,8.71,0,17.41-.21,26.11-.09,3.11,2.81,1.72,3.73,3.11,0,.38-.08.77-.13,1.15-4.12-.51-8.05-1.91-12.21-2.34-7.2-.74-14.23.11-21.25,1.45C198.42,224.5,198.47,223.85,198.51,223.2Z"/><path class="cls-5" d="M180.69,13.59C180.78,20,181.62,26,186,31.4c4.23,5.14,5.85,11.78,8.12,18,.39,1.07.82,2.13,1.24,3.19.38,3,2.09,5.84,1.63,9l-.73.06q-1.46-4.66-2.9-9.34l.05-.29a60.48,60.48,0,0,0-3.76-10.44c-.49-1.16-1-2.44-2.66-2.32l-.55-.73c2.09-.27,1.3-1.53.75-2.5-1.25-2.21-2.61-4.36-4-6.52-1.47-2.35-2.85-4.76-6.19-4.74-.86,0-1.93-.25-1.82-1.59,4.1.22,4.09.22,3.56-4-.27-2.17-.46-4.35-.69-6.52C179.06,12.75,180.05,12.69,180.69,13.59Z"/><path class="cls-14" d="M271,141.32c-.29,2.07-1.89,1.26-3,1.24-9.92-.19-8.55,1-8.7-8.69,0-1.27.05-2.54,0-3.8-.13-2.78,1.18-.77,1.94-.61l0,0a.67.67,0,0,0,.71.72h0c0,.46.22.71.7.71h0c0,.48.18.74.7.7h0a4.69,4.69,0,0,0,2.8,3.49h0c0,.48.19.76.71.71h0a1.87,1.87,0,0,0,1.41,2.1h0c0,.45.22.72.7.71h0c0,.93.33,1.54,1.4,1.41v0c-.28.73,0,1.16.71,1.41Z"/><path class="cls-5" d="M115,189.34c-2.34-5.43-8.83-8.61-16.47-8.07-.25-4.41-.24-4.46,4.1-3.61,2.71.53,5.37,1.38,8.09,1.88a8.61,8.61,0,0,1,7,6c.41,1.17,1.86,2.37,1.15,3.44C118,190.19,116.33,189.41,115,189.34Z"/><path class="cls-8" d="M54,99.72c5.93,2.25,10.83,6,16.15,9,1.68,1,.1,2-.4,2.87s-1,2.16-2.61,1.19c-3.79-2.26-7.69-4.32-11.5-6.54C53,104.73,55.14,101.87,54,99.72Z"/><path class="cls-5" d="M129.82,221.73c-2-7-4.69-13.76-7.38-20.52-2.18-5.48-6.47-7.46-11.82-8.21-2.24-.31-4.57-.24-6.65-1.37a57.29,57.29,0,0,1,14-1.34,2.44,2.44,0,0,1,2.28,1.83q5.48,14.25,10.91,28.53a5.49,5.49,0,0,1,.08,1.73l0,0-.79-.1-.63-.61Z"/><path class="cls-8" d="M163,1.64c2,.24,3.62.42,5.22.63,3.11.41,4.48,2.18,4,5.19-.28,1.77-1.54,1-2.41.79a27,27,0,0,0-12-.4c-.84.17-2.48,1.56-2.72-.53-.2-1.66-.86-3.92,1.87-4.5C159.1,2.37,161.26,2,163,1.64Z"/><path class="cls-8" d="M273.1,105.67l-.77,1.3,0,0-1.37,0c-3.63,1.88-7.42,3.51-10.54,6.25l-.64.76h0c-3.91-2.81-3.95-4.14-.23-6.28,4.51-2.59,9-5.22,13.49-7.84l.72,0c0,.74.05,1.47.07,2.21C272.65,103.14,273.36,104.51,273.1,105.67Z"/><path class="cls-14" d="M231.93,97.44l9.58,4.45c.21.1.53.25.54.39.2,2.75-2,4.49-2.94,6.76-.52,1.22-1.33,1.51-2.78,1-3.11-1-5.05-2.38-4.46-6.09A44.19,44.19,0,0,0,231.93,97.44Z"/><path class="cls-5" d="M217.63,153.84a58.17,58.17,0,0,1-1-7.82c0-15.72-1.54-31.36-2.19-47,0-1,0-2.09,0-3.13h1.16q2,29,2.9,58.06Z"/><path class="cls-5" d="M228.94,180.57c-6.77.36-13.13,1.52-16.67,8.34a2.81,2.81,0,0,1-3.53.24c-1-.86.09-2.14.47-3.14a9.12,9.12,0,0,1,7.22-6.29,64,64,0,0,0,9.08-2.24C228.88,176.32,229.46,177.7,228.94,180.57Z"/><path class="cls-7" d="M236,224.56c.27-4.5.49-9,.8-13.52.4-5.59-2.93-9.17-6.62-12.59-.16-1.37-.33-2.73-.49-4.09,4.25,5.83,10.65,10.45,9.69,18.9a82.67,82.67,0,0,0-.15,9.71C239.22,225.81,238.39,226.71,236,224.56Z"/><path class="cls-7" d="M97.39,198.5c-3.75,3.17-7.06,6.57-6.74,12.05.28,4.61.45,9.22.67,13.83-.84.52-1.42,1.93-2.58,1.3-.82-.45-.64-1.68-.65-2.59,0-4.75-.09-9.51,0-14.27a5,5,0,0,1,.69-2.63c2.84-4.21,5.41-8.62,8.9-12.36C97.55,195.39,97.47,196.94,97.39,198.5Z"/><path class="cls-14" d="M66.24,128.76c.91-.41,1.5-.41,1.48.88q-.09,4.86,0,9.74c0,1.39-.61,2.31-2,2.41-2.65.18-5.32.3-8,.23-1.91-.06-.15-1.41-.54-2.06l0,0a3.37,3.37,0,0,0,2.1-2.8h0c.47,0,.67-.28.71-.72v0a3.89,3.89,0,0,0,2.11-2.8h0a5.09,5.09,0,0,0,2.8-3.49h0c.49,0,.69-.26.71-.71h0a.72.72,0,0,0,.72-.72Z"/><path class="cls-4" d="M13.74,156.62c4.31-3.28,8.44-6.83,13-9.75,4-2.56,5.33-5.89,5.26-10.39-.13-7.65,0-15.29.05-22.94,0-1.23-.4-2.56.54-3.67h.71c0,10.57,0,21.15,0,31.72a3.35,3.35,0,0,1-1.38,3q-8.7,6.38-17.37,12.8Z"/><path class="cls-3" d="M325.14,119.46c-1.58-1-2-2.85-2.41-4.36-2.23-8.46-7.46-15.28-11.91-22.53q-2.07-3.39-3.93-6.92c-.45-.84-1.28-1.77-.37-2.84,4.29,6.45,8.92,12.7,12.75,19.41C322.28,107.49,323.9,113.47,325.14,119.46Z"/><path class="cls-3" d="M21.75,85.21C15,95.07,7.87,104.74,4.21,116.35c-.33,1-.37,2.4-2,2.44a65.93,65.93,0,0,1,5.91-16.25,159.89,159.89,0,0,1,13.27-20l.52.87Z"/><path class="cls-7" d="M78.81,100.79C73,94.57,67.68,87.87,61.07,82.42a4.78,4.78,0,0,1,.24-3.25c3.12,1.75,4.85,5,7.65,7,.4.69.77,1.41,1.73,1.43.3,1.47,1.57,2.17,2.51,3.13,0,.23.1.34.33.32.48.61.85,1.34,1.76,1.42h0a4.25,4.25,0,0,0,2.65,2.91l-.12.17a24.79,24.79,0,0,0,1.9,2.43C81.29,99.53,80.89,100.4,78.81,100.79Z"/><path class="cls-5" d="M177.32,234.25a1.54,1.54,0,0,0,.73,1.41c-.43,3.14-2,4.46-5.37,4.28a150.4,150.4,0,0,0-16.31,0c-3.75.21-6.29-.65-7.19-4.59a14.2,14.2,0,0,0-1.13-2.53l1.44.07,2,2.12.69,1.41c.43,1.82,1.92,1.31,3.1,1.32,5.06,0,10.13-.16,15.18.1C173.61,238,176,237.41,177.32,234.25Z"/><path class="cls-7" d="M266,83.92c-1.91.31-2.76,2-4,3.16-4.74,4.55-9.42,9.18-14.12,13.78-1.73-.57-1.41-1.45-.44-2.52,5.81-6.39,11.92-12.48,18.4-18.77A8.24,8.24,0,0,1,266,83.92Z"/><path class="cls-14" d="M94.75,97.37c1.91,4.66.75,10.08-2.68,12.47h0c-5,1.25-4.51-3.35-6.14-5.7,2.62-.62,4.73-2.25,7.06-3.46A2.82,2.82,0,0,0,94.75,97.37Z"/><path class="cls-4" d="M324.16,177.58c-11-4-22-7.84-32.88-11.88-1.92-.71-4.11-.86-5.65-2.46l0-.85q19.43,6.5,38.47,14C324.15,176.8,324.15,177.19,324.16,177.58Z"/><path class="cls-4" d="M295.28,107.72c.09,10.4.29,20.81.19,31.21a7.49,7.49,0,0,0,3.4,6.64c1.81,1.39,4.56,2,4.95,4.88-3.32-1.47-5.77-4.15-8.69-6.18a2.65,2.65,0,0,1-.88-2.49l-.12-34Z"/><path class="cls-4" d="M242.33,116.92l1.39-.76.92.12q-.1,17.76-.19,35.51c0,3.29,2.29,3.92,4.88,4.21,0,1.09-.63,2.18-1.55,1.73-1.9-.94-4.16-1.77-4.69-4.25a13.55,13.55,0,0,1-.08-2.78c0-9.76,0-19.51,0-29.27,0-1.23.43-2.57-.57-3.66C242.38,117.49,242.36,117.21,242.33,116.92Z"/><path class="cls-7" d="M234.61,243.36c1.68-3.17.47-6.57.79-9.84a38.88,38.88,0,0,0,0-4.18c2.72.16,3.82,1.57,3.55,4.3a26.7,26.7,0,0,0,0,5.51,9.08,9.08,0,0,1-3.48,8.48l-2.07-.14a1.92,1.92,0,0,0-.16-.58c0-.72.05-1.43.07-2.14C234.2,244.75,234.69,244.32,234.61,243.36Z"/><path class="cls-6" d="M209.46,136.3c0,.56,0,1.13,0,1.68-1.57,4.19-.63,8.65-1.27,12.94-.3,2,.2,4.15-1.36,5.83-1.55-1.82-.93-4-.68-5.94a72.56,72.56,0,0,0-.07-19.53l.66.23C209,132.34,208.78,134.57,209.46,136.3Z"/><path class="cls-4" d="M116.72,221.72a46.84,46.84,0,0,0-13.42,1.06c-2.28.59-2.89-.16-2.87-2.32.08-8.21.06-16.43.08-24.64l1.18,0c.08,7.29.32,14.57.18,21.85-.06,3.21,1.22,3.83,3.92,3.12,3-.78,6-.33,9-.46C115.78,220.24,116.6,220.51,116.72,221.72Z"/><path class="cls-9" d="M43.39,52.55c1.49-.32,1.1-1.53,1.19-2.51.06-.72.13-1.48,1-1.51s1.13.72,1.4,1.35a8.91,8.91,0,0,1,.29,4.46c-.35,3.42-1,6.82-1.31,10.24-.14,1.53-.79,2-2.18,2L43.32,63Z"/><path class="cls-4" d="M78.13,177.62c-6.45-1.38-12.73-.36-19,1.32l-.64-.94a2.86,2.86,0,0,0,2.12-3.16c-.1-1.86,0-3.73.07-5.59,1.95-.61,3,1.69,4.88,1.46,0,5.48,0,5.47,5.33,5.49,2.4,0,4.8.06,7.21.1Z"/><path class="cls-6" d="M121.42,131.07a106,106,0,0,0,0,25.17c.13,1.08.45,2.34-.63,3.24-2.69-9-2.07-18.33-2-27.58L121,131A2.37,2.37,0,0,0,121.42,131.07Z"/><path class="cls-7" d="M93.42,244.86c0,.91.09,1.82.13,2.73a.86.86,0,0,0,0,.65l-1,.28c-3.54-3.5-5.71-12.9-4-17.23.5-1.23,1.66-1.49,2.74-1.87,0,3.42,0,6.85.12,10.26,0,1.32.18,2.75,1.4,3.68A1.25,1.25,0,0,0,93.42,244.86Z"/><path class="cls-7" d="M255.1,116.56c-1.59-4.18-4.57-7.41-7.37-10.76-1.63-2-3.47.11-5.19-.25,2.34-4.74,2.58-5.11,6.87-1.1,3,2.82,6.08,5.71,7.84,9.6C258.31,116.4,257.75,117.38,255.1,116.56Z"/><path class="cls-12" d="M257.8,140c-1.19-1-.68-2.32-.76-3.53-.23-3.06-.05-6.12-.45-9.21-.36-2.85-1.24-3.46-3.7-2.69,0-1.05,0-2.09-.07-3.13-.21-2.16.2-3.41,2.9-3.39s2.76,1.29,2.69,3.25C258.17,127.51,258,133.74,257.8,140Z"/><path class="cls-12" d="M97.2,82.75c4.13-.65,4.13-.65,4.1,3.82,0,1.49,0,3,.06,4.46-.32.33-.59.79-1,1-1.13.53-2.27,1.89-3.41,1.35-1.3-.62-.63-2.33-.55-3.5C96.58,87.48,95.52,85,97.2,82.75Z"/><path class="cls-4" d="M97.39,198.5c.08-1.56.16-3.11.25-4.67A1.46,1.46,0,0,1,99,193c.1,9.64.15,19.27.33,28.9,0,1.22-.34,1.69-1.38,2-1.67.44-3.34.91-5,1.37-.26-.2-.53-.39-.8-.58,5.51-2.22,5.58-2.22,5.51-8.06C97.55,210.56,98,204.52,97.39,198.5Z"/><path class="cls-5" d="M74.66,167.14c-.17,2,2.35,2.5,2.57,5-7.36-2.63-14.59-4.71-22.25-6.82,1.41-1.34,2.55-.87,3.72-.56,3.46.94,6.94,1.83,10.4,2.77.79.21,1.65.6,2.3-.05s0-1.43-.33-2.15c-.45-.91-.27-1,1.5-1h0l.72.72v0a1.25,1.25,0,0,0,.7,1.41h0l.7.7Z"/><path class="cls-12" d="M225.56,84c.43-2.27,2.23-1.08,3.45-1.36,1.45,1.68,2,8.81.78,10.42a1,1,0,0,1-1.46.36c-1.24-.62-2.61-1.17-2.67-2.85C225.58,88.39,225.59,86.2,225.56,84Z"/><path class="cls-8" d="M78.13,176.3c-2.41,0-4.81-.09-7.21-.1-5.36,0-5.36,0-5.33-5.49,4.52-.09,8.09,2.75,12.17,4C78,174.81,78,175.75,78.13,176.3Z"/><path class="cls-7" d="M85.14,107.06c-4.27-3-4.29-3-8.14,1.52-2,2.34-4.44,4.4-5.18,7.6-1.78.3-3-.09-1.8-2.11a44.37,44.37,0,0,1,9.67-11.73c1.54-1.31,2.66-1.07,3.56.68C83.92,104.35,85,105.48,85.14,107.06Z"/><path class="cls-5" d="M255.59,166.43c-.3-2,1.54-2,2.62-2.54,4-2.12,8.32-2.69,12.71-3,.64,0,1.57-.25,1.77.63.26,1.11-.74,1.27-1.5,1.49-5.1,1.47-10.18,3.06-15.51,3.51Z"/><path class="cls-5" d="M255.68,166.52c-.14,1.61.38,2,2,1.48,3.87-1.18,7.8-2.13,11.71-3.19a2.77,2.77,0,0,1,3.27.64l-22.63,6.63,0,0c1.83-1.9,2.62-4.83,5.56-5.63Z"/><path class="cls-8" d="M253.62,172.82c1.76-.5,3.52-1,5.3-1.47,1.15-.3,2.71-1.59,3.38-.49s.46,3,.13,4.37c-.4,1.75-2.11.92-3.25,1-2.07.11-4.16,0-6.24,0C253.16,175.07,253.39,174,253.62,172.82Z"/><path class="cls-8" d="M271.71,171.67c-2.25,0-1.1,1.74-1.39,2.73-.42,1.4.82,3.38-1.45,4.13l-1.37-.17h0c-2.54-2.64-1.35-5.82-1-8.73.17-1.38,2.4-1.87,3.44-1.49A2.66,2.66,0,0,1,271.71,171.67Z"/><path class="cls-6" d="M293.78,66c-2.95-.55-3.64-3.46-5.41-5.23-1.08-1.09-1.26-3-3.16-3.33,0-1.61,0-3.21,0-4.82l.75-.22,3.16,3.81c1.3,2,2.58,4,3.92,6A4,4,0,0,1,293.78,66Z"/><path class="cls-5" d="M69.71,165.8c-4.77-.23-9.23-1.84-13.76-3.11-.73-.2-1.72-.61-1.38-1.65.41-1.26,1.35-.33,2-.23,3.29.47,6.58,1,9.87,1.51a3.57,3.57,0,0,1,3.28,3.44Z"/><path class="cls-4" d="M208,128.14c-8.23-4.28-16.81-7.91-24.52-13.16l.52-.54L206.66,126l1.47,1.23Z"/><path class="cls-12" d="M71.12,117.57c.54,7.35-1,14.64-.7,22a2,2,0,0,1-.77,1.82c-.22-7-.45-14-.65-21C69,118.93,68.62,117.15,71.12,117.57Z"/><path class="cls-11" d="M180.17,11.3c-2.57-1-6.16-.44-6.84-4.49-.51-3-.1-3.48,2.89-2.55.88.28,1.74.59,2.61.88C178.52,7.36,180.55,9.07,180.17,11.3Z"/><path class="cls-9" d="M198.4,188.2l-9.35,3.67c2-5.73,7.33-5.77,10.73-8.28A7.61,7.61,0,0,1,198.4,188.2Z"/><path class="cls-7" d="M32.25,69.85l-6.58,9.26c-.66.93-1.19,2-2.6,2-.45-1.89,1-3,1.83-4.33,2.33-3.55,4.45-7.26,7.77-11C32.48,67.61,32.37,68.73,32.25,69.85Z"/><path class="cls-11" d="M151.49,4.35c.76-.79,1.93-1.13,2,.11.15,1.73,1.15,4-1.36,5.11-1.87.81-3.8,1.49-5.7,2.23,0-2.17,1.75-3.89,1.51-6.11v0A1.26,1.26,0,0,0,149.41,5l-.06,0C150.1,4.9,151,5.11,151.49,4.35Z"/><path class="cls-7" d="M304.49,81.16c-3.58-1.72-4.33-5.77-6.86-8.36a33.87,33.87,0,0,1-2.36-3c-.09-1-.17-2-.26-3C298.69,71.41,303.18,75.26,304.49,81.16Z"/><path class="cls-6" d="M283.73,53.89c-1.8-2.34-.57-5-.81-7.55-.37-3.9-1.67-5-5.39-4.14.2-1.27-1.07-3.59,1.18-3.45,2.06.13,5,.6,5.15,3.66A59.52,59.52,0,0,1,283.73,53.89Z"/><path class="cls-9" d="M127.53,183.94c3,1.46,6,2.87,9,4.39,1.09.55,2,1.74,1.45,2.81-.69,1.29-1.83,0-2.69-.3-2.15-.81-4.24-1.77-6.35-2.67A8.87,8.87,0,0,1,127.53,183.94Z"/><path class="cls-11" d="M60.71,169.25c0,1.86-.17,3.73-.07,5.59A2.86,2.86,0,0,1,58.52,178c-2.55-2.79-1.42-6.24-1.11-9.25C57.56,167.19,59.59,168.7,60.71,169.25Z"/><path class="cls-12" d="M250.87,84.11c1.83-.23,4.49-2.14,4.15,2,0,2.79-2,4.13-3.94,6.11C250.35,89.26,251.88,86.64,250.87,84.11Z"/><path class="cls-3" d="M94.75,97.37a2.82,2.82,0,0,1-1.75,3.3c-2.33,1.21-4.44,2.84-7.06,3.46-.91-1.09-1-1.9.52-2.62C89.26,100.22,92,98.76,94.75,97.37Z"/><path class="cls-10" d="M221.86,95.19c-2.27-.47-3.56-3.1-6.18-2.79-.17-1.23-.34-2.45-.53-3.78C221.2,90.28,222.09,91.18,221.86,95.19Z"/><path class="cls-6" d="M105.55,93.76l-.25-2.07c1.59-1.8,3.89-2.32,6.1-3.57a8.51,8.51,0,0,1-.1,4.38Z"/><path class="cls-12" d="M233.36,247.49l2.07.14c-1.42,3-4,5-6.29,7.35-1.72,1.78-2,.3-2.19-1.13l.71-.61.73-.8h0l.72-.71,0,0,.72-.72,0,0a1.26,1.26,0,0,0,.71-1.41h.74l.66-1.31a2.16,2.16,0,0,1,.65-.26Z"/><path class="cls-4" d="M253.62,172.82c-.23,1.13-.46,2.25-.68,3.38-3.48-.14-6.74,1-10.13,1.73C246.24,175.79,249.57,173.54,253.62,172.82Z"/><path class="cls-7" d="M231.07,98.62c-3,.16-4.84-3-7.84-3a4.19,4.19,0,0,1,.05-3.37C225.82,94.79,230.11,94.47,231.07,98.62Z"/><path class="cls-7" d="M103.82,91.8a4.93,4.93,0,0,1,0,3.26c-2.79.17-4.5,3.17-7.47,2.89-.29-1.54.61-2.25,1.83-2.9C100.09,94,101.94,92.89,103.82,91.8Z"/><path class="cls-7" d="M148,5.69c.24,2.22-1.55,3.94-1.51,6.11l-4.76,3,0,0C143,11.23,144.8,8,148,5.69Z"/><path class="cls-7" d="M274.24,76.31c-2.63.69-3.58,4.06-6.6,4.12-.69-2.74,1.42-3.58,3.16-4.64,1.08-.66,2.2-1.24,3.3-1.85C274.76,74.77,274.37,75.55,274.24,76.31Z"/><path class="cls-7" d="M180.17,11.3c.38-2.23-1.65-3.94-1.34-6.16,3.26,2.05,4.14,5.7,6.29,8.5l-.59.62Z"/><path class="cls-7" d="M59.74,79.68c-3.29.37-4.39-2.93-6.8-4.06.12-.64-.75-1.82.75-1.73C55.87,74,59.37,77.46,59.74,79.68Z"/><path class="cls-4" d="M43.32,63c.16,1.18.33,2.35.5,3.52,0,3.26,0,6.53.07,9.79-1.26,2-1.39.63-1.4-.52,0-4.26,0-8.51,0-12.77Z"/><path class="cls-12" d="M92.6,248.52l1-.28c1.7,0,2.31,1.58,3.41,2.44a2.79,2.79,0,0,0,.34.35l1,.73,0,0,.73.73,0,0c.25.24.49.48.73.73l0,0c0,.7,0,1.4,0,2.11h0C95.81,254.68,94.81,251,92.6,248.52Z"/><path class="cls-4" d="M206.72,131.51l-.66-.23-9.35-5.22,1.19-.18a26.71,26.71,0,0,1,8.81,4.28Z"/><path class="cls-8" d="M94.05,84c.69-.6,1.41-.57,1.44.4.09,3.39,0,6.78,0,10.17l-1.37,0V86.81C94.12,85.87,94.09,84.92,94.05,84Z"/><path class="cls-8" d="M147.9,19.64l-.15,1.55c-1.45-.08-.94,2.19-2.45,2a34.38,34.38,0,0,1,1.22-9.3C148.26,15.52,146.36,18,147.9,19.64Z"/><path class="cls-5" d="M249.4,177.72c-1.13,3-3.55,3.85-6.43,4C243.51,177.81,246.81,178.33,249.4,177.72Z"/><path class="cls-4" d="M233.89,84.49c0,2.88-.07,5.77-.11,8.65l-1.13,0q0-4.56-.05-9.12Z"/><path class="cls-4" d="M198.51,223.2c0,.65-.09,1.3-.14,2l-5.64,2.13h0C193.32,224,196.44,224.36,198.51,223.2Z"/><path class="cls-4" d="M251.57,142.05c0-2.35,0-4.71,0-7.06l1.26,0v7Z"/><path class="cls-5" d="M128.42,224.45a3.64,3.64,0,0,1,0-.66c2.63,0,5,.57,6.95,3.58Z"/><path class="cls-4" d="M273.32,113.4c-.69-1.87.68-4.07-.95-5.78q0-.3,0-.6l0,0c.67.3,2-.66,2,.44C274.29,109.41,275.62,111.76,273.32,113.4Z"/><path class="cls-11" d="M232.6,84q0,4.56.05,9.12c-.07.67-.13,1.33-.19,2C232.21,91.38,230.84,87.64,232.6,84Z"/><path class="cls-8" d="M248.73,84.06c1.4,3.17.1,6.44-.19,9.67,0-2.07,0-4.13,0-6.2Z"/><path class="cls-4" d="M248.73,84.06l-.18,3.47h-1.23c-.25-1.08.48-2.67-1.46-2.9C246.67,83.71,247.74,84.07,248.73,84.06Z"/><path class="cls-5" d="M285,76.7c-2.16-.87-1-2.74-1.16-4.16A32.38,32.38,0,0,1,284,68l.86-.13Z"/><path class="cls-12" d="M235.46,226.47c1.19.13,2.59-.24,3.26,1.21a1,1,0,0,1-.27.87,2.91,2.91,0,0,1-3.33-1.64C235.23,226.76,235.34,226.61,235.46,226.47Z"/><path class="cls-4" d="M273.1,105.67c.26-1.16-.45-2.53.79-3.47C274.71,103.6,275.28,105,273.1,105.67Z"/><path class="cls-12" d="M231.83,226c0-.38.09-.77.13-1.15,1.25.35,2.6.45,3.5,1.58-.12.14-.23.29-.34.44Z"/><path class="cls-4" d="M94.05,84c0,1,.07,1.9.1,2.84h-.66c-1.12-.94-.27-1.87,0-2.8Z"/><path class="cls-5" d="M208.74,251.84c.89,0,1.78-.09,2.68-.08a4.21,4.21,0,0,1,1.05.29c-1.28.7-2.51.26-3.7.34A2.54,2.54,0,0,0,208.74,251.84Z"/><path class="cls-5" d="M125.6,253.65a2.65,2.65,0,0,1,.4.86c0,.63-.49.67-.9.55-.23-.07-.36-.42-.54-.65Z"/><path class="cls-7" d="M86.67,109.16c-1.45,0-1.62-1-1.55-2.13C86.09,107.41,86.26,108.37,86.67,109.16Z"/><path class="cls-4" d="M121,131l-2.16.94c0-.35-.1-.7-.16-1.05l1.37,0Z"/><path class="cls-7" d="M151.49,4.35c-.54.76-1.39.55-2.14.68A3.09,3.09,0,0,1,151.49,4.35Z"/><path class="cls-8" d="M198.57,255.59a1.51,1.51,0,0,1-.59.23c-.18,0-.37-.18-.55-.28a1.64,1.64,0,0,1,.59-.24C198.2,255.3,198.38,255.48,198.57,255.59Z"/><path class="cls-14" d="M21.92,83.43l-.52-.87.42-.74C22.59,82.31,22.05,82.88,21.92,83.43Z"/><path class="cls-5" d="M123.33,253.64a2.78,2.78,0,0,1-.31.43s-.25-.08-.26-.15a2.56,2.56,0,0,1,0-.55Z"/><path class="cls-4" d="M233.29,182.56c-.26.18-.51.35-.77.51l-.17-.25.9-.29Z"/><path class="cls-4" d="M233.36,247.49l-.83.6c0-.39,0-.79,0-1.18a3.53,3.53,0,0,1,.65,0A1.92,1.92,0,0,1,233.36,247.49Z"/><path class="cls-7" d="M149.41,5a1.26,1.26,0,0,1-1.44.72C148.2,5,148.87,5.1,149.41,5Z"/><path class="cls-5" d="M129.32,255.5c0,.07,0,.17,0,.2a.7.7,0,0,1-.25.05l0-.34Z"/><path class="cls-4" d="M239.54,179l.76-.51.17.27-.9.27Z"/><path class="cls-4" d="M238.15,179.74a1.51,1.51,0,0,1,1.39-.7l0,0a1.47,1.47,0,0,1-1.4.7Z"/><path class="cls-4" d="M324.07,165.12l.72.1-.6.55a1.9,1.9,0,0,1-.25-.4C323.92,165.31,324,165.2,324.07,165.12Z"/><path class="cls-5" d="M69.75,165.76l.28.18-.32-.14Z"/><path class="cls-4" d="M273.82,100l-.72,0C273.37,99.6,273.61,99.64,273.82,100Z"/><path class="cls-12" d="M129.8,221.69l.63.61Z"/><path class="cls-5" d="M131.24,222.38l.3.16-.32-.14Z"/><path class="cls-4" d="M115.85,223.22l.7,0C116.3,223.55,116.07,223.53,115.85,223.22Z"/><path class="cls-4" d="M295.47,99.3l-.62.21C294.91,99,295.07,98.82,295.47,99.3Z"/><path class="cls-5" d="M250.05,172.08l-.17.29.15-.31Z"/><path class="cls-4" d="M192.73,227.28l-.16.29.16-.29Z"/><path class="cls-9" d="M285.94,52.37l-.75.22c-.07-.24-.13-.48-.2-.72Z"/><path class="cls-7" d="M141.71,14.8l-.2.25.24-.2Z"/><path class="cls-8" d="M92.07,178.36l.69.68Z"/><path class="cls-4" d="M238.17,179.77l-.17.29.15-.31Z"/><path class="cls-4" d="M233.25,182.53l.18-.28c-.05.1-.1.21-.14.31Z"/><path class="cls-6" d="M206.69,158.78a4.71,4.71,0,0,1-.29-.48s.17-.13.26-.19Z"/><path class="cls-13" d="M250.67,192.87a23.73,23.73,0,0,1,10.54,0,32.15,32.15,0,0,1-2.43,14.91,78.39,78.39,0,0,1-3,7.8C253.05,207.81,249.73,200.86,250.67,192.87Z"/><path class="cls-13" d="M66.24,192.93a23.53,23.53,0,0,1,11.13.13c.41,8.05-2.8,15.2-5.7,23.07C68.91,208.23,65.49,201.09,66.24,192.93Z"/><path class="cls-8" d="M86.29,73.5c-2.89,0-5.78,0-8.67,0-.71,0-1.89.43-1.92-.79a1.86,1.86,0,0,1,1.81-1.77,25.78,25.78,0,0,1,2.77-.19c5,0,9.94,0,14.92,0,1.15,0,2.21.26,2.33,1.52.17,1.76-1.34,1.24-2.22,1.26-3,.07-6,0-9,0Z"/><path class="cls-11" d="M73.53,91c-.23,0-.34-.09-.33-.32.42-1-.26-1.72-.72-2.49,0-1.26-.08-2.52,0-3.77.07-.74-.66-2.14.93-2,1.13.09,2.58.06,2.64,2,.07,2.62.36,5.23.56,7.84l-1.36.2h0C75.41,91.08,74.71,90.75,73.53,91Z"/><ellipse class="cls-12" cx="86.83" cy="68.63" rx="10.81" ry="0.49"/><path class="cls-7" d="M75.32,74.22c.36,2.33-.73,4.48-.87,6.76-1.58-.11-2-.91-1.45-2.35S73.56,75.17,75.32,74.22Z"/><path class="cls-7" d="M99.79,80.76q-1-2.91-2-5.82c1.73-1.25,2,.37,2.08,1.3C100,77.73,102.48,79.34,99.79,80.76Z"/><path class="cls-8" d="M78.05,93.11v-9c.45,3.21,1.47,6.44.07,9.62A4.9,4.9,0,0,0,78.05,93.11Z"/><path class="cls-2" d="M78.05,93.11a4.9,4.9,0,0,1,.07.67l-.18,1.55a4.21,4.21,0,0,1-2.65-2.9l1.36-.2A1.49,1.49,0,0,0,78.05,93.11Z"/><path class="cls-2" d="M72.48,88.2c.46.77,1.14,1.47.72,2.49-.94-1-2.21-1.66-2.51-3.13Z"/><path class="cls-8" d="M260.8,190.94H253c-.58,0-1.24-.14-1.17-.88,0-.36.51-.94.81-1C255.42,188.93,258.39,187.92,260.8,190.94Z"/><path class="cls-7" d="M266,186.06c1.93-1.72,2.22-4,2.23-6.41.22,0,.45,0,.68-.05,1.54,2.39.44,4.78-.42,6.91C267.69,188.44,266.72,186.86,266,186.06Z"/><path class="cls-2" d="M268.89,179.6c-.23,0-.46,0-.68.05l-.71-1.29,1.37.17C268.87,178.89,268.88,179.24,268.89,179.6Z"/><path class="cls-11" d="M63.33,190.84c4.08-.13,8.08-3.43,12.88-.37C71.57,191.44,67.4,190.38,63.33,190.84Z"/><path class="cls-2" d="M65.6,185.4c5.32-.17,10.64-.4,15.9.74-3.76,1.63-7.45-.81-11.25-.17C68.79,186.22,67,186.65,65.6,185.4Z"/><path class="cls-8" d="M251.44,71.43a1.55,1.55,0,0,0,.56,1.49c0,1.44-1.08,1.23-2,1.33l-20.94-.11c-.28-1.42,1.44-2,1.42-3.26L250,70.7A1.27,1.27,0,0,0,251.44,71.43Z"/><path class="cls-7" d="M234.66,68.6h11.2l2.31.24,0,.57H232.81C233.26,68.38,234.07,68.81,234.66,68.6Z"/><path class="cls-2" d="M229.09,74.14l20.94.11v1.34c-6.95,1.1-13.91.73-20.86,0a1.16,1.16,0,0,1-.17-.47Z"/><path class="cls-7" d="M229,75.07a1.16,1.16,0,0,0,.17.47c-.5,1.92-1,3.85-1.51,5.77C225.79,79.51,226.36,76.84,229,75.07Z"/><path class="cls-7" d="M253.34,81.3a17,17,0,0,0-2-5.71v0l.82-.55a1.35,1.35,0,0,1,.53,0l1.71,4C254.8,80.16,255.16,81.28,253.34,81.3Z"/><path class="cls-8" d="M252.22,75l-.82.55Z"/><path class="cls-4" d="M42.79,79.65c1.08,2.07,1.08,2.07.68,5C41.71,82.86,43,81.2,42.79,79.65Z"/><path class="cls-4" d="M307.37,109.82a95.92,95.92,0,0,1,8.76,8.81c.78-2.34.05-3.9-1.45-5.41s-3.68-2.85-3.81-5.46c4.86,3.43,7.59,7.5,7.24,14.09-.62,11.67.08,23.41-.34,35.1-.11,3,2.67,3.73,2.82,6.07a104.9,104.9,0,0,1-16.77-12.58c3.28.2,5,3,7.58,4.48,1.56.9,2.85,2.29,5.09,3,0-8.09-.51-15.87.13-23.56.73-8.92-1-16.43-8.47-22-.42-.31-.58-1-.86-1.47C307.32,110.51,307.34,110.17,307.37,109.82Z"/><path class="cls-2" d="M285.67,162.39l0,.85-2.81-.32c.91-4.44.5-8.93.57-13.41.13-8.55.18-17.1.26-25.66l.79,0c0,11.67,0,23.33,0,35C284.42,160.12,283.86,161.7,285.67,162.39Z"/><path class="cls-11" d="M283.64,102.9c0-5.3-.08-10.61-.07-15.91,0-.89-.35-2.27,1.44-1.95-.08,5.95.39,11.92-.3,17.87Z"/><path class="cls-4" d="M283.64,102.9h1.07c.16,7,.2,13.94-.27,20.91l-.79,0Q283.65,113.38,283.64,102.9Z"/><path class="cls-4" d="M320.6,163c1.9-.51,2.78.67,3.5,2.11C322.36,165.38,321.52,164.15,320.6,163Z"/><path class="cls-4" d="M151.59,217.51c-2.47-11.47-3.81-23.11-5.49-34.7-2.7-18.71-5.18-37.46-7.74-56.19a9.22,9.22,0,0,1,0-1.39H139a6.83,6.83,0,0,1,.65,1.54c1.29,9.05,2.48,18.12,3.9,27.16.24,1.51-.43,4.25,1,4.36,2.09.16,3.77-2,5.17-3.65,1-1.2.54-2.71.4-4.05-.24-2.3-.77-4.57-1.06-6.86-1-8-2-16.08-3-24.12l.95,0q2.36,16.59,4.72,33.16c.12.82.45,1.75-.33,2.27-1.86,1.23-1.47,3-1.27,4.69,1.37,11.56,2.73,23.12,4.15,34.67.1.82-.52,2.36,1.31,2.2,1.4-.12,1.53-1.17,1.57-2.28.11-3.61.23-7.22.38-10.83.22-5.06.24-5.06,5.39-5.06,6.89,0,6.89,0,6.67,6.9l-1.06,0c-.58-5.92-.58-5.92-6.68-5.64-.12,0-.24,0-.35,0-1.87-.2-2.33.77-2.37,2.48-.1,4-.41,8.08-.56,12.12-.06,1.7-.1,3.19-2.23,3.73-1.57.4-1.85,1.54-1.61,3.25.69,5.14,1.07,10.32,1.57,15.49h-1.14q-.76-6.5-1.55-13c-.13-1.09.25-2.73-1.28-2.8-1.83-.07-1.67,1.66-1.51,2.86.6,4.56,1.31,9.09,2,13.64Zm-3.09-59.24c-2.91,1.32-4.13,2.6-3.5,5.8,1.16,5.89,1.48,11.93,2.33,17.89s1.87,11.74,2.82,17.64c2.8-.72,2.92-2.5,2.69-4.47C151.4,183,150,170.82,148.5,158.27Z"/><path class="cls-2" d="M147,119.64l-.95,0c-4.3.22-6.91,2.29-7.07,5.62h-.62c-.23-1.88-.81-2.63-2.86-1.49-4.62,2.57-9.37,4.9-14.06,7.33A2.37,2.37,0,0,1,121,131l-.95-.13c4.83-3.88,10.78-5.72,16-8.91.1-.06.23,0,.33-.12,8-5.38,17-5.39,26.07-5.07,4.38.15,8.8.43,13.18-.43a6.31,6.31,0,0,1,3.43.14c6.49,2.75,13.13,5.23,18.89,9.44l-1.19.18c-2.7-.49-4.55-3.14-7.52-2.92h-.83a8.62,8.62,0,0,0-6.93-3.52l-1.08,0c.08-1.37-.4-2.13-1.95-2s-3.57-.58-3.89,2l-.7-.71c-.4-1.29-1.48-1.42-2.52-1.27-5,.75-10.13.42-15.19.47-1,0-1.84.24-2,1.43l-1.14.09c-.35-2.67-2.39-1.8-4-1.94S146.84,118.14,147,119.64Z"/><path class="cls-2" d="M155.14,216.83h1.14c0,1.55.65,2.32,2.32,2.22a34.74,34.74,0,0,1,8,.49c3.26.57,4.84-.77,4.58-4.12l.78,0a9.26,9.26,0,0,0-.08,1.39c.11,1-.58,2.59,1.29,2.66s1.31-1.53,1.49-2.56a52.82,52.82,0,0,0,1.21-7.54c.09-3,2-6.12,0-9.16l.22-.26c1.95,0,1.66-1.71,1.85-2.74.68-3.68,1.12-7.41,1.65-11.12h1.1q-.78,6.24-1.57,12.49c-1,6.16-1.92,12.32-3,18.47a4.66,4.66,0,0,0,1.39,4.61c-5.6-1.83-11.38-1.1-17.1-1.39a24.19,24.19,0,0,0-11,2.12c0-.37.07-.73.11-1.09,2-.51,2.35-2,2.11-3.77l1.19,0c.23.86.33,2.05,1.6,1.68S154.91,217.65,155.14,216.83Z"/><path class="cls-4" d="M180.63,186.07h-1.1a11.24,11.24,0,0,1,0-1.74c.87-6.55,1.79-13.08,2.67-19.62.39-2.93.37-5.69-3.34-6.54l-1.34-.09c.66-2.21-2.27-3-1.91-5.3,1.71-11,3.19-22.09,4.75-33.14l1.09,0c-1.28,9.4-2.41,18.82-3.89,28.18-1,6.38-.55,7.71,5.58,10.68.65-4.91,1.14-9.73,2-14.49,1.17-6.94,1.34-14,3.28-20.85h.83c-1.71,12.91-3.4,25.83-5.15,38.74C183,170,181.77,178,180.63,186.07Z"/><path class="cls-9" d="M177.47,221.64a4.66,4.66,0,0,1-1.39-4.61c1.06-6.15,2-12.31,3-18.47l4.41.76q-2.7,11.12-5.41,22.23a.7.7,0,0,0-.67.08Z"/><path class="cls-2" d="M303.85,107.06c1.08-.14,1.53.36,1.41,1.42A1.85,1.85,0,0,1,303.85,107.06Z"/><path class="cls-2" d="M303.15,105.67a1,1,0,0,1,.71,1.41A1,1,0,0,1,303.15,105.67Z"/><path class="cls-2" d="M307.37,109.82c0,.35-.05.69-.08,1l-.65-1Z"/><path class="cls-2" d="M305.94,109.16a.64.64,0,0,1,.72.72A.71.71,0,0,1,305.94,109.16Z"/><path class="cls-2" d="M305.24,108.46a.64.64,0,0,1,.72.72Z"/><path class="cls-2" d="M22.19,108.48c1.73-4.48,5.14-7.4,9.1-9.8C29.1,102.73,25.45,105.43,22.19,108.48Z"/><path class="cls-4" d="M145.3,23.23c1.51.15,1-2.12,2.45-2-.79,2.24.49,2.17,2.1,2a108.39,108.39,0,0,1,24.75,0c-.89,1.41-2.3.82-3.48.83-5.8.05-11.6,0-17.4.05-2.38,0-5.35-.31-6.9,1.38-2.38,2.57-3.92,5.92-5.82,8.94-4.74,7.82-7.19,16.52-9.71,25.2-1.19,5.59-1.93,11.18-.16,16.8.17,1.17-.23,2.45.66,3.48a29,29,0,0,0,.7,5.16,114.53,114.53,0,0,0,7.88,23.29l-.09,1c-8.71-15.72-13.74-32.34-10.06-50.35a80.37,80.37,0,0,1,13.71-31.82A6.21,6.21,0,0,0,145.3,23.23Z"/><path class="cls-2" d="M183.52,115c-2.79-1-5.68-.84-8.57-.84-8.33,0-16.65,0-25,0a16.67,16.67,0,0,0-6.12.92c-.17-.54-.33-1.09-.5-1.64l-.46-.52.28-.27,40.61.24c.09.53.18,1.06.26,1.59Z"/><path class="cls-4" d="M143.35,113.4c.17.55.33,1.1.5,1.64a110.67,110.67,0,0,1-22.25,11.64l-1-.11c.07-.19.13-.37.2-.55,7.44-3.52,14.66-7.45,21.81-11.52C142.94,114.3,143.1,113.78,143.35,113.4Z"/><path class="cls-2" d="M142,111.81c-.38-.59-.75-1.18-1.13-1.76l.17-.17c1-.16,1.31.51,1.56,1.27Z"/><path class="cls-2" d="M142.89,112.88,142,111.8l.6-.65a1.42,1.42,0,0,1,.61,1.46Z"/><path class="cls-2" d="M140.28,109.26c0-.32.06-.65.09-1a4.92,4.92,0,0,0,.67.1l0,1.48-.17.17Z"/><path class="cls-2" d="M97,250.68c-1.1-.86-1.71-2.42-3.41-2.44a.86.86,0,0,1,0-.65c9.15-5,19-5.55,29.09-4.55a66.66,66.66,0,0,1,9.87,1.91c1.61.41,3.43.84,4.34,2.58-7.94-2-15.92-4-24.18-3.38-5.11.38-10.35.63-15,3.35C95.46,248.12,97.84,249.75,97,250.68Z"/><path class="cls-4" d="M93.42,244.86a1.25,1.25,0,0,1-.54-1.5c2.85,0,4.9-2.57,8.36-2.38C98.79,243.32,95.75,243.4,93.42,244.86Z"/><path class="cls-4" d="M234.61,243.36c.08,1-.41,1.39-1.34,1.41-1.51-1.8-4.25-1.45-5.94-3.43C230.16,241.1,232.13,243.2,234.61,243.36Z"/><path class="cls-5" d="M242.44,165.27a2.67,2.67,0,0,1,1.95,2.49c.06,1-.21,2-1.38,1.9a2.31,2.31,0,0,1-2-2.39A1.68,1.68,0,0,1,242.44,165.27Z"/><path class="cls-2" d="M251.57,142.05l1.25,0v8.38l-1.23,0Z"/><path class="cls-4" d="M251.59,150.36l1.23,0c-.55,1.68,1.71,4.56-2.07,4.87Z"/><path class="cls-4" d="M249.35,156a1,1,0,0,1,1.37-.68C250.5,156,250,156.1,249.35,156Z"/><path class="cls-5" d="M86.49,166.65a2.59,2.59,0,0,1-2.32,2.46c-1.15.19-1.18-.88-1.14-1.69.06-1.31.33-2.64,1.84-3C86.07,164.2,86.49,165.05,86.49,166.65Z"/><path class="cls-2" d="M73.94,166.46a1.25,1.25,0,0,1-.7-1.41A1.18,1.18,0,0,1,73.94,166.46Z"/><path class="cls-2" d="M73.25,165.07l-.72-.72Z"/><path class="cls-2" d="M74.64,167.16l-.7-.7A.68.68,0,0,1,74.64,167.16Z"/><path class="cls-4" d="M306.67,103.55a1.22,1.22,0,0,1-1.43-.67l1-.07Z"/><path class="cls-4" d="M307.37,104.25a.59.59,0,0,1-.69-.69A.61.61,0,0,1,307.37,104.25Z"/><path class="cls-2" d="M306.28,102.81l-1,.07c0-.24,0-.48,0-.73Z"/><path class="cls-4" d="M310.86,107.75q-.74,0-.69-.69A.65.65,0,0,1,310.86,107.75Z"/><path class="cls-4" d="M310.16,107.05c-.49,0-.71-.21-.69-.69A.64.64,0,0,1,310.16,107.05Z"/><path class="cls-4" d="M309.46,106.35q-.72,0-.69-.69A.63.63,0,0,1,309.46,106.35Z"/><path class="cls-4" d="M308.76,105.65c-.48,0-.7-.22-.69-.69A.61.61,0,0,1,308.76,105.65Z"/><path class="cls-4" d="M308.07,105a.58.58,0,0,1-.69-.69A.62.62,0,0,1,308.07,105Z"/><path class="cls-2" d="M15.9,108.44c.19,1.16-.44,1.75-1.42,2.11C14.16,109.31,15.05,108.89,15.9,108.44Z"/><path class="cls-2" d="M17.3,107.05c.09,1-.37,1.52-1.41,1.41A1.88,1.88,0,0,1,17.3,107.05Z"/><path class="cls-2" d="M20.1,104.25a.65.65,0,0,1-.72.72A.69.69,0,0,1,20.1,104.25Z"/><path class="cls-2" d="M20.8,103.55a.65.65,0,0,1-.72.72A.7.7,0,0,1,20.8,103.55Z"/><path class="cls-2" d="M22.19,102.15a.66.66,0,0,1-.72.72A.69.69,0,0,1,22.19,102.15Z"/><path class="cls-2" d="M14.5,110.53l-.72.72C13.67,110.65,13.9,110.41,14.5,110.53Z"/><path class="cls-2" d="M21.5,102.85a.67.67,0,0,1-.73.72A.72.72,0,0,1,21.5,102.85Z"/><path class="cls-2" d="M18,106.35a.63.63,0,0,1-.72.72A.71.71,0,0,1,18,106.35Z"/><path class="cls-2" d="M18.7,105.65a.64.64,0,0,1-.72.72A.7.7,0,0,1,18.7,105.65Z"/><path class="cls-2" d="M19.4,105a.65.65,0,0,1-.72.72A.7.7,0,0,1,19.4,105Z"/><path class="cls-12" d="M131.13,76.36c-1.77-5.62-1-11.21.16-16.8l.87,0c.05,1.78-1.25,4.15,1.58,4.82,2.18.52,4.67,2.12,6.56-.72h0c4.45-1.2,6.58-5.15,9.53-8.11.75-.75.36-2,0-3C147.88,47.44,146,42.25,144,37.08c-.52-1.38-1.22-2.71-3-1.14,0-.53-.05-1-.08-1.58,1.9-3,3.44-6.37,5.82-8.94,1.55-1.69,4.52-1.34,6.9-1.38,5.8-.1,11.6,0,17.4-.05,1.18,0,2.59.58,3.48-.83a.68.68,0,0,1,.65,0c-.11,1.34,1,1.6,1.82,1.59,3.34,0,4.72,2.39,6.19,4.74,1.34,2.16,2.7,4.31,4,6.52.55,1,1.34,2.23-.75,2.5l-1.32-1.45c-.17-.52-.2-1.32-.55-1.5-.72-.38-.86.4-1.07.91a168.22,168.22,0,0,0-5.82,17.35,2,2,0,0,0,.91,2.34l.68.73c3.45,3.87,5.75,9.43,12.78,7.64,2.37-.61,3-1.22,2.47-3.67-.59-2.8-2.36-5.51-1.16-8.57l2.89,9.34a42.61,42.61,0,0,1,.57,5.83,105.92,105.92,0,0,1-5.61,29.81c-1.15,3.46-1.85,7.2-4.74,9.85a5.48,5.48,0,0,1-.79-3l.84-2.58c3-5.06,4-10.8,5.45-16.34,1.29-4.77,2.87-9.52,2.9-14.56,0-1.12.24-2.61-1.42-2.66-1.89,0-3.91-.78-5.67.6-1.56,1.93-1.46,4.37-1.74,6.59-1.23,9.42-5.58,18.44-3.75,28.26-.45.88-1.27.82-2.06.82.16-3.55-1-7.07,0-10.68,2.35-8.25,3.38-16.77,5-25.17.23-1.18.23-2-.79-2.72-2.24-2.91-4.3-6-7.87-7.52a1.14,1.14,0,0,0-.59-1.5c-4.61-1.33-9.41-1.16-14-.92-3.23.16-6.72-.86-9.82,1l-.75.64-.78.62-.71.69a3.54,3.54,0,0,0-2.66,2.93l-.63.76a.64.64,0,0,0-.69.72.64.64,0,0,0-.69.7.64.64,0,0,0-.71.69.64.64,0,0,0-.7.69c-2.52.13-2.25,1.92-2,3.53.44,2.51,1.18,5,1.54,7.47,1.34,9.59,5,18.88,3.79,28.8l-3.1-.24a13.38,13.38,0,0,0,1.21-6c0-6.89-2.07-13.42-3.53-20-.75-3.4-.45-7.14-2.73-10.14-6.29-1.86-7.6-.77-6.56,5.39.13.8.13,1.61.19,2.42ZM169.68,26H156.4c-1.72.21-3.43.45-5.15.63-1.48.15-3.18-.07-3.22,2.19h0a4.81,4.81,0,0,0-3.28,6.31c1.76,5.63,4.13,11.06,6.26,16.57A3,3,0,0,0,154.07,54c6.5-.07,13-.05,19.5-.05a3,3,0,0,0,3.08-2.31c1.9-5.34,3.89-10.66,5.71-16,1.14-3.34-1.42-8.09-4.78-8.66C175,26.5,172.38,25.69,169.68,26Z"/><path class="cls-2" d="M94.82,113.1l.06.94-1.4,0Z"/><path class="cls-4" d="M260.46,113.31c3.12-2.74,6.91-4.37,10.55-6.25l.06,1c-2.94,2.55-6.51,4.06-9.87,5.92Z"/><path class="cls-2" d="M266.1,135.05a4.69,4.69,0,0,1-2.8-3.49A3,3,0,0,1,266.1,135.05Z"/><path class="cls-2" d="M268.2,137.84a1.87,1.87,0,0,1-1.41-2.1C268.17,135.83,268.39,136.7,268.2,137.84Z"/><path class="cls-2" d="M270.29,140c-1.07.13-1.4-.48-1.4-1.41C269.9,138.47,270.26,139,270.29,140Z"/><path class="cls-2" d="M260.46,113.31l.74.71-1.38,0C260,113.82,260.25,113.57,260.46,113.31Z"/><path class="cls-2" d="M271,141.34c-.67-.25-1-.68-.71-1.41A1,1,0,0,1,271,141.34Z"/><path class="cls-2" d="M271.07,108.1l-.06-1,1.36,0q0,.3,0,.6Z"/><path class="cls-2" d="M261.91,130.16a.67.67,0,0,1-.71-.72C261.7,129.42,261.94,129.66,261.91,130.16Z"/><path class="cls-2" d="M262.6,130.86c-.48,0-.69-.25-.7-.71C262.4,130.12,262.64,130.35,262.6,130.86Z"/><path class="cls-2" d="M263.3,131.56c-.52,0-.72-.22-.7-.7C263.1,130.82,263.32,131.07,263.3,131.56Z"/><path class="cls-2" d="M266.8,135.75c-.52.05-.71-.23-.71-.71C266.58,135,266.79,135.29,266.8,135.75Z"/><path class="cls-2" d="M268.89,138.55c-.48,0-.69-.26-.7-.71C268.69,137.81,268.91,138.06,268.89,138.55Z"/><path class="cls-10" d="M184,114.44c-.08-.53-.17-1.06-.26-1.59l-.08-.08c.87.74,1.09-.12,1.46-.59a22.7,22.7,0,0,0,2.47-3.3C195,94,199.37,78.49,197.53,61.69c1.34.17,1.24-1.51,2.78-2,3.42,22.08,6,44.08,6.35,66.31Z"/><path class="cls-4" d="M197.53,61.69c1.84,16.8-2.52,32.32-9.9,47.19a22.7,22.7,0,0,1-2.47,3.3l-.85-.94c.77-1.34,2.06-2.4,2.18-4.09,2.89-2.65,3.59-6.39,4.74-9.85a105.92,105.92,0,0,0,5.61-29.81,42.61,42.61,0,0,0-.57-5.83l.74-.06Z"/><path class="cls-2" d="M64.86,130.16a5.09,5.09,0,0,1-2.8,3.49A3,3,0,0,1,64.86,130.16Z"/><path class="cls-2" d="M59.27,137.14a3.37,3.37,0,0,1-2.1,2.8C57,138.34,57.53,137.29,59.27,137.14Z"/><path class="cls-2" d="M62.07,133.65a3.89,3.89,0,0,1-2.11,2.8C59.81,134.88,60.27,133.76,62.07,133.65Z"/><path class="cls-2" d="M66.26,128.74a.72.72,0,0,1-.72.72A.67.67,0,0,1,66.26,128.74Z"/><path class="cls-2" d="M65.56,129.45c0,.45-.22.72-.71.71A.63.63,0,0,1,65.56,129.45Z"/><path class="cls-2" d="M60,136.43c0,.44-.24.72-.71.72C59.25,136.67,59.47,136.42,60,136.43Z"/><path class="cls-2" d="M177.39,221.63a.7.7,0,0,1,.67-.08c1.07,1.53,3.06,2.3,3.53,4.32A5.58,5.58,0,0,1,177.39,221.63Z"/><path class="cls-2" d="M76,114.77a2.26,2.26,0,0,1,1.42-2.13C77.52,113.74,77.39,114.67,76,114.77Z"/><path class="cls-2" d="M120.58,126.57l1,.11a1.47,1.47,0,0,1-1.64.61C119.7,126.64,120.22,126.67,120.58,126.57Z"/><path class="cls-4" d="M230.48,249.65a1.26,1.26,0,0,1-.71,1.41A1.19,1.19,0,0,1,230.48,249.65Z"/><path class="cls-4" d="M231.22,249.66h-.74C230.73,249,231,249.14,231.22,249.66Z"/><path class="cls-4" d="M229.09,251.74l-.72.71Z"/><path class="cls-4" d="M228.39,252.44l-.73.8Z"/><path class="cls-4" d="M229.79,251l-.72.72Z"/><path class="cls-9" d="M47.33,43.93c-.08,1.1-.45,1.65-1.32,1.46-1.28-.28-1.45-1.31-1.42-2.4,0-.72.17-1.55,1.06-1.42C47.11,41.78,47,43.16,47.33,43.93Z"/><path class="cls-2" d="M99.78,255.24c0-.71,0-1.41,0-2.11,3.4.48,6.63-1.26,10.1-.66C106.33,252.88,103.27,254.8,99.78,255.24Z"/><path class="cls-2" d="M98.39,251.76l-1-.73A.93.93,0,0,1,98.39,251.76Z"/><path class="cls-2" d="M99.09,252.46l-.73-.73Z"/><path class="cls-2" d="M99.79,253.16c-.24-.25-.48-.49-.73-.73Z"/><path class="cls-2" d="M177.32,234.25c-1.29,3.16-3.71,3.75-6.9,3.59-5-.26-10.12-.05-15.18-.1-1.18,0-2.67.5-3.1-1.32l.12-.12,19.48,0c1.13,0,2.48.32,3.17-.9a27.42,27.42,0,0,0,2.82-5.92c.39-1.42-1.68-2-2.26-3.29a6.39,6.39,0,0,1-.27-1l.22-.23C179.53,227.56,179.72,228.46,177.32,234.25Z"/><path class="cls-2" d="M151.45,235l-2-2.12c-1.76-5.44,1.3-9.79,7-9.84,4.66,0,9.31,0,14,0,1.94,0,3.72.26,5,1.92l-.21.23c-6.53-1.47-13.16-.64-19.74-.67-3.69,0-6.1,4-4.75,7.39a6.54,6.54,0,0,1,.83,3Z"/><path class="cls-4" d="M193.38,52.32c-1.2,3.06.57,5.77,1.16,8.57.52,2.45-.1,3.06-2.47,3.67-7,1.79-9.33-3.77-12.78-7.64l.53-.59a58.17,58.17,0,0,1,4.84,4.84,5.74,5.74,0,0,0,7,2c2.27,0,2-1.45,1.56-2.87-1.09-3.65-2.32-7.26-3.32-10.93-1.16-4.26-3.88-7.89-4.81-12.22l.1-.1,1.32,1.45.55.73,4.57,10.9c.36.87.75,1.73,1.85,1.86Z"/><path class="cls-8" d="M193.43,52c-1.1-.13-1.49-1-1.85-1.86L187,39.27c1.67-.12,2.17,1.16,2.66,2.32A60.48,60.48,0,0,1,193.43,52Z"/><path class="cls-2" d="M73.53,91c1.18-.26,1.88.07,1.76,1.42C74.38,92.35,74,91.62,73.53,91Z"/><path class="cls-2" d="M152.14,236.42l-.69-1.41.09-.07.72,1.36Z"/><path class="cls-10" d="M180.35,119.64c-1.56,11-3,22.11-4.75,33.14-.36,2.33,2.57,3.09,1.91,5.3-1.84,12.78-3.21,25.61-4.3,38.48v0l-.62.47a3.07,3.07,0,0,1-2.58-3.44c0-2.76-.27-5.52-.43-8.27.22-6.89.22-6.89-6.67-6.9-5.15,0-5.17,0-5.39,5.06-.15,3.61-.27,7.22-.38,10.83,0,1.11-.17,2.16-1.57,2.28-1.83.16-1.21-1.38-1.31-2.2-1.42-11.55-2.78-23.11-4.15-34.67-.2-1.72-.59-3.46,1.27-4.69.78-.52.45-1.45.33-2.27q-2.37-16.58-4.72-33.16c-.14-1.5.56-2.07,2-1.94s3.63-.73,4,1.94a16.24,16.24,0,0,0,.18,1.71c1.78,8.08,1.79,8.08,10.09,8.08,8.95,0,8.95,0,11-8.47.1-.44.17-.88.25-1.33.32-2.58,2.28-1.88,3.89-2S180.43,118.27,180.35,119.64Z"/><path class="cls-12" d="M171.13,215.42c.26,3.35-1.32,4.69-4.58,4.12a34.74,34.74,0,0,0-8-.49c-1.67.1-2.32-.67-2.32-2.22-.5-5.17-.88-10.35-1.57-15.49-.24-1.71,0-2.85,1.61-3.25,2.13-.54,2.17-2,2.23-3.73.15-4,.46-8.08.56-12.12,0-1.71.5-2.68,2.37-2.48.11,0,.23,0,.35,0,6.1-.28,6.1-.28,6.67,5.64.15,3.19.32,6.38.42,9.58,0,1.22.21,2.48,1.5,2.8,2.93.72,2.89,2.76,2.54,5A50.15,50.15,0,0,0,171.13,215.42Z"/><path class="cls-12" d="M139,125.24c.16-3.33,2.77-5.4,7.07-5.62,1,8,1.95,16.08,3,24.12.29,2.29.82,4.56,1.06,6.86.14,1.34.6,2.85-.4,4.05-1.4,1.69-3.08,3.81-5.17,3.65-1.4-.11-.73-2.85-1-4.36-1.42-9-2.61-18.11-3.9-27.16A6.83,6.83,0,0,0,139,125.24Z"/><path class="cls-8" d="M148.5,158.27c1.48,12.55,2.9,24.7,4.34,36.86.23,2,.11,3.75-2.69,4.47-1-5.9-2-11.76-2.82-17.64s-1.17-12-2.33-17.89C144.37,160.87,145.59,159.59,148.5,158.27Z"/><path class="cls-11" d="M155.14,216.83c-.23.82.39,2-.76,2.38s-1.37-.82-1.6-1.68c-.67-4.55-1.38-9.08-2-13.64-.16-1.2-.32-2.93,1.51-2.86,1.53.07,1.15,1.71,1.28,2.8Q154.37,210.33,155.14,216.83Z"/><path class="cls-2" d="M173,202.82c.35-2.28.39-4.32-2.54-5-1.29-.32-1.46-1.58-1.5-2.8-.1-3.2-.27-6.39-.42-9.58l1.07,0c.16,2.75.47,5.51.43,8.27a3.07,3.07,0,0,0,2.58,3.44c.4.1.57-.1.62-.47v0l.79-.06c-.5,1.84,1.38,2.27,2,3.43l-.22.25c-2.31-.4-1.84,1.36-2,2.62Z"/><path class="cls-11" d="M188.36,123.14c-1.94,6.81-2.11,13.91-3.28,20.85-.81,4.76-1.3,9.58-2,14.49-6.13-3-6.58-4.3-5.58-10.68,1.48-9.36,2.61-18.78,3.89-28.18A8.62,8.62,0,0,1,188.36,123.14Z"/><path class="cls-11" d="M154.12,119.55c.14-1.19,1-1.42,2-1.43,5.06-.05,10.14.28,15.19-.47,1-.15,2.12,0,2.52,1.27-.83.68-.64,1.71-.87,2.58-1.73,6.51-1.71,6.51-8.62,6.51C156.05,128,156.05,128,154.12,119.55Z"/><path class="cls-5" d="M154.12,119.55c1.93,8.44,1.93,8.44,10.2,8.46,6.91,0,6.89,0,8.62-6.51.23-.87,0-1.9.87-2.58l.7.71c-.08.45-.15.89-.25,1.33-2.06,8.48-2.06,8.48-11,8.47-8.3,0-8.31,0-10.09-8.08a16.24,16.24,0,0,1-.18-1.71Z"/><path class="cls-11" d="M176,199.93c-.65-1.16-2.53-1.59-2-3.43,1.75-3.82.95-7.95,1.44-11.92,1.09-8.81,2.27-17.61,3.41-26.41,3.71.85,3.73,3.61,3.34,6.54-.88,6.54-1.8,13.07-2.67,19.62a11.24,11.24,0,0,0,0,1.74c-.53,3.71-1,7.44-1.65,11.12C177.69,198.22,178,200,176,199.93Z"/><path class="cls-8" d="M173.8,202.8c.17-1.26-.3-3,2-2.62,2,3,.1,6.13,0,9.17a52.82,52.82,0,0,1-1.21,7.54c-.18,1,.37,2.62-1.49,2.56s-1.18-1.62-1.29-2.66a9.26,9.26,0,0,1,.08-1.39C173.21,211.3,173.24,207,173.8,202.8Z"/><path class="cls-4" d="M173.8,202.8c-.56,4.21-.59,8.5-1.89,12.6l-.78,0a50.15,50.15,0,0,1,1.83-12.6Z"/><path class="cls-5" d="M178.85,158.17c-1.14,8.8-2.32,17.6-3.41,26.41-.49,4,.31,8.1-1.44,11.92l-.79.06c1.09-12.87,2.46-25.7,4.3-38.48Z"/><path class="cls-12" d="M141,108.4a4.92,4.92,0,0,1-.67-.1A114.82,114.82,0,0,1,132.49,85a29,29,0,0,1-.7-5.16l1.67-.06c.67,2.3,1.37,4.59,2,6.89,1.6,5.84,2.71,11.85,6.14,17,.29.37.57.75.86,1.14C142,106,141.51,107.21,141,108.4Z"/><path class="cls-8" d="M141,34.36c0,.53.05,1,.08,1.57a6.87,6.87,0,0,1-.33,1.67c-3.05,6.32-5.89,12.72-7.4,19.61a3.54,3.54,0,0,1-1.19,2.39l-.87,0C133.81,50.88,136.26,42.18,141,34.36Z"/><path class="cls-11" d="M133.46,79.78l-1.67.06c-.89-1-.49-2.31-.66-3.48l1.56,0C133.62,77.31,133.2,78.62,133.46,79.78Z"/><path class="cls-11" d="M141,108.4c.47-1.19,1-2.38,1.42-3.56l1.65-.11,3.1.24c.06,1.56.61,2.62,2.38,2.83a122.85,122.85,0,0,0,27.31.08c2.23-.23,3.32-1.39,3.35-3.61.79,0,1.61.06,2.06-.82l1.33.14c.48.93,1.29.67,2.06.55a5.48,5.48,0,0,0,.79,3c-.12,1.69-1.41,2.75-2.18,4.09a1.41,1.41,0,0,0-.61,1.53l.08.08-40.61-.24a1.42,1.42,0,0,0-.61-1.46c-.25-.76-.57-1.43-1.56-1.27C141,109.39,141,108.9,141,108.4Z"/><path class="cls-2" d="M180.25,104.27c0,2.22-1.12,3.38-3.35,3.61a122.85,122.85,0,0,1-27.31-.08c-1.77-.21-2.32-1.27-2.38-2.83,1.23-9.92-2.45-19.21-3.79-28.8-.36-2.51-1.1-5-1.54-7.47-.28-1.61-.55-3.4,2-3.53l.05,0c-1.57,2.16-.78,4.37-.25,6.63,1.77,7.52,2.41,15.28,5.12,22.58,0,2.9,0,5.81-.12,8.7-.13,2.43.91,3.06,3.23,3.35,8.11,1,16.18.44,24.27,0,2.2-.12,2.77-1,2.68-3-.14-3.25-.11-6.5-.16-9.75,2.34-6.16,2.94-12.71,4.27-19.09.58-2.73,2-5.43,1-8.37l.59-.57c1,.69,1,1.54.79,2.72-1.63,8.4-2.66,16.92-5,25.17C179.24,97.2,180.41,100.72,180.25,104.27Z"/><path class="cls-5" d="M148,28.82c0-2.26,1.74-2,3.22-2.19,1.72-.18,3.43-.42,5.15-.63a27.87,27.87,0,0,0,13.28,0c2.7-.3,5.3.51,7.9,1,3.36.57,5.92,5.32,4.78,8.66-1.82,5.37-3.81,10.69-5.71,16a3,3,0,0,1-3.08,2.31c-6.5,0-13,0-19.5.05A3,3,0,0,1,151,51.7c-2.13-5.51-4.5-10.94-6.26-16.57A4.81,4.81,0,0,1,148,28.82c-2.37,3.5-2.4,7-.39,10.74a32.92,32.92,0,0,1,2.85,7.85c.94,4,2.88,6,7.22,5.21a33.33,33.33,0,0,1,5.57-.09c3.72,0,8.13,1.18,11-.41s2.81-6.53,4.23-9.92c.36-.85.57-1.75.85-2.63.44-2.38,2.66-4.17,1.56-7.14-2-5.27-6.31-4.62-10.41-4.88a96.32,96.32,0,0,0-13.8-.12A16.29,16.29,0,0,0,148,28.82Z"/><path class="cls-4" d="M132.16,59.6a3.54,3.54,0,0,0,1.19-2.39c1.51-6.89,4.35-13.29,7.4-19.61a6.87,6.87,0,0,0,.33-1.67c1.74-1.56,2.44-.23,3,1.15,2,5.17,3.84,10.36,5.77,15.54.37,1,.76,2.23,0,3-2.95,3-5.08,6.91-9.53,8.11,2.13-2.25,4.15-4.64,6.44-6.73s2.57-4,.6-6.26L146,47.4a38.84,38.84,0,0,0-3.7-10.1c-2.88,6.8-5.66,12.78-7.37,19.16-2.4,8.88-2,6.95,5.42,7.24-1.89,2.84-4.38,1.24-6.56.72C130.91,63.75,132.21,61.38,132.16,59.6Z"/><path class="cls-2" d="M187.8,68.6c1.76-1.38,3.78-.65,5.67-.6,1.66,0,1.42,1.54,1.42,2.66,0,5-1.61,9.79-2.9,14.56-1.5,5.54-2.5,11.28-5.45,16.34l-.19-.15c.24-1.13.41-2.28.73-3.39a222.7,222.7,0,0,0,5.81-23.64c1-5.84,1.06-5.83-5-5.68Z"/><path class="cls-2" d="M133.46,79.78c-.26-1.16.16-2.47-.77-3.47-.06-.81-.06-1.62-.19-2.42-1-6.16.27-7.25,6.56-5.39l-.36.36-3.12,0c-4.17-.14-2.1,2.86-1.89,4.35,1.52,10.37,5,20.23,8.16,30.19l-.25.27c-3.43-5.18-4.54-11.19-6.14-17C134.83,84.37,134.13,82.08,133.46,79.78Z"/><path class="cls-2" d="M144.11,104.73l-1.65.11c-.29-.39-.57-.77-.86-1.14l.25-.27c3.63-1.07,2.74-4.22,2.45-6.49a123.38,123.38,0,0,0-2.71-12.36q-1.44-7.86-2.89-15.72l.36-.36c2.28,3,2,6.74,2.73,10.14,1.46,6.62,3.52,13.15,3.53,20A13.38,13.38,0,0,1,144.11,104.73Z"/><path class="cls-2" d="M183.64,103.59l-1.33-.14c-1.83-9.82,2.52-18.84,3.75-28.26.28-2.22.18-4.66,1.74-6.59l.11.1a186.67,186.67,0,0,1-3.22,19.51c-1,5.07-2.91,10.1-1.05,15.37Z"/><path class="cls-4" d="M178.61,56.19a2,2,0,0,1-.91-2.34,168.22,168.22,0,0,1,5.82-17.35c.21-.51.35-1.29,1.07-.91.35.18.38,1,.55,1.5l-.1.1A3.23,3.23,0,0,0,183.66,40c-.82,2.26-1.78,4.48-2.44,6.79-.83,2.91-2.39,5.67-2,8.86Z"/><path class="cls-2" d="M152.17,56.73c3.1-1.83,6.59-.81,9.82-1,4.63-.24,9.43-.41,14,.92l-.44.45-23.3-.27Z"/><path class="cls-2" d="M176.62,58.18c3.57,1.51,5.63,4.61,7.87,7.52l-.59.57c-2.42-2.7-5.33-5-7.29-8.08Z"/><path class="cls-2" d="M169.68,26a27.87,27.87,0,0,1-13.28,0Z"/><path class="cls-2" d="M147.27,61.61a3.54,3.54,0,0,1,2.66-2.93l.34.32a6.17,6.17,0,0,1-2.85,2.77Z"/><path class="cls-2" d="M185.7,104.14c-.77.12-1.58.38-2.06-.55h0c1.53.06,1.64-1.66,2.71-2.17l.19.15Z"/><path class="cls-2" d="M176,56.68a1.14,1.14,0,0,1,.59,1.5h0l-1-1.06Z"/><path class="cls-2" d="M150.64,58l.78-.62.18.18-.65.75Z"/><path class="cls-2" d="M143.85,65.17a.64.64,0,0,1,.7-.69l0,0c-.22.24-.45.47-.68.71Z"/><path class="cls-2" d="M144.55,64.48a.64.64,0,0,1,.71-.69l0,0-.7.7Z"/><path class="cls-2" d="M145.26,63.79a.64.64,0,0,1,.69-.7l0,0-.7.69Z"/><path class="cls-2" d="M146.64,62.37l.63-.76.15.16-.72.67Z"/><path class="cls-2" d="M149.93,58.68l.71-.69.31.31-.68.7Z"/><path class="cls-2" d="M151.42,57.37l.75-.64.12.13-.69.69Z"/><path class="cls-4" d="M179.29,56.92l-.68-.73.59-.52.62.66Z"/><path class="cls-2" d="M146,63.09a.64.64,0,0,1,.69-.72l.06.06-.72.69Z"/><path class="cls-2" d="M183.7,112.77a1.41,1.41,0,0,1,.61-1.53l.85.94C184.79,112.65,184.57,113.51,183.7,112.77Z"/><path class="cls-5" d="M152.26,236.3l-.72-1.36a6.54,6.54,0,0,0-.83-3c-1.35-3.36,1.06-7.41,4.75-7.39,6.58,0,13.21-.8,19.74.67a6.39,6.39,0,0,0,.27,1c.58,1.25,2.65,1.87,2.26,3.29a27.42,27.42,0,0,1-2.82,5.92c-.69,1.22-2,.9-3.17.9Z"/><path class="cls-15" d="M179.82,56.33l-.62-.66c-.37-3.19,1.19-6,2-8.86.66-2.31,1.62-4.53,2.44-6.79,3.6,7.41,5.38,15.43,8,23.19a5.74,5.74,0,0,1-7-2A58.17,58.17,0,0,0,179.82,56.33Z"/><path class="cls-16" d="M191.61,63.21c-2.57-7.76-4.35-15.78-8-23.19A3.23,3.23,0,0,1,185,37.19c.93,4.33,3.65,8,4.81,12.22,1,3.67,2.23,7.28,3.32,10.93C193.6,61.76,193.88,63.2,191.61,63.21Z"/><path class="cls-5" d="M173.2,196.6c0,.37-.22.57-.62.47Z"/><path class="cls-15" d="M146,63.12l.72-.69.72-.66A6.17,6.17,0,0,0,150.27,59l.68-.7.65-.75.69-.69,23.3.27,1,1.06c2,3.12,4.87,5.38,7.29,8.08,1.06,2.94-.38,5.64-1,8.37C181.61,81,181,87.57,178.67,93.73c-7.36,2-14.72,3.94-22.45,2.17-2.47-.56-5-1-7.45-1.47-2.71-7.3-3.35-15.06-5.12-22.58-.53-2.26-1.32-4.47.25-6.63.23-.24.46-.47.68-.71l.7-.7Z"/><path class="cls-16" d="M148.77,94.43c2.48.49,5,.91,7.45,1.47,7.73,1.77,15.09-.16,22.45-2.17.05,3.25,0,6.5.16,9.75.09,2-.48,2.88-2.68,3-8.09.44-16.16,1-24.27,0-2.32-.29-3.36-.92-3.23-3.35C148.81,100.24,148.74,97.33,148.77,94.43Z"/><path class="cls-15" d="M179.33,39.57c-.28.88-.49,1.78-.85,2.63-1.42,3.39-1.36,8.31-4.23,9.92s-7.25.39-11,.41a33.33,33.33,0,0,0-5.57.09c-4.34.78-6.28-1.23-7.22-5.21a32.92,32.92,0,0,0-2.85-7.85c-2-3.77-2-7.24.39-10.74h0a16.29,16.29,0,0,1,8.65-1.39c-.09.45-.19.9-.28,1.35a7.77,7.77,0,0,0-7.77,8.93c.19,1.13.47,2.38,1.69,2.87s2-.38,2.74-1.1c2.3-2.18,4.32-4.56,4.94-7.8,6.06-.36,12.12-.72,18.05,1.06C177.79,34.71,177.65,37.57,179.33,39.57Z"/><path class="cls-10" d="M156.4,28.78c.09-.45.19-.9.28-1.35a96.16,96.16,0,0,1,13.79.12,7.69,7.69,0,0,0,4.22,2.58c1.47.35,2.3,1,1.36,2.61-5.93-1.78-12-1.42-18.05-1.06A4.18,4.18,0,0,0,156.4,28.78Z"/><path class="cls-9" d="M176.05,32.74c.94-1.59.11-2.26-1.36-2.61a7.69,7.69,0,0,1-4.22-2.58c4.11.26,8.46-.39,10.42,4.88,1.1,3-1.12,4.76-1.56,7.14C177.65,37.57,177.79,34.71,176.05,32.74Z"/><path class="cls-15" d="M147.33,50.72c2,2.3,1.61,4.24-.6,6.26s-4.31,4.48-6.44,6.73h0c-7.42-.29-7.82,1.64-5.42-7.24,1.71-6.38,4.49-12.36,7.37-19.16A38.84,38.84,0,0,1,146,47.4c-1.82-.58-3.35-.44-3.42,1.9-.06,1.86.14,4,2.4,4.41S147.15,52.22,147.33,50.72Z"/><path class="cls-10" d="M147.33,50.72c-.18,1.5-.28,3.38-2.4,3s-2.46-2.55-2.4-4.41c.07-2.34,1.6-2.48,3.42-1.9Z"/><path class="cls-16" d="M186.35,101.41c-1.07.51-1.18,2.23-2.71,2.17-1.86-5.27.07-10.3,1.05-15.37a186.67,186.67,0,0,0,3.22-19.51c6-.15,6-.16,5,5.68A222.7,222.7,0,0,1,187.08,98C186.76,99.13,186.59,100.28,186.35,101.41Z"/><path class="cls-16" d="M141.59,84.58a123.38,123.38,0,0,1,2.71,12.36c.29,2.27,1.18,5.42-2.45,6.49-3.13-10-6.64-19.82-8.16-30.19-.21-1.49-2.28-4.49,1.89-4.35.47,4,2,7.72,3.35,11.45C139.51,81.89,139.75,83.77,141.59,84.58Z"/><path class="cls-15" d="M141.59,84.58c-1.84-.81-2.08-2.69-2.66-4.24-1.38-3.73-2.88-7.45-3.35-11.45l3.12,0Q140.14,76.72,141.59,84.58Z"/><path class="cls-6" d="M156.4,28.78a4.18,4.18,0,0,1,1.6,2.9c-.62,3.24-2.64,5.62-4.94,7.8-.75.72-1.59,1.55-2.74,1.1s-1.5-1.74-1.69-2.87A7.77,7.77,0,0,1,156.4,28.78Z"/></g></g></svg>