<svg xmlns="http://www.w3.org/2000/svg" viewBox="0 0 515 210"><defs><style>.cls-1{fill:#151c26;}.cls-2{fill:#1e3956;}.cls-3{fill:#53575b;}.cls-4{fill:#1b3349;}.cls-5{fill:#304d7f;}.cls-6{fill:#1a2039;}.cls-7{fill:#ccade8;}.cls-8{fill:#6b81aa;}.cls-9{fill:#dcc5ef;}.cls-10{fill:#8492c1;}.cls-11{fill:#bfe2f7;}.cls-12{fill:#495d95;}.cls-13{fill:#e9dff4;}.cls-14{fill:#413f4b;}.cls-15{fill:#aeafde;}.cls-16{fill:#c8bfef;}</style></defs><g id="Capa_2" data-name="Capa 2"><g id="Capa_1-2" data-name="Capa 1"><path class="cls-1" d="M.11,127.2V69.42c7.3.17,14.59.47,21.87.68,20.39.6,40.8.45,61.21.44,38.88,0,77.76-.56,116.64.09-.44,2-1.77,3.7-2,5.91-.13,1.25-1.79,2.2-.12,3.7,2.23,2,4.75-.72,7.17.64.7.39.85-1.78,1-2.88.24-1.62-.14-4.91,2.17-3.83,4.95,2.31,7.33-1.94,10.89-3,10.23-1.44,20.51-.46,30.76-.64a2.54,2.54,0,0,1,2.55,1.21,1.73,1.73,0,0,0,3.16.33c1.21-1.62,2.68-1.67,4.35-1.66l62.95.3c.67,1.82,1.35,1.85,2,0l6.94,0c.67,1.77,1.35,1.83,2.05,0,6.47-.78,12.89.49,19.34.5q52.25.14,104.5.16c-.82,2.88,4.25,3.36,2.62,6.78-1.42,3,1,3.77,3.27,4.09,2.42.34,5-.37,7.18,1.4a1.32,1.32,0,0,0,1.3-.11c.71-.7.17-1.45-.06-2.25-.34-1.22-4.2-2.16-.42-3.82l.51.1-.3-.3c-.55-1.44-2.57-2.81-1.23-4.32,1.08-1.22,3.11-.65,4.68-.2,4.2,1.19,8.47.39,12.7.59,1.86.09,2.68-.9,2.75-2.66l23.92-.29V129.2c-3.31-.16-6.63-.35-9.94-.47-12.88-.44-25.8-1.27-38.65-.26-10.78.86-21.53-.16-32.27.54l-1.2-.61-3,0c.3-.83,1.23-1.6.45-2.55a1.27,1.27,0,0,0-1.23-.23c-1.36,1-.09,1.9.23,2.84-2,1.08-4.08.63-6.16.54-.14-2.09-1.22-3.15-3.28-2.44-3.95,1.38-7.47.5-10.86-1.63a3.12,3.12,0,0,0-3.69.06c-4.9,3.19-9.52,2.82-14.46-1-1.64-1.25-3.09-.66-4.45.54-1.08.95-1.54,2.64-3.33,2.73l-3,0c-.33,0-.65,0-1,0h-18l-3.12.2-1.81.88-6.1-.23a2.59,2.59,0,0,0-3.88,0l-2-.2-.21-2.07c.65-5-2.16-3.66-4.8-2.58-.21-1.34-1.06-2.4-2.29-1.63-3.05,1.91-7,1.52-9.73,4.13l-1,2.45c-4.79.27-9.59.79-14.37.76-18.27-.13-36.54-.6-54.8-.64-13.57,0-27.15-.88-40.7.35-.66-1.55-2.05-1.46-3.38-1.46l-26.87.17a15,15,0,0,1-6.72.7c.71-1.78,2.68-3.74-.86-4.83-2.46-.76-1.51-2.57-1.15-4.79-1.33,5.61-5.29,6.11-9.57,6.32-.95,0-1.27,1.4-1.39,2.42l-4,0c.19-2.41-1.5-4.25-3.28-3.92-2.48.45-3.66,2.94-3.77,5.59l-1.89.08c-.06-2-.92-4.21-3-3.5-3,1-7.75-2.07-9.09,3.37-14.45.48-28.87.15-43.32-.31-19.26-.61-38.56-.25-57.84-.35-3,0-6,.28-8.08-2.7-.59-.87-1.73-1.47-2.43-.3-1.66,2.82-4.3,2-6.69,2C15.07,127.21,7.59,127.19.11,127.2Zm275-50.7,0-.3-.24.16c-2.31-1-3.71.36-3.9,2.21s1,3.83,3.14,3.68,4.51-.93,3.91-4.08a2.2,2.2,0,0,0-2.39-1.39A.5.5,0,0,0,275.15,76.5Zm5.44,17.72C278.74,96,275,96,275.22,99.81c.19,3.14,1.74,5.41,5.24,5.24,3.69-.17,5.17-2.66,5.23-6C285.74,95.9,283.2,95.16,280.59,94.22Zm197.78-7.45a4.51,4.51,0,0,1,4.5-.5c1.47.61,3.29,1.46,4.09-1s1.36-5-.49-7.06a2.17,2.17,0,0,0-3.75.43C481.21,81.35,479.81,84.08,478.37,86.77Zm-47.8,33.65c-.16-1.48-.64-3-2.24-2.82-2.54.22-1.76,3.12-3,4.54-.69.76.58,1.89,1.65,1.61C428.68,123.3,430.53,122.71,430.57,120.42ZM188.5,124.06c-.77-.72-1.21-2.26-2.66-2.19a2.76,2.76,0,0,0-2,1.78c-.13,1.86,1.75,1.44,2.83,1.84C187.59,125.82,188.21,125.32,188.5,124.06Z"/><path class="cls-2" d="M514.5,182c0,8.14-.17,16.28.09,24.41.1,3-.61,3.57-3.58,3.57q-78.66-.18-157.32-.08c-4.92-5.41-11-10.28-17.52-12.17-9.56-2.78-17.91-8.67-28-9.92-2.57-.32-5.39-.21-7.79-1.26-5.68-2.47-11.12-1.24-16.62.44-2.26,0-4.35.29-5,3-3.88-.59-7.4-1.92-10-5.06l3-2.89c.89-.39,1.8-1.14,2.68-1.11,8.73.29,17.5,1.53,26-1.67a2.84,2.84,0,0,1,2.32.49c4,3.21,8,1.38,12.06.23,3.09.61,6-.45,8.88-1.2,3.37,3.48,7,4.42,11.16,1.28l5.8-.22a7.22,7.22,0,0,0,8.06,0l3.95-.82c2.93,1,3.82,4.89,7.54,5s5.6-1.92,7.45-4.66c2.93,3.41,5.57,6.54,10.28,5.46,3.88-.88,7.78-1.76,10.64-4.87,2.85.27,5.92,1.84,8.16-1.41,1,1.68,2.13,2.8,4.37,1.82s4.1-.17,6.05,1c6.82,4.11,14.6.68,16.64-7.25l1.79-1.09,1-.09c4.15,1.87,8.3,3.93,12-.78l21.95,0,1,.85c3.79,7.18,11.21,11.27,18,9.94a2.2,2.2,0,0,0,2.22-.94l.35,0,.36,0c2.13.21,4.39-2.57,6.38,0,4.62,6.08,7.65,5,13.5,1.77,2.24.3,3.87-.28,4.15-2.84l3.11-.13,3.87.38Z"/><path class="cls-3" d="M514.5,70.42l-23.92.29c-11-.75-22,0-33,.7q-52.26-.06-104.5-.16c-6.45,0-12.87-1.28-19.34-.5l-2.05,0-6.94,0h-2l-62.95-.3c-1.67,0-3.14,0-4.35,1.66a1.73,1.73,0,0,1-3.16-.33,2.54,2.54,0,0,0-2.55-1.21c-10.25.18-20.53-.8-30.76.65-6.34-1.54-12.74-.43-19.11-.54-38.88-.65-77.76-.1-116.64-.09-20.41,0-40.82.16-61.21-.44-7.28-.21-14.57-.51-21.87-.68v-11c4.69,1.92,9.3-.3,14-.23l5,.32.95.07c6.31-.2,12.62-.62,18.91.21-5.43,1.5-11.06,0-16.59,1.15,2.7.22,4.26,3.34,7.54,2.32,5.93-1.85,12-2.67,18.15-.85l-.18.31.17-.31c2,.22,3.78-.84,5.86-.76,14.73.54,29.47-1.47,44.24,1.3,9,1.68,18.42-.8,27.55,1.35,2.66.62,4.65-.26,4.23-3.6,5.46-1.69,11-.21,16.5-.27,7.83-.08,15.75-1.17,23.53.71l13.87.38c-1.07,1.56-4.87.06-4.24,2.89.8,3.53,2.11-1.68,3.4-.21.1.11.36.07.45.18,3.29,3.8,4.29.7,5.5-1.81l.42-.08.43,0c.12,2.93,1.57,4.11,4.19,2.59,1.83-1.06,2.7-.34,4.22.63a6.35,6.35,0,0,0,9.58-3.33c2.19-1.37,4.67-.88,7-1.09,3.16,1.12,6.37,2.65,9.05-.94l2,.05a3.42,3.42,0,0,0,2.72,1c7.54.23,15.19-.61,22.47,2.23,1.13.45,2.26.1,3.39.11,5.47.08,10.36-2.81,16-2.46,8.12.51,16.3,0,24.45.18,13.95.24,27.92.17,41.87.27s28.22.06,42.32-.14c8.14-.11,16.2,1.82,24.26.68,9.53-1.35,19,.33,28.46,0,4.63-.16,9.12.95,13.63.85,8.1-.19,16.17-1.39,24.28-1.61,11-.3,22-.1,32.93-.08,4,0,8-.37,11.86,1ZM15.2,60.06a4.3,4.3,0,0,0-.61-.45c-.1,0-.27.06-.41.1.07.2.14.56.2.56A3.67,3.67,0,0,0,15.2,60.06Z"/><path class="cls-4" d="M268.79,184.91c2.58,3.14,6.1,4.47,10,5.06.93,1.52,2.1,2.54,3.93,1.45s2.29-2.58,1.07-4.43c5.5-1.68,10.94-2.91,16.62-.44,2.4,1,5.22.94,7.79,1.26,10.08,1.25,18.43,7.14,28,9.92,6.55,1.89,12.6,6.76,17.52,12.17H161.92a12.53,12.53,0,0,0-.11-2.46c-.82-3.5,1.28-6.51,1.66-9.83.31-2.64,3.51-.25,5.14-1.41.76-.54,2.07-.56,2-1.82s-1.26-1.37-2.23-1.49c-4-.5-7.57-2-10-5.12-1.35-1.7-1.32-4.62-4.62-4-.11-2.93,2.65-3.47,4.21-5a30.69,30.69,0,0,0,4.07,2.72c4.87,2.24,9.65,7.32,15,.8,1.72,2.87,2.83,2.72,6-.82l1.82.44,1.13.06c2.93,2.25,4.1-2.31,7.38-1.59,6.7,1.45,12-2.08,15.83-7.68l2.37-.23a1.71,1.71,0,0,0,.35.7c-.17,2.39,1.16,3.77,3.28,4.36,4,1.14,9.39,1.31,11.94-.16,5.23-3,10.36-1.3,15.37-2.38s9.48,3,14.55,1.93c.86.52,1.61,1.33,2.77,1.12h0a2.3,2.3,0,0,0,.94,2.1C262.82,182.72,265,185.17,268.79,184.91Z"/><path class="cls-3" d="M153,128.91l1.89-.08c2.68.82,4.6-1.52,7-1.67l4,0c1.44,1.53,3.27,2.81,5.15,1.44,2.12-1.54,3.52-1.71,5.32.33.55.62,1.88.06,2.5-.89a15,15,0,0,0,6.72-.7,3,3,0,0,0,3.21,1.76c9-.14,18,.46,27-.47,13.55-1.23,27.13-.37,40.7-.35,18.26,0,36.53.51,54.8.64,4.78,0,9.58-.49,14.37-.76l2,0,16-.25,2,.2c1,1.54,2.54,1,3.94,1,2.23,1.23,4.43,2.3,6-.85l1.81-.88c1.65,2.78,4.44,2.22,7,2.42,12.11,1,24.15-1.18,36.26-.76,7.29.25,14.6-.06,21.9-.11,2.08.09,4.18.54,6.15-.55l.56,0,3,0,1.2.61c10.74-.7,21.49.32,32.27-.54,12.85-1,25.77-.18,38.65.26,3.31.12,6.63.31,9.94.47v8q-19.12-.33-38.18-1.82A118.68,118.68,0,0,0,446,137.16c-.76.14-2,.08-1.63,1.18.27.75,1.46,1.18,2.24,1.75-3,.8-6.22-.92-9.09.93l-8.87.27-17.93-1-3.11-.35c2.35-1.62,5.24-.08,7.9-1.31-73.4-2.11-146.55-.71-219.71-.42l-58.8,0c-10.3.65-20.52-.93-30.79-1-17.34-.15-34.66.67-52,.1-13.11-.43-26.25,0-39.37-.13-2.7,0-6.3,1.27-6.7-3.54a1.61,1.61,0,0,0-2.47-.74c-1.86,2-3.69.54-5.55.33v-6c7.48,0,15,0,22.44,0,2.39,0,5,.79,6.69-2,.7-1.17,1.84-.57,2.43.3,2,3,5.13,2.69,8.08,2.7,19.28.1,38.58-.26,57.84.35,14.45.46,28.87.79,43.32.32A46.89,46.89,0,0,0,153,128.91Zm356,1.54H429C455.69,132.74,482.4,131.69,508.94,130.45Z"/><path class="cls-5" d="M.11,18.61C.11,13.3.21,8,.06,2.67,0,.93.37.34,2.12.65a13.78,13.78,0,0,0,2.49,0H230.84c.22,5,3.81,5.53,7.6,5.53,1.39,0,3.14-1.34,3.91.51s-1.48,2.15-2.51,3-1.85,1.78-1.59,2.9c1,4.23-1.31,8-1.38,12.07l-2.05-.05c.3-4.37-4.54-2.55-4.62-2.45-3.92,5.1-9.85,1.52-14.41,3.43l-1.89-.15a1.18,1.18,0,0,0-2.06,0,.53.53,0,0,0,0,.49H210l-2.27.05-1.86-.41c-4.54-.51-7.37-3.44-9.93-6.85a10.51,10.51,0,0,0-2.45-2.15c-3,3-7.91,3.75-9.4,8.34l-2.07.91a2.11,2.11,0,0,0-2.22.29l-1.33.11h-.06l-4.48-.69c-.45-1.51-2.33-1.57-2.91-3.18-1.5-4.1-4.35-5-7.65-2.54-1.37,1-2.5,2.17-4.37,1.59.66-3.41-1.4-5.74-3.65-7.9,2-1.62,6.05.27,5.45-4-.23-1.62-7.66-5-8.64-3.74-2.55,3.17-6.82,3.36-9.56,5.9-3.79,3.5-5,3-4.39-2.16.21-1.83-1.66-2.36-3.15-2.35-1.12,0-1.18,1.33-.68,1.87,3.64,3.93-.63,5.1-2.41,7.14-1.94-.23-3.87-.55-5.82-.68-1.66-.11-3.37-1.59-5,.33-3,3.49-6.62,3.32-10.19,1.13-2.87-1.75-4.16-.56-5.21,2-2.17,5.31-3.92,5.74-8.68,2.27a5.23,5.23,0,0,0-4.15-3.18C82.3,15.66,73.6,19.53,65.83,26.38a2.19,2.19,0,0,0-.82.26,7.65,7.65,0,0,1-.83-.18,27.75,27.75,0,0,0-7-5c-1.8-5-5.17-7.61-10.58-9.13a45.16,45.16,0,0,0-23-.52C15.73,13.68,6.77,12.26.11,18.61Zm205.53-8.15c.82-1.67,4-1.17,3.88-3.66-.06-1.89-1.82-2.75-3.53-2.7a3.07,3.07,0,0,0-3.05,3.22A2.89,2.89,0,0,0,205.64,10.46Z"/><path class="cls-6" d="M153.69,183.8c3.3-.65,3.27,2.27,4.62,4,2.47,3.1,6.07,4.62,10,5.12,1,.12,2.14.23,2.23,1.49s-1.21,1.28-2,1.82c-1.63,1.16-4.83-1.23-5.14,1.41-.38,3.32-2.48,6.33-1.66,9.83a12.53,12.53,0,0,1,.11,2.46Q83,209.9,4,210c-3.54,0-4.18-.85-4-4.15.32-6.27.09-12.58.09-18.87,3.8-.12,7,1.94,10.38,3.09a18.1,18.1,0,0,0,20.66-6.49L34,179.64l4,4.47c4.41,8,13,9.4,20.37,3.33l7-.17c1.35-.32,2.89-.16,3.85-1.49l1-.6c1.92-.36,3.76-.88,5.41.94A6.42,6.42,0,0,0,81,188l0,0c.65,1,1.2,1,1.61-.17,3.69.36,7.57-1.16,11,1.41,3.63,2.71,9.9,2.81,13.09-.43,3.5-3.56,7.89-5.46,12-8,3.07.69,5.32-2.15,8.29-1.89a4.37,4.37,0,0,0,5.34.07,2.47,2.47,0,0,1,3.41.23A3.37,3.37,0,0,0,138,181l.64.06,2.29,0c.71,1,1.8.94,2.84,1l1.21.46c.92.86,1.8,2.06,3,.28l2,.13c.28.54.6.62,1,.09Z"/><path class="cls-5" d="M263.8.68h93.89c1.08,3.1,3.19,6.3,2.93,9.29-.24,2.67-.06,3.82,2.17,5,1,.56,2.66,1.49,2,3-.3.63-2.08.55-3.19.79-6.86-3.8-8.88-3.46-13.47,1.51-1.46,1.58-1.21,4.16-3.43,5.13l-5-.66c-.54-4.4-3.27-5.77-7.43-6.18-3.87-.38-6.89,1.87-10.43,2.3-.52-1.51-1.74-3-.41-4.62.69-.85,3.69,1.44,2.61-1.79-.66-2-2.57-1.77-4.22-1.76-3,0-6,.51-8.63-2.13-1.51-1.54-4.76-1.27-5.31.37-1.44,4.28-6.25,6.71-6.09,11.69a7.81,7.81,0,0,1-2.2-1c-5.39-5.29-11.43-8.08-19.37-7-5,.66-9,1.59-10.54,6.93l-2.79-1c-.53-1.82-1.49-2.26-3-1l-3,.07c-3.64-.32-3.22-4.74-6-5.92l-.91-.15q0-.42-.09-.84c0-.33,0-.65,0-1-.3-.56-.63-.55-1-.06l-2.09-.85c.06-2.53-3-6.39,2.11-6.83a15.32,15.32,0,0,1,7.14.71C261.56,6.09,263.58,4.53,263.8.68Zm73.63,16c1.25-.19,3.41.19,2.89-1.62-.78-2.73-2.1-5.66-5.4-6.31-2.2-.43-2.1,1.44-2.13,2.92C332.73,14.86,334.35,16.47,337.43,16.68Z"/><path class="cls-7" d="M514.5,53.48v5l-2.22.24a.34.34,0,0,0-.53,0h-7.51l-3.5.07-2.5-.05a16.51,16.51,0,0,0-6.42,0l-6.47,0a.45.45,0,0,0-.64,0l-2.39,0a16,16,0,0,0-6.46,0l-3.52,0a.37.37,0,0,0-.58,0c-1.16,0-2.31-.15-3.47-.15L399.65,59a1.21,1.21,0,0,0-1.94,0l-7.17,0a4.23,4.23,0,0,0-4.79,0l-2.15,0c-.29-.43-.58-.44-.87,0l-4.2-.1a1.86,1.86,0,0,0-2.78.23c-4,.65-8-.21-12-.23a1.55,1.55,0,0,0-2.12,0l-7.9.07-1.09,0-10.16-.17-.27-.17-.28.16-3.45-.06a.34.34,0,0,0-.55,0l-3.5,0c-1.28-1.42-3-1.11-4.64-1.27-11.35-1.08-22.75-.9-34.14-1.11-.09-2.24,1.5-3,3.17-4,2.62-1.43,5.63-.18,8.48-2,2.54-1.65,4.19-3,4.37-5.94,0-.63,0-1.26,0-1.88,3.8,1.08,7.53,1.32,11-1,.12,2.62-.31,4.73-3.74,3.54a4,4,0,0,0-3.24.4c-.35-.46-.69-.44-1,0,0,.67,0,1.33,0,2-1.42,1-3,2,0,3,.4.26.83.8,1.2.76,4.91-.5,9.8-1.18,13.92,2.68.59.55,1.88.37,2.84.52,1.12,0,2.26.07,3-1,8.92,2.66,17.89,3.67,27,1l1.92,0c.35.46.72.48,1.1,0,4.71-.81,10.23,2.14,14-3,3,.71,5.68,4.32,9.13,1l.68,0a8.22,8.22,0,0,0,5.23,1h.79l5.09-.06c2.72,0,5.77.71,7-2.86,2.15-.59,3.09,1.76,4.91,2,.54,2.14,1.87,1.82,3.42,1.16a8.79,8.79,0,0,1,4.54-.64c7,.62,14.27,2.53,21-1.58h2.05c2.48,2.8,5.39,3.52,9.23,3.25,4.64-.33,9.44,1.31,14,.78,5.32-.62,11,1.55,15.95-1.73,2.54-1.68,5.35,1,7.35-.36,3.25-2.3,6.28-1.21,9.4-.44C504.5,54.28,509.45,55.14,514.5,53.48Z"/><path class="cls-8" d="M118.76,180.84c-4.09,2.5-8.48,4.4-12,8-3.19,3.24-9.46,3.14-13.09.43-3.46-2.57-7.34-1-11-1.41l-1.61.17,0,0c-.85-2.18-.41-4.84-3-6.38-4.58-2.75-6,.78-7.88,3.61l-1,.6c-.47-1.21-.87-2.79-2.56-2.24s-1.51,2.25-1.29,3.73l-7,.16c-.83-.31-1.28-2.08-2.29-1.2-5.23,4.55-9.45.47-13.75-1.64-1.58-.78-2.7-1.75-4.33-.48l-4-4.47-2.88,3.94c-1.53-2.89-3.19-4-5.32-.47-.73,1.21-2.12,1.49-3.33,2-1.55.71-2.3,2.82-4.92,1-2.79-1.91,1.1-3.18-.68-5.07-2.34,2.52-5.61,1.58-8.64,1.74-2.07.12-5-.46-3.82-3.87.38-1.11,2.32-2.11,1-3.27-1.82-1.54-2.25,1.12-3.42,1.69a13.15,13.15,0,0,1-1.87.6v-9c1.49-.11,3-.2,4.46-.33,2.47-.23,3.85.67,3.57,3.35l-1.92.29c.07.13.11.36.21.38A1.45,1.45,0,0,0,8.1,172c2.47.78,4.15,4.51,7.19,2.71,3.63-2.15,7.19-.56,10.78-.71,4.43.33,8.89.78,11.9-3.58,3.09.41,6,1.72,9.23,1.62,1.81-.06,2.87,1.64,3.94,3.26,1.36,2.05,2.1,4.83,4.91,5.71-.16,2.44,1.67,3.9,3.25,2.72,3.06-2.31,8.14-.55,9.92-5.24.45-1.21,2.19-1.18,3.4-1.65,2.42-.94,5.27-.3,7.53-2.12l-2.27-1.84a7.79,7.79,0,0,1,.22-.83l1.05-.88a2.63,2.63,0,0,0,.69-.13A2.31,2.31,0,0,0,82,173c.33.36,1,.83.93,1.08-.78,2.75,1.24,5,1.81,7.34,1.18,4.9,4.67-2.26,7.12.37.37.4,1.6.22,2.34,0,4.2-1.25,8.7,2.37,12.75-.84l0,0c0,.32,0,.64-.05,1l-.17.39L107,182c2.12-.31,2.48-2.13,3.17-3.67l1.94.44c.35.69.5.5.54-.13,1.5-3.08,5.62-1.31,7.36-3.94l1.74.09Z"/><path class="cls-9" d="M514.5,53.48c-5.05,1.66-10,.8-15-.44-3.12-.77-6.15-1.86-9.4.44-2,1.41-4.81-1.32-7.35.36-4.93,3.28-10.63,1.11-15.95,1.73-4.58.53-9.38-1.11-14-.78-3.84.27-6.75-.45-9.23-3.25.75-1.81,1.64-2.5,4-2.41,4.71.19,6.93-4.46,4.36-8.37-.46-.69-1.17-1.22-.85-2.13,1.5-4.2-.6-5.32-4.35-5.27-1,0-1.7-.92-2.18-1.84.42-.26.93-.83,1.23-.73,5.48,1.82,11.62,1.82,16.31,5.88a3,3,0,0,0,2.29.72c4.77-1.58,9.57,2.71,14.55-.47,2.32-1.48,5.18-3.44,8.52-2.38.23.42.67.86.64,1.26-.46,6.23.71,7.37,6.85,6.06,4.39-.94,7.78.74,10.82,3.59,2.52,2.36,4.83,5,8.7,5Z"/><path class="cls-10" d="M514.5,15.62v7a44.14,44.14,0,0,0-18,3.87,4.68,4.68,0,0,0-.9.2l-1.08-.07c-1.46-1.24-3.18-1-4.89-.88-1.94,1-3,3.32-5.87,3a245.35,245.35,0,0,0-28.31-1.13c-1.41,0-2.51-.28-3.05-1.9-1.62-4.95-5.45-4.59-8.84-2.73a8.45,8.45,0,0,1-7,.83c-.57-6.83-3.87-1.06-5.87-1.27l-.54-.14.37.31c.07,1.42-1.24,1.85-1.94,2.71l-1.8-.1c-.13-1.43.07-3-1.24-4,2.36-.69,4.75-1.35,4.08-4.67,3-.93,6.21-1.35,9.07-2.33,3.6-1.24,6.79.86,10.3-.19,3.88-1.16,8.23-.44,10.73,3,2.76,3.78,4.48,2.35,6.24-.35a46.08,46.08,0,0,1,7.55-9c4.56-1.36,9.14-2.38,13.9-1.07l.18,1.93c1,2.61,2,5.19,2.86,7.85.63,2,.8,4.47,3.29,5,2.87.65,4.58-1.21,5.86-3.51C504.31,15.55,509.13,13.75,514.5,15.62Z"/><path class="cls-11" d="M.11,45.51V25.58c1.94-.22,4.17.85,5.21-2.24.71-2.12,2.21-1,3.08.38,1.66,2.66,3.87,3.24,6.65,1.86,2.54.69,3.81-2,6-2.22,8.57-.29,16,3.95,24,6.05a2.28,2.28,0,0,0,2,1.22l1.11,10c-1,4.33-4.73,6-8.06,8a26.93,26.93,0,0,1-11-2.12c-3.37-4.6-6.23-5.15-10-1.92-3.51.87-6.06,4-9.9,4.13C6,48.08,3.57,45.31.11,45.51Z"/><path class="cls-9" d="M.11,146.13v-7l1.77.16a32.35,32.35,0,0,0,12.05.37l2.35.05a.38.38,0,0,0-.16.45,3.66,3.66,0,0,0,5,0l3,0c.33.43.67.44,1,0l7.93.11c1,3,5.77,5.85,8.84,4.4,3.37-1.59,6.12.13,9.15.32-2.4,2.62-6.7,3.09-8,7-.84.2-2.25-.37-2.15,1.19.07,1,.88,2,2,1.53s.08-1.75.23-2.66c3.76-.21,1.83,2.32,2,4,.41,3-2.09,8,3.77,7.76,4.82-.18,10-.47,13.89-4.15a10.16,10.16,0,0,1,8.2-2.65l1-1a7.23,7.23,0,0,1,.93,0c2.64.74,1.73,1.56.25,2.84a22.12,22.12,0,0,0-7.15,12.2L62.1,171c-.23-1.2.5-3-1.17-3.39s-1.77,1-2,2.34c-.12.59-2,1.41-2.43.23-1.9-4.76-4.61-2-7.1-.91-2.28,1-4,1.14-3.83-2,.18-2.78-1.82-2.76-3.53-3-2.17-.34-2.94,1-2.93,2.93-1,.45-2.78,1.45-2.9,1.28-3.55-5-6.16.37-9.17.75-3.78-.58-7.37-2.49-11.48-.62-1.49.69-4.54.16-5.23-1.65-1.42-3.73-3.64-6.27-7.31-7.65,2.17-4.13,4.56-1.56,6.57,0,2.68,2.07,5,3.18,8.47,1.27,1.93-1.05,4.54-2,7.09-.42,4.11,2.59,7.56.73,11.38-1.38,7.28-4-5.24-7.21-.26-11,.11-.08-1.31-2.31-2.78-2.33-5.89,0-12.09-1.08-17.58.41A30.84,30.84,0,0,1,.11,146.13Z"/><path class="cls-12" d="M361.56,18.73c1.11-.24,2.89-.16,3.19-.79.7-1.46-.93-2.39-2-3-2.23-1.2-2.41-2.35-2.17-5,.26-3-1.85-6.19-2.93-9.29h54.93l.05,2.92c-7.53-.09-14.68.68-19,8.06-1.65-.08-3.36.05-4.75-1.07-5.27-4.19-9.33-2.68-14.46,1.25-4.29,3.29-6.57,6-5,11.27a13,13,0,0,1,.24,2.44l-4,1c-.86-1.73-1.27-3.76-3.16-4.84Z"/><path class="cls-13" d="M.11,146.13a30.84,30.84,0,0,0,15.77-.37c5.49-1.49,11.69-.45,17.58-.41,1.47,0,2.89,2.25,2.78,2.33-5,3.78,7.54,7,.26,11-3.82,2.11-7.27,4-11.38,1.38-2.55-1.6-5.16-.63-7.09.42-3.47,1.91-5.79.8-8.47-1.27-2-1.56-4.4-4.13-6.57,0l-2.88-.11Z"/><path class="cls-13" d="M495.57,26.66a4.68,4.68,0,0,1,.9-.2c6,.08,12.09-.29,18,1.12V50.49c-3.87,0-6.18-2.68-8.7-5-3-2.85-6.43-4.53-10.82-3.59-6.14,1.31-7.31.17-6.85-6.06,0-.4-.41-.84-.64-1.26-.24-.87-1.22-2.09-.14-2.57,3.09-1.38,1.9-4,2.25-6.26,1.71-.11,3.43-.36,4.89.88-.49.41-.92,1.06-.18,1.35C495.28,28.33,495.4,27.35,495.57,26.66Z"/><path class="cls-11" d="M514.5,147.13V173c-1.68,0-2.55,1.49-3.87,2.15l-5-2.21c.33-3.86-1.61-5.26-5.25-4.94-2.16.2-3.95-.23-3.86-3,3.52-.58,2.19-3.79,2.64-5.68s-1.9-2.2-3.6-2.26l-5-3.3c-.1-1.6,5-1.53.88-4.16-1.24-.78-1.35-2.49,1.2-1.48,1.79.71,1.61-1,2-1.95l1.94,0a5.05,5.05,0,0,1,3.22.8c2.33,1.7,2.7.18,2.82-1.73l2.86,0c.73,2.52,2.71,2.08,4.37,1.55A5.65,5.65,0,0,1,514.5,147.13Z"/><path class="cls-14" d="M383.6,59.07l2.15,0a7.91,7.91,0,0,0,4.79,0l7.17,0,1.94,0,68.64-.31c1.16,0,2.31.1,3.47.15l.28.31.3-.29,3.51,0a7.81,7.81,0,0,0,6.47,0l2.38,0,.33.32.32-.32,6.47,0a7.21,7.21,0,0,0,6.42,0l2.49.05a2.7,2.7,0,0,0,3.51-.07h7.51L512,59l.26-.32,2.22-.24v3c-3.87-1.35-7.88-1-11.86-1-11,0-22-.22-32.93.08-8.11.22-16.18,1.42-24.28,1.61-4.51.1-9-1-13.63-.85-9.47.34-18.93-1.34-28.46,0-8.06,1.14-16.12-.79-24.26-.68q-21.15.3-42.32.14c-13.95-.1-27.92,0-41.87-.27-8.15-.15-16.33.33-24.45-.18-5.62-.35-10.51,2.54-16,2.46-1.13,0-2.26.34-3.39-.11-7.28-2.84-14.93-2-22.47-2.23a3.42,3.42,0,0,1-2.72-1l10-.42,2.83-.41,2.12,0a37.37,37.37,0,0,0,3.93.4c22.11.06,44.22.14,66.33.08,7.79,0,15.61.51,23.38-.45l3.51,0,.27.19.28-.18,3.45.06.27.18.28-.17,10.16.17,1.09,0,7.9-.07,2.12,0c4,0,8,.88,12,.24l2.78-.24,4.2.1.43.16Z"/><path class="cls-12" d="M473.49,7.65a46.08,46.08,0,0,0-7.55,9c-1.76,2.7-3.48,4.13-6.24.35-2.5-3.41-6.85-4.13-10.73-3-3.51,1-6.7-1.05-10.3.19-2.86,1-6.07,1.4-9.07,2.33l-.91-2A3.81,3.81,0,0,0,432.92,12c.63-1.45,1.64-2.51,3.37-2.31,5.41.6,5.93-1.64,3.52-5.79A20.4,20.4,0,0,1,438.59.68h22c-.68,3.86-4.37,8,1.16,11.26C463.74,5.88,468.58,4.11,473.49,7.65Z"/><path class="cls-8" d="M21.06,23.36c-2.2.21-3.47,2.91-6,2.22-1.69-6.7-7.72-8.3-14.95-4v-3c6.66-6.35,15.62-4.93,23.57-6.79a45.16,45.16,0,0,1,23,.52c5.41,1.52,8.78,4.08,10.58,9.13-1.72.48-3.48-1-5.18.15l-2.9.05c-2.67-.59-5.33-2.05-8,.19a1.56,1.56,0,0,1-2.52-.55c-3.5-8.53-10.74-3.7-16.34-4.55-1.72-.26-2.08,1.12-1.71,2.71A38.27,38.27,0,0,1,21.06,23.36Z"/><path class="cls-14" d="M1.88,139.32l-1.77-.16v-6c1.86.21,3.69,1.65,5.55-.33a1.61,1.61,0,0,1,2.47.74c.4,4.81,4,3.52,6.7,3.54,13.12.09,26.26-.3,39.37.13,17.35.57,34.67-.25,52-.1,10.27.09,20.49,1.67,30.79,1,3.05,2.29,7-.32,10.05,1.76l-8.28.47-61.52.06-3.4,0a.49.49,0,0,0-.65,0L34,139.93a48.15,48.15,0,0,0-17.75-.19l-2.35-.05C9.94,138.64,5.91,139.13,1.88,139.32Z"/><path class="cls-8" d="M473.49,7.65c-4.91-3.54-9.75-1.77-11.76,4.29-5.53-3.22-1.84-7.4-1.16-11.26h39.95a21,21,0,0,1-2.14,10.07c-1.3,2.79-1,5.05,1.2,7.14-1.28,2.3-3,4.16-5.86,3.51-2.49-.57-2.66-3-3.29-5-.82-2.66-1.9-5.24-2.86-7.85,2.14.43,4.06-.06,4.48-2.35s-1.67-2.74-3.34-3.3c-1.51-.1-2.45.16-1.13,1.82l-.19,1.9C482.63,5.27,478.05,6.29,473.49,7.65Z"/><path class="cls-12" d="M263.8.68c-.22,3.85-2.24,5.41-5.84,4a15.32,15.32,0,0,0-7.14-.71c-5.14.44-2,4.3-2.11,6.83-2.58-.14-4.51.8-5.43,3.34a2,2,0,0,0,.89,2.55c2.36,1.61,4.3.61,6.37-.73,1-.63,2.14-.88,2.27-2.28,2.78,1.18,2.36,5.6,6,5.92l-2,1.7c-2.9.66-4,5.51-7.37,4.07-4.3-1.85-8.38-.94-12.59-.62.07-4.06,2.38-7.84,1.38-12.07-.26-1.12.67-2.11,1.59-2.9s3.33-1.06,2.51-3-2.52-.52-3.91-.51c-3.79,0-7.38-.53-7.6-5.53Z"/><path class="cls-14" d="M446.61,140.09c-.78-.57-2-1-2.24-1.75-.39-1.1.87-1,1.63-1.18a118.68,118.68,0,0,1,30.32-1.81q19.08,1.49,38.18,1.82v3a2.51,2.51,0,0,0-.83.34l-2.4,0-1.5,0-2.56,0a10.93,10.93,0,0,0-5.39-.09l-5.59-.09-21.71-.4c-7.66-1.23-15.31-1.69-22.93.25l-2.24.32Z"/><path class="cls-5" d="M438.59.68a20.4,20.4,0,0,0,1.22,3.19c2.41,4.15,1.89,6.39-3.52,5.79-1.73-.2-2.74.86-3.37,2.31a3.81,3.81,0,0,1-4.23,2.59,33.3,33.3,0,0,0-16-11L412.62.68Z"/><path class="cls-12" d="M499.58,17.89c-2.2-2.09-2.5-4.35-1.2-7.14A21,21,0,0,0,500.52.68c4.58,0,11.18-1.8,13.21.47,2.36,2.63.69,8.84.77,13.49,0,.33,0,.65,0,1C509.13,13.75,504.31,15.55,499.58,17.89Z"/><path class="cls-12" d="M.11,178a13.15,13.15,0,0,0,1.87-.6c1.17-.57,1.6-3.23,3.42-1.69,1.36,1.16-.58,2.16-1,3.27-1.16,3.41,1.75,4,3.82,3.87,3-.16,6.3.78,8.64-1.74,1.78,1.89-2.11,3.16.68,5.07,2.62,1.78,3.37-.33,4.92-1,1.21-.55,2.6-.83,3.33-2,2.13-3.48,3.79-2.42,5.32.47a18.1,18.1,0,0,1-20.66,6.49C7.07,188.92,3.91,186.86.11,187Z"/><path class="cls-15" d="M.11,159.09,3,159.2c3.67,1.38,5.89,3.92,7.31,7.65.69,1.81,3.74,2.34,5.23,1.65,4.11-1.87,7.7,0,11.48.62,0,1.69-2.7,2.87-.94,4.9-3.59.15-7.15-1.44-10.78.71-3,1.8-4.72-1.93-7.19-2.71l0,0c.28-2.68-1.1-3.58-3.57-3.35-1.49.13-3,.22-4.46.33Z"/><path class="cls-7" d="M507.21,140.59l2.56,0a.88.88,0,0,0,1.5,0l2.4,0,.83.65v3c-2.89,1.37-6.26-1.06-9.05,1.12l-2.86,0c-2.25-1.19-4.43-2-6,.93l-1.94,0c-5.18-2.67-9,.73-13.1,2.91-4.06-1.14-4.1-5.8-7-8,7.22-.71,14.52.76,21.71-.76l5.6.09A6.43,6.43,0,0,0,507.21,140.59Z"/><path class="cls-15" d="M14.07,58.23c-4.66-.07-9.27,2.15-14,.23v-7c2.13,2.55,5.51-.62,7.25,1.18,2.73,2.81,3.5.44,4.81-1.1,3.38-.06,5.24.76,2.71,4.38A8.81,8.81,0,0,0,14.07,58.23Z"/><path class="cls-15" d="M.11,21.6c7.23-4.32,13.26-2.72,15,4-2.79,1.38-5,.8-6.66-1.86-.87-1.39-2.37-2.5-3.08-.38-1,3.09-3.27,2-5.21,2.24Z"/><path class="cls-16" d="M12.17,51.57c-1.31,1.54-2.08,3.91-4.81,1.1C5.62,50.87,2.24,54,.11,51.49v-6c3.46-.2,5.89,2.57,9.07,3.15C9.19,50.64,11.46,50.31,12.17,51.57Z"/><path class="cls-15" d="M514.5,27.58c-5.94-1.41-12-1-18-1.12a44.14,44.14,0,0,1,18-3.87Z"/><path class="cls-8" d="M510.63,175.18c1.32-.66,2.19-2.12,3.87-2.15v8l-1,.26-3.87-.38c-.06-.94-.11-1.88-.17-2.81Z"/><path class="cls-16" d="M505.45,145.26c2.79-2.18,6.16.25,9.05-1.12v3a5.65,5.65,0,0,0-4.68-.32C508.16,147.34,506.18,147.78,505.45,145.26Z"/><path class="cls-10" d="M514.5,141.15l-.83-.65a2.51,2.51,0,0,1,.83-.34Z"/><path class="cls-5" d="M513.5,181.26l1-.26v1Z"/><path class="cls-6" d="M457.58,71.41c11-.72,22-1.45,33-.7-.07,1.76-.89,2.75-2.75,2.66-4.23-.2-8.5.6-12.7-.59-1.57-.45-3.6-1-4.68.2-1.34,1.51.68,2.88,1.23,4.32l-.21.2c-3.78,1.66.08,2.6.42,3.82.23.8.77,1.55.06,2.25a1.32,1.32,0,0,1-1.3.11c-2.17-1.77-4.76-1.06-7.18-1.4-2.25-.32-4.69-1.08-3.27-4.09C461.83,74.77,456.76,74.29,457.58,71.41Z"/><path class="cls-4" d="M422.7,129c-7.3,0-14.61.36-21.9.11-12.11-.42-24.15,1.73-36.26.76-2.56-.2-5.35.36-7-2.42l3.12-.2a33.48,33.48,0,0,0,18,0c.32,0,.64,0,1,0,1,1.16,2,1.22,3,0,1.79-.09,2.25-1.78,3.33-2.73,1.36-1.2,2.81-1.79,4.45-.54,4.94,3.8,9.56,4.17,14.46,1a3.12,3.12,0,0,1,3.69-.06c3.39,2.13,6.91,3,10.86,1.63C421.48,125.81,422.56,126.87,422.7,129Z"/><path class="cls-6" d="M199.83,70.63c6.37.11,12.77-1,19.11.54-3.56,1.06-5.94,5.31-10.89,3-2.31-1.08-1.93,2.21-2.17,3.83-.16,1.1-.31,3.27-1,2.88-2.42-1.36-4.94,1.36-7.17-.64-1.67-1.5,0-2.45.12-3.7C198.06,74.33,199.39,72.66,199.83,70.63Z"/><path class="cls-6" d="M280.59,94.22c2.61.94,5.15,1.68,5.1,4.84-.06,3.33-1.54,5.82-5.23,6-3.5.17-5-2.1-5.24-5.24C275,96,278.74,96,280.59,94.22Z"/><path class="cls-6" d="M343.73,127.9l-16,.25-1.07-2.4c2.7-2.61,6.68-2.22,9.73-4.13,1.23-.77,2.08.29,2.29,1.63-.18,4.17,2.81,2.44,4.8,2.58Z"/><path class="cls-6" d="M178.9,128.08c-.62.95-2,1.51-2.5.89-1.8-2-3.2-1.87-5.32-.33-1.88,1.37-3.71.09-5.15-1.44.12-1,.44-2.37,1.39-2.42,4.28-.21,8.24-.71,9.57-6.32-.36,2.22-1.31,4,1.15,4.79C181.58,124.34,179.61,126.3,178.9,128.08Zm-9.59.09.75-.44c-.11-.11-.23-.32-.34-.31a4.75,4.75,0,0,0-.9.17Z"/><path class="cls-6" d="M478.37,86.77c1.44-2.69,2.84-5.42,4.35-8.08a2.17,2.17,0,0,1,3.75-.43c1.85,2.08,1.29,4.66.49,7.06s-2.62,1.56-4.09,1A4.51,4.51,0,0,0,478.37,86.77Z"/><path class="cls-6" d="M215.87,128.67c-9,.93-18,.33-27,.47a3,3,0,0,1-3.21-1.76l26.87-.17C213.82,127.21,215.21,127.12,215.87,128.67Z"/><path class="cls-6" d="M153,128.91a46.89,46.89,0,0,1-12.07-.12c1.34-5.45,6.06-2.33,9.09-3.38C152.06,124.7,152.92,126.9,153,128.91Z"/><path class="cls-15" d="M278.08,78.17c.6,3.15-1.78,3.92-3.91,4.08s-3.32-1.87-3.14-3.68,1.59-3.23,3.9-2.21l.22.14a.5.5,0,0,1,.54.28C275.84,78.35,276.83,78.49,278.08,78.17Z"/><path class="cls-6" d="M161.92,127.16c-2.45.15-4.37,2.49-7,1.67.11-2.65,1.29-5.14,3.77-5.59C160.42,122.91,162.11,124.75,161.92,127.16Z"/><path class="cls-4" d="M430.57,120.42c0,2.29-1.89,2.88-3.62,3.33-1.07.28-2.34-.85-1.65-1.61,1.27-1.42.49-4.32,3-4.54C429.93,117.46,430.41,118.94,430.57,120.42Z"/><path class="cls-13" d="M343.52,125.83c-2-.14-5,1.59-4.8-2.58C341.36,122.17,344.17,120.79,343.52,125.83Z"/><path class="cls-14" d="M378.67,127.21a33.48,33.48,0,0,1-18,0Z"/><path class="cls-6" d="M188.5,124.06c-.29,1.26-.91,1.76-1.82,1.43-1.08-.4-3,0-2.83-1.84a2.76,2.76,0,0,1,2-1.78C187.29,121.8,187.73,123.34,188.5,124.06Z"/><path class="cls-14" d="M355.73,128.29c-1.61,3.15-3.81,2.08-6,.85l-.06-1.08Z"/><path class="cls-6" d="M349.63,128.06l.06,1.08c-1.4,0-2.94.5-3.94-1A2.59,2.59,0,0,1,349.63,128.06Z"/><path class="cls-4" d="M429.41,128.36l-.56,0c-.31-.93-1.58-1.82-.22-2.83a1.27,1.27,0,0,1,1.23.23C430.64,126.76,429.71,127.53,429.41,128.36Z"/><path class="cls-14" d="M326.7,125.75l1.07,2.4-2,0Z"/><path class="cls-6" d="M331.69,70.73l2.05,0C333,72.56,332.36,72.5,331.69,70.73Z"/><path class="cls-10" d="M278.08,78.17c-1.25.32-2.24.18-2.39-1.39A2.2,2.2,0,0,1,278.08,78.17Z"/><path class="cls-6" d="M322.71,70.7h2C324.06,72.55,323.38,72.52,322.71,70.7Z"/><path class="cls-14" d="M382.63,127.24c-1,1.18-2,1.12-3,0Z"/><polygon class="cls-10" points="275.15 76.5 274.93 76.36 275.17 76.2 275.15 76.5"/><path class="cls-6" d="M471.68,77.3l.3.3-.51-.1Z"/><path class="cls-4" d="M433.64,129l-1.2-.61Z"/><path class="cls-8" d="M388.61,179.92c-2.86,3.11-6.76,4-10.64,4.87-4.71,1.08-7.35-2-10.28-5.46-1.85,2.74-3.87,4.81-7.45,4.66s-4.61-4-7.54-5l1-3.94a19.19,19.19,0,0,1,7.42-2c10.15-.85,20.32-.58,30.47-1,3.31-.13,6.84-.11,9.95-1.82,1.8,1.85,4.05.57,6.08.88,2,1.64,4,1.1,6,.12l1.87-.47,8.19,1.42.15,2c-2,7.93-9.82,11.36-16.64,7.25-1.95-1.18-3.91-2-6.05-1s-3.37-.14-4.37-1.82C392.9,172.33,391,177.71,388.61,179.92Z"/><path class="cls-8" d="M314.85,180c-4,1.15-8.06,3-12.06-.23a2.84,2.84,0,0,0-2.32-.49c-8.53,3.2-17.3,2-26,1.67-.88,0-1.79.72-2.68,1.11-3.6-.6-5.5-4.24-9-5-.48-1.64-.29-3.91-3.1-3.4-1.44.26-1.67-.6-1.78-1.67,5.74-.46,10.71,2.74,16.28,3.36,4.1.47,7.81.93,11.34-1.56.84-.6,2.21-1.12,2.67-.19,2.07,4.19,5.69,1.93,8.47,1.94,7.05.05,14.15,1.45,21.18-.24-.24.8-.6,1.72-1.51,1.66C313,176.64,314.22,178.41,314.85,180Z"/><path class="cls-8" d="M502.37,183.85c-5.85,3.27-8.88,4.31-13.5-1.77-2-2.6-4.25.18-6.38,0-.3-4.79-5-4.27-6.94-3.86-5.84,1.21-7.88-2.17-10-6.18l6.17.77,3.79.11c2.33.77,3.31,6.4,7.1,2,3.77,3,7.86,5.15,12.85,5l2,0,5.12,2.58C502.57,182.89,502.47,183.37,502.37,183.85Z"/><path class="cls-10" d="M471.77,172.77l-6.18-.76-4,0-1,.13-21.95,0-2.13-.56c3.45-1.95,6.29-6.61,11.12-2.51-.49.17-1.31-.09-1.22.87a.43.43,0,0,0,.3.3c1,.12.74-.69.9-1.19,1.85-.36,3.65,2.62,5.37.41,2.35-3,8.21.29,9.1-5.18a3,3,0,0,1,1.85,0C467.43,166.23,472,167.29,471.77,172.77Z"/><path class="cls-12" d="M461.57,172l4,0c2.08,4,4.12,7.39,10,6.18,1.94-.41,6.64-.93,6.94,3.86l-.36,0-.35,0a2.39,2.39,0,0,0-2.22.94c-6.82,1.33-14.24-2.76-18-9.94A8,8,0,0,0,461.57,172Z"/><path class="cls-8" d="M334.89,180c-4.13,3.14-7.79,2.2-11.16-1.28-.63-1.26-1.26-2.52-1.9-3.78a39.48,39.48,0,0,0,13.84,0C335.72,176.73,334.34,178.23,334.89,180Z"/><path class="cls-5" d="M262.76,177c3.5.79,5.4,4.43,9,5l-3,2.89c-3.78.26-6-2.19-8.09-4.76,1.42-1.47.53-1.91-.94-2.09h0C260.06,175.75,261.73,177.26,262.76,177Z"/><path class="cls-10" d="M353.72,175l-1,3.94-3.95.82c-.37-2.42-3.23-1.21-4.15-2.83l.1,0,.88-1c.39-3.07,3.09-.2,4.13-1.6l2-.44Z"/><path class="cls-12" d="M321.83,175c.64,1.26,1.27,2.52,1.9,3.78-2.91.75-5.79,1.81-8.88,1.2-.63-1.55-1.87-3.32,1.46-3.07.91.06,1.27-.86,1.51-1.66l2.79-.36,1.1.07Z"/><path class="cls-8" d="M344.6,176.94c.92,1.62,3.78.41,4.15,2.83a7.22,7.22,0,0,1-8.06,0c-.19-1.7-3-3.06-.65-5.09Z"/><path class="cls-5" d="M436.47,171.57l2.13.56c-3.72,4.71-7.87,2.65-12,.78a6.65,6.65,0,0,1,0-.89l6-.54,1-.1Z"/><path class="cls-12" d="M340,174.73c-2.34,2,.46,3.39.65,5.09l-5.8.22c-.55-1.81.83-3.31.78-5C337.07,174,338.4,172,340,174.73Z"/><path class="cls-5" d="M388.61,179.92c2.42-2.21,4.29-7.59,8.16-1.41C394.53,181.76,391.46,180.19,388.61,179.92Z"/><path class="cls-5" d="M283.77,187c1.22,1.85.74,3.35-1.07,4.43s-3,.07-3.93-1.45C279.42,187.28,281.51,187,283.77,187Z"/><path class="cls-5" d="M502.37,183.85c.1-.48.2-1,.29-1.44l3.17-2.1.69.7C506.24,183.57,504.61,184.15,502.37,183.85Z"/><path class="cls-5" d="M509.46,178.07c.06.93.11,1.87.17,2.81l-3.11.13-.69-.7A7.06,7.06,0,0,1,509.46,178.07Z"/><path class="cls-5" d="M423.83,174.09l-.15-2,1.92-.07c0,.32,0,.64,0,1Z"/><path class="cls-8" d="M479.56,183a2.39,2.39,0,0,1,2.22-.94A2.2,2.2,0,0,1,479.56,183Z"/><path class="cls-8" d="M425.62,173c0-.32,0-.64,0-1l1,0a6.65,6.65,0,0,0,0,.89Z"/><path class="cls-5" d="M461.57,172a8,8,0,0,1,0,1l-1-.85Z"/><path class="cls-9" d="M214.82,60.38c-2.37.21-4.85-.28-7,1.09-1-1.16-2-2.1-3.71-1.9l-.45-.2.37.27c-1,2.75-2.49,2-4.12.68,1.33-.77-.75-4,1.59-3.24,2.82.86,4.31-1,6.4-1.6.1.6.13,1.27.9,1.39.15,0,.53-.36.51-.51-.12-.77-.79-.8-1.4-.89.61-2.67,2.08-2,3.61-.91.92.65,1.93.93,2.52-.15s-.48-1.78-1.23-2.34a31,31,0,0,0-3.68-2.45c-3.46-1.87-3.92-4.53-2.33-7.87a30.1,30.1,0,0,0,1.13-3.23c1.12-.58.79-2.45,2.65-2.57,5-.33,10.22,2.94,11.48,7.47.77,2.78.69,2.67,2.93,1,2.78-2.05,5.66-4.35,8.88-.55.4.47,8.78-1.41,8.84-2,.33-3,4.77-3.81,4-7.61-.25-1.16,1.36-1.41,2.7-1.05s2.77,1.58,4.22.49a2.75,2.75,0,0,1,4.49,1.13,3.26,3.26,0,0,1-2.15,4.69c-3.38-.64-4.67,4.3-8.76,2.39,1.79,3.77,4.35,7.64,6.63,7.67,4.88.06,3.3,2.49,3.09,4.83-4.81,2.24-10,.52-14.89,1.26-2.33-1.31-4.19-4.12-7.45-2.49-2,1-4.13.6-6.08.95-3.36.6-8.53-1.87-9.63,4.14l-2,.83C216.05,59.37,215.14,59.41,214.82,60.38Z"/><path class="cls-13" d="M207.89,38.52a30.1,30.1,0,0,1-1.13,3.23c-1.59,3.34-1.13,6,2.33,7.87a31,31,0,0,1,3.68,2.45c.75.56,1.86,1.22,1.23,2.34s-1.6.8-2.52.15c-1.53-1.07-3-1.76-3.61.91h0c-2.09.59-3.58,2.46-6.4,1.6-2.34-.72-.26,2.47-1.59,3.24l-10.08,1.26-.43,0-.42.08-2.15-.9c.81-4-2.31-6.89-2.45-10.61C182,51.2,180,52,178.17,53c-5.5,3.05-6.06,2.8-7.3-3.53l1-4c2.76-6.08,7.38-9.46,14-5,2,1.32,3.43.86,4-1.55.26-1.22.65-2.19,2-2.39,1.84-.11,3-.72,2.14-2.85l1.87-.11C199.62,35.82,204.35,35.73,207.89,38.52Z"/><path class="cls-7" d="M12.17,51.57c-.71-1.26-3-.93-3-2.91,3.84-.09,6.39-3.26,9.9-4.13,1.09,0,2.23-.11,3,.91.78,3.44,4.55,2.87,6.4,4.77,1.26,1.29,2.41,3.65,4,1.27,1.31-2-1.71-2.19-2.74-3.25-.22-.24-.45-.47-.68-.71l0-1.07a26.93,26.93,0,0,0,11,2.12c1.63,2.25,3.75,2.75,5.88,1,1.63-1.31,3.37-1,5.12-1.13,1.47.34,1.63,1,.32,1.75-1.06.63-3.08,1-1.52,2.62,1.22,1.26,3.12,1,4.25-.68a17.23,17.23,0,0,0,1.15-2.71c.72-1.63,1.3-3.5,3.8-2.56-.34,1.32-4.16,3.79.95,3.12,2.11-.27,2.52,1.31,3.36,2.33,2.56,3.11,6.28,1.17,9.26,2.32.69-3,4.29-3.51,5.42-6.15l2,0c.62,2.7,2.76,2.87,4.94,3-1.48,4,3.51,2.61,4.13,4.87-1.75,2.48-5.51-.49-7,2.6H80c-.29-2.59-4,.6-4.06-2.4l.19-.75L75,56.5l-1.77,2.28-10.27.3a.48.48,0,0,0-.74.08L56,58.93l-1.77.1A83.32,83.32,0,0,0,39,58.83c-6.29-.83-12.6-.41-18.91-.21a.83.83,0,0,0-.95-.07l-5-.32A8.81,8.81,0,0,1,14.88,56C17.41,52.33,15.55,51.51,12.17,51.57Z"/><path class="cls-7" d="M170,60.18c-7.78-1.88-15.7-.79-23.53-.71-5.49.06-11-1.42-16.5.27l-4-.06h-3l-1-.11-4-.44c-1.19-2.8-3.67-1.38-5.59-1.62-2.53-.32-5.44.38-6.43-3.06a10.23,10.23,0,0,0,7.07-2c3.42,2.9,7.37-.22,10.94,1h0l1,1a7.5,7.5,0,0,0,.93.15c4.47,3.55,9.29,1.85,14.06.92l3-1.11c1.14-.08,2.43-.33,2.54-1.59.14-1.61-1.42-1.24-2.4-1.46,0-.32,0-.65-.06-1l.1-1.71c3.15-2.72,5.1-.91,6.81,1.8.71,3.47,2,4.56,5.88,3,2.52-1,3.35-3.93,6.13-4.05,1.9,1.09,3.62,3.23,6.09,1.05C167.26,54,168.67,57.09,170,60.18Z"/><path class="cls-14" d="M123,59.7h3l4,.06c.42,3.34-1.57,4.22-4.23,3.6-9.13-2.15-18.56.33-27.55-1.35-14.77-2.77-29.51-.76-44.24-1.3-2.08-.08-3.85,1-5.86.76h0c-6.15-1.82-12.22-1-18.15.85-3.28,1-4.84-2.1-7.54-2.32,5.53-1.14,11.16.35,16.59-1.15a83.32,83.32,0,0,1,15.23.2,1.16,1.16,0,0,0,1.77-.1l6.24.23.38.14.36-.22,10.27-.3A14.84,14.84,0,0,0,80,59h2.11c12,.68,23.92.46,35.88.18l4,.44C122.26,60,122.58,60.1,123,59.7Z"/><path class="cls-9" d="M170,60.18c-1.29-3.09-2.7-6.15-2-9.66l2.86-1c1.24,6.33,1.8,6.58,7.3,3.53,1.84-1,3.82-1.81,6.17-2.91.14,3.72,3.26,6.62,2.45,10.61l-3-.15Z"/><path class="cls-10" d="M189.79,61.58l10.08-1.26c1.63,1.37,3.16,2.07,4.12-.68l.08-.06c1.67-.21,2.75.73,3.71,1.89a6.35,6.35,0,0,1-9.58,3.33c-1.52-1-2.39-1.69-4.22-.63C191.36,65.69,189.91,64.51,189.79,61.58Z"/><path class="cls-8" d="M183.83,60.56l3,.15,2.15.9c-1.21,2.51-2.21,5.61-5.5,1.81-.09-.11-.35-.07-.45-.18-1.29-1.47-2.6,3.74-3.4.21C179,60.62,182.76,62.12,183.83,60.56Z"/><path class="cls-14" d="M214.82,60.38c.32-1,1.23-1,2-1.26,1.62.22,3.25.7,4.8-.27l2.32,0a.84.84,0,0,0-.07.56C221.19,63,218,61.5,214.82,60.38Z"/><path class="cls-12" d="M223.87,59.44a.84.84,0,0,1,.07-.56l11.91-.31a.94.94,0,0,1,0,.5l-10,.42Z"/><path class="cls-14" d="M15.2,60.06a3.67,3.67,0,0,1-.82.21c-.06,0-.13-.36-.2-.56.14,0,.31-.15.41-.1A4.3,4.3,0,0,1,15.2,60.06Z"/><path class="cls-14" d="M48.05,61.45l-.17.31.18-.31Z"/><path class="cls-14" d="M19.1,58.55a.83.83,0,0,1,.95.07Z"/><path class="cls-15" d="M340,174.73c-1.64-2.74-3-.69-4.37.28a39.48,39.48,0,0,1-13.84,0l-.12,0c-.31-.79-.69-.69-1.1-.07l-2.79.36c-7,1.69-14.13.29-21.18.24-2.78,0-6.4,2.25-8.47-1.94-.46-.93-1.83-.41-2.67.19-3.53,2.49-7.24,2-11.34,1.56-5.57-.62-10.54-3.82-16.28-3.36l-2,.09c-12.92-.75-25.82.05-38.73.46a.77.77,0,0,0-1.23-.06l-2.87-.18-1.52.26-2.37.22c-2.07-1.11-4.18.38-6.26-.07-3.35-1.25-6.74-.78-10.14-.25h-3.53c-1.52,0-3.18-1.84-4.52.36a5.91,5.91,0,0,0-.82.24c-.95-.25-1.95-.82-2.85-.69-8.11,1.17-16,.84-23.57-2.73-2.47-1.17-10.14,2-12.25,4.68-2.31,1.71-4.83-1.78-7.13.27l-3.12-.63c-1.52-1.74.62-4.07-.94-5.8v0l2.94-1,0,1-.19.34.2-.33a12.28,12.28,0,0,1,1.77.8c1.78,1.14,3.73,3.07,5.59.81,1.63-2,.43-4-1.35-5.61.27-3-1.36-5.21-3.53-6.92-1.75-1.39-.78-1.67.52-2.07l3,0c1.24,1.09,2.34,2.47,4.19.8,2.51-2.27,5-1,5.21,1.52.26,4.13,8.29,2.17,5.59,7.86l1.47-.12c1-.08,2.16,0,2.72.88,3.08,4.95,3.77,1.7,4.34-1.73l4.45,2.76-3,1.44c1.41.19,3.7,1.74,3-1.45,1.47-3.43,4.34-.52,6.58-1.35a39.41,39.41,0,0,1,12.69-2.48c6.38-.1,10.31-3.43,13.66-8.15,2.16,4.26,3.48,4.26,7,0,2.56.09,3.2-3.68,6.05-3-1.35,1.72-.24,3.49-.07,5.24.14,1.41-.31,3.17,1.77,3.59a3.63,3.63,0,0,0,4.22-1.85c1.9-3.3,5.43-2,8-2.06,3,0,6.41,4.48,8.72-1.23,3.12,1.85,6.37,3.12,10.07,2.09a4.93,4.93,0,0,0,1.23-.81c2.89.66,8.24-2.15,6.57,4.93-.28,1.18,1.49.28,2.33,0,.68.41,1.76.67,2,1.25,1.46,3.89,3.42,5.19,6.78,1.8.91-.91,1.67-.27,2.58.34,4.85,3.26,9.9,5,15.66,2,1.23-.63,3.75-.94,4.13.3,1.22,4,3.39,1.42,5.42.9-.3,1.17-.52,2-.83,3.23,2.3-.42,3.93-1,6.44-.07,3.48,1.34,8.37.81,12-.57a22.25,22.25,0,0,1,10.74-1.48c5.71.6,11.17,3.43,17.34,1a6.48,6.48,0,0,1,7.72,3.57c-1,1.39-3.74-1.48-4.13,1.59l-.88,1-.1,0Z"/><path class="cls-2" d="M217.11,172.47c12.91-.41,25.81-1.21,38.73-.46l1.14,4.93c-5.07,1-9.44-3-14.55-1.93s-10.14-.63-15.37,2.38c-2.55,1.47-7.92,1.3-11.94.16-2.12-.59-3.45-2-3.28-4.36l1.17-1,2.87.18Z"/><path class="cls-12" d="M138.05,174.51c2.3-2,4.82,1.44,7.13-.27,3.35,1.3,6.25-2,9.58-.94.59,2.09,3.17,3,3.14,5.49-1.56,1.54-4.32,2.08-4.21,5l-2.76-.78a3.58,3.58,0,0,0-1-.09l-2-.13c-.9-1-1.91-.85-3-.28l-1.21-.46c-.55-1.44-1.21-2.59-2.84-1l-2.29,0c-.16-.62-.38-.53-.64-.06a3.37,3.37,0,0,1-2.24-1.79l2.18-3.06v-1.67Z"/><path class="cls-8" d="M157.9,178.79c0-2.44-2.55-3.4-3.14-5.49,4.05.94,8.68-.7,12.18,2.7l0,.05c-1.48,1.62-.24,2.77.91,3.55,1,.67,1.51-.35,2.21-1.11a3.65,3.65,0,0,1,5.15-.62,6.48,6.48,0,0,0,4.6,1.08L177,182.3c-5.35,6.53-10.13,1.45-15-.79A30.69,30.69,0,0,1,157.9,178.79Z"/><path class="cls-12" d="M189.2,172.39h3.53c.79,2.79,2,5.44,5.43,5.06a5,5,0,0,0,4.7-4.81c2.08.45,4.19-1,6.26.07-3.81,5.61-9.13,9.14-15.83,7.69-3.28-.72-4.45,3.84-7.38,1.59-.34-.75-.72-.64-1.13-.06l-1.82-.44c0-.84,0-1.7,0-2.55l6.88-2.91c.11.61.12,1.3.92,1.42.15,0,.54-.37.51-.52-.12-.78-.78-.85-1.42-.91-.31-1-.63-2-.94-2.94A5.69,5.69,0,0,0,189.2,172.39Z"/><path class="cls-5" d="M183,178.94c0,.85,0,1.71,0,2.55-3.16,3.54-4.27,3.69-6,.82.93-1.13,1.87-2.24,2.8-3.36l2-2,1,.09Z"/><path class="cls-12" d="M257,176.94,255.84,172l2-.09c.11,1.07.34,1.93,1.78,1.67,2.81-.51,2.62,1.76,3.1,3.4-1,.27-2.7-1.24-3,1.07C258.59,178.27,257.84,177.46,257,176.94Z"/><path class="cls-12" d="M259.76,178.06c1.47.18,2.36.62.94,2.09A2.27,2.27,0,0,1,259.76,178.06Z"/><path class="cls-8" d="M213,172.23l-1.17,1a1.71,1.71,0,0,1-.35-.7Z"/><path class="cls-2" d="M184.78,181.93c.41-.58.79-.69,1.13.06Z"/><path class="cls-14" d="M195.8,138.2c73.16-.29,146.31-1.69,219.71.42-2.66,1.23-5.55-.31-7.9,1.31l-5,.1a6.77,6.77,0,0,0-6.94,0l-28.13.36-3.72,0-2.24,0a.66.66,0,0,0-.77,0l-8.3,0a52.51,52.51,0,0,0-12.59.12h-3.45a51.09,51.09,0,0,0-12.48,0l-3.53.07q-12.75-.74-25.5-.2l-2.33,0a.54.54,0,0,0-.74,0l-3.25,0-1.72.07-2.27-.08-27.63,0-8.37.05-3.64-.05-2.38.06-19.53-.12c-1.33,0-2.66-.09-4-.1l-70.29-.39c1.61-1.23,3.51-.8,5.3-.8,12.14,0,24.28,0,36.42,0C192.32,139.07,194.24,139.6,195.8,138.2Z"/><path class="cls-7" d="M402.61,140l5-.1,3.11.35c-1.52,1.31-.79,4.05-3.11,4.85-4-.23-8.32.32-12-.95-3.1-1.08-2.56.55-2.7,1.94-.26,2.6,1.66,4.14,3.25,5.79-3.42,3.07.78,4.33,1.65,6.28s1.23,3.33-.24,4.91c-.32,0-.63,0-.94,0-2.61-3.53-8.41-1.67-10.41-5.79-1.76-3.64-6.35-3.18-8.25-6.5-.53-.92-3.06.27-3,.49.34,3.52-2.34,1-3.33,1.76,1.9-3.3-3.78-2.86-2.75-5,1.69-3.53-1.08-3.23-2.54-3-4.81.7-9.08-2-13.76-1.82l-3.21-1.13,3.15-1.63,8.29,0h.78l2.24,0a3,3,0,0,0,3.72,0l28.13-.36C398,141.53,400.29,140.27,402.61,140Z"/><path class="cls-13" d="M407.61,145.13c2.32-.8,1.59-3.54,3.11-4.85l17.93,1a11.77,11.77,0,0,0,.85,3.9c.73,2.55-3.62,7.68,3.79,7.22-2.47,2.63-5,4.66-7.64,4.16-3.63-.69-4.68,1.33-6,3.6-1.59-2.1-3.12-4.08-5.25-.43-.6,1-2.07.9-3,1.43-4,2.26-7.09-1.57-10.73-1.22-.08-4.78,1.36-8.83,5.37-11.82C406.85,147.51,408.54,146.87,407.61,145.13Z"/><path class="cls-11" d="M419.63,160.17c1.34-2.27,2.39-4.29,6-3.6,2.64.5,5.17-1.53,7.64-4.16-7.41.46-3.06-4.67-3.79-7.22a11.77,11.77,0,0,1-.85-3.9l8.87-.27,4.76.37c.22,1.61,0,3.42.73,4.79,2.06,4.11,1.36,7.35-2.36,10-5.55,3.66-10.86,7.89-18,7.91Z"/><path class="cls-14" d="M508.94,130.45c-26.54,1.24-53.25,2.29-80,0Z"/><path class="cls-4" d="M195.8,138.2c-1.56,1.4-3.48.87-5.25.88-12.14,0-24.28,0-36.42,0-1.79,0-3.69-.43-5.3.8h-1.78c-3.09-2.08-7,.53-10.05-1.76Z"/><path class="cls-10" d="M442.28,141.39l-4.76-.37c2.87-1.85,6.11-.13,9.09-.93l2.74.49C447.1,141.76,444.58,140.65,442.28,141.39Z"/><path class="cls-15" d="M236.87,24.71c4.21-.32,8.29-1.23,12.59.62,3.37,1.44,4.47-3.41,7.37-4.06.22,2,.4,3.15,3.41,3,2.2-.09,4.4-1.07,6.56-.59,5.36,1.21,11-.67,16.29,1.81a3.23,3.23,0,0,0,3.67-.88l6,1c0,2.7.53,4.83,3.93,2.91,1.64-.93,3.44-.94,5.2-1.2,5,0,10,.77,14.88-.91,3.58.51,6.63,4.07,10.57,2.2,2.49-1.18,4.18-.88,6.19,1,2.79,2.59,13.21,3.44,15.93,1.23,4.08-3.31,8.67-3.23,13.43-2.84a52.84,52.84,0,0,0-6.13,9.51c-1.55.57-3.09,1.16-4.65,1.71-4.25,1.52-10.23,1.73-12.29-.56-4.23-4.7-6.78-1.59-10.09-.09a7.8,7.8,0,0,0-5,.89c-4.08-1.79-7.9,1.54-12,.63-.94-.21-.89,1.49-1,2.44,0,.62,0,1.25,0,1.88-2.44,1.37-5.29,1.4-7.83,2.25-4.5,1.52-6,.83-6-4.15,0-1.95-.38-2.37-2.27-3.29-4.17-2-8.84,1.17-12.65-1.83-.06-.64-.11-1.29-.17-1.94.23-4.13-.83-8.4-5.19-8.87-7.36-.79-14.87.07-22.14,1.42-2.29.42-4.55,1.75-7.06,1.49-6.58-.67-10.93,3.42-15.39,7.16-.72.6-.93,1.76-2.2,1.22-.93-.41-1.85-.92-1.45-2.2.61-1.92-.68-3.39-2-3.26-4.07.41-7.66-2-11.79-1.36-6.21,1-12.49.43-18.71-.43a9.6,9.6,0,0,0-9,.2c-4.87,2.34-9.17.81-10.1-3.1l.22-.24.51-1.27,1.33-.1a1.54,1.54,0,0,0,2.22-.3l2.07-.92,2.78,0c2.15,1.64,4.63.33,6.91.8a19.83,19.83,0,0,0,7.86.26.87.87,0,0,0,1.43-.12l2.8-.24,1.86.41A1.51,1.51,0,0,0,210,26h1.87c.67,2.26,2.5,1.47,4,1.51,6.27-1.23,12.83-.49,18.94-2.79Z"/><path class="cls-10" d="M97.06,21.28c4.76,3.47,6.51,3,8.68-2.27,1.05-2.58,2.34-3.77,5.21-2,3.57,2.19,7.2,2.36,10.19-1.13,1.64-1.92,3.35-.44,5-.33,1.95.13,3.88.45,5.82.69L133,20.54a13.61,13.61,0,0,0-3.2,5.82l-1.89.3c-.26-.42-.51-1.17-.8-1.19-5.18-.35-10.38-1-15.52.2-1.79.41-.33,2-.62,2.93l-3.08.76a2.69,2.69,0,0,1-2-2.8l.21-.28-.16.32c-1.85,1.13-3,3.68-5.8,2.88-1.9-3.89-4.75-1-7.19-1-.33-2-2-2.5-3.23-1.68-3.11,2-6.44,1.32-9.73,1.45l-1.87.07L78,27.25c1.82-2.75,2.44-6.45,7.86-4.34,1.94.75,5.7-.62,8.74.42C95.72,23.71,96.56,22.37,97.06,21.28Z"/><path class="cls-12" d="M133,20.54,132,16.22c1.78-2,6.05-3.22,2.41-7.15-.5-.54-.44-1.87.68-1.87,1.49,0,3.36.52,3.15,2.35-.58,5.21.6,5.66,4.39,2.16,2.74-2.54,7-2.73,9.56-5.9,1-1.21,8.41,2.12,8.64,3.74.6,4.25-3.45,2.36-5.45,4,2.25,2.16,4.31,4.49,3.65,7.9-1.27-.28-1.65-1.43-2.35-2.31-4.47-5.51-10-6-15.71-1.55C138.21,18.32,136.42,21.58,133,20.54Z"/><path class="cls-10" d="M140.94,17.57c5.69-4.48,11.24-4,15.71,1.55.7.88,1.08,2,2.35,2.31,1.87.58,3-.55,4.37-1.59,3.3-2.49,6.15-1.56,7.65,2.54.58,1.61,2.46,1.67,2.91,3.18-1.1.14-2.3,0-3,1.17-2.13.5-5.26-3.19-6.41,1.55-.14.55-.92.28-1.15-.15-2.13-4-5.83-2.84-9.19-2.81-1-6.29-2.39-7-7-3.76-.55.4-1.59.78-1.58.16C145.63,18.41,141.29,20.23,140.94,17.57Z"/><path class="cls-8" d="M97.06,21.28c-.5,1.09-1.34,2.43-2.45,2-3-1-6.8.33-8.74-.42-5.42-2.11-6,1.59-7.86,4.34l-10.82-.5-1.36-.37C73.6,19.53,82.3,15.66,92.91,18.1A5.23,5.23,0,0,1,97.06,21.28Z"/><path class="cls-12" d="M201.64,26a19.77,19.77,0,0,1-7.85-.26c0-1.42.7-3.34-1.29-3.78-2.51-.56-4.5.57-5.63,3l-2.78,0c1.49-4.58,6.44-5.36,9.4-8.33a10.51,10.51,0,0,1,2.45,2.15c2.56,3.41,5.39,6.34,9.93,6.85l-2.8.24Z"/><path class="cls-10" d="M52,21.62c1.7-1.16,3.46.33,5.18-.15a27.51,27.51,0,0,1,7,5c-1.36.16-2.9,0-3.18,1.95-.33,0-.66,0-1,.07-2.43.61-4-4.95-6.93-.92-.33,0-.65-.11-1-.18A7.13,7.13,0,0,0,52,21.62Z"/><path class="cls-12" d="M234.82,24.66c-6.11,2.3-12.67,1.56-18.94,2.79l-.09-1.81c4.56-1.91,10.49,1.67,14.41-3.43C230.28,22.11,235.12,20.29,234.82,24.66Z"/><path class="cls-10" d="M205.64,10.46a2.89,2.89,0,0,1-2.7-3.14A3.07,3.07,0,0,1,206,4.1c1.71,0,3.47.81,3.53,2.7C209.59,9.29,206.46,8.79,205.64,10.46Z"/><path class="cls-15" d="M170.93,26.73c.7-1.16,1.9-1,3-1.17l4.48.69L178,27.51l-.22.24C175.45,27.52,172.39,32.46,170.93,26.73Z"/><path class="cls-15" d="M61,28.4c.28-1.92,1.82-1.78,3.18-1.94a8.39,8.39,0,0,0,.84.18,6.05,6.05,0,0,1-.91,3.88A3,3,0,0,1,61,28.4Z"/><path class="cls-10" d="M64.1,30.52A6.05,6.05,0,0,0,65,26.64a2.19,2.19,0,0,1,.82-.26l1.36.37c.3.94.59,1.88.89,2.83C66.89,30.44,65.86,32,64.1,30.52Z"/><path class="cls-8" d="M215.79,25.64l.09,1.81c-1.51,0-3.34.75-4-1.51a.53.53,0,0,1,0-.49l2.06,0Z"/><path class="cls-8" d="M182,25.84a1.54,1.54,0,0,1-2.22.3A2.09,2.09,0,0,1,182,25.84Z"/><path class="cls-8" d="M210,26a1.51,1.51,0,0,1-2.27.05Z"/><path class="cls-12" d="M213.9,25.49l-2.06,0A1.18,1.18,0,0,1,213.9,25.49Z"/><path class="cls-8" d="M178,27.51l.45-1.26h.06Z"/><path class="cls-12" d="M38,184.11c1.63-1.27,2.75-.3,4.33.48,4.3,2.11,8.52,6.19,13.75,1.64,1-.88,1.46.89,2.29,1.2C51,193.51,42.41,192.1,38,184.11Z"/><path class="cls-8" d="M138,176.19l-2.18,3.06a2.47,2.47,0,0,0-3.41-.23,4.37,4.37,0,0,1-5.34-.07c-.06-1.13-.11-2.27-.16-3.4,2.47-1.57,5.31-1.36,8-1.67l3.12.63H138C137.55,175.07,137.21,175.63,138,176.19Z"/><path class="cls-12" d="M70.15,185.18c1.87-2.83,3.3-6.36,7.88-3.61,2.56,1.54,2.12,4.2,3,6.38a6.42,6.42,0,0,1-5.44-1.83C73.91,184.3,72.07,184.82,70.15,185.18Z"/><path class="cls-14" d="M126.89,175.55c0,1.13.1,2.27.16,3.4-3-.26-5.22,2.58-8.29,1.89l3-6v-.38Z"/><path class="cls-12" d="M65.33,187.27c-.22-1.48-.47-3.16,1.29-3.73s2.09,1,2.56,2.24C68.22,187.11,66.68,187,65.33,187.27Z"/><path class="cls-4" d="M141,181.05c1.63-1.58,2.29-.43,2.84,1C142.77,182,141.68,182.05,141,181.05Z"/><path class="cls-4" d="M145,182.52c1.06-.57,2.07-.73,3,.28C146.82,184.58,145.94,183.38,145,182.52Z"/><path class="cls-12" d="M81.05,188l1.61-.17C82.25,189,81.7,189,81.05,188Z"/><path class="cls-4" d="M138,181c.26-.47.48-.56.64.06Z"/><path class="cls-4" d="M150,182.93a3.58,3.58,0,0,1,1,.09C150.55,183.55,150.23,183.47,150,182.93Z"/><path class="cls-8" d="M316.73,26.44c-4.88,1.68-9.9.93-14.88.91-2.48-3.57-6.09-1.13-9.13-1.71l-6-1c.38-1.54,2.28-1.5,3.54-3.56-6.2-.32-11.65-3.94-17.49-.45-1.73,1-3.4.88-5.17.85,1.54-5.34,5.55-6.27,10.54-6.93,7.94-1,14,1.74,19.37,7a7.81,7.81,0,0,0,2.2,1c1.4,1.47,3.57.61,5.11,1.62,5.34,3.51,10.44-1.46,15.77-.47,1.11.2,1.12-1.76,1.17-2.91,3.54-.43,6.56-2.68,10.43-2.3,4.16.41,6.89,1.78,7.43,6.18-4.33,1.29-8.79.57-13.19.87C323.22,25.8,319.83,24.65,316.73,26.44Z"/><path class="cls-12" d="M321.8,20.83c-.05,1.15-.06,3.11-1.17,2.91-5.33-1-10.43,4-15.77.47-1.54-1-3.71-.15-5.11-1.62-.16-5,4.65-7.41,6.09-11.69.55-1.64,3.8-1.91,5.31-.37,2.58,2.64,5.58,2.14,8.63,2.13,1.65,0,3.56-.23,4.22,1.76,1.08,3.23-1.92.94-2.61,1.79C320.06,17.86,321.28,19.32,321.8,20.83Z"/><path class="cls-10" d="M316.73,26.44c3.1-1.79,6.49-.64,9.74-.86,4.4-.3,8.86.42,13.19-.87l5,.66c3.65,4.12,7.26-3.68,10.9,0,.66-4.4,4.63-2.45,7-3.63,1.89,1.08,2.3,3.11,3.16,4.84-.56,1.24-1.78,1.18-2.83,1.47-4.76-.39-9.35-.47-13.43,2.84-2.72,2.21-13.14,1.36-15.93-1.23-2-1.88-3.7-2.18-6.19-1C323.36,30.51,320.31,27,316.73,26.44Z"/><path class="cls-10" d="M267.64,21.47c1.77,0,3.44.19,5.17-.85,5.84-3.49,11.29.13,17.49.45-1.26,2.06-3.16,2-3.54,3.56a3.23,3.23,0,0,1-3.67.88c-5.26-2.48-10.93-.6-16.29-1.81-2.16-.48-4.36.5-6.56.59-3,.13-3.19-1-3.41-3l2-1.71,3-.07c.66,1.39,1.88,1.06,3,1Z"/><path class="cls-8" d="M362.52,21.72c-2.33,1.18-6.3-.77-7,3.63-3.64-3.66-7.25,4.14-10.9,0,2.22-1,2-3.55,3.43-5.13,4.59-5,6.61-5.31,13.47-1.51Z"/><path class="cls-8" d="M337.43,16.68c-3.08-.21-4.7-1.82-4.64-5,0-1.48-.07-3.35,2.13-2.92,3.3.65,4.62,3.58,5.4,6.31C340.84,16.87,338.68,16.49,337.43,16.68Z"/><path class="cls-8" d="M252.81,13.64c-.13,1.4-1.3,1.65-2.27,2.28-2.07,1.34-4,2.34-6.37.73a2,2,0,0,1-.89-2.55c.92-2.54,2.85-3.48,5.43-3.34l2.09.85a8.22,8.22,0,0,0,1,.06c0,.33,0,.65,0,1a2.16,2.16,0,0,0-.33.26,4.75,4.75,0,0,0,.42.58Z"/><path class="cls-12" d="M264.85,20.46c-1.14.09-2.36.42-3-1C263.36,18.2,264.32,18.64,264.85,20.46Z"/><path class="cls-12" d="M251.9,13.49a4.75,4.75,0,0,1-.42-.58,2.16,2.16,0,0,1,.33-.26Q251.87,13.07,251.9,13.49Z"/><path class="cls-12" d="M251.79,11.67a8.22,8.22,0,0,1-1-.06C251.16,11.12,251.49,11.11,251.79,11.67Z"/><path class="cls-13" d="M444.59,31.52c.48.92,1.16,1.85,2.18,1.84,3.75,0,5.85,1.07,4.35,5.27-.32.91.39,1.44.85,2.13,2.57,3.91.35,8.56-4.36,8.37-2.4-.09-3.29.6-4,2.41h-2.05c.82-1.72.14-3.78,2.58-6.22a25.8,25.8,0,0,0-9.49,5c-1.8,1.51-3.66,1.74-6.47,1.28-5-.82-10.64-2.77-15.55,1-1.82-.23-2.76-2.58-4.91-2-3-.59-6.26-1.93-7,2.87l-5.08.06-.42-1.17c-.12.39-.25.79-.38,1.18a8.22,8.22,0,0,1-5.23-1l-1-.65.32.67c-3.45,3.3-6.13-.31-9.13-1,.19-1.47.31-3,.58-4.4.41-2.2-.91-3.23-2.39-2-3.41,2.79-5.17,2.18-6.35-1.88-.15-.53-1.24-.8-2-1.23,1.76-2.25,5.81-2.69,4.47-6.92-.43-1.35,1.54-1.73,2.58-1.43,3.41,1,6.67,2.67,10.43,1.46.34-.11,1.27,1,1.62,1.65,1,2,2.27,3.51,4.65,2.28,1.69-.87,4.53-.86,3.62-4.24-.61-2.27,1.52-2.45,2.85-2.38,3.72.21,7.72,2.2,10.48-2.18a2.4,2.4,0,0,1,1.18.53c3.34,3.46,5.76.93,8.25-1.22h1.79a17,17,0,0,0,1.56,3.59c1.15,1.58,2.16,1.35,2.5-.68.41-1.6.82-3.19,1.22-4.79l1.75-.08,2.1-.19c-.34,1.42.55,2.77-.12,4.33a1.59,1.59,0,0,0,2.3,2.1C436.22,29.72,440.85,33,444.59,31.52Zm-67.51,9.87.67-.38c-.1-.1-.2-.28-.3-.28a4.5,4.5,0,0,0-.8.15Z"/><path class="cls-11" d="M419.73,29.55c-2.5,2.15-4.92,4.68-8.26,1.22a2.4,2.4,0,0,0-1.18-.53c-2.76,4.38-6.76,2.39-10.48,2.18-1.33-.07-3.46.11-2.85,2.38.91,3.38-1.93,3.37-3.62,4.24-2.38,1.23-3.64-.3-4.65-2.28-.35-.68-1.28-1.76-1.62-1.65-3.76,1.21-7-.47-10.43-1.46-1-.3-3,.08-2.58,1.43,1.34,4.23-2.71,4.67-4.47,6.92.73.43,1.82.7,2,1.23,1.18,4.06,2.94,4.67,6.35,1.88,1.48-1.21,2.8-.18,2.39,2-.27,1.45-.39,2.93-.58,4.4-3.76,5.17-9.28,2.22-14,3l-1.1,0-1.92,0c-1.87-4.06-3.36-8.31-6-12h0v-1c-.18-1.33,1.6-2.63,0-4A52.84,52.84,0,0,1,362.85,28c1-.29,2.27-.23,2.83-1.47l4-1c5.72,2.94,10.8.25,16-1.78C392,27,399.37,26.6,405.9,26.62,411.13,26.65,415.5,26.54,419.73,29.55Z"/><path class="cls-16" d="M283,37.42c3.81,3,8.48-.17,12.65,1.83,1.89.92,2.28,1.34,2.27,3.29,0,5,1.47,5.67,6,4.15,2.54-.85,5.39-.88,7.83-2.25-.18,3-1.83,4.29-4.37,5.94-2.85,1.85-5.86.6-8.48,2-1.67.91-3.26,1.71-3.17,4l-2.79,0c-.57-1.88-1.55-2.4-3.13-.94-3.8.19-8.16-1.54-11.19-.46-6.21,2.23-11.91,1.44-17.88.3,0-3.46,3.93-3.41,5.15-5.78h0l1-1c2.7-.62,6.08-.08,6.93-3.94C278.22,46,281.66,43.29,283,37.42Z"/><path class="cls-15" d="M292.87,56.38l2.79,0c11.39.21,22.79,0,34.14,1.11,1.65.16,3.36-.15,4.64,1.27-7.78.95-15.6.41-23.39.44-22.11.06-44.22,0-66.33-.08a37.37,37.37,0,0,1-3.93-.4c.4-1,.79-2,1.19-3,4.94-.74,10.08,1,14.89-1.26l3.8.85c6,1.14,11.67,1.93,17.88-.3,3-1.08,7.39.65,11.19.46C290.55,56.54,291.7,56.49,292.87,56.38Z"/><path class="cls-16" d="M356.72,37.54c1.56,1.34-.22,2.64,0,4l-1.15.52,1.16.49h0a3.81,3.81,0,0,1-.7.69C351.3,46,345.54,45,340.65,48.12c-2.46,1.56-4.67,2.18-4.94,5.33-.75,1.07-1.89,1-3,1,.72-2.67-5.44-1.6-2.92-4.08,4.48-4.4,2.82-7.89-.09-11.77,3.31-1.5,5.86-4.61,10.09.09,2.06,2.29,8,2.08,12.29.56C353.63,38.7,355.17,38.11,356.72,37.54Z"/><path class="cls-9" d="M335.71,53.45c.27-3.15,2.48-3.77,4.94-5.33C345.54,45,351.3,46,356,43.21a3.81,3.81,0,0,0,.7-.69c2.66,3.66,4.15,7.91,6,12C353.6,57.12,344.63,56.11,335.71,53.45Z"/><path class="cls-9" d="M329.69,38.6c2.91,3.88,4.57,7.37.09,11.77-2.52,2.48,3.64,1.41,2.92,4.08-1-.15-2.25,0-2.84-.52-4.12-3.86-9-3.18-13.92-2.68-.37,0-.8-.5-1.2-.76,0-1,0-2,0-3,0-.66,0-1.32,0-2l1,0a4,4,0,0,1,3.24-.4c3.43,1.19,3.86-.92,3.74-3.54a1.94,1.94,0,0,0,2-2A7.8,7.8,0,0,1,329.69,38.6Z"/><path class="cls-9" d="M412.59,52.61c4.91-3.8,10.53-1.85,15.55-1,2.81.46,4.67.23,6.47-1.28a25.8,25.8,0,0,1,9.49-5c-2.44,2.44-1.76,4.5-2.58,6.22-6.7,4.11-13.95,2.2-21,1.58a8.79,8.79,0,0,0-4.54.64C414.46,54.43,413.13,54.75,412.59,52.61Z"/><path class="cls-16" d="M324.7,39.49a1.94,1.94,0,0,1-2,2c-3.48,2.35-7.21,2.11-11,1,.08-1,0-2.65,1-2.44C316.8,41,320.62,37.7,324.7,39.49Z"/><path class="cls-9" d="M400.64,53.48c.78-4.8,4.06-3.46,7-2.87C406.41,54.19,403.36,53.44,400.64,53.48Z"/><path class="cls-12" d="M482.32,58.78a7.81,7.81,0,0,1-6.47,0A16,16,0,0,1,482.32,58.78Z"/><path class="cls-12" d="M498.24,58.76a7.21,7.21,0,0,1-6.42,0A16.51,16.51,0,0,1,498.24,58.76Z"/><path class="cls-16" d="M314.72,47.49c0,1,0,2,0,3C311.71,49.51,313.3,48.5,314.72,47.49Z"/><path class="cls-10" d="M390.54,59.08a7.91,7.91,0,0,1-4.79,0A4.23,4.23,0,0,1,390.54,59.08Z"/><path class="cls-12" d="M504.24,58.74a2.7,2.7,0,0,1-3.51.07Z"/><path class="cls-10" d="M378.53,59l-2.78.24A1.85,1.85,0,0,1,378.53,59Z"/><path class="cls-9" d="M394.76,53.55c.13-.39.26-.79.38-1.18l.42,1.17Z"/><path class="cls-9" d="M388.85,52.55l-.32-.67,1,.65Z"/><path class="cls-10" d="M399.65,59l-1.94,0A1.21,1.21,0,0,1,399.65,59Z"/><path class="cls-8" d="M363.76,59l-2.12,0A1.55,1.55,0,0,1,363.76,59Z"/><path class="cls-12" d="M485.35,58.75l-.32.32-.33-.32A.46.46,0,0,1,485.35,58.75Z"/><path class="cls-12" d="M472.34,58.85l-.3.29-.28-.31A.37.37,0,0,1,472.34,58.85Z"/><path class="cls-10" d="M383.6,59.07l-.44.16-.43-.16C383,58.63,383.31,58.64,383.6,59.07Z"/><path class="cls-8" d="M353.74,59l-1.09,0Z"/><path class="cls-15" d="M338.49,58.78l-.28.18-.27-.19A.34.34,0,0,1,338.49,58.78Z"/><path class="cls-9" d="M364.63,54.54l1.1,0C365.35,55,365,55,364.63,54.54Z"/><polygon class="cls-15" points="342.49 58.85 342.21 59.02 341.94 58.84 342.22 58.67 342.49 58.85"/><path class="cls-16" d="M315.75,45.47l-1,0C315.06,45,315.4,45,315.75,45.47Z"/><path class="cls-12" d="M512.28,58.7,512,59l-.27-.28A.33.33,0,0,1,512.28,58.7Z"/><path class="cls-13" d="M121.76,174.82l-1.74-.09c-.16-1.63-.73-4.28-2.44-3.08-3.41,2.4-5.8.16-8.59-.6-3.56-3-8.87-4.6-8.33-10.93.13-1.6-1.87-2-3.46-2s-1.51.91-1.73,2.23c-.44,2.64-1,2.63-3.21,1.33-.5-.29-1.49.25-2.25.41L89,162l-.88-1c-1.43-2.15-1.09-4.58-1.1-7a7.94,7.94,0,0,1,3.71-2.1c5.48-1.4,11-.51,16.51-.86,4.31-.27,9.34-1.78,11.86,3.83.39,5.4,3.58,7.59,8.7,7.74.13-4.89-3-6.66-6.91-7.66,2.6-6.17,3.82-6.61,8-2.91.3.75.39,1.9.93,2.19,6.12,3.18,4.64,8.56,4.15,13.68v0c-2.8.21-4.18,4.26-7.23,3.13-3.54-1.31-4.08,1-5,3.23Z"/><path class="cls-10" d="M107,181c-4,3.21-8.55-.41-12.75.84-.74.22-2,.4-2.34,0-2.45-2.63-5.94,4.53-7.12-.37-.57-2.36-2.59-4.59-1.81-7.34.08-.25-.6-.72-.93-1.08,1.91-3.33,4.54-1.07,6.46-.41A45.29,45.29,0,0,0,97,174.31a24.33,24.33,0,0,1,10.91-1.09c1.29,1.48,2.45,3,2.25,5.14-.69,1.54-1.05,3.36-3.17,3.67L107,182c0-.32,0-.64.05-1l.18-.4Z"/><path class="cls-15" d="M39.08,167.09c0-2,.76-3.27,2.93-2.93,1.71.27,3.71.25,3.53,3-.21,3.17,1.55,3.07,3.83,2,2.49-1.13,5.2-3.85,7.1.91.47,1.18,2.31.36,2.43-.23.26-1.34.42-2.72,2-2.34s.94,2.19,1.17,3.39c-3.62,2,.59,5.25-1.31,7.58-2.12-.3-5.42-2.63-4.74,2.5-2.81-.88-3.55-3.66-4.91-5.71C50.07,173.7,49,172,47.2,172.06c-3.25.1-6.14-1.21-9.23-1.63Z"/><path class="cls-10" d="M56.05,181c-.68-5.13,2.62-2.8,4.74-2.5,1.9-2.33-2.31-5.6,1.31-7.58l3.95.16,1.83,1.07c.16,1.44.36,3.06,2.24,2.94,1.26-.08.73-1.44.84-2.29l3-.18c1.26,1.17,2.62.6,4,.25l2.27,1.84c-2.26,1.82-5.11,1.18-7.53,2.12-1.21.47-3,.44-3.4,1.65-1.78,4.69-6.86,2.93-9.92,5.24C57.72,184.93,55.89,183.47,56.05,181Z"/><path class="cls-15" d="M97,174.31a45.29,45.29,0,0,1-8.54-1.69c-1.92-.66-4.55-2.92-6.46.41a2.29,2.29,0,0,1-2.17-2c1.2-.72,4-.39,2.09-3.15.56-1.39-.64-4.67,3-2.76,1.39,2.69,3.64,2.61,6.09,1.9l1-1h1C97.42,167.32,97.16,170.84,97,174.31Z"/><path class="cls-7" d="M39.08,167.09,38,170.43c-3,4.37-7.47,3.92-11.9,3.59-1.76-2,.93-3.21.94-4.9,3-.38,5.62-5.76,9.17-.75C36.3,168.54,38.08,167.54,39.08,167.09Z"/><path class="cls-7" d="M110.18,178.36c.2-2.12-1-3.66-2.25-5.14l1.06-2.17c2.79.76,5.18,3,8.59.6,1.71-1.2,2.28,1.45,2.44,3.08-1.74,2.63-5.86.86-7.36,3.94l-.54.13Z"/><path class="cls-10" d="M81.94,167.9c1.9,2.77-.89,2.44-2.09,3.16a2.79,2.79,0,0,1-.7.13L79,171A3.29,3.29,0,0,1,81.94,167.9Z"/><path class="cls-15" d="M77.88,172.9c-1.35.35-2.71.92-4-.25.78-2.11,2.57-1.57,4.15-1.57q0,.49,0,1A7.79,7.79,0,0,0,77.88,172.9Z"/><path class="cls-15" d="M8.1,172a1.45,1.45,0,0,1-1.67.72c-.1,0-.14-.25-.21-.38l1.92-.29Z"/><path class="cls-10" d="M78.1,172.07q0-.49,0-1A6.86,6.86,0,0,1,79,171l.18.2Z"/><path class="cls-10" d="M112.12,178.8l.54-.13C112.62,179.3,112.47,179.49,112.12,178.8Z"/><path class="cls-10" d="M107,182l-.22.34L107,182Z"/><path class="cls-16" d="M444.59,31.52c-3.74,1.47-8.37-1.8-11.77,2.32a1.59,1.59,0,0,1-2.3-2.1c.67-1.56-.22-2.91.12-4.33,1.19-2.46,4.41-1.65,5.9-3.63a8.45,8.45,0,0,0,7-.83c3.39-1.86,7.22-2.22,8.84,2.73.54,1.62,1.64,1.9,3.05,1.9a245.35,245.35,0,0,1,28.31,1.13c2.9.32,3.93-2,5.87-3-.35,2.21.84,4.88-2.25,6.26-1.08.48-.1,1.7.14,2.57-3.34-1.06-6.2.9-8.52,2.38-5,3.18-9.78-1.11-14.55.47a3,3,0,0,1-2.29-.72c-4.69-4.06-10.83-4.06-16.31-5.88C445.52,30.69,445,31.26,444.59,31.52Z"/><path class="cls-8" d="M412.67,3.6a33.3,33.3,0,0,1,16,11l.91,2c.67,3.32-1.72,4-4.08,4.68-1.85,1.32-3.54,2.67-6.18,1.55A7.22,7.22,0,0,0,414,23c-5.27,2-9.61.41-13.41-3.36-2.38-2.61-5.77-4.33-6.95-8C398,4.28,405.14,3.51,412.67,3.6Z"/><path class="cls-15" d="M400.61,19.63C404.41,23.4,408.75,25,414,23a7.22,7.22,0,0,1,5.32-.18c2.64,1.12,4.33-.23,6.18-1.55,1.31,1.07,1.11,2.6,1.24,4-1,.81-.44,1.6,0,2.38-.4,1.6-.81,3.19-1.22,4.79-1.69-.51-1.85-3.14-4.06-2.91h-1.79c-4.22-3-8.59-2.9-13.82-2.93-6.53,0-13.87.36-20.27-2.85,1.31-1.22,2-2.5,4.54-2.77C393.6,20.64,397.25,20.86,400.61,19.63Z"/><path class="cls-15" d="M436.54,23.78c-1.49,2-4.71,1.17-5.9,3.63l-2.1.19c0-.74,0-1.48,0-2.21.7-.86,2-1.29,1.94-2.71l.17-.17C432.67,22.72,436,17,436.54,23.78Z"/><path class="cls-15" d="M487.39,6.58c.06-.64.13-1.27.19-1.9.38-.61.76-1.21,1.13-1.82,1.67.56,3.75,1,3.34,3.3s-2.34,2.78-4.48,2.35Z"/><path class="cls-16" d="M428.56,25.39c0,.73,0,1.47,0,2.21l-1.75.08c-.47-.78-1-1.57,0-2.38C427.36,25.32,428,25.36,428.56,25.39Z"/><path class="cls-16" d="M495.57,26.66c-.17.69-.29,1.67-1.26,1.28-.74-.29-.31-.94.18-1.35Z"/><path class="cls-15" d="M430.5,22.68l-.37-.31.54.14Z"/><path class="cls-10" d="M21.06,23.36a38.27,38.27,0,0,0-.49-3.89c-.37-1.59,0-3,1.71-2.71,5.6.85,12.84-4,16.34,4.55a1.56,1.56,0,0,0,2.52.55c2.66-2.24,5.32-.78,8-.19-.33,3.13-4.76,4.09-4.12,7.74C37.05,27.31,29.63,23.07,21.06,23.36Z"/><path class="cls-16" d="M48.08,40.62q-.55-5-1.1-10L52,28.56c.08,1.76-2.13,3.84.19,5.2,2,1.15,2-1.27,2.83-2.24.33,0,.66,0,1,0,.62,1.35,2,2.3,2,4a7.12,7.12,0,0,0-1,4C54,39.1,51.06,40.2,48.08,40.62Z"/><path class="cls-13" d="M48.08,40.62c3-.42,5.88-1.52,9-1l1,2,0,1.91c-4.33-1.1-7.52-.64-6.93,5-1.75.16-3.49-.18-5.12,1.13-2.13,1.73-4.25,1.23-5.88-1C43.35,46.57,47.06,45,48.08,40.62Z"/><path class="cls-15" d="M52,28.56,47,30.63a2.29,2.29,0,0,1-2-1.22c-.64-3.65,3.79-4.61,4.12-7.74l2.9-.05a7.13,7.13,0,0,1,.07,5.76Z"/><path class="cls-15" d="M29.06,46.45c0,.36,0,.72,0,1.07-2.59.18-4.23-2.81-7-2.08-.79-1-1.93-.89-3-.91C22.83,41.3,25.69,41.85,29.06,46.45Z"/><path class="cls-7" d="M128.91,152.17c-4.19-3.7-5.41-3.26-8,2.91l-1.79-.08c-2.52-5.61-7.55-4.1-11.86-3.83-5.49.35-11-.54-16.51.86a7.94,7.94,0,0,0-3.71,2.1l-.89,0L81.07,150c-2.57-4.87-7.61-4.75-12-5.9-6.09-1-12.17-1.83-18,1-3-.19-5.78-1.91-9.15-.32-3.07,1.45-7.83-1.37-8.84-4.4l1-.46,39.17.56.32.29.33-.28,3.4,0a13.86,13.86,0,0,0,2.85.62q27.68.06,55.35,0c1.16,0,2.34.11,3.32-.71l8.28-.47h1.78l70.29.39c1.32,0,2.65.07,4,.1a65.3,65.3,0,0,0,19.54.12l2.37-.06a3.16,3.16,0,0,0,3.65.05l8.36-.05a114.11,114.11,0,0,0,27.64,0l2.26.08c.61.7,1.18.59,1.73-.07l3.25,0,.74,0,2.33,0c1.12,1,2.54.57,3.83.79-1.72,1.47-3.79.89-5.71.9-10.13.05-20.24.17-30.24,2-1.89,2.07-5.71-.32-7,3-2.33-2.89-5.33-2.83-8.52-1.93-1.26.36-.21,2.87-2.84,2.39-3-.54-2.54,1.7-1.54,3.51s2.87,2.6,4.9,2.91c1.28.72,2.87,1.13,3,3a4.93,4.93,0,0,1-1.23.81c-3.7,1-7-.24-10.07-2.09-2.31,5.71-5.67,1.2-8.72,1.23-2.52,0-6.05-1.24-8,2.06a3.63,3.63,0,0,1-4.22,1.85c-2.08-.42-1.63-2.18-1.77-3.59-.17-1.75-1.28-3.52.07-5.24.8-.77,3-.66,2-2.56-2.28-4.22-8.3-6.34-13.24-4.53a8.77,8.77,0,0,1-3.83.14c-3.78-.83-8,0-11.3-2.74-.7-.57-1.42-.81-2.17-.05-4.4,4.52-9.93,2.4-15,2.38-1.81,0-4.35-.54-5,.72-2.62,4.81-5.85,2.37-9.23,1.55-2.4-.58-4.34-3-7.15-1.83-3.33-.84-6.66-1.69-9,2-2.28.38-4.18,1.14-4,4C135.51,150.63,131.79,147.41,128.91,152.17ZM225,149.45c-.34-1.44.26-3.32-2-3.8-.23-.05-.75.24-.78.43C221.86,148.14,223.54,148.68,225,149.45Zm4.84.24c1,.56,1.84.66,2.54-.46C231.32,148.5,230.57,149,229.81,149.69Z"/><path class="cls-13" d="M81.07,150l5.07,4.06c-2.77,3.59-5.65,5.17-9.34,1-1.59-1.81-2.83-.36-3.85,1a7.23,7.23,0,0,0-.93,0l-1,1a10.16,10.16,0,0,0-8.2,2.65c-3.89,3.68-9.07,4-13.89,4.15-5.86.21-3.36-4.78-3.77-7.76-.22-1.67,1.71-4.2-2-4l-.07-.06c1.29-3.88,5.59-4.35,8-7,5.87-2.81,11.95-2,18-1C71.84,149.51,76.28,151.69,81.07,150Z"/><path class="cls-16" d="M73,156.07c1-1.38,2.26-2.83,3.85-1,3.69,4.21,6.57,2.63,9.34-1l.89,0c0,2.37-.33,4.8,1.1,7-2.52.17-3.2,1.77-3.11,4l-.1.11c-3.62-1.92-2.42,1.36-3,2.75A3.27,3.27,0,0,0,79,171a6.86,6.86,0,0,0-.9.09c-1.58,0-3.37-.54-4.15,1.57l-3,.18c-.87-.94-2-.82-3.08-.65l-1.83-1.07a22.12,22.12,0,0,1,7.15-12.2C74.68,157.63,75.59,156.81,73,156.07Z"/><path class="cls-3" d="M34,139.93l-1,.46-7.93-.11h-1l-3,0-5,0a.38.38,0,0,1,.16-.45A48.15,48.15,0,0,1,34,139.93Z"/><path class="cls-3" d="M1.88,139.32c4-.19,8.06-.68,12.05.37A32.35,32.35,0,0,1,1.88,139.32Z"/><path class="cls-13" d="M43.1,152.14c-.15.91.9,2.14-.23,2.66s-1.92-.53-2-1.53c-.1-1.56,1.31-1,2.15-1.19Z"/><path class="cls-7" d="M16.12,140.19l5,0A3.66,3.66,0,0,1,16.12,140.19Z"/><path class="cls-16" d="M71,157.09l1-1Z"/><path class="cls-7" d="M24.08,140.27h1C24.75,140.71,24.41,140.7,24.08,140.27Z"/><path class="cls-10" d="M400.61,19.63c-3.36,1.23-7,1-10.44,1.37-2.54.27-3.23,1.55-4.54,2.77-5.16,2-10.24,4.72-16,1.78a13,13,0,0,0-.24-2.44c-1.55-5.25.73-8,5-11.27,5.13-3.93,9.19-5.44,14.46-1.25,1.39,1.12,3.1,1,4.75,1.07C394.84,15.3,398.23,17,400.61,19.63Z"/><path class="cls-9" d="M496.48,165c-.09,2.76,1.7,3.19,3.86,3,3.64-.32,5.58,1.08,5.25,4.94-.66,1.4-.85,3.27-3.08,3.12-1.68-3.36-3.81-3.66-6.45-.55-.79-3.13-2.36-6.35-5.19-5.72-3.27.73-3.87-.62-4.14-2.8-.47-3.81-3-4.75-6.19-5l1.14-2.11c.09-.09.26-.21.24-.25a3.22,3.22,0,0,0-.34-.56l.79-1.19c3.19,4.62,8.86,4.64,13.22,7.08h.89Z"/><path class="cls-16" d="M481.51,149.12c4.09-2.18,7.92-5.58,13.1-2.91-.36,1-.18,2.66-2,1.95-2.55-1-2.44.7-1.2,1.48,4.14,2.63-1,2.56-.88,4.16l5,3.3v0c-1.88.44-3.65.89-5.59-.21-2.41-1.37-5-1-7.44.22.52-3.77,5-4.27,6.89-7.87-3.06.51-5.5,1-7.82-.07Z"/><path class="cls-15" d="M502.51,176.09c2.23.15,2.42-1.72,3.08-3.12l5,2.21-1.17,2.89a7.06,7.06,0,0,0-3.63,2.24l-3.17,2.1-5.12-2.58C498.05,177.06,501.88,178.7,502.51,176.09Z"/><path class="cls-16" d="M496.48,165h-.89c-1-2.64.29-5.31-.06-8v0c1.7.06,4.08.27,3.6,2.26S500,164.46,496.48,165Z"/><path class="cls-16" d="M496.55,146.17c1.61-2.92,3.79-2.12,6-.93-.12,1.91-.49,3.43-2.82,1.73A5.05,5.05,0,0,0,496.55,146.17Z"/><path class="cls-7" d="M242,55.69c-.4,1-.79,2-1.19,3l-2.12,0c-.89-1.47-1.84-1.21-2.82-.09l-11.91.31-2.32,0-2.8-.56c1.1-6,6.27-3.54,9.63-4.14,2-.35,4.09,0,6.08-.95C237.79,51.57,239.65,54.38,242,55.69Z"/><path class="cls-15" d="M235.85,58.57c1-1.12,1.93-1.38,2.82.09l-2.83.41A.94.94,0,0,0,235.85,58.57Z"/><path class="cls-15" d="M138.77,140.41c-1,.82-2.16.71-3.32.71q-27.67,0-55.35,0a13.86,13.86,0,0,1-2.85-.62Z"/><path class="cls-15" d="M73.85,140.5l-.33.28-.32-.29A.49.49,0,0,1,73.85,140.5Z"/><path class="cls-10" d="M488.71,2.86c-.37.61-.75,1.21-1.13,1.82C486.26,3,487.2,2.76,488.71,2.86Z"/><path class="cls-7" d="M442.28,141.39c2.3-.74,4.82.37,7.07-.81l2.24-.32,1,.38c6.31,1.1,12.67,0,19,.52-.24,1.31-1.15,1.63-2.35,2-4.21,1.35-9,1-12.67,3.95l-.89-1.41-.53.52,1.42.89c0,3.82,1.56,6.45,5.69,6.92a2.29,2.29,0,0,1,2.34,2c-1.44,3.77-2.21,4.29-4.06,3.63-5.54-2-11-4.73-17.17-3a2.4,2.4,0,0,1-2.72-.53c3.72-2.64,4.42-5.88,2.36-10C442.32,144.81,442.5,143,442.28,141.39Z"/><path class="cls-10" d="M471.59,141.16c-6.32-.53-12.68.58-19-.52l21.92-.63,21.71.4c-7.2,1.52-14.5.05-21.72.76Z"/><path class="cls-3" d="M474.52,140l-21.92.63-1-.38C459.21,138.32,466.86,138.78,474.52,140Z"/><path class="cls-10" d="M507.21,140.59a6.43,6.43,0,0,1-5.39-.09A10.93,10.93,0,0,1,507.21,140.59Z"/><path class="cls-10" d="M511.27,140.53a.88.88,0,0,1-1.5,0Z"/><path class="cls-9" d="M471.59,141.16h2.92c2.9,2.15,2.94,6.81,7,8l.06,0c-5.86,1.8-10.54,6.5-17,6.89a2.29,2.29,0,0,0-2.34-2c-4.13-.47-5.65-3.1-5.69-6.92h0c3.7-3,8.46-2.6,12.67-3.95C470.44,142.79,471.35,142.47,471.59,141.16ZM473,149c-.16-1.21-1-1.58-2-1.73-.65-.1-1.45-.06-1.54.71a1.76,1.76,0,0,0,1.7,2C471.93,150.05,472.8,150.05,473,149Z"/><path class="cls-3" d="M169.31,128.17l-.49-.58a4.75,4.75,0,0,1,.9-.17c.11,0,.23.2.34.31Z"/><path class="cls-15" d="M464.6,156c6.43-.39,11.11-5.09,17-6.89,2.32,1.09,4.76.58,7.82.07-1.93,3.6-6.37,4.1-6.89,7.87a5.23,5.23,0,0,1-.13.87l-.79,1.19c0,.27.06.54.1.81l-1.14,2.11c-2.42,8,6.76,9.1,8.76,14.48.07.19,1,.31,1.36.11,3.84-2.23,4,1,4.84,3.2-5,.15-9.08-2-12.85-5-1.43-4-4.18-3.3-7.1-2l-3.79-.11c.27-5.49-4.33-6.55-7.87-8.52a3,3,0,0,0-1.85,0c-.89,5.47-6.75,2.15-9.1,5.18-1.72,2.21-3.52-.77-5.37-.41l0,0c-4.83-4.1-7.67.56-11.12,2.51l-2.9-.19-1,.1-6,.54-1,0-1.92.07-8.19-1.42c0-1.66-2-3.74-.13-4.83,1.45-.84,3.72-.2,5.26,1.2-1.15.21-2.33.35-3,1.66,1.84.52,2.72-.11,3-1.67,1.86-.19,2-1.53,2-3,7.16,0,12.47-4.25,18-7.91a2.4,2.4,0,0,0,2.72.53c6.19-1.76,11.63,1,17.17,3C462.39,160.33,463.16,159.81,464.6,156Z"/><path class="cls-15" d="M396.65,163.11c.31,0,.62,0,.94,0a3.17,3.17,0,0,0,3,1h0l1,1c1.56,1.72-.51,3.4-.08,5.1-3.11,1.71-6.64,1.69-9.95,1.82-10.15.42-20.32.15-30.47,1a19.19,19.19,0,0,0-7.42,2l-2-1.1c.63-2,1.27-3.95,2.24-7,.88,4.14,2.13,4,3.46,1.52,1.19-2.29,2-4.79,4.28-6.37.16,1.17-.45,2.61.87,3.35,2-.55,0-3.63,2.66-3.56,2.06.06,3.07,1.14,4,2.91,2.39,4.35,5.82,5.1,10,2.2a9.3,9.3,0,0,1,7.54-1.51C390.78,166.59,394.41,168.33,396.65,163.11Z"/><path class="cls-16" d="M401.56,170.16c-.43-1.7,1.64-3.38.08-5.1l-1-1h0c2-1.35,1.68-2.74.08-4.15,3.64-.35,6.77,3.48,10.73,1.22.92-.53,2.39-.41,3-1.43,2.13-3.65,3.66-1.67,5.25.43l3,3.91c0,1.44-.16,2.78-2,3h0c-1.54-1.4-3.81-2-5.26-1.2-1.9,1.09.1,3.17.13,4.83l-1.87.47c-1.91-4.25-3.95-1.9-6-.12C405.61,170.73,403.36,172,401.56,170.16Z"/><path class="cls-15" d="M407.64,171c2-1.78,4.07-4.13,6,.12C411.61,172.14,409.6,172.68,407.64,171Z"/><path class="cls-7" d="M495.5,179.86c-.84-2.23-1-5.43-4.84-3.2-.34.2-1.29.08-1.36-.11-2-5.38-11.18-6.47-8.76-14.48,3.22.2,5.72,1.14,6.19,5,.27,2.18.87,3.53,4.14,2.8,2.83-.63,4.4,2.59,5.19,5.72,2.64-3.11,4.77-2.81,6.45.55-.63,2.61-4.46,1-5,3.74Z"/><path class="cls-10" d="M475.55,172.89c2.92-1.33,5.67-2,7.1,2C478.86,179.29,477.88,173.66,475.55,172.89Z"/><path class="cls-15" d="M447.57,169c-.16.5.06,1.31-.9,1.19a.43.43,0,0,1-.3-.3c-.09-1,.73-.7,1.22-.87Z"/><path class="cls-11" d="M361.7,162.08c-2.24,1.58-3.09,4.08-4.28,6.37-1.33,2.53-2.58,2.62-3.46-1.52-1,3-1.61,5-2.24,7l-2,.44a6.49,6.49,0,0,0-7.72-3.56c-6.17,2.4-11.63-.43-17.34-1a22.25,22.25,0,0,0-10.74,1.48c-3.66,1.38-8.55,1.91-12,.57-2.51-1-4.14-.35-6.44.07.31-1.19.53-2.06.83-3.23-2,.52-4.2,3.09-5.42-.9-.38-1.24-2.9-.93-4.13-.3-5.76,2.93-10.81,1.22-15.66-2-.91-.61-1.67-1.25-2.58-.34-3.36,3.39-5.32,2.09-6.78-1.8-.22-.58-1.3-.84-2-1.25-.29-5.9,4.43-9.73,6.18-14.79l1.83-.06c1,3,2.07,1.44,3.09,0l3.95,1a4.29,4.29,0,0,0,4,2.81c4.13.47,9.07-1.7,12.32,2.89a2.39,2.39,0,0,0,2.33.2c2.85-2.62,6.39-1.58,9.63-2.22,4.9-.95,9.45-2.34,13.91,1.41,1,.84,3.76.43,4.37-1.12,1.27-3.22,3.19-2.52,5.56-1.82,7.39,2.19,10.36.86,14-6a4.16,4.16,0,0,0,3.13-2l5.4-.19,3.21,1.13c.27,3.2,3.82,3.58,5.11,5.91-2.68.9-4.9,3.27-8.09,2.54-1.58-.36-2.12.7-2.34,1.86-.29,1.45,1,1.31,1.89,1.65,2.29.88,4.49,2,6.82,2.72a4,4,0,0,0,3.78-.34c2.47-1.9,2.45-1.93,3,1.46Z"/><path class="cls-8" d="M344.7,177l.88-1Z"/><path class="cls-8" d="M320.61,174.87c.41-.62.79-.72,1.1.07Z"/><path class="cls-10" d="M432.58,171.48l1-.1Z"/><path class="cls-16" d="M196.84,30.65c6.22.86,12.5,1.39,18.71.43,4.13-.64,7.72,1.77,11.79,1.36,1.34-.13,2.63,1.34,2,3.26-.4,1.28.52,1.79,1.45,2.2,1.27.54,1.48-.62,2.2-1.22,4.46-3.74,8.81-7.83,15.39-7.16,2.51.26,4.77-1.07,7.06-1.49,7.27-1.35,14.78-2.21,22.14-1.42,4.36.47,5.42,4.74,5.19,8.87-.79-.17-2-.08-2.29-.55-2.27-3.73-5.13-3.51-8.39-1.53a4.86,4.86,0,0,1-5.14.28c-4.1-2.14-5.83-.2-6.16,3.84-1.94.61-1.66,2.88-3,4-1.21-.09-1.92-.67-1.93-1.94a3.26,3.26,0,0,0,2.15-4.69,2.75,2.75,0,0,0-4.49-1.13c-1.45,1.09-2.86-.12-4.22-.49s-2.95-.11-2.7,1.05c.79,3.8-3.65,4.58-4,7.61-.06.6-8.44,2.48-8.84,2-3.22-3.8-6.1-1.5-8.88.55-2.24,1.64-2.16,1.75-2.93-1-1.26-4.53-6.47-7.8-11.48-7.47-1.86.12-1.53,2-2.65,2.57-3.54-2.79-8.27-2.7-12-5C196.19,32.58,196.52,31.62,196.84,30.65Z"/><path class="cls-13" d="M255.91,39.54c0,1.27.72,1.85,1.93,1.94.31,2.4,2.24,1.91,3.79,2.09s2.52,1.2,1.6,2.67c-2.4,3.8.58,3.09,2.59,3.26-1.22,2.37-5.17,2.32-5.15,5.78l-3.8-.85c.21-2.34,1.79-4.77-3.09-4.83-2.28,0-4.84-3.9-6.63-7.67C251.24,43.84,252.53,38.9,255.91,39.54Z"/><path class="cls-12" d="M218.82,58.29l2.8.56c-1.55,1-3.18.49-4.8.27Z"/><path class="cls-13" d="M207.87,55.47c.61.09,1.28.12,1.4.89,0,.15-.36.53-.51.51-.77-.12-.8-.79-.9-1.39Z"/><path class="cls-13" d="M204,59.64l-.37-.27.45.2Z"/><path class="cls-7" d="M196.84,30.65c-.32,1-.65,1.93-1,2.9l-1.88.11a3,3,0,0,0-2.13,2.85c-1.39.2-1.78,1.17-2,2.39-.53,2.41-2,2.87-4,1.55-6.59-4.41-11.21-1-14,5-1.57-2.07-5.8-1.93-5-6h3c2.95-3.16.56-5.45-1.85-6.47-2.83-1.19-5.7-2.69-9.36-1.82-3.14.74-7,1.58-9.74-1.66-2-3.25-5.25-1.69-8-2-.86-1.07-1.74-1-2.85-.25-2.64,1.8-1.81-.72-2.14-1.78a8.84,8.84,0,0,1,6.46-1.12c3.85.74,7.76,1.71,11.76.87,3.36,0,7.06-1.2,9.19,2.81.23.43,1,.7,1.15.15,1.15-4.74,4.28-1.05,6.41-1.55,1.46,5.73,4.52.79,6.81,1,.93,3.91,5.23,5.44,10.1,3.1A9.6,9.6,0,0,1,196.84,30.65Z"/><path class="cls-16" d="M166.9,39.52c-.81,4,3.42,3.91,5,6l-1,4-2.86,1c-2.47,2.18-4.19,0-6.09-1.05C164.81,46.77,163.74,42.09,166.9,39.52Z"/><path class="cls-9" d="M191.86,36.51A3,3,0,0,1,194,33.66C194.87,35.79,193.7,36.4,191.86,36.51Z"/><path class="cls-13" d="M141,27.6c2.78.27,6-1.29,8,2-1.7,1.43-5.93.56-5,4.17.82,3.26,4,4.11,7.31,3.79a5.1,5.1,0,0,0,1.48-.14c2.5-1.09,3.18.48,3.77,2.4,1.66,5.42.36,7-4.92,6-.28-.06-.61.17-1.27.38.67,1.5,3.21,3.48-.42,4.4-1.71-2.71-3.66-4.52-6.81-1.8-1.27.5-1,1.09-.1,1.71,0,.32.05.65.06,1,0,1-.09,2-.14,3.05l-3,1.11c-.81-3.17-3.48-2.25-5.27-1.88a63.85,63.85,0,0,1-8.79,1,7.5,7.5,0,0,1-.93-.15l-1-1h0c-3.42-5.16-7-5.48-10.94-1a10.23,10.23,0,0,1-7.07,2l-2.87,0c-3.7-2.88-5-2.42-8.29,2.91l-2.53-.05-1.31-.79-1.83-.14c-.62-2.26-5.61-.84-4.13-4.87,1.7-.36,3,2.51,4.39,1.1,1.71-1.77-.52-2.63-1.69-3.7-1-.86-.37-1.81.53-2.44,2.51-1.76,4.84-4.35,8.23-1.35.92.83,2.65,1.89,3.5.59,1.83-2.77,5.13-3.68,7-6.21,2.13.08,4.26.06,6.38.27,1.29.12,3,.84,3-1.12,0-1.49-1.66-2-3-1.67-2.3.54-4.41,1.15-4.28-2.42l2-.95c2.29-1.06,3.36-4.91,6.94-3,.59.53,1.22,1.55,1.74,1.5,5.22-.51,10.39.82,15.71-.28C138.42,31.19,140.15,30.4,141,27.6Zm11.1,15.47c.95.52,1.85.86,2.59-.31C153.74,42.53,152.84,42.2,152.05,43.07Z"/><path class="cls-16" d="M111,33.6l-2,.95c-1.07.61-1.59,2.06-3.1,2-2-.07-3.11-1.78-4.82-2.4s-5-.94-4.94.18c.12,4.74-4.33,2.61-5.21,3.86-2.33,3.3-4.47-2.52-6.11.46a16,16,0,0,0-2.93-.1c-1.16.16-3.39-2.39-3.2.23.15,2.08-2.44,5.93,2.25,6.72,1.51,1.6,1,2.55-1,3l-2,0c-.86-3.14-2-6-6-6,1.53-3.17-2.5-5.75-1-8.91,2.22-2,5.93-1.94,7.13-5.27l1.87-.07c-.67,3.57,0,5.72,4.47,5.19a26.75,26.75,0,0,0,4.5-.89c1.48-.29,1.33,3.31,3.37,1.48,2.31-2.07,5.74-2.15,7.81-4.57,2.81.81,4-1.74,5.8-2.87l-.05,0a2.69,2.69,0,0,0,2,2.8c.09,2.06.37,4,3,4.16Z"/><path class="cls-9" d="M80,48.52c2-.47,2.49-1.42,1-3-1-3.57,4.82-3.31,3.88-6.85,1.64-3,3.78,2.84,6.11-.46.88-1.25,5.33.88,5.21-3.86,0-1.12,3.16-.82,4.94-.18s2.86,2.33,4.82,2.4l1,2.94c-1.92,2.53-5.22,3.44-7,6.21-.85,1.3-2.58.24-3.5-.59-3.39-3-5.72-.41-8.23,1.35-.9.63-1.48,1.58-.53,2.44,1.17,1.07,3.4,1.93,1.69,3.7C88,54,86.68,51.14,85,51.5,82.8,51.39,80.66,51.22,80,48.52Z"/><path class="cls-9" d="M72,42.51c4,0,5.14,2.85,6,6-1.13,2.64-4.73,3.12-5.42,6.15-3-1.15-6.7.79-9.26-2.32-.84-1-1.25-2.6-3.36-2.33-5.11.67-1.29-1.8-.95-3.12-2.5-.94-3.08.93-3.8,2.56a17.23,17.23,0,0,1-1.15,2.71c-1.13,1.68-3,1.94-4.25.68-1.56-1.62.46-2,1.52-2.62,1.31-.77,1.15-1.41-.32-1.75-.59-5.65,2.6-6.11,6.93-5,3.21.81,1.69-1.74,2.09-2.92h0l2,0c3.28.23,5.47,1.24,4.1,5.19-.31.88-1.21,2.37.76,2.64,1.44.19,2-.79,2.08-2.11C69.05,44.21,69.75,42.74,72,42.51Z"/><path class="cls-15" d="M89.11,56.37l1.83.14,1.31.79,2.53.05c2.75-1,6.29.22,8.29-2.91l2.87,0c1,3.44,3.9,2.74,6.43,3.06,1.92.24,4.4-1.18,5.59,1.62-12,.28-23.93.5-35.88-.18C83.6,55.88,87.36,58.85,89.11,56.37Z"/><path class="cls-9" d="M22.1,45.44c2.75-.73,4.39,2.26,7,2.08.23.24.46.47.68.71,1,1.06,4.05,1.29,2.74,3.25-1.59,2.38-2.74,0-4-1.27C26.65,48.31,22.88,48.88,22.1,45.44Z"/><path class="cls-15" d="M80,59a14.84,14.84,0,0,1-6.76-.2L75,56.5c.31,0,.62,0,.93.08C76,59.58,79.68,56.39,80,59Z"/><path class="cls-9" d="M75.91,56.58c-.31,0-.62-.07-.93-.08l1.12-.67Z"/><path class="cls-3" d="M56,58.93a1.16,1.16,0,0,1-1.77.1Z"/><path class="cls-3" d="M62.94,59.08l-.36.22-.38-.14A.48.48,0,0,1,62.94,59.08Z"/><path class="cls-9" d="M149.91,50.52c3.63-.92,1.09-2.9.42-4.4.66-.21,1-.44,1.27-.38,5.28,1,6.58-.54,4.92-6-.59-1.92-1.27-3.49-3.77-2.4a5.1,5.1,0,0,1-1.48.14c-3.29.32-6.49-.53-7.31-3.79-.91-3.61,3.32-2.74,5-4.17,2.77,3.24,6.6,2.4,9.74,1.66,3.66-.87,6.53.63,9.36,1.82,2.41,1,4.8,3.31,1.85,6.47-.18-.77-.33-1.59-1.29-1.71-1.26-.16-1.53.77-1.74,1.72h0c-3.16,2.57-2.09,7.25-5,9.95-2.78.12-3.61,3.05-6.13,4.05C151.86,55.08,150.62,54,149.91,50.52Z"/><path class="cls-9" d="M113,52.51c3.95-4.5,7.52-4.18,10.94,1C120.38,52.29,116.43,55.41,113,52.51Z"/><path class="cls-9" d="M125.87,54.64a63.85,63.85,0,0,0,8.79-1c1.79-.37,4.46-1.29,5.27,1.88C135.16,56.49,130.34,58.19,125.87,54.64Z"/><path class="cls-9" d="M142.92,54.45c.05-1,.1-2,.14-3.05,1,.22,2.54-.15,2.4,1.46C145.35,54.12,144.06,54.37,142.92,54.45Z"/><path class="cls-9" d="M143,50.43c-.91-.62-1.17-1.21.1-1.71C143.07,49.29,143,49.86,143,50.43Z"/><path class="cls-9" d="M124,53.49l1,1Z"/><path class="cls-3" d="M126,59.68h0Z"/><path class="cls-3" d="M123,59.7c-.38.4-.7.33-1-.11Z"/><path class="cls-16" d="M201.89,145.14a8.77,8.77,0,0,0,3.83-.14c4.94-1.81,11,.31,13.24,4.53,1,1.9-1.23,1.79-2,2.56-2.85-.68-3.49,3.09-6.05,3-2.35-.59-4.69-1.71-7,0-3.35,4.72-7.28,8.05-13.66,8.15a39.41,39.41,0,0,0-12.69,2.48c-2.24.83-5.11-2.08-6.58,1.35h0l-4.45-2.76c-.57,3.43-1.26,6.68-4.34,1.73-.56-.9-1.69-1-2.72-.88l-1.47.12c2.7-5.69-5.33-3.73-5.59-7.86-.17-2.57-2.7-3.79-5.21-1.52-1.85,1.67-2.95.29-4.19-.8-.5-2.66,5.62-5.31,0-8,2.36-3.64,5.69-2.79,9-2a30.82,30.82,0,0,0,.13,4.41c.32,2,1.85,3.18,3.5,1.94,2.52-1.88,4.28-.35,6.3.58l2,2c-.63,1.83-4.63,2.89-2.23,5,1.31,1.17,4.06,3.39,6.9,1.28,6.22-4.63,13.36-5.94,20.94-5.31,3.16.26,6.3-.13,8-2.87,1.5-2.45,3.18-3.39,6.1-2.52Z"/><path class="cls-10" d="M181.81,176.94l-2,2a6.48,6.48,0,0,1-4.6-1.08,3.65,3.65,0,0,0-5.15.62c-.7.76-1.24,1.78-2.21,1.11-1.15-.78-2.39-1.93-.91-3.55l.38.17-.34-.22c-3.5-3.4-8.13-1.76-12.18-2.7-3.33-1.07-6.23,2.24-9.58.94,2.11-2.71,9.78-5.85,12.25-4.68,7.57,3.57,15.46,3.9,23.57,2.73.9-.13,1.9.44,2.85.69l-1,1.91A2.18,2.18,0,0,0,181.81,176.94Z"/><path class="cls-16" d="M265.9,147.24c-1.75,5-6.47,8.88-6.18,14.78-.84.25-2.61,1.15-2.33,0,1.67-7.08-3.68-4.27-6.57-4.93-.15-1.86-1.74-2.27-3-3,.86-1.68,2.4-1.91,4.08-2,3-.21,4.27-1.89,3.92-4.85,1.33-3.35,5.15-1,7-3Z"/><path class="cls-16" d="M128.91,152.17c2.88-4.76,6.6-1.54,10-1.06l1,4c-1.3.4-2.27.68-.52,2.07,2.17,1.71,3.8,3.88,3.53,6.92-2.34.34-5,.08-6.05,3L134,168c.5-5.12,2-10.5-4.14-13.68C129.3,154.07,129.21,152.92,128.91,152.17Z"/><path class="cls-7" d="M121.76,174.44c.92-2.21,1.46-4.54,5-3.23,3,1.13,4.43-2.92,7.23-3.13,1.56,1.73-.58,4.06.94,5.8-2.73.31-5.57.1-8,1.67Z"/><path class="cls-8" d="M202.86,172.64a5,5,0,0,1-4.7,4.81c-3.44.38-4.64-2.27-5.43-5.06C196.12,171.86,199.51,171.39,202.86,172.64Z"/><path class="cls-7" d="M136.92,167.05c1.06-2.91,3.71-2.65,6.05-3,1.78,1.57,3,3.64,1.35,5.61-1.86,2.26-3.81.33-5.59-.81a12.28,12.28,0,0,0-1.77-.8h0Z"/><path class="cls-9" d="M140,155.07l-1-4c-.18-2.85,1.72-3.61,4-4,5.62,2.66-.5,5.31,0,8Z"/><path class="cls-8" d="M182.88,174.89l1-1.91a5.91,5.91,0,0,1,.82-.24l4.28.34c.31,1,.63,2,.94,2.94h0L183,178.94c-.05-.64-.11-1.27-.16-1.91S182.86,175.6,182.88,174.89Z"/><path class="cls-11" d="M203.84,155.07c2.35-1.69,4.69-.57,7,0C207.32,159.33,206,159.33,203.84,155.07Z"/><path class="cls-16" d="M170.91,167.05c.74,3.19-1.55,1.64-3,1.45l3-1.44Z"/><path class="cls-10" d="M189,173.08l-4.28-.34c1.34-2.2,3-.38,4.52-.36A4.13,4.13,0,0,1,189,173.08Z"/><path class="cls-7" d="M137,168.06l-.2.33.19-.34Z"/><path class="cls-12" d="M217.11,172.47l-1.23-.06A.77.77,0,0,1,217.11,172.47Z"/><path class="cls-15" d="M138,176.19c-.77-.56-.43-1.12,0-1.67C138,175.07,138,175.63,138,176.19Z"/><path class="cls-8" d="M189.89,176c.64.06,1.3.13,1.42.91,0,.15-.36.55-.51.52-.8-.12-.81-.81-.92-1.42Z"/><path class="cls-12" d="M182.88,174.89c0,.71,0,1.43,0,2.14l-1-.09A2.18,2.18,0,0,1,182.88,174.89Z"/><path class="cls-7" d="M344,142.26a4.16,4.16,0,0,1-3.13,2c-7.32,1.27-14.79-1.3-22.07.89.16-3.73-2.49-1.62-4-1.92l-.14-.11c-.28-.48-.58-.43-.88,0l-.89.14-1.12-1.93c2.88-.49,5.88.45,8.71-.67l3.53-.07a31.4,31.4,0,0,0,12.48,0h3.45Z"/><path class="cls-10" d="M320.46,140.65c-2.83,1.12-5.83.18-8.71.67l-13-.08c-1.29-.22-2.71.21-3.83-.79Q307.71,139.93,320.46,140.65Z"/><path class="cls-10" d="M284.65,140.43a114.11,114.11,0,0,1-27.64,0Z"/><path class="cls-10" d="M344,142.26l-4-1.7a52.51,52.51,0,0,1,12.59-.12l-3.15,1.63Z"/><path class="cls-10" d="M242.63,140.54a65.3,65.3,0,0,1-19.54-.12Z"/><path class="cls-10" d="M336.47,140.57a31.4,31.4,0,0,1-12.48,0A51.09,51.09,0,0,1,336.47,140.57Z"/><path class="cls-3" d="M402.61,140c-2.32.24-4.63,1.5-6.94,0A6.77,6.77,0,0,1,402.61,140Z"/><path class="cls-10" d="M248.65,140.53a3.16,3.16,0,0,1-3.65-.05Z"/><path class="cls-10" d="M367.54,140.4a3,3,0,0,1-3.72,0Z"/><path class="cls-10" d="M288.64,140.44c-.55.66-1.12.77-1.73.07Z"/><path class="cls-10" d="M361.58,140.46h-.78A.68.68,0,0,1,361.58,140.46Z"/><path class="cls-10" d="M292.63,140.42l-.74,0A.54.54,0,0,1,292.63,140.42Z"/><path class="cls-16" d="M361.7,162.08l1.07-3.08c2.35-.29,4.05-1.22,3.91-4,.11-.08.33-.21.31-.25a3.53,3.53,0,0,0-.33-.64l0-1.1,5,0c1-.72,3.67,1.76,3.33-1.76,0-.22,2.51-1.41,3-.49,1.9,3.32,6.49,2.86,8.25,6.5,2,4.12,7.8,2.26,10.41,5.79-2.24,5.22-5.87,3.48-9.82,2.36a9.3,9.3,0,0,0-7.54,1.51c-4.19,2.9-7.62,2.15-10-2.2-1-1.77-2-2.85-4-2.91-2.7-.07-.63,3-2.66,3.56C361.25,164.69,361.86,163.25,361.7,162.08ZM382,163.25l-.39.24a3.11,3.11,0,0,0,.65.39c.1,0,.26-.14.39-.22Z"/><path class="cls-9" d="M400.66,160c1.6,1.41,1.91,2.8-.08,4.15a3.17,3.17,0,0,1-3-1c1.47-1.58,1.06-3.07.24-4.91s-5.07-3.21-1.65-6.28c-1.59-1.65-3.51-3.19-3.25-5.79.14-1.39-.4-3,2.7-1.94,3.66,1.27,8,.72,12,.95.93,1.74-.76,2.38-1.58,3C402,151.12,400.58,155.17,400.66,160Z"/><path class="cls-9" d="M371.62,153.07l-5,0c-.27-1.8-1.76-3-3.08-2.44-2.56,1-3.94-1-5.87-1.5-1.29-2.33-4.84-2.71-5.11-5.91,4.68-.22,8.95,2.52,13.76,1.82,1.46-.21,4.23-.51,2.54,3C367.84,150.21,373.52,149.77,371.62,153.07Z"/><path class="cls-11" d="M260.81,37.52c.33-4,2.06-6,6.16-3.84a4.86,4.86,0,0,0,5.14-.28c3.26-2,6.12-2.2,8.39,1.53.29.47,1.5.38,2.29.55.06.65.11,1.3.17,1.94-1.3,5.87-4.74,8.53-9.19,7.12.5-.63,1.53-1.37,1.43-1.89-.39-2.09-5.63-4.44-7.17-3-2.78,2.56-4.14,1.42-5.53-1.25C262.27,37.93,261.39,37.8,260.81,37.52Z"/><path class="cls-10" d="M292.72,25.64c3,.58,6.65-1.86,9.13,1.71-1.76.26-3.56.27-5.2,1.2C293.25,30.47,292.74,28.34,292.72,25.64Z"/><path class="cls-8" d="M186.87,24.89c1.13-2.41,3.12-3.54,5.63-3,2,.44,1.27,2.36,1.29,3.78C191.5,25.22,189,26.53,186.87,24.89Z"/><path class="cls-8" d="M201.64,26l1.43-.12A.87.87,0,0,1,201.64,26Z"/><path class="cls-15" d="M154.18,25.32c-4,.84-7.91-.13-11.76-.87A8.84,8.84,0,0,0,136,25.57l-6.14.79a13.61,13.61,0,0,1,3.2-5.82c3.4,1,5.19-2.22,7.92-3,.35,2.66,4.69.84,4.65,4.15,0,.62,1,.24,1.58-.16C151.79,18.27,153.19,19,154.18,25.32Z"/><path class="cls-9" d="M129.82,26.36l6.14-.79c.33,1.06-.5,3.58,2.14,1.78,1.11-.76,2-.82,2.85.25-.8,2.8-2.53,3.59-5.53,4.2-5.32,1.1-10.49-.23-15.71.28-.52.05-1.15-1-1.74-1.5,3.23-1.55,7.31-.94,10-3.92Z"/><path class="cls-16" d="M127.93,26.66c-2.65,3-6.73,2.37-10,3.92-3.58-1.89-4.65,2-6.94,3l-.08-.08c0-1.64,0-3.28,0-4.92.29-1-1.17-2.52.62-2.93,5.14-1.2,10.34-.55,15.52-.2C127.42,25.49,127.67,26.24,127.93,26.66Z"/><path class="cls-15" d="M89,32.56a26.75,26.75,0,0,1-4.5.89c-4.49.53-5.14-1.62-4.47-5.19,3.29-.13,6.62.56,9.73-1.45,1.26-.82,2.9-.32,3.23,1.68C91.87,30,89.71,30.57,89,32.56Z"/><path class="cls-15" d="M78.19,28.33c-1.2,3.33-4.91,3.29-7.13,5.27-1.54-.94-.42-3.84-3-4-.3-.95-.59-1.89-.89-2.83l10.82.5Z"/><path class="cls-9" d="M89,32.56c.68-2,2.84-2.54,4-4.07,2.44,0,5.29-2.9,7.19,1C98.14,31.89,94.71,32,92.4,34,90.36,35.87,90.51,32.27,89,32.56Z"/><path class="cls-9" d="M111,28.6c0,1.64,0,3.28,0,4.92-2.67-.18-3-2.1-3-4.16Z"/><path class="cls-16" d="M106,26.6l.16-.32-.21.28Z"/><path class="cls-7" d="M68.08,29.58c2.56.18,1.44,3.08,3,4-1.55,3.16,2.48,5.74,1,8.91-2.26.23-3,1.7-3,3.72,0,1.32-.64,2.3-2.08,2.11-2-.27-1.07-1.76-.76-2.64,1.37-4-.82-5-4.1-5.19,0-.65,0-1.3,0-1.95.12-.1.34-.23.32-.3a3.37,3.37,0,0,0-.32-.73h0c-.41-2.49-2.4-1.86-4-2,0-1.68-1.39-2.63-2-4,2.33.26,3.32-1.19,4-3.07.33,0,.66-.06,1-.07a3,3,0,0,0,3.11,2.11C65.86,32,66.89,30.44,68.08,29.58Z"/><path class="cls-15" d="M60,28.48c-.64,1.88-1.63,3.33-4,3.07-.32,0-.65,0-1,0l-2-4C56,23.53,57.57,29.09,60,28.48Z"/><path class="cls-7" d="M53.07,27.56l2,4c-.8,1-.88,3.39-2.83,2.24-2.32-1.36-.11-3.44-.19-5.2l.06-1.18C52.42,27.45,52.74,27.51,53.07,27.56Z"/><path class="cls-11" d="M421.51,29.56c2.21-.23,2.37,2.4,4.06,2.91-.34,2-1.35,2.26-2.5.68A17,17,0,0,1,421.51,29.56Z"/><path class="cls-11" d="M377.08,41.39l-.43-.51a4.5,4.5,0,0,1,.8-.15c.1,0,.2.18.3.28Z"/><path class="cls-9" d="M356.69,42.52,355.53,42l1.15-.52C356.68,41.85,356.69,42.19,356.69,42.52Z"/><path class="cls-9" d="M260.81,37.52c.58.28,1.46.41,1.69.86,1.39,2.67,2.75,3.81,5.53,1.25,1.54-1.42,6.78.93,7.17,3,.1.52-.93,1.26-1.43,1.89-.85,3.87-4.23,3.33-6.93,4l-1,1h0c-2-.17-5,.54-2.59-3.26.92-1.47.1-2.47-1.6-2.67s-3.48.31-3.79-2.09C259.15,40.4,258.87,38.13,260.81,37.52Z"/><path class="cls-7" d="M292.87,56.38c-1.17.11-2.32.16-3.13-.94C291.32,54,292.3,54.5,292.87,56.38Z"/><path class="cls-13" d="M265.79,49.51l1-1Z"/><path class="cls-9" d="M109,171.05l-1.06,2.17A24.33,24.33,0,0,0,97,174.31c.14-3.47.4-7-4-8.25l-3-4c.76-.16,1.75-.7,2.25-.41,2.23,1.3,2.77,1.31,3.21-1.33.22-1.32.2-2.19,1.73-2.23s3.59.39,3.46,2C100.12,166.45,105.43,168,109,171.05Z"/><path class="cls-9" d="M119.11,155l1.79.08c3.94,1,7,2.77,6.91,7.66C122.69,162.59,119.5,160.4,119.11,155Z"/><path class="cls-16" d="M90,162.1l3,4H92c-.44.21-1.64-.32-1,1-2.45.71-4.7.79-6.09-1.9l.1-.1c1.49-.79,3.23-1.25,4-3Z"/><path class="cls-9" d="M89,162c-.76,1.76-2.5,2.22-4,3-.09-2.2.59-3.8,3.11-4Z"/><path class="cls-8" d="M107,181l.22-.36-.18.4Z"/><path class="cls-15" d="M67.88,172.18c1.11-.17,2.21-.29,3.08.65-.11.85.42,2.21-.84,2.29C68.24,175.24,68,173.62,67.88,172.18Z"/><path class="cls-9" d="M91,167.05c-.66-1.3.54-.77,1-1Z"/><path class="cls-9" d="M58.05,35.53c1.6.14,3.59-.49,4,2-1.87.2-2,1.54-2,3h0l-2,1-1-2A7.12,7.12,0,0,1,58.05,35.53Z"/><path class="cls-16" d="M58,41.54l2-1c-.4,1.18,1.12,3.73-2.09,2.92C58,42.81,58,42.18,58,41.54Z"/><path class="cls-9" d="M201.89,145.14l1.72,4.58c-2.92-.87-4.6.07-6.1,2.52-1.68,2.74-4.82,3.13-8,2.87-7.58-.63-14.72.68-20.94,5.31-2.84,2.11-5.59-.11-6.9-1.28-2.4-2.12,1.6-3.18,2.23-5l3.66-3.16c-2.53-1.58-4.4-1.53-5.69,1.13-2-.93-3.78-2.46-6.3-.58-1.65,1.24-3.18.06-3.5-1.94a30.82,30.82,0,0,1-.13-4.41c2.81-1.14,4.75,1.25,7.15,1.83,3.38.82,6.61,3.26,9.23-1.55.69-1.26,3.23-.73,5-.72,5.11,0,10.64,2.14,15-2.38.75-.76,1.47-.52,2.17.05C193.93,145.09,198.11,144.31,201.89,145.14Z"/><path class="cls-15" d="M298.79,141.24l13,.08,1.12,1.93c-.78,2.4-2.83,1.85-4.55,1.86-7.42,0-14.84-.06-22.25.09a24,24,0,0,0-11.3,2.91l-3.95-1c-1-1.46-2.06-.38-3.09,0l-1.83.06-3.07-3.07c10-1.85,20.12-2,30.25-2C295,142.13,297.07,142.71,298.79,141.24Z"/><path class="cls-9" d="M255.8,147.19c.35,3-.94,4.64-3.92,4.85-1.68.12-3.22.35-4.08,2-2-.31-3.86-1-4.9-2.91s-1.46-4,1.54-3.51c2.63.48,1.58-2,2.84-2.39C250.47,144.36,253.47,144.3,255.8,147.19Z"/><path class="cls-9" d="M81.07,150c-4.79,1.66-9.23-.52-12-5.9C73.46,145.28,78.5,145.16,81.07,150Z"/><path class="cls-16" d="M225,149.45c-1.43-.77-3.11-1.31-2.74-3.37,0-.19.55-.48.78-.43C225.23,146.13,224.63,148,225,149.45Z"/><path class="cls-16" d="M229.81,149.69c.76-.68,1.51-1.19,2.54-.46C231.65,150.35,230.79,150.25,229.81,149.69Z"/><path class="cls-11" d="M482.37,158a5.23,5.23,0,0,0,.13-.87c2.45-1.23,5-1.59,7.44-.22,1.94,1.1,3.71.65,5.59.21.35,2.65-.9,5.32.06,8C491.23,162.6,485.56,162.58,482.37,158Z"/><path class="cls-11" d="M481.68,160c0-.27-.08-.54-.1-.81a3.22,3.22,0,0,1,.34.56S481.77,159.87,481.68,160Z"/><path class="cls-9" d="M456.57,147.13l-1.42-.89.53-.52.89,1.41Z"/><path class="cls-13" d="M473,149c-.23,1.08-1.1,1.08-1.89,1a1.76,1.76,0,0,1-1.7-2c.09-.77.89-.81,1.54-.71C472,147.39,472.87,147.76,473,149Z"/><path class="cls-16" d="M420.61,167.05c-.28,1.56-1.16,2.19-3,1.67.68-1.31,1.86-1.45,3-1.66Z"/><path class="cls-9" d="M400.61,164.09l1,1Z"/><path class="cls-16" d="M274.77,148.11a24,24,0,0,1,11.3-2.91c7.41-.15,14.83,0,22.25-.09,1.72,0,3.77.54,4.55-1.86l.89-.14.44,0,.44,0,.14.11c.4,2.55,2.45,1.69,4,1.92,7.28-2.19,14.75.38,22.07-.89-3.6,6.86-6.57,8.19-14,6-2.37-.7-4.29-1.4-5.56,1.82-.61,1.55-3.37,2-4.37,1.12-4.46-3.75-9-2.36-13.91-1.41-3.24.64-6.78-.4-9.63,2.22a2.39,2.39,0,0,1-2.33-.2c-3.25-4.59-8.19-2.42-12.32-2.89A4.29,4.29,0,0,1,274.77,148.11Z"/><path class="cls-13" d="M357.68,149.11c1.93.47,3.31,2.52,5.87,1.5,1.32-.53,2.81.64,3.08,2.44l0,1.1c0,.3,0,.6,0,.89.14,2.74-1.56,3.67-3.91,4-.58-3.39-.56-3.36-3-1.46a4,4,0,0,1-3.78.34c-2.33-.74-4.53-1.84-6.82-2.72-.87-.34-2.18-.2-1.89-1.65.22-1.16.76-2.22,2.34-1.86C352.78,152.38,355,150,357.68,149.11Z"/><path class="cls-16" d="M267.73,147.17c1-.4,2-1.48,3.09,0C269.8,148.61,268.78,150.13,267.73,147.17Z"/><path class="cls-16" d="M166.9,39.52c.21-1,.48-1.88,1.74-1.72,1,.12,1.11.94,1.29,1.71Z"/><path class="cls-15" d="M107,39.49l-1-2.94c1.51.06,2-1.39,3.1-2-.13,3.57,2,3,4.28,2.42,1.34-.32,3,.18,3,1.67,0,2-1.7,1.24-3,1.12C111.25,39.55,109.12,39.57,107,39.49Z"/><path class="cls-7" d="M103.07,54.44c-2,3.13-5.54,1.89-8.29,2.91C98.05,52,99.37,51.56,103.07,54.44Z"/><path class="cls-9" d="M152.05,43.07c.79-.87,1.69-.54,2.59-.31C153.9,43.93,153,43.59,152.05,43.07Z"/><path class="cls-7" d="M92.25,57.3l-1.31-.79Z"/><path class="cls-15" d="M84.9,38.65C85.84,42.19,80,41.93,81,45.5c-4.69-.79-2.1-4.64-2.25-6.72-.19-2.62,2-.07,3.2-.23A16,16,0,0,1,84.9,38.65Z"/><path class="cls-16" d="M60,40.53c0-1.46.14-2.8,2-3h0v1c0,.65,0,1.3,0,1.95Z"/><path class="cls-7" d="M161.89,152.1c1.29-2.66,3.16-2.71,5.69-1.13l-3.66,3.16Z"/><path class="cls-8" d="M166.94,176l.34.22-.38-.17Z"/><path class="cls-15" d="M318.76,145.15c-1.53-.23-3.58.63-4-1.92C316.27,143.53,318.92,141.42,318.76,145.15Z"/><path class="cls-15" d="M314.64,143.12l-.44,0-.44,0C314.06,142.69,314.36,142.64,314.64,143.12Z"/><path class="cls-15" d="M382,163.25l.65.41c-.13.08-.29.25-.39.22a3.11,3.11,0,0,1-.65-.39Z"/><path class="cls-9" d="M366.68,155c0-.29,0-.59,0-.89a3.53,3.53,0,0,1,.33.64S366.79,155,366.68,155Z"/><path class="cls-9" d="M62,38.56v-1a3.37,3.37,0,0,1,.32.73C62.38,38.33,62.16,38.46,62,38.56Z"/></g></g></svg>