<svg xmlns="http://www.w3.org/2000/svg" viewBox="0 0 48.23 336.26"><defs><style>.cls-1{fill:#8227ad;}.cls-2{fill:#b42dd7;}.cls-3{fill:#d36cf4;}</style></defs><g id="Capa_2" data-name="Capa 2"><g id="Capa_1-2" data-name="Capa 1"><path class="cls-1" d="M37.74,336.26H9.58V16.63C12.34,6.45,17.74.05,23.6,0S35,6.37,37.74,16.63Z"/><path class="cls-2" d="M24.64,28.52C35.53,28.67,43,48,44.09,51c-10,15.46-11.46,27.36-10.73,35.6,1,11.33,6.14,15.93,5.52,28.5-.59,11.81-5.36,13-7.46,24.36-2.53,13.72,7.11,27.32,8.65,48,1.25,16.89-6.44,20.56-10.79,33-1.6,4.58-2,8.13-2.61,13.12-2.66,23.06,2.5,40.81,1.78,68.8-.29,11.34-1.62,27.11-3.57,27.19s-4.53-14.61-5.36-28c-1.51-24.22,2-57.81,1.27-68a65.79,65.79,0,0,0-1.73-10.68c-.31-1.22-.68-2.47-1.14-3.81C13.79,207,7.3,203.47,8.73,187.46c1.86-20.77,11.17-34.38,8.65-48-2.1-11.35-6.87-12.55-7.46-24.36-.62-12.57,4.5-17.17,5.52-28.5.73-8.24-.69-20.14-10.73-35.6a34.6,34.6,0,0,1,6.06-12.28A31.07,31.07,0,0,1,24.64,28.52Z"/><ellipse class="cls-3" cx="23.76" cy="47.33" rx="4.5" ry="6.52"/><path class="cls-3" d="M27.7,124.72c.46,11.12-2.82,11.59-1.54,19.19.79,4.72,2.66,8.47.85,11.47-.25.41-1.22,2-2.61,2s-2.27-1.34-2.5-1.66c-2-2.79.1-6.86.84-12.14,1.17-8.29-2.5-9-1.64-18.89.61-6.94,2.2-6.45,2-11.69-.24-6.06-2.43-8.52-1.53-14.43C22,95.79,23.14,92,24.4,92c1.43,0,2.45,4.89,2.61,5.64,1.23,5.9-.29,9.18-.51,15.35C26.3,118.42,27.4,117.56,27.7,124.72Z"/><ellipse class="cls-3" cx="32.23" cy="57.13" rx="2.1" ry="3.93"/><ellipse class="cls-3" cx="16.4" cy="56.21" rx="2.1" ry="3.93"/><ellipse class="cls-3" cx="23.76" cy="63.05" rx="2.1" ry="6.33"/><ellipse class="cls-3" cx="23.76" cy="171.24" rx="4.5" ry="6.52"/><ellipse class="cls-3" cx="32.23" cy="181.04" rx="2.1" ry="3.93"/><ellipse class="cls-3" cx="16.4" cy="180.11" rx="2.1" ry="3.93"/><ellipse class="cls-3" cx="32.23" cy="102.67" rx="2.1" ry="3.93"/><ellipse class="cls-3" cx="16.4" cy="101.75" rx="2.1" ry="3.93"/><ellipse class="cls-3" cx="23.76" cy="186.95" rx="2.1" ry="6.33"/><ellipse class="cls-2" cx="6.62" cy="174.1" rx="1.91" ry="2.08"/><ellipse class="cls-2" cx="3.04" cy="183.74" rx="2.41" ry="2.62"/><ellipse class="cls-2" cx="2.91" cy="199.4" rx="2.91" ry="3.16"/><ellipse class="cls-2" cx="6.62" cy="209.61" rx="3.4" ry="3.7"/><ellipse class="cls-2" cx="41.6" cy="173.29" rx="1.91" ry="2.08"/><ellipse class="cls-2" cx="45.19" cy="182.93" rx="2.41" ry="2.62"/><ellipse class="cls-2" cx="45.32" cy="198.6" rx="2.91" ry="3.16"/><ellipse class="cls-2" cx="41.6" cy="208.8" rx="3.4" ry="3.7"/></g></g></svg>